G04 #@! TF.GenerationSoftware,KiCad,Pcbnew,9.0.0*
G04 #@! TF.CreationDate,2025-04-30T20:38:20+02:00*
G04 #@! TF.ProjectId,simm72_rom_smd,73696d6d-3732-45f7-926f-6d5f736d642e,A1*
G04 #@! TF.SameCoordinates,Original*
G04 #@! TF.FileFunction,Legend,Top*
G04 #@! TF.FilePolarity,Positive*
%FSLAX46Y46*%
G04 Gerber Fmt 4.6, Leading zero omitted, Abs format (unit mm)*
G04 Created by KiCad (PCBNEW 9.0.0) date 2025-04-30 20:38:20*
%MOMM*%
%LPD*%
G01*
G04 APERTURE LIST*
G04 Aperture macros list*
%AMRoundRect*
0 Rectangle with rounded corners*
0 $1 Rounding radius*
0 $2 $3 $4 $5 $6 $7 $8 $9 X,Y pos of 4 corners*
0 Add a 4 corners polygon primitive as box body*
4,1,4,$2,$3,$4,$5,$6,$7,$8,$9,$2,$3,0*
0 Add four circle primitives for the rounded corners*
1,1,$1+$1,$2,$3*
1,1,$1+$1,$4,$5*
1,1,$1+$1,$6,$7*
1,1,$1+$1,$8,$9*
0 Add four rect primitives between the rounded corners*
20,1,$1+$1,$2,$3,$4,$5,0*
20,1,$1+$1,$4,$5,$6,$7,0*
20,1,$1+$1,$6,$7,$8,$9,0*
20,1,$1+$1,$8,$9,$2,$3,0*%
G04 Aperture macros list end*
%ADD10C,0.150000*%
%ADD11C,0.190500*%
%ADD12C,0.200000*%
%ADD13C,0.120000*%
%ADD14R,1.040000X2.540000*%
%ADD15R,1.300000X0.300000*%
%ADD16RoundRect,0.250000X-0.650000X0.412500X-0.650000X-0.412500X0.650000X-0.412500X0.650000X0.412500X0*%
%ADD17R,0.850000X0.300000*%
%ADD18RoundRect,0.250000X0.412500X0.650000X-0.412500X0.650000X-0.412500X-0.650000X0.412500X-0.650000X0*%
G04 APERTURE END LIST*
D10*
G36*
X157141533Y-113550121D02*
G01*
X157197953Y-113561722D01*
X157302550Y-113619669D01*
X157331887Y-113673106D01*
X157350361Y-113734467D01*
X157356864Y-113805110D01*
X157355765Y-114767000D01*
X157084105Y-114767000D01*
X157083006Y-114247251D01*
X156830765Y-114247251D01*
X156831864Y-114767000D01*
X156561120Y-114767000D01*
X156561120Y-113793325D01*
X156565837Y-113752659D01*
X156830765Y-113752659D01*
X156830765Y-114063580D01*
X157083006Y-114063580D01*
X157083006Y-113756262D01*
X157068627Y-113733120D01*
X157033822Y-113723594D01*
X156887185Y-113723594D01*
X156866668Y-113725426D01*
X156845144Y-113730005D01*
X156830765Y-113752659D01*
X156565837Y-113752659D01*
X156567884Y-113735010D01*
X156588451Y-113676253D01*
X156623677Y-113616433D01*
X156726168Y-113558425D01*
X156777459Y-113547495D01*
X156825635Y-113539923D01*
X157088227Y-113539923D01*
X157141533Y-113550121D01*
G37*
G36*
X158144180Y-114767000D02*
G01*
X157871422Y-114767000D01*
X157871422Y-114070419D01*
X157609930Y-114070419D01*
X157609930Y-113949030D01*
X157919599Y-113539923D01*
X158144180Y-113539923D01*
X158144180Y-114767000D01*
G37*
G36*
X154514431Y-85406251D02*
G01*
X154220423Y-85518236D01*
X154514431Y-85630344D01*
X154514431Y-86274290D01*
X154010497Y-86442329D01*
X154010497Y-85770295D01*
X153846182Y-85714241D01*
X153846182Y-86498260D01*
X153342248Y-86694265D01*
X153342248Y-85322231D01*
X153846182Y-85322231D01*
X154010497Y-85266300D01*
X154010497Y-84958309D01*
X153846182Y-84958309D01*
X153846182Y-85322231D01*
X153342248Y-85322231D01*
X153342248Y-84650319D01*
X154514431Y-84650319D01*
X154514431Y-85406251D01*
G37*
G36*
X155856789Y-86276000D02*
G01*
X154684607Y-86276000D01*
X154684607Y-85968009D01*
X155188541Y-85968009D01*
X155352855Y-85968009D01*
X155352855Y-84958309D01*
X155188541Y-84958309D01*
X155188541Y-85968009D01*
X154684607Y-85968009D01*
X154684607Y-84650319D01*
X155856789Y-84650319D01*
X155856789Y-86276000D01*
G37*
G36*
X156026966Y-86274290D02*
G01*
X156026966Y-84650319D01*
X157867397Y-84650319D01*
X157867397Y-86274290D01*
X157363463Y-86274290D01*
X157363463Y-84958309D01*
X157199148Y-84958309D01*
X157199148Y-86274290D01*
X156695214Y-86274290D01*
X156695214Y-84958309D01*
X156530900Y-84958309D01*
X156530900Y-86274290D01*
X156026966Y-86274290D01*
G37*
D11*
X85204470Y-91218777D02*
X85313328Y-91255062D01*
X85313328Y-91255062D02*
X85494756Y-91255062D01*
X85494756Y-91255062D02*
X85567328Y-91218777D01*
X85567328Y-91218777D02*
X85603613Y-91182491D01*
X85603613Y-91182491D02*
X85639899Y-91109919D01*
X85639899Y-91109919D02*
X85639899Y-91037348D01*
X85639899Y-91037348D02*
X85603613Y-90964777D01*
X85603613Y-90964777D02*
X85567328Y-90928491D01*
X85567328Y-90928491D02*
X85494756Y-90892205D01*
X85494756Y-90892205D02*
X85349613Y-90855919D01*
X85349613Y-90855919D02*
X85277042Y-90819634D01*
X85277042Y-90819634D02*
X85240756Y-90783348D01*
X85240756Y-90783348D02*
X85204470Y-90710777D01*
X85204470Y-90710777D02*
X85204470Y-90638205D01*
X85204470Y-90638205D02*
X85240756Y-90565634D01*
X85240756Y-90565634D02*
X85277042Y-90529348D01*
X85277042Y-90529348D02*
X85349613Y-90493062D01*
X85349613Y-90493062D02*
X85531042Y-90493062D01*
X85531042Y-90493062D02*
X85639899Y-90529348D01*
X85930184Y-91218777D02*
X86039042Y-91255062D01*
X86039042Y-91255062D02*
X86220470Y-91255062D01*
X86220470Y-91255062D02*
X86293042Y-91218777D01*
X86293042Y-91218777D02*
X86329327Y-91182491D01*
X86329327Y-91182491D02*
X86365613Y-91109919D01*
X86365613Y-91109919D02*
X86365613Y-91037348D01*
X86365613Y-91037348D02*
X86329327Y-90964777D01*
X86329327Y-90964777D02*
X86293042Y-90928491D01*
X86293042Y-90928491D02*
X86220470Y-90892205D01*
X86220470Y-90892205D02*
X86075327Y-90855919D01*
X86075327Y-90855919D02*
X86002756Y-90819634D01*
X86002756Y-90819634D02*
X85966470Y-90783348D01*
X85966470Y-90783348D02*
X85930184Y-90710777D01*
X85930184Y-90710777D02*
X85930184Y-90638205D01*
X85930184Y-90638205D02*
X85966470Y-90565634D01*
X85966470Y-90565634D02*
X86002756Y-90529348D01*
X86002756Y-90529348D02*
X86075327Y-90493062D01*
X86075327Y-90493062D02*
X86256756Y-90493062D01*
X86256756Y-90493062D02*
X86365613Y-90529348D01*
X86583327Y-90493062D02*
X87018756Y-90493062D01*
X86801041Y-91255062D02*
X86801041Y-90493062D01*
X87200184Y-90493062D02*
X87671898Y-90493062D01*
X87671898Y-90493062D02*
X87417898Y-90783348D01*
X87417898Y-90783348D02*
X87526755Y-90783348D01*
X87526755Y-90783348D02*
X87599327Y-90819634D01*
X87599327Y-90819634D02*
X87635612Y-90855919D01*
X87635612Y-90855919D02*
X87671898Y-90928491D01*
X87671898Y-90928491D02*
X87671898Y-91109919D01*
X87671898Y-91109919D02*
X87635612Y-91182491D01*
X87635612Y-91182491D02*
X87599327Y-91218777D01*
X87599327Y-91218777D02*
X87526755Y-91255062D01*
X87526755Y-91255062D02*
X87309041Y-91255062D01*
X87309041Y-91255062D02*
X87236469Y-91218777D01*
X87236469Y-91218777D02*
X87200184Y-91182491D01*
X88034755Y-91255062D02*
X88179898Y-91255062D01*
X88179898Y-91255062D02*
X88252469Y-91218777D01*
X88252469Y-91218777D02*
X88288755Y-91182491D01*
X88288755Y-91182491D02*
X88361326Y-91073634D01*
X88361326Y-91073634D02*
X88397612Y-90928491D01*
X88397612Y-90928491D02*
X88397612Y-90638205D01*
X88397612Y-90638205D02*
X88361326Y-90565634D01*
X88361326Y-90565634D02*
X88325041Y-90529348D01*
X88325041Y-90529348D02*
X88252469Y-90493062D01*
X88252469Y-90493062D02*
X88107326Y-90493062D01*
X88107326Y-90493062D02*
X88034755Y-90529348D01*
X88034755Y-90529348D02*
X87998469Y-90565634D01*
X87998469Y-90565634D02*
X87962183Y-90638205D01*
X87962183Y-90638205D02*
X87962183Y-90819634D01*
X87962183Y-90819634D02*
X87998469Y-90892205D01*
X87998469Y-90892205D02*
X88034755Y-90928491D01*
X88034755Y-90928491D02*
X88107326Y-90964777D01*
X88107326Y-90964777D02*
X88252469Y-90964777D01*
X88252469Y-90964777D02*
X88325041Y-90928491D01*
X88325041Y-90928491D02*
X88361326Y-90892205D01*
X88361326Y-90892205D02*
X88397612Y-90819634D01*
X89087040Y-91255062D02*
X88724183Y-91255062D01*
X88724183Y-91255062D02*
X88724183Y-90493062D01*
X89595040Y-90855919D02*
X89341040Y-90855919D01*
X89341040Y-91255062D02*
X89341040Y-90493062D01*
X89341040Y-90493062D02*
X89703897Y-90493062D01*
X90320755Y-90747062D02*
X90320755Y-91255062D01*
X90139326Y-90456777D02*
X89957897Y-91001062D01*
X89957897Y-91001062D02*
X90429612Y-91001062D01*
X90865040Y-90493062D02*
X90937611Y-90493062D01*
X90937611Y-90493062D02*
X91010183Y-90529348D01*
X91010183Y-90529348D02*
X91046469Y-90565634D01*
X91046469Y-90565634D02*
X91082754Y-90638205D01*
X91082754Y-90638205D02*
X91119040Y-90783348D01*
X91119040Y-90783348D02*
X91119040Y-90964777D01*
X91119040Y-90964777D02*
X91082754Y-91109919D01*
X91082754Y-91109919D02*
X91046469Y-91182491D01*
X91046469Y-91182491D02*
X91010183Y-91218777D01*
X91010183Y-91218777D02*
X90937611Y-91255062D01*
X90937611Y-91255062D02*
X90865040Y-91255062D01*
X90865040Y-91255062D02*
X90792469Y-91218777D01*
X90792469Y-91218777D02*
X90756183Y-91182491D01*
X90756183Y-91182491D02*
X90719897Y-91109919D01*
X90719897Y-91109919D02*
X90683611Y-90964777D01*
X90683611Y-90964777D02*
X90683611Y-90783348D01*
X90683611Y-90783348D02*
X90719897Y-90638205D01*
X90719897Y-90638205D02*
X90756183Y-90565634D01*
X90756183Y-90565634D02*
X90792469Y-90529348D01*
X90792469Y-90529348D02*
X90865040Y-90493062D01*
X91373040Y-90493062D02*
X91881040Y-91255062D01*
X91881040Y-90493062D02*
X91373040Y-91255062D01*
X92098754Y-90493062D02*
X92606754Y-91255062D01*
X92606754Y-90493062D02*
X92098754Y-91255062D01*
X85204470Y-92445554D02*
X85313328Y-92481839D01*
X85313328Y-92481839D02*
X85494756Y-92481839D01*
X85494756Y-92481839D02*
X85567328Y-92445554D01*
X85567328Y-92445554D02*
X85603613Y-92409268D01*
X85603613Y-92409268D02*
X85639899Y-92336696D01*
X85639899Y-92336696D02*
X85639899Y-92264125D01*
X85639899Y-92264125D02*
X85603613Y-92191554D01*
X85603613Y-92191554D02*
X85567328Y-92155268D01*
X85567328Y-92155268D02*
X85494756Y-92118982D01*
X85494756Y-92118982D02*
X85349613Y-92082696D01*
X85349613Y-92082696D02*
X85277042Y-92046411D01*
X85277042Y-92046411D02*
X85240756Y-92010125D01*
X85240756Y-92010125D02*
X85204470Y-91937554D01*
X85204470Y-91937554D02*
X85204470Y-91864982D01*
X85204470Y-91864982D02*
X85240756Y-91792411D01*
X85240756Y-91792411D02*
X85277042Y-91756125D01*
X85277042Y-91756125D02*
X85349613Y-91719839D01*
X85349613Y-91719839D02*
X85531042Y-91719839D01*
X85531042Y-91719839D02*
X85639899Y-91756125D01*
X85930184Y-92445554D02*
X86039042Y-92481839D01*
X86039042Y-92481839D02*
X86220470Y-92481839D01*
X86220470Y-92481839D02*
X86293042Y-92445554D01*
X86293042Y-92445554D02*
X86329327Y-92409268D01*
X86329327Y-92409268D02*
X86365613Y-92336696D01*
X86365613Y-92336696D02*
X86365613Y-92264125D01*
X86365613Y-92264125D02*
X86329327Y-92191554D01*
X86329327Y-92191554D02*
X86293042Y-92155268D01*
X86293042Y-92155268D02*
X86220470Y-92118982D01*
X86220470Y-92118982D02*
X86075327Y-92082696D01*
X86075327Y-92082696D02*
X86002756Y-92046411D01*
X86002756Y-92046411D02*
X85966470Y-92010125D01*
X85966470Y-92010125D02*
X85930184Y-91937554D01*
X85930184Y-91937554D02*
X85930184Y-91864982D01*
X85930184Y-91864982D02*
X85966470Y-91792411D01*
X85966470Y-91792411D02*
X86002756Y-91756125D01*
X86002756Y-91756125D02*
X86075327Y-91719839D01*
X86075327Y-91719839D02*
X86256756Y-91719839D01*
X86256756Y-91719839D02*
X86365613Y-91756125D01*
X86583327Y-91719839D02*
X87018756Y-91719839D01*
X86801041Y-92481839D02*
X86801041Y-91719839D01*
X87200184Y-91719839D02*
X87671898Y-91719839D01*
X87671898Y-91719839D02*
X87417898Y-92010125D01*
X87417898Y-92010125D02*
X87526755Y-92010125D01*
X87526755Y-92010125D02*
X87599327Y-92046411D01*
X87599327Y-92046411D02*
X87635612Y-92082696D01*
X87635612Y-92082696D02*
X87671898Y-92155268D01*
X87671898Y-92155268D02*
X87671898Y-92336696D01*
X87671898Y-92336696D02*
X87635612Y-92409268D01*
X87635612Y-92409268D02*
X87599327Y-92445554D01*
X87599327Y-92445554D02*
X87526755Y-92481839D01*
X87526755Y-92481839D02*
X87309041Y-92481839D01*
X87309041Y-92481839D02*
X87236469Y-92445554D01*
X87236469Y-92445554D02*
X87200184Y-92409268D01*
X88034755Y-92481839D02*
X88179898Y-92481839D01*
X88179898Y-92481839D02*
X88252469Y-92445554D01*
X88252469Y-92445554D02*
X88288755Y-92409268D01*
X88288755Y-92409268D02*
X88361326Y-92300411D01*
X88361326Y-92300411D02*
X88397612Y-92155268D01*
X88397612Y-92155268D02*
X88397612Y-91864982D01*
X88397612Y-91864982D02*
X88361326Y-91792411D01*
X88361326Y-91792411D02*
X88325041Y-91756125D01*
X88325041Y-91756125D02*
X88252469Y-91719839D01*
X88252469Y-91719839D02*
X88107326Y-91719839D01*
X88107326Y-91719839D02*
X88034755Y-91756125D01*
X88034755Y-91756125D02*
X87998469Y-91792411D01*
X87998469Y-91792411D02*
X87962183Y-91864982D01*
X87962183Y-91864982D02*
X87962183Y-92046411D01*
X87962183Y-92046411D02*
X87998469Y-92118982D01*
X87998469Y-92118982D02*
X88034755Y-92155268D01*
X88034755Y-92155268D02*
X88107326Y-92191554D01*
X88107326Y-92191554D02*
X88252469Y-92191554D01*
X88252469Y-92191554D02*
X88325041Y-92155268D01*
X88325041Y-92155268D02*
X88361326Y-92118982D01*
X88361326Y-92118982D02*
X88397612Y-92046411D01*
X89087040Y-92481839D02*
X88724183Y-92481839D01*
X88724183Y-92481839D02*
X88724183Y-91719839D01*
X89595040Y-92082696D02*
X89341040Y-92082696D01*
X89341040Y-92481839D02*
X89341040Y-91719839D01*
X89341040Y-91719839D02*
X89703897Y-91719839D01*
X90103040Y-92046411D02*
X90030469Y-92010125D01*
X90030469Y-92010125D02*
X89994183Y-91973839D01*
X89994183Y-91973839D02*
X89957897Y-91901268D01*
X89957897Y-91901268D02*
X89957897Y-91864982D01*
X89957897Y-91864982D02*
X89994183Y-91792411D01*
X89994183Y-91792411D02*
X90030469Y-91756125D01*
X90030469Y-91756125D02*
X90103040Y-91719839D01*
X90103040Y-91719839D02*
X90248183Y-91719839D01*
X90248183Y-91719839D02*
X90320755Y-91756125D01*
X90320755Y-91756125D02*
X90357040Y-91792411D01*
X90357040Y-91792411D02*
X90393326Y-91864982D01*
X90393326Y-91864982D02*
X90393326Y-91901268D01*
X90393326Y-91901268D02*
X90357040Y-91973839D01*
X90357040Y-91973839D02*
X90320755Y-92010125D01*
X90320755Y-92010125D02*
X90248183Y-92046411D01*
X90248183Y-92046411D02*
X90103040Y-92046411D01*
X90103040Y-92046411D02*
X90030469Y-92082696D01*
X90030469Y-92082696D02*
X89994183Y-92118982D01*
X89994183Y-92118982D02*
X89957897Y-92191554D01*
X89957897Y-92191554D02*
X89957897Y-92336696D01*
X89957897Y-92336696D02*
X89994183Y-92409268D01*
X89994183Y-92409268D02*
X90030469Y-92445554D01*
X90030469Y-92445554D02*
X90103040Y-92481839D01*
X90103040Y-92481839D02*
X90248183Y-92481839D01*
X90248183Y-92481839D02*
X90320755Y-92445554D01*
X90320755Y-92445554D02*
X90357040Y-92409268D01*
X90357040Y-92409268D02*
X90393326Y-92336696D01*
X90393326Y-92336696D02*
X90393326Y-92191554D01*
X90393326Y-92191554D02*
X90357040Y-92118982D01*
X90357040Y-92118982D02*
X90320755Y-92082696D01*
X90320755Y-92082696D02*
X90248183Y-92046411D01*
X90865040Y-91719839D02*
X90937611Y-91719839D01*
X90937611Y-91719839D02*
X91010183Y-91756125D01*
X91010183Y-91756125D02*
X91046469Y-91792411D01*
X91046469Y-91792411D02*
X91082754Y-91864982D01*
X91082754Y-91864982D02*
X91119040Y-92010125D01*
X91119040Y-92010125D02*
X91119040Y-92191554D01*
X91119040Y-92191554D02*
X91082754Y-92336696D01*
X91082754Y-92336696D02*
X91046469Y-92409268D01*
X91046469Y-92409268D02*
X91010183Y-92445554D01*
X91010183Y-92445554D02*
X90937611Y-92481839D01*
X90937611Y-92481839D02*
X90865040Y-92481839D01*
X90865040Y-92481839D02*
X90792469Y-92445554D01*
X90792469Y-92445554D02*
X90756183Y-92409268D01*
X90756183Y-92409268D02*
X90719897Y-92336696D01*
X90719897Y-92336696D02*
X90683611Y-92191554D01*
X90683611Y-92191554D02*
X90683611Y-92010125D01*
X90683611Y-92010125D02*
X90719897Y-91864982D01*
X90719897Y-91864982D02*
X90756183Y-91792411D01*
X90756183Y-91792411D02*
X90792469Y-91756125D01*
X90792469Y-91756125D02*
X90865040Y-91719839D01*
X91373040Y-91719839D02*
X91881040Y-92481839D01*
X91881040Y-91719839D02*
X91373040Y-92481839D01*
X92098754Y-91719839D02*
X92606754Y-92481839D01*
X92606754Y-91719839D02*
X92098754Y-92481839D01*
D10*
G36*
X53041431Y-85406251D02*
G01*
X52747423Y-85518236D01*
X53041431Y-85630344D01*
X53041431Y-86274290D01*
X52537497Y-86442329D01*
X52537497Y-85770295D01*
X52373182Y-85714241D01*
X52373182Y-86498260D01*
X51869248Y-86694265D01*
X51869248Y-85322231D01*
X52373182Y-85322231D01*
X52537497Y-85266300D01*
X52537497Y-84958309D01*
X52373182Y-84958309D01*
X52373182Y-85322231D01*
X51869248Y-85322231D01*
X51869248Y-84650319D01*
X53041431Y-84650319D01*
X53041431Y-85406251D01*
G37*
G36*
X53211607Y-85266788D02*
G01*
X53715541Y-85070539D01*
X53715541Y-85968009D01*
X53879855Y-85968009D01*
X53879855Y-84958309D01*
X53207943Y-84958309D01*
X53207943Y-84650319D01*
X54383789Y-84650319D01*
X54383789Y-86276000D01*
X53211607Y-86276000D01*
X53211607Y-85266788D01*
G37*
G36*
X54553966Y-84652029D02*
G01*
X55057900Y-84652029D01*
X55057900Y-86023941D01*
X55222214Y-85968009D01*
X55222214Y-84652029D01*
X55726148Y-84652029D01*
X55726148Y-86136048D01*
X54553966Y-86556024D01*
X54553966Y-84652029D01*
G37*
G36*
X57068507Y-85659531D02*
G01*
X56564573Y-85883868D01*
X56564573Y-84958309D01*
X56400258Y-84958309D01*
X56400258Y-85968009D01*
X57072170Y-85968009D01*
X57072170Y-86276000D01*
X55896324Y-86276000D01*
X55896324Y-84650319D01*
X57068507Y-84650319D01*
X57068507Y-85659531D01*
G37*
G36*
X58410866Y-86274290D02*
G01*
X57906931Y-86274290D01*
X57906931Y-84958309D01*
X57742617Y-84958309D01*
X57742617Y-86274290D01*
X57238683Y-86274290D01*
X57238683Y-84650319D01*
X58410866Y-84650319D01*
X58410866Y-86274290D01*
G37*
D12*
X133280000Y-102010000D02*
X131980000Y-102010000D01*
X131630000Y-101760000D02*
X113930000Y-101760000D01*
X131630000Y-89760000D02*
X131630000Y-101760000D01*
X113930000Y-101760000D02*
X113930000Y-89760000D01*
X113930000Y-89760000D02*
X131630000Y-89760000D01*
D13*
X108196000Y-97207748D02*
X108196000Y-98630252D01*
X106376000Y-97207748D02*
X106376000Y-98630252D01*
D12*
X141354000Y-96542000D02*
X142204000Y-96542000D01*
X142554000Y-96792000D02*
X144154000Y-96792000D01*
X142554000Y-98792000D02*
X142554000Y-96792000D01*
X144154000Y-96792000D02*
X144154000Y-98792000D01*
X144154000Y-98792000D02*
X142554000Y-98792000D01*
D13*
X71366000Y-97715748D02*
X71366000Y-99138252D01*
X69546000Y-97715748D02*
X69546000Y-99138252D01*
X144065252Y-95654000D02*
X142642748Y-95654000D01*
X144065252Y-93834000D02*
X142642748Y-93834000D01*
D12*
X95180000Y-102010000D02*
X93880000Y-102010000D01*
X93530000Y-101760000D02*
X75830000Y-101760000D01*
X93530000Y-89760000D02*
X93530000Y-101760000D01*
X75830000Y-101760000D02*
X75830000Y-89760000D01*
X75830000Y-89760000D02*
X93530000Y-89760000D01*
%LPC*%
D14*
X57375000Y-113921000D03*
X58645000Y-113921000D03*
X59915000Y-113921000D03*
X61185000Y-113921000D03*
X62455000Y-113921000D03*
X63725000Y-113921000D03*
X64995000Y-113921000D03*
X66265000Y-113921000D03*
X67535000Y-113921000D03*
X68805000Y-113921000D03*
X70075000Y-113921000D03*
X71345000Y-113921000D03*
X72615000Y-113921000D03*
X73885000Y-113921000D03*
X75155000Y-113921000D03*
X76425000Y-113921000D03*
X77695000Y-113921000D03*
X78965000Y-113921000D03*
X80235000Y-113921000D03*
X81505000Y-113921000D03*
X82775000Y-113921000D03*
X84045000Y-113921000D03*
X85315000Y-113921000D03*
X86585000Y-113921000D03*
X87855000Y-113921000D03*
X89125000Y-113921000D03*
X90395000Y-113921000D03*
X91665000Y-113921000D03*
X92935000Y-113921000D03*
X94205000Y-113921000D03*
X95475000Y-113921000D03*
X96745000Y-113921000D03*
X98015000Y-113921000D03*
X99285000Y-113921000D03*
X100555000Y-113921000D03*
X101825000Y-113921000D03*
X108175000Y-113921000D03*
X109445000Y-113921000D03*
X110715000Y-113921000D03*
X111985000Y-113921000D03*
X113255000Y-113921000D03*
X114525000Y-113921000D03*
X115795000Y-113921000D03*
X117065000Y-113921000D03*
X118335000Y-113921000D03*
X119605000Y-113921000D03*
X120875000Y-113921000D03*
X122145000Y-113921000D03*
X123415000Y-113921000D03*
X124685000Y-113921000D03*
X125955000Y-113921000D03*
X127225000Y-113921000D03*
X128495000Y-113921000D03*
X129765000Y-113921000D03*
X131035000Y-113921000D03*
X132305000Y-113921000D03*
X133575000Y-113921000D03*
X134845000Y-113921000D03*
X136115000Y-113921000D03*
X137385000Y-113921000D03*
X138655000Y-113921000D03*
X139925000Y-113921000D03*
X141195000Y-113921000D03*
X142465000Y-113921000D03*
X143735000Y-113921000D03*
X145005000Y-113921000D03*
X146275000Y-113921000D03*
X147545000Y-113921000D03*
X148815000Y-113921000D03*
X150085000Y-113921000D03*
X151355000Y-113921000D03*
X152625000Y-113921000D03*
D15*
X132630000Y-101510000D03*
X132630000Y-101010000D03*
X132630000Y-100510000D03*
X132630000Y-100010000D03*
X132630000Y-99510000D03*
X132630000Y-99010000D03*
X132630000Y-98510000D03*
X132630000Y-98010000D03*
X132630000Y-97510000D03*
X132630000Y-97010000D03*
X132630000Y-96510000D03*
X132630000Y-96010000D03*
X132630000Y-95510000D03*
X132630000Y-95010000D03*
X132630000Y-94510000D03*
X132630000Y-94010000D03*
X132630000Y-93510000D03*
X132630000Y-93010000D03*
X132630000Y-92510000D03*
X132630000Y-92010000D03*
X132630000Y-91510000D03*
X132630000Y-91010000D03*
X132630000Y-90510000D03*
X132630000Y-90010000D03*
X112930000Y-90010000D03*
X112930000Y-90510000D03*
X112930000Y-91010000D03*
X112930000Y-91510000D03*
X112930000Y-92010000D03*
X112930000Y-92510000D03*
X112930000Y-93010000D03*
X112930000Y-93510000D03*
X112930000Y-94010000D03*
X112930000Y-94510000D03*
X112930000Y-95010000D03*
X112930000Y-95510000D03*
X112930000Y-96010000D03*
X112930000Y-96510000D03*
X112930000Y-97010000D03*
X112930000Y-97510000D03*
X112930000Y-98010000D03*
X112930000Y-98510000D03*
X112930000Y-99010000D03*
X112930000Y-99510000D03*
X112930000Y-100010000D03*
X112930000Y-100510000D03*
X112930000Y-101010000D03*
X112930000Y-101510000D03*
D16*
X107286000Y-96356500D03*
X107286000Y-99481500D03*
D17*
X141779000Y-97042000D03*
X141779000Y-97542000D03*
X141779000Y-98042000D03*
X141779000Y-98542000D03*
X144929000Y-98542000D03*
X144929000Y-98042000D03*
X144929000Y-97542000D03*
X144929000Y-97042000D03*
D16*
X70456000Y-96864500D03*
X70456000Y-99989500D03*
D18*
X144916500Y-94744000D03*
X141791500Y-94744000D03*
D15*
X94530000Y-101510000D03*
X94530000Y-101010000D03*
X94530000Y-100510000D03*
X94530000Y-100010000D03*
X94530000Y-99510000D03*
X94530000Y-99010000D03*
X94530000Y-98510000D03*
X94530000Y-98010000D03*
X94530000Y-97510000D03*
X94530000Y-97010000D03*
X94530000Y-96510000D03*
X94530000Y-96010000D03*
X94530000Y-95510000D03*
X94530000Y-95010000D03*
X94530000Y-94510000D03*
X94530000Y-94010000D03*
X94530000Y-93510000D03*
X94530000Y-93010000D03*
X94530000Y-92510000D03*
X94530000Y-92010000D03*
X94530000Y-91510000D03*
X94530000Y-91010000D03*
X94530000Y-90510000D03*
X94530000Y-90010000D03*
X74830000Y-90010000D03*
X74830000Y-90510000D03*
X74830000Y-91010000D03*
X74830000Y-91510000D03*
X74830000Y-92010000D03*
X74830000Y-92510000D03*
X74830000Y-93010000D03*
X74830000Y-93510000D03*
X74830000Y-94010000D03*
X74830000Y-94510000D03*
X74830000Y-95010000D03*
X74830000Y-95510000D03*
X74830000Y-96010000D03*
X74830000Y-96510000D03*
X74830000Y-97010000D03*
X74830000Y-97510000D03*
X74830000Y-98010000D03*
X74830000Y-98510000D03*
X74830000Y-99010000D03*
X74830000Y-99510000D03*
X74830000Y-100010000D03*
X74830000Y-100510000D03*
X74830000Y-101010000D03*
X74830000Y-101510000D03*
%LPD*%
M02*
