G04 #@! TF.GenerationSoftware,KiCad,Pcbnew,9.0.0*
G04 #@! TF.CreationDate,2025-04-30T20:38:19+02:00*
G04 #@! TF.ProjectId,simm72_rom_smd,73696d6d-3732-45f7-926f-6d5f736d642e,A1*
G04 #@! TF.SameCoordinates,Original*
G04 #@! TF.FileFunction,Copper,L3,Inr*
G04 #@! TF.FilePolarity,Positive*
%FSLAX46Y46*%
G04 Gerber Fmt 4.6, Leading zero omitted, Abs format (unit mm)*
G04 Created by KiCad (PCBNEW 9.0.0) date 2025-04-30 20:38:19*
%MOMM*%
%LPD*%
G01*
G04 APERTURE LIST*
G04 #@! TA.AperFunction,ViaPad*
%ADD10C,0.800000*%
G04 #@! TD*
G04 APERTURE END LIST*
D10*
X58645000Y-112854200D03*
X86378816Y-89362184D03*
X76679000Y-90045000D03*
X105635000Y-89381900D03*
X110778134Y-90362134D03*
X59915000Y-112854200D03*
X61185000Y-112854200D03*
X62455000Y-112854200D03*
X63725000Y-112854200D03*
X64995000Y-112854200D03*
X66265000Y-112854200D03*
X67535000Y-112854200D03*
X138655000Y-112854200D03*
X137385000Y-112854200D03*
X136115000Y-112854200D03*
X101952000Y-98681000D03*
X121764000Y-94109000D03*
X127860000Y-90813900D03*
X108175000Y-111127000D03*
X142973000Y-94744000D03*
X79593100Y-101094000D03*
X114779000Y-90800100D03*
X68805000Y-110873000D03*
X128495000Y-112854200D03*
X121135900Y-97919000D03*
X68805000Y-112854200D03*
X126209000Y-93340100D03*
X128495000Y-111127000D03*
X70456000Y-98935000D03*
X80235000Y-111381000D03*
X111350000Y-106675100D03*
X73885000Y-102999000D03*
X135988000Y-91061000D03*
X77822000Y-90045000D03*
X125447000Y-96903000D03*
X141779000Y-99316000D03*
X82775000Y-98808000D03*
X139925000Y-110873000D03*
X104492000Y-88775000D03*
X97507000Y-95887000D03*
X125193000Y-102872000D03*
X91665000Y-112854200D03*
X114652000Y-100509800D03*
X129257000Y-95379000D03*
X72568034Y-91903034D03*
X108175000Y-112854200D03*
X89506000Y-99570000D03*
X79593100Y-103126000D03*
X117319000Y-95004900D03*
X81124000Y-91695500D03*
X139925000Y-112854200D03*
X91665000Y-111254000D03*
X108683000Y-99570000D03*
X79860900Y-99570000D03*
X91284000Y-95506000D03*
X118208000Y-97284000D03*
X87601000Y-88775000D03*
X98142000Y-105285000D03*
X128241000Y-106047000D03*
X100809000Y-99824000D03*
X102841000Y-97665000D03*
X119605000Y-112854200D03*
X104619000Y-95379000D03*
X80235000Y-112854200D03*
X136750000Y-104904000D03*
X82965134Y-97220866D03*
X108873134Y-92267134D03*
X84425634Y-96776366D03*
X103857000Y-96522000D03*
X119605000Y-111254000D03*
X117827000Y-92839000D03*
X70075000Y-112854200D03*
X76298000Y-102618000D03*
X77441000Y-101094000D03*
X71345000Y-112854200D03*
X72615000Y-112854200D03*
X78203000Y-99824000D03*
X73885000Y-112854200D03*
X78965000Y-98681000D03*
X80108366Y-97918634D03*
X75155000Y-112854200D03*
X81187866Y-97220134D03*
X76425000Y-112854200D03*
X82140000Y-96395000D03*
X77695000Y-112854200D03*
X78965000Y-112854200D03*
X82774634Y-95125366D03*
X81505000Y-112854200D03*
X82775000Y-112854200D03*
X84045000Y-112854200D03*
X85315000Y-112854200D03*
X86585000Y-112854200D03*
X87855000Y-112854200D03*
X89125000Y-112854200D03*
X90395000Y-112854200D03*
X92935000Y-112854200D03*
X101577900Y-100586000D03*
X94205000Y-112854200D03*
X102593900Y-99443000D03*
X103603000Y-98381900D03*
X95475000Y-112854200D03*
X104625900Y-97381900D03*
X96745000Y-112854200D03*
X105508000Y-95887000D03*
X98015000Y-112854200D03*
X114906000Y-94991100D03*
X99285000Y-112854200D03*
X100555000Y-112854200D03*
X115541000Y-93734900D03*
X101825000Y-112854200D03*
X116684000Y-92839000D03*
X117446000Y-99951000D03*
X109445000Y-112854200D03*
X118208000Y-99062000D03*
X110715000Y-112854200D03*
X118970000Y-98300000D03*
X111985000Y-112854200D03*
X119732000Y-97538000D03*
X113255000Y-112854200D03*
X114525000Y-112854200D03*
X120494000Y-96776000D03*
X121256000Y-96014000D03*
X115795000Y-112854200D03*
X117065000Y-112854200D03*
X122018000Y-95252000D03*
X122780000Y-94490000D03*
X118335000Y-112854200D03*
X122145000Y-112854200D03*
X125955000Y-98554000D03*
X123415000Y-112854200D03*
X127352000Y-99189000D03*
X127225000Y-92712000D03*
X124685000Y-112854200D03*
X125955000Y-112854200D03*
X128114000Y-92070100D03*
X127225000Y-112854200D03*
X110715000Y-101431100D03*
X110207000Y-106047000D03*
X129765000Y-112854200D03*
X131035000Y-112854200D03*
X132305000Y-112854200D03*
X133575000Y-112854200D03*
X134845000Y-112854200D03*
X130400000Y-96014000D03*
X135226000Y-98046000D03*
X109699000Y-91569000D03*
X79473000Y-91381006D03*
X147545000Y-112854200D03*
X129384000Y-96903000D03*
X148815000Y-112854200D03*
X146275000Y-112854200D03*
X150085000Y-112854200D03*
X151355000Y-112854200D03*
X137385000Y-96649000D03*
X82623090Y-91720410D03*
X142465000Y-112854200D03*
X141195000Y-112854200D03*
X145005000Y-112854200D03*
X143735000Y-112854200D03*
X152625000Y-111508000D03*
X108683000Y-96395000D03*
X72742000Y-100713000D03*
X108937000Y-101348000D03*
X57375000Y-111381000D03*
X146275000Y-94744000D03*
X134972000Y-93982000D03*
X70456000Y-95633000D03*
X136432500Y-95315500D03*
X57375000Y-112854200D03*
X152625000Y-112854200D03*
X120875000Y-112854200D03*
G04 #@! TA.AperFunction,Conductor*
G36*
X158475058Y-83696161D02*
G01*
X158489353Y-83698042D01*
X158575697Y-83709410D01*
X158606954Y-83717784D01*
X158693170Y-83753496D01*
X158721200Y-83769680D01*
X158795229Y-83826484D01*
X158818115Y-83849370D01*
X158850799Y-83891965D01*
X158874919Y-83923399D01*
X158891103Y-83951430D01*
X158904224Y-83983107D01*
X158926812Y-84037638D01*
X158935190Y-84068906D01*
X158948439Y-84169541D01*
X158949500Y-84185726D01*
X158949500Y-84185884D01*
X158950300Y-102755561D01*
X158950300Y-114803039D01*
X158949520Y-114816921D01*
X158949520Y-114816922D01*
X158936583Y-114931742D01*
X158930405Y-114958813D01*
X158894557Y-115061261D01*
X158882508Y-115086280D01*
X158824757Y-115178189D01*
X158807445Y-115199897D01*
X158730697Y-115276645D01*
X158708989Y-115293957D01*
X158617080Y-115351708D01*
X158592062Y-115363756D01*
X158489746Y-115399558D01*
X158489613Y-115399605D01*
X158462543Y-115405783D01*
X158380920Y-115414979D01*
X158347721Y-115418720D01*
X158333840Y-115419500D01*
X107217560Y-115419500D01*
X107203677Y-115418720D01*
X107088857Y-115405783D01*
X107061788Y-115399605D01*
X106959333Y-115363754D01*
X106934319Y-115351708D01*
X106842410Y-115293957D01*
X106820702Y-115276645D01*
X106743954Y-115199897D01*
X106726642Y-115178189D01*
X106668891Y-115086280D01*
X106656846Y-115061270D01*
X106620992Y-114958804D01*
X106614816Y-114931745D01*
X106601880Y-114816921D01*
X106601100Y-114803039D01*
X106601100Y-112781409D01*
X108892100Y-112781409D01*
X108892100Y-112926991D01*
X108929779Y-113067611D01*
X108929780Y-113067612D01*
X108929780Y-113067613D01*
X109002567Y-113193685D01*
X109002569Y-113193688D01*
X109002570Y-113193689D01*
X109105511Y-113296630D01*
X109231589Y-113369421D01*
X109372209Y-113407100D01*
X109372211Y-113407100D01*
X109517788Y-113407100D01*
X109517791Y-113407100D01*
X109658411Y-113369421D01*
X109784489Y-113296630D01*
X109887430Y-113193689D01*
X109960221Y-113067611D01*
X109960225Y-113067594D01*
X109960231Y-113067584D01*
X109963330Y-113060104D01*
X109964496Y-113060587D01*
X109996588Y-113007935D01*
X110059434Y-112977404D01*
X110128810Y-112985697D01*
X110182689Y-113030181D01*
X110196404Y-113060214D01*
X110196670Y-113060104D01*
X110199749Y-113067540D01*
X110199774Y-113067593D01*
X110199779Y-113067611D01*
X110199779Y-113067612D01*
X110199780Y-113067613D01*
X110272567Y-113193685D01*
X110272569Y-113193688D01*
X110272570Y-113193689D01*
X110375511Y-113296630D01*
X110501589Y-113369421D01*
X110642209Y-113407100D01*
X110642211Y-113407100D01*
X110787788Y-113407100D01*
X110787791Y-113407100D01*
X110928411Y-113369421D01*
X111054489Y-113296630D01*
X111157430Y-113193689D01*
X111230221Y-113067611D01*
X111230225Y-113067594D01*
X111230231Y-113067584D01*
X111233330Y-113060104D01*
X111234496Y-113060587D01*
X111266588Y-113007935D01*
X111329434Y-112977404D01*
X111398810Y-112985697D01*
X111452689Y-113030181D01*
X111466404Y-113060214D01*
X111466670Y-113060104D01*
X111469749Y-113067540D01*
X111469774Y-113067593D01*
X111469779Y-113067611D01*
X111469779Y-113067612D01*
X111469780Y-113067613D01*
X111542567Y-113193685D01*
X111542569Y-113193688D01*
X111542570Y-113193689D01*
X111645511Y-113296630D01*
X111771589Y-113369421D01*
X111912209Y-113407100D01*
X111912211Y-113407100D01*
X112057788Y-113407100D01*
X112057791Y-113407100D01*
X112198411Y-113369421D01*
X112324489Y-113296630D01*
X112427430Y-113193689D01*
X112500221Y-113067611D01*
X112500225Y-113067594D01*
X112500231Y-113067584D01*
X112503330Y-113060104D01*
X112504496Y-113060587D01*
X112536588Y-113007935D01*
X112599434Y-112977404D01*
X112668810Y-112985697D01*
X112722689Y-113030181D01*
X112736404Y-113060214D01*
X112736670Y-113060104D01*
X112739749Y-113067540D01*
X112739774Y-113067593D01*
X112739779Y-113067611D01*
X112739779Y-113067612D01*
X112739780Y-113067613D01*
X112812567Y-113193685D01*
X112812569Y-113193688D01*
X112812570Y-113193689D01*
X112915511Y-113296630D01*
X113041589Y-113369421D01*
X113182209Y-113407100D01*
X113182211Y-113407100D01*
X113327788Y-113407100D01*
X113327791Y-113407100D01*
X113468411Y-113369421D01*
X113594489Y-113296630D01*
X113697430Y-113193689D01*
X113770221Y-113067611D01*
X113770225Y-113067594D01*
X113770231Y-113067584D01*
X113773330Y-113060104D01*
X113774496Y-113060587D01*
X113806588Y-113007935D01*
X113869434Y-112977404D01*
X113938810Y-112985697D01*
X113992689Y-113030181D01*
X114006404Y-113060214D01*
X114006670Y-113060104D01*
X114009749Y-113067540D01*
X114009774Y-113067593D01*
X114009779Y-113067611D01*
X114009779Y-113067612D01*
X114009780Y-113067613D01*
X114082567Y-113193685D01*
X114082569Y-113193688D01*
X114082570Y-113193689D01*
X114185511Y-113296630D01*
X114311589Y-113369421D01*
X114452209Y-113407100D01*
X114452211Y-113407100D01*
X114597788Y-113407100D01*
X114597791Y-113407100D01*
X114738411Y-113369421D01*
X114864489Y-113296630D01*
X114967430Y-113193689D01*
X115040221Y-113067611D01*
X115040225Y-113067594D01*
X115040231Y-113067584D01*
X115043330Y-113060104D01*
X115044496Y-113060587D01*
X115076588Y-113007935D01*
X115139434Y-112977404D01*
X115208810Y-112985697D01*
X115262689Y-113030181D01*
X115276404Y-113060214D01*
X115276670Y-113060104D01*
X115279749Y-113067540D01*
X115279774Y-113067593D01*
X115279779Y-113067611D01*
X115279779Y-113067612D01*
X115279780Y-113067613D01*
X115352567Y-113193685D01*
X115352569Y-113193688D01*
X115352570Y-113193689D01*
X115455511Y-113296630D01*
X115581589Y-113369421D01*
X115722209Y-113407100D01*
X115722211Y-113407100D01*
X115867788Y-113407100D01*
X115867791Y-113407100D01*
X116008411Y-113369421D01*
X116134489Y-113296630D01*
X116237430Y-113193689D01*
X116310221Y-113067611D01*
X116310225Y-113067594D01*
X116310231Y-113067584D01*
X116313330Y-113060104D01*
X116314496Y-113060587D01*
X116346588Y-113007935D01*
X116409434Y-112977404D01*
X116478810Y-112985697D01*
X116532689Y-113030181D01*
X116546404Y-113060214D01*
X116546670Y-113060104D01*
X116549749Y-113067540D01*
X116549774Y-113067593D01*
X116549779Y-113067611D01*
X116549779Y-113067612D01*
X116549780Y-113067613D01*
X116622567Y-113193685D01*
X116622569Y-113193688D01*
X116622570Y-113193689D01*
X116725511Y-113296630D01*
X116851589Y-113369421D01*
X116992209Y-113407100D01*
X116992211Y-113407100D01*
X117137788Y-113407100D01*
X117137791Y-113407100D01*
X117278411Y-113369421D01*
X117404489Y-113296630D01*
X117507430Y-113193689D01*
X117580221Y-113067611D01*
X117580225Y-113067594D01*
X117580231Y-113067584D01*
X117583330Y-113060104D01*
X117584496Y-113060587D01*
X117616588Y-113007935D01*
X117679434Y-112977404D01*
X117748810Y-112985697D01*
X117802689Y-113030181D01*
X117816404Y-113060214D01*
X117816670Y-113060104D01*
X117819749Y-113067540D01*
X117819774Y-113067593D01*
X117819779Y-113067611D01*
X117819779Y-113067612D01*
X117819780Y-113067613D01*
X117892567Y-113193685D01*
X117892569Y-113193688D01*
X117892570Y-113193689D01*
X117995511Y-113296630D01*
X118121589Y-113369421D01*
X118262209Y-113407100D01*
X118262211Y-113407100D01*
X118407788Y-113407100D01*
X118407791Y-113407100D01*
X118548411Y-113369421D01*
X118674489Y-113296630D01*
X118777430Y-113193689D01*
X118850221Y-113067611D01*
X118887900Y-112926991D01*
X118887900Y-112781409D01*
X120322100Y-112781409D01*
X120322100Y-112926991D01*
X120359779Y-113067611D01*
X120359780Y-113067612D01*
X120359780Y-113067613D01*
X120432567Y-113193685D01*
X120432569Y-113193688D01*
X120432570Y-113193689D01*
X120535511Y-113296630D01*
X120661589Y-113369421D01*
X120802209Y-113407100D01*
X120802211Y-113407100D01*
X120947788Y-113407100D01*
X120947791Y-113407100D01*
X121088411Y-113369421D01*
X121214489Y-113296630D01*
X121317430Y-113193689D01*
X121390221Y-113067611D01*
X121390225Y-113067594D01*
X121390231Y-113067584D01*
X121393330Y-113060104D01*
X121394496Y-113060587D01*
X121426588Y-113007935D01*
X121489434Y-112977404D01*
X121558810Y-112985697D01*
X121612689Y-113030181D01*
X121626404Y-113060214D01*
X121626670Y-113060104D01*
X121629749Y-113067540D01*
X121629774Y-113067593D01*
X121629779Y-113067611D01*
X121629779Y-113067612D01*
X121629780Y-113067613D01*
X121702567Y-113193685D01*
X121702569Y-113193688D01*
X121702570Y-113193689D01*
X121805511Y-113296630D01*
X121931589Y-113369421D01*
X122072209Y-113407100D01*
X122072211Y-113407100D01*
X122217788Y-113407100D01*
X122217791Y-113407100D01*
X122358411Y-113369421D01*
X122484489Y-113296630D01*
X122587430Y-113193689D01*
X122660221Y-113067611D01*
X122660225Y-113067594D01*
X122660231Y-113067584D01*
X122663330Y-113060104D01*
X122664496Y-113060587D01*
X122696588Y-113007935D01*
X122759434Y-112977404D01*
X122828810Y-112985697D01*
X122882689Y-113030181D01*
X122896404Y-113060214D01*
X122896670Y-113060104D01*
X122899749Y-113067540D01*
X122899774Y-113067593D01*
X122899779Y-113067611D01*
X122899779Y-113067612D01*
X122899780Y-113067613D01*
X122972567Y-113193685D01*
X122972569Y-113193688D01*
X122972570Y-113193689D01*
X123075511Y-113296630D01*
X123201589Y-113369421D01*
X123342209Y-113407100D01*
X123342211Y-113407100D01*
X123487788Y-113407100D01*
X123487791Y-113407100D01*
X123628411Y-113369421D01*
X123754489Y-113296630D01*
X123857430Y-113193689D01*
X123930221Y-113067611D01*
X123930225Y-113067594D01*
X123930231Y-113067584D01*
X123933330Y-113060104D01*
X123934496Y-113060587D01*
X123966588Y-113007935D01*
X124029434Y-112977404D01*
X124098810Y-112985697D01*
X124152689Y-113030181D01*
X124166404Y-113060214D01*
X124166670Y-113060104D01*
X124169749Y-113067540D01*
X124169774Y-113067593D01*
X124169779Y-113067611D01*
X124169779Y-113067612D01*
X124169780Y-113067613D01*
X124242567Y-113193685D01*
X124242569Y-113193688D01*
X124242570Y-113193689D01*
X124345511Y-113296630D01*
X124471589Y-113369421D01*
X124612209Y-113407100D01*
X124612211Y-113407100D01*
X124757788Y-113407100D01*
X124757791Y-113407100D01*
X124898411Y-113369421D01*
X125024489Y-113296630D01*
X125127430Y-113193689D01*
X125200221Y-113067611D01*
X125200225Y-113067594D01*
X125200231Y-113067584D01*
X125203330Y-113060104D01*
X125204496Y-113060587D01*
X125236588Y-113007935D01*
X125299434Y-112977404D01*
X125368810Y-112985697D01*
X125422689Y-113030181D01*
X125436404Y-113060214D01*
X125436670Y-113060104D01*
X125439749Y-113067540D01*
X125439774Y-113067593D01*
X125439779Y-113067611D01*
X125439779Y-113067612D01*
X125439780Y-113067613D01*
X125512567Y-113193685D01*
X125512569Y-113193688D01*
X125512570Y-113193689D01*
X125615511Y-113296630D01*
X125741589Y-113369421D01*
X125882209Y-113407100D01*
X125882211Y-113407100D01*
X126027788Y-113407100D01*
X126027791Y-113407100D01*
X126168411Y-113369421D01*
X126294489Y-113296630D01*
X126397430Y-113193689D01*
X126470221Y-113067611D01*
X126470225Y-113067594D01*
X126470231Y-113067584D01*
X126473330Y-113060104D01*
X126474496Y-113060587D01*
X126506588Y-113007935D01*
X126569434Y-112977404D01*
X126638810Y-112985697D01*
X126692689Y-113030181D01*
X126706404Y-113060214D01*
X126706670Y-113060104D01*
X126709749Y-113067540D01*
X126709774Y-113067593D01*
X126709779Y-113067611D01*
X126709779Y-113067612D01*
X126709780Y-113067613D01*
X126782567Y-113193685D01*
X126782569Y-113193688D01*
X126782570Y-113193689D01*
X126885511Y-113296630D01*
X127011589Y-113369421D01*
X127152209Y-113407100D01*
X127152211Y-113407100D01*
X127297788Y-113407100D01*
X127297791Y-113407100D01*
X127438411Y-113369421D01*
X127564489Y-113296630D01*
X127667430Y-113193689D01*
X127740221Y-113067611D01*
X127777900Y-112926991D01*
X127777900Y-112781409D01*
X129212100Y-112781409D01*
X129212100Y-112926991D01*
X129249779Y-113067611D01*
X129249780Y-113067612D01*
X129249780Y-113067613D01*
X129322567Y-113193685D01*
X129322569Y-113193688D01*
X129322570Y-113193689D01*
X129425511Y-113296630D01*
X129551589Y-113369421D01*
X129692209Y-113407100D01*
X129692211Y-113407100D01*
X129837788Y-113407100D01*
X129837791Y-113407100D01*
X129978411Y-113369421D01*
X130104489Y-113296630D01*
X130207430Y-113193689D01*
X130280221Y-113067611D01*
X130280225Y-113067594D01*
X130280231Y-113067584D01*
X130283330Y-113060104D01*
X130284496Y-113060587D01*
X130316588Y-113007935D01*
X130379434Y-112977404D01*
X130448810Y-112985697D01*
X130502689Y-113030181D01*
X130516404Y-113060214D01*
X130516670Y-113060104D01*
X130519749Y-113067540D01*
X130519774Y-113067593D01*
X130519779Y-113067611D01*
X130519779Y-113067612D01*
X130519780Y-113067613D01*
X130592567Y-113193685D01*
X130592569Y-113193688D01*
X130592570Y-113193689D01*
X130695511Y-113296630D01*
X130821589Y-113369421D01*
X130962209Y-113407100D01*
X130962211Y-113407100D01*
X131107788Y-113407100D01*
X131107791Y-113407100D01*
X131248411Y-113369421D01*
X131374489Y-113296630D01*
X131477430Y-113193689D01*
X131550221Y-113067611D01*
X131550225Y-113067594D01*
X131550231Y-113067584D01*
X131553330Y-113060104D01*
X131554496Y-113060587D01*
X131586588Y-113007935D01*
X131649434Y-112977404D01*
X131718810Y-112985697D01*
X131772689Y-113030181D01*
X131786404Y-113060214D01*
X131786670Y-113060104D01*
X131789749Y-113067540D01*
X131789774Y-113067593D01*
X131789779Y-113067611D01*
X131789779Y-113067612D01*
X131789780Y-113067613D01*
X131862567Y-113193685D01*
X131862569Y-113193688D01*
X131862570Y-113193689D01*
X131965511Y-113296630D01*
X132091589Y-113369421D01*
X132232209Y-113407100D01*
X132232211Y-113407100D01*
X132377788Y-113407100D01*
X132377791Y-113407100D01*
X132518411Y-113369421D01*
X132644489Y-113296630D01*
X132747430Y-113193689D01*
X132820221Y-113067611D01*
X132820225Y-113067594D01*
X132820231Y-113067584D01*
X132823330Y-113060104D01*
X132824496Y-113060587D01*
X132856588Y-113007935D01*
X132919434Y-112977404D01*
X132988810Y-112985697D01*
X133042689Y-113030181D01*
X133056404Y-113060214D01*
X133056670Y-113060104D01*
X133059749Y-113067540D01*
X133059774Y-113067593D01*
X133059779Y-113067611D01*
X133059779Y-113067612D01*
X133059780Y-113067613D01*
X133132567Y-113193685D01*
X133132569Y-113193688D01*
X133132570Y-113193689D01*
X133235511Y-113296630D01*
X133361589Y-113369421D01*
X133502209Y-113407100D01*
X133502211Y-113407100D01*
X133647788Y-113407100D01*
X133647791Y-113407100D01*
X133788411Y-113369421D01*
X133914489Y-113296630D01*
X134017430Y-113193689D01*
X134090221Y-113067611D01*
X134090225Y-113067594D01*
X134090231Y-113067584D01*
X134093330Y-113060104D01*
X134094496Y-113060587D01*
X134126588Y-113007935D01*
X134189434Y-112977404D01*
X134258810Y-112985697D01*
X134312689Y-113030181D01*
X134326404Y-113060214D01*
X134326670Y-113060104D01*
X134329749Y-113067540D01*
X134329774Y-113067593D01*
X134329779Y-113067611D01*
X134329779Y-113067612D01*
X134329780Y-113067613D01*
X134402567Y-113193685D01*
X134402569Y-113193688D01*
X134402570Y-113193689D01*
X134505511Y-113296630D01*
X134631589Y-113369421D01*
X134772209Y-113407100D01*
X134772211Y-113407100D01*
X134917788Y-113407100D01*
X134917791Y-113407100D01*
X135058411Y-113369421D01*
X135184489Y-113296630D01*
X135287430Y-113193689D01*
X135360221Y-113067611D01*
X135360225Y-113067594D01*
X135360231Y-113067584D01*
X135363330Y-113060104D01*
X135364496Y-113060587D01*
X135396588Y-113007935D01*
X135459434Y-112977404D01*
X135528810Y-112985697D01*
X135582689Y-113030181D01*
X135596404Y-113060214D01*
X135596670Y-113060104D01*
X135599749Y-113067540D01*
X135599774Y-113067593D01*
X135599779Y-113067611D01*
X135599779Y-113067612D01*
X135599780Y-113067613D01*
X135672567Y-113193685D01*
X135672569Y-113193688D01*
X135672570Y-113193689D01*
X135775511Y-113296630D01*
X135901589Y-113369421D01*
X136042209Y-113407100D01*
X136042211Y-113407100D01*
X136187788Y-113407100D01*
X136187791Y-113407100D01*
X136328411Y-113369421D01*
X136454489Y-113296630D01*
X136557430Y-113193689D01*
X136630221Y-113067611D01*
X136630225Y-113067594D01*
X136630231Y-113067584D01*
X136633330Y-113060104D01*
X136634496Y-113060587D01*
X136666588Y-113007935D01*
X136729434Y-112977404D01*
X136798810Y-112985697D01*
X136852689Y-113030181D01*
X136866404Y-113060214D01*
X136866670Y-113060104D01*
X136869749Y-113067540D01*
X136869774Y-113067593D01*
X136869779Y-113067611D01*
X136869779Y-113067612D01*
X136869780Y-113067613D01*
X136942567Y-113193685D01*
X136942569Y-113193688D01*
X136942570Y-113193689D01*
X137045511Y-113296630D01*
X137171589Y-113369421D01*
X137312209Y-113407100D01*
X137312211Y-113407100D01*
X137457788Y-113407100D01*
X137457791Y-113407100D01*
X137598411Y-113369421D01*
X137724489Y-113296630D01*
X137827430Y-113193689D01*
X137900221Y-113067611D01*
X137900225Y-113067594D01*
X137900231Y-113067584D01*
X137903330Y-113060104D01*
X137904496Y-113060587D01*
X137936588Y-113007935D01*
X137999434Y-112977404D01*
X138068810Y-112985697D01*
X138122689Y-113030181D01*
X138136404Y-113060214D01*
X138136670Y-113060104D01*
X138139749Y-113067540D01*
X138139774Y-113067593D01*
X138139779Y-113067611D01*
X138139779Y-113067612D01*
X138139780Y-113067613D01*
X138212567Y-113193685D01*
X138212569Y-113193688D01*
X138212570Y-113193689D01*
X138315511Y-113296630D01*
X138441589Y-113369421D01*
X138582209Y-113407100D01*
X138582211Y-113407100D01*
X138727788Y-113407100D01*
X138727791Y-113407100D01*
X138868411Y-113369421D01*
X138994489Y-113296630D01*
X139097430Y-113193689D01*
X139170221Y-113067611D01*
X139207900Y-112926991D01*
X139207900Y-112781409D01*
X140642100Y-112781409D01*
X140642100Y-112926991D01*
X140679779Y-113067611D01*
X140679780Y-113067612D01*
X140679780Y-113067613D01*
X140752567Y-113193685D01*
X140752569Y-113193688D01*
X140752570Y-113193689D01*
X140855511Y-113296630D01*
X140981589Y-113369421D01*
X141122209Y-113407100D01*
X141122211Y-113407100D01*
X141267788Y-113407100D01*
X141267791Y-113407100D01*
X141408411Y-113369421D01*
X141534489Y-113296630D01*
X141637430Y-113193689D01*
X141710221Y-113067611D01*
X141710225Y-113067594D01*
X141710231Y-113067584D01*
X141713330Y-113060104D01*
X141714496Y-113060587D01*
X141746588Y-113007935D01*
X141809434Y-112977404D01*
X141878810Y-112985697D01*
X141932689Y-113030181D01*
X141946404Y-113060214D01*
X141946670Y-113060104D01*
X141949749Y-113067540D01*
X141949774Y-113067593D01*
X141949779Y-113067611D01*
X141949779Y-113067612D01*
X141949780Y-113067613D01*
X142022567Y-113193685D01*
X142022569Y-113193688D01*
X142022570Y-113193689D01*
X142125511Y-113296630D01*
X142251589Y-113369421D01*
X142392209Y-113407100D01*
X142392211Y-113407100D01*
X142537788Y-113407100D01*
X142537791Y-113407100D01*
X142678411Y-113369421D01*
X142804489Y-113296630D01*
X142907430Y-113193689D01*
X142980221Y-113067611D01*
X142980225Y-113067594D01*
X142980231Y-113067584D01*
X142983330Y-113060104D01*
X142984496Y-113060587D01*
X143016588Y-113007935D01*
X143079434Y-112977404D01*
X143148810Y-112985697D01*
X143202689Y-113030181D01*
X143216404Y-113060214D01*
X143216670Y-113060104D01*
X143219749Y-113067540D01*
X143219774Y-113067593D01*
X143219779Y-113067611D01*
X143219779Y-113067612D01*
X143219780Y-113067613D01*
X143292567Y-113193685D01*
X143292569Y-113193688D01*
X143292570Y-113193689D01*
X143395511Y-113296630D01*
X143521589Y-113369421D01*
X143662209Y-113407100D01*
X143662211Y-113407100D01*
X143807788Y-113407100D01*
X143807791Y-113407100D01*
X143948411Y-113369421D01*
X144074489Y-113296630D01*
X144177430Y-113193689D01*
X144250221Y-113067611D01*
X144250225Y-113067594D01*
X144250231Y-113067584D01*
X144253330Y-113060104D01*
X144254496Y-113060587D01*
X144286588Y-113007935D01*
X144349434Y-112977404D01*
X144418810Y-112985697D01*
X144472689Y-113030181D01*
X144486404Y-113060214D01*
X144486670Y-113060104D01*
X144489749Y-113067540D01*
X144489774Y-113067593D01*
X144489779Y-113067611D01*
X144489779Y-113067612D01*
X144489780Y-113067613D01*
X144562567Y-113193685D01*
X144562569Y-113193688D01*
X144562570Y-113193689D01*
X144665511Y-113296630D01*
X144791589Y-113369421D01*
X144932209Y-113407100D01*
X144932211Y-113407100D01*
X145077788Y-113407100D01*
X145077791Y-113407100D01*
X145218411Y-113369421D01*
X145344489Y-113296630D01*
X145447430Y-113193689D01*
X145520221Y-113067611D01*
X145520225Y-113067594D01*
X145520231Y-113067584D01*
X145523330Y-113060104D01*
X145524496Y-113060587D01*
X145556588Y-113007935D01*
X145619434Y-112977404D01*
X145688810Y-112985697D01*
X145742689Y-113030181D01*
X145756404Y-113060214D01*
X145756670Y-113060104D01*
X145759749Y-113067540D01*
X145759774Y-113067593D01*
X145759779Y-113067611D01*
X145759779Y-113067612D01*
X145759780Y-113067613D01*
X145832567Y-113193685D01*
X145832569Y-113193688D01*
X145832570Y-113193689D01*
X145935511Y-113296630D01*
X146061589Y-113369421D01*
X146202209Y-113407100D01*
X146202211Y-113407100D01*
X146347788Y-113407100D01*
X146347791Y-113407100D01*
X146488411Y-113369421D01*
X146614489Y-113296630D01*
X146717430Y-113193689D01*
X146790221Y-113067611D01*
X146790225Y-113067594D01*
X146790231Y-113067584D01*
X146793330Y-113060104D01*
X146794496Y-113060587D01*
X146826588Y-113007935D01*
X146889434Y-112977404D01*
X146958810Y-112985697D01*
X147012689Y-113030181D01*
X147026404Y-113060214D01*
X147026670Y-113060104D01*
X147029749Y-113067540D01*
X147029774Y-113067593D01*
X147029779Y-113067611D01*
X147029779Y-113067612D01*
X147029780Y-113067613D01*
X147102567Y-113193685D01*
X147102569Y-113193688D01*
X147102570Y-113193689D01*
X147205511Y-113296630D01*
X147331589Y-113369421D01*
X147472209Y-113407100D01*
X147472211Y-113407100D01*
X147617788Y-113407100D01*
X147617791Y-113407100D01*
X147758411Y-113369421D01*
X147884489Y-113296630D01*
X147987430Y-113193689D01*
X148060221Y-113067611D01*
X148060225Y-113067594D01*
X148060231Y-113067584D01*
X148063330Y-113060104D01*
X148064496Y-113060587D01*
X148096588Y-113007935D01*
X148159434Y-112977404D01*
X148228810Y-112985697D01*
X148282689Y-113030181D01*
X148296404Y-113060214D01*
X148296670Y-113060104D01*
X148299749Y-113067540D01*
X148299774Y-113067593D01*
X148299779Y-113067611D01*
X148299779Y-113067612D01*
X148299780Y-113067613D01*
X148372567Y-113193685D01*
X148372569Y-113193688D01*
X148372570Y-113193689D01*
X148475511Y-113296630D01*
X148601589Y-113369421D01*
X148742209Y-113407100D01*
X148742211Y-113407100D01*
X148887788Y-113407100D01*
X148887791Y-113407100D01*
X149028411Y-113369421D01*
X149154489Y-113296630D01*
X149257430Y-113193689D01*
X149330221Y-113067611D01*
X149330225Y-113067594D01*
X149330231Y-113067584D01*
X149333330Y-113060104D01*
X149334496Y-113060587D01*
X149366588Y-113007935D01*
X149429434Y-112977404D01*
X149498810Y-112985697D01*
X149552689Y-113030181D01*
X149566404Y-113060214D01*
X149566670Y-113060104D01*
X149569749Y-113067540D01*
X149569774Y-113067593D01*
X149569779Y-113067611D01*
X149569779Y-113067612D01*
X149569780Y-113067613D01*
X149642567Y-113193685D01*
X149642569Y-113193688D01*
X149642570Y-113193689D01*
X149745511Y-113296630D01*
X149871589Y-113369421D01*
X150012209Y-113407100D01*
X150012211Y-113407100D01*
X150157788Y-113407100D01*
X150157791Y-113407100D01*
X150298411Y-113369421D01*
X150424489Y-113296630D01*
X150527430Y-113193689D01*
X150600221Y-113067611D01*
X150600225Y-113067594D01*
X150600231Y-113067584D01*
X150603330Y-113060104D01*
X150604496Y-113060587D01*
X150636588Y-113007935D01*
X150699434Y-112977404D01*
X150768810Y-112985697D01*
X150822689Y-113030181D01*
X150836404Y-113060214D01*
X150836670Y-113060104D01*
X150839749Y-113067540D01*
X150839774Y-113067593D01*
X150839779Y-113067611D01*
X150839779Y-113067612D01*
X150839780Y-113067613D01*
X150912567Y-113193685D01*
X150912569Y-113193688D01*
X150912570Y-113193689D01*
X151015511Y-113296630D01*
X151141589Y-113369421D01*
X151282209Y-113407100D01*
X151282211Y-113407100D01*
X151427788Y-113407100D01*
X151427791Y-113407100D01*
X151568411Y-113369421D01*
X151694489Y-113296630D01*
X151797430Y-113193689D01*
X151870221Y-113067611D01*
X151870225Y-113067594D01*
X151870231Y-113067584D01*
X151873330Y-113060104D01*
X151874496Y-113060587D01*
X151906588Y-113007935D01*
X151969434Y-112977404D01*
X152038810Y-112985697D01*
X152092689Y-113030181D01*
X152106404Y-113060214D01*
X152106670Y-113060104D01*
X152109749Y-113067540D01*
X152109774Y-113067593D01*
X152109779Y-113067611D01*
X152109779Y-113067612D01*
X152109780Y-113067613D01*
X152182567Y-113193685D01*
X152182569Y-113193688D01*
X152182570Y-113193689D01*
X152285511Y-113296630D01*
X152411589Y-113369421D01*
X152552209Y-113407100D01*
X152552211Y-113407100D01*
X152697788Y-113407100D01*
X152697791Y-113407100D01*
X152838411Y-113369421D01*
X152964489Y-113296630D01*
X153067430Y-113193689D01*
X153140221Y-113067611D01*
X153177900Y-112926991D01*
X153177900Y-112781409D01*
X153140221Y-112640789D01*
X153067430Y-112514711D01*
X152964489Y-112411770D01*
X152964488Y-112411769D01*
X152964485Y-112411767D01*
X152838413Y-112338980D01*
X152838412Y-112338979D01*
X152838411Y-112338979D01*
X152697791Y-112301300D01*
X152552209Y-112301300D01*
X152478155Y-112321142D01*
X152411587Y-112338979D01*
X152411586Y-112338980D01*
X152285514Y-112411767D01*
X152285509Y-112411771D01*
X152182571Y-112514709D01*
X152182567Y-112514714D01*
X152109780Y-112640786D01*
X152109779Y-112640787D01*
X152109779Y-112640789D01*
X152109774Y-112640807D01*
X152109766Y-112640819D01*
X152106670Y-112648296D01*
X152105503Y-112647812D01*
X152073409Y-112700466D01*
X152010562Y-112730995D01*
X151941187Y-112722700D01*
X151887309Y-112678214D01*
X151873595Y-112648186D01*
X151873330Y-112648296D01*
X151870253Y-112640868D01*
X151870226Y-112640809D01*
X151870221Y-112640789D01*
X151797430Y-112514711D01*
X151694489Y-112411770D01*
X151694488Y-112411769D01*
X151694485Y-112411767D01*
X151568413Y-112338980D01*
X151568412Y-112338979D01*
X151568411Y-112338979D01*
X151427791Y-112301300D01*
X151282209Y-112301300D01*
X151141589Y-112338979D01*
X151141587Y-112338980D01*
X151141586Y-112338980D01*
X151015514Y-112411767D01*
X151015509Y-112411771D01*
X150912571Y-112514709D01*
X150912567Y-112514714D01*
X150839780Y-112640786D01*
X150839779Y-112640787D01*
X150839779Y-112640789D01*
X150839774Y-112640807D01*
X150839766Y-112640819D01*
X150836670Y-112648296D01*
X150835503Y-112647812D01*
X150803409Y-112700466D01*
X150740562Y-112730995D01*
X150671187Y-112722700D01*
X150617309Y-112678214D01*
X150603595Y-112648186D01*
X150603330Y-112648296D01*
X150600253Y-112640868D01*
X150600226Y-112640809D01*
X150600221Y-112640789D01*
X150527430Y-112514711D01*
X150424489Y-112411770D01*
X150424488Y-112411769D01*
X150424485Y-112411767D01*
X150298413Y-112338980D01*
X150298412Y-112338979D01*
X150298411Y-112338979D01*
X150157791Y-112301300D01*
X150012209Y-112301300D01*
X149871589Y-112338979D01*
X149871587Y-112338980D01*
X149871586Y-112338980D01*
X149745514Y-112411767D01*
X149745509Y-112411771D01*
X149642571Y-112514709D01*
X149642567Y-112514714D01*
X149569780Y-112640786D01*
X149569779Y-112640787D01*
X149569779Y-112640789D01*
X149569774Y-112640807D01*
X149569766Y-112640819D01*
X149566670Y-112648296D01*
X149565503Y-112647812D01*
X149533409Y-112700466D01*
X149470562Y-112730995D01*
X149401187Y-112722700D01*
X149347309Y-112678214D01*
X149333595Y-112648186D01*
X149333330Y-112648296D01*
X149330253Y-112640868D01*
X149330226Y-112640809D01*
X149330221Y-112640789D01*
X149257430Y-112514711D01*
X149154489Y-112411770D01*
X149154488Y-112411769D01*
X149154485Y-112411767D01*
X149028413Y-112338980D01*
X149028412Y-112338979D01*
X149028411Y-112338979D01*
X148887791Y-112301300D01*
X148742209Y-112301300D01*
X148601589Y-112338979D01*
X148601587Y-112338980D01*
X148601586Y-112338980D01*
X148475514Y-112411767D01*
X148475509Y-112411771D01*
X148372571Y-112514709D01*
X148372567Y-112514714D01*
X148299780Y-112640786D01*
X148299779Y-112640787D01*
X148299779Y-112640789D01*
X148299774Y-112640807D01*
X148299766Y-112640819D01*
X148296670Y-112648296D01*
X148295503Y-112647812D01*
X148263409Y-112700466D01*
X148200562Y-112730995D01*
X148131187Y-112722700D01*
X148077309Y-112678214D01*
X148063595Y-112648186D01*
X148063330Y-112648296D01*
X148060253Y-112640868D01*
X148060226Y-112640809D01*
X148060221Y-112640789D01*
X147987430Y-112514711D01*
X147884489Y-112411770D01*
X147884488Y-112411769D01*
X147884485Y-112411767D01*
X147758413Y-112338980D01*
X147758412Y-112338979D01*
X147758411Y-112338979D01*
X147617791Y-112301300D01*
X147472209Y-112301300D01*
X147331589Y-112338979D01*
X147331587Y-112338980D01*
X147331586Y-112338980D01*
X147205514Y-112411767D01*
X147205509Y-112411771D01*
X147102571Y-112514709D01*
X147102567Y-112514714D01*
X147029780Y-112640786D01*
X147029779Y-112640787D01*
X147029779Y-112640789D01*
X147029774Y-112640807D01*
X147029766Y-112640819D01*
X147026670Y-112648296D01*
X147025503Y-112647812D01*
X146993409Y-112700466D01*
X146930562Y-112730995D01*
X146861187Y-112722700D01*
X146807309Y-112678214D01*
X146793595Y-112648186D01*
X146793330Y-112648296D01*
X146790253Y-112640868D01*
X146790226Y-112640809D01*
X146790221Y-112640789D01*
X146717430Y-112514711D01*
X146614489Y-112411770D01*
X146614488Y-112411769D01*
X146614485Y-112411767D01*
X146488413Y-112338980D01*
X146488412Y-112338979D01*
X146488411Y-112338979D01*
X146347791Y-112301300D01*
X146202209Y-112301300D01*
X146061589Y-112338979D01*
X146061587Y-112338980D01*
X146061586Y-112338980D01*
X145935514Y-112411767D01*
X145935509Y-112411771D01*
X145832571Y-112514709D01*
X145832567Y-112514714D01*
X145759780Y-112640786D01*
X145759779Y-112640787D01*
X145759779Y-112640789D01*
X145759774Y-112640807D01*
X145759766Y-112640819D01*
X145756670Y-112648296D01*
X145755503Y-112647812D01*
X145723409Y-112700466D01*
X145660562Y-112730995D01*
X145591187Y-112722700D01*
X145537309Y-112678214D01*
X145523595Y-112648186D01*
X145523330Y-112648296D01*
X145520253Y-112640868D01*
X145520226Y-112640809D01*
X145520221Y-112640789D01*
X145447430Y-112514711D01*
X145344489Y-112411770D01*
X145344488Y-112411769D01*
X145344485Y-112411767D01*
X145218413Y-112338980D01*
X145218412Y-112338979D01*
X145218411Y-112338979D01*
X145077791Y-112301300D01*
X144932209Y-112301300D01*
X144791589Y-112338979D01*
X144791587Y-112338980D01*
X144791586Y-112338980D01*
X144665514Y-112411767D01*
X144665509Y-112411771D01*
X144562571Y-112514709D01*
X144562567Y-112514714D01*
X144489780Y-112640786D01*
X144489779Y-112640787D01*
X144489779Y-112640789D01*
X144489774Y-112640807D01*
X144489766Y-112640819D01*
X144486670Y-112648296D01*
X144485503Y-112647812D01*
X144453409Y-112700466D01*
X144390562Y-112730995D01*
X144321187Y-112722700D01*
X144267309Y-112678214D01*
X144253595Y-112648186D01*
X144253330Y-112648296D01*
X144250253Y-112640868D01*
X144250226Y-112640809D01*
X144250221Y-112640789D01*
X144177430Y-112514711D01*
X144074489Y-112411770D01*
X144074488Y-112411769D01*
X144074485Y-112411767D01*
X143948413Y-112338980D01*
X143948412Y-112338979D01*
X143948411Y-112338979D01*
X143807791Y-112301300D01*
X143662209Y-112301300D01*
X143521589Y-112338979D01*
X143521587Y-112338980D01*
X143521586Y-112338980D01*
X143395514Y-112411767D01*
X143395509Y-112411771D01*
X143292571Y-112514709D01*
X143292567Y-112514714D01*
X143219780Y-112640786D01*
X143219779Y-112640787D01*
X143219779Y-112640789D01*
X143219774Y-112640807D01*
X143219766Y-112640819D01*
X143216670Y-112648296D01*
X143215503Y-112647812D01*
X143183409Y-112700466D01*
X143120562Y-112730995D01*
X143051187Y-112722700D01*
X142997309Y-112678214D01*
X142983595Y-112648186D01*
X142983330Y-112648296D01*
X142980253Y-112640868D01*
X142980226Y-112640809D01*
X142980221Y-112640789D01*
X142907430Y-112514711D01*
X142804489Y-112411770D01*
X142804488Y-112411769D01*
X142804485Y-112411767D01*
X142678413Y-112338980D01*
X142678412Y-112338979D01*
X142678411Y-112338979D01*
X142537791Y-112301300D01*
X142392209Y-112301300D01*
X142251589Y-112338979D01*
X142251587Y-112338980D01*
X142251586Y-112338980D01*
X142125514Y-112411767D01*
X142125509Y-112411771D01*
X142022571Y-112514709D01*
X142022567Y-112514714D01*
X141949780Y-112640786D01*
X141949779Y-112640787D01*
X141949779Y-112640789D01*
X141949774Y-112640807D01*
X141949766Y-112640819D01*
X141946670Y-112648296D01*
X141945503Y-112647812D01*
X141913409Y-112700466D01*
X141850562Y-112730995D01*
X141781187Y-112722700D01*
X141727309Y-112678214D01*
X141713595Y-112648186D01*
X141713330Y-112648296D01*
X141710253Y-112640868D01*
X141710226Y-112640809D01*
X141710221Y-112640789D01*
X141637430Y-112514711D01*
X141534489Y-112411770D01*
X141534488Y-112411769D01*
X141534485Y-112411767D01*
X141408413Y-112338980D01*
X141408412Y-112338979D01*
X141408411Y-112338979D01*
X141267791Y-112301300D01*
X141122209Y-112301300D01*
X140981589Y-112338979D01*
X140981587Y-112338980D01*
X140981586Y-112338980D01*
X140855514Y-112411767D01*
X140855509Y-112411771D01*
X140752571Y-112514709D01*
X140752567Y-112514714D01*
X140679780Y-112640786D01*
X140679780Y-112640787D01*
X140679779Y-112640789D01*
X140642100Y-112781409D01*
X139207900Y-112781409D01*
X139170221Y-112640789D01*
X139097430Y-112514711D01*
X138994489Y-112411770D01*
X138994488Y-112411769D01*
X138994485Y-112411767D01*
X138868413Y-112338980D01*
X138868412Y-112338979D01*
X138868411Y-112338979D01*
X138727791Y-112301300D01*
X138582209Y-112301300D01*
X138441589Y-112338979D01*
X138441587Y-112338980D01*
X138441586Y-112338980D01*
X138315514Y-112411767D01*
X138315509Y-112411771D01*
X138212571Y-112514709D01*
X138212567Y-112514714D01*
X138139780Y-112640786D01*
X138139779Y-112640787D01*
X138139779Y-112640789D01*
X138139774Y-112640807D01*
X138139766Y-112640819D01*
X138136670Y-112648296D01*
X138135503Y-112647812D01*
X138103409Y-112700466D01*
X138040562Y-112730995D01*
X137971187Y-112722700D01*
X137917309Y-112678214D01*
X137903595Y-112648186D01*
X137903330Y-112648296D01*
X137900253Y-112640868D01*
X137900226Y-112640809D01*
X137900221Y-112640789D01*
X137827430Y-112514711D01*
X137724489Y-112411770D01*
X137724488Y-112411769D01*
X137724485Y-112411767D01*
X137598413Y-112338980D01*
X137598412Y-112338979D01*
X137598411Y-112338979D01*
X137457791Y-112301300D01*
X137312209Y-112301300D01*
X137171589Y-112338979D01*
X137171587Y-112338980D01*
X137171586Y-112338980D01*
X137045514Y-112411767D01*
X137045509Y-112411771D01*
X136942571Y-112514709D01*
X136942567Y-112514714D01*
X136869780Y-112640786D01*
X136869779Y-112640787D01*
X136869779Y-112640789D01*
X136869774Y-112640807D01*
X136869766Y-112640819D01*
X136866670Y-112648296D01*
X136865503Y-112647812D01*
X136833409Y-112700466D01*
X136770562Y-112730995D01*
X136701187Y-112722700D01*
X136647309Y-112678214D01*
X136633595Y-112648186D01*
X136633330Y-112648296D01*
X136630253Y-112640868D01*
X136630226Y-112640809D01*
X136630221Y-112640789D01*
X136557430Y-112514711D01*
X136454489Y-112411770D01*
X136454488Y-112411769D01*
X136454485Y-112411767D01*
X136328413Y-112338980D01*
X136328412Y-112338979D01*
X136328411Y-112338979D01*
X136187791Y-112301300D01*
X136042209Y-112301300D01*
X135901589Y-112338979D01*
X135901587Y-112338980D01*
X135901586Y-112338980D01*
X135775514Y-112411767D01*
X135775509Y-112411771D01*
X135672571Y-112514709D01*
X135672567Y-112514714D01*
X135599780Y-112640786D01*
X135599779Y-112640787D01*
X135599779Y-112640789D01*
X135599774Y-112640807D01*
X135599766Y-112640819D01*
X135596670Y-112648296D01*
X135595503Y-112647812D01*
X135563409Y-112700466D01*
X135500562Y-112730995D01*
X135431187Y-112722700D01*
X135377309Y-112678214D01*
X135363595Y-112648186D01*
X135363330Y-112648296D01*
X135360253Y-112640868D01*
X135360226Y-112640809D01*
X135360221Y-112640789D01*
X135287430Y-112514711D01*
X135184489Y-112411770D01*
X135184488Y-112411769D01*
X135184485Y-112411767D01*
X135058413Y-112338980D01*
X135058412Y-112338979D01*
X135058411Y-112338979D01*
X134917791Y-112301300D01*
X134772209Y-112301300D01*
X134631589Y-112338979D01*
X134631587Y-112338980D01*
X134631586Y-112338980D01*
X134505514Y-112411767D01*
X134505509Y-112411771D01*
X134402571Y-112514709D01*
X134402567Y-112514714D01*
X134329780Y-112640786D01*
X134329779Y-112640787D01*
X134329779Y-112640789D01*
X134329774Y-112640807D01*
X134329766Y-112640819D01*
X134326670Y-112648296D01*
X134325503Y-112647812D01*
X134293409Y-112700466D01*
X134230562Y-112730995D01*
X134161187Y-112722700D01*
X134107309Y-112678214D01*
X134093595Y-112648186D01*
X134093330Y-112648296D01*
X134090253Y-112640868D01*
X134090226Y-112640809D01*
X134090221Y-112640789D01*
X134017430Y-112514711D01*
X133914489Y-112411770D01*
X133914488Y-112411769D01*
X133914485Y-112411767D01*
X133788413Y-112338980D01*
X133788412Y-112338979D01*
X133788411Y-112338979D01*
X133647791Y-112301300D01*
X133502209Y-112301300D01*
X133361589Y-112338979D01*
X133361587Y-112338980D01*
X133361586Y-112338980D01*
X133235514Y-112411767D01*
X133235509Y-112411771D01*
X133132571Y-112514709D01*
X133132567Y-112514714D01*
X133059780Y-112640786D01*
X133059779Y-112640787D01*
X133059779Y-112640789D01*
X133059774Y-112640807D01*
X133059766Y-112640819D01*
X133056670Y-112648296D01*
X133055503Y-112647812D01*
X133023409Y-112700466D01*
X132960562Y-112730995D01*
X132891187Y-112722700D01*
X132837309Y-112678214D01*
X132823595Y-112648186D01*
X132823330Y-112648296D01*
X132820253Y-112640868D01*
X132820226Y-112640809D01*
X132820221Y-112640789D01*
X132747430Y-112514711D01*
X132644489Y-112411770D01*
X132644488Y-112411769D01*
X132644485Y-112411767D01*
X132518413Y-112338980D01*
X132518412Y-112338979D01*
X132518411Y-112338979D01*
X132377791Y-112301300D01*
X132232209Y-112301300D01*
X132091589Y-112338979D01*
X132091587Y-112338980D01*
X132091586Y-112338980D01*
X131965514Y-112411767D01*
X131965509Y-112411771D01*
X131862571Y-112514709D01*
X131862567Y-112514714D01*
X131789780Y-112640786D01*
X131789779Y-112640787D01*
X131789779Y-112640789D01*
X131789774Y-112640807D01*
X131789766Y-112640819D01*
X131786670Y-112648296D01*
X131785503Y-112647812D01*
X131753409Y-112700466D01*
X131690562Y-112730995D01*
X131621187Y-112722700D01*
X131567309Y-112678214D01*
X131553595Y-112648186D01*
X131553330Y-112648296D01*
X131550253Y-112640868D01*
X131550226Y-112640809D01*
X131550221Y-112640789D01*
X131477430Y-112514711D01*
X131374489Y-112411770D01*
X131374488Y-112411769D01*
X131374485Y-112411767D01*
X131248413Y-112338980D01*
X131248412Y-112338979D01*
X131248411Y-112338979D01*
X131107791Y-112301300D01*
X130962209Y-112301300D01*
X130821589Y-112338979D01*
X130821587Y-112338980D01*
X130821586Y-112338980D01*
X130695514Y-112411767D01*
X130695509Y-112411771D01*
X130592571Y-112514709D01*
X130592567Y-112514714D01*
X130519780Y-112640786D01*
X130519779Y-112640787D01*
X130519779Y-112640789D01*
X130519774Y-112640807D01*
X130519766Y-112640819D01*
X130516670Y-112648296D01*
X130515503Y-112647812D01*
X130483409Y-112700466D01*
X130420562Y-112730995D01*
X130351187Y-112722700D01*
X130297309Y-112678214D01*
X130283595Y-112648186D01*
X130283330Y-112648296D01*
X130280253Y-112640868D01*
X130280226Y-112640809D01*
X130280221Y-112640789D01*
X130207430Y-112514711D01*
X130104489Y-112411770D01*
X130104488Y-112411769D01*
X130104485Y-112411767D01*
X129978413Y-112338980D01*
X129978412Y-112338979D01*
X129978411Y-112338979D01*
X129837791Y-112301300D01*
X129692209Y-112301300D01*
X129551589Y-112338979D01*
X129551587Y-112338980D01*
X129551586Y-112338980D01*
X129425514Y-112411767D01*
X129425509Y-112411771D01*
X129322571Y-112514709D01*
X129322567Y-112514714D01*
X129249780Y-112640786D01*
X129249780Y-112640787D01*
X129249779Y-112640789D01*
X129212100Y-112781409D01*
X127777900Y-112781409D01*
X127740221Y-112640789D01*
X127667430Y-112514711D01*
X127564489Y-112411770D01*
X127564488Y-112411769D01*
X127564485Y-112411767D01*
X127438413Y-112338980D01*
X127438412Y-112338979D01*
X127438411Y-112338979D01*
X127297791Y-112301300D01*
X127152209Y-112301300D01*
X127011589Y-112338979D01*
X127011587Y-112338980D01*
X127011586Y-112338980D01*
X126885514Y-112411767D01*
X126885509Y-112411771D01*
X126782571Y-112514709D01*
X126782567Y-112514714D01*
X126709780Y-112640786D01*
X126709779Y-112640787D01*
X126709779Y-112640789D01*
X126709774Y-112640807D01*
X126709766Y-112640819D01*
X126706670Y-112648296D01*
X126705503Y-112647812D01*
X126673409Y-112700466D01*
X126610562Y-112730995D01*
X126541187Y-112722700D01*
X126487309Y-112678214D01*
X126473595Y-112648186D01*
X126473330Y-112648296D01*
X126470253Y-112640868D01*
X126470226Y-112640809D01*
X126470221Y-112640789D01*
X126397430Y-112514711D01*
X126294489Y-112411770D01*
X126294488Y-112411769D01*
X126294485Y-112411767D01*
X126168413Y-112338980D01*
X126168412Y-112338979D01*
X126168411Y-112338979D01*
X126027791Y-112301300D01*
X125882209Y-112301300D01*
X125741589Y-112338979D01*
X125741587Y-112338980D01*
X125741586Y-112338980D01*
X125615514Y-112411767D01*
X125615509Y-112411771D01*
X125512571Y-112514709D01*
X125512567Y-112514714D01*
X125439780Y-112640786D01*
X125439779Y-112640787D01*
X125439779Y-112640789D01*
X125439774Y-112640807D01*
X125439766Y-112640819D01*
X125436670Y-112648296D01*
X125435503Y-112647812D01*
X125403409Y-112700466D01*
X125340562Y-112730995D01*
X125271187Y-112722700D01*
X125217309Y-112678214D01*
X125203595Y-112648186D01*
X125203330Y-112648296D01*
X125200253Y-112640868D01*
X125200226Y-112640809D01*
X125200221Y-112640789D01*
X125127430Y-112514711D01*
X125024489Y-112411770D01*
X125024488Y-112411769D01*
X125024485Y-112411767D01*
X124898413Y-112338980D01*
X124898412Y-112338979D01*
X124898411Y-112338979D01*
X124757791Y-112301300D01*
X124612209Y-112301300D01*
X124471589Y-112338979D01*
X124471587Y-112338980D01*
X124471586Y-112338980D01*
X124345514Y-112411767D01*
X124345509Y-112411771D01*
X124242571Y-112514709D01*
X124242567Y-112514714D01*
X124169780Y-112640786D01*
X124169779Y-112640787D01*
X124169779Y-112640789D01*
X124169774Y-112640807D01*
X124169766Y-112640819D01*
X124166670Y-112648296D01*
X124165503Y-112647812D01*
X124133409Y-112700466D01*
X124070562Y-112730995D01*
X124001187Y-112722700D01*
X123947309Y-112678214D01*
X123933595Y-112648186D01*
X123933330Y-112648296D01*
X123930253Y-112640868D01*
X123930226Y-112640809D01*
X123930221Y-112640789D01*
X123857430Y-112514711D01*
X123754489Y-112411770D01*
X123754488Y-112411769D01*
X123754485Y-112411767D01*
X123628413Y-112338980D01*
X123628412Y-112338979D01*
X123628411Y-112338979D01*
X123487791Y-112301300D01*
X123342209Y-112301300D01*
X123201589Y-112338979D01*
X123201587Y-112338980D01*
X123201586Y-112338980D01*
X123075514Y-112411767D01*
X123075509Y-112411771D01*
X122972571Y-112514709D01*
X122972567Y-112514714D01*
X122899780Y-112640786D01*
X122899779Y-112640787D01*
X122899779Y-112640789D01*
X122899774Y-112640807D01*
X122899766Y-112640819D01*
X122896670Y-112648296D01*
X122895503Y-112647812D01*
X122863409Y-112700466D01*
X122800562Y-112730995D01*
X122731187Y-112722700D01*
X122677309Y-112678214D01*
X122663595Y-112648186D01*
X122663330Y-112648296D01*
X122660253Y-112640868D01*
X122660226Y-112640809D01*
X122660221Y-112640789D01*
X122587430Y-112514711D01*
X122484489Y-112411770D01*
X122484488Y-112411769D01*
X122484485Y-112411767D01*
X122358413Y-112338980D01*
X122358412Y-112338979D01*
X122358411Y-112338979D01*
X122217791Y-112301300D01*
X122072209Y-112301300D01*
X121931589Y-112338979D01*
X121931587Y-112338980D01*
X121931586Y-112338980D01*
X121805514Y-112411767D01*
X121805509Y-112411771D01*
X121702571Y-112514709D01*
X121702567Y-112514714D01*
X121629780Y-112640786D01*
X121629779Y-112640787D01*
X121629779Y-112640789D01*
X121629774Y-112640807D01*
X121629766Y-112640819D01*
X121626670Y-112648296D01*
X121625503Y-112647812D01*
X121593409Y-112700466D01*
X121530562Y-112730995D01*
X121461187Y-112722700D01*
X121407309Y-112678214D01*
X121393595Y-112648186D01*
X121393330Y-112648296D01*
X121390253Y-112640868D01*
X121390226Y-112640809D01*
X121390221Y-112640789D01*
X121317430Y-112514711D01*
X121214489Y-112411770D01*
X121214488Y-112411769D01*
X121214485Y-112411767D01*
X121088413Y-112338980D01*
X121088412Y-112338979D01*
X121088411Y-112338979D01*
X120947791Y-112301300D01*
X120802209Y-112301300D01*
X120661589Y-112338979D01*
X120661587Y-112338980D01*
X120661586Y-112338980D01*
X120535514Y-112411767D01*
X120535509Y-112411771D01*
X120432571Y-112514709D01*
X120432567Y-112514714D01*
X120359780Y-112640786D01*
X120359780Y-112640787D01*
X120359779Y-112640789D01*
X120322100Y-112781409D01*
X118887900Y-112781409D01*
X118850221Y-112640789D01*
X118777430Y-112514711D01*
X118674489Y-112411770D01*
X118674488Y-112411769D01*
X118674485Y-112411767D01*
X118548413Y-112338980D01*
X118548412Y-112338979D01*
X118548411Y-112338979D01*
X118407791Y-112301300D01*
X118262209Y-112301300D01*
X118121589Y-112338979D01*
X118121587Y-112338980D01*
X118121586Y-112338980D01*
X117995514Y-112411767D01*
X117995509Y-112411771D01*
X117892571Y-112514709D01*
X117892567Y-112514714D01*
X117819780Y-112640786D01*
X117819779Y-112640787D01*
X117819779Y-112640789D01*
X117819774Y-112640807D01*
X117819766Y-112640819D01*
X117816670Y-112648296D01*
X117815503Y-112647812D01*
X117783409Y-112700466D01*
X117720562Y-112730995D01*
X117651187Y-112722700D01*
X117597309Y-112678214D01*
X117583595Y-112648186D01*
X117583330Y-112648296D01*
X117580253Y-112640868D01*
X117580226Y-112640809D01*
X117580221Y-112640789D01*
X117507430Y-112514711D01*
X117404489Y-112411770D01*
X117404488Y-112411769D01*
X117404485Y-112411767D01*
X117278413Y-112338980D01*
X117278412Y-112338979D01*
X117278411Y-112338979D01*
X117137791Y-112301300D01*
X116992209Y-112301300D01*
X116851589Y-112338979D01*
X116851587Y-112338980D01*
X116851586Y-112338980D01*
X116725514Y-112411767D01*
X116725509Y-112411771D01*
X116622571Y-112514709D01*
X116622567Y-112514714D01*
X116549780Y-112640786D01*
X116549779Y-112640787D01*
X116549779Y-112640789D01*
X116549774Y-112640807D01*
X116549766Y-112640819D01*
X116546670Y-112648296D01*
X116545503Y-112647812D01*
X116513409Y-112700466D01*
X116450562Y-112730995D01*
X116381187Y-112722700D01*
X116327309Y-112678214D01*
X116313595Y-112648186D01*
X116313330Y-112648296D01*
X116310253Y-112640868D01*
X116310226Y-112640809D01*
X116310221Y-112640789D01*
X116237430Y-112514711D01*
X116134489Y-112411770D01*
X116134488Y-112411769D01*
X116134485Y-112411767D01*
X116008413Y-112338980D01*
X116008412Y-112338979D01*
X116008411Y-112338979D01*
X115867791Y-112301300D01*
X115722209Y-112301300D01*
X115581589Y-112338979D01*
X115581587Y-112338980D01*
X115581586Y-112338980D01*
X115455514Y-112411767D01*
X115455509Y-112411771D01*
X115352571Y-112514709D01*
X115352567Y-112514714D01*
X115279780Y-112640786D01*
X115279779Y-112640787D01*
X115279779Y-112640789D01*
X115279774Y-112640807D01*
X115279766Y-112640819D01*
X115276670Y-112648296D01*
X115275503Y-112647812D01*
X115243409Y-112700466D01*
X115180562Y-112730995D01*
X115111187Y-112722700D01*
X115057309Y-112678214D01*
X115043595Y-112648186D01*
X115043330Y-112648296D01*
X115040253Y-112640868D01*
X115040226Y-112640809D01*
X115040221Y-112640789D01*
X114967430Y-112514711D01*
X114864489Y-112411770D01*
X114864488Y-112411769D01*
X114864485Y-112411767D01*
X114738413Y-112338980D01*
X114738412Y-112338979D01*
X114738411Y-112338979D01*
X114597791Y-112301300D01*
X114452209Y-112301300D01*
X114311589Y-112338979D01*
X114311587Y-112338980D01*
X114311586Y-112338980D01*
X114185514Y-112411767D01*
X114185509Y-112411771D01*
X114082571Y-112514709D01*
X114082567Y-112514714D01*
X114009780Y-112640786D01*
X114009779Y-112640787D01*
X114009779Y-112640789D01*
X114009774Y-112640807D01*
X114009766Y-112640819D01*
X114006670Y-112648296D01*
X114005503Y-112647812D01*
X113973409Y-112700466D01*
X113910562Y-112730995D01*
X113841187Y-112722700D01*
X113787309Y-112678214D01*
X113773595Y-112648186D01*
X113773330Y-112648296D01*
X113770253Y-112640868D01*
X113770226Y-112640809D01*
X113770221Y-112640789D01*
X113697430Y-112514711D01*
X113594489Y-112411770D01*
X113594488Y-112411769D01*
X113594485Y-112411767D01*
X113468413Y-112338980D01*
X113468412Y-112338979D01*
X113468411Y-112338979D01*
X113327791Y-112301300D01*
X113182209Y-112301300D01*
X113041589Y-112338979D01*
X113041587Y-112338980D01*
X113041586Y-112338980D01*
X112915514Y-112411767D01*
X112915509Y-112411771D01*
X112812571Y-112514709D01*
X112812567Y-112514714D01*
X112739780Y-112640786D01*
X112739779Y-112640787D01*
X112739779Y-112640789D01*
X112739774Y-112640807D01*
X112739766Y-112640819D01*
X112736670Y-112648296D01*
X112735503Y-112647812D01*
X112703409Y-112700466D01*
X112640562Y-112730995D01*
X112571187Y-112722700D01*
X112517309Y-112678214D01*
X112503595Y-112648186D01*
X112503330Y-112648296D01*
X112500253Y-112640868D01*
X112500226Y-112640809D01*
X112500221Y-112640789D01*
X112427430Y-112514711D01*
X112324489Y-112411770D01*
X112324488Y-112411769D01*
X112324485Y-112411767D01*
X112198413Y-112338980D01*
X112198412Y-112338979D01*
X112198411Y-112338979D01*
X112057791Y-112301300D01*
X111912209Y-112301300D01*
X111771589Y-112338979D01*
X111771587Y-112338980D01*
X111771586Y-112338980D01*
X111645514Y-112411767D01*
X111645509Y-112411771D01*
X111542571Y-112514709D01*
X111542567Y-112514714D01*
X111469780Y-112640786D01*
X111469779Y-112640787D01*
X111469779Y-112640789D01*
X111469774Y-112640807D01*
X111469766Y-112640819D01*
X111466670Y-112648296D01*
X111465503Y-112647812D01*
X111433409Y-112700466D01*
X111370562Y-112730995D01*
X111301187Y-112722700D01*
X111247309Y-112678214D01*
X111233595Y-112648186D01*
X111233330Y-112648296D01*
X111230253Y-112640868D01*
X111230226Y-112640809D01*
X111230221Y-112640789D01*
X111157430Y-112514711D01*
X111054489Y-112411770D01*
X111054488Y-112411769D01*
X111054485Y-112411767D01*
X110928413Y-112338980D01*
X110928412Y-112338979D01*
X110928411Y-112338979D01*
X110787791Y-112301300D01*
X110642209Y-112301300D01*
X110501589Y-112338979D01*
X110501587Y-112338980D01*
X110501586Y-112338980D01*
X110375514Y-112411767D01*
X110375509Y-112411771D01*
X110272571Y-112514709D01*
X110272567Y-112514714D01*
X110199780Y-112640786D01*
X110199779Y-112640787D01*
X110199779Y-112640789D01*
X110199774Y-112640807D01*
X110199766Y-112640819D01*
X110196670Y-112648296D01*
X110195503Y-112647812D01*
X110163409Y-112700466D01*
X110100562Y-112730995D01*
X110031187Y-112722700D01*
X109977309Y-112678214D01*
X109963595Y-112648186D01*
X109963330Y-112648296D01*
X109960253Y-112640868D01*
X109960226Y-112640809D01*
X109960221Y-112640789D01*
X109887430Y-112514711D01*
X109784489Y-112411770D01*
X109784488Y-112411769D01*
X109784485Y-112411767D01*
X109658413Y-112338980D01*
X109658412Y-112338979D01*
X109658411Y-112338979D01*
X109517791Y-112301300D01*
X109372209Y-112301300D01*
X109231589Y-112338979D01*
X109231587Y-112338980D01*
X109231586Y-112338980D01*
X109105514Y-112411767D01*
X109105509Y-112411771D01*
X109002571Y-112514709D01*
X109002567Y-112514714D01*
X108929780Y-112640786D01*
X108929780Y-112640787D01*
X108929779Y-112640789D01*
X108892100Y-112781409D01*
X106601100Y-112781409D01*
X106601100Y-112454875D01*
X106601099Y-112454866D01*
X106565353Y-112217705D01*
X106565351Y-112217699D01*
X106494654Y-111988505D01*
X106390586Y-111772407D01*
X106255473Y-111574232D01*
X106188102Y-111501624D01*
X106126479Y-111435209D01*
X152072100Y-111435209D01*
X152072100Y-111580791D01*
X152109779Y-111721411D01*
X152109780Y-111721412D01*
X152109780Y-111721413D01*
X152182567Y-111847485D01*
X152182569Y-111847488D01*
X152182570Y-111847489D01*
X152285511Y-111950430D01*
X152411589Y-112023221D01*
X152552209Y-112060900D01*
X152697791Y-112060900D01*
X152838411Y-112023221D01*
X152964489Y-111950430D01*
X153067430Y-111847489D01*
X153140221Y-111721411D01*
X153177900Y-111580791D01*
X153177900Y-111435209D01*
X153140221Y-111294589D01*
X153067430Y-111168511D01*
X152964489Y-111065570D01*
X152964488Y-111065569D01*
X152964485Y-111065567D01*
X152838413Y-110992780D01*
X152838412Y-110992779D01*
X152838411Y-110992779D01*
X152697791Y-110955100D01*
X152552209Y-110955100D01*
X152411589Y-110992779D01*
X152411587Y-110992780D01*
X152411586Y-110992780D01*
X152285514Y-111065567D01*
X152285509Y-111065571D01*
X152182571Y-111168509D01*
X152182567Y-111168514D01*
X152109780Y-111294586D01*
X152109780Y-111294587D01*
X152109779Y-111294589D01*
X152072100Y-111435209D01*
X106126479Y-111435209D01*
X106092336Y-111398411D01*
X106048569Y-111363508D01*
X105904809Y-111248863D01*
X105697091Y-111128937D01*
X105473819Y-111041309D01*
X105473810Y-111041307D01*
X105473807Y-111041306D01*
X105239978Y-110987936D01*
X105000805Y-110970013D01*
X105000795Y-110970013D01*
X104761621Y-110987936D01*
X104527792Y-111041306D01*
X104527784Y-111041308D01*
X104527781Y-111041309D01*
X104527778Y-111041309D01*
X104527775Y-111041311D01*
X104304508Y-111128937D01*
X104096791Y-111248863D01*
X103909263Y-111398411D01*
X103746125Y-111574234D01*
X103611014Y-111772406D01*
X103611012Y-111772410D01*
X103506948Y-111988499D01*
X103506947Y-111988502D01*
X103506946Y-111988505D01*
X103485787Y-112057100D01*
X103436248Y-112217699D01*
X103436246Y-112217705D01*
X103400500Y-112454866D01*
X103400500Y-114803039D01*
X103399720Y-114816921D01*
X103399720Y-114816922D01*
X103386783Y-114931742D01*
X103380605Y-114958813D01*
X103344757Y-115061261D01*
X103332708Y-115086280D01*
X103274957Y-115178189D01*
X103257645Y-115199897D01*
X103180897Y-115276645D01*
X103159189Y-115293957D01*
X103067280Y-115351708D01*
X103042262Y-115363756D01*
X102939946Y-115399558D01*
X102939813Y-115399605D01*
X102912743Y-115405783D01*
X102831120Y-115414979D01*
X102797921Y-115418720D01*
X102784040Y-115419500D01*
X53697760Y-115419500D01*
X53683877Y-115418720D01*
X53569057Y-115405783D01*
X53541988Y-115399605D01*
X53439533Y-115363754D01*
X53414519Y-115351708D01*
X53322610Y-115293957D01*
X53300902Y-115276645D01*
X53224154Y-115199897D01*
X53206842Y-115178189D01*
X53149091Y-115086280D01*
X53137046Y-115061270D01*
X53101192Y-114958804D01*
X53095016Y-114931745D01*
X53082080Y-114816921D01*
X53081300Y-114803039D01*
X53081300Y-112781409D01*
X56822100Y-112781409D01*
X56822100Y-112926991D01*
X56859779Y-113067611D01*
X56859780Y-113067612D01*
X56859780Y-113067613D01*
X56932567Y-113193685D01*
X56932569Y-113193688D01*
X56932570Y-113193689D01*
X57035511Y-113296630D01*
X57161589Y-113369421D01*
X57302209Y-113407100D01*
X57302211Y-113407100D01*
X57447788Y-113407100D01*
X57447791Y-113407100D01*
X57588411Y-113369421D01*
X57714489Y-113296630D01*
X57817430Y-113193689D01*
X57890221Y-113067611D01*
X57890225Y-113067594D01*
X57890231Y-113067584D01*
X57893330Y-113060104D01*
X57894496Y-113060587D01*
X57926588Y-113007935D01*
X57989434Y-112977404D01*
X58058810Y-112985697D01*
X58112689Y-113030181D01*
X58126404Y-113060214D01*
X58126670Y-113060104D01*
X58129749Y-113067540D01*
X58129774Y-113067593D01*
X58129779Y-113067611D01*
X58129779Y-113067612D01*
X58129780Y-113067613D01*
X58202567Y-113193685D01*
X58202569Y-113193688D01*
X58202570Y-113193689D01*
X58305511Y-113296630D01*
X58431589Y-113369421D01*
X58572209Y-113407100D01*
X58572211Y-113407100D01*
X58717788Y-113407100D01*
X58717791Y-113407100D01*
X58858411Y-113369421D01*
X58984489Y-113296630D01*
X59087430Y-113193689D01*
X59160221Y-113067611D01*
X59160225Y-113067594D01*
X59160231Y-113067584D01*
X59163330Y-113060104D01*
X59164496Y-113060587D01*
X59196588Y-113007935D01*
X59259434Y-112977404D01*
X59328810Y-112985697D01*
X59382689Y-113030181D01*
X59396404Y-113060214D01*
X59396670Y-113060104D01*
X59399749Y-113067540D01*
X59399774Y-113067593D01*
X59399779Y-113067611D01*
X59399779Y-113067612D01*
X59399780Y-113067613D01*
X59472567Y-113193685D01*
X59472569Y-113193688D01*
X59472570Y-113193689D01*
X59575511Y-113296630D01*
X59701589Y-113369421D01*
X59842209Y-113407100D01*
X59842211Y-113407100D01*
X59987788Y-113407100D01*
X59987791Y-113407100D01*
X60128411Y-113369421D01*
X60254489Y-113296630D01*
X60357430Y-113193689D01*
X60430221Y-113067611D01*
X60430225Y-113067594D01*
X60430231Y-113067584D01*
X60433330Y-113060104D01*
X60434496Y-113060587D01*
X60466588Y-113007935D01*
X60529434Y-112977404D01*
X60598810Y-112985697D01*
X60652689Y-113030181D01*
X60666404Y-113060214D01*
X60666670Y-113060104D01*
X60669749Y-113067540D01*
X60669774Y-113067593D01*
X60669779Y-113067611D01*
X60669779Y-113067612D01*
X60669780Y-113067613D01*
X60742567Y-113193685D01*
X60742569Y-113193688D01*
X60742570Y-113193689D01*
X60845511Y-113296630D01*
X60971589Y-113369421D01*
X61112209Y-113407100D01*
X61112211Y-113407100D01*
X61257788Y-113407100D01*
X61257791Y-113407100D01*
X61398411Y-113369421D01*
X61524489Y-113296630D01*
X61627430Y-113193689D01*
X61700221Y-113067611D01*
X61700225Y-113067594D01*
X61700231Y-113067584D01*
X61703330Y-113060104D01*
X61704496Y-113060587D01*
X61736588Y-113007935D01*
X61799434Y-112977404D01*
X61868810Y-112985697D01*
X61922689Y-113030181D01*
X61936404Y-113060214D01*
X61936670Y-113060104D01*
X61939749Y-113067540D01*
X61939774Y-113067593D01*
X61939779Y-113067611D01*
X61939779Y-113067612D01*
X61939780Y-113067613D01*
X62012567Y-113193685D01*
X62012569Y-113193688D01*
X62012570Y-113193689D01*
X62115511Y-113296630D01*
X62241589Y-113369421D01*
X62382209Y-113407100D01*
X62382211Y-113407100D01*
X62527788Y-113407100D01*
X62527791Y-113407100D01*
X62668411Y-113369421D01*
X62794489Y-113296630D01*
X62897430Y-113193689D01*
X62970221Y-113067611D01*
X62970225Y-113067594D01*
X62970231Y-113067584D01*
X62973330Y-113060104D01*
X62974496Y-113060587D01*
X63006588Y-113007935D01*
X63069434Y-112977404D01*
X63138810Y-112985697D01*
X63192689Y-113030181D01*
X63206404Y-113060214D01*
X63206670Y-113060104D01*
X63209749Y-113067540D01*
X63209774Y-113067593D01*
X63209779Y-113067611D01*
X63209779Y-113067612D01*
X63209780Y-113067613D01*
X63282567Y-113193685D01*
X63282569Y-113193688D01*
X63282570Y-113193689D01*
X63385511Y-113296630D01*
X63511589Y-113369421D01*
X63652209Y-113407100D01*
X63652211Y-113407100D01*
X63797788Y-113407100D01*
X63797791Y-113407100D01*
X63938411Y-113369421D01*
X64064489Y-113296630D01*
X64167430Y-113193689D01*
X64240221Y-113067611D01*
X64240225Y-113067594D01*
X64240231Y-113067584D01*
X64243330Y-113060104D01*
X64244496Y-113060587D01*
X64276588Y-113007935D01*
X64339434Y-112977404D01*
X64408810Y-112985697D01*
X64462689Y-113030181D01*
X64476404Y-113060214D01*
X64476670Y-113060104D01*
X64479749Y-113067540D01*
X64479774Y-113067593D01*
X64479779Y-113067611D01*
X64479779Y-113067612D01*
X64479780Y-113067613D01*
X64552567Y-113193685D01*
X64552569Y-113193688D01*
X64552570Y-113193689D01*
X64655511Y-113296630D01*
X64781589Y-113369421D01*
X64922209Y-113407100D01*
X64922211Y-113407100D01*
X65067788Y-113407100D01*
X65067791Y-113407100D01*
X65208411Y-113369421D01*
X65334489Y-113296630D01*
X65437430Y-113193689D01*
X65510221Y-113067611D01*
X65510225Y-113067594D01*
X65510231Y-113067584D01*
X65513330Y-113060104D01*
X65514496Y-113060587D01*
X65546588Y-113007935D01*
X65609434Y-112977404D01*
X65678810Y-112985697D01*
X65732689Y-113030181D01*
X65746404Y-113060214D01*
X65746670Y-113060104D01*
X65749749Y-113067540D01*
X65749774Y-113067593D01*
X65749779Y-113067611D01*
X65749779Y-113067612D01*
X65749780Y-113067613D01*
X65822567Y-113193685D01*
X65822569Y-113193688D01*
X65822570Y-113193689D01*
X65925511Y-113296630D01*
X66051589Y-113369421D01*
X66192209Y-113407100D01*
X66192211Y-113407100D01*
X66337788Y-113407100D01*
X66337791Y-113407100D01*
X66478411Y-113369421D01*
X66604489Y-113296630D01*
X66707430Y-113193689D01*
X66780221Y-113067611D01*
X66780225Y-113067594D01*
X66780231Y-113067584D01*
X66783330Y-113060104D01*
X66784496Y-113060587D01*
X66816588Y-113007935D01*
X66879434Y-112977404D01*
X66948810Y-112985697D01*
X67002689Y-113030181D01*
X67016404Y-113060214D01*
X67016670Y-113060104D01*
X67019749Y-113067540D01*
X67019774Y-113067593D01*
X67019779Y-113067611D01*
X67019779Y-113067612D01*
X67019780Y-113067613D01*
X67092567Y-113193685D01*
X67092569Y-113193688D01*
X67092570Y-113193689D01*
X67195511Y-113296630D01*
X67321589Y-113369421D01*
X67462209Y-113407100D01*
X67462211Y-113407100D01*
X67607788Y-113407100D01*
X67607791Y-113407100D01*
X67748411Y-113369421D01*
X67874489Y-113296630D01*
X67977430Y-113193689D01*
X68050221Y-113067611D01*
X68087900Y-112926991D01*
X68087900Y-112781409D01*
X69522100Y-112781409D01*
X69522100Y-112926991D01*
X69559779Y-113067611D01*
X69559780Y-113067612D01*
X69559780Y-113067613D01*
X69632567Y-113193685D01*
X69632569Y-113193688D01*
X69632570Y-113193689D01*
X69735511Y-113296630D01*
X69861589Y-113369421D01*
X70002209Y-113407100D01*
X70002211Y-113407100D01*
X70147788Y-113407100D01*
X70147791Y-113407100D01*
X70288411Y-113369421D01*
X70414489Y-113296630D01*
X70517430Y-113193689D01*
X70590221Y-113067611D01*
X70590225Y-113067594D01*
X70590231Y-113067584D01*
X70593330Y-113060104D01*
X70594496Y-113060587D01*
X70626588Y-113007935D01*
X70689434Y-112977404D01*
X70758810Y-112985697D01*
X70812689Y-113030181D01*
X70826404Y-113060214D01*
X70826670Y-113060104D01*
X70829749Y-113067540D01*
X70829774Y-113067593D01*
X70829779Y-113067611D01*
X70829779Y-113067612D01*
X70829780Y-113067613D01*
X70902567Y-113193685D01*
X70902569Y-113193688D01*
X70902570Y-113193689D01*
X71005511Y-113296630D01*
X71131589Y-113369421D01*
X71272209Y-113407100D01*
X71272211Y-113407100D01*
X71417788Y-113407100D01*
X71417791Y-113407100D01*
X71558411Y-113369421D01*
X71684489Y-113296630D01*
X71787430Y-113193689D01*
X71860221Y-113067611D01*
X71860225Y-113067594D01*
X71860231Y-113067584D01*
X71863330Y-113060104D01*
X71864496Y-113060587D01*
X71896588Y-113007935D01*
X71959434Y-112977404D01*
X72028810Y-112985697D01*
X72082689Y-113030181D01*
X72096404Y-113060214D01*
X72096670Y-113060104D01*
X72099749Y-113067540D01*
X72099774Y-113067593D01*
X72099779Y-113067611D01*
X72099779Y-113067612D01*
X72099780Y-113067613D01*
X72172567Y-113193685D01*
X72172569Y-113193688D01*
X72172570Y-113193689D01*
X72275511Y-113296630D01*
X72401589Y-113369421D01*
X72542209Y-113407100D01*
X72542211Y-113407100D01*
X72687788Y-113407100D01*
X72687791Y-113407100D01*
X72828411Y-113369421D01*
X72954489Y-113296630D01*
X73057430Y-113193689D01*
X73130221Y-113067611D01*
X73130225Y-113067594D01*
X73130231Y-113067584D01*
X73133330Y-113060104D01*
X73134496Y-113060587D01*
X73166588Y-113007935D01*
X73229434Y-112977404D01*
X73298810Y-112985697D01*
X73352689Y-113030181D01*
X73366404Y-113060214D01*
X73366670Y-113060104D01*
X73369749Y-113067540D01*
X73369774Y-113067593D01*
X73369779Y-113067611D01*
X73369779Y-113067612D01*
X73369780Y-113067613D01*
X73442567Y-113193685D01*
X73442569Y-113193688D01*
X73442570Y-113193689D01*
X73545511Y-113296630D01*
X73671589Y-113369421D01*
X73812209Y-113407100D01*
X73812211Y-113407100D01*
X73957788Y-113407100D01*
X73957791Y-113407100D01*
X74098411Y-113369421D01*
X74224489Y-113296630D01*
X74327430Y-113193689D01*
X74400221Y-113067611D01*
X74400225Y-113067594D01*
X74400231Y-113067584D01*
X74403330Y-113060104D01*
X74404496Y-113060587D01*
X74436588Y-113007935D01*
X74499434Y-112977404D01*
X74568810Y-112985697D01*
X74622689Y-113030181D01*
X74636404Y-113060214D01*
X74636670Y-113060104D01*
X74639749Y-113067540D01*
X74639774Y-113067593D01*
X74639779Y-113067611D01*
X74639779Y-113067612D01*
X74639780Y-113067613D01*
X74712567Y-113193685D01*
X74712569Y-113193688D01*
X74712570Y-113193689D01*
X74815511Y-113296630D01*
X74941589Y-113369421D01*
X75082209Y-113407100D01*
X75082211Y-113407100D01*
X75227788Y-113407100D01*
X75227791Y-113407100D01*
X75368411Y-113369421D01*
X75494489Y-113296630D01*
X75597430Y-113193689D01*
X75670221Y-113067611D01*
X75670225Y-113067594D01*
X75670231Y-113067584D01*
X75673330Y-113060104D01*
X75674496Y-113060587D01*
X75706588Y-113007935D01*
X75769434Y-112977404D01*
X75838810Y-112985697D01*
X75892689Y-113030181D01*
X75906404Y-113060214D01*
X75906670Y-113060104D01*
X75909749Y-113067540D01*
X75909774Y-113067593D01*
X75909779Y-113067611D01*
X75909779Y-113067612D01*
X75909780Y-113067613D01*
X75982567Y-113193685D01*
X75982569Y-113193688D01*
X75982570Y-113193689D01*
X76085511Y-113296630D01*
X76211589Y-113369421D01*
X76352209Y-113407100D01*
X76352211Y-113407100D01*
X76497788Y-113407100D01*
X76497791Y-113407100D01*
X76638411Y-113369421D01*
X76764489Y-113296630D01*
X76867430Y-113193689D01*
X76940221Y-113067611D01*
X76940225Y-113067594D01*
X76940231Y-113067584D01*
X76943330Y-113060104D01*
X76944496Y-113060587D01*
X76976588Y-113007935D01*
X77039434Y-112977404D01*
X77108810Y-112985697D01*
X77162689Y-113030181D01*
X77176404Y-113060214D01*
X77176670Y-113060104D01*
X77179749Y-113067540D01*
X77179774Y-113067593D01*
X77179779Y-113067611D01*
X77179779Y-113067612D01*
X77179780Y-113067613D01*
X77252567Y-113193685D01*
X77252569Y-113193688D01*
X77252570Y-113193689D01*
X77355511Y-113296630D01*
X77481589Y-113369421D01*
X77622209Y-113407100D01*
X77622211Y-113407100D01*
X77767788Y-113407100D01*
X77767791Y-113407100D01*
X77908411Y-113369421D01*
X78034489Y-113296630D01*
X78137430Y-113193689D01*
X78210221Y-113067611D01*
X78210225Y-113067594D01*
X78210231Y-113067584D01*
X78213330Y-113060104D01*
X78214496Y-113060587D01*
X78246588Y-113007935D01*
X78309434Y-112977404D01*
X78378810Y-112985697D01*
X78432689Y-113030181D01*
X78446404Y-113060214D01*
X78446670Y-113060104D01*
X78449749Y-113067540D01*
X78449774Y-113067593D01*
X78449779Y-113067611D01*
X78449779Y-113067612D01*
X78449780Y-113067613D01*
X78522567Y-113193685D01*
X78522569Y-113193688D01*
X78522570Y-113193689D01*
X78625511Y-113296630D01*
X78751589Y-113369421D01*
X78892209Y-113407100D01*
X78892211Y-113407100D01*
X79037788Y-113407100D01*
X79037791Y-113407100D01*
X79178411Y-113369421D01*
X79304489Y-113296630D01*
X79407430Y-113193689D01*
X79480221Y-113067611D01*
X79517900Y-112926991D01*
X79517900Y-112781409D01*
X80952100Y-112781409D01*
X80952100Y-112926991D01*
X80989779Y-113067611D01*
X80989780Y-113067612D01*
X80989780Y-113067613D01*
X81062567Y-113193685D01*
X81062569Y-113193688D01*
X81062570Y-113193689D01*
X81165511Y-113296630D01*
X81291589Y-113369421D01*
X81432209Y-113407100D01*
X81432211Y-113407100D01*
X81577788Y-113407100D01*
X81577791Y-113407100D01*
X81718411Y-113369421D01*
X81844489Y-113296630D01*
X81947430Y-113193689D01*
X82020221Y-113067611D01*
X82020225Y-113067594D01*
X82020231Y-113067584D01*
X82023330Y-113060104D01*
X82024496Y-113060587D01*
X82056588Y-113007935D01*
X82119434Y-112977404D01*
X82188810Y-112985697D01*
X82242689Y-113030181D01*
X82256404Y-113060214D01*
X82256670Y-113060104D01*
X82259749Y-113067540D01*
X82259774Y-113067593D01*
X82259779Y-113067611D01*
X82259779Y-113067612D01*
X82259780Y-113067613D01*
X82332567Y-113193685D01*
X82332569Y-113193688D01*
X82332570Y-113193689D01*
X82435511Y-113296630D01*
X82561589Y-113369421D01*
X82702209Y-113407100D01*
X82702211Y-113407100D01*
X82847788Y-113407100D01*
X82847791Y-113407100D01*
X82988411Y-113369421D01*
X83114489Y-113296630D01*
X83217430Y-113193689D01*
X83290221Y-113067611D01*
X83290225Y-113067594D01*
X83290231Y-113067584D01*
X83293330Y-113060104D01*
X83294496Y-113060587D01*
X83326588Y-113007935D01*
X83389434Y-112977404D01*
X83458810Y-112985697D01*
X83512689Y-113030181D01*
X83526404Y-113060214D01*
X83526670Y-113060104D01*
X83529749Y-113067540D01*
X83529774Y-113067593D01*
X83529779Y-113067611D01*
X83529779Y-113067612D01*
X83529780Y-113067613D01*
X83602567Y-113193685D01*
X83602569Y-113193688D01*
X83602570Y-113193689D01*
X83705511Y-113296630D01*
X83831589Y-113369421D01*
X83972209Y-113407100D01*
X83972211Y-113407100D01*
X84117788Y-113407100D01*
X84117791Y-113407100D01*
X84258411Y-113369421D01*
X84384489Y-113296630D01*
X84487430Y-113193689D01*
X84560221Y-113067611D01*
X84560225Y-113067594D01*
X84560231Y-113067584D01*
X84563330Y-113060104D01*
X84564496Y-113060587D01*
X84596588Y-113007935D01*
X84659434Y-112977404D01*
X84728810Y-112985697D01*
X84782689Y-113030181D01*
X84796404Y-113060214D01*
X84796670Y-113060104D01*
X84799749Y-113067540D01*
X84799774Y-113067593D01*
X84799779Y-113067611D01*
X84799779Y-113067612D01*
X84799780Y-113067613D01*
X84872567Y-113193685D01*
X84872569Y-113193688D01*
X84872570Y-113193689D01*
X84975511Y-113296630D01*
X85101589Y-113369421D01*
X85242209Y-113407100D01*
X85242211Y-113407100D01*
X85387788Y-113407100D01*
X85387791Y-113407100D01*
X85528411Y-113369421D01*
X85654489Y-113296630D01*
X85757430Y-113193689D01*
X85830221Y-113067611D01*
X85830225Y-113067594D01*
X85830231Y-113067584D01*
X85833330Y-113060104D01*
X85834496Y-113060587D01*
X85866588Y-113007935D01*
X85929434Y-112977404D01*
X85998810Y-112985697D01*
X86052689Y-113030181D01*
X86066404Y-113060214D01*
X86066670Y-113060104D01*
X86069749Y-113067540D01*
X86069774Y-113067593D01*
X86069779Y-113067611D01*
X86069779Y-113067612D01*
X86069780Y-113067613D01*
X86142567Y-113193685D01*
X86142569Y-113193688D01*
X86142570Y-113193689D01*
X86245511Y-113296630D01*
X86371589Y-113369421D01*
X86512209Y-113407100D01*
X86512211Y-113407100D01*
X86657788Y-113407100D01*
X86657791Y-113407100D01*
X86798411Y-113369421D01*
X86924489Y-113296630D01*
X87027430Y-113193689D01*
X87100221Y-113067611D01*
X87100225Y-113067594D01*
X87100231Y-113067584D01*
X87103330Y-113060104D01*
X87104496Y-113060587D01*
X87136588Y-113007935D01*
X87199434Y-112977404D01*
X87268810Y-112985697D01*
X87322689Y-113030181D01*
X87336404Y-113060214D01*
X87336670Y-113060104D01*
X87339749Y-113067540D01*
X87339774Y-113067593D01*
X87339779Y-113067611D01*
X87339779Y-113067612D01*
X87339780Y-113067613D01*
X87412567Y-113193685D01*
X87412569Y-113193688D01*
X87412570Y-113193689D01*
X87515511Y-113296630D01*
X87641589Y-113369421D01*
X87782209Y-113407100D01*
X87782211Y-113407100D01*
X87927788Y-113407100D01*
X87927791Y-113407100D01*
X88068411Y-113369421D01*
X88194489Y-113296630D01*
X88297430Y-113193689D01*
X88370221Y-113067611D01*
X88370225Y-113067594D01*
X88370231Y-113067584D01*
X88373330Y-113060104D01*
X88374496Y-113060587D01*
X88406588Y-113007935D01*
X88469434Y-112977404D01*
X88538810Y-112985697D01*
X88592689Y-113030181D01*
X88606404Y-113060214D01*
X88606670Y-113060104D01*
X88609749Y-113067540D01*
X88609774Y-113067593D01*
X88609779Y-113067611D01*
X88609779Y-113067612D01*
X88609780Y-113067613D01*
X88682567Y-113193685D01*
X88682569Y-113193688D01*
X88682570Y-113193689D01*
X88785511Y-113296630D01*
X88911589Y-113369421D01*
X89052209Y-113407100D01*
X89052211Y-113407100D01*
X89197788Y-113407100D01*
X89197791Y-113407100D01*
X89338411Y-113369421D01*
X89464489Y-113296630D01*
X89567430Y-113193689D01*
X89640221Y-113067611D01*
X89640225Y-113067594D01*
X89640231Y-113067584D01*
X89643330Y-113060104D01*
X89644496Y-113060587D01*
X89676588Y-113007935D01*
X89739434Y-112977404D01*
X89808810Y-112985697D01*
X89862689Y-113030181D01*
X89876404Y-113060214D01*
X89876670Y-113060104D01*
X89879749Y-113067540D01*
X89879774Y-113067593D01*
X89879779Y-113067611D01*
X89879779Y-113067612D01*
X89879780Y-113067613D01*
X89952567Y-113193685D01*
X89952569Y-113193688D01*
X89952570Y-113193689D01*
X90055511Y-113296630D01*
X90181589Y-113369421D01*
X90322209Y-113407100D01*
X90322211Y-113407100D01*
X90467788Y-113407100D01*
X90467791Y-113407100D01*
X90608411Y-113369421D01*
X90734489Y-113296630D01*
X90837430Y-113193689D01*
X90910221Y-113067611D01*
X90947900Y-112926991D01*
X90947900Y-112781409D01*
X92382100Y-112781409D01*
X92382100Y-112926991D01*
X92419779Y-113067611D01*
X92419780Y-113067612D01*
X92419780Y-113067613D01*
X92492567Y-113193685D01*
X92492569Y-113193688D01*
X92492570Y-113193689D01*
X92595511Y-113296630D01*
X92721589Y-113369421D01*
X92862209Y-113407100D01*
X92862211Y-113407100D01*
X93007788Y-113407100D01*
X93007791Y-113407100D01*
X93148411Y-113369421D01*
X93274489Y-113296630D01*
X93377430Y-113193689D01*
X93450221Y-113067611D01*
X93450225Y-113067594D01*
X93450231Y-113067584D01*
X93453330Y-113060104D01*
X93454496Y-113060587D01*
X93486588Y-113007935D01*
X93549434Y-112977404D01*
X93618810Y-112985697D01*
X93672689Y-113030181D01*
X93686404Y-113060214D01*
X93686670Y-113060104D01*
X93689749Y-113067540D01*
X93689774Y-113067593D01*
X93689779Y-113067611D01*
X93689779Y-113067612D01*
X93689780Y-113067613D01*
X93762567Y-113193685D01*
X93762569Y-113193688D01*
X93762570Y-113193689D01*
X93865511Y-113296630D01*
X93991589Y-113369421D01*
X94132209Y-113407100D01*
X94132211Y-113407100D01*
X94277788Y-113407100D01*
X94277791Y-113407100D01*
X94418411Y-113369421D01*
X94544489Y-113296630D01*
X94647430Y-113193689D01*
X94720221Y-113067611D01*
X94720225Y-113067594D01*
X94720231Y-113067584D01*
X94723330Y-113060104D01*
X94724496Y-113060587D01*
X94756588Y-113007935D01*
X94819434Y-112977404D01*
X94888810Y-112985697D01*
X94942689Y-113030181D01*
X94956404Y-113060214D01*
X94956670Y-113060104D01*
X94959749Y-113067540D01*
X94959774Y-113067593D01*
X94959779Y-113067611D01*
X94959779Y-113067612D01*
X94959780Y-113067613D01*
X95032567Y-113193685D01*
X95032569Y-113193688D01*
X95032570Y-113193689D01*
X95135511Y-113296630D01*
X95261589Y-113369421D01*
X95402209Y-113407100D01*
X95402211Y-113407100D01*
X95547788Y-113407100D01*
X95547791Y-113407100D01*
X95688411Y-113369421D01*
X95814489Y-113296630D01*
X95917430Y-113193689D01*
X95990221Y-113067611D01*
X95990225Y-113067594D01*
X95990231Y-113067584D01*
X95993330Y-113060104D01*
X95994496Y-113060587D01*
X96026588Y-113007935D01*
X96089434Y-112977404D01*
X96158810Y-112985697D01*
X96212689Y-113030181D01*
X96226404Y-113060214D01*
X96226670Y-113060104D01*
X96229749Y-113067540D01*
X96229774Y-113067593D01*
X96229779Y-113067611D01*
X96229779Y-113067612D01*
X96229780Y-113067613D01*
X96302567Y-113193685D01*
X96302569Y-113193688D01*
X96302570Y-113193689D01*
X96405511Y-113296630D01*
X96531589Y-113369421D01*
X96672209Y-113407100D01*
X96672211Y-113407100D01*
X96817788Y-113407100D01*
X96817791Y-113407100D01*
X96958411Y-113369421D01*
X97084489Y-113296630D01*
X97187430Y-113193689D01*
X97260221Y-113067611D01*
X97260225Y-113067594D01*
X97260231Y-113067584D01*
X97263330Y-113060104D01*
X97264496Y-113060587D01*
X97296588Y-113007935D01*
X97359434Y-112977404D01*
X97428810Y-112985697D01*
X97482689Y-113030181D01*
X97496404Y-113060214D01*
X97496670Y-113060104D01*
X97499749Y-113067540D01*
X97499774Y-113067593D01*
X97499779Y-113067611D01*
X97499779Y-113067612D01*
X97499780Y-113067613D01*
X97572567Y-113193685D01*
X97572569Y-113193688D01*
X97572570Y-113193689D01*
X97675511Y-113296630D01*
X97801589Y-113369421D01*
X97942209Y-113407100D01*
X97942211Y-113407100D01*
X98087788Y-113407100D01*
X98087791Y-113407100D01*
X98228411Y-113369421D01*
X98354489Y-113296630D01*
X98457430Y-113193689D01*
X98530221Y-113067611D01*
X98530225Y-113067594D01*
X98530231Y-113067584D01*
X98533330Y-113060104D01*
X98534496Y-113060587D01*
X98566588Y-113007935D01*
X98629434Y-112977404D01*
X98698810Y-112985697D01*
X98752689Y-113030181D01*
X98766404Y-113060214D01*
X98766670Y-113060104D01*
X98769749Y-113067540D01*
X98769774Y-113067593D01*
X98769779Y-113067611D01*
X98769779Y-113067612D01*
X98769780Y-113067613D01*
X98842567Y-113193685D01*
X98842569Y-113193688D01*
X98842570Y-113193689D01*
X98945511Y-113296630D01*
X99071589Y-113369421D01*
X99212209Y-113407100D01*
X99212211Y-113407100D01*
X99357788Y-113407100D01*
X99357791Y-113407100D01*
X99498411Y-113369421D01*
X99624489Y-113296630D01*
X99727430Y-113193689D01*
X99800221Y-113067611D01*
X99800225Y-113067594D01*
X99800231Y-113067584D01*
X99803330Y-113060104D01*
X99804496Y-113060587D01*
X99836588Y-113007935D01*
X99899434Y-112977404D01*
X99968810Y-112985697D01*
X100022689Y-113030181D01*
X100036404Y-113060214D01*
X100036670Y-113060104D01*
X100039749Y-113067540D01*
X100039774Y-113067593D01*
X100039779Y-113067611D01*
X100039779Y-113067612D01*
X100039780Y-113067613D01*
X100112567Y-113193685D01*
X100112569Y-113193688D01*
X100112570Y-113193689D01*
X100215511Y-113296630D01*
X100341589Y-113369421D01*
X100482209Y-113407100D01*
X100482211Y-113407100D01*
X100627788Y-113407100D01*
X100627791Y-113407100D01*
X100768411Y-113369421D01*
X100894489Y-113296630D01*
X100997430Y-113193689D01*
X101070221Y-113067611D01*
X101070225Y-113067594D01*
X101070231Y-113067584D01*
X101073330Y-113060104D01*
X101074496Y-113060587D01*
X101106588Y-113007935D01*
X101169434Y-112977404D01*
X101238810Y-112985697D01*
X101292689Y-113030181D01*
X101306404Y-113060214D01*
X101306670Y-113060104D01*
X101309749Y-113067540D01*
X101309774Y-113067593D01*
X101309779Y-113067611D01*
X101309779Y-113067612D01*
X101309780Y-113067613D01*
X101382567Y-113193685D01*
X101382569Y-113193688D01*
X101382570Y-113193689D01*
X101485511Y-113296630D01*
X101611589Y-113369421D01*
X101752209Y-113407100D01*
X101752211Y-113407100D01*
X101897788Y-113407100D01*
X101897791Y-113407100D01*
X102038411Y-113369421D01*
X102164489Y-113296630D01*
X102267430Y-113193689D01*
X102340221Y-113067611D01*
X102377900Y-112926991D01*
X102377900Y-112781409D01*
X102340221Y-112640789D01*
X102267430Y-112514711D01*
X102164489Y-112411770D01*
X102164488Y-112411769D01*
X102164485Y-112411767D01*
X102038413Y-112338980D01*
X102038412Y-112338979D01*
X102038411Y-112338979D01*
X101897791Y-112301300D01*
X101752209Y-112301300D01*
X101611589Y-112338979D01*
X101611587Y-112338980D01*
X101611586Y-112338980D01*
X101485514Y-112411767D01*
X101485509Y-112411771D01*
X101382571Y-112514709D01*
X101382567Y-112514714D01*
X101309780Y-112640786D01*
X101309779Y-112640787D01*
X101309779Y-112640789D01*
X101309774Y-112640807D01*
X101309766Y-112640819D01*
X101306670Y-112648296D01*
X101305503Y-112647812D01*
X101273409Y-112700466D01*
X101210562Y-112730995D01*
X101141187Y-112722700D01*
X101087309Y-112678214D01*
X101073595Y-112648186D01*
X101073330Y-112648296D01*
X101070253Y-112640868D01*
X101070226Y-112640809D01*
X101070221Y-112640789D01*
X100997430Y-112514711D01*
X100894489Y-112411770D01*
X100894488Y-112411769D01*
X100894485Y-112411767D01*
X100768413Y-112338980D01*
X100768412Y-112338979D01*
X100768411Y-112338979D01*
X100627791Y-112301300D01*
X100482209Y-112301300D01*
X100341589Y-112338979D01*
X100341587Y-112338980D01*
X100341586Y-112338980D01*
X100215514Y-112411767D01*
X100215509Y-112411771D01*
X100112571Y-112514709D01*
X100112567Y-112514714D01*
X100039780Y-112640786D01*
X100039779Y-112640787D01*
X100039779Y-112640789D01*
X100039774Y-112640807D01*
X100039766Y-112640819D01*
X100036670Y-112648296D01*
X100035503Y-112647812D01*
X100003409Y-112700466D01*
X99940562Y-112730995D01*
X99871187Y-112722700D01*
X99817309Y-112678214D01*
X99803595Y-112648186D01*
X99803330Y-112648296D01*
X99800253Y-112640868D01*
X99800226Y-112640809D01*
X99800221Y-112640789D01*
X99727430Y-112514711D01*
X99624489Y-112411770D01*
X99624488Y-112411769D01*
X99624485Y-112411767D01*
X99498413Y-112338980D01*
X99498412Y-112338979D01*
X99498411Y-112338979D01*
X99357791Y-112301300D01*
X99212209Y-112301300D01*
X99071589Y-112338979D01*
X99071587Y-112338980D01*
X99071586Y-112338980D01*
X98945514Y-112411767D01*
X98945509Y-112411771D01*
X98842571Y-112514709D01*
X98842567Y-112514714D01*
X98769780Y-112640786D01*
X98769779Y-112640787D01*
X98769779Y-112640789D01*
X98769774Y-112640807D01*
X98769766Y-112640819D01*
X98766670Y-112648296D01*
X98765503Y-112647812D01*
X98733409Y-112700466D01*
X98670562Y-112730995D01*
X98601187Y-112722700D01*
X98547309Y-112678214D01*
X98533595Y-112648186D01*
X98533330Y-112648296D01*
X98530253Y-112640868D01*
X98530226Y-112640809D01*
X98530221Y-112640789D01*
X98457430Y-112514711D01*
X98354489Y-112411770D01*
X98354488Y-112411769D01*
X98354485Y-112411767D01*
X98228413Y-112338980D01*
X98228412Y-112338979D01*
X98228411Y-112338979D01*
X98087791Y-112301300D01*
X97942209Y-112301300D01*
X97801589Y-112338979D01*
X97801587Y-112338980D01*
X97801586Y-112338980D01*
X97675514Y-112411767D01*
X97675509Y-112411771D01*
X97572571Y-112514709D01*
X97572567Y-112514714D01*
X97499780Y-112640786D01*
X97499779Y-112640787D01*
X97499779Y-112640789D01*
X97499774Y-112640807D01*
X97499766Y-112640819D01*
X97496670Y-112648296D01*
X97495503Y-112647812D01*
X97463409Y-112700466D01*
X97400562Y-112730995D01*
X97331187Y-112722700D01*
X97277309Y-112678214D01*
X97263595Y-112648186D01*
X97263330Y-112648296D01*
X97260253Y-112640868D01*
X97260226Y-112640809D01*
X97260221Y-112640789D01*
X97187430Y-112514711D01*
X97084489Y-112411770D01*
X97084488Y-112411769D01*
X97084485Y-112411767D01*
X96958413Y-112338980D01*
X96958412Y-112338979D01*
X96958411Y-112338979D01*
X96817791Y-112301300D01*
X96672209Y-112301300D01*
X96531589Y-112338979D01*
X96531587Y-112338980D01*
X96531586Y-112338980D01*
X96405514Y-112411767D01*
X96405509Y-112411771D01*
X96302571Y-112514709D01*
X96302567Y-112514714D01*
X96229780Y-112640786D01*
X96229779Y-112640787D01*
X96229779Y-112640789D01*
X96229774Y-112640807D01*
X96229766Y-112640819D01*
X96226670Y-112648296D01*
X96225503Y-112647812D01*
X96193409Y-112700466D01*
X96130562Y-112730995D01*
X96061187Y-112722700D01*
X96007309Y-112678214D01*
X95993595Y-112648186D01*
X95993330Y-112648296D01*
X95990253Y-112640868D01*
X95990226Y-112640809D01*
X95990221Y-112640789D01*
X95917430Y-112514711D01*
X95814489Y-112411770D01*
X95814488Y-112411769D01*
X95814485Y-112411767D01*
X95688413Y-112338980D01*
X95688412Y-112338979D01*
X95688411Y-112338979D01*
X95547791Y-112301300D01*
X95402209Y-112301300D01*
X95261589Y-112338979D01*
X95261587Y-112338980D01*
X95261586Y-112338980D01*
X95135514Y-112411767D01*
X95135509Y-112411771D01*
X95032571Y-112514709D01*
X95032567Y-112514714D01*
X94959780Y-112640786D01*
X94959779Y-112640787D01*
X94959779Y-112640789D01*
X94959774Y-112640807D01*
X94959766Y-112640819D01*
X94956670Y-112648296D01*
X94955503Y-112647812D01*
X94923409Y-112700466D01*
X94860562Y-112730995D01*
X94791187Y-112722700D01*
X94737309Y-112678214D01*
X94723595Y-112648186D01*
X94723330Y-112648296D01*
X94720253Y-112640868D01*
X94720226Y-112640809D01*
X94720221Y-112640789D01*
X94647430Y-112514711D01*
X94544489Y-112411770D01*
X94544488Y-112411769D01*
X94544485Y-112411767D01*
X94418413Y-112338980D01*
X94418412Y-112338979D01*
X94418411Y-112338979D01*
X94277791Y-112301300D01*
X94132209Y-112301300D01*
X93991589Y-112338979D01*
X93991587Y-112338980D01*
X93991586Y-112338980D01*
X93865514Y-112411767D01*
X93865509Y-112411771D01*
X93762571Y-112514709D01*
X93762567Y-112514714D01*
X93689780Y-112640786D01*
X93689779Y-112640787D01*
X93689779Y-112640789D01*
X93689774Y-112640807D01*
X93689766Y-112640819D01*
X93686670Y-112648296D01*
X93685503Y-112647812D01*
X93653409Y-112700466D01*
X93590562Y-112730995D01*
X93521187Y-112722700D01*
X93467309Y-112678214D01*
X93453595Y-112648186D01*
X93453330Y-112648296D01*
X93450253Y-112640868D01*
X93450226Y-112640809D01*
X93450221Y-112640789D01*
X93377430Y-112514711D01*
X93274489Y-112411770D01*
X93274488Y-112411769D01*
X93274485Y-112411767D01*
X93148413Y-112338980D01*
X93148412Y-112338979D01*
X93148411Y-112338979D01*
X93007791Y-112301300D01*
X92862209Y-112301300D01*
X92721589Y-112338979D01*
X92721587Y-112338980D01*
X92721586Y-112338980D01*
X92595514Y-112411767D01*
X92595509Y-112411771D01*
X92492571Y-112514709D01*
X92492567Y-112514714D01*
X92419780Y-112640786D01*
X92419780Y-112640787D01*
X92419779Y-112640789D01*
X92382100Y-112781409D01*
X90947900Y-112781409D01*
X90910221Y-112640789D01*
X90837430Y-112514711D01*
X90734489Y-112411770D01*
X90734488Y-112411769D01*
X90734485Y-112411767D01*
X90608413Y-112338980D01*
X90608412Y-112338979D01*
X90608411Y-112338979D01*
X90467791Y-112301300D01*
X90322209Y-112301300D01*
X90181589Y-112338979D01*
X90181587Y-112338980D01*
X90181586Y-112338980D01*
X90055514Y-112411767D01*
X90055509Y-112411771D01*
X89952571Y-112514709D01*
X89952567Y-112514714D01*
X89879780Y-112640786D01*
X89879779Y-112640787D01*
X89879779Y-112640789D01*
X89879774Y-112640807D01*
X89879766Y-112640819D01*
X89876670Y-112648296D01*
X89875503Y-112647812D01*
X89843409Y-112700466D01*
X89780562Y-112730995D01*
X89711187Y-112722700D01*
X89657309Y-112678214D01*
X89643595Y-112648186D01*
X89643330Y-112648296D01*
X89640253Y-112640868D01*
X89640226Y-112640809D01*
X89640221Y-112640789D01*
X89567430Y-112514711D01*
X89464489Y-112411770D01*
X89464488Y-112411769D01*
X89464485Y-112411767D01*
X89338413Y-112338980D01*
X89338412Y-112338979D01*
X89338411Y-112338979D01*
X89197791Y-112301300D01*
X89052209Y-112301300D01*
X88911589Y-112338979D01*
X88911587Y-112338980D01*
X88911586Y-112338980D01*
X88785514Y-112411767D01*
X88785509Y-112411771D01*
X88682571Y-112514709D01*
X88682567Y-112514714D01*
X88609780Y-112640786D01*
X88609779Y-112640787D01*
X88609779Y-112640789D01*
X88609774Y-112640807D01*
X88609766Y-112640819D01*
X88606670Y-112648296D01*
X88605503Y-112647812D01*
X88573409Y-112700466D01*
X88510562Y-112730995D01*
X88441187Y-112722700D01*
X88387309Y-112678214D01*
X88373595Y-112648186D01*
X88373330Y-112648296D01*
X88370253Y-112640868D01*
X88370226Y-112640809D01*
X88370221Y-112640789D01*
X88297430Y-112514711D01*
X88194489Y-112411770D01*
X88194488Y-112411769D01*
X88194485Y-112411767D01*
X88068413Y-112338980D01*
X88068412Y-112338979D01*
X88068411Y-112338979D01*
X87927791Y-112301300D01*
X87782209Y-112301300D01*
X87641589Y-112338979D01*
X87641587Y-112338980D01*
X87641586Y-112338980D01*
X87515514Y-112411767D01*
X87515509Y-112411771D01*
X87412571Y-112514709D01*
X87412567Y-112514714D01*
X87339780Y-112640786D01*
X87339779Y-112640787D01*
X87339779Y-112640789D01*
X87339774Y-112640807D01*
X87339766Y-112640819D01*
X87336670Y-112648296D01*
X87335503Y-112647812D01*
X87303409Y-112700466D01*
X87240562Y-112730995D01*
X87171187Y-112722700D01*
X87117309Y-112678214D01*
X87103595Y-112648186D01*
X87103330Y-112648296D01*
X87100253Y-112640868D01*
X87100226Y-112640809D01*
X87100221Y-112640789D01*
X87027430Y-112514711D01*
X86924489Y-112411770D01*
X86924488Y-112411769D01*
X86924485Y-112411767D01*
X86798413Y-112338980D01*
X86798412Y-112338979D01*
X86798411Y-112338979D01*
X86657791Y-112301300D01*
X86512209Y-112301300D01*
X86371589Y-112338979D01*
X86371587Y-112338980D01*
X86371586Y-112338980D01*
X86245514Y-112411767D01*
X86245509Y-112411771D01*
X86142571Y-112514709D01*
X86142567Y-112514714D01*
X86069780Y-112640786D01*
X86069779Y-112640787D01*
X86069779Y-112640789D01*
X86069774Y-112640807D01*
X86069766Y-112640819D01*
X86066670Y-112648296D01*
X86065503Y-112647812D01*
X86033409Y-112700466D01*
X85970562Y-112730995D01*
X85901187Y-112722700D01*
X85847309Y-112678214D01*
X85833595Y-112648186D01*
X85833330Y-112648296D01*
X85830253Y-112640868D01*
X85830226Y-112640809D01*
X85830221Y-112640789D01*
X85757430Y-112514711D01*
X85654489Y-112411770D01*
X85654488Y-112411769D01*
X85654485Y-112411767D01*
X85528413Y-112338980D01*
X85528412Y-112338979D01*
X85528411Y-112338979D01*
X85387791Y-112301300D01*
X85242209Y-112301300D01*
X85101589Y-112338979D01*
X85101587Y-112338980D01*
X85101586Y-112338980D01*
X84975514Y-112411767D01*
X84975509Y-112411771D01*
X84872571Y-112514709D01*
X84872567Y-112514714D01*
X84799780Y-112640786D01*
X84799779Y-112640787D01*
X84799779Y-112640789D01*
X84799774Y-112640807D01*
X84799766Y-112640819D01*
X84796670Y-112648296D01*
X84795503Y-112647812D01*
X84763409Y-112700466D01*
X84700562Y-112730995D01*
X84631187Y-112722700D01*
X84577309Y-112678214D01*
X84563595Y-112648186D01*
X84563330Y-112648296D01*
X84560253Y-112640868D01*
X84560226Y-112640809D01*
X84560221Y-112640789D01*
X84487430Y-112514711D01*
X84384489Y-112411770D01*
X84384488Y-112411769D01*
X84384485Y-112411767D01*
X84258413Y-112338980D01*
X84258412Y-112338979D01*
X84258411Y-112338979D01*
X84117791Y-112301300D01*
X83972209Y-112301300D01*
X83831589Y-112338979D01*
X83831587Y-112338980D01*
X83831586Y-112338980D01*
X83705514Y-112411767D01*
X83705509Y-112411771D01*
X83602571Y-112514709D01*
X83602567Y-112514714D01*
X83529780Y-112640786D01*
X83529779Y-112640787D01*
X83529779Y-112640789D01*
X83529774Y-112640807D01*
X83529766Y-112640819D01*
X83526670Y-112648296D01*
X83525503Y-112647812D01*
X83493409Y-112700466D01*
X83430562Y-112730995D01*
X83361187Y-112722700D01*
X83307309Y-112678214D01*
X83293595Y-112648186D01*
X83293330Y-112648296D01*
X83290253Y-112640868D01*
X83290226Y-112640809D01*
X83290221Y-112640789D01*
X83217430Y-112514711D01*
X83114489Y-112411770D01*
X83114488Y-112411769D01*
X83114485Y-112411767D01*
X82988413Y-112338980D01*
X82988412Y-112338979D01*
X82988411Y-112338979D01*
X82847791Y-112301300D01*
X82702209Y-112301300D01*
X82561589Y-112338979D01*
X82561587Y-112338980D01*
X82561586Y-112338980D01*
X82435514Y-112411767D01*
X82435509Y-112411771D01*
X82332571Y-112514709D01*
X82332567Y-112514714D01*
X82259780Y-112640786D01*
X82259779Y-112640787D01*
X82259779Y-112640789D01*
X82259774Y-112640807D01*
X82259766Y-112640819D01*
X82256670Y-112648296D01*
X82255503Y-112647812D01*
X82223409Y-112700466D01*
X82160562Y-112730995D01*
X82091187Y-112722700D01*
X82037309Y-112678214D01*
X82023595Y-112648186D01*
X82023330Y-112648296D01*
X82020253Y-112640868D01*
X82020226Y-112640809D01*
X82020221Y-112640789D01*
X81947430Y-112514711D01*
X81844489Y-112411770D01*
X81844488Y-112411769D01*
X81844485Y-112411767D01*
X81718413Y-112338980D01*
X81718412Y-112338979D01*
X81718411Y-112338979D01*
X81577791Y-112301300D01*
X81432209Y-112301300D01*
X81291589Y-112338979D01*
X81291587Y-112338980D01*
X81291586Y-112338980D01*
X81165514Y-112411767D01*
X81165509Y-112411771D01*
X81062571Y-112514709D01*
X81062567Y-112514714D01*
X80989780Y-112640786D01*
X80989780Y-112640787D01*
X80989779Y-112640789D01*
X80952100Y-112781409D01*
X79517900Y-112781409D01*
X79480221Y-112640789D01*
X79407430Y-112514711D01*
X79304489Y-112411770D01*
X79304488Y-112411769D01*
X79304485Y-112411767D01*
X79178413Y-112338980D01*
X79178412Y-112338979D01*
X79178411Y-112338979D01*
X79037791Y-112301300D01*
X78892209Y-112301300D01*
X78751589Y-112338979D01*
X78751587Y-112338980D01*
X78751586Y-112338980D01*
X78625514Y-112411767D01*
X78625509Y-112411771D01*
X78522571Y-112514709D01*
X78522567Y-112514714D01*
X78449780Y-112640786D01*
X78449779Y-112640787D01*
X78449779Y-112640789D01*
X78449774Y-112640807D01*
X78449766Y-112640819D01*
X78446670Y-112648296D01*
X78445503Y-112647812D01*
X78413409Y-112700466D01*
X78350562Y-112730995D01*
X78281187Y-112722700D01*
X78227309Y-112678214D01*
X78213595Y-112648186D01*
X78213330Y-112648296D01*
X78210253Y-112640868D01*
X78210226Y-112640809D01*
X78210221Y-112640789D01*
X78137430Y-112514711D01*
X78034489Y-112411770D01*
X78034488Y-112411769D01*
X78034485Y-112411767D01*
X77908413Y-112338980D01*
X77908412Y-112338979D01*
X77908411Y-112338979D01*
X77767791Y-112301300D01*
X77622209Y-112301300D01*
X77481589Y-112338979D01*
X77481587Y-112338980D01*
X77481586Y-112338980D01*
X77355514Y-112411767D01*
X77355509Y-112411771D01*
X77252571Y-112514709D01*
X77252567Y-112514714D01*
X77179780Y-112640786D01*
X77179779Y-112640787D01*
X77179779Y-112640789D01*
X77179774Y-112640807D01*
X77179766Y-112640819D01*
X77176670Y-112648296D01*
X77175503Y-112647812D01*
X77143409Y-112700466D01*
X77080562Y-112730995D01*
X77011187Y-112722700D01*
X76957309Y-112678214D01*
X76943595Y-112648186D01*
X76943330Y-112648296D01*
X76940253Y-112640868D01*
X76940226Y-112640809D01*
X76940221Y-112640789D01*
X76867430Y-112514711D01*
X76764489Y-112411770D01*
X76764488Y-112411769D01*
X76764485Y-112411767D01*
X76638413Y-112338980D01*
X76638412Y-112338979D01*
X76638411Y-112338979D01*
X76497791Y-112301300D01*
X76352209Y-112301300D01*
X76211589Y-112338979D01*
X76211587Y-112338980D01*
X76211586Y-112338980D01*
X76085514Y-112411767D01*
X76085509Y-112411771D01*
X75982571Y-112514709D01*
X75982567Y-112514714D01*
X75909780Y-112640786D01*
X75909779Y-112640787D01*
X75909779Y-112640789D01*
X75909774Y-112640807D01*
X75909766Y-112640819D01*
X75906670Y-112648296D01*
X75905503Y-112647812D01*
X75873409Y-112700466D01*
X75810562Y-112730995D01*
X75741187Y-112722700D01*
X75687309Y-112678214D01*
X75673595Y-112648186D01*
X75673330Y-112648296D01*
X75670253Y-112640868D01*
X75670226Y-112640809D01*
X75670221Y-112640789D01*
X75597430Y-112514711D01*
X75494489Y-112411770D01*
X75494488Y-112411769D01*
X75494485Y-112411767D01*
X75368413Y-112338980D01*
X75368412Y-112338979D01*
X75368411Y-112338979D01*
X75227791Y-112301300D01*
X75082209Y-112301300D01*
X74941589Y-112338979D01*
X74941587Y-112338980D01*
X74941586Y-112338980D01*
X74815514Y-112411767D01*
X74815509Y-112411771D01*
X74712571Y-112514709D01*
X74712567Y-112514714D01*
X74639780Y-112640786D01*
X74639779Y-112640787D01*
X74639779Y-112640789D01*
X74639774Y-112640807D01*
X74639766Y-112640819D01*
X74636670Y-112648296D01*
X74635503Y-112647812D01*
X74603409Y-112700466D01*
X74540562Y-112730995D01*
X74471187Y-112722700D01*
X74417309Y-112678214D01*
X74403595Y-112648186D01*
X74403330Y-112648296D01*
X74400253Y-112640868D01*
X74400226Y-112640809D01*
X74400221Y-112640789D01*
X74327430Y-112514711D01*
X74224489Y-112411770D01*
X74224488Y-112411769D01*
X74224485Y-112411767D01*
X74098413Y-112338980D01*
X74098412Y-112338979D01*
X74098411Y-112338979D01*
X73957791Y-112301300D01*
X73812209Y-112301300D01*
X73671589Y-112338979D01*
X73671587Y-112338980D01*
X73671586Y-112338980D01*
X73545514Y-112411767D01*
X73545509Y-112411771D01*
X73442571Y-112514709D01*
X73442567Y-112514714D01*
X73369780Y-112640786D01*
X73369779Y-112640787D01*
X73369779Y-112640789D01*
X73369774Y-112640807D01*
X73369766Y-112640819D01*
X73366670Y-112648296D01*
X73365503Y-112647812D01*
X73333409Y-112700466D01*
X73270562Y-112730995D01*
X73201187Y-112722700D01*
X73147309Y-112678214D01*
X73133595Y-112648186D01*
X73133330Y-112648296D01*
X73130253Y-112640868D01*
X73130226Y-112640809D01*
X73130221Y-112640789D01*
X73057430Y-112514711D01*
X72954489Y-112411770D01*
X72954488Y-112411769D01*
X72954485Y-112411767D01*
X72828413Y-112338980D01*
X72828412Y-112338979D01*
X72828411Y-112338979D01*
X72687791Y-112301300D01*
X72542209Y-112301300D01*
X72401589Y-112338979D01*
X72401587Y-112338980D01*
X72401586Y-112338980D01*
X72275514Y-112411767D01*
X72275509Y-112411771D01*
X72172571Y-112514709D01*
X72172567Y-112514714D01*
X72099780Y-112640786D01*
X72099779Y-112640787D01*
X72099779Y-112640789D01*
X72099774Y-112640807D01*
X72099766Y-112640819D01*
X72096670Y-112648296D01*
X72095503Y-112647812D01*
X72063409Y-112700466D01*
X72000562Y-112730995D01*
X71931187Y-112722700D01*
X71877309Y-112678214D01*
X71863595Y-112648186D01*
X71863330Y-112648296D01*
X71860253Y-112640868D01*
X71860226Y-112640809D01*
X71860221Y-112640789D01*
X71787430Y-112514711D01*
X71684489Y-112411770D01*
X71684488Y-112411769D01*
X71684485Y-112411767D01*
X71558413Y-112338980D01*
X71558412Y-112338979D01*
X71558411Y-112338979D01*
X71417791Y-112301300D01*
X71272209Y-112301300D01*
X71131589Y-112338979D01*
X71131587Y-112338980D01*
X71131586Y-112338980D01*
X71005514Y-112411767D01*
X71005509Y-112411771D01*
X70902571Y-112514709D01*
X70902567Y-112514714D01*
X70829780Y-112640786D01*
X70829779Y-112640787D01*
X70829779Y-112640789D01*
X70829774Y-112640807D01*
X70829766Y-112640819D01*
X70826670Y-112648296D01*
X70825503Y-112647812D01*
X70793409Y-112700466D01*
X70730562Y-112730995D01*
X70661187Y-112722700D01*
X70607309Y-112678214D01*
X70593595Y-112648186D01*
X70593330Y-112648296D01*
X70590253Y-112640868D01*
X70590226Y-112640809D01*
X70590221Y-112640789D01*
X70517430Y-112514711D01*
X70414489Y-112411770D01*
X70414488Y-112411769D01*
X70414485Y-112411767D01*
X70288413Y-112338980D01*
X70288412Y-112338979D01*
X70288411Y-112338979D01*
X70147791Y-112301300D01*
X70002209Y-112301300D01*
X69861589Y-112338979D01*
X69861587Y-112338980D01*
X69861586Y-112338980D01*
X69735514Y-112411767D01*
X69735509Y-112411771D01*
X69632571Y-112514709D01*
X69632567Y-112514714D01*
X69559780Y-112640786D01*
X69559780Y-112640787D01*
X69559779Y-112640789D01*
X69522100Y-112781409D01*
X68087900Y-112781409D01*
X68050221Y-112640789D01*
X67977430Y-112514711D01*
X67874489Y-112411770D01*
X67874488Y-112411769D01*
X67874485Y-112411767D01*
X67748413Y-112338980D01*
X67748412Y-112338979D01*
X67748411Y-112338979D01*
X67607791Y-112301300D01*
X67462209Y-112301300D01*
X67321589Y-112338979D01*
X67321587Y-112338980D01*
X67321586Y-112338980D01*
X67195514Y-112411767D01*
X67195509Y-112411771D01*
X67092571Y-112514709D01*
X67092567Y-112514714D01*
X67019780Y-112640786D01*
X67019779Y-112640787D01*
X67019779Y-112640789D01*
X67019774Y-112640807D01*
X67019766Y-112640819D01*
X67016670Y-112648296D01*
X67015503Y-112647812D01*
X66983409Y-112700466D01*
X66920562Y-112730995D01*
X66851187Y-112722700D01*
X66797309Y-112678214D01*
X66783595Y-112648186D01*
X66783330Y-112648296D01*
X66780253Y-112640868D01*
X66780226Y-112640809D01*
X66780221Y-112640789D01*
X66707430Y-112514711D01*
X66604489Y-112411770D01*
X66604488Y-112411769D01*
X66604485Y-112411767D01*
X66478413Y-112338980D01*
X66478412Y-112338979D01*
X66478411Y-112338979D01*
X66337791Y-112301300D01*
X66192209Y-112301300D01*
X66051589Y-112338979D01*
X66051587Y-112338980D01*
X66051586Y-112338980D01*
X65925514Y-112411767D01*
X65925509Y-112411771D01*
X65822571Y-112514709D01*
X65822567Y-112514714D01*
X65749780Y-112640786D01*
X65749779Y-112640787D01*
X65749779Y-112640789D01*
X65749774Y-112640807D01*
X65749766Y-112640819D01*
X65746670Y-112648296D01*
X65745503Y-112647812D01*
X65713409Y-112700466D01*
X65650562Y-112730995D01*
X65581187Y-112722700D01*
X65527309Y-112678214D01*
X65513595Y-112648186D01*
X65513330Y-112648296D01*
X65510253Y-112640868D01*
X65510226Y-112640809D01*
X65510221Y-112640789D01*
X65437430Y-112514711D01*
X65334489Y-112411770D01*
X65334488Y-112411769D01*
X65334485Y-112411767D01*
X65208413Y-112338980D01*
X65208412Y-112338979D01*
X65208411Y-112338979D01*
X65067791Y-112301300D01*
X64922209Y-112301300D01*
X64781589Y-112338979D01*
X64781587Y-112338980D01*
X64781586Y-112338980D01*
X64655514Y-112411767D01*
X64655509Y-112411771D01*
X64552571Y-112514709D01*
X64552567Y-112514714D01*
X64479780Y-112640786D01*
X64479779Y-112640787D01*
X64479779Y-112640789D01*
X64479774Y-112640807D01*
X64479766Y-112640819D01*
X64476670Y-112648296D01*
X64475503Y-112647812D01*
X64443409Y-112700466D01*
X64380562Y-112730995D01*
X64311187Y-112722700D01*
X64257309Y-112678214D01*
X64243595Y-112648186D01*
X64243330Y-112648296D01*
X64240253Y-112640868D01*
X64240226Y-112640809D01*
X64240221Y-112640789D01*
X64167430Y-112514711D01*
X64064489Y-112411770D01*
X64064488Y-112411769D01*
X64064485Y-112411767D01*
X63938413Y-112338980D01*
X63938412Y-112338979D01*
X63938411Y-112338979D01*
X63797791Y-112301300D01*
X63652209Y-112301300D01*
X63511589Y-112338979D01*
X63511587Y-112338980D01*
X63511586Y-112338980D01*
X63385514Y-112411767D01*
X63385509Y-112411771D01*
X63282571Y-112514709D01*
X63282567Y-112514714D01*
X63209780Y-112640786D01*
X63209779Y-112640787D01*
X63209779Y-112640789D01*
X63209774Y-112640807D01*
X63209766Y-112640819D01*
X63206670Y-112648296D01*
X63205503Y-112647812D01*
X63173409Y-112700466D01*
X63110562Y-112730995D01*
X63041187Y-112722700D01*
X62987309Y-112678214D01*
X62973595Y-112648186D01*
X62973330Y-112648296D01*
X62970253Y-112640868D01*
X62970226Y-112640809D01*
X62970221Y-112640789D01*
X62897430Y-112514711D01*
X62794489Y-112411770D01*
X62794488Y-112411769D01*
X62794485Y-112411767D01*
X62668413Y-112338980D01*
X62668412Y-112338979D01*
X62668411Y-112338979D01*
X62527791Y-112301300D01*
X62382209Y-112301300D01*
X62241589Y-112338979D01*
X62241587Y-112338980D01*
X62241586Y-112338980D01*
X62115514Y-112411767D01*
X62115509Y-112411771D01*
X62012571Y-112514709D01*
X62012567Y-112514714D01*
X61939780Y-112640786D01*
X61939779Y-112640787D01*
X61939779Y-112640789D01*
X61939774Y-112640807D01*
X61939766Y-112640819D01*
X61936670Y-112648296D01*
X61935503Y-112647812D01*
X61903409Y-112700466D01*
X61840562Y-112730995D01*
X61771187Y-112722700D01*
X61717309Y-112678214D01*
X61703595Y-112648186D01*
X61703330Y-112648296D01*
X61700253Y-112640868D01*
X61700226Y-112640809D01*
X61700221Y-112640789D01*
X61627430Y-112514711D01*
X61524489Y-112411770D01*
X61524488Y-112411769D01*
X61524485Y-112411767D01*
X61398413Y-112338980D01*
X61398412Y-112338979D01*
X61398411Y-112338979D01*
X61257791Y-112301300D01*
X61112209Y-112301300D01*
X60971589Y-112338979D01*
X60971587Y-112338980D01*
X60971586Y-112338980D01*
X60845514Y-112411767D01*
X60845509Y-112411771D01*
X60742571Y-112514709D01*
X60742567Y-112514714D01*
X60669780Y-112640786D01*
X60669779Y-112640787D01*
X60669779Y-112640789D01*
X60669774Y-112640807D01*
X60669766Y-112640819D01*
X60666670Y-112648296D01*
X60665503Y-112647812D01*
X60633409Y-112700466D01*
X60570562Y-112730995D01*
X60501187Y-112722700D01*
X60447309Y-112678214D01*
X60433595Y-112648186D01*
X60433330Y-112648296D01*
X60430253Y-112640868D01*
X60430226Y-112640809D01*
X60430221Y-112640789D01*
X60357430Y-112514711D01*
X60254489Y-112411770D01*
X60254488Y-112411769D01*
X60254485Y-112411767D01*
X60128413Y-112338980D01*
X60128412Y-112338979D01*
X60128411Y-112338979D01*
X59987791Y-112301300D01*
X59842209Y-112301300D01*
X59701589Y-112338979D01*
X59701587Y-112338980D01*
X59701586Y-112338980D01*
X59575514Y-112411767D01*
X59575509Y-112411771D01*
X59472571Y-112514709D01*
X59472567Y-112514714D01*
X59399780Y-112640786D01*
X59399779Y-112640787D01*
X59399779Y-112640789D01*
X59399774Y-112640807D01*
X59399766Y-112640819D01*
X59396670Y-112648296D01*
X59395503Y-112647812D01*
X59363409Y-112700466D01*
X59300562Y-112730995D01*
X59231187Y-112722700D01*
X59177309Y-112678214D01*
X59163595Y-112648186D01*
X59163330Y-112648296D01*
X59160253Y-112640868D01*
X59160226Y-112640809D01*
X59160221Y-112640789D01*
X59087430Y-112514711D01*
X58984489Y-112411770D01*
X58984488Y-112411769D01*
X58984485Y-112411767D01*
X58858413Y-112338980D01*
X58858412Y-112338979D01*
X58858411Y-112338979D01*
X58717791Y-112301300D01*
X58572209Y-112301300D01*
X58431589Y-112338979D01*
X58431587Y-112338980D01*
X58431586Y-112338980D01*
X58305514Y-112411767D01*
X58305509Y-112411771D01*
X58202571Y-112514709D01*
X58202567Y-112514714D01*
X58129780Y-112640786D01*
X58129779Y-112640787D01*
X58129779Y-112640789D01*
X58129774Y-112640807D01*
X58129766Y-112640819D01*
X58126670Y-112648296D01*
X58125503Y-112647812D01*
X58093409Y-112700466D01*
X58030562Y-112730995D01*
X57961187Y-112722700D01*
X57907309Y-112678214D01*
X57893595Y-112648186D01*
X57893330Y-112648296D01*
X57890253Y-112640868D01*
X57890226Y-112640809D01*
X57890221Y-112640789D01*
X57817430Y-112514711D01*
X57714489Y-112411770D01*
X57714488Y-112411769D01*
X57714485Y-112411767D01*
X57588413Y-112338980D01*
X57588412Y-112338979D01*
X57588411Y-112338979D01*
X57447791Y-112301300D01*
X57302209Y-112301300D01*
X57161589Y-112338979D01*
X57161587Y-112338980D01*
X57161586Y-112338980D01*
X57035514Y-112411767D01*
X57035509Y-112411771D01*
X56932571Y-112514709D01*
X56932567Y-112514714D01*
X56859780Y-112640786D01*
X56859780Y-112640787D01*
X56859779Y-112640789D01*
X56822100Y-112781409D01*
X53081300Y-112781409D01*
X53081300Y-111308209D01*
X56822100Y-111308209D01*
X56822100Y-111453791D01*
X56859779Y-111594411D01*
X56859780Y-111594412D01*
X56859780Y-111594413D01*
X56932567Y-111720485D01*
X56932569Y-111720488D01*
X56932570Y-111720489D01*
X57035511Y-111823430D01*
X57035512Y-111823431D01*
X57035514Y-111823432D01*
X57077184Y-111847490D01*
X57161589Y-111896221D01*
X57302209Y-111933900D01*
X57302211Y-111933900D01*
X57447788Y-111933900D01*
X57447791Y-111933900D01*
X57588411Y-111896221D01*
X57714489Y-111823430D01*
X57817430Y-111720489D01*
X57890221Y-111594411D01*
X57927900Y-111453791D01*
X57927900Y-111308209D01*
X57890221Y-111167589D01*
X57831321Y-111065571D01*
X57817432Y-111041514D01*
X57817428Y-111041509D01*
X57714490Y-110938571D01*
X57714485Y-110938567D01*
X57588413Y-110865780D01*
X57588412Y-110865779D01*
X57588411Y-110865779D01*
X57447791Y-110828100D01*
X57302209Y-110828100D01*
X57161589Y-110865779D01*
X57161587Y-110865780D01*
X57161586Y-110865780D01*
X57035514Y-110938567D01*
X57035509Y-110938571D01*
X56932571Y-111041509D01*
X56932567Y-111041514D01*
X56859780Y-111167586D01*
X56859780Y-111167587D01*
X56859779Y-111167589D01*
X56822100Y-111308209D01*
X53081300Y-111308209D01*
X53081300Y-110673241D01*
X53081325Y-110673207D01*
X53081300Y-110664922D01*
X53081300Y-110654438D01*
X53081300Y-110630393D01*
X53081197Y-110629884D01*
X53080968Y-110551031D01*
X53047924Y-110325658D01*
X52983204Y-110107264D01*
X52983201Y-110107258D01*
X52983200Y-110107254D01*
X52933431Y-109998916D01*
X52888119Y-109900277D01*
X52888116Y-109900273D01*
X52888115Y-109900270D01*
X52764599Y-109708896D01*
X52764598Y-109708894D01*
X52615146Y-109536996D01*
X52561141Y-109490332D01*
X52442792Y-109388069D01*
X52251030Y-109265134D01*
X52043753Y-109170682D01*
X52043754Y-109170682D01*
X51867952Y-109119169D01*
X51825164Y-109106631D01*
X51825162Y-109106630D01*
X51825161Y-109106630D01*
X51599685Y-109074276D01*
X51487509Y-109074291D01*
X51484609Y-109074257D01*
X51306797Y-109070120D01*
X51303145Y-109069500D01*
X51289561Y-109069500D01*
X51270163Y-109067973D01*
X51228587Y-109061388D01*
X51226343Y-109060659D01*
X51225097Y-109060784D01*
X51191693Y-109049401D01*
X51162987Y-109034774D01*
X51131603Y-109011972D01*
X51108827Y-108989196D01*
X51086025Y-108957814D01*
X51071397Y-108929102D01*
X51059412Y-108892217D01*
X51052825Y-108850631D01*
X51051300Y-108831241D01*
X51051300Y-105157889D01*
X52790776Y-105157889D01*
X52790776Y-105412110D01*
X52828490Y-105650225D01*
X52830543Y-105663186D01*
X52909099Y-105904954D01*
X53018562Y-106119788D01*
X53024510Y-106131460D01*
X53173923Y-106337111D01*
X53173927Y-106337116D01*
X53353683Y-106516872D01*
X53353688Y-106516876D01*
X53494190Y-106618956D01*
X53559343Y-106666292D01*
X53785846Y-106781701D01*
X54027614Y-106860257D01*
X54121769Y-106875169D01*
X54278690Y-106900024D01*
X54278695Y-106900024D01*
X54532910Y-106900024D01*
X54672394Y-106877931D01*
X54783986Y-106860257D01*
X55025754Y-106781701D01*
X55252257Y-106666292D01*
X55457918Y-106516871D01*
X55637671Y-106337118D01*
X55787092Y-106131457D01*
X55867213Y-105974209D01*
X109654100Y-105974209D01*
X109654100Y-106119791D01*
X109691779Y-106260411D01*
X109691780Y-106260412D01*
X109691780Y-106260413D01*
X109764567Y-106386485D01*
X109764569Y-106386488D01*
X109764570Y-106386489D01*
X109867511Y-106489430D01*
X109993589Y-106562221D01*
X110134209Y-106599900D01*
X110134211Y-106599900D01*
X110279788Y-106599900D01*
X110279791Y-106599900D01*
X110420411Y-106562221D01*
X110546489Y-106489430D01*
X110649430Y-106386489D01*
X110722221Y-106260411D01*
X110759900Y-106119791D01*
X110759900Y-105974209D01*
X110722221Y-105833589D01*
X110649430Y-105707511D01*
X110546489Y-105604570D01*
X110546488Y-105604569D01*
X110546485Y-105604567D01*
X110420413Y-105531780D01*
X110420412Y-105531779D01*
X110420411Y-105531779D01*
X110279791Y-105494100D01*
X110134209Y-105494100D01*
X109993589Y-105531779D01*
X109993587Y-105531780D01*
X109993586Y-105531780D01*
X109867514Y-105604567D01*
X109867509Y-105604571D01*
X109764571Y-105707509D01*
X109764567Y-105707514D01*
X109691780Y-105833586D01*
X109691780Y-105833587D01*
X109691779Y-105833589D01*
X109654100Y-105974209D01*
X55867213Y-105974209D01*
X55869897Y-105968941D01*
X55900039Y-105909787D01*
X55900039Y-105909786D01*
X55900167Y-105909533D01*
X55902501Y-105904954D01*
X55981057Y-105663186D01*
X55998731Y-105551594D01*
X56020824Y-105412110D01*
X56020824Y-105157889D01*
X56020819Y-105157857D01*
X153880500Y-105157857D01*
X153880500Y-105412142D01*
X153920260Y-105663182D01*
X153920279Y-105663297D01*
X153998858Y-105905137D01*
X154114301Y-106131706D01*
X154263766Y-106337427D01*
X154443573Y-106517234D01*
X154649294Y-106666699D01*
X154875863Y-106782142D01*
X155117703Y-106860721D01*
X155368857Y-106900500D01*
X155368858Y-106900500D01*
X155623142Y-106900500D01*
X155623143Y-106900500D01*
X155874297Y-106860721D01*
X156116137Y-106782142D01*
X156342706Y-106666699D01*
X156548427Y-106517234D01*
X156728234Y-106337427D01*
X156877699Y-106131706D01*
X156993142Y-105905137D01*
X157071721Y-105663297D01*
X157111500Y-105412143D01*
X157111500Y-105157857D01*
X157071721Y-104906703D01*
X156993142Y-104664863D01*
X156877699Y-104438294D01*
X156728234Y-104232573D01*
X156548427Y-104052766D01*
X156342706Y-103903301D01*
X156217666Y-103839590D01*
X156116139Y-103787859D01*
X156116138Y-103787858D01*
X156116137Y-103787858D01*
X155874297Y-103709279D01*
X155874295Y-103709278D01*
X155874294Y-103709278D01*
X155681363Y-103678721D01*
X155623143Y-103669500D01*
X155368857Y-103669500D01*
X155310636Y-103678721D01*
X155117706Y-103709278D01*
X154875860Y-103787859D01*
X154649293Y-103903301D01*
X154443570Y-104052768D01*
X154263768Y-104232570D01*
X154114301Y-104438293D01*
X153998859Y-104664860D01*
X153920278Y-104906706D01*
X153880500Y-105157857D01*
X56020819Y-105157857D01*
X55983127Y-104919886D01*
X55981057Y-104906814D01*
X55902501Y-104665046D01*
X55787092Y-104438543D01*
X55768002Y-104412268D01*
X55637676Y-104232888D01*
X55637672Y-104232883D01*
X55457916Y-104053127D01*
X55457911Y-104053123D01*
X55252260Y-103903710D01*
X55252259Y-103903709D01*
X55252257Y-103903708D01*
X55025754Y-103788299D01*
X54783986Y-103709743D01*
X54783984Y-103709742D01*
X54783982Y-103709742D01*
X54532910Y-103669976D01*
X54532905Y-103669976D01*
X54278695Y-103669976D01*
X54278690Y-103669976D01*
X54027617Y-103709742D01*
X53785843Y-103788300D01*
X53559339Y-103903710D01*
X53353688Y-104053123D01*
X53353683Y-104053127D01*
X53173927Y-104232883D01*
X53173923Y-104232888D01*
X53024510Y-104438539D01*
X52909100Y-104665043D01*
X52830542Y-104906817D01*
X52790776Y-105157889D01*
X51051300Y-105157889D01*
X51051300Y-102709793D01*
X51051297Y-102709779D01*
X51051290Y-102545209D01*
X75745100Y-102545209D01*
X75745100Y-102690791D01*
X75782779Y-102831411D01*
X75782780Y-102831412D01*
X75782780Y-102831413D01*
X75855567Y-102957485D01*
X75855569Y-102957488D01*
X75855570Y-102957489D01*
X75958511Y-103060430D01*
X76084589Y-103133221D01*
X76225209Y-103170900D01*
X76225211Y-103170900D01*
X76370788Y-103170900D01*
X76370791Y-103170900D01*
X76511411Y-103133221D01*
X76637489Y-103060430D01*
X76740430Y-102957489D01*
X76813221Y-102831411D01*
X76850900Y-102690791D01*
X76850900Y-102545209D01*
X76813221Y-102404589D01*
X76740430Y-102278511D01*
X76637489Y-102175570D01*
X76637488Y-102175569D01*
X76637485Y-102175567D01*
X76511413Y-102102780D01*
X76511412Y-102102779D01*
X76511411Y-102102779D01*
X76370791Y-102065100D01*
X76225209Y-102065100D01*
X76084589Y-102102779D01*
X76084587Y-102102780D01*
X76084586Y-102102780D01*
X75958514Y-102175567D01*
X75958509Y-102175571D01*
X75855571Y-102278509D01*
X75855567Y-102278514D01*
X75782780Y-102404586D01*
X75782780Y-102404587D01*
X75782779Y-102404589D01*
X75745100Y-102545209D01*
X51051290Y-102545209D01*
X51051208Y-100640209D01*
X72189100Y-100640209D01*
X72189100Y-100785791D01*
X72226779Y-100926411D01*
X72226780Y-100926412D01*
X72226780Y-100926413D01*
X72299567Y-101052485D01*
X72299569Y-101052488D01*
X72299570Y-101052489D01*
X72402511Y-101155430D01*
X72402512Y-101155431D01*
X72402514Y-101155432D01*
X72422189Y-101166791D01*
X72528589Y-101228221D01*
X72669209Y-101265900D01*
X72669211Y-101265900D01*
X72814788Y-101265900D01*
X72814791Y-101265900D01*
X72955411Y-101228221D01*
X73081489Y-101155430D01*
X73184430Y-101052489D01*
X73202489Y-101021209D01*
X76888100Y-101021209D01*
X76888100Y-101166791D01*
X76925779Y-101307411D01*
X76925780Y-101307412D01*
X76925780Y-101307413D01*
X76998567Y-101433485D01*
X76998569Y-101433488D01*
X76998570Y-101433489D01*
X77101511Y-101536430D01*
X77227589Y-101609221D01*
X77368209Y-101646900D01*
X77368211Y-101646900D01*
X77513788Y-101646900D01*
X77513791Y-101646900D01*
X77654411Y-101609221D01*
X77780489Y-101536430D01*
X77883430Y-101433489D01*
X77956221Y-101307411D01*
X77964849Y-101275209D01*
X108384100Y-101275209D01*
X108384100Y-101420791D01*
X108421779Y-101561411D01*
X108421780Y-101561412D01*
X108421780Y-101561413D01*
X108494567Y-101687485D01*
X108494569Y-101687488D01*
X108494570Y-101687489D01*
X108597511Y-101790430D01*
X108723589Y-101863221D01*
X108864209Y-101900900D01*
X108864211Y-101900900D01*
X109009788Y-101900900D01*
X109009791Y-101900900D01*
X109150411Y-101863221D01*
X109276489Y-101790430D01*
X109379430Y-101687489D01*
X109452221Y-101561411D01*
X109489900Y-101420791D01*
X109489900Y-101358309D01*
X110162100Y-101358309D01*
X110162100Y-101503891D01*
X110199779Y-101644511D01*
X110199780Y-101644512D01*
X110199780Y-101644513D01*
X110272567Y-101770585D01*
X110272569Y-101770588D01*
X110272570Y-101770589D01*
X110375511Y-101873530D01*
X110501589Y-101946321D01*
X110642209Y-101984000D01*
X110642211Y-101984000D01*
X110787788Y-101984000D01*
X110787791Y-101984000D01*
X110928411Y-101946321D01*
X111054489Y-101873530D01*
X111157430Y-101770589D01*
X111230221Y-101644511D01*
X111267900Y-101503891D01*
X111267900Y-101358309D01*
X111230221Y-101217689D01*
X111182242Y-101134586D01*
X111157432Y-101091614D01*
X111157428Y-101091609D01*
X111054490Y-100988671D01*
X111054485Y-100988667D01*
X110928413Y-100915880D01*
X110928412Y-100915879D01*
X110928411Y-100915879D01*
X110787791Y-100878200D01*
X110642209Y-100878200D01*
X110501589Y-100915879D01*
X110501587Y-100915880D01*
X110501586Y-100915880D01*
X110375514Y-100988667D01*
X110375509Y-100988671D01*
X110272571Y-101091609D01*
X110272567Y-101091614D01*
X110199780Y-101217686D01*
X110199780Y-101217687D01*
X110199779Y-101217689D01*
X110162100Y-101358309D01*
X109489900Y-101358309D01*
X109489900Y-101275209D01*
X109452221Y-101134589D01*
X109404817Y-101052482D01*
X109379432Y-101008514D01*
X109379428Y-101008509D01*
X109276490Y-100905571D01*
X109276485Y-100905567D01*
X109150413Y-100832780D01*
X109150412Y-100832779D01*
X109150411Y-100832779D01*
X109009791Y-100795100D01*
X108864209Y-100795100D01*
X108723589Y-100832779D01*
X108723587Y-100832780D01*
X108723586Y-100832780D01*
X108597514Y-100905567D01*
X108597509Y-100905571D01*
X108494571Y-101008509D01*
X108494567Y-101008514D01*
X108421780Y-101134586D01*
X108421780Y-101134587D01*
X108421779Y-101134589D01*
X108384100Y-101275209D01*
X77964849Y-101275209D01*
X77993900Y-101166791D01*
X77993900Y-101021209D01*
X77956221Y-100880589D01*
X77906864Y-100795100D01*
X77883432Y-100754514D01*
X77883428Y-100754509D01*
X77780490Y-100651571D01*
X77780485Y-100651567D01*
X77712764Y-100612469D01*
X77654413Y-100578780D01*
X77654412Y-100578779D01*
X77654411Y-100578779D01*
X77513791Y-100541100D01*
X77368209Y-100541100D01*
X77227589Y-100578779D01*
X77227587Y-100578780D01*
X77227586Y-100578780D01*
X77101514Y-100651567D01*
X77101509Y-100651571D01*
X76998571Y-100754509D01*
X76998567Y-100754514D01*
X76925780Y-100880586D01*
X76925780Y-100880587D01*
X76925779Y-100880589D01*
X76888100Y-101021209D01*
X73202489Y-101021209D01*
X73257221Y-100926411D01*
X73294900Y-100785791D01*
X73294900Y-100640209D01*
X73260870Y-100513209D01*
X101025000Y-100513209D01*
X101025000Y-100658791D01*
X101062679Y-100799411D01*
X101062680Y-100799412D01*
X101062680Y-100799413D01*
X101135467Y-100925485D01*
X101135469Y-100925488D01*
X101135470Y-100925489D01*
X101238411Y-101028430D01*
X101238412Y-101028431D01*
X101238414Y-101028432D01*
X101280084Y-101052490D01*
X101364489Y-101101221D01*
X101505109Y-101138900D01*
X101505111Y-101138900D01*
X101650688Y-101138900D01*
X101650691Y-101138900D01*
X101791311Y-101101221D01*
X101917389Y-101028430D01*
X102020330Y-100925489D01*
X102093121Y-100799411D01*
X102130800Y-100658791D01*
X102130800Y-100513209D01*
X102093121Y-100372589D01*
X102034221Y-100270571D01*
X102020332Y-100246514D01*
X102020328Y-100246509D01*
X101917390Y-100143571D01*
X101917385Y-100143567D01*
X101791313Y-100070780D01*
X101791312Y-100070779D01*
X101791311Y-100070779D01*
X101650691Y-100033100D01*
X101505109Y-100033100D01*
X101364489Y-100070779D01*
X101364487Y-100070780D01*
X101364486Y-100070780D01*
X101238414Y-100143567D01*
X101238409Y-100143571D01*
X101135471Y-100246509D01*
X101135467Y-100246514D01*
X101062680Y-100372586D01*
X101062680Y-100372587D01*
X101062679Y-100372589D01*
X101025000Y-100513209D01*
X73260870Y-100513209D01*
X73257221Y-100499589D01*
X73220825Y-100436550D01*
X73184432Y-100373514D01*
X73184428Y-100373509D01*
X73081490Y-100270571D01*
X73081485Y-100270567D01*
X72955413Y-100197780D01*
X72955412Y-100197779D01*
X72955411Y-100197779D01*
X72814791Y-100160100D01*
X72669209Y-100160100D01*
X72528589Y-100197779D01*
X72528587Y-100197780D01*
X72528586Y-100197780D01*
X72402514Y-100270567D01*
X72402509Y-100270571D01*
X72299571Y-100373509D01*
X72299567Y-100373514D01*
X72226780Y-100499586D01*
X72226780Y-100499587D01*
X72226779Y-100499589D01*
X72189100Y-100640209D01*
X51051208Y-100640209D01*
X51051170Y-99751209D01*
X77650100Y-99751209D01*
X77650100Y-99896791D01*
X77687779Y-100037411D01*
X77687780Y-100037412D01*
X77687780Y-100037413D01*
X77760567Y-100163485D01*
X77760569Y-100163488D01*
X77760570Y-100163489D01*
X77863511Y-100266430D01*
X77863512Y-100266431D01*
X77863514Y-100266432D01*
X77905184Y-100290490D01*
X77989589Y-100339221D01*
X78130209Y-100376900D01*
X78130211Y-100376900D01*
X78275788Y-100376900D01*
X78275791Y-100376900D01*
X78416411Y-100339221D01*
X78542489Y-100266430D01*
X78645430Y-100163489D01*
X78718221Y-100037411D01*
X78755900Y-99896791D01*
X78755900Y-99751209D01*
X78718221Y-99610589D01*
X78670818Y-99528485D01*
X78645432Y-99484514D01*
X78645428Y-99484509D01*
X78542490Y-99381571D01*
X78542485Y-99381567D01*
X78522812Y-99370209D01*
X102041000Y-99370209D01*
X102041000Y-99515791D01*
X102078679Y-99656411D01*
X102078680Y-99656412D01*
X102078680Y-99656413D01*
X102151467Y-99782485D01*
X102151469Y-99782488D01*
X102151470Y-99782489D01*
X102254411Y-99885430D01*
X102254412Y-99885431D01*
X102254414Y-99885432D01*
X102274089Y-99896791D01*
X102380489Y-99958221D01*
X102521109Y-99995900D01*
X102521111Y-99995900D01*
X102666688Y-99995900D01*
X102666691Y-99995900D01*
X102807311Y-99958221D01*
X102933389Y-99885430D01*
X102940610Y-99878209D01*
X116893100Y-99878209D01*
X116893100Y-100023791D01*
X116930779Y-100164411D01*
X116930780Y-100164412D01*
X116930780Y-100164413D01*
X117003567Y-100290485D01*
X117003569Y-100290488D01*
X117003570Y-100290489D01*
X117106511Y-100393430D01*
X117232589Y-100466221D01*
X117373209Y-100503900D01*
X117373211Y-100503900D01*
X117518788Y-100503900D01*
X117518791Y-100503900D01*
X117659411Y-100466221D01*
X117785489Y-100393430D01*
X117888430Y-100290489D01*
X117961221Y-100164411D01*
X117998900Y-100023791D01*
X117998900Y-99878209D01*
X117967932Y-99762635D01*
X117969595Y-99692789D01*
X118008757Y-99634926D01*
X118072985Y-99607422D01*
X118119797Y-99610770D01*
X118135209Y-99614900D01*
X118135212Y-99614900D01*
X118280788Y-99614900D01*
X118280791Y-99614900D01*
X118421411Y-99577221D01*
X118547489Y-99504430D01*
X118650430Y-99401489D01*
X118723221Y-99275411D01*
X118760900Y-99134791D01*
X118760900Y-99116209D01*
X126799100Y-99116209D01*
X126799100Y-99261791D01*
X126836779Y-99402411D01*
X126836780Y-99402412D01*
X126836780Y-99402413D01*
X126909567Y-99528485D01*
X126909569Y-99528488D01*
X126909570Y-99528489D01*
X127012511Y-99631430D01*
X127138589Y-99704221D01*
X127279209Y-99741900D01*
X127279211Y-99741900D01*
X127424788Y-99741900D01*
X127424791Y-99741900D01*
X127565411Y-99704221D01*
X127691489Y-99631430D01*
X127794430Y-99528489D01*
X127867221Y-99402411D01*
X127904900Y-99261791D01*
X127904900Y-99116209D01*
X127867221Y-98975589D01*
X127794430Y-98849511D01*
X127691489Y-98746570D01*
X127691488Y-98746569D01*
X127691485Y-98746567D01*
X127565413Y-98673780D01*
X127565412Y-98673779D01*
X127565411Y-98673779D01*
X127424791Y-98636100D01*
X127279209Y-98636100D01*
X127138589Y-98673779D01*
X127138587Y-98673780D01*
X127138586Y-98673780D01*
X127012514Y-98746567D01*
X127012509Y-98746571D01*
X126909571Y-98849509D01*
X126909567Y-98849514D01*
X126836780Y-98975586D01*
X126836780Y-98975587D01*
X126836779Y-98975589D01*
X126799100Y-99116209D01*
X118760900Y-99116209D01*
X118760900Y-98989209D01*
X118760900Y-98981082D01*
X118763103Y-98981082D01*
X118772083Y-98923434D01*
X118818454Y-98871170D01*
X118885720Y-98852274D01*
X118894473Y-98852900D01*
X118897209Y-98852900D01*
X119042788Y-98852900D01*
X119042791Y-98852900D01*
X119183411Y-98815221D01*
X119309489Y-98742430D01*
X119412430Y-98639489D01*
X119485221Y-98513411D01*
X119493849Y-98481209D01*
X125402100Y-98481209D01*
X125402100Y-98626791D01*
X125439779Y-98767411D01*
X125439780Y-98767412D01*
X125439780Y-98767413D01*
X125512567Y-98893485D01*
X125512569Y-98893488D01*
X125512570Y-98893489D01*
X125615511Y-98996430D01*
X125615512Y-98996431D01*
X125615514Y-98996432D01*
X125657184Y-99020490D01*
X125741589Y-99069221D01*
X125882209Y-99106900D01*
X125882211Y-99106900D01*
X126027788Y-99106900D01*
X126027791Y-99106900D01*
X126168411Y-99069221D01*
X126287319Y-99000570D01*
X126290597Y-98998676D01*
X126294489Y-98996430D01*
X126397430Y-98893489D01*
X126470221Y-98767411D01*
X126507900Y-98626791D01*
X126507900Y-98481209D01*
X126470221Y-98340589D01*
X126411321Y-98238571D01*
X126397432Y-98214514D01*
X126397428Y-98214509D01*
X126294490Y-98111571D01*
X126294485Y-98111567D01*
X126226764Y-98072469D01*
X126168413Y-98038780D01*
X126168412Y-98038779D01*
X126168411Y-98038779D01*
X126027791Y-98001100D01*
X125882209Y-98001100D01*
X125741589Y-98038779D01*
X125741587Y-98038780D01*
X125741586Y-98038780D01*
X125615514Y-98111567D01*
X125615509Y-98111571D01*
X125512571Y-98214509D01*
X125512567Y-98214514D01*
X125439780Y-98340586D01*
X125439780Y-98340587D01*
X125439779Y-98340589D01*
X125402100Y-98481209D01*
X119493849Y-98481209D01*
X119522900Y-98372791D01*
X119522900Y-98227209D01*
X119522900Y-98219082D01*
X119525103Y-98219082D01*
X119534083Y-98161434D01*
X119580454Y-98109170D01*
X119647720Y-98090274D01*
X119656473Y-98090900D01*
X119659209Y-98090900D01*
X119804788Y-98090900D01*
X119804791Y-98090900D01*
X119945411Y-98053221D01*
X120071489Y-97980430D01*
X120078710Y-97973209D01*
X134673100Y-97973209D01*
X134673100Y-98118791D01*
X134710779Y-98259411D01*
X134710780Y-98259412D01*
X134710780Y-98259413D01*
X134783567Y-98385485D01*
X134783569Y-98385488D01*
X134783570Y-98385489D01*
X134886511Y-98488430D01*
X134886512Y-98488431D01*
X134886514Y-98488432D01*
X134923395Y-98509725D01*
X135012589Y-98561221D01*
X135153209Y-98598900D01*
X135153211Y-98598900D01*
X135298788Y-98598900D01*
X135298791Y-98598900D01*
X135439411Y-98561221D01*
X135565489Y-98488430D01*
X135668430Y-98385489D01*
X135741221Y-98259411D01*
X135778900Y-98118791D01*
X135778900Y-97973209D01*
X135741221Y-97832589D01*
X135681322Y-97728840D01*
X135668432Y-97706514D01*
X135668428Y-97706509D01*
X135565490Y-97603571D01*
X135565485Y-97603567D01*
X135439413Y-97530780D01*
X135439412Y-97530779D01*
X135439411Y-97530779D01*
X135298791Y-97493100D01*
X135153209Y-97493100D01*
X135012589Y-97530779D01*
X135012587Y-97530780D01*
X135012586Y-97530780D01*
X134886514Y-97603567D01*
X134886509Y-97603571D01*
X134783571Y-97706509D01*
X134783567Y-97706514D01*
X134710780Y-97832586D01*
X134710780Y-97832587D01*
X134710779Y-97832589D01*
X134673100Y-97973209D01*
X120078710Y-97973209D01*
X120174430Y-97877489D01*
X120247221Y-97751411D01*
X120284900Y-97610791D01*
X120284900Y-97465209D01*
X120284900Y-97457082D01*
X120287103Y-97457082D01*
X120296083Y-97399434D01*
X120342454Y-97347170D01*
X120409720Y-97328274D01*
X120418473Y-97328900D01*
X120421209Y-97328900D01*
X120566788Y-97328900D01*
X120566791Y-97328900D01*
X120707411Y-97291221D01*
X120833489Y-97218430D01*
X120936430Y-97115489D01*
X121009221Y-96989411D01*
X121046900Y-96848791D01*
X121046900Y-96830209D01*
X128831100Y-96830209D01*
X128831100Y-96975791D01*
X128868779Y-97116411D01*
X128868780Y-97116412D01*
X128868780Y-97116413D01*
X128941567Y-97242485D01*
X128941569Y-97242488D01*
X128941570Y-97242489D01*
X129044511Y-97345430D01*
X129044512Y-97345431D01*
X129044514Y-97345432D01*
X129107550Y-97381825D01*
X129170589Y-97418221D01*
X129311209Y-97455900D01*
X129311211Y-97455900D01*
X129456788Y-97455900D01*
X129456791Y-97455900D01*
X129597411Y-97418221D01*
X129723489Y-97345430D01*
X129826430Y-97242489D01*
X129899221Y-97116411D01*
X129936900Y-96975791D01*
X129936900Y-96830209D01*
X129899221Y-96689589D01*
X129833761Y-96576209D01*
X136832100Y-96576209D01*
X136832100Y-96721791D01*
X136869779Y-96862411D01*
X136869780Y-96862412D01*
X136869780Y-96862413D01*
X136942567Y-96988485D01*
X136942569Y-96988488D01*
X136942570Y-96988489D01*
X137045511Y-97091430D01*
X137045512Y-97091431D01*
X137045514Y-97091432D01*
X137087184Y-97115490D01*
X137171589Y-97164221D01*
X137312209Y-97201900D01*
X137312211Y-97201900D01*
X137457788Y-97201900D01*
X137457791Y-97201900D01*
X137598411Y-97164221D01*
X137724489Y-97091430D01*
X137827430Y-96988489D01*
X137900221Y-96862411D01*
X137937900Y-96721791D01*
X137937900Y-96576209D01*
X137900221Y-96435589D01*
X137841321Y-96333571D01*
X137827432Y-96309514D01*
X137827428Y-96309509D01*
X137724490Y-96206571D01*
X137724485Y-96206567D01*
X137598413Y-96133780D01*
X137598412Y-96133779D01*
X137598411Y-96133779D01*
X137457791Y-96096100D01*
X137312209Y-96096100D01*
X137171589Y-96133779D01*
X137171587Y-96133780D01*
X137171586Y-96133780D01*
X137045514Y-96206567D01*
X137045509Y-96206571D01*
X136942571Y-96309509D01*
X136942567Y-96309514D01*
X136869780Y-96435586D01*
X136869780Y-96435587D01*
X136869779Y-96435589D01*
X136832100Y-96576209D01*
X129833761Y-96576209D01*
X129826430Y-96563511D01*
X129723489Y-96460570D01*
X129723488Y-96460569D01*
X129723485Y-96460567D01*
X129597413Y-96387780D01*
X129597412Y-96387779D01*
X129597411Y-96387779D01*
X129456791Y-96350100D01*
X129311209Y-96350100D01*
X129170589Y-96387779D01*
X129170587Y-96387780D01*
X129170586Y-96387780D01*
X129044514Y-96460567D01*
X129044509Y-96460571D01*
X128941571Y-96563509D01*
X128941567Y-96563514D01*
X128868780Y-96689586D01*
X128868780Y-96689587D01*
X128868779Y-96689589D01*
X128831100Y-96830209D01*
X121046900Y-96830209D01*
X121046900Y-96703209D01*
X121046314Y-96701025D01*
X121046266Y-96690862D01*
X121053864Y-96664516D01*
X121058083Y-96637434D01*
X121063405Y-96631435D01*
X121065628Y-96623729D01*
X121086258Y-96605677D01*
X121104454Y-96585170D01*
X121112175Y-96583000D01*
X121118211Y-96577720D01*
X121145327Y-96573688D01*
X121171720Y-96566274D01*
X121180473Y-96566900D01*
X121183209Y-96566900D01*
X121328788Y-96566900D01*
X121328791Y-96566900D01*
X121469411Y-96529221D01*
X121595489Y-96456430D01*
X121698430Y-96353489D01*
X121771221Y-96227411D01*
X121808900Y-96086791D01*
X121808900Y-95941209D01*
X129847100Y-95941209D01*
X129847100Y-96086791D01*
X129884779Y-96227411D01*
X129884780Y-96227412D01*
X129884780Y-96227413D01*
X129946035Y-96333512D01*
X129946038Y-96333515D01*
X129957570Y-96353489D01*
X130060511Y-96456430D01*
X130060512Y-96456431D01*
X130060514Y-96456432D01*
X130080187Y-96467790D01*
X130186589Y-96529221D01*
X130327209Y-96566900D01*
X130327211Y-96566900D01*
X130472788Y-96566900D01*
X130472791Y-96566900D01*
X130613411Y-96529221D01*
X130732319Y-96460570D01*
X130735597Y-96458676D01*
X130739489Y-96456430D01*
X130842430Y-96353489D01*
X130915221Y-96227411D01*
X130952900Y-96086791D01*
X130952900Y-95941209D01*
X130915221Y-95800589D01*
X130869639Y-95721639D01*
X130842432Y-95674514D01*
X130842428Y-95674509D01*
X130739490Y-95571571D01*
X130739485Y-95571567D01*
X130613413Y-95498780D01*
X130613412Y-95498779D01*
X130613411Y-95498779D01*
X130472791Y-95461100D01*
X130327209Y-95461100D01*
X130186589Y-95498779D01*
X130186587Y-95498780D01*
X130186586Y-95498780D01*
X130060514Y-95571567D01*
X130060509Y-95571571D01*
X129957571Y-95674509D01*
X129957567Y-95674514D01*
X129884780Y-95800586D01*
X129884780Y-95800587D01*
X129884779Y-95800589D01*
X129847100Y-95941209D01*
X121808900Y-95941209D01*
X121808900Y-95933082D01*
X121811103Y-95933082D01*
X121820083Y-95875434D01*
X121866454Y-95823170D01*
X121933720Y-95804274D01*
X121942473Y-95804900D01*
X121945209Y-95804900D01*
X122090788Y-95804900D01*
X122090791Y-95804900D01*
X122231411Y-95767221D01*
X122357489Y-95694430D01*
X122460430Y-95591489D01*
X122533221Y-95465411D01*
X122570900Y-95324791D01*
X122570900Y-95242709D01*
X135879600Y-95242709D01*
X135879600Y-95388291D01*
X135917279Y-95528911D01*
X135917280Y-95528912D01*
X135917280Y-95528913D01*
X135990067Y-95654985D01*
X135990069Y-95654988D01*
X135990070Y-95654989D01*
X136093011Y-95757930D01*
X136093012Y-95757931D01*
X136093014Y-95757932D01*
X136156050Y-95794325D01*
X136219089Y-95830721D01*
X136359709Y-95868400D01*
X136359711Y-95868400D01*
X136505288Y-95868400D01*
X136505291Y-95868400D01*
X136645911Y-95830721D01*
X136771989Y-95757930D01*
X136874930Y-95654989D01*
X136947721Y-95528911D01*
X136985400Y-95388291D01*
X136985400Y-95242709D01*
X136947721Y-95102089D01*
X136911058Y-95038586D01*
X136874932Y-94976014D01*
X136874928Y-94976009D01*
X136771990Y-94873071D01*
X136771985Y-94873067D01*
X136645913Y-94800280D01*
X136645912Y-94800279D01*
X136645911Y-94800279D01*
X136580888Y-94782856D01*
X136554130Y-94775686D01*
X136505291Y-94762600D01*
X136359709Y-94762600D01*
X136219089Y-94800279D01*
X136219087Y-94800280D01*
X136219086Y-94800280D01*
X136093014Y-94873067D01*
X136093009Y-94873071D01*
X135990071Y-94976009D01*
X135990067Y-94976014D01*
X135917280Y-95102086D01*
X135917280Y-95102087D01*
X135917279Y-95102089D01*
X135879600Y-95242709D01*
X122570900Y-95242709D01*
X122570900Y-95179209D01*
X122570360Y-95177197D01*
X122570270Y-95167418D01*
X122577822Y-95140781D01*
X122582083Y-95113434D01*
X122587219Y-95107644D01*
X122589331Y-95100198D01*
X122610083Y-95081875D01*
X122628454Y-95061170D01*
X122635904Y-95059076D01*
X122641707Y-95053954D01*
X122669074Y-95049759D01*
X122695720Y-95042274D01*
X122704473Y-95042900D01*
X122707209Y-95042900D01*
X122852788Y-95042900D01*
X122852791Y-95042900D01*
X122993411Y-95005221D01*
X123119489Y-94932430D01*
X123222430Y-94829489D01*
X123295221Y-94703411D01*
X123303849Y-94671209D01*
X145722100Y-94671209D01*
X145722100Y-94816791D01*
X145759779Y-94957411D01*
X145759780Y-94957412D01*
X145759780Y-94957413D01*
X145832567Y-95083485D01*
X145832569Y-95083488D01*
X145832570Y-95083489D01*
X145935511Y-95186430D01*
X145935512Y-95186431D01*
X145935514Y-95186432D01*
X145966828Y-95204511D01*
X146061589Y-95259221D01*
X146202209Y-95296900D01*
X146202211Y-95296900D01*
X146347788Y-95296900D01*
X146347791Y-95296900D01*
X146488411Y-95259221D01*
X146614489Y-95186430D01*
X146717430Y-95083489D01*
X146790221Y-94957411D01*
X146827900Y-94816791D01*
X146827900Y-94671209D01*
X146790221Y-94530589D01*
X146736880Y-94438200D01*
X146717432Y-94404514D01*
X146717428Y-94404509D01*
X146614490Y-94301571D01*
X146614485Y-94301567D01*
X146488413Y-94228780D01*
X146488412Y-94228779D01*
X146488411Y-94228779D01*
X146347791Y-94191100D01*
X146202209Y-94191100D01*
X146061589Y-94228779D01*
X146061587Y-94228780D01*
X146061586Y-94228780D01*
X145935514Y-94301567D01*
X145935509Y-94301571D01*
X145832571Y-94404509D01*
X145832567Y-94404514D01*
X145759780Y-94530586D01*
X145759780Y-94530587D01*
X145759779Y-94530589D01*
X145722100Y-94671209D01*
X123303849Y-94671209D01*
X123332900Y-94562791D01*
X123332900Y-94417209D01*
X123295221Y-94276589D01*
X123222430Y-94150511D01*
X123119489Y-94047570D01*
X123119488Y-94047569D01*
X123119485Y-94047567D01*
X123051764Y-94008469D01*
X122993413Y-93974780D01*
X122993412Y-93974779D01*
X122993411Y-93974779D01*
X122852791Y-93937100D01*
X122707209Y-93937100D01*
X122566589Y-93974779D01*
X122566587Y-93974780D01*
X122566586Y-93974780D01*
X122440514Y-94047567D01*
X122440509Y-94047571D01*
X122337571Y-94150509D01*
X122337567Y-94150514D01*
X122264780Y-94276586D01*
X122264780Y-94276587D01*
X122264779Y-94276589D01*
X122227100Y-94417209D01*
X122227100Y-94417211D01*
X122227100Y-94570918D01*
X122224900Y-94570918D01*
X122215907Y-94628585D01*
X122169527Y-94680840D01*
X122102257Y-94699725D01*
X122093519Y-94699100D01*
X122090791Y-94699100D01*
X121945209Y-94699100D01*
X121804589Y-94736779D01*
X121804587Y-94736780D01*
X121804586Y-94736780D01*
X121678514Y-94809567D01*
X121678509Y-94809571D01*
X121575571Y-94912509D01*
X121575567Y-94912514D01*
X121502780Y-95038586D01*
X121502780Y-95038587D01*
X121502779Y-95038589D01*
X121465100Y-95179209D01*
X121465100Y-95179211D01*
X121465100Y-95332918D01*
X121462900Y-95332918D01*
X121453907Y-95390585D01*
X121407527Y-95442840D01*
X121340257Y-95461725D01*
X121331519Y-95461100D01*
X121328791Y-95461100D01*
X121183209Y-95461100D01*
X121042589Y-95498779D01*
X121042587Y-95498780D01*
X121042586Y-95498780D01*
X120916514Y-95571567D01*
X120916509Y-95571571D01*
X120813571Y-95674509D01*
X120813567Y-95674514D01*
X120740780Y-95800586D01*
X120740780Y-95800587D01*
X120740779Y-95800589D01*
X120703100Y-95941209D01*
X120703100Y-95941211D01*
X120703100Y-96094918D01*
X120700900Y-96094918D01*
X120691907Y-96152585D01*
X120645527Y-96204840D01*
X120578257Y-96223725D01*
X120569519Y-96223100D01*
X120566791Y-96223100D01*
X120421209Y-96223100D01*
X120280589Y-96260779D01*
X120280587Y-96260780D01*
X120280586Y-96260780D01*
X120154514Y-96333567D01*
X120154509Y-96333571D01*
X120051571Y-96436509D01*
X120051567Y-96436514D01*
X119978780Y-96562586D01*
X119978780Y-96562587D01*
X119978779Y-96562589D01*
X119941100Y-96703209D01*
X119941100Y-96703211D01*
X119941100Y-96856918D01*
X119938900Y-96856918D01*
X119929907Y-96914585D01*
X119883527Y-96966840D01*
X119816257Y-96985725D01*
X119807519Y-96985100D01*
X119804791Y-96985100D01*
X119659209Y-96985100D01*
X119518589Y-97022779D01*
X119518587Y-97022780D01*
X119518586Y-97022780D01*
X119392514Y-97095567D01*
X119392509Y-97095571D01*
X119289571Y-97198509D01*
X119289567Y-97198514D01*
X119216780Y-97324586D01*
X119216780Y-97324587D01*
X119216779Y-97324589D01*
X119179100Y-97465209D01*
X119179100Y-97465211D01*
X119179100Y-97618918D01*
X119176900Y-97618918D01*
X119167907Y-97676585D01*
X119121527Y-97728840D01*
X119054257Y-97747725D01*
X119045519Y-97747100D01*
X119042791Y-97747100D01*
X118897209Y-97747100D01*
X118756589Y-97784779D01*
X118756587Y-97784780D01*
X118756586Y-97784780D01*
X118630514Y-97857567D01*
X118630509Y-97857571D01*
X118527571Y-97960509D01*
X118527567Y-97960514D01*
X118454780Y-98086586D01*
X118454780Y-98086587D01*
X118454779Y-98086589D01*
X118417100Y-98227209D01*
X118417100Y-98227211D01*
X118417100Y-98380918D01*
X118414900Y-98380918D01*
X118405907Y-98438585D01*
X118359527Y-98490840D01*
X118292257Y-98509725D01*
X118283519Y-98509100D01*
X118280791Y-98509100D01*
X118135209Y-98509100D01*
X117994589Y-98546779D01*
X117994587Y-98546780D01*
X117994586Y-98546780D01*
X117868514Y-98619567D01*
X117868509Y-98619571D01*
X117765571Y-98722509D01*
X117765567Y-98722514D01*
X117692780Y-98848586D01*
X117692780Y-98848587D01*
X117692779Y-98848589D01*
X117655100Y-98989209D01*
X117655100Y-98989211D01*
X117655100Y-99134790D01*
X117686067Y-99250361D01*
X117684404Y-99320211D01*
X117645241Y-99378073D01*
X117581013Y-99405577D01*
X117534201Y-99402229D01*
X117518791Y-99398100D01*
X117373209Y-99398100D01*
X117232589Y-99435779D01*
X117232587Y-99435780D01*
X117232586Y-99435780D01*
X117106514Y-99508567D01*
X117106509Y-99508571D01*
X117003571Y-99611509D01*
X117003567Y-99611514D01*
X116930780Y-99737586D01*
X116930780Y-99737587D01*
X116930779Y-99737589D01*
X116893100Y-99878209D01*
X102940610Y-99878209D01*
X103036330Y-99782489D01*
X103109121Y-99656411D01*
X103146800Y-99515791D01*
X103146800Y-99370209D01*
X103109121Y-99229589D01*
X103072725Y-99166550D01*
X103036332Y-99103514D01*
X103036328Y-99103509D01*
X102933390Y-99000571D01*
X102933385Y-99000567D01*
X102807313Y-98927780D01*
X102807312Y-98927779D01*
X102807311Y-98927779D01*
X102666691Y-98890100D01*
X102521109Y-98890100D01*
X102380489Y-98927779D01*
X102380487Y-98927780D01*
X102380486Y-98927780D01*
X102254414Y-99000567D01*
X102254409Y-99000571D01*
X102151471Y-99103509D01*
X102151467Y-99103514D01*
X102078680Y-99229586D01*
X102078680Y-99229587D01*
X102078679Y-99229589D01*
X102041000Y-99370209D01*
X78522812Y-99370209D01*
X78416413Y-99308780D01*
X78416412Y-99308779D01*
X78416411Y-99308779D01*
X78275791Y-99271100D01*
X78130209Y-99271100D01*
X77989589Y-99308779D01*
X77989587Y-99308780D01*
X77989586Y-99308780D01*
X77863514Y-99381567D01*
X77863509Y-99381571D01*
X77760571Y-99484509D01*
X77760567Y-99484514D01*
X77687780Y-99610586D01*
X77687780Y-99610587D01*
X77687779Y-99610589D01*
X77650100Y-99751209D01*
X51051170Y-99751209D01*
X51051121Y-98608209D01*
X78412100Y-98608209D01*
X78412100Y-98753791D01*
X78449779Y-98894411D01*
X78449780Y-98894412D01*
X78449780Y-98894413D01*
X78522567Y-99020485D01*
X78522569Y-99020488D01*
X78522570Y-99020489D01*
X78625511Y-99123430D01*
X78625512Y-99123431D01*
X78625514Y-99123432D01*
X78645187Y-99134790D01*
X78751589Y-99196221D01*
X78892209Y-99233900D01*
X78892211Y-99233900D01*
X79037788Y-99233900D01*
X79037791Y-99233900D01*
X79178411Y-99196221D01*
X79304489Y-99123430D01*
X79407430Y-99020489D01*
X79480221Y-98894411D01*
X79517900Y-98753791D01*
X79517900Y-98608209D01*
X79480221Y-98467589D01*
X79430182Y-98380918D01*
X79407432Y-98341514D01*
X79407428Y-98341509D01*
X79304490Y-98238571D01*
X79304485Y-98238567D01*
X79178413Y-98165780D01*
X79178412Y-98165779D01*
X79178411Y-98165779D01*
X79037791Y-98128100D01*
X78892209Y-98128100D01*
X78751589Y-98165779D01*
X78751587Y-98165780D01*
X78751586Y-98165780D01*
X78625514Y-98238567D01*
X78625509Y-98238571D01*
X78522571Y-98341509D01*
X78522567Y-98341514D01*
X78449780Y-98467586D01*
X78449780Y-98467587D01*
X78449779Y-98467589D01*
X78412100Y-98608209D01*
X51051121Y-98608209D01*
X51051088Y-97845843D01*
X79555466Y-97845843D01*
X79555466Y-97991425D01*
X79593145Y-98132045D01*
X79593146Y-98132046D01*
X79593146Y-98132047D01*
X79665933Y-98258119D01*
X79665935Y-98258122D01*
X79665936Y-98258123D01*
X79768877Y-98361064D01*
X79768878Y-98361065D01*
X79768880Y-98361066D01*
X79811182Y-98385489D01*
X79894955Y-98433855D01*
X80035575Y-98471534D01*
X80035577Y-98471534D01*
X80181154Y-98471534D01*
X80181157Y-98471534D01*
X80321777Y-98433855D01*
X80447855Y-98361064D01*
X80499810Y-98309109D01*
X103050100Y-98309109D01*
X103050100Y-98454691D01*
X103087779Y-98595311D01*
X103087780Y-98595312D01*
X103087780Y-98595313D01*
X103160567Y-98721385D01*
X103160569Y-98721388D01*
X103160570Y-98721389D01*
X103263511Y-98824330D01*
X103263512Y-98824331D01*
X103263514Y-98824332D01*
X103312996Y-98852900D01*
X103389589Y-98897121D01*
X103530209Y-98934800D01*
X103530211Y-98934800D01*
X103675788Y-98934800D01*
X103675791Y-98934800D01*
X103816411Y-98897121D01*
X103942489Y-98824330D01*
X104045430Y-98721389D01*
X104118221Y-98595311D01*
X104155900Y-98454691D01*
X104155900Y-98309109D01*
X104118221Y-98168489D01*
X104045430Y-98042411D01*
X103942489Y-97939470D01*
X103942488Y-97939469D01*
X103942485Y-97939467D01*
X103816413Y-97866680D01*
X103816412Y-97866679D01*
X103816411Y-97866679D01*
X103675791Y-97829000D01*
X103530209Y-97829000D01*
X103389589Y-97866679D01*
X103389587Y-97866680D01*
X103389586Y-97866680D01*
X103263514Y-97939467D01*
X103263509Y-97939471D01*
X103160571Y-98042409D01*
X103160567Y-98042414D01*
X103087780Y-98168486D01*
X103087780Y-98168487D01*
X103087779Y-98168489D01*
X103050100Y-98309109D01*
X80499810Y-98309109D01*
X80550796Y-98258123D01*
X80623587Y-98132045D01*
X80661266Y-97991425D01*
X80661266Y-97845843D01*
X80645467Y-97786880D01*
X80647130Y-97717036D01*
X80686292Y-97659173D01*
X80750520Y-97631668D01*
X80819422Y-97643254D01*
X80841105Y-97658694D01*
X80841932Y-97657618D01*
X80848375Y-97662562D01*
X80848377Y-97662564D01*
X80974455Y-97735355D01*
X81115075Y-97773034D01*
X81115077Y-97773034D01*
X81260654Y-97773034D01*
X81260657Y-97773034D01*
X81401277Y-97735355D01*
X81527355Y-97662564D01*
X81630296Y-97559623D01*
X81703087Y-97433545D01*
X81736430Y-97309109D01*
X104073000Y-97309109D01*
X104073000Y-97454691D01*
X104110679Y-97595311D01*
X104110680Y-97595312D01*
X104110680Y-97595313D01*
X104183467Y-97721385D01*
X104183469Y-97721388D01*
X104183470Y-97721389D01*
X104286411Y-97824330D01*
X104286412Y-97824331D01*
X104286414Y-97824332D01*
X104343986Y-97857571D01*
X104412489Y-97897121D01*
X104553109Y-97934800D01*
X104553111Y-97934800D01*
X104698688Y-97934800D01*
X104698691Y-97934800D01*
X104839311Y-97897121D01*
X104965389Y-97824330D01*
X105068330Y-97721389D01*
X105141121Y-97595311D01*
X105178800Y-97454691D01*
X105178800Y-97309109D01*
X105141121Y-97168489D01*
X105068330Y-97042411D01*
X104965389Y-96939470D01*
X104965388Y-96939469D01*
X104965385Y-96939467D01*
X104839313Y-96866680D01*
X104839312Y-96866679D01*
X104839311Y-96866679D01*
X104698691Y-96829000D01*
X104553109Y-96829000D01*
X104412489Y-96866679D01*
X104412487Y-96866680D01*
X104412486Y-96866680D01*
X104286414Y-96939467D01*
X104286409Y-96939471D01*
X104183471Y-97042409D01*
X104183467Y-97042414D01*
X104110680Y-97168486D01*
X104110680Y-97168487D01*
X104110679Y-97168489D01*
X104073000Y-97309109D01*
X81736430Y-97309109D01*
X81740766Y-97292925D01*
X81740766Y-97147343D01*
X81709073Y-97029063D01*
X81710736Y-96959217D01*
X81749898Y-96901354D01*
X81814126Y-96873850D01*
X81883029Y-96885436D01*
X81890848Y-96889586D01*
X81926589Y-96910221D01*
X82067209Y-96947900D01*
X82067211Y-96947900D01*
X82212788Y-96947900D01*
X82212791Y-96947900D01*
X82353411Y-96910221D01*
X82479489Y-96837430D01*
X82582430Y-96734489D01*
X82655221Y-96608411D01*
X82692900Y-96467791D01*
X82692900Y-96322209D01*
X82655221Y-96181589D01*
X82605182Y-96094918D01*
X82582432Y-96055514D01*
X82582428Y-96055509D01*
X82479490Y-95952571D01*
X82479485Y-95952567D01*
X82411764Y-95913469D01*
X82353413Y-95879780D01*
X82353412Y-95879779D01*
X82353411Y-95879779D01*
X82212791Y-95842100D01*
X82067209Y-95842100D01*
X81926589Y-95879779D01*
X81926587Y-95879780D01*
X81926586Y-95879780D01*
X81800514Y-95952567D01*
X81800509Y-95952571D01*
X81697571Y-96055509D01*
X81697567Y-96055514D01*
X81624780Y-96181586D01*
X81624780Y-96181587D01*
X81624779Y-96181589D01*
X81587100Y-96322209D01*
X81587100Y-96467791D01*
X81613656Y-96566900D01*
X81618792Y-96586067D01*
X81617129Y-96655917D01*
X81577966Y-96713779D01*
X81513738Y-96741283D01*
X81444836Y-96729696D01*
X81437018Y-96725548D01*
X81401277Y-96704913D01*
X81394925Y-96703211D01*
X81260657Y-96667234D01*
X81115075Y-96667234D01*
X80974455Y-96704913D01*
X80974453Y-96704914D01*
X80974452Y-96704914D01*
X80848380Y-96777701D01*
X80848375Y-96777705D01*
X80745437Y-96880643D01*
X80745433Y-96880648D01*
X80672646Y-97006720D01*
X80672646Y-97006721D01*
X80672645Y-97006723D01*
X80634966Y-97147343D01*
X80634966Y-97292925D01*
X80649034Y-97345428D01*
X80650764Y-97351883D01*
X80649101Y-97421733D01*
X80609938Y-97479595D01*
X80545710Y-97507099D01*
X80476808Y-97495512D01*
X80455126Y-97480072D01*
X80454300Y-97481150D01*
X80447851Y-97476201D01*
X80321779Y-97403414D01*
X80321778Y-97403413D01*
X80321777Y-97403413D01*
X80181157Y-97365734D01*
X80035575Y-97365734D01*
X79894955Y-97403413D01*
X79894953Y-97403414D01*
X79894952Y-97403414D01*
X79768880Y-97476201D01*
X79768875Y-97476205D01*
X79665937Y-97579143D01*
X79665933Y-97579148D01*
X79593146Y-97705220D01*
X79593146Y-97705221D01*
X79593145Y-97705223D01*
X79555466Y-97845843D01*
X51051088Y-97845843D01*
X51050990Y-95560209D01*
X69903100Y-95560209D01*
X69903100Y-95705791D01*
X69940779Y-95846411D01*
X69940780Y-95846412D01*
X69940780Y-95846413D01*
X70013567Y-95972485D01*
X70013569Y-95972488D01*
X70013570Y-95972489D01*
X70116511Y-96075430D01*
X70116512Y-96075431D01*
X70116514Y-96075432D01*
X70159779Y-96100411D01*
X70242589Y-96148221D01*
X70383209Y-96185900D01*
X70383211Y-96185900D01*
X70528788Y-96185900D01*
X70528791Y-96185900D01*
X70669411Y-96148221D01*
X70795489Y-96075430D01*
X70898430Y-95972489D01*
X70971221Y-95846411D01*
X70979849Y-95814209D01*
X104955100Y-95814209D01*
X104955100Y-95959791D01*
X104992779Y-96100411D01*
X104992780Y-96100412D01*
X104992780Y-96100413D01*
X105065567Y-96226485D01*
X105065569Y-96226488D01*
X105065570Y-96226489D01*
X105168511Y-96329430D01*
X105168512Y-96329431D01*
X105168514Y-96329432D01*
X105210184Y-96353490D01*
X105294589Y-96402221D01*
X105435209Y-96439900D01*
X105435211Y-96439900D01*
X105580788Y-96439900D01*
X105580791Y-96439900D01*
X105721411Y-96402221D01*
X105847489Y-96329430D01*
X105854710Y-96322209D01*
X108130100Y-96322209D01*
X108130100Y-96467791D01*
X108167779Y-96608411D01*
X108167780Y-96608412D01*
X108167780Y-96608413D01*
X108240567Y-96734485D01*
X108240569Y-96734488D01*
X108240570Y-96734489D01*
X108343511Y-96837430D01*
X108343512Y-96837431D01*
X108343514Y-96837432D01*
X108363189Y-96848791D01*
X108469589Y-96910221D01*
X108610209Y-96947900D01*
X108610211Y-96947900D01*
X108755788Y-96947900D01*
X108755791Y-96947900D01*
X108896411Y-96910221D01*
X109022489Y-96837430D01*
X109125430Y-96734489D01*
X109198221Y-96608411D01*
X109235900Y-96467791D01*
X109235900Y-96322209D01*
X109198221Y-96181589D01*
X109148182Y-96094918D01*
X109125432Y-96055514D01*
X109125428Y-96055509D01*
X109022490Y-95952571D01*
X109022485Y-95952567D01*
X108896413Y-95879780D01*
X108896412Y-95879779D01*
X108896411Y-95879779D01*
X108755791Y-95842100D01*
X108610209Y-95842100D01*
X108469589Y-95879779D01*
X108469587Y-95879780D01*
X108469586Y-95879780D01*
X108343514Y-95952567D01*
X108343509Y-95952571D01*
X108240571Y-96055509D01*
X108240567Y-96055514D01*
X108167780Y-96181586D01*
X108167780Y-96181587D01*
X108167779Y-96181589D01*
X108130100Y-96322209D01*
X105854710Y-96322209D01*
X105950430Y-96226489D01*
X106023221Y-96100411D01*
X106060900Y-95959791D01*
X106060900Y-95814209D01*
X106023221Y-95673589D01*
X105964321Y-95571571D01*
X105950432Y-95547514D01*
X105950428Y-95547509D01*
X105847490Y-95444571D01*
X105847485Y-95444567D01*
X105721413Y-95371780D01*
X105721412Y-95371779D01*
X105721411Y-95371779D01*
X105580791Y-95334100D01*
X105435209Y-95334100D01*
X105294589Y-95371779D01*
X105294587Y-95371780D01*
X105294586Y-95371780D01*
X105168514Y-95444567D01*
X105168509Y-95444571D01*
X105065571Y-95547509D01*
X105065567Y-95547514D01*
X104992780Y-95673586D01*
X104992780Y-95673587D01*
X104992779Y-95673589D01*
X104955100Y-95814209D01*
X70979849Y-95814209D01*
X71008900Y-95705791D01*
X71008900Y-95560209D01*
X70971221Y-95419589D01*
X70934825Y-95356550D01*
X70898432Y-95293514D01*
X70898428Y-95293509D01*
X70795490Y-95190571D01*
X70795485Y-95190567D01*
X70728398Y-95151835D01*
X70669413Y-95117780D01*
X70669412Y-95117779D01*
X70669411Y-95117779D01*
X70528791Y-95080100D01*
X70383209Y-95080100D01*
X70242589Y-95117779D01*
X70242587Y-95117780D01*
X70242586Y-95117780D01*
X70116514Y-95190567D01*
X70116509Y-95190571D01*
X70013571Y-95293509D01*
X70013567Y-95293514D01*
X69940780Y-95419586D01*
X69940780Y-95419587D01*
X69940779Y-95419589D01*
X69903100Y-95560209D01*
X51050990Y-95560209D01*
X51050968Y-95052575D01*
X82221734Y-95052575D01*
X82221734Y-95198157D01*
X82259413Y-95338777D01*
X82259414Y-95338778D01*
X82259414Y-95338779D01*
X82332201Y-95464851D01*
X82332203Y-95464854D01*
X82332204Y-95464855D01*
X82435145Y-95567796D01*
X82435146Y-95567797D01*
X82435148Y-95567798D01*
X82476184Y-95591490D01*
X82561223Y-95640587D01*
X82701843Y-95678266D01*
X82701845Y-95678266D01*
X82847422Y-95678266D01*
X82847425Y-95678266D01*
X82988045Y-95640587D01*
X83114123Y-95567796D01*
X83217064Y-95464855D01*
X83289855Y-95338777D01*
X83327534Y-95198157D01*
X83327534Y-95052575D01*
X83291558Y-94918309D01*
X114353100Y-94918309D01*
X114353100Y-95063891D01*
X114390779Y-95204511D01*
X114390780Y-95204512D01*
X114390780Y-95204513D01*
X114463567Y-95330585D01*
X114463569Y-95330588D01*
X114463570Y-95330589D01*
X114566511Y-95433530D01*
X114566512Y-95433531D01*
X114566514Y-95433532D01*
X114614264Y-95461100D01*
X114692589Y-95506321D01*
X114833209Y-95544000D01*
X114833211Y-95544000D01*
X114978788Y-95544000D01*
X114978791Y-95544000D01*
X115119411Y-95506321D01*
X115245489Y-95433530D01*
X115348430Y-95330589D01*
X115421221Y-95204511D01*
X115458900Y-95063891D01*
X115458900Y-94918309D01*
X115421221Y-94777689D01*
X115366516Y-94682937D01*
X115348432Y-94651614D01*
X115348428Y-94651609D01*
X115245490Y-94548671D01*
X115245485Y-94548667D01*
X115119413Y-94475880D01*
X115119412Y-94475879D01*
X115119411Y-94475879D01*
X114978791Y-94438200D01*
X114833209Y-94438200D01*
X114692589Y-94475879D01*
X114692587Y-94475880D01*
X114692586Y-94475880D01*
X114566514Y-94548667D01*
X114566509Y-94548671D01*
X114463571Y-94651609D01*
X114463567Y-94651614D01*
X114390780Y-94777686D01*
X114390780Y-94777687D01*
X114390779Y-94777689D01*
X114353100Y-94918309D01*
X83291558Y-94918309D01*
X83289855Y-94911955D01*
X83234912Y-94816791D01*
X83217066Y-94785880D01*
X83217062Y-94785875D01*
X83114124Y-94682937D01*
X83114119Y-94682933D01*
X82988047Y-94610146D01*
X82988046Y-94610145D01*
X82988045Y-94610145D01*
X82847425Y-94572466D01*
X82701843Y-94572466D01*
X82561223Y-94610145D01*
X82561221Y-94610146D01*
X82561220Y-94610146D01*
X82435148Y-94682933D01*
X82435143Y-94682937D01*
X82332205Y-94785875D01*
X82332201Y-94785880D01*
X82259414Y-94911952D01*
X82259414Y-94911953D01*
X82259413Y-94911955D01*
X82221734Y-95052575D01*
X51050968Y-95052575D01*
X51050908Y-93662109D01*
X114988100Y-93662109D01*
X114988100Y-93807691D01*
X115025779Y-93948311D01*
X115025780Y-93948312D01*
X115025780Y-93948313D01*
X115098567Y-94074385D01*
X115098569Y-94074388D01*
X115098570Y-94074389D01*
X115201511Y-94177330D01*
X115327589Y-94250121D01*
X115468209Y-94287800D01*
X115468211Y-94287800D01*
X115613788Y-94287800D01*
X115613791Y-94287800D01*
X115754411Y-94250121D01*
X115880489Y-94177330D01*
X115983430Y-94074389D01*
X116056221Y-93948311D01*
X116066698Y-93909209D01*
X134419100Y-93909209D01*
X134419100Y-94054791D01*
X134456779Y-94195411D01*
X134456780Y-94195412D01*
X134456780Y-94195413D01*
X134529567Y-94321485D01*
X134529569Y-94321488D01*
X134529570Y-94321489D01*
X134632511Y-94424430D01*
X134758589Y-94497221D01*
X134899209Y-94534900D01*
X134899211Y-94534900D01*
X135044788Y-94534900D01*
X135044791Y-94534900D01*
X135185411Y-94497221D01*
X135311489Y-94424430D01*
X135414430Y-94321489D01*
X135487221Y-94195411D01*
X135524900Y-94054791D01*
X135524900Y-93909209D01*
X135487221Y-93768589D01*
X135414430Y-93642511D01*
X135311489Y-93539570D01*
X135311488Y-93539569D01*
X135311485Y-93539567D01*
X135185413Y-93466780D01*
X135185412Y-93466779D01*
X135185411Y-93466779D01*
X135044791Y-93429100D01*
X134899209Y-93429100D01*
X134758589Y-93466779D01*
X134758587Y-93466780D01*
X134758586Y-93466780D01*
X134632514Y-93539567D01*
X134632509Y-93539571D01*
X134529571Y-93642509D01*
X134529567Y-93642514D01*
X134456780Y-93768586D01*
X134456780Y-93768587D01*
X134456779Y-93768589D01*
X134419100Y-93909209D01*
X116066698Y-93909209D01*
X116093900Y-93807691D01*
X116093900Y-93662109D01*
X116056221Y-93521489D01*
X115983430Y-93395411D01*
X115880489Y-93292470D01*
X115880488Y-93292469D01*
X115880485Y-93292467D01*
X115754413Y-93219680D01*
X115754412Y-93219679D01*
X115754411Y-93219679D01*
X115613791Y-93182000D01*
X115468209Y-93182000D01*
X115327589Y-93219679D01*
X115327587Y-93219680D01*
X115327586Y-93219680D01*
X115201514Y-93292467D01*
X115201509Y-93292471D01*
X115098571Y-93395409D01*
X115098567Y-93395414D01*
X115025780Y-93521486D01*
X115025780Y-93521487D01*
X115025779Y-93521489D01*
X114988100Y-93662109D01*
X51050908Y-93662109D01*
X51050870Y-92766209D01*
X116131100Y-92766209D01*
X116131100Y-92911791D01*
X116168779Y-93052411D01*
X116168780Y-93052412D01*
X116168780Y-93052413D01*
X116241567Y-93178485D01*
X116241569Y-93178488D01*
X116241570Y-93178489D01*
X116344511Y-93281430D01*
X116344512Y-93281431D01*
X116344514Y-93281432D01*
X116407550Y-93317825D01*
X116470589Y-93354221D01*
X116611209Y-93391900D01*
X116611211Y-93391900D01*
X116756788Y-93391900D01*
X116756791Y-93391900D01*
X116897411Y-93354221D01*
X117023489Y-93281430D01*
X117126430Y-93178489D01*
X117199221Y-93052411D01*
X117236900Y-92911791D01*
X117236900Y-92766209D01*
X117202870Y-92639209D01*
X126672100Y-92639209D01*
X126672100Y-92784791D01*
X126709779Y-92925411D01*
X126709780Y-92925412D01*
X126709780Y-92925413D01*
X126782567Y-93051485D01*
X126782569Y-93051488D01*
X126782570Y-93051489D01*
X126885511Y-93154430D01*
X126885512Y-93154431D01*
X126885514Y-93154432D01*
X126927184Y-93178490D01*
X127011589Y-93227221D01*
X127152209Y-93264900D01*
X127152211Y-93264900D01*
X127297788Y-93264900D01*
X127297791Y-93264900D01*
X127438411Y-93227221D01*
X127564489Y-93154430D01*
X127667430Y-93051489D01*
X127740221Y-92925411D01*
X127777900Y-92784791D01*
X127777900Y-92714046D01*
X127797585Y-92647007D01*
X127850389Y-92601252D01*
X127919547Y-92591308D01*
X127933980Y-92594268D01*
X128041209Y-92623000D01*
X128041212Y-92623000D01*
X128186788Y-92623000D01*
X128186791Y-92623000D01*
X128327411Y-92585321D01*
X128453489Y-92512530D01*
X128556430Y-92409589D01*
X128629221Y-92283511D01*
X128666900Y-92142891D01*
X128666900Y-91997309D01*
X128629221Y-91856689D01*
X128556430Y-91730611D01*
X128453489Y-91627670D01*
X128453488Y-91627669D01*
X128453485Y-91627667D01*
X128327413Y-91554880D01*
X128327412Y-91554879D01*
X128327411Y-91554879D01*
X128186791Y-91517200D01*
X128041209Y-91517200D01*
X127900589Y-91554879D01*
X127900587Y-91554880D01*
X127900586Y-91554880D01*
X127774514Y-91627667D01*
X127774509Y-91627671D01*
X127671571Y-91730609D01*
X127671567Y-91730614D01*
X127598780Y-91856686D01*
X127598780Y-91856687D01*
X127598779Y-91856689D01*
X127561100Y-91997309D01*
X127561100Y-91997311D01*
X127561100Y-92068053D01*
X127541415Y-92135092D01*
X127488611Y-92180847D01*
X127419453Y-92190791D01*
X127405007Y-92187828D01*
X127311756Y-92162842D01*
X127297791Y-92159100D01*
X127152209Y-92159100D01*
X127011589Y-92196779D01*
X127011587Y-92196780D01*
X127011586Y-92196780D01*
X126885514Y-92269567D01*
X126885509Y-92269571D01*
X126782571Y-92372509D01*
X126782567Y-92372514D01*
X126709780Y-92498586D01*
X126709780Y-92498587D01*
X126709779Y-92498589D01*
X126672100Y-92639209D01*
X117202870Y-92639209D01*
X117199221Y-92625589D01*
X117133947Y-92512530D01*
X117126432Y-92499514D01*
X117126428Y-92499509D01*
X117023490Y-92396571D01*
X117023485Y-92396567D01*
X116897413Y-92323780D01*
X116897412Y-92323779D01*
X116897411Y-92323779D01*
X116756791Y-92286100D01*
X116611209Y-92286100D01*
X116470589Y-92323779D01*
X116470587Y-92323780D01*
X116470586Y-92323780D01*
X116344514Y-92396567D01*
X116344509Y-92396571D01*
X116241571Y-92499509D01*
X116241567Y-92499514D01*
X116168780Y-92625586D01*
X116168780Y-92625587D01*
X116168779Y-92625589D01*
X116131100Y-92766209D01*
X51050870Y-92766209D01*
X51050807Y-91308215D01*
X78920100Y-91308215D01*
X78920100Y-91453797D01*
X78957779Y-91594417D01*
X78957780Y-91594418D01*
X78957780Y-91594419D01*
X79030567Y-91720491D01*
X79030569Y-91720494D01*
X79030570Y-91720495D01*
X79133511Y-91823436D01*
X79259589Y-91896227D01*
X79400209Y-91933906D01*
X79400211Y-91933906D01*
X79545788Y-91933906D01*
X79545791Y-91933906D01*
X79686411Y-91896227D01*
X79812489Y-91823436D01*
X79915430Y-91720495D01*
X79957505Y-91647619D01*
X82070190Y-91647619D01*
X82070190Y-91793201D01*
X82107869Y-91933821D01*
X82107870Y-91933822D01*
X82107870Y-91933823D01*
X82180657Y-92059895D01*
X82180659Y-92059898D01*
X82180660Y-92059899D01*
X82283601Y-92162840D01*
X82283602Y-92162841D01*
X82283604Y-92162842D01*
X82332014Y-92190791D01*
X82409679Y-92235631D01*
X82550299Y-92273310D01*
X82550301Y-92273310D01*
X82695878Y-92273310D01*
X82695881Y-92273310D01*
X82836501Y-92235631D01*
X82962579Y-92162840D01*
X83065520Y-92059899D01*
X83138311Y-91933821D01*
X83175990Y-91793201D01*
X83175990Y-91647619D01*
X83138311Y-91506999D01*
X83132081Y-91496209D01*
X109146100Y-91496209D01*
X109146100Y-91641791D01*
X109183779Y-91782411D01*
X109183780Y-91782412D01*
X109183780Y-91782413D01*
X109256567Y-91908485D01*
X109256569Y-91908488D01*
X109256570Y-91908489D01*
X109359511Y-92011430D01*
X109485589Y-92084221D01*
X109626209Y-92121900D01*
X109626211Y-92121900D01*
X109771788Y-92121900D01*
X109771791Y-92121900D01*
X109912411Y-92084221D01*
X110038489Y-92011430D01*
X110141430Y-91908489D01*
X110214221Y-91782411D01*
X110251900Y-91641791D01*
X110251900Y-91496209D01*
X110214221Y-91355589D01*
X110141430Y-91229511D01*
X110038489Y-91126570D01*
X110038488Y-91126569D01*
X110038485Y-91126567D01*
X109912413Y-91053780D01*
X109912412Y-91053779D01*
X109912411Y-91053779D01*
X109771791Y-91016100D01*
X109626209Y-91016100D01*
X109485589Y-91053779D01*
X109485587Y-91053780D01*
X109485586Y-91053780D01*
X109359514Y-91126567D01*
X109359509Y-91126571D01*
X109256571Y-91229509D01*
X109256567Y-91229514D01*
X109183780Y-91355586D01*
X109183780Y-91355587D01*
X109183779Y-91355589D01*
X109146100Y-91496209D01*
X83132081Y-91496209D01*
X83065520Y-91380921D01*
X82962579Y-91277980D01*
X82962578Y-91277979D01*
X82962575Y-91277977D01*
X82836503Y-91205190D01*
X82836502Y-91205189D01*
X82836501Y-91205189D01*
X82695881Y-91167510D01*
X82550299Y-91167510D01*
X82409679Y-91205189D01*
X82409677Y-91205190D01*
X82409676Y-91205190D01*
X82283604Y-91277977D01*
X82283599Y-91277981D01*
X82180661Y-91380919D01*
X82180657Y-91380924D01*
X82107870Y-91506996D01*
X82107870Y-91506997D01*
X82107869Y-91506999D01*
X82070190Y-91647619D01*
X79957505Y-91647619D01*
X79988221Y-91594417D01*
X80025900Y-91453797D01*
X80025900Y-91308215D01*
X79988221Y-91167595D01*
X79922510Y-91053780D01*
X79915432Y-91041520D01*
X79915428Y-91041515D01*
X79812490Y-90938577D01*
X79812485Y-90938573D01*
X79686413Y-90865786D01*
X79686412Y-90865785D01*
X79686411Y-90865785D01*
X79545791Y-90828106D01*
X79400209Y-90828106D01*
X79259589Y-90865785D01*
X79259587Y-90865786D01*
X79259586Y-90865786D01*
X79133514Y-90938573D01*
X79133509Y-90938577D01*
X79030571Y-91041515D01*
X79030567Y-91041520D01*
X78957780Y-91167592D01*
X78957780Y-91167593D01*
X78957779Y-91167595D01*
X78920100Y-91308215D01*
X51050807Y-91308215D01*
X51050749Y-89972209D01*
X76126100Y-89972209D01*
X76126100Y-90117791D01*
X76163779Y-90258411D01*
X76163780Y-90258412D01*
X76163780Y-90258413D01*
X76236567Y-90384485D01*
X76236569Y-90384488D01*
X76236570Y-90384489D01*
X76339511Y-90487430D01*
X76465589Y-90560221D01*
X76606209Y-90597900D01*
X76606211Y-90597900D01*
X76751788Y-90597900D01*
X76751791Y-90597900D01*
X76892411Y-90560221D01*
X77018489Y-90487430D01*
X77121430Y-90384489D01*
X77176362Y-90289343D01*
X110225234Y-90289343D01*
X110225234Y-90434925D01*
X110262913Y-90575545D01*
X110262914Y-90575546D01*
X110262914Y-90575547D01*
X110335701Y-90701619D01*
X110335703Y-90701622D01*
X110335704Y-90701623D01*
X110438645Y-90804564D01*
X110564723Y-90877355D01*
X110705343Y-90915034D01*
X110705345Y-90915034D01*
X110850922Y-90915034D01*
X110850925Y-90915034D01*
X110991545Y-90877355D01*
X111117623Y-90804564D01*
X111220564Y-90701623D01*
X111293355Y-90575545D01*
X111331034Y-90434925D01*
X111331034Y-90289343D01*
X111293355Y-90148723D01*
X111220564Y-90022645D01*
X111117623Y-89919704D01*
X111117622Y-89919703D01*
X111117619Y-89919701D01*
X110991547Y-89846914D01*
X110991546Y-89846913D01*
X110991545Y-89846913D01*
X110850925Y-89809234D01*
X110705343Y-89809234D01*
X110564723Y-89846913D01*
X110564721Y-89846914D01*
X110564720Y-89846914D01*
X110438648Y-89919701D01*
X110438643Y-89919705D01*
X110335705Y-90022643D01*
X110335701Y-90022648D01*
X110262914Y-90148720D01*
X110262914Y-90148721D01*
X110262913Y-90148723D01*
X110225234Y-90289343D01*
X77176362Y-90289343D01*
X77194221Y-90258411D01*
X77231900Y-90117791D01*
X77231900Y-89972209D01*
X77194221Y-89831589D01*
X77121430Y-89705511D01*
X77018489Y-89602570D01*
X77018488Y-89602569D01*
X77018485Y-89602567D01*
X76892413Y-89529780D01*
X76892412Y-89529779D01*
X76892411Y-89529779D01*
X76751791Y-89492100D01*
X76606209Y-89492100D01*
X76465589Y-89529779D01*
X76465587Y-89529780D01*
X76465586Y-89529780D01*
X76339514Y-89602567D01*
X76339509Y-89602571D01*
X76236571Y-89705509D01*
X76236567Y-89705514D01*
X76163780Y-89831586D01*
X76163780Y-89831587D01*
X76163779Y-89831589D01*
X76126100Y-89972209D01*
X51050749Y-89972209D01*
X51050733Y-89595311D01*
X51050720Y-89289393D01*
X85825916Y-89289393D01*
X85825916Y-89434975D01*
X85863595Y-89575595D01*
X85863596Y-89575596D01*
X85863596Y-89575597D01*
X85936383Y-89701669D01*
X85936385Y-89701672D01*
X85936386Y-89701673D01*
X86039327Y-89804614D01*
X86039328Y-89804615D01*
X86039330Y-89804616D01*
X86086044Y-89831586D01*
X86165405Y-89877405D01*
X86306025Y-89915084D01*
X86306027Y-89915084D01*
X86451604Y-89915084D01*
X86451607Y-89915084D01*
X86592227Y-89877405D01*
X86718305Y-89804614D01*
X86821246Y-89701673D01*
X86894037Y-89575595D01*
X86931716Y-89434975D01*
X86931716Y-89309109D01*
X105082100Y-89309109D01*
X105082100Y-89454691D01*
X105119779Y-89595311D01*
X105119780Y-89595312D01*
X105119780Y-89595313D01*
X105192567Y-89721385D01*
X105192569Y-89721388D01*
X105192570Y-89721389D01*
X105295511Y-89824330D01*
X105295512Y-89824331D01*
X105295514Y-89824332D01*
X105308084Y-89831589D01*
X105421589Y-89897121D01*
X105562209Y-89934800D01*
X105562211Y-89934800D01*
X105707788Y-89934800D01*
X105707791Y-89934800D01*
X105848411Y-89897121D01*
X105974489Y-89824330D01*
X106077430Y-89721389D01*
X106150221Y-89595311D01*
X106187900Y-89454691D01*
X106187900Y-89309109D01*
X106150221Y-89168489D01*
X106077430Y-89042411D01*
X105974489Y-88939470D01*
X105974488Y-88939469D01*
X105974485Y-88939467D01*
X105848413Y-88866680D01*
X105848412Y-88866679D01*
X105848411Y-88866679D01*
X105707791Y-88829000D01*
X105562209Y-88829000D01*
X105421589Y-88866679D01*
X105421587Y-88866680D01*
X105421586Y-88866680D01*
X105295514Y-88939467D01*
X105295509Y-88939471D01*
X105192571Y-89042409D01*
X105192567Y-89042414D01*
X105119780Y-89168486D01*
X105119780Y-89168487D01*
X105119779Y-89168489D01*
X105082100Y-89309109D01*
X86931716Y-89309109D01*
X86931716Y-89289393D01*
X86894037Y-89148773D01*
X86821246Y-89022695D01*
X86718305Y-88919754D01*
X86718304Y-88919753D01*
X86718301Y-88919751D01*
X86592229Y-88846964D01*
X86592228Y-88846963D01*
X86592227Y-88846963D01*
X86451607Y-88809284D01*
X86306025Y-88809284D01*
X86165405Y-88846963D01*
X86165403Y-88846964D01*
X86165402Y-88846964D01*
X86039330Y-88919751D01*
X86039325Y-88919755D01*
X85936387Y-89022693D01*
X85936383Y-89022698D01*
X85863596Y-89148770D01*
X85863596Y-89148771D01*
X85863595Y-89148773D01*
X85825916Y-89289393D01*
X51050720Y-89289393D01*
X51050720Y-89281271D01*
X51050500Y-84185725D01*
X51051561Y-84169534D01*
X51058414Y-84117489D01*
X51064810Y-84068904D01*
X51073188Y-84037638D01*
X51108896Y-83951429D01*
X51125078Y-83923402D01*
X51181887Y-83849366D01*
X51204766Y-83826487D01*
X51278802Y-83769678D01*
X51306825Y-83753498D01*
X51393047Y-83717784D01*
X51424300Y-83709410D01*
X51512457Y-83697804D01*
X51524942Y-83696161D01*
X51541126Y-83695100D01*
X51541285Y-83695100D01*
X158458715Y-83695100D01*
X158458874Y-83695100D01*
X158475058Y-83696161D01*
G37*
G04 #@! TD.AperFunction*
M02*
