G04 #@! TF.GenerationSoftware,KiCad,Pcbnew,7.0.9*
G04 #@! TF.CreationDate,2024-01-22T22:05:04+01:00*
G04 #@! TF.ProjectId,simm72,73696d6d-3732-42e6-9b69-6361645f7063,A*
G04 #@! TF.SameCoordinates,Original*
G04 #@! TF.FileFunction,Copper,L1,Top*
G04 #@! TF.FilePolarity,Positive*
%FSLAX46Y46*%
G04 Gerber Fmt 4.6, Leading zero omitted, Abs format (unit mm)*
G04 Created by KiCad (PCBNEW 7.0.9) date 2024-01-22 22:05:04*
%MOMM*%
%LPD*%
G01*
G04 APERTURE LIST*
G04 #@! TA.AperFunction,SMDPad,CuDef*
%ADD10R,1.040000X2.540000*%
G04 #@! TD*
G04 #@! TA.AperFunction,ComponentPad*
%ADD11R,1.700000X1.700000*%
G04 #@! TD*
G04 #@! TA.AperFunction,ComponentPad*
%ADD12O,1.700000X1.700000*%
G04 #@! TD*
G04 #@! TA.AperFunction,ViaPad*
%ADD13C,0.800000*%
G04 #@! TD*
G04 #@! TA.AperFunction,Conductor*
%ADD14C,0.250000*%
G04 #@! TD*
G04 #@! TA.AperFunction,Conductor*
%ADD15C,0.406400*%
G04 #@! TD*
G04 APERTURE END LIST*
D10*
X57375000Y-113921000D03*
X58645000Y-113921000D03*
X59915000Y-113921000D03*
X61185000Y-113921000D03*
X62455000Y-113921000D03*
X63725000Y-113921000D03*
X64995000Y-113921000D03*
X66265000Y-113921000D03*
X67535000Y-113921000D03*
X68805000Y-113921000D03*
X70075000Y-113921000D03*
X71345000Y-113921000D03*
X72615000Y-113921000D03*
X73885000Y-113921000D03*
X75155000Y-113921000D03*
X76425000Y-113921000D03*
X77695000Y-113921000D03*
X78965000Y-113921000D03*
X80235000Y-113921000D03*
X81505000Y-113921000D03*
X82775000Y-113921000D03*
X84045000Y-113921000D03*
X85315000Y-113921000D03*
X86585000Y-113921000D03*
X87855000Y-113921000D03*
X89125000Y-113921000D03*
X90395000Y-113921000D03*
X91665000Y-113921000D03*
X92935000Y-113921000D03*
X94205000Y-113921000D03*
X95475000Y-113921000D03*
X96745000Y-113921000D03*
X98015000Y-113921000D03*
X99285000Y-113921000D03*
X100555000Y-113921000D03*
X101825000Y-113921000D03*
X108175000Y-113921000D03*
X109445000Y-113921000D03*
X110715000Y-113921000D03*
X111985000Y-113921000D03*
X113255000Y-113921000D03*
X114525000Y-113921000D03*
X115795000Y-113921000D03*
X117065000Y-113921000D03*
X118335000Y-113921000D03*
X119605000Y-113921000D03*
X120875000Y-113921000D03*
X122145000Y-113921000D03*
X123415000Y-113921000D03*
X124685000Y-113921000D03*
X125955000Y-113921000D03*
X127225000Y-113921000D03*
X128495000Y-113921000D03*
X129765000Y-113921000D03*
X131035000Y-113921000D03*
X132305000Y-113921000D03*
X133575000Y-113921000D03*
X134845000Y-113921000D03*
X136115000Y-113921000D03*
X137385000Y-113921000D03*
X138655000Y-113921000D03*
X139925000Y-113921000D03*
X141195000Y-113921000D03*
X142465000Y-113921000D03*
X143735000Y-113921000D03*
X145005000Y-113921000D03*
X146275000Y-113921000D03*
X147545000Y-113921000D03*
X148815000Y-113921000D03*
X150085000Y-113921000D03*
X151355000Y-113921000D03*
X152625000Y-113921000D03*
D11*
X55485000Y-91955000D03*
D12*
X55485000Y-89415000D03*
X58025000Y-91955000D03*
X58025000Y-89415000D03*
X60565000Y-91955000D03*
X60565000Y-89415000D03*
X63105000Y-91955000D03*
X63105000Y-89415000D03*
X65645000Y-91955000D03*
X65645000Y-89415000D03*
X68185000Y-91955000D03*
X68185000Y-89415000D03*
X70725000Y-91955000D03*
X70725000Y-89415000D03*
X73265000Y-91955000D03*
X73265000Y-89415000D03*
D11*
X80885000Y-91955000D03*
D12*
X80885000Y-89415000D03*
X83425000Y-91955000D03*
X83425000Y-89415000D03*
X85965000Y-91955000D03*
X85965000Y-89415000D03*
X88505000Y-91955000D03*
X88505000Y-89415000D03*
X91045000Y-91955000D03*
X91045000Y-89415000D03*
X93585000Y-91955000D03*
X93585000Y-89415000D03*
X96125000Y-91955000D03*
X96125000Y-89415000D03*
X98665000Y-91955000D03*
X98665000Y-89415000D03*
D11*
X135480000Y-91955000D03*
D12*
X135480000Y-89415000D03*
X138020000Y-91955000D03*
X138020000Y-89415000D03*
X140560000Y-91955000D03*
X140560000Y-89415000D03*
X143100000Y-91955000D03*
X143100000Y-89415000D03*
X145640000Y-91955000D03*
X145640000Y-89415000D03*
X148180000Y-91955000D03*
X148180000Y-89415000D03*
X150720000Y-91955000D03*
X150720000Y-89415000D03*
X153260000Y-91955000D03*
X153260000Y-89415000D03*
D11*
X110080000Y-91955000D03*
D12*
X110080000Y-89415000D03*
X112620000Y-91955000D03*
X112620000Y-89415000D03*
X115160000Y-91955000D03*
X115160000Y-89415000D03*
X117700000Y-91955000D03*
X117700000Y-89415000D03*
X120240000Y-91955000D03*
X120240000Y-89415000D03*
X122780000Y-91955000D03*
X122780000Y-89415000D03*
X125320000Y-91955000D03*
X125320000Y-89415000D03*
X127860000Y-91955000D03*
X127860000Y-89415000D03*
D13*
X57375000Y-112854200D03*
X152625000Y-112854200D03*
X113949201Y-99256799D03*
X58645000Y-112854200D03*
X116525000Y-100713000D03*
X59915000Y-112854200D03*
X61185000Y-112854200D03*
X119065000Y-100840000D03*
X121605000Y-100840000D03*
X62455000Y-112854200D03*
X63725000Y-112854200D03*
X123161000Y-100840000D03*
X124304000Y-100840000D03*
X64995000Y-112854200D03*
X66265000Y-112854200D03*
X67535000Y-112854200D03*
X138655000Y-112854200D03*
X137385000Y-112854200D03*
X136115000Y-112854200D03*
X128495000Y-112854200D03*
X149450000Y-94998000D03*
X68805000Y-112854200D03*
X131670000Y-93601000D03*
X115160000Y-101475000D03*
X73250000Y-103253000D03*
X68932000Y-106174000D03*
X61566000Y-104396000D03*
X76806000Y-88775000D03*
X91665000Y-112854200D03*
X117446000Y-103126000D03*
X120240000Y-101475000D03*
X132178000Y-88521000D03*
X107667000Y-111000000D03*
X108175000Y-112854200D03*
X139925000Y-112854200D03*
X119605000Y-111381000D03*
X120113000Y-107190000D03*
X128495000Y-111127000D03*
X59407000Y-99570000D03*
X92173000Y-106047000D03*
X144370000Y-100332000D03*
X146402000Y-108333000D03*
X150974000Y-108460000D03*
X119605000Y-112854200D03*
X80235000Y-112854200D03*
X80235000Y-101805200D03*
X70075000Y-112854200D03*
X92917201Y-103743201D03*
X70075000Y-106904700D03*
X71345000Y-112854200D03*
X93697000Y-101221000D03*
X71345000Y-106180200D03*
X72615000Y-112854200D03*
X72615000Y-105455700D03*
X91792000Y-101094000D03*
X73885000Y-112854200D03*
X73885000Y-104650000D03*
X89252000Y-101856000D03*
X75155000Y-103634000D03*
X75155000Y-112854200D03*
X87537500Y-101665500D03*
X76425000Y-112854200D03*
X85965000Y-101221000D03*
X76425000Y-102999000D03*
X77695000Y-112854200D03*
X78965000Y-112854200D03*
X81505000Y-99062000D03*
X81505000Y-112854200D03*
X73265000Y-99024500D03*
X82775000Y-112854200D03*
X70725000Y-98262500D03*
X82775000Y-98300000D03*
X68185000Y-97500500D03*
X84045000Y-112854200D03*
X84045000Y-97538000D03*
X85315000Y-112854200D03*
X85188000Y-96776000D03*
X65645000Y-96738500D03*
X86585000Y-112854200D03*
X86839000Y-96014000D03*
X63105000Y-95939000D03*
X88325500Y-95214500D03*
X87855000Y-112854200D03*
X60565000Y-95214500D03*
X58025000Y-94490000D03*
X90776000Y-94490000D03*
X89125000Y-112854200D03*
X90395000Y-112854200D03*
X93443000Y-95506000D03*
X92935000Y-112854200D03*
X94205000Y-112854200D03*
X95475000Y-112854200D03*
X96745000Y-112854200D03*
X98015000Y-112854200D03*
X99285000Y-112854200D03*
X100555000Y-112854200D03*
X101825000Y-112854200D03*
X109445000Y-112854200D03*
X110715000Y-112854200D03*
X111985000Y-112854200D03*
X113255000Y-112854200D03*
X114525000Y-112854200D03*
X115795000Y-112854200D03*
X117065000Y-112854200D03*
X118335000Y-112854200D03*
X120875000Y-112854200D03*
X122145000Y-112854200D03*
X123415000Y-112854200D03*
X127292800Y-95319800D03*
X122780000Y-94236000D03*
X120240000Y-94236000D03*
X124685000Y-112854200D03*
X128749000Y-96141000D03*
X125955000Y-112854200D03*
X130146000Y-97157000D03*
X117700000Y-94236000D03*
X115160000Y-94236000D03*
X127225000Y-112854200D03*
X131670000Y-98046000D03*
X129765000Y-112854200D03*
X132940000Y-98935000D03*
X112620000Y-94236000D03*
X134083000Y-99951000D03*
X110080000Y-94363000D03*
X131035000Y-112854200D03*
X132305000Y-112854200D03*
X133575000Y-112854200D03*
X134845000Y-112854200D03*
X141195000Y-112854200D03*
X142465000Y-112854200D03*
X143735000Y-112854200D03*
X145005000Y-112854200D03*
X147545000Y-112854200D03*
X148815000Y-112854200D03*
X146275000Y-112854200D03*
X150085000Y-112854200D03*
X151355000Y-112854200D03*
D14*
X80235000Y-101805200D02*
X80235000Y-112854200D01*
D15*
X135480000Y-91955000D02*
X136755000Y-90680000D01*
X136755000Y-90680000D02*
X153895000Y-90680000D01*
X153895000Y-90680000D02*
X154682400Y-91467400D01*
X154682400Y-91467400D02*
X154682400Y-101957600D01*
X152625000Y-104015000D02*
X152625000Y-112854200D01*
X154682400Y-101957600D02*
X152625000Y-104015000D01*
D14*
X113985000Y-90590000D02*
X115160000Y-89415000D01*
X113949201Y-99256799D02*
X113985000Y-99221000D01*
X113985000Y-99221000D02*
X113985000Y-90590000D01*
X116525000Y-90590000D02*
X117700000Y-89415000D01*
X116525000Y-100713000D02*
X116525000Y-90590000D01*
X119065000Y-90590000D02*
X120240000Y-89415000D01*
X119065000Y-100840000D02*
X119065000Y-90590000D01*
X121605000Y-90590000D02*
X122780000Y-89415000D01*
X121605000Y-100840000D02*
X121605000Y-90590000D01*
X124145000Y-90590000D02*
X125320000Y-89415000D01*
X124145000Y-99856000D02*
X124145000Y-90590000D01*
X123161000Y-100840000D02*
X124145000Y-99856000D01*
X124812000Y-94617000D02*
X126590000Y-92839000D01*
X124304000Y-100840000D02*
X124812000Y-100332000D01*
X127860000Y-90045000D02*
X127860000Y-89415000D01*
X126590000Y-91315000D02*
X127860000Y-90045000D01*
X126590000Y-92839000D02*
X126590000Y-91315000D01*
X124812000Y-100332000D02*
X124812000Y-94617000D01*
X108175000Y-111508000D02*
X107667000Y-111000000D01*
X110080000Y-89415000D02*
X112620000Y-89415000D01*
X119605000Y-112854200D02*
X119605000Y-111381000D01*
X139925000Y-112854200D02*
X139925000Y-104015000D01*
X108175000Y-112854200D02*
X108175000Y-111508000D01*
X128965000Y-87790000D02*
X134395000Y-93220000D01*
X139925000Y-104015000D02*
X138020000Y-102110000D01*
X68805000Y-112854200D02*
X68805000Y-106301000D01*
X112620000Y-89415000D02*
X114245000Y-87790000D01*
X114245000Y-87790000D02*
X128965000Y-87790000D01*
X68805000Y-106301000D02*
X68932000Y-106174000D01*
X136755000Y-93220000D02*
X138020000Y-91955000D01*
X138020000Y-102110000D02*
X138020000Y-91955000D01*
X128495000Y-112854200D02*
X128495000Y-111127000D01*
X134395000Y-93220000D02*
X136755000Y-93220000D01*
X91665000Y-112854200D02*
X91665000Y-106555000D01*
X91665000Y-106555000D02*
X92173000Y-106047000D01*
X92917201Y-103651799D02*
X98665000Y-97904000D01*
X92917201Y-103743201D02*
X92917201Y-103651799D01*
X98665000Y-97904000D02*
X98665000Y-91955000D01*
X70075000Y-106904700D02*
X70075000Y-112854200D01*
X71345000Y-106180200D02*
X71345000Y-112854200D01*
X93697000Y-101094000D02*
X96125000Y-98666000D01*
X93697000Y-101221000D02*
X93697000Y-101094000D01*
X96125000Y-98666000D02*
X96125000Y-91955000D01*
X91792000Y-101094000D02*
X91792000Y-94871000D01*
X72615000Y-105455700D02*
X72615000Y-112854200D01*
X91792000Y-94871000D02*
X93585000Y-93078000D01*
X93585000Y-93078000D02*
X93585000Y-91955000D01*
X89252000Y-101856000D02*
X89760000Y-101348000D01*
X73885000Y-104650000D02*
X73885000Y-112854200D01*
X89760000Y-101348000D02*
X89760000Y-94363000D01*
X91045000Y-93078000D02*
X91045000Y-91955000D01*
X89760000Y-94363000D02*
X91045000Y-93078000D01*
X87537500Y-101665500D02*
X87601000Y-101602000D01*
X75155000Y-103634000D02*
X75155000Y-112854200D01*
X87601000Y-101602000D02*
X87601000Y-92859000D01*
X87601000Y-92859000D02*
X88505000Y-91955000D01*
X85965000Y-101221000D02*
X85965000Y-91955000D01*
X76425000Y-102999000D02*
X76425000Y-112854200D01*
X83425000Y-94094000D02*
X77695000Y-99824000D01*
X83425000Y-91955000D02*
X83425000Y-94094000D01*
X77695000Y-99824000D02*
X77695000Y-112854200D01*
X84600000Y-91235000D02*
X84600000Y-94189000D01*
X82250000Y-90590000D02*
X83955000Y-90590000D01*
X78965000Y-99824000D02*
X78965000Y-112854200D01*
X84600000Y-94189000D02*
X78965000Y-99824000D01*
X80885000Y-91955000D02*
X82250000Y-90590000D01*
X83955000Y-90590000D02*
X84600000Y-91235000D01*
X73265000Y-99024500D02*
X73265000Y-91955000D01*
X81505000Y-112854200D02*
X81505000Y-99062000D01*
X82775000Y-112854200D02*
X82775000Y-98300000D01*
X70725000Y-98262500D02*
X70725000Y-91955000D01*
X68185000Y-97500500D02*
X68185000Y-91955000D01*
X84045000Y-97538000D02*
X84045000Y-112854200D01*
X65645000Y-96738500D02*
X65645000Y-91955000D01*
X85315000Y-112854200D02*
X85240000Y-112779200D01*
X85240000Y-112779200D02*
X85240000Y-96828000D01*
X85240000Y-96828000D02*
X85188000Y-96776000D01*
X86812500Y-112626700D02*
X86812500Y-96040500D01*
X86812500Y-96040500D02*
X86839000Y-96014000D01*
X86585000Y-112854200D02*
X86812500Y-112626700D01*
X63105000Y-95939000D02*
X63105000Y-91955000D01*
X88490000Y-102364000D02*
X88490000Y-95379000D01*
X87855000Y-112854200D02*
X87855000Y-102999000D01*
X88490000Y-95379000D02*
X88325500Y-95214500D01*
X87855000Y-102999000D02*
X88490000Y-102364000D01*
X60565000Y-95214500D02*
X60565000Y-91955000D01*
X89125000Y-112854200D02*
X89125000Y-103634000D01*
X89125000Y-103634000D02*
X90776000Y-101983000D01*
X58025000Y-94490000D02*
X58025000Y-91955000D01*
X90776000Y-101983000D02*
X90776000Y-94490000D01*
X92591000Y-101946000D02*
X90395000Y-104142000D01*
X90395000Y-104142000D02*
X90395000Y-112854200D01*
X92591000Y-100295000D02*
X92591000Y-101946000D01*
X93443000Y-99443000D02*
X92591000Y-100295000D01*
X93443000Y-95506000D02*
X93443000Y-99443000D01*
X99671000Y-89415000D02*
X101063000Y-90807000D01*
X98665000Y-89415000D02*
X99671000Y-89415000D01*
X101063000Y-90807000D02*
X101063000Y-101338228D01*
X101063000Y-101338228D02*
X92935000Y-109466228D01*
X92935000Y-109466228D02*
X92935000Y-112854200D01*
X99385000Y-88240000D02*
X101513000Y-90368000D01*
X101513000Y-101524624D02*
X94205000Y-108832624D01*
X94205000Y-108832624D02*
X94205000Y-112854200D01*
X96125000Y-89415000D02*
X97300000Y-88240000D01*
X97300000Y-88240000D02*
X99385000Y-88240000D01*
X101513000Y-90368000D02*
X101513000Y-101524624D01*
X95210000Y-87790000D02*
X99571396Y-87790000D01*
X101963000Y-101711020D02*
X95475000Y-108199020D01*
X101963000Y-90181604D02*
X101963000Y-101711020D01*
X93585000Y-89415000D02*
X95210000Y-87790000D01*
X99571396Y-87790000D02*
X101963000Y-90181604D01*
X95475000Y-108199020D02*
X95475000Y-112854200D01*
X91045000Y-89415000D02*
X93209000Y-87251000D01*
X99668792Y-87251000D02*
X102413000Y-89995208D01*
X102413000Y-101897416D02*
X96745000Y-107565416D01*
X93209000Y-87251000D02*
X99668792Y-87251000D01*
X102413000Y-89995208D02*
X102413000Y-101897416D01*
X96745000Y-107565416D02*
X96745000Y-112854200D01*
X88505000Y-89415000D02*
X91119000Y-86801000D01*
X102863000Y-89808812D02*
X102863000Y-102083812D01*
X102863000Y-102083812D02*
X98015000Y-106931812D01*
X91119000Y-86801000D02*
X99855188Y-86801000D01*
X99855188Y-86801000D02*
X102863000Y-89808812D01*
X98015000Y-106931812D02*
X98015000Y-112854200D01*
X99285000Y-106298208D02*
X99285000Y-112854200D01*
X103313000Y-89622416D02*
X103313000Y-102270208D01*
X85965000Y-89415000D02*
X89029000Y-86351000D01*
X89029000Y-86351000D02*
X100041584Y-86351000D01*
X100041584Y-86351000D02*
X103313000Y-89622416D01*
X103313000Y-102270208D02*
X99285000Y-106298208D01*
X103763000Y-102456604D02*
X103763000Y-89436020D01*
X86939000Y-85901000D02*
X83425000Y-89415000D01*
X100227980Y-85901000D02*
X86939000Y-85901000D01*
X100555000Y-112854200D02*
X100555000Y-105664604D01*
X103763000Y-89436020D02*
X100227980Y-85901000D01*
X100555000Y-105664604D02*
X103763000Y-102456604D01*
X84849000Y-85451000D02*
X100414376Y-85451000D01*
X104213000Y-102643000D02*
X101825000Y-105031000D01*
X100414376Y-85451000D02*
X104213000Y-89249624D01*
X104213000Y-89249624D02*
X104213000Y-102643000D01*
X101825000Y-105031000D02*
X101825000Y-112854200D01*
X80885000Y-89415000D02*
X84849000Y-85451000D01*
X105152000Y-89552228D02*
X105152000Y-103795772D01*
X73265000Y-88760000D02*
X77024000Y-85001000D01*
X100600772Y-85001000D02*
X105152000Y-89552228D01*
X109445000Y-108088772D02*
X109445000Y-112854200D01*
X73265000Y-89415000D02*
X73265000Y-88760000D01*
X105152000Y-103795772D02*
X109445000Y-108088772D01*
X77024000Y-85001000D02*
X100600772Y-85001000D01*
X74680000Y-84551000D02*
X70725000Y-88506000D01*
X110715000Y-108722376D02*
X105602000Y-103609376D01*
X105602000Y-89365832D02*
X100787168Y-84551000D01*
X70725000Y-88506000D02*
X70725000Y-89415000D01*
X110715000Y-112854200D02*
X110715000Y-108722376D01*
X100787168Y-84551000D02*
X74680000Y-84551000D01*
X105602000Y-103609376D02*
X105602000Y-89365832D01*
X106052000Y-89179436D02*
X100973564Y-84101000D01*
X68185000Y-86855000D02*
X68185000Y-89415000D01*
X111985000Y-109355980D02*
X106052000Y-103422980D01*
X106052000Y-103422980D02*
X106052000Y-89179436D01*
X70939000Y-84101000D02*
X68185000Y-86855000D01*
X111985000Y-112854200D02*
X111985000Y-109355980D01*
X100973564Y-84101000D02*
X70939000Y-84101000D01*
X106502000Y-88993040D02*
X106502000Y-103236584D01*
X69357000Y-83651000D02*
X101159960Y-83651000D01*
X65645000Y-89415000D02*
X65645000Y-87363000D01*
X113255000Y-109989584D02*
X113255000Y-112854200D01*
X65645000Y-87363000D02*
X69357000Y-83651000D01*
X101159960Y-83651000D02*
X106502000Y-88993040D01*
X106502000Y-103236584D02*
X113255000Y-109989584D01*
X106952000Y-88806644D02*
X101346356Y-83201000D01*
X106952000Y-103050188D02*
X106952000Y-88806644D01*
X114525000Y-110623188D02*
X106952000Y-103050188D01*
X63105000Y-87744000D02*
X63105000Y-89415000D01*
X101346356Y-83201000D02*
X67648000Y-83201000D01*
X114525000Y-112854200D02*
X114525000Y-110623188D01*
X67648000Y-83201000D02*
X63105000Y-87744000D01*
X115795000Y-111256792D02*
X115795000Y-112854200D01*
X60565000Y-89415000D02*
X60565000Y-88506000D01*
X66320000Y-82751000D02*
X101532752Y-82751000D01*
X60565000Y-88506000D02*
X66320000Y-82751000D01*
X107402000Y-102863792D02*
X115795000Y-111256792D01*
X107402000Y-88620248D02*
X107402000Y-102863792D01*
X101532752Y-82751000D02*
X107402000Y-88620248D01*
X117065000Y-111890396D02*
X107852000Y-102677396D01*
X65139000Y-82301000D02*
X58025000Y-89415000D01*
X117065000Y-112854200D02*
X117065000Y-111890396D01*
X107852000Y-88433852D02*
X101719148Y-82301000D01*
X101719148Y-82301000D02*
X65139000Y-82301000D01*
X107852000Y-102677396D02*
X107852000Y-88433852D01*
X118335000Y-112524000D02*
X118335000Y-112854200D01*
X108302000Y-102491000D02*
X118335000Y-112524000D01*
X108302000Y-88247456D02*
X108302000Y-102491000D01*
X64952604Y-81851000D02*
X101905544Y-81851000D01*
X101905544Y-81851000D02*
X108302000Y-88247456D01*
X57268000Y-87632000D02*
X59171604Y-87632000D01*
X55485000Y-89415000D02*
X57268000Y-87632000D01*
X59171604Y-87632000D02*
X64952604Y-81851000D01*
X127860000Y-91955000D02*
X127860000Y-92712000D01*
X125320000Y-95252000D02*
X125320000Y-104523000D01*
X125320000Y-104523000D02*
X120875000Y-108968000D01*
X120875000Y-108968000D02*
X120875000Y-112854200D01*
X127860000Y-92712000D02*
X125320000Y-95252000D01*
X122145000Y-109222000D02*
X122145000Y-112854200D01*
X125320000Y-91188000D02*
X126685000Y-89823000D01*
X127373299Y-88240000D02*
X128468000Y-88240000D01*
X126685000Y-88928299D02*
X127373299Y-88240000D01*
X126209000Y-105158000D02*
X122145000Y-109222000D01*
X129384000Y-89156000D02*
X129384000Y-92204000D01*
X126209000Y-95379000D02*
X126209000Y-105158000D01*
X128468000Y-88240000D02*
X129384000Y-89156000D01*
X126685000Y-89823000D02*
X126685000Y-88928299D01*
X129384000Y-92204000D02*
X126209000Y-95379000D01*
X125320000Y-91955000D02*
X125320000Y-91188000D01*
X127225000Y-95387600D02*
X127225000Y-105285000D01*
X122780000Y-91955000D02*
X122780000Y-94236000D01*
X123415000Y-109095000D02*
X123415000Y-112854200D01*
X127292800Y-95319800D02*
X127225000Y-95387600D01*
X127225000Y-105285000D02*
X123415000Y-109095000D01*
X120240000Y-94236000D02*
X120240000Y-91955000D01*
X128495000Y-96395000D02*
X128495000Y-105285000D01*
X128495000Y-105285000D02*
X124685000Y-109095000D01*
X128749000Y-96141000D02*
X128495000Y-96395000D01*
X124685000Y-109095000D02*
X124685000Y-112854200D01*
X130146000Y-104904000D02*
X125955000Y-109095000D01*
X117700000Y-91955000D02*
X117700000Y-94236000D01*
X125955000Y-109095000D02*
X125955000Y-112854200D01*
X130146000Y-97157000D02*
X130146000Y-104904000D01*
X115160000Y-91955000D02*
X115160000Y-94236000D01*
X131670000Y-106682000D02*
X127225000Y-111127000D01*
X131670000Y-98046000D02*
X131670000Y-106682000D01*
X127225000Y-111127000D02*
X127225000Y-112854200D01*
X132940000Y-107952000D02*
X129765000Y-111127000D01*
X132940000Y-98935000D02*
X132940000Y-107952000D01*
X112620000Y-91955000D02*
X112620000Y-94236000D01*
X129765000Y-111127000D02*
X129765000Y-112854200D01*
X131035000Y-111127000D02*
X131035000Y-112854200D01*
X134083000Y-99951000D02*
X134210000Y-100078000D01*
X134210000Y-100078000D02*
X134210000Y-107952000D01*
X110080000Y-91955000D02*
X110080000Y-94363000D01*
X134210000Y-107952000D02*
X131035000Y-111127000D01*
X140560000Y-100840000D02*
X141195000Y-101475000D01*
X140560000Y-91955000D02*
X140560000Y-100840000D01*
X141195000Y-101475000D02*
X141195000Y-112854200D01*
X143100000Y-100840000D02*
X143100000Y-91955000D01*
X142465000Y-101475000D02*
X143100000Y-100840000D01*
X142465000Y-113921000D02*
X142465000Y-101475000D01*
X143735000Y-103380000D02*
X143735000Y-113921000D01*
X145640000Y-101475000D02*
X143735000Y-103380000D01*
X145640000Y-91955000D02*
X145640000Y-101475000D01*
X148180000Y-102110000D02*
X148180000Y-91955000D01*
X145005000Y-105285000D02*
X148180000Y-102110000D01*
X145005000Y-112854200D02*
X145005000Y-105285000D01*
X150720000Y-102745000D02*
X147545000Y-105920000D01*
X147545000Y-105920000D02*
X147545000Y-112854200D01*
X150720000Y-91955000D02*
X150720000Y-102745000D01*
X148815000Y-112854200D02*
X148815000Y-105920000D01*
X148815000Y-105920000D02*
X153260000Y-101475000D01*
X153260000Y-101475000D02*
X153260000Y-91955000D01*
G04 #@! TA.AperFunction,Conductor*
G36*
X158471032Y-81181030D02*
G01*
X158575697Y-81194810D01*
X158606954Y-81203184D01*
X158693170Y-81238896D01*
X158721200Y-81255080D01*
X158795229Y-81311884D01*
X158818115Y-81334770D01*
X158850799Y-81377365D01*
X158874919Y-81408799D01*
X158891103Y-81436830D01*
X158926813Y-81523040D01*
X158935189Y-81554305D01*
X158945272Y-81630889D01*
X158948969Y-81658965D01*
X158949500Y-81667067D01*
X158949500Y-84172529D01*
X158950300Y-102739928D01*
X158950300Y-114806518D01*
X158949910Y-114813465D01*
X158936583Y-114931742D01*
X158930405Y-114958813D01*
X158894557Y-115061261D01*
X158882508Y-115086280D01*
X158824757Y-115178189D01*
X158807445Y-115199897D01*
X158730697Y-115276645D01*
X158708989Y-115293957D01*
X158617080Y-115351708D01*
X158592062Y-115363756D01*
X158545578Y-115380022D01*
X158489613Y-115399605D01*
X158462543Y-115405783D01*
X158418775Y-115410714D01*
X158344256Y-115419110D01*
X158337319Y-115419500D01*
X153561800Y-115419500D01*
X153494761Y-115399815D01*
X153449006Y-115347011D01*
X153437800Y-115295500D01*
X153437800Y-112371600D01*
X153152700Y-112371600D01*
X153085661Y-112351915D01*
X153039906Y-112299111D01*
X153028700Y-112247600D01*
X153028700Y-105285000D01*
X153875505Y-105285000D01*
X153895456Y-105538504D01*
X153954817Y-105785760D01*
X153954817Y-105785761D01*
X154052125Y-106020685D01*
X154052127Y-106020688D01*
X154184988Y-106237497D01*
X154184989Y-106237500D01*
X154184992Y-106237503D01*
X154350137Y-106430863D01*
X154486319Y-106547173D01*
X154543499Y-106596010D01*
X154543502Y-106596011D01*
X154760311Y-106728872D01*
X154760314Y-106728874D01*
X154995239Y-106826182D01*
X155133635Y-106859408D01*
X155242499Y-106885544D01*
X155496000Y-106905495D01*
X155749501Y-106885544D01*
X155996760Y-106826182D01*
X155996761Y-106826182D01*
X156231685Y-106728874D01*
X156231686Y-106728873D01*
X156231689Y-106728872D01*
X156448503Y-106596008D01*
X156641863Y-106430863D01*
X156807008Y-106237503D01*
X156939872Y-106020689D01*
X156939874Y-106020685D01*
X157037182Y-105785761D01*
X157037182Y-105785760D01*
X157055960Y-105707545D01*
X157096544Y-105538501D01*
X157116495Y-105285000D01*
X157096544Y-105031499D01*
X157072455Y-104931163D01*
X157037182Y-104784239D01*
X157037182Y-104784238D01*
X156939874Y-104549314D01*
X156939872Y-104549311D01*
X156915042Y-104508793D01*
X156807010Y-104332501D01*
X156807010Y-104332499D01*
X156722525Y-104233580D01*
X156641863Y-104139137D01*
X156507009Y-104023961D01*
X156448500Y-103973989D01*
X156448497Y-103973988D01*
X156231688Y-103841127D01*
X156231685Y-103841125D01*
X155996760Y-103743817D01*
X155749504Y-103684456D01*
X155496000Y-103664505D01*
X155242495Y-103684456D01*
X154995239Y-103743817D01*
X154995238Y-103743817D01*
X154760314Y-103841125D01*
X154760311Y-103841127D01*
X154543502Y-103973988D01*
X154543499Y-103973989D01*
X154350137Y-104139137D01*
X154184989Y-104332499D01*
X154184988Y-104332502D01*
X154052127Y-104549311D01*
X154052125Y-104549314D01*
X153954817Y-104784238D01*
X153954817Y-104784239D01*
X153895456Y-105031495D01*
X153875505Y-105285000D01*
X153028700Y-105285000D01*
X153028700Y-104233580D01*
X153048385Y-104166541D01*
X153065019Y-104145899D01*
X154025731Y-103185187D01*
X154990324Y-102220594D01*
X155013071Y-102197847D01*
X155023246Y-102177875D01*
X155033405Y-102161296D01*
X155046583Y-102143160D01*
X155053508Y-102121844D01*
X155060954Y-102103868D01*
X155071127Y-102083905D01*
X155074633Y-102061768D01*
X155079175Y-102042851D01*
X155086099Y-102021541D01*
X155086100Y-102021539D01*
X155086100Y-101893661D01*
X155086100Y-91435630D01*
X155086100Y-91403461D01*
X155079170Y-91382134D01*
X155074633Y-91363233D01*
X155071127Y-91341095D01*
X155060950Y-91321122D01*
X155053505Y-91303145D01*
X155046584Y-91281842D01*
X155046582Y-91281839D01*
X155033409Y-91263707D01*
X155023246Y-91247124D01*
X155013071Y-91227153D01*
X154922647Y-91136729D01*
X154157994Y-90372076D01*
X154135247Y-90349329D01*
X154135246Y-90349328D01*
X154135245Y-90349327D01*
X154115276Y-90339152D01*
X154098692Y-90328989D01*
X154080562Y-90315818D01*
X154076274Y-90313633D01*
X154025478Y-90265659D01*
X154008682Y-90197839D01*
X154031219Y-90131703D01*
X154036715Y-90124483D01*
X154057852Y-90098727D01*
X154137685Y-90001450D01*
X154235232Y-89818954D01*
X154295300Y-89620934D01*
X154315583Y-89415000D01*
X154295300Y-89209066D01*
X154235232Y-89011046D01*
X154137685Y-88828550D01*
X154056833Y-88730031D01*
X154006410Y-88668589D01*
X153865733Y-88553140D01*
X153846450Y-88537315D01*
X153663954Y-88439768D01*
X153465934Y-88379700D01*
X153465932Y-88379699D01*
X153465934Y-88379699D01*
X153260000Y-88359417D01*
X153054067Y-88379699D01*
X152902917Y-88425550D01*
X152856050Y-88439767D01*
X152856043Y-88439769D01*
X152783743Y-88478415D01*
X152673550Y-88537315D01*
X152673548Y-88537316D01*
X152673547Y-88537317D01*
X152513589Y-88668589D01*
X152382317Y-88828547D01*
X152284769Y-89011043D01*
X152224699Y-89209067D01*
X152204417Y-89415000D01*
X152224699Y-89620932D01*
X152232096Y-89645315D01*
X152284766Y-89818948D01*
X152284769Y-89818956D01*
X152295992Y-89839952D01*
X152382287Y-90001398D01*
X152382317Y-90001453D01*
X152441555Y-90073635D01*
X152468868Y-90137945D01*
X152457077Y-90206813D01*
X152409925Y-90258373D01*
X152345702Y-90276300D01*
X151634298Y-90276300D01*
X151567259Y-90256615D01*
X151521504Y-90203811D01*
X151511560Y-90134653D01*
X151538445Y-90073635D01*
X151569778Y-90035455D01*
X151597685Y-90001450D01*
X151695232Y-89818954D01*
X151755300Y-89620934D01*
X151775583Y-89415000D01*
X151755300Y-89209066D01*
X151695232Y-89011046D01*
X151597685Y-88828550D01*
X151516833Y-88730031D01*
X151466410Y-88668589D01*
X151325733Y-88553140D01*
X151306450Y-88537315D01*
X151123954Y-88439768D01*
X150925934Y-88379700D01*
X150925932Y-88379699D01*
X150925934Y-88379699D01*
X150720000Y-88359417D01*
X150514067Y-88379699D01*
X150362917Y-88425550D01*
X150316050Y-88439767D01*
X150316043Y-88439769D01*
X150243743Y-88478415D01*
X150133550Y-88537315D01*
X150133548Y-88537316D01*
X150133547Y-88537317D01*
X149973589Y-88668589D01*
X149842317Y-88828547D01*
X149744769Y-89011043D01*
X149684699Y-89209067D01*
X149664417Y-89415000D01*
X149684699Y-89620932D01*
X149692096Y-89645315D01*
X149744766Y-89818948D01*
X149744769Y-89818956D01*
X149755992Y-89839952D01*
X149842287Y-90001398D01*
X149842317Y-90001453D01*
X149901555Y-90073635D01*
X149928868Y-90137945D01*
X149917077Y-90206813D01*
X149869925Y-90258373D01*
X149805702Y-90276300D01*
X149094298Y-90276300D01*
X149027259Y-90256615D01*
X148981504Y-90203811D01*
X148971560Y-90134653D01*
X148998445Y-90073635D01*
X149029778Y-90035455D01*
X149057685Y-90001450D01*
X149155232Y-89818954D01*
X149215300Y-89620934D01*
X149235583Y-89415000D01*
X149215300Y-89209066D01*
X149155232Y-89011046D01*
X149057685Y-88828550D01*
X148976833Y-88730031D01*
X148926410Y-88668589D01*
X148785733Y-88553140D01*
X148766450Y-88537315D01*
X148583954Y-88439768D01*
X148385934Y-88379700D01*
X148385932Y-88379699D01*
X148385934Y-88379699D01*
X148180000Y-88359417D01*
X147974067Y-88379699D01*
X147822917Y-88425550D01*
X147776050Y-88439767D01*
X147776043Y-88439769D01*
X147703743Y-88478415D01*
X147593550Y-88537315D01*
X147593548Y-88537316D01*
X147593547Y-88537317D01*
X147433589Y-88668589D01*
X147302317Y-88828547D01*
X147204769Y-89011043D01*
X147144699Y-89209067D01*
X147124417Y-89415000D01*
X147144699Y-89620932D01*
X147152096Y-89645315D01*
X147204766Y-89818948D01*
X147204769Y-89818956D01*
X147215992Y-89839952D01*
X147302287Y-90001398D01*
X147302317Y-90001453D01*
X147361555Y-90073635D01*
X147388868Y-90137945D01*
X147377077Y-90206813D01*
X147329925Y-90258373D01*
X147265702Y-90276300D01*
X146554298Y-90276300D01*
X146487259Y-90256615D01*
X146441504Y-90203811D01*
X146431560Y-90134653D01*
X146458445Y-90073635D01*
X146489778Y-90035455D01*
X146517685Y-90001450D01*
X146615232Y-89818954D01*
X146675300Y-89620934D01*
X146695583Y-89415000D01*
X146675300Y-89209066D01*
X146615232Y-89011046D01*
X146517685Y-88828550D01*
X146436833Y-88730031D01*
X146386410Y-88668589D01*
X146245733Y-88553140D01*
X146226450Y-88537315D01*
X146043954Y-88439768D01*
X145845934Y-88379700D01*
X145845932Y-88379699D01*
X145845934Y-88379699D01*
X145640000Y-88359417D01*
X145434067Y-88379699D01*
X145282917Y-88425550D01*
X145236050Y-88439767D01*
X145236043Y-88439769D01*
X145163743Y-88478415D01*
X145053550Y-88537315D01*
X145053548Y-88537316D01*
X145053547Y-88537317D01*
X144893589Y-88668589D01*
X144762317Y-88828547D01*
X144664769Y-89011043D01*
X144604699Y-89209067D01*
X144584417Y-89415000D01*
X144604699Y-89620932D01*
X144612096Y-89645315D01*
X144664766Y-89818948D01*
X144664769Y-89818956D01*
X144675992Y-89839952D01*
X144762287Y-90001398D01*
X144762317Y-90001453D01*
X144821555Y-90073635D01*
X144848868Y-90137945D01*
X144837077Y-90206813D01*
X144789925Y-90258373D01*
X144725702Y-90276300D01*
X144014298Y-90276300D01*
X143947259Y-90256615D01*
X143901504Y-90203811D01*
X143891560Y-90134653D01*
X143918445Y-90073635D01*
X143949778Y-90035455D01*
X143977685Y-90001450D01*
X144075232Y-89818954D01*
X144135300Y-89620934D01*
X144155583Y-89415000D01*
X144135300Y-89209066D01*
X144075232Y-89011046D01*
X143977685Y-88828550D01*
X143896833Y-88730031D01*
X143846410Y-88668589D01*
X143705733Y-88553140D01*
X143686450Y-88537315D01*
X143503954Y-88439768D01*
X143305934Y-88379700D01*
X143305932Y-88379699D01*
X143305934Y-88379699D01*
X143100000Y-88359417D01*
X142894067Y-88379699D01*
X142742917Y-88425550D01*
X142696050Y-88439767D01*
X142696043Y-88439769D01*
X142623743Y-88478415D01*
X142513550Y-88537315D01*
X142513548Y-88537316D01*
X142513547Y-88537317D01*
X142353589Y-88668589D01*
X142222317Y-88828547D01*
X142124769Y-89011043D01*
X142064699Y-89209067D01*
X142044417Y-89415000D01*
X142064699Y-89620932D01*
X142072096Y-89645315D01*
X142124766Y-89818948D01*
X142124769Y-89818956D01*
X142135992Y-89839952D01*
X142222287Y-90001398D01*
X142222317Y-90001453D01*
X142281555Y-90073635D01*
X142308868Y-90137945D01*
X142297077Y-90206813D01*
X142249925Y-90258373D01*
X142185702Y-90276300D01*
X141474298Y-90276300D01*
X141407259Y-90256615D01*
X141361504Y-90203811D01*
X141351560Y-90134653D01*
X141378445Y-90073635D01*
X141409778Y-90035455D01*
X141437685Y-90001450D01*
X141535232Y-89818954D01*
X141595300Y-89620934D01*
X141615583Y-89415000D01*
X141595300Y-89209066D01*
X141535232Y-89011046D01*
X141437685Y-88828550D01*
X141356833Y-88730031D01*
X141306410Y-88668589D01*
X141165733Y-88553140D01*
X141146450Y-88537315D01*
X140963954Y-88439768D01*
X140765934Y-88379700D01*
X140765932Y-88379699D01*
X140765934Y-88379699D01*
X140560000Y-88359417D01*
X140354067Y-88379699D01*
X140202917Y-88425550D01*
X140156050Y-88439767D01*
X140156043Y-88439769D01*
X140083743Y-88478415D01*
X139973550Y-88537315D01*
X139973548Y-88537316D01*
X139973547Y-88537317D01*
X139813589Y-88668589D01*
X139682317Y-88828547D01*
X139584769Y-89011043D01*
X139524699Y-89209067D01*
X139504417Y-89415000D01*
X139524699Y-89620932D01*
X139532096Y-89645315D01*
X139584766Y-89818948D01*
X139584769Y-89818956D01*
X139595992Y-89839952D01*
X139682287Y-90001398D01*
X139682317Y-90001453D01*
X139741555Y-90073635D01*
X139768868Y-90137945D01*
X139757077Y-90206813D01*
X139709925Y-90258373D01*
X139645702Y-90276300D01*
X138934298Y-90276300D01*
X138867259Y-90256615D01*
X138821504Y-90203811D01*
X138811560Y-90134653D01*
X138838445Y-90073635D01*
X138869778Y-90035455D01*
X138897685Y-90001450D01*
X138995232Y-89818954D01*
X139055300Y-89620934D01*
X139075583Y-89415000D01*
X139055300Y-89209066D01*
X138995232Y-89011046D01*
X138897685Y-88828550D01*
X138816833Y-88730031D01*
X138766410Y-88668589D01*
X138625733Y-88553140D01*
X138606450Y-88537315D01*
X138423954Y-88439768D01*
X138225934Y-88379700D01*
X138225932Y-88379699D01*
X138225934Y-88379699D01*
X138020000Y-88359417D01*
X137814067Y-88379699D01*
X137662917Y-88425550D01*
X137616050Y-88439767D01*
X137616043Y-88439769D01*
X137543743Y-88478415D01*
X137433550Y-88537315D01*
X137433548Y-88537316D01*
X137433547Y-88537317D01*
X137273589Y-88668589D01*
X137142317Y-88828547D01*
X137044769Y-89011043D01*
X136984699Y-89209067D01*
X136964417Y-89415000D01*
X136984699Y-89620932D01*
X136992096Y-89645315D01*
X137044766Y-89818948D01*
X137044769Y-89818956D01*
X137055992Y-89839952D01*
X137142287Y-90001398D01*
X137142317Y-90001453D01*
X137201555Y-90073635D01*
X137228868Y-90137945D01*
X137217077Y-90206813D01*
X137169925Y-90258373D01*
X137105702Y-90276300D01*
X136691057Y-90276300D01*
X136669742Y-90283226D01*
X136650826Y-90287767D01*
X136628699Y-90291271D01*
X136628692Y-90291274D01*
X136608723Y-90301448D01*
X136590757Y-90308890D01*
X136569438Y-90315818D01*
X136569436Y-90315818D01*
X136551307Y-90328990D01*
X136534721Y-90339154D01*
X136514754Y-90349327D01*
X136503380Y-90360701D01*
X136492006Y-90372076D01*
X136243150Y-90620932D01*
X135995901Y-90868181D01*
X135934578Y-90901666D01*
X135908220Y-90904500D01*
X134610247Y-90904500D01*
X134551770Y-90916131D01*
X134551769Y-90916132D01*
X134485447Y-90960447D01*
X134441132Y-91026769D01*
X134441131Y-91026770D01*
X134429500Y-91085247D01*
X134429500Y-92824752D01*
X134441131Y-92883229D01*
X134441132Y-92883230D01*
X134485447Y-92949552D01*
X134551769Y-92993867D01*
X134551770Y-92993868D01*
X134610247Y-93005499D01*
X134610250Y-93005500D01*
X134610252Y-93005500D01*
X136349750Y-93005500D01*
X136349751Y-93005499D01*
X136375624Y-93000353D01*
X136408229Y-92993868D01*
X136408229Y-92993867D01*
X136408231Y-92993867D01*
X136474552Y-92949552D01*
X136518867Y-92883231D01*
X136518867Y-92883229D01*
X136518868Y-92883229D01*
X136529417Y-92830191D01*
X136530500Y-92824748D01*
X136530500Y-92514456D01*
X136550185Y-92447417D01*
X136602989Y-92401662D01*
X136672147Y-92391718D01*
X136735703Y-92420743D01*
X136766882Y-92462051D01*
X136846400Y-92632578D01*
X136981894Y-92826082D01*
X137148917Y-92993105D01*
X137342421Y-93128600D01*
X137556507Y-93228429D01*
X137556516Y-93228433D01*
X137770000Y-93285634D01*
X137770000Y-92390501D01*
X137877685Y-92439680D01*
X137984237Y-92455000D01*
X138055763Y-92455000D01*
X138162315Y-92439680D01*
X138270000Y-92390501D01*
X138270000Y-93285633D01*
X138483483Y-93228433D01*
X138483492Y-93228429D01*
X138697578Y-93128600D01*
X138891082Y-92993105D01*
X139058105Y-92826082D01*
X139193600Y-92632578D01*
X139293429Y-92418492D01*
X139293433Y-92418483D01*
X139326158Y-92296350D01*
X139362522Y-92236690D01*
X139425369Y-92206160D01*
X139494745Y-92214454D01*
X139548623Y-92258939D01*
X139564593Y-92292447D01*
X139584768Y-92358954D01*
X139682315Y-92541450D01*
X139706537Y-92570965D01*
X139813589Y-92701410D01*
X139867873Y-92745959D01*
X139973550Y-92832685D01*
X140156046Y-92930232D01*
X140156051Y-92930233D01*
X140157951Y-92931021D01*
X140158796Y-92931701D01*
X140161419Y-92933104D01*
X140161153Y-92933601D01*
X140212355Y-92974862D01*
X140234421Y-93041156D01*
X140234500Y-93045583D01*
X140234500Y-100823078D01*
X140234264Y-100828485D01*
X140230735Y-100868808D01*
X140230735Y-100868809D01*
X140241212Y-100907910D01*
X140242383Y-100913190D01*
X140249411Y-100953043D01*
X140251235Y-100958055D01*
X140258197Y-100974861D01*
X140260445Y-100979681D01*
X140260446Y-100979684D01*
X140274452Y-100999687D01*
X140283655Y-101012831D01*
X140286561Y-101017392D01*
X140306806Y-101052455D01*
X140337815Y-101078475D01*
X140341805Y-101082131D01*
X140833181Y-101573507D01*
X140866666Y-101634830D01*
X140869500Y-101661188D01*
X140869500Y-112098259D01*
X140849815Y-112165298D01*
X140797011Y-112211053D01*
X140727853Y-112220997D01*
X140695581Y-112210256D01*
X140695399Y-112210746D01*
X140552379Y-112157403D01*
X140552372Y-112157401D01*
X140492844Y-112151000D01*
X140175000Y-112151000D01*
X140175000Y-112247600D01*
X140155315Y-112314639D01*
X140102511Y-112360394D01*
X140051000Y-112371600D01*
X139799000Y-112371600D01*
X139731961Y-112351915D01*
X139686206Y-112299111D01*
X139675000Y-112247600D01*
X139675000Y-112151000D01*
X139357155Y-112151000D01*
X139297627Y-112157401D01*
X139297620Y-112157403D01*
X139162913Y-112207645D01*
X139162910Y-112207647D01*
X139041456Y-112298568D01*
X138975992Y-112322985D01*
X138919693Y-112313862D01*
X138811765Y-112269157D01*
X138811760Y-112269155D01*
X138655001Y-112248518D01*
X138654999Y-112248518D01*
X138498239Y-112269155D01*
X138498234Y-112269157D01*
X138352163Y-112329661D01*
X138352157Y-112329664D01*
X138330902Y-112345975D01*
X138265733Y-112371170D01*
X138255415Y-112371600D01*
X137784585Y-112371600D01*
X137717546Y-112351915D01*
X137709098Y-112345975D01*
X137687842Y-112329664D01*
X137687836Y-112329661D01*
X137541765Y-112269157D01*
X137541760Y-112269155D01*
X137385001Y-112248518D01*
X137384999Y-112248518D01*
X137228239Y-112269155D01*
X137228234Y-112269157D01*
X137082163Y-112329661D01*
X137082157Y-112329664D01*
X137060902Y-112345975D01*
X136995733Y-112371170D01*
X136985415Y-112371600D01*
X136514585Y-112371600D01*
X136447546Y-112351915D01*
X136439098Y-112345975D01*
X136417842Y-112329664D01*
X136417836Y-112329661D01*
X136271765Y-112269157D01*
X136271760Y-112269155D01*
X136115001Y-112248518D01*
X136114999Y-112248518D01*
X135958239Y-112269155D01*
X135958234Y-112269157D01*
X135812163Y-112329661D01*
X135812157Y-112329664D01*
X135790902Y-112345975D01*
X135725733Y-112371170D01*
X135715415Y-112371600D01*
X135244585Y-112371600D01*
X135177546Y-112351915D01*
X135169098Y-112345975D01*
X135147842Y-112329664D01*
X135147836Y-112329661D01*
X135001765Y-112269157D01*
X135001760Y-112269155D01*
X134845001Y-112248518D01*
X134844999Y-112248518D01*
X134688239Y-112269155D01*
X134688234Y-112269157D01*
X134542163Y-112329661D01*
X134542157Y-112329664D01*
X134520902Y-112345975D01*
X134455733Y-112371170D01*
X134445415Y-112371600D01*
X133974585Y-112371600D01*
X133907546Y-112351915D01*
X133899098Y-112345975D01*
X133877842Y-112329664D01*
X133877836Y-112329661D01*
X133731765Y-112269157D01*
X133731760Y-112269155D01*
X133575001Y-112248518D01*
X133574999Y-112248518D01*
X133418239Y-112269155D01*
X133418234Y-112269157D01*
X133272163Y-112329661D01*
X133272157Y-112329664D01*
X133250902Y-112345975D01*
X133185733Y-112371170D01*
X133175415Y-112371600D01*
X132704585Y-112371600D01*
X132637546Y-112351915D01*
X132629098Y-112345975D01*
X132607842Y-112329664D01*
X132607836Y-112329661D01*
X132461765Y-112269157D01*
X132461760Y-112269155D01*
X132305001Y-112248518D01*
X132304999Y-112248518D01*
X132148239Y-112269155D01*
X132148234Y-112269157D01*
X132002163Y-112329661D01*
X132002157Y-112329664D01*
X131980902Y-112345975D01*
X131915733Y-112371170D01*
X131905415Y-112371600D01*
X131484500Y-112371600D01*
X131417461Y-112351915D01*
X131371706Y-112299111D01*
X131360500Y-112247600D01*
X131360500Y-111313187D01*
X131380185Y-111246148D01*
X131396814Y-111225511D01*
X134428204Y-108194120D01*
X134432166Y-108190489D01*
X134463194Y-108164455D01*
X134483438Y-108129390D01*
X134486335Y-108124841D01*
X134509554Y-108091684D01*
X134509554Y-108091681D01*
X134511819Y-108086824D01*
X134518747Y-108070099D01*
X134520584Y-108065050D01*
X134520588Y-108065045D01*
X134527619Y-108025162D01*
X134528777Y-108019940D01*
X134539264Y-107980807D01*
X134535735Y-107940481D01*
X134535500Y-107935078D01*
X134535500Y-100389812D01*
X134555185Y-100322773D01*
X134561113Y-100314339D01*
X134607536Y-100253841D01*
X134668044Y-100107762D01*
X134688682Y-99951000D01*
X134687648Y-99943149D01*
X134668044Y-99794239D01*
X134668044Y-99794238D01*
X134607536Y-99648159D01*
X134511282Y-99522718D01*
X134385841Y-99426464D01*
X134384909Y-99426078D01*
X134239762Y-99365956D01*
X134239760Y-99365955D01*
X134083001Y-99345318D01*
X134082999Y-99345318D01*
X133926239Y-99365955D01*
X133926237Y-99365956D01*
X133780160Y-99426463D01*
X133654718Y-99522718D01*
X133558463Y-99648160D01*
X133504061Y-99779499D01*
X133460220Y-99833902D01*
X133393926Y-99855967D01*
X133326226Y-99838688D01*
X133278616Y-99787550D01*
X133265500Y-99732046D01*
X133265500Y-99503298D01*
X133285185Y-99436259D01*
X133314010Y-99404925D01*
X133368282Y-99363282D01*
X133464536Y-99237841D01*
X133525044Y-99091762D01*
X133545682Y-98935000D01*
X133538237Y-98878453D01*
X133525044Y-98778239D01*
X133525044Y-98778238D01*
X133464536Y-98632159D01*
X133368282Y-98506718D01*
X133242841Y-98410464D01*
X133096762Y-98349956D01*
X133096760Y-98349955D01*
X132940001Y-98329318D01*
X132939999Y-98329318D01*
X132783239Y-98349955D01*
X132783237Y-98349956D01*
X132637160Y-98410463D01*
X132511718Y-98506718D01*
X132415463Y-98632160D01*
X132354956Y-98778237D01*
X132354955Y-98778239D01*
X132334318Y-98934998D01*
X132334318Y-98935001D01*
X132354955Y-99091760D01*
X132354956Y-99091762D01*
X132415464Y-99237841D01*
X132511718Y-99363282D01*
X132565987Y-99404924D01*
X132607189Y-99461349D01*
X132614500Y-99503298D01*
X132614500Y-107765811D01*
X132594815Y-107832850D01*
X132578181Y-107853492D01*
X129546803Y-110884870D01*
X129542814Y-110888525D01*
X129511805Y-110914545D01*
X129491562Y-110949606D01*
X129488656Y-110954166D01*
X129465446Y-110987313D01*
X129463206Y-110992117D01*
X129456229Y-111008961D01*
X129454410Y-111013959D01*
X129447383Y-111053811D01*
X129446212Y-111059091D01*
X129435735Y-111098191D01*
X129439264Y-111138513D01*
X129439500Y-111143920D01*
X129439500Y-112098259D01*
X129419815Y-112165298D01*
X129367011Y-112211053D01*
X129297853Y-112220997D01*
X129265581Y-112210256D01*
X129265399Y-112210746D01*
X129122379Y-112157403D01*
X129122372Y-112157401D01*
X129062844Y-112151000D01*
X128745000Y-112151000D01*
X128745000Y-112247600D01*
X128725315Y-112314639D01*
X128672511Y-112360394D01*
X128621000Y-112371600D01*
X128369000Y-112371600D01*
X128301961Y-112351915D01*
X128256206Y-112299111D01*
X128245000Y-112247600D01*
X128245000Y-112151000D01*
X127927155Y-112151000D01*
X127867627Y-112157401D01*
X127867620Y-112157403D01*
X127724601Y-112210746D01*
X127724040Y-112209243D01*
X127665645Y-112221942D01*
X127600183Y-112197521D01*
X127558315Y-112141585D01*
X127550500Y-112098259D01*
X127550500Y-111313188D01*
X127570185Y-111246149D01*
X127586819Y-111225507D01*
X129734871Y-109077455D01*
X131888210Y-106924115D01*
X131892172Y-106920484D01*
X131923194Y-106894455D01*
X131943444Y-106859379D01*
X131946328Y-106854852D01*
X131969554Y-106821684D01*
X131969554Y-106821681D01*
X131971819Y-106816824D01*
X131978747Y-106800099D01*
X131980587Y-106795046D01*
X131980588Y-106795045D01*
X131987621Y-106755150D01*
X131988777Y-106749937D01*
X131999263Y-106710807D01*
X131995735Y-106670489D01*
X131995500Y-106665086D01*
X131995500Y-98614298D01*
X132015185Y-98547259D01*
X132044010Y-98515925D01*
X132098282Y-98474282D01*
X132194536Y-98348841D01*
X132255044Y-98202762D01*
X132270476Y-98085543D01*
X132275682Y-98046001D01*
X132275682Y-98045998D01*
X132255044Y-97889239D01*
X132255044Y-97889238D01*
X132194536Y-97743159D01*
X132098282Y-97617718D01*
X131972841Y-97521464D01*
X131826762Y-97460956D01*
X131826760Y-97460955D01*
X131670001Y-97440318D01*
X131669999Y-97440318D01*
X131513239Y-97460955D01*
X131513237Y-97460956D01*
X131367160Y-97521463D01*
X131241718Y-97617718D01*
X131145463Y-97743160D01*
X131084956Y-97889237D01*
X131084955Y-97889239D01*
X131064318Y-98045998D01*
X131064318Y-98046001D01*
X131084955Y-98202760D01*
X131084956Y-98202762D01*
X131125232Y-98299998D01*
X131145464Y-98348841D01*
X131241718Y-98474282D01*
X131295987Y-98515924D01*
X131337189Y-98572349D01*
X131344500Y-98614298D01*
X131344500Y-106495811D01*
X131324815Y-106562850D01*
X131308181Y-106583492D01*
X127006803Y-110884870D01*
X127002814Y-110888525D01*
X126971805Y-110914545D01*
X126951562Y-110949606D01*
X126948656Y-110954166D01*
X126925446Y-110987313D01*
X126923206Y-110992117D01*
X126916229Y-111008961D01*
X126914410Y-111013959D01*
X126907383Y-111053811D01*
X126906212Y-111059091D01*
X126895735Y-111098191D01*
X126899264Y-111138513D01*
X126899500Y-111143920D01*
X126899500Y-112247600D01*
X126879815Y-112314639D01*
X126827011Y-112360394D01*
X126775500Y-112371600D01*
X126404500Y-112371600D01*
X126337461Y-112351915D01*
X126291706Y-112299111D01*
X126280500Y-112247600D01*
X126280500Y-109281187D01*
X126300185Y-109214148D01*
X126316814Y-109193511D01*
X130364204Y-105146120D01*
X130368166Y-105142489D01*
X130399194Y-105116455D01*
X130419438Y-105081390D01*
X130422335Y-105076841D01*
X130445554Y-105043684D01*
X130445554Y-105043681D01*
X130447819Y-105038824D01*
X130454747Y-105022099D01*
X130456584Y-105017050D01*
X130456588Y-105017045D01*
X130463619Y-104977162D01*
X130464777Y-104971940D01*
X130475264Y-104932807D01*
X130471735Y-104892481D01*
X130471500Y-104887078D01*
X130471500Y-97725298D01*
X130491185Y-97658259D01*
X130520010Y-97626925D01*
X130574282Y-97585282D01*
X130670536Y-97459841D01*
X130731044Y-97313762D01*
X130751682Y-97157000D01*
X130731044Y-97000238D01*
X130670536Y-96854159D01*
X130574282Y-96728718D01*
X130448841Y-96632464D01*
X130416908Y-96619237D01*
X130302762Y-96571956D01*
X130302760Y-96571955D01*
X130146001Y-96551318D01*
X130145999Y-96551318D01*
X129989239Y-96571955D01*
X129989237Y-96571956D01*
X129843160Y-96632463D01*
X129717718Y-96728718D01*
X129621463Y-96854160D01*
X129560956Y-97000237D01*
X129560955Y-97000239D01*
X129540318Y-97156998D01*
X129540318Y-97157001D01*
X129560955Y-97313760D01*
X129560956Y-97313762D01*
X129588905Y-97381238D01*
X129621464Y-97459841D01*
X129717718Y-97585282D01*
X129771987Y-97626924D01*
X129813189Y-97683349D01*
X129820500Y-97725298D01*
X129820500Y-104717811D01*
X129800815Y-104784850D01*
X129784181Y-104805492D01*
X128944251Y-105645422D01*
X128882928Y-105678907D01*
X128813236Y-105673923D01*
X128757303Y-105632051D01*
X128732886Y-105566587D01*
X128747738Y-105498314D01*
X128749147Y-105495803D01*
X128768434Y-105462396D01*
X128771328Y-105457851D01*
X128794554Y-105424684D01*
X128794555Y-105424679D01*
X128796819Y-105419824D01*
X128803747Y-105403099D01*
X128805584Y-105398050D01*
X128805588Y-105398045D01*
X128812619Y-105358162D01*
X128813777Y-105352940D01*
X128824264Y-105313807D01*
X128820735Y-105273478D01*
X128820500Y-105268075D01*
X128820500Y-96844038D01*
X128840185Y-96776999D01*
X128892989Y-96731244D01*
X128898324Y-96729326D01*
X128898253Y-96729154D01*
X128905760Y-96726044D01*
X128905762Y-96726044D01*
X129051841Y-96665536D01*
X129177282Y-96569282D01*
X129273536Y-96443841D01*
X129334044Y-96297762D01*
X129354682Y-96141000D01*
X129334044Y-95984238D01*
X129273536Y-95838159D01*
X129177282Y-95712718D01*
X129051841Y-95616464D01*
X129003467Y-95596427D01*
X128905762Y-95555956D01*
X128905760Y-95555955D01*
X128749001Y-95535318D01*
X128748999Y-95535318D01*
X128592239Y-95555955D01*
X128592237Y-95555956D01*
X128446160Y-95616463D01*
X128320718Y-95712718D01*
X128224463Y-95838160D01*
X128163956Y-95984237D01*
X128163955Y-95984239D01*
X128143318Y-96140998D01*
X128143318Y-96141001D01*
X128163956Y-96297767D01*
X128165416Y-96303215D01*
X128165416Y-96355276D01*
X128166681Y-96355387D01*
X128165735Y-96366191D01*
X128169264Y-96406513D01*
X128169500Y-96411920D01*
X128169500Y-105098811D01*
X128149815Y-105165850D01*
X128133181Y-105186492D01*
X127674251Y-105645422D01*
X127612928Y-105678907D01*
X127543236Y-105673923D01*
X127487303Y-105632051D01*
X127462886Y-105566587D01*
X127477738Y-105498314D01*
X127479147Y-105495803D01*
X127498434Y-105462396D01*
X127501328Y-105457851D01*
X127524554Y-105424684D01*
X127524555Y-105424679D01*
X127526819Y-105419824D01*
X127533747Y-105403099D01*
X127535584Y-105398050D01*
X127535588Y-105398045D01*
X127542619Y-105358162D01*
X127543777Y-105352940D01*
X127554264Y-105313807D01*
X127550735Y-105273478D01*
X127550500Y-105268075D01*
X127550500Y-95940124D01*
X127570185Y-95873085D01*
X127599011Y-95841749D01*
X127721082Y-95748082D01*
X127817336Y-95622641D01*
X127877844Y-95476562D01*
X127898482Y-95319800D01*
X127877844Y-95163038D01*
X127817336Y-95016959D01*
X127721082Y-94891518D01*
X127595641Y-94795264D01*
X127595639Y-94795263D01*
X127524852Y-94765942D01*
X127470449Y-94722101D01*
X127448384Y-94655806D01*
X127465663Y-94588107D01*
X127484620Y-94563704D01*
X129602204Y-92446120D01*
X129606166Y-92442489D01*
X129637194Y-92416455D01*
X129657438Y-92381390D01*
X129660335Y-92376841D01*
X129683554Y-92343684D01*
X129683554Y-92343681D01*
X129685819Y-92338824D01*
X129692747Y-92322099D01*
X129694584Y-92317050D01*
X129694588Y-92317045D01*
X129701619Y-92277162D01*
X129702777Y-92271940D01*
X129713264Y-92232807D01*
X129709735Y-92192481D01*
X129709500Y-92187078D01*
X129709500Y-89415000D01*
X134424417Y-89415000D01*
X134444699Y-89620932D01*
X134452096Y-89645315D01*
X134504768Y-89818954D01*
X134602315Y-90001450D01*
X134630222Y-90035455D01*
X134733589Y-90161410D01*
X134777979Y-90197839D01*
X134893550Y-90292685D01*
X135076046Y-90390232D01*
X135274066Y-90450300D01*
X135274065Y-90450300D01*
X135292529Y-90452118D01*
X135480000Y-90470583D01*
X135685934Y-90450300D01*
X135883954Y-90390232D01*
X136066450Y-90292685D01*
X136226410Y-90161410D01*
X136357685Y-90001450D01*
X136455232Y-89818954D01*
X136515300Y-89620934D01*
X136535583Y-89415000D01*
X136515300Y-89209066D01*
X136455232Y-89011046D01*
X136357685Y-88828550D01*
X136276833Y-88730031D01*
X136226410Y-88668589D01*
X136085733Y-88553140D01*
X136066450Y-88537315D01*
X135883954Y-88439768D01*
X135685934Y-88379700D01*
X135685932Y-88379699D01*
X135685934Y-88379699D01*
X135480000Y-88359417D01*
X135274067Y-88379699D01*
X135122917Y-88425550D01*
X135076050Y-88439767D01*
X135076043Y-88439769D01*
X135003743Y-88478415D01*
X134893550Y-88537315D01*
X134893548Y-88537316D01*
X134893547Y-88537317D01*
X134733589Y-88668589D01*
X134602317Y-88828547D01*
X134504769Y-89011043D01*
X134444699Y-89209067D01*
X134424417Y-89415000D01*
X129709500Y-89415000D01*
X129709500Y-89172920D01*
X129709736Y-89167513D01*
X129710929Y-89153886D01*
X129713264Y-89127193D01*
X129702782Y-89088076D01*
X129701616Y-89082818D01*
X129694588Y-89042955D01*
X129694586Y-89042952D01*
X129694586Y-89042950D01*
X129692760Y-89037933D01*
X129685820Y-89021176D01*
X129683554Y-89016319D01*
X129683554Y-89016316D01*
X129660339Y-88983162D01*
X129657433Y-88978599D01*
X129637196Y-88943548D01*
X129637195Y-88943547D01*
X129637194Y-88943545D01*
X129606177Y-88917518D01*
X129602193Y-88913867D01*
X129166741Y-88478415D01*
X128710119Y-88021793D01*
X128706474Y-88017814D01*
X128680456Y-87986807D01*
X128680455Y-87986806D01*
X128669058Y-87980226D01*
X128645392Y-87966561D01*
X128640831Y-87963655D01*
X128627687Y-87954452D01*
X128607684Y-87940446D01*
X128607681Y-87940445D01*
X128602861Y-87938197D01*
X128586055Y-87931235D01*
X128581043Y-87929411D01*
X128541190Y-87922383D01*
X128535910Y-87921212D01*
X128496808Y-87910735D01*
X128461892Y-87913790D01*
X128456481Y-87914264D01*
X128451078Y-87914500D01*
X127390221Y-87914500D01*
X127384817Y-87914264D01*
X127379406Y-87913790D01*
X127344491Y-87910735D01*
X127344490Y-87910735D01*
X127305390Y-87921212D01*
X127300110Y-87922383D01*
X127260258Y-87929410D01*
X127255260Y-87931229D01*
X127238416Y-87938206D01*
X127233612Y-87940446D01*
X127200465Y-87963656D01*
X127195905Y-87966562D01*
X127160847Y-87986804D01*
X127160839Y-87986810D01*
X127134822Y-88017815D01*
X127131168Y-88021804D01*
X126466803Y-88686169D01*
X126462814Y-88689824D01*
X126431805Y-88715844D01*
X126411562Y-88750905D01*
X126408656Y-88755465D01*
X126379224Y-88797500D01*
X126376391Y-88795516D01*
X126342625Y-88833865D01*
X126275432Y-88853017D01*
X126208551Y-88832801D01*
X126180562Y-88807685D01*
X126066410Y-88668589D01*
X125925733Y-88553140D01*
X125906450Y-88537315D01*
X125723954Y-88439768D01*
X125525934Y-88379700D01*
X125525932Y-88379699D01*
X125525934Y-88379699D01*
X125320000Y-88359417D01*
X125114067Y-88379699D01*
X124962917Y-88425550D01*
X124916050Y-88439767D01*
X124916043Y-88439769D01*
X124843743Y-88478415D01*
X124733550Y-88537315D01*
X124733548Y-88537316D01*
X124733547Y-88537317D01*
X124573589Y-88668589D01*
X124442317Y-88828547D01*
X124344769Y-89011043D01*
X124284699Y-89209067D01*
X124264417Y-89415000D01*
X124284699Y-89620932D01*
X124292096Y-89645315D01*
X124344768Y-89818954D01*
X124344772Y-89818962D01*
X124345559Y-89820862D01*
X124345675Y-89821941D01*
X124346537Y-89824783D01*
X124345998Y-89824946D01*
X124353027Y-89890331D01*
X124321751Y-89952810D01*
X124318678Y-89955994D01*
X123926803Y-90347870D01*
X123922814Y-90351525D01*
X123891805Y-90377545D01*
X123871562Y-90412606D01*
X123868656Y-90417166D01*
X123845446Y-90450313D01*
X123843206Y-90455117D01*
X123836229Y-90471961D01*
X123834410Y-90476959D01*
X123827383Y-90516811D01*
X123826212Y-90522091D01*
X123815735Y-90561191D01*
X123819264Y-90601513D01*
X123819500Y-90606920D01*
X123819500Y-91219164D01*
X123799815Y-91286203D01*
X123747011Y-91331958D01*
X123677853Y-91341902D01*
X123614297Y-91312877D01*
X123599647Y-91297829D01*
X123526410Y-91208590D01*
X123445746Y-91142391D01*
X123366450Y-91077315D01*
X123183954Y-90979768D01*
X122985934Y-90919700D01*
X122985932Y-90919699D01*
X122985934Y-90919699D01*
X122780000Y-90899417D01*
X122574067Y-90919699D01*
X122439736Y-90960448D01*
X122376050Y-90979767D01*
X122376043Y-90979769D01*
X122193546Y-91077317D01*
X122133164Y-91126871D01*
X122068853Y-91154183D01*
X121999986Y-91142391D01*
X121948426Y-91095238D01*
X121930500Y-91031017D01*
X121930500Y-90776187D01*
X121950185Y-90709148D01*
X121966815Y-90688510D01*
X122239005Y-90416319D01*
X122300326Y-90382836D01*
X122370017Y-90387820D01*
X122374132Y-90389439D01*
X122376038Y-90390227D01*
X122376046Y-90390232D01*
X122574066Y-90450300D01*
X122574065Y-90450300D01*
X122592529Y-90452118D01*
X122780000Y-90470583D01*
X122985934Y-90450300D01*
X123183954Y-90390232D01*
X123366450Y-90292685D01*
X123526410Y-90161410D01*
X123657685Y-90001450D01*
X123755232Y-89818954D01*
X123815300Y-89620934D01*
X123835583Y-89415000D01*
X123815300Y-89209066D01*
X123755232Y-89011046D01*
X123657685Y-88828550D01*
X123576833Y-88730031D01*
X123526410Y-88668589D01*
X123385733Y-88553140D01*
X123366450Y-88537315D01*
X123183954Y-88439768D01*
X122985934Y-88379700D01*
X122985932Y-88379699D01*
X122985934Y-88379699D01*
X122780000Y-88359417D01*
X122574067Y-88379699D01*
X122422917Y-88425550D01*
X122376050Y-88439767D01*
X122376043Y-88439769D01*
X122303743Y-88478415D01*
X122193550Y-88537315D01*
X122193548Y-88537316D01*
X122193547Y-88537317D01*
X122033589Y-88668589D01*
X121902317Y-88828547D01*
X121804769Y-89011043D01*
X121744699Y-89209067D01*
X121724417Y-89415000D01*
X121744699Y-89620932D01*
X121752096Y-89645315D01*
X121804768Y-89818954D01*
X121804772Y-89818962D01*
X121805559Y-89820862D01*
X121805675Y-89821941D01*
X121806537Y-89824783D01*
X121805998Y-89824946D01*
X121813027Y-89890331D01*
X121781751Y-89952810D01*
X121778678Y-89955994D01*
X121386803Y-90347870D01*
X121382814Y-90351525D01*
X121351805Y-90377545D01*
X121331562Y-90412606D01*
X121328656Y-90417166D01*
X121305446Y-90450313D01*
X121303206Y-90455117D01*
X121296229Y-90471961D01*
X121294410Y-90476959D01*
X121287383Y-90516811D01*
X121286212Y-90522091D01*
X121275735Y-90561191D01*
X121279264Y-90601513D01*
X121279500Y-90606920D01*
X121279500Y-91219164D01*
X121259815Y-91286203D01*
X121207011Y-91331958D01*
X121137853Y-91341902D01*
X121074297Y-91312877D01*
X121059647Y-91297829D01*
X120986410Y-91208590D01*
X120905746Y-91142391D01*
X120826450Y-91077315D01*
X120643954Y-90979768D01*
X120445934Y-90919700D01*
X120445932Y-90919699D01*
X120445934Y-90919699D01*
X120240000Y-90899417D01*
X120034067Y-90919699D01*
X119899736Y-90960448D01*
X119836050Y-90979767D01*
X119836043Y-90979769D01*
X119653546Y-91077317D01*
X119593164Y-91126871D01*
X119528853Y-91154183D01*
X119459986Y-91142391D01*
X119408426Y-91095238D01*
X119390500Y-91031017D01*
X119390500Y-90776187D01*
X119410185Y-90709148D01*
X119426815Y-90688510D01*
X119699005Y-90416319D01*
X119760326Y-90382836D01*
X119830017Y-90387820D01*
X119834132Y-90389439D01*
X119836038Y-90390227D01*
X119836046Y-90390232D01*
X120034066Y-90450300D01*
X120034065Y-90450300D01*
X120052529Y-90452118D01*
X120240000Y-90470583D01*
X120445934Y-90450300D01*
X120643954Y-90390232D01*
X120826450Y-90292685D01*
X120986410Y-90161410D01*
X121117685Y-90001450D01*
X121215232Y-89818954D01*
X121275300Y-89620934D01*
X121295583Y-89415000D01*
X121275300Y-89209066D01*
X121215232Y-89011046D01*
X121117685Y-88828550D01*
X121036833Y-88730031D01*
X120986410Y-88668589D01*
X120845733Y-88553140D01*
X120826450Y-88537315D01*
X120643954Y-88439768D01*
X120445934Y-88379700D01*
X120445932Y-88379699D01*
X120445934Y-88379699D01*
X120240000Y-88359417D01*
X120034067Y-88379699D01*
X119882917Y-88425550D01*
X119836050Y-88439767D01*
X119836043Y-88439769D01*
X119763743Y-88478415D01*
X119653550Y-88537315D01*
X119653548Y-88537316D01*
X119653547Y-88537317D01*
X119493589Y-88668589D01*
X119362317Y-88828547D01*
X119264769Y-89011043D01*
X119204699Y-89209067D01*
X119184417Y-89415000D01*
X119204699Y-89620932D01*
X119212096Y-89645315D01*
X119264768Y-89818954D01*
X119264772Y-89818962D01*
X119265559Y-89820862D01*
X119265675Y-89821941D01*
X119266537Y-89824783D01*
X119265998Y-89824946D01*
X119273027Y-89890331D01*
X119241751Y-89952810D01*
X119238678Y-89955994D01*
X118846803Y-90347870D01*
X118842814Y-90351525D01*
X118811805Y-90377545D01*
X118791562Y-90412606D01*
X118788656Y-90417166D01*
X118765446Y-90450313D01*
X118763206Y-90455117D01*
X118756229Y-90471961D01*
X118754410Y-90476959D01*
X118747383Y-90516811D01*
X118746212Y-90522091D01*
X118735735Y-90561191D01*
X118739264Y-90601513D01*
X118739500Y-90606920D01*
X118739500Y-91219164D01*
X118719815Y-91286203D01*
X118667011Y-91331958D01*
X118597853Y-91341902D01*
X118534297Y-91312877D01*
X118519647Y-91297829D01*
X118446410Y-91208590D01*
X118365746Y-91142391D01*
X118286450Y-91077315D01*
X118103954Y-90979768D01*
X117905934Y-90919700D01*
X117905932Y-90919699D01*
X117905934Y-90919699D01*
X117700000Y-90899417D01*
X117494067Y-90919699D01*
X117359736Y-90960448D01*
X117296050Y-90979767D01*
X117296043Y-90979769D01*
X117113546Y-91077317D01*
X117053164Y-91126871D01*
X116988853Y-91154183D01*
X116919986Y-91142391D01*
X116868426Y-91095238D01*
X116850500Y-91031017D01*
X116850500Y-90776187D01*
X116870185Y-90709148D01*
X116886815Y-90688510D01*
X117159005Y-90416319D01*
X117220326Y-90382836D01*
X117290017Y-90387820D01*
X117294132Y-90389439D01*
X117296038Y-90390227D01*
X117296046Y-90390232D01*
X117494066Y-90450300D01*
X117494065Y-90450300D01*
X117512529Y-90452118D01*
X117700000Y-90470583D01*
X117905934Y-90450300D01*
X118103954Y-90390232D01*
X118286450Y-90292685D01*
X118446410Y-90161410D01*
X118577685Y-90001450D01*
X118675232Y-89818954D01*
X118735300Y-89620934D01*
X118755583Y-89415000D01*
X118735300Y-89209066D01*
X118675232Y-89011046D01*
X118577685Y-88828550D01*
X118496833Y-88730031D01*
X118446410Y-88668589D01*
X118305733Y-88553140D01*
X118286450Y-88537315D01*
X118103954Y-88439768D01*
X117905934Y-88379700D01*
X117905932Y-88379699D01*
X117905934Y-88379699D01*
X117700000Y-88359417D01*
X117494067Y-88379699D01*
X117342917Y-88425550D01*
X117296050Y-88439767D01*
X117296043Y-88439769D01*
X117223743Y-88478415D01*
X117113550Y-88537315D01*
X117113548Y-88537316D01*
X117113547Y-88537317D01*
X116953589Y-88668589D01*
X116822317Y-88828547D01*
X116724769Y-89011043D01*
X116664699Y-89209067D01*
X116644417Y-89415000D01*
X116664699Y-89620932D01*
X116672096Y-89645315D01*
X116724768Y-89818954D01*
X116724772Y-89818962D01*
X116725559Y-89820862D01*
X116725675Y-89821941D01*
X116726537Y-89824783D01*
X116725998Y-89824946D01*
X116733027Y-89890331D01*
X116701751Y-89952810D01*
X116698678Y-89955994D01*
X116306803Y-90347870D01*
X116302814Y-90351525D01*
X116271805Y-90377545D01*
X116251562Y-90412606D01*
X116248656Y-90417166D01*
X116225446Y-90450313D01*
X116223206Y-90455117D01*
X116216229Y-90471961D01*
X116214410Y-90476959D01*
X116207383Y-90516811D01*
X116206212Y-90522091D01*
X116195735Y-90561191D01*
X116199264Y-90601513D01*
X116199500Y-90606920D01*
X116199500Y-91219164D01*
X116179815Y-91286203D01*
X116127011Y-91331958D01*
X116057853Y-91341902D01*
X115994297Y-91312877D01*
X115979647Y-91297829D01*
X115906410Y-91208590D01*
X115825746Y-91142391D01*
X115746450Y-91077315D01*
X115563954Y-90979768D01*
X115365934Y-90919700D01*
X115365932Y-90919699D01*
X115365934Y-90919699D01*
X115160000Y-90899417D01*
X114954067Y-90919699D01*
X114819736Y-90960448D01*
X114756050Y-90979767D01*
X114756043Y-90979769D01*
X114573546Y-91077317D01*
X114513164Y-91126871D01*
X114448853Y-91154183D01*
X114379986Y-91142391D01*
X114328426Y-91095238D01*
X114310500Y-91031017D01*
X114310500Y-90776187D01*
X114330185Y-90709148D01*
X114346815Y-90688510D01*
X114619005Y-90416319D01*
X114680326Y-90382836D01*
X114750017Y-90387820D01*
X114754132Y-90389439D01*
X114756038Y-90390227D01*
X114756046Y-90390232D01*
X114954066Y-90450300D01*
X114954065Y-90450300D01*
X114972529Y-90452118D01*
X115160000Y-90470583D01*
X115365934Y-90450300D01*
X115563954Y-90390232D01*
X115746450Y-90292685D01*
X115906410Y-90161410D01*
X116037685Y-90001450D01*
X116135232Y-89818954D01*
X116195300Y-89620934D01*
X116215583Y-89415000D01*
X116195300Y-89209066D01*
X116135232Y-89011046D01*
X116037685Y-88828550D01*
X115956833Y-88730031D01*
X115906410Y-88668589D01*
X115765733Y-88553140D01*
X115746450Y-88537315D01*
X115563954Y-88439768D01*
X115365934Y-88379700D01*
X115365932Y-88379699D01*
X115365934Y-88379699D01*
X115160000Y-88359417D01*
X114954067Y-88379699D01*
X114802917Y-88425550D01*
X114756050Y-88439767D01*
X114756043Y-88439769D01*
X114683743Y-88478415D01*
X114573550Y-88537315D01*
X114573548Y-88537316D01*
X114573547Y-88537317D01*
X114413589Y-88668589D01*
X114282317Y-88828547D01*
X114184767Y-89011046D01*
X114164593Y-89077552D01*
X114126296Y-89135990D01*
X114062483Y-89164447D01*
X113993416Y-89153886D01*
X113941023Y-89107661D01*
X113926158Y-89073649D01*
X113893433Y-88951516D01*
X113893429Y-88951507D01*
X113793600Y-88737422D01*
X113793599Y-88737420D01*
X113658113Y-88543926D01*
X113658108Y-88543920D01*
X113491082Y-88376894D01*
X113297578Y-88241399D01*
X113083492Y-88141570D01*
X113083486Y-88141567D01*
X112870000Y-88084364D01*
X112870000Y-88979498D01*
X112762315Y-88930320D01*
X112655763Y-88915000D01*
X112584237Y-88915000D01*
X112477685Y-88930320D01*
X112370000Y-88979498D01*
X112370000Y-88084364D01*
X112369999Y-88084364D01*
X112156513Y-88141567D01*
X112156507Y-88141570D01*
X111942422Y-88241399D01*
X111942420Y-88241400D01*
X111748926Y-88376886D01*
X111748920Y-88376891D01*
X111581891Y-88543920D01*
X111581890Y-88543922D01*
X111451575Y-88730031D01*
X111396998Y-88773655D01*
X111327499Y-88780848D01*
X111265145Y-88749326D01*
X111248425Y-88730031D01*
X111118109Y-88543922D01*
X111118108Y-88543920D01*
X110951082Y-88376894D01*
X110757578Y-88241399D01*
X110543492Y-88141570D01*
X110543486Y-88141567D01*
X110330000Y-88084364D01*
X110330000Y-88979498D01*
X110222315Y-88930320D01*
X110115763Y-88915000D01*
X110044237Y-88915000D01*
X109937685Y-88930320D01*
X109830000Y-88979498D01*
X109830000Y-88084364D01*
X109829999Y-88084364D01*
X109616513Y-88141567D01*
X109616507Y-88141570D01*
X109402422Y-88241399D01*
X109402420Y-88241400D01*
X109208926Y-88376886D01*
X109208920Y-88376891D01*
X109041891Y-88543920D01*
X109041886Y-88543926D01*
X108906400Y-88737420D01*
X108906399Y-88737422D01*
X108863882Y-88828601D01*
X108817709Y-88881040D01*
X108750516Y-88900192D01*
X108683635Y-88879976D01*
X108638300Y-88826811D01*
X108627500Y-88776196D01*
X108627500Y-88264376D01*
X108627736Y-88258969D01*
X108627896Y-88257147D01*
X108631264Y-88218649D01*
X108620782Y-88179532D01*
X108619616Y-88174274D01*
X108612588Y-88134411D01*
X108612586Y-88134408D01*
X108612586Y-88134406D01*
X108610760Y-88129389D01*
X108603820Y-88112632D01*
X108601554Y-88107775D01*
X108601554Y-88107772D01*
X108578339Y-88074618D01*
X108575433Y-88070055D01*
X108555196Y-88035004D01*
X108555195Y-88035003D01*
X108555194Y-88035001D01*
X108524177Y-88008974D01*
X108520193Y-88005323D01*
X105391370Y-84876500D01*
X102147663Y-81632793D01*
X102144018Y-81628814D01*
X102118000Y-81597807D01*
X102117999Y-81597806D01*
X102106602Y-81591226D01*
X102082936Y-81577561D01*
X102078375Y-81574655D01*
X102065231Y-81565452D01*
X102045228Y-81551446D01*
X102045225Y-81551445D01*
X102040405Y-81549197D01*
X102023599Y-81542235D01*
X102018587Y-81540411D01*
X101978734Y-81533383D01*
X101973454Y-81532212D01*
X101934352Y-81521735D01*
X101899436Y-81524790D01*
X101894025Y-81525264D01*
X101888622Y-81525500D01*
X64969526Y-81525500D01*
X64964122Y-81525264D01*
X64958711Y-81524790D01*
X64923796Y-81521735D01*
X64923795Y-81521735D01*
X64884695Y-81532212D01*
X64879415Y-81533383D01*
X64839563Y-81540410D01*
X64834565Y-81542229D01*
X64817721Y-81549206D01*
X64812917Y-81551446D01*
X64779770Y-81574656D01*
X64775210Y-81577562D01*
X64740152Y-81597804D01*
X64740144Y-81597810D01*
X64714127Y-81628815D01*
X64710472Y-81632804D01*
X61880459Y-84462819D01*
X59073097Y-87270181D01*
X59011774Y-87303666D01*
X58985416Y-87306500D01*
X57284922Y-87306500D01*
X57279518Y-87306264D01*
X57274107Y-87305790D01*
X57239192Y-87302735D01*
X57239191Y-87302735D01*
X57200091Y-87313212D01*
X57194811Y-87314383D01*
X57154959Y-87321410D01*
X57149961Y-87323229D01*
X57133117Y-87330206D01*
X57128313Y-87332446D01*
X57095166Y-87355656D01*
X57090606Y-87358562D01*
X57055548Y-87378804D01*
X57055540Y-87378810D01*
X57029523Y-87409815D01*
X57025869Y-87413804D01*
X56025994Y-88413678D01*
X55964671Y-88447163D01*
X55894979Y-88442179D01*
X55890862Y-88440559D01*
X55888962Y-88439772D01*
X55888954Y-88439768D01*
X55690934Y-88379700D01*
X55690932Y-88379699D01*
X55690934Y-88379699D01*
X55485000Y-88359417D01*
X55279067Y-88379699D01*
X55127917Y-88425550D01*
X55081050Y-88439767D01*
X55081043Y-88439769D01*
X55008743Y-88478415D01*
X54898550Y-88537315D01*
X54898548Y-88537316D01*
X54898547Y-88537317D01*
X54738589Y-88668589D01*
X54607317Y-88828547D01*
X54509769Y-89011043D01*
X54449699Y-89209067D01*
X54429417Y-89415000D01*
X54449699Y-89620932D01*
X54457096Y-89645315D01*
X54509768Y-89818954D01*
X54607315Y-90001450D01*
X54635222Y-90035455D01*
X54738589Y-90161410D01*
X54782979Y-90197839D01*
X54898550Y-90292685D01*
X55081046Y-90390232D01*
X55279066Y-90450300D01*
X55279065Y-90450300D01*
X55297529Y-90452118D01*
X55485000Y-90470583D01*
X55690934Y-90450300D01*
X55888954Y-90390232D01*
X56071450Y-90292685D01*
X56231410Y-90161410D01*
X56362685Y-90001450D01*
X56460232Y-89818954D01*
X56520300Y-89620934D01*
X56540583Y-89415000D01*
X56520300Y-89209066D01*
X56460232Y-89011046D01*
X56460227Y-89011038D01*
X56459439Y-89009132D01*
X56459322Y-89008051D01*
X56458463Y-89005217D01*
X56459000Y-89005053D01*
X56451973Y-88939663D01*
X56483250Y-88877185D01*
X56486291Y-88874033D01*
X57366507Y-87993819D01*
X57427830Y-87960334D01*
X57454188Y-87957500D01*
X58722812Y-87957500D01*
X58789851Y-87977185D01*
X58835606Y-88029989D01*
X58845550Y-88099147D01*
X58816525Y-88162703D01*
X58810511Y-88169161D01*
X58621196Y-88358477D01*
X58565994Y-88413679D01*
X58504671Y-88447163D01*
X58434979Y-88442179D01*
X58430862Y-88440559D01*
X58428962Y-88439772D01*
X58428954Y-88439768D01*
X58230934Y-88379700D01*
X58230932Y-88379699D01*
X58230934Y-88379699D01*
X58025000Y-88359417D01*
X57819067Y-88379699D01*
X57667917Y-88425550D01*
X57621050Y-88439767D01*
X57621043Y-88439769D01*
X57548743Y-88478415D01*
X57438550Y-88537315D01*
X57438548Y-88537316D01*
X57438547Y-88537317D01*
X57278589Y-88668589D01*
X57147317Y-88828547D01*
X57049769Y-89011043D01*
X56989699Y-89209067D01*
X56969417Y-89415000D01*
X56989699Y-89620932D01*
X56997096Y-89645315D01*
X57049768Y-89818954D01*
X57147315Y-90001450D01*
X57175222Y-90035455D01*
X57278589Y-90161410D01*
X57322979Y-90197839D01*
X57438550Y-90292685D01*
X57621046Y-90390232D01*
X57819066Y-90450300D01*
X57819065Y-90450300D01*
X57837529Y-90452118D01*
X58025000Y-90470583D01*
X58230934Y-90450300D01*
X58428954Y-90390232D01*
X58611450Y-90292685D01*
X58771410Y-90161410D01*
X58902685Y-90001450D01*
X59000232Y-89818954D01*
X59060300Y-89620934D01*
X59080583Y-89415000D01*
X59060300Y-89209066D01*
X59000232Y-89011046D01*
X59000227Y-89011038D01*
X58999439Y-89009132D01*
X58999322Y-89008051D01*
X58998463Y-89005217D01*
X58999000Y-89005053D01*
X58991973Y-88939663D01*
X59023250Y-88877185D01*
X59026292Y-88874032D01*
X65237508Y-82662819D01*
X65298831Y-82629334D01*
X65325189Y-82626500D01*
X65684812Y-82626500D01*
X65751851Y-82646185D01*
X65797606Y-82698989D01*
X65807550Y-82768147D01*
X65778525Y-82831703D01*
X65772493Y-82838180D01*
X62834173Y-85776500D01*
X60346803Y-88263870D01*
X60342814Y-88267525D01*
X60311805Y-88293545D01*
X60291562Y-88328606D01*
X60288656Y-88333166D01*
X60259224Y-88375201D01*
X60257845Y-88374235D01*
X60219973Y-88417243D01*
X60189767Y-88431055D01*
X60161045Y-88439767D01*
X60016016Y-88517288D01*
X59978550Y-88537315D01*
X59978548Y-88537316D01*
X59978547Y-88537317D01*
X59818589Y-88668589D01*
X59687317Y-88828547D01*
X59589769Y-89011043D01*
X59529699Y-89209067D01*
X59509417Y-89415000D01*
X59529699Y-89620932D01*
X59537096Y-89645315D01*
X59589768Y-89818954D01*
X59687315Y-90001450D01*
X59715222Y-90035455D01*
X59818589Y-90161410D01*
X59862979Y-90197839D01*
X59978550Y-90292685D01*
X60161046Y-90390232D01*
X60359066Y-90450300D01*
X60359065Y-90450300D01*
X60377529Y-90452118D01*
X60565000Y-90470583D01*
X60770934Y-90450300D01*
X60968954Y-90390232D01*
X61151450Y-90292685D01*
X61311410Y-90161410D01*
X61442685Y-90001450D01*
X61540232Y-89818954D01*
X61600300Y-89620934D01*
X61620583Y-89415000D01*
X61600300Y-89209066D01*
X61540232Y-89011046D01*
X61442685Y-88828550D01*
X61311410Y-88668590D01*
X61311409Y-88668589D01*
X61170734Y-88553140D01*
X61131400Y-88495395D01*
X61129529Y-88425550D01*
X61161716Y-88369608D01*
X66418507Y-83112819D01*
X66479830Y-83079334D01*
X66506188Y-83076500D01*
X67012811Y-83076500D01*
X67079850Y-83096185D01*
X67125605Y-83148989D01*
X67135549Y-83218147D01*
X67106524Y-83281703D01*
X67100492Y-83288181D01*
X62886803Y-87501870D01*
X62882814Y-87505525D01*
X62851805Y-87531545D01*
X62831562Y-87566606D01*
X62828656Y-87571166D01*
X62805446Y-87604313D01*
X62803206Y-87609117D01*
X62796229Y-87625961D01*
X62794410Y-87630959D01*
X62787383Y-87670811D01*
X62786212Y-87676091D01*
X62775735Y-87715191D01*
X62779264Y-87755513D01*
X62779500Y-87760920D01*
X62779500Y-88324417D01*
X62759815Y-88391456D01*
X62707011Y-88437211D01*
X62702951Y-88438979D01*
X62701045Y-88439768D01*
X62628743Y-88478415D01*
X62518550Y-88537315D01*
X62518548Y-88537316D01*
X62518547Y-88537317D01*
X62358589Y-88668589D01*
X62227317Y-88828547D01*
X62129769Y-89011043D01*
X62069699Y-89209067D01*
X62049417Y-89415000D01*
X62069699Y-89620932D01*
X62077096Y-89645315D01*
X62129768Y-89818954D01*
X62227315Y-90001450D01*
X62255222Y-90035455D01*
X62358589Y-90161410D01*
X62402979Y-90197839D01*
X62518550Y-90292685D01*
X62701046Y-90390232D01*
X62899066Y-90450300D01*
X62899065Y-90450300D01*
X62917529Y-90452118D01*
X63105000Y-90470583D01*
X63310934Y-90450300D01*
X63508954Y-90390232D01*
X63691450Y-90292685D01*
X63851410Y-90161410D01*
X63982685Y-90001450D01*
X64080232Y-89818954D01*
X64140300Y-89620934D01*
X64160583Y-89415000D01*
X64140300Y-89209066D01*
X64080232Y-89011046D01*
X63982685Y-88828550D01*
X63901833Y-88730031D01*
X63851410Y-88668589D01*
X63710733Y-88553140D01*
X63691450Y-88537315D01*
X63508954Y-88439768D01*
X63507049Y-88438979D01*
X63506203Y-88438298D01*
X63503581Y-88436896D01*
X63503846Y-88436398D01*
X63452645Y-88395138D01*
X63430579Y-88328844D01*
X63430500Y-88324417D01*
X63430500Y-87930188D01*
X63450185Y-87863149D01*
X63466819Y-87842507D01*
X67746508Y-83562819D01*
X67807831Y-83529334D01*
X67834189Y-83526500D01*
X68721812Y-83526500D01*
X68788851Y-83546185D01*
X68834606Y-83598989D01*
X68844550Y-83668147D01*
X68815525Y-83731703D01*
X68809493Y-83738180D01*
X67079526Y-85468147D01*
X65426803Y-87120870D01*
X65422814Y-87124525D01*
X65391805Y-87150545D01*
X65371562Y-87185606D01*
X65368656Y-87190166D01*
X65345446Y-87223313D01*
X65343206Y-87228117D01*
X65336229Y-87244961D01*
X65334410Y-87249959D01*
X65327383Y-87289811D01*
X65326212Y-87295091D01*
X65315735Y-87334191D01*
X65319264Y-87374513D01*
X65319500Y-87379920D01*
X65319500Y-88324417D01*
X65299815Y-88391456D01*
X65247011Y-88437211D01*
X65242951Y-88438979D01*
X65241045Y-88439768D01*
X65168743Y-88478415D01*
X65058550Y-88537315D01*
X65058548Y-88537316D01*
X65058547Y-88537317D01*
X64898589Y-88668589D01*
X64767317Y-88828547D01*
X64669769Y-89011043D01*
X64609699Y-89209067D01*
X64589417Y-89415000D01*
X64609699Y-89620932D01*
X64617096Y-89645315D01*
X64669768Y-89818954D01*
X64767315Y-90001450D01*
X64795222Y-90035455D01*
X64898589Y-90161410D01*
X64942979Y-90197839D01*
X65058550Y-90292685D01*
X65241046Y-90390232D01*
X65439066Y-90450300D01*
X65439065Y-90450300D01*
X65457529Y-90452118D01*
X65645000Y-90470583D01*
X65850934Y-90450300D01*
X66048954Y-90390232D01*
X66231450Y-90292685D01*
X66391410Y-90161410D01*
X66522685Y-90001450D01*
X66620232Y-89818954D01*
X66680300Y-89620934D01*
X66700583Y-89415000D01*
X66680300Y-89209066D01*
X66620232Y-89011046D01*
X66522685Y-88828550D01*
X66441833Y-88730031D01*
X66391410Y-88668589D01*
X66250733Y-88553140D01*
X66231450Y-88537315D01*
X66048954Y-88439768D01*
X66047049Y-88438979D01*
X66046203Y-88438298D01*
X66043581Y-88436896D01*
X66043846Y-88436398D01*
X65992645Y-88395138D01*
X65970579Y-88328844D01*
X65970500Y-88324417D01*
X65970500Y-87549188D01*
X65990185Y-87482149D01*
X66006819Y-87461507D01*
X69455507Y-84012819D01*
X69516830Y-83979334D01*
X69543188Y-83976500D01*
X70303812Y-83976500D01*
X70370851Y-83996185D01*
X70416606Y-84048989D01*
X70426550Y-84118147D01*
X70397525Y-84181703D01*
X70391494Y-84188179D01*
X69111526Y-85468147D01*
X67966803Y-86612870D01*
X67962814Y-86616525D01*
X67931805Y-86642545D01*
X67911562Y-86677606D01*
X67908656Y-86682166D01*
X67885446Y-86715313D01*
X67883206Y-86720117D01*
X67876229Y-86736961D01*
X67874410Y-86741959D01*
X67867383Y-86781811D01*
X67866212Y-86787091D01*
X67855735Y-86826191D01*
X67859264Y-86866513D01*
X67859500Y-86871920D01*
X67859500Y-88324417D01*
X67839815Y-88391456D01*
X67787011Y-88437211D01*
X67782951Y-88438979D01*
X67781045Y-88439768D01*
X67708743Y-88478415D01*
X67598550Y-88537315D01*
X67598548Y-88537316D01*
X67598547Y-88537317D01*
X67438589Y-88668589D01*
X67307317Y-88828547D01*
X67209769Y-89011043D01*
X67149699Y-89209067D01*
X67129417Y-89415000D01*
X67149699Y-89620932D01*
X67157096Y-89645315D01*
X67209768Y-89818954D01*
X67307315Y-90001450D01*
X67335222Y-90035455D01*
X67438589Y-90161410D01*
X67482979Y-90197839D01*
X67598550Y-90292685D01*
X67781046Y-90390232D01*
X67979066Y-90450300D01*
X67979065Y-90450300D01*
X67997529Y-90452118D01*
X68185000Y-90470583D01*
X68390934Y-90450300D01*
X68588954Y-90390232D01*
X68771450Y-90292685D01*
X68931410Y-90161410D01*
X69062685Y-90001450D01*
X69160232Y-89818954D01*
X69220300Y-89620934D01*
X69240583Y-89415000D01*
X69220300Y-89209066D01*
X69160232Y-89011046D01*
X69062685Y-88828550D01*
X68981833Y-88730031D01*
X68931410Y-88668589D01*
X68790733Y-88553140D01*
X68771450Y-88537315D01*
X68588954Y-88439768D01*
X68587049Y-88438979D01*
X68586203Y-88438298D01*
X68583581Y-88436896D01*
X68583846Y-88436398D01*
X68532645Y-88395138D01*
X68510579Y-88328844D01*
X68510500Y-88324417D01*
X68510500Y-87041188D01*
X68530185Y-86974149D01*
X68546819Y-86953507D01*
X71037507Y-84462819D01*
X71098830Y-84429334D01*
X71125188Y-84426500D01*
X74044812Y-84426500D01*
X74111851Y-84446185D01*
X74157606Y-84498989D01*
X74167550Y-84568147D01*
X74138525Y-84631703D01*
X74132493Y-84638180D01*
X72157803Y-86612870D01*
X70506803Y-88263870D01*
X70502814Y-88267525D01*
X70471805Y-88293545D01*
X70451562Y-88328606D01*
X70448656Y-88333166D01*
X70419224Y-88375201D01*
X70417845Y-88374235D01*
X70379973Y-88417243D01*
X70349767Y-88431055D01*
X70321045Y-88439767D01*
X70176016Y-88517288D01*
X70138550Y-88537315D01*
X70138548Y-88537316D01*
X70138547Y-88537317D01*
X69978589Y-88668589D01*
X69847317Y-88828547D01*
X69749769Y-89011043D01*
X69689699Y-89209067D01*
X69669417Y-89415000D01*
X69689699Y-89620932D01*
X69697096Y-89645315D01*
X69749768Y-89818954D01*
X69847315Y-90001450D01*
X69875222Y-90035455D01*
X69978589Y-90161410D01*
X70022979Y-90197839D01*
X70138550Y-90292685D01*
X70321046Y-90390232D01*
X70519066Y-90450300D01*
X70519065Y-90450300D01*
X70537529Y-90452118D01*
X70725000Y-90470583D01*
X70930934Y-90450300D01*
X71128954Y-90390232D01*
X71311450Y-90292685D01*
X71471410Y-90161410D01*
X71602685Y-90001450D01*
X71700232Y-89818954D01*
X71760300Y-89620934D01*
X71780583Y-89415000D01*
X71760300Y-89209066D01*
X71700232Y-89011046D01*
X71602685Y-88828550D01*
X71471410Y-88668590D01*
X71471409Y-88668589D01*
X71330734Y-88553140D01*
X71291400Y-88495395D01*
X71289529Y-88425550D01*
X71321716Y-88369608D01*
X74778507Y-84912819D01*
X74839830Y-84879334D01*
X74866188Y-84876500D01*
X76388812Y-84876500D01*
X76455851Y-84896185D01*
X76501606Y-84948989D01*
X76511550Y-85018147D01*
X76482525Y-85081703D01*
X76476493Y-85088181D01*
X73230102Y-88334570D01*
X73168779Y-88368055D01*
X73154576Y-88370292D01*
X73059067Y-88379699D01*
X72907917Y-88425550D01*
X72861050Y-88439767D01*
X72861043Y-88439769D01*
X72788743Y-88478415D01*
X72678550Y-88537315D01*
X72678548Y-88537316D01*
X72678547Y-88537317D01*
X72518589Y-88668589D01*
X72387317Y-88828547D01*
X72289769Y-89011043D01*
X72229699Y-89209067D01*
X72209417Y-89415000D01*
X72229699Y-89620932D01*
X72237096Y-89645315D01*
X72289768Y-89818954D01*
X72387315Y-90001450D01*
X72415222Y-90035455D01*
X72518589Y-90161410D01*
X72562979Y-90197839D01*
X72678550Y-90292685D01*
X72861046Y-90390232D01*
X73059066Y-90450300D01*
X73059065Y-90450300D01*
X73077529Y-90452118D01*
X73265000Y-90470583D01*
X73470934Y-90450300D01*
X73668954Y-90390232D01*
X73851450Y-90292685D01*
X74011410Y-90161410D01*
X74142685Y-90001450D01*
X74240232Y-89818954D01*
X74300300Y-89620934D01*
X74320583Y-89415000D01*
X74300300Y-89209066D01*
X74240232Y-89011046D01*
X74142685Y-88828550D01*
X74011410Y-88668590D01*
X74010243Y-88667632D01*
X74009795Y-88666975D01*
X74007107Y-88664287D01*
X74007616Y-88663777D01*
X73970909Y-88609890D01*
X73969036Y-88540046D01*
X74001224Y-88484100D01*
X77122507Y-85362819D01*
X77183830Y-85329334D01*
X77210188Y-85326500D01*
X84213812Y-85326500D01*
X84280851Y-85346185D01*
X84326606Y-85398989D01*
X84336550Y-85468147D01*
X84307525Y-85531703D01*
X84301493Y-85538181D01*
X81425994Y-88413678D01*
X81364671Y-88447163D01*
X81294979Y-88442179D01*
X81290862Y-88440559D01*
X81288962Y-88439772D01*
X81288954Y-88439768D01*
X81090934Y-88379700D01*
X81090932Y-88379699D01*
X81090934Y-88379699D01*
X80885000Y-88359417D01*
X80679067Y-88379699D01*
X80527917Y-88425550D01*
X80481050Y-88439767D01*
X80481043Y-88439769D01*
X80408743Y-88478415D01*
X80298550Y-88537315D01*
X80298548Y-88537316D01*
X80298547Y-88537317D01*
X80138589Y-88668589D01*
X80007317Y-88828547D01*
X79909769Y-89011043D01*
X79849699Y-89209067D01*
X79829417Y-89415000D01*
X79849699Y-89620932D01*
X79857096Y-89645315D01*
X79909768Y-89818954D01*
X80007315Y-90001450D01*
X80035222Y-90035455D01*
X80138589Y-90161410D01*
X80182979Y-90197839D01*
X80298550Y-90292685D01*
X80481046Y-90390232D01*
X80679066Y-90450300D01*
X80679065Y-90450300D01*
X80697529Y-90452118D01*
X80885000Y-90470583D01*
X81090934Y-90450300D01*
X81288954Y-90390232D01*
X81471450Y-90292685D01*
X81631410Y-90161410D01*
X81762685Y-90001450D01*
X81860232Y-89818954D01*
X81920300Y-89620934D01*
X81940583Y-89415000D01*
X81920300Y-89209066D01*
X81860232Y-89011046D01*
X81860227Y-89011038D01*
X81859439Y-89009132D01*
X81859322Y-89008051D01*
X81858463Y-89005217D01*
X81859000Y-89005053D01*
X81851973Y-88939663D01*
X81883250Y-88877185D01*
X81886292Y-88874032D01*
X84947507Y-85812819D01*
X85008830Y-85779334D01*
X85035188Y-85776500D01*
X86303811Y-85776500D01*
X86370850Y-85796185D01*
X86416605Y-85848989D01*
X86426549Y-85918147D01*
X86397524Y-85981703D01*
X86391492Y-85988181D01*
X83965994Y-88413678D01*
X83904671Y-88447163D01*
X83834979Y-88442179D01*
X83830862Y-88440559D01*
X83828962Y-88439772D01*
X83828954Y-88439768D01*
X83630934Y-88379700D01*
X83630932Y-88379699D01*
X83630934Y-88379699D01*
X83425000Y-88359417D01*
X83219067Y-88379699D01*
X83067917Y-88425550D01*
X83021050Y-88439767D01*
X83021043Y-88439769D01*
X82948743Y-88478415D01*
X82838550Y-88537315D01*
X82838548Y-88537316D01*
X82838547Y-88537317D01*
X82678589Y-88668589D01*
X82547317Y-88828547D01*
X82449769Y-89011043D01*
X82389699Y-89209067D01*
X82369417Y-89415000D01*
X82389699Y-89620932D01*
X82397096Y-89645315D01*
X82449766Y-89818948D01*
X82449769Y-89818956D01*
X82460992Y-89839952D01*
X82547287Y-90001398D01*
X82547317Y-90001453D01*
X82596871Y-90061835D01*
X82624184Y-90126145D01*
X82612393Y-90195013D01*
X82565240Y-90246573D01*
X82501018Y-90264500D01*
X82266923Y-90264500D01*
X82261519Y-90264264D01*
X82255618Y-90263747D01*
X82221192Y-90260735D01*
X82182090Y-90271213D01*
X82176809Y-90272384D01*
X82136955Y-90279412D01*
X82131962Y-90281229D01*
X82115117Y-90288206D01*
X82110313Y-90290446D01*
X82077166Y-90313656D01*
X82072606Y-90316562D01*
X82037548Y-90336804D01*
X82037545Y-90336806D01*
X82037543Y-90336808D01*
X82037541Y-90336810D01*
X82011524Y-90367815D01*
X82007868Y-90371804D01*
X81758742Y-90620932D01*
X81511493Y-90868181D01*
X81450170Y-90901666D01*
X81423812Y-90904500D01*
X80015247Y-90904500D01*
X79956770Y-90916131D01*
X79956769Y-90916132D01*
X79890447Y-90960447D01*
X79846132Y-91026769D01*
X79846131Y-91026770D01*
X79834500Y-91085247D01*
X79834500Y-92824752D01*
X79846131Y-92883229D01*
X79846132Y-92883230D01*
X79890447Y-92949552D01*
X79956769Y-92993867D01*
X79956770Y-92993868D01*
X80015247Y-93005499D01*
X80015250Y-93005500D01*
X80015252Y-93005500D01*
X81754750Y-93005500D01*
X81754751Y-93005499D01*
X81780624Y-93000353D01*
X81813229Y-92993868D01*
X81813229Y-92993867D01*
X81813231Y-92993867D01*
X81879552Y-92949552D01*
X81923867Y-92883231D01*
X81923867Y-92883229D01*
X81923868Y-92883229D01*
X81934417Y-92830191D01*
X81935500Y-92824748D01*
X81935500Y-91416188D01*
X81955185Y-91349149D01*
X81971819Y-91328507D01*
X82348507Y-90951819D01*
X82409830Y-90918334D01*
X82436188Y-90915500D01*
X82689164Y-90915500D01*
X82756203Y-90935185D01*
X82801958Y-90987989D01*
X82811902Y-91057147D01*
X82782877Y-91120703D01*
X82767829Y-91135353D01*
X82678590Y-91208589D01*
X82550371Y-91364826D01*
X82547315Y-91368550D01*
X82521852Y-91416188D01*
X82449769Y-91551043D01*
X82389699Y-91749067D01*
X82369417Y-91955000D01*
X82389699Y-92160932D01*
X82398452Y-92189786D01*
X82449768Y-92358954D01*
X82547315Y-92541450D01*
X82571537Y-92570965D01*
X82678589Y-92701410D01*
X82732873Y-92745959D01*
X82838550Y-92832685D01*
X83021046Y-92930232D01*
X83021051Y-92930233D01*
X83022951Y-92931021D01*
X83023796Y-92931701D01*
X83026419Y-92933104D01*
X83026153Y-92933601D01*
X83077355Y-92974862D01*
X83099421Y-93041156D01*
X83099500Y-93045583D01*
X83099500Y-93907811D01*
X83079815Y-93974850D01*
X83063181Y-93995492D01*
X77476803Y-99581870D01*
X77472814Y-99585525D01*
X77441805Y-99611545D01*
X77421562Y-99646606D01*
X77418656Y-99651166D01*
X77395446Y-99684313D01*
X77393206Y-99689117D01*
X77386229Y-99705961D01*
X77384410Y-99710959D01*
X77377383Y-99750811D01*
X77376212Y-99756091D01*
X77365735Y-99795191D01*
X77369264Y-99835513D01*
X77369500Y-99840920D01*
X77369500Y-112247600D01*
X77349815Y-112314639D01*
X77297011Y-112360394D01*
X77245500Y-112371600D01*
X76874500Y-112371600D01*
X76807461Y-112351915D01*
X76761706Y-112299111D01*
X76750500Y-112247600D01*
X76750500Y-103567298D01*
X76770185Y-103500259D01*
X76799010Y-103468925D01*
X76853282Y-103427282D01*
X76949536Y-103301841D01*
X77010044Y-103155762D01*
X77027050Y-103026585D01*
X77030682Y-102999001D01*
X77030682Y-102998998D01*
X77014992Y-102879824D01*
X77010044Y-102842238D01*
X76949536Y-102696159D01*
X76853282Y-102570718D01*
X76727841Y-102474464D01*
X76644333Y-102439874D01*
X76581762Y-102413956D01*
X76581760Y-102413955D01*
X76425001Y-102393318D01*
X76424999Y-102393318D01*
X76268239Y-102413955D01*
X76268237Y-102413956D01*
X76122160Y-102474463D01*
X75996718Y-102570718D01*
X75900463Y-102696160D01*
X75839956Y-102842237D01*
X75839955Y-102842239D01*
X75819318Y-102998998D01*
X75819318Y-102999001D01*
X75822950Y-103026585D01*
X75837600Y-103137870D01*
X75840650Y-103161032D01*
X75829884Y-103230067D01*
X75783505Y-103282323D01*
X75716236Y-103301208D01*
X75649435Y-103280727D01*
X75619336Y-103252704D01*
X75601966Y-103230067D01*
X75583282Y-103205718D01*
X75457841Y-103109464D01*
X75311762Y-103048956D01*
X75311760Y-103048955D01*
X75155001Y-103028318D01*
X75154999Y-103028318D01*
X74998239Y-103048955D01*
X74998237Y-103048956D01*
X74852160Y-103109463D01*
X74726718Y-103205718D01*
X74630463Y-103331160D01*
X74569956Y-103477237D01*
X74569955Y-103477239D01*
X74549318Y-103633998D01*
X74549318Y-103634001D01*
X74569955Y-103790760D01*
X74569956Y-103790762D01*
X74627892Y-103930633D01*
X74630464Y-103936841D01*
X74726718Y-104062282D01*
X74780987Y-104103924D01*
X74822189Y-104160349D01*
X74829500Y-104202298D01*
X74829500Y-112247600D01*
X74809815Y-112314639D01*
X74757011Y-112360394D01*
X74705500Y-112371600D01*
X74334500Y-112371600D01*
X74267461Y-112351915D01*
X74221706Y-112299111D01*
X74210500Y-112247600D01*
X74210500Y-105218298D01*
X74230185Y-105151259D01*
X74259010Y-105119925D01*
X74313282Y-105078282D01*
X74409536Y-104952841D01*
X74470044Y-104806762D01*
X74490682Y-104650000D01*
X74470044Y-104493238D01*
X74409536Y-104347159D01*
X74313282Y-104221718D01*
X74187841Y-104125464D01*
X74158216Y-104113193D01*
X74041762Y-104064956D01*
X74041760Y-104064955D01*
X73885001Y-104044318D01*
X73884999Y-104044318D01*
X73728239Y-104064955D01*
X73728237Y-104064956D01*
X73582160Y-104125463D01*
X73456718Y-104221718D01*
X73360463Y-104347160D01*
X73299956Y-104493237D01*
X73299955Y-104493239D01*
X73279318Y-104649998D01*
X73279318Y-104650001D01*
X73299955Y-104806760D01*
X73299956Y-104806762D01*
X73352165Y-104932807D01*
X73360464Y-104952841D01*
X73456718Y-105078282D01*
X73510987Y-105119924D01*
X73552189Y-105176349D01*
X73559500Y-105218298D01*
X73559500Y-112247600D01*
X73539815Y-112314639D01*
X73487011Y-112360394D01*
X73435500Y-112371600D01*
X73064500Y-112371600D01*
X72997461Y-112351915D01*
X72951706Y-112299111D01*
X72940500Y-112247600D01*
X72940500Y-106023998D01*
X72960185Y-105956959D01*
X72989010Y-105925625D01*
X73043282Y-105883982D01*
X73139536Y-105758541D01*
X73200044Y-105612462D01*
X73220682Y-105455700D01*
X73216598Y-105424682D01*
X73204330Y-105331493D01*
X73200044Y-105298938D01*
X73139536Y-105152859D01*
X73043282Y-105027418D01*
X72917841Y-104931164D01*
X72771762Y-104870656D01*
X72771760Y-104870655D01*
X72615001Y-104850018D01*
X72614999Y-104850018D01*
X72458239Y-104870655D01*
X72458237Y-104870656D01*
X72312160Y-104931163D01*
X72186718Y-105027418D01*
X72090463Y-105152860D01*
X72029956Y-105298937D01*
X72029955Y-105298939D01*
X72009318Y-105455698D01*
X72009318Y-105455701D01*
X72029955Y-105612460D01*
X72029956Y-105612462D01*
X72087720Y-105751918D01*
X72090464Y-105758541D01*
X72186718Y-105883982D01*
X72240987Y-105925624D01*
X72282189Y-105982049D01*
X72289500Y-106023998D01*
X72289500Y-112247600D01*
X72269815Y-112314639D01*
X72217011Y-112360394D01*
X72165500Y-112371600D01*
X71794500Y-112371600D01*
X71727461Y-112351915D01*
X71681706Y-112299111D01*
X71670500Y-112247600D01*
X71670500Y-106748498D01*
X71690185Y-106681459D01*
X71719010Y-106650125D01*
X71773282Y-106608482D01*
X71869536Y-106483041D01*
X71930044Y-106336962D01*
X71950682Y-106180200D01*
X71930044Y-106023438D01*
X71869536Y-105877359D01*
X71773282Y-105751918D01*
X71647841Y-105655664D01*
X71590834Y-105632051D01*
X71501762Y-105595156D01*
X71501760Y-105595155D01*
X71345001Y-105574518D01*
X71344999Y-105574518D01*
X71188239Y-105595155D01*
X71188237Y-105595156D01*
X71042160Y-105655663D01*
X70916718Y-105751918D01*
X70820463Y-105877360D01*
X70759956Y-106023437D01*
X70759955Y-106023439D01*
X70739318Y-106180198D01*
X70739318Y-106180201D01*
X70759955Y-106336960D01*
X70759956Y-106336962D01*
X70817720Y-106476418D01*
X70820464Y-106483041D01*
X70916718Y-106608482D01*
X70970987Y-106650124D01*
X71012189Y-106706549D01*
X71019500Y-106748498D01*
X71019500Y-112247600D01*
X70999815Y-112314639D01*
X70947011Y-112360394D01*
X70895500Y-112371600D01*
X70524500Y-112371600D01*
X70457461Y-112351915D01*
X70411706Y-112299111D01*
X70400500Y-112247600D01*
X70400500Y-107472998D01*
X70420185Y-107405959D01*
X70449010Y-107374625D01*
X70503282Y-107332982D01*
X70599536Y-107207541D01*
X70660044Y-107061462D01*
X70680577Y-106905495D01*
X70680682Y-106904701D01*
X70680682Y-106904698D01*
X70660044Y-106747939D01*
X70660044Y-106747938D01*
X70599536Y-106601859D01*
X70503282Y-106476418D01*
X70377841Y-106380164D01*
X70273537Y-106336960D01*
X70231762Y-106319656D01*
X70231760Y-106319655D01*
X70075001Y-106299018D01*
X70074999Y-106299018D01*
X69918239Y-106319655D01*
X69918237Y-106319656D01*
X69772160Y-106380163D01*
X69646718Y-106476418D01*
X69550463Y-106601860D01*
X69489956Y-106747937D01*
X69489955Y-106747939D01*
X69469318Y-106904698D01*
X69469318Y-106904701D01*
X69489955Y-107061460D01*
X69489956Y-107061462D01*
X69550464Y-107207541D01*
X69646718Y-107332982D01*
X69700987Y-107374624D01*
X69742189Y-107431049D01*
X69749500Y-107472998D01*
X69749500Y-112098259D01*
X69729815Y-112165298D01*
X69677011Y-112211053D01*
X69607853Y-112220997D01*
X69575581Y-112210256D01*
X69575399Y-112210746D01*
X69432379Y-112157403D01*
X69432372Y-112157401D01*
X69372844Y-112151000D01*
X69055000Y-112151000D01*
X69055000Y-112247600D01*
X69035315Y-112314639D01*
X68982511Y-112360394D01*
X68931000Y-112371600D01*
X68679000Y-112371600D01*
X68611961Y-112351915D01*
X68566206Y-112299111D01*
X68555000Y-112247600D01*
X68555000Y-112151000D01*
X68237155Y-112151000D01*
X68177627Y-112157401D01*
X68177620Y-112157403D01*
X68042913Y-112207645D01*
X68042910Y-112207647D01*
X67921456Y-112298568D01*
X67855992Y-112322985D01*
X67799693Y-112313862D01*
X67691765Y-112269157D01*
X67691760Y-112269155D01*
X67535001Y-112248518D01*
X67534999Y-112248518D01*
X67378239Y-112269155D01*
X67378234Y-112269157D01*
X67232163Y-112329661D01*
X67232157Y-112329664D01*
X67210902Y-112345975D01*
X67145733Y-112371170D01*
X67135415Y-112371600D01*
X66664585Y-112371600D01*
X66597546Y-112351915D01*
X66589098Y-112345975D01*
X66567842Y-112329664D01*
X66567836Y-112329661D01*
X66421765Y-112269157D01*
X66421760Y-112269155D01*
X66265001Y-112248518D01*
X66264999Y-112248518D01*
X66108239Y-112269155D01*
X66108234Y-112269157D01*
X65962163Y-112329661D01*
X65962157Y-112329664D01*
X65940902Y-112345975D01*
X65875733Y-112371170D01*
X65865415Y-112371600D01*
X65394585Y-112371600D01*
X65327546Y-112351915D01*
X65319098Y-112345975D01*
X65297842Y-112329664D01*
X65297836Y-112329661D01*
X65151765Y-112269157D01*
X65151760Y-112269155D01*
X64995001Y-112248518D01*
X64994999Y-112248518D01*
X64838239Y-112269155D01*
X64838234Y-112269157D01*
X64692163Y-112329661D01*
X64692157Y-112329664D01*
X64670902Y-112345975D01*
X64605733Y-112371170D01*
X64595415Y-112371600D01*
X64124585Y-112371600D01*
X64057546Y-112351915D01*
X64049098Y-112345975D01*
X64027842Y-112329664D01*
X64027836Y-112329661D01*
X63881765Y-112269157D01*
X63881760Y-112269155D01*
X63725001Y-112248518D01*
X63724999Y-112248518D01*
X63568239Y-112269155D01*
X63568234Y-112269157D01*
X63422163Y-112329661D01*
X63422157Y-112329664D01*
X63400902Y-112345975D01*
X63335733Y-112371170D01*
X63325415Y-112371600D01*
X62854585Y-112371600D01*
X62787546Y-112351915D01*
X62779098Y-112345975D01*
X62757842Y-112329664D01*
X62757836Y-112329661D01*
X62611765Y-112269157D01*
X62611760Y-112269155D01*
X62455001Y-112248518D01*
X62454999Y-112248518D01*
X62298239Y-112269155D01*
X62298234Y-112269157D01*
X62152163Y-112329661D01*
X62152157Y-112329664D01*
X62130902Y-112345975D01*
X62065733Y-112371170D01*
X62055415Y-112371600D01*
X61584585Y-112371600D01*
X61517546Y-112351915D01*
X61509098Y-112345975D01*
X61487842Y-112329664D01*
X61487836Y-112329661D01*
X61341765Y-112269157D01*
X61341760Y-112269155D01*
X61185001Y-112248518D01*
X61184999Y-112248518D01*
X61028239Y-112269155D01*
X61028234Y-112269157D01*
X60882163Y-112329661D01*
X60882157Y-112329664D01*
X60860902Y-112345975D01*
X60795733Y-112371170D01*
X60785415Y-112371600D01*
X60314585Y-112371600D01*
X60247546Y-112351915D01*
X60239098Y-112345975D01*
X60217842Y-112329664D01*
X60217836Y-112329661D01*
X60071765Y-112269157D01*
X60071760Y-112269155D01*
X59915001Y-112248518D01*
X59914999Y-112248518D01*
X59758239Y-112269155D01*
X59758234Y-112269157D01*
X59612163Y-112329661D01*
X59612157Y-112329664D01*
X59590902Y-112345975D01*
X59525733Y-112371170D01*
X59515415Y-112371600D01*
X59044585Y-112371600D01*
X58977546Y-112351915D01*
X58969098Y-112345975D01*
X58947842Y-112329664D01*
X58947836Y-112329661D01*
X58801765Y-112269157D01*
X58801760Y-112269155D01*
X58645001Y-112248518D01*
X58644999Y-112248518D01*
X58488239Y-112269155D01*
X58488234Y-112269157D01*
X58342163Y-112329661D01*
X58342157Y-112329664D01*
X58320902Y-112345975D01*
X58255733Y-112371170D01*
X58245415Y-112371600D01*
X57774585Y-112371600D01*
X57707546Y-112351915D01*
X57699098Y-112345975D01*
X57677842Y-112329664D01*
X57677836Y-112329661D01*
X57531765Y-112269157D01*
X57531760Y-112269155D01*
X57375001Y-112248518D01*
X57374999Y-112248518D01*
X57218239Y-112269155D01*
X57218234Y-112269157D01*
X57072163Y-112329661D01*
X57072157Y-112329664D01*
X57050902Y-112345975D01*
X56985733Y-112371170D01*
X56975415Y-112371600D01*
X56613000Y-112371600D01*
X56613000Y-115295500D01*
X56593315Y-115362539D01*
X56540511Y-115408294D01*
X56489000Y-115419500D01*
X53694281Y-115419500D01*
X53687343Y-115419110D01*
X53612824Y-115410714D01*
X53569057Y-115405783D01*
X53541988Y-115399605D01*
X53439533Y-115363754D01*
X53414519Y-115351708D01*
X53322610Y-115293957D01*
X53300902Y-115276645D01*
X53224154Y-115199897D01*
X53206842Y-115178189D01*
X53149091Y-115086280D01*
X53137046Y-115061270D01*
X53101192Y-114958804D01*
X53095016Y-114931745D01*
X53081689Y-114813458D01*
X53081300Y-114806518D01*
X53081300Y-110693010D01*
X53081384Y-110692482D01*
X53081300Y-110664923D01*
X53081300Y-110648253D01*
X53081249Y-110647758D01*
X53080968Y-110551031D01*
X53047924Y-110325658D01*
X52983204Y-110107264D01*
X52983201Y-110107258D01*
X52983200Y-110107254D01*
X52933431Y-109998916D01*
X52888119Y-109900277D01*
X52888116Y-109900273D01*
X52888115Y-109900270D01*
X52764599Y-109708896D01*
X52764598Y-109708894D01*
X52615146Y-109536996D01*
X52549694Y-109480441D01*
X52442792Y-109388069D01*
X52251030Y-109265134D01*
X52043753Y-109170682D01*
X52043754Y-109170682D01*
X51867952Y-109119169D01*
X51825164Y-109106631D01*
X51825162Y-109106630D01*
X51825161Y-109106630D01*
X51599685Y-109074276D01*
X51486089Y-109074292D01*
X51306876Y-109070122D01*
X51303222Y-109069500D01*
X51289561Y-109069500D01*
X51270165Y-109067973D01*
X51228587Y-109061388D01*
X51191693Y-109049401D01*
X51162987Y-109034774D01*
X51131603Y-109011972D01*
X51108827Y-108989196D01*
X51086025Y-108957814D01*
X51071397Y-108929102D01*
X51059412Y-108892217D01*
X51052825Y-108850631D01*
X51051300Y-108831241D01*
X51051300Y-105285000D01*
X52785782Y-105285000D01*
X52805726Y-105538424D01*
X52865070Y-105785613D01*
X52962352Y-106020473D01*
X53095174Y-106237217D01*
X53095180Y-106237226D01*
X53260271Y-106430523D01*
X53260276Y-106430528D01*
X53439374Y-106583492D01*
X53453577Y-106595622D01*
X53474081Y-106608187D01*
X53670326Y-106728447D01*
X53905186Y-106825729D01*
X53923968Y-106830238D01*
X54152373Y-106885073D01*
X54405800Y-106905018D01*
X54659227Y-106885073D01*
X54906413Y-106825729D01*
X55141273Y-106728447D01*
X55358023Y-106595622D01*
X55551326Y-106430526D01*
X55716422Y-106237223D01*
X55849247Y-106020473D01*
X55946529Y-105785613D01*
X56005873Y-105538427D01*
X56025818Y-105285000D01*
X56005873Y-105031573D01*
X55946529Y-104784387D01*
X55946469Y-104784240D01*
X55849247Y-104549526D01*
X55716425Y-104332782D01*
X55716419Y-104332773D01*
X55551328Y-104139476D01*
X55551323Y-104139471D01*
X55358026Y-103974380D01*
X55358017Y-103974374D01*
X55141273Y-103841552D01*
X54906413Y-103744270D01*
X54659223Y-103684926D01*
X54659224Y-103684926D01*
X54405800Y-103664982D01*
X54152375Y-103684926D01*
X53905186Y-103744270D01*
X53670326Y-103841552D01*
X53453582Y-103974374D01*
X53453573Y-103974380D01*
X53260276Y-104139471D01*
X53260271Y-104139476D01*
X53095180Y-104332773D01*
X53095174Y-104332782D01*
X52962352Y-104549526D01*
X52865070Y-104784386D01*
X52805726Y-105031575D01*
X52785782Y-105285000D01*
X51051300Y-105285000D01*
X51051300Y-102725502D01*
X51051298Y-102725488D01*
X51051297Y-102713525D01*
X51050872Y-92824752D01*
X54434500Y-92824752D01*
X54446131Y-92883229D01*
X54446132Y-92883230D01*
X54490447Y-92949552D01*
X54556769Y-92993867D01*
X54556770Y-92993868D01*
X54615247Y-93005499D01*
X54615250Y-93005500D01*
X54615252Y-93005500D01*
X56354750Y-93005500D01*
X56354751Y-93005499D01*
X56380624Y-93000353D01*
X56413229Y-92993868D01*
X56413229Y-92993867D01*
X56413231Y-92993867D01*
X56479552Y-92949552D01*
X56523867Y-92883231D01*
X56523867Y-92883229D01*
X56523868Y-92883229D01*
X56534417Y-92830191D01*
X56535500Y-92824748D01*
X56535500Y-91955000D01*
X56969417Y-91955000D01*
X56989699Y-92160932D01*
X56998452Y-92189786D01*
X57049768Y-92358954D01*
X57147315Y-92541450D01*
X57171537Y-92570965D01*
X57278589Y-92701410D01*
X57332873Y-92745959D01*
X57438550Y-92832685D01*
X57621046Y-92930232D01*
X57621051Y-92930233D01*
X57622951Y-92931021D01*
X57623796Y-92931701D01*
X57626419Y-92933104D01*
X57626153Y-92933601D01*
X57677355Y-92974862D01*
X57699421Y-93041156D01*
X57699500Y-93045583D01*
X57699500Y-93921699D01*
X57679815Y-93988738D01*
X57650988Y-94020074D01*
X57596720Y-94061715D01*
X57500463Y-94187160D01*
X57439956Y-94333237D01*
X57439955Y-94333239D01*
X57419318Y-94489998D01*
X57419318Y-94490001D01*
X57439955Y-94646760D01*
X57439956Y-94646762D01*
X57497720Y-94786218D01*
X57500464Y-94792841D01*
X57596718Y-94918282D01*
X57722159Y-95014536D01*
X57868238Y-95075044D01*
X57946619Y-95085363D01*
X58024999Y-95095682D01*
X58025000Y-95095682D01*
X58025001Y-95095682D01*
X58077254Y-95088802D01*
X58181762Y-95075044D01*
X58327841Y-95014536D01*
X58453282Y-94918282D01*
X58549536Y-94792841D01*
X58610044Y-94646762D01*
X58630682Y-94490000D01*
X58624355Y-94441945D01*
X58610044Y-94333239D01*
X58610044Y-94333238D01*
X58549536Y-94187159D01*
X58453282Y-94061718D01*
X58453280Y-94061716D01*
X58453279Y-94061715D01*
X58399012Y-94020074D01*
X58357810Y-93963646D01*
X58350500Y-93921699D01*
X58350500Y-93045583D01*
X58370185Y-92978544D01*
X58422989Y-92932789D01*
X58427049Y-92931021D01*
X58428945Y-92930234D01*
X58428954Y-92930232D01*
X58611450Y-92832685D01*
X58771410Y-92701410D01*
X58902685Y-92541450D01*
X59000232Y-92358954D01*
X59060300Y-92160934D01*
X59080583Y-91955000D01*
X59509417Y-91955000D01*
X59529699Y-92160932D01*
X59538452Y-92189786D01*
X59589768Y-92358954D01*
X59687315Y-92541450D01*
X59711537Y-92570965D01*
X59818589Y-92701410D01*
X59872873Y-92745959D01*
X59978550Y-92832685D01*
X60161046Y-92930232D01*
X60161051Y-92930233D01*
X60162951Y-92931021D01*
X60163796Y-92931701D01*
X60166419Y-92933104D01*
X60166153Y-92933601D01*
X60217355Y-92974862D01*
X60239421Y-93041156D01*
X60239500Y-93045583D01*
X60239500Y-94646199D01*
X60219815Y-94713238D01*
X60190988Y-94744574D01*
X60136720Y-94786215D01*
X60040463Y-94911660D01*
X59979956Y-95057737D01*
X59979955Y-95057739D01*
X59959318Y-95214498D01*
X59959318Y-95214501D01*
X59979955Y-95371260D01*
X59979956Y-95371262D01*
X60037720Y-95510718D01*
X60040464Y-95517341D01*
X60136718Y-95642782D01*
X60262159Y-95739036D01*
X60408238Y-95799544D01*
X60472985Y-95808068D01*
X60564999Y-95820182D01*
X60565000Y-95820182D01*
X60565001Y-95820182D01*
X60617254Y-95813302D01*
X60721762Y-95799544D01*
X60867841Y-95739036D01*
X60993282Y-95642782D01*
X61089536Y-95517341D01*
X61150044Y-95371262D01*
X61170682Y-95214500D01*
X61169292Y-95203945D01*
X61150044Y-95057739D01*
X61150044Y-95057738D01*
X61089536Y-94911659D01*
X60993282Y-94786218D01*
X60993280Y-94786216D01*
X60993279Y-94786215D01*
X60939012Y-94744574D01*
X60897810Y-94688146D01*
X60890500Y-94646199D01*
X60890500Y-93045583D01*
X60910185Y-92978544D01*
X60962989Y-92932789D01*
X60967049Y-92931021D01*
X60968945Y-92930234D01*
X60968954Y-92930232D01*
X61151450Y-92832685D01*
X61311410Y-92701410D01*
X61442685Y-92541450D01*
X61540232Y-92358954D01*
X61600300Y-92160934D01*
X61620583Y-91955000D01*
X62049417Y-91955000D01*
X62069699Y-92160932D01*
X62078452Y-92189786D01*
X62129768Y-92358954D01*
X62227315Y-92541450D01*
X62251537Y-92570965D01*
X62358589Y-92701410D01*
X62412873Y-92745959D01*
X62518550Y-92832685D01*
X62701046Y-92930232D01*
X62701051Y-92930233D01*
X62702951Y-92931021D01*
X62703796Y-92931701D01*
X62706419Y-92933104D01*
X62706153Y-92933601D01*
X62757355Y-92974862D01*
X62779421Y-93041156D01*
X62779500Y-93045583D01*
X62779500Y-95370699D01*
X62759815Y-95437738D01*
X62730988Y-95469074D01*
X62676720Y-95510715D01*
X62580463Y-95636160D01*
X62519956Y-95782237D01*
X62519955Y-95782239D01*
X62499318Y-95938998D01*
X62499318Y-95939001D01*
X62519955Y-96095760D01*
X62519956Y-96095762D01*
X62580464Y-96241841D01*
X62676718Y-96367282D01*
X62802159Y-96463536D01*
X62948238Y-96524044D01*
X63026619Y-96534363D01*
X63104999Y-96544682D01*
X63105000Y-96544682D01*
X63105001Y-96544682D01*
X63157254Y-96537802D01*
X63261762Y-96524044D01*
X63407841Y-96463536D01*
X63533282Y-96367282D01*
X63629536Y-96241841D01*
X63690044Y-96095762D01*
X63710682Y-95939000D01*
X63690044Y-95782238D01*
X63629536Y-95636159D01*
X63533282Y-95510718D01*
X63533280Y-95510716D01*
X63533279Y-95510715D01*
X63479012Y-95469074D01*
X63437810Y-95412646D01*
X63430500Y-95370699D01*
X63430500Y-93045583D01*
X63450185Y-92978544D01*
X63502989Y-92932789D01*
X63507049Y-92931021D01*
X63508945Y-92930234D01*
X63508954Y-92930232D01*
X63691450Y-92832685D01*
X63851410Y-92701410D01*
X63982685Y-92541450D01*
X64080232Y-92358954D01*
X64140300Y-92160934D01*
X64160583Y-91955000D01*
X64589417Y-91955000D01*
X64609699Y-92160932D01*
X64618452Y-92189786D01*
X64669768Y-92358954D01*
X64767315Y-92541450D01*
X64791537Y-92570965D01*
X64898589Y-92701410D01*
X64952873Y-92745959D01*
X65058550Y-92832685D01*
X65241046Y-92930232D01*
X65241051Y-92930233D01*
X65242951Y-92931021D01*
X65243796Y-92931701D01*
X65246419Y-92933104D01*
X65246153Y-92933601D01*
X65297355Y-92974862D01*
X65319421Y-93041156D01*
X65319500Y-93045583D01*
X65319500Y-96170199D01*
X65299815Y-96237238D01*
X65270988Y-96268574D01*
X65216720Y-96310215D01*
X65120463Y-96435660D01*
X65059956Y-96581737D01*
X65059955Y-96581739D01*
X65039318Y-96738498D01*
X65039318Y-96738501D01*
X65059955Y-96895260D01*
X65059956Y-96895262D01*
X65108916Y-97013463D01*
X65120464Y-97041341D01*
X65216718Y-97166782D01*
X65342159Y-97263036D01*
X65488238Y-97323544D01*
X65566619Y-97333863D01*
X65644999Y-97344182D01*
X65645000Y-97344182D01*
X65645001Y-97344182D01*
X65697254Y-97337302D01*
X65801762Y-97323544D01*
X65947841Y-97263036D01*
X66073282Y-97166782D01*
X66169536Y-97041341D01*
X66230044Y-96895262D01*
X66250682Y-96738500D01*
X66230044Y-96581738D01*
X66169536Y-96435659D01*
X66073282Y-96310218D01*
X66073280Y-96310216D01*
X66073279Y-96310215D01*
X66019012Y-96268574D01*
X65977810Y-96212146D01*
X65970500Y-96170199D01*
X65970500Y-93045583D01*
X65990185Y-92978544D01*
X66042989Y-92932789D01*
X66047049Y-92931021D01*
X66048945Y-92930234D01*
X66048954Y-92930232D01*
X66231450Y-92832685D01*
X66391410Y-92701410D01*
X66522685Y-92541450D01*
X66620232Y-92358954D01*
X66680300Y-92160934D01*
X66700583Y-91955000D01*
X67129417Y-91955000D01*
X67149699Y-92160932D01*
X67158452Y-92189786D01*
X67209768Y-92358954D01*
X67307315Y-92541450D01*
X67331537Y-92570965D01*
X67438589Y-92701410D01*
X67492873Y-92745959D01*
X67598550Y-92832685D01*
X67781046Y-92930232D01*
X67781051Y-92930233D01*
X67782951Y-92931021D01*
X67783796Y-92931701D01*
X67786419Y-92933104D01*
X67786153Y-92933601D01*
X67837355Y-92974862D01*
X67859421Y-93041156D01*
X67859500Y-93045583D01*
X67859500Y-96932199D01*
X67839815Y-96999238D01*
X67810988Y-97030574D01*
X67756720Y-97072215D01*
X67660463Y-97197660D01*
X67599956Y-97343737D01*
X67599955Y-97343739D01*
X67579318Y-97500498D01*
X67579318Y-97500501D01*
X67599955Y-97657260D01*
X67599956Y-97657262D01*
X67648916Y-97775463D01*
X67660464Y-97803341D01*
X67756718Y-97928782D01*
X67882159Y-98025036D01*
X68028238Y-98085544D01*
X68106619Y-98095863D01*
X68184999Y-98106182D01*
X68185000Y-98106182D01*
X68185001Y-98106182D01*
X68237254Y-98099302D01*
X68341762Y-98085544D01*
X68487841Y-98025036D01*
X68613282Y-97928782D01*
X68709536Y-97803341D01*
X68770044Y-97657262D01*
X68790682Y-97500500D01*
X68770044Y-97343738D01*
X68709536Y-97197659D01*
X68613282Y-97072218D01*
X68613280Y-97072216D01*
X68613279Y-97072215D01*
X68559012Y-97030574D01*
X68517810Y-96974146D01*
X68510500Y-96932199D01*
X68510500Y-93045583D01*
X68530185Y-92978544D01*
X68582989Y-92932789D01*
X68587049Y-92931021D01*
X68588945Y-92930234D01*
X68588954Y-92930232D01*
X68771450Y-92832685D01*
X68931410Y-92701410D01*
X69062685Y-92541450D01*
X69160232Y-92358954D01*
X69220300Y-92160934D01*
X69240583Y-91955000D01*
X69669417Y-91955000D01*
X69689699Y-92160932D01*
X69698452Y-92189786D01*
X69749768Y-92358954D01*
X69847315Y-92541450D01*
X69871537Y-92570965D01*
X69978589Y-92701410D01*
X70032873Y-92745959D01*
X70138550Y-92832685D01*
X70321046Y-92930232D01*
X70321051Y-92930233D01*
X70322951Y-92931021D01*
X70323796Y-92931701D01*
X70326419Y-92933104D01*
X70326153Y-92933601D01*
X70377355Y-92974862D01*
X70399421Y-93041156D01*
X70399500Y-93045583D01*
X70399500Y-97694199D01*
X70379815Y-97761238D01*
X70350988Y-97792574D01*
X70296720Y-97834215D01*
X70200463Y-97959660D01*
X70139956Y-98105737D01*
X70139955Y-98105739D01*
X70119318Y-98262498D01*
X70119318Y-98262501D01*
X70139955Y-98419260D01*
X70139956Y-98419262D01*
X70188916Y-98537463D01*
X70200464Y-98565341D01*
X70296718Y-98690782D01*
X70422159Y-98787036D01*
X70568238Y-98847544D01*
X70646619Y-98857863D01*
X70724999Y-98868182D01*
X70725000Y-98868182D01*
X70725001Y-98868182D01*
X70777254Y-98861302D01*
X70881762Y-98847544D01*
X71027841Y-98787036D01*
X71153282Y-98690782D01*
X71249536Y-98565341D01*
X71310044Y-98419262D01*
X71330682Y-98262500D01*
X71310044Y-98105738D01*
X71249536Y-97959659D01*
X71153282Y-97834218D01*
X71153280Y-97834216D01*
X71153279Y-97834215D01*
X71099012Y-97792574D01*
X71057810Y-97736146D01*
X71050500Y-97694199D01*
X71050500Y-93045583D01*
X71070185Y-92978544D01*
X71122989Y-92932789D01*
X71127049Y-92931021D01*
X71128945Y-92930234D01*
X71128954Y-92930232D01*
X71311450Y-92832685D01*
X71471410Y-92701410D01*
X71602685Y-92541450D01*
X71700232Y-92358954D01*
X71760300Y-92160934D01*
X71780583Y-91955000D01*
X72209417Y-91955000D01*
X72229699Y-92160932D01*
X72238452Y-92189786D01*
X72289768Y-92358954D01*
X72387315Y-92541450D01*
X72411537Y-92570965D01*
X72518589Y-92701410D01*
X72572873Y-92745959D01*
X72678550Y-92832685D01*
X72861046Y-92930232D01*
X72861051Y-92930233D01*
X72862951Y-92931021D01*
X72863796Y-92931701D01*
X72866419Y-92933104D01*
X72866153Y-92933601D01*
X72917355Y-92974862D01*
X72939421Y-93041156D01*
X72939500Y-93045583D01*
X72939500Y-98456199D01*
X72919815Y-98523238D01*
X72890988Y-98554574D01*
X72836720Y-98596215D01*
X72740463Y-98721660D01*
X72679956Y-98867737D01*
X72679955Y-98867739D01*
X72659318Y-99024498D01*
X72659318Y-99024501D01*
X72679955Y-99181260D01*
X72679956Y-99181262D01*
X72711244Y-99256799D01*
X72740464Y-99327341D01*
X72836718Y-99452782D01*
X72962159Y-99549036D01*
X73108238Y-99609544D01*
X73136472Y-99613261D01*
X73264999Y-99630182D01*
X73265000Y-99630182D01*
X73265001Y-99630182D01*
X73339302Y-99620400D01*
X73421762Y-99609544D01*
X73567841Y-99549036D01*
X73693282Y-99452782D01*
X73789536Y-99327341D01*
X73850044Y-99181262D01*
X73870682Y-99024500D01*
X73850044Y-98867738D01*
X73789536Y-98721659D01*
X73693282Y-98596218D01*
X73693280Y-98596216D01*
X73693279Y-98596215D01*
X73639012Y-98554574D01*
X73597810Y-98498146D01*
X73590500Y-98456199D01*
X73590500Y-93045583D01*
X73610185Y-92978544D01*
X73662989Y-92932789D01*
X73667049Y-92931021D01*
X73668945Y-92930234D01*
X73668954Y-92930232D01*
X73851450Y-92832685D01*
X74011410Y-92701410D01*
X74142685Y-92541450D01*
X74240232Y-92358954D01*
X74300300Y-92160934D01*
X74320583Y-91955000D01*
X74300300Y-91749066D01*
X74240232Y-91551046D01*
X74142685Y-91368550D01*
X74071526Y-91281842D01*
X74011410Y-91208589D01*
X73890500Y-91109362D01*
X73851450Y-91077315D01*
X73668954Y-90979768D01*
X73470934Y-90919700D01*
X73470932Y-90919699D01*
X73470934Y-90919699D01*
X73265000Y-90899417D01*
X73059067Y-90919699D01*
X72924736Y-90960448D01*
X72861050Y-90979767D01*
X72861043Y-90979769D01*
X72781011Y-91022548D01*
X72678550Y-91077315D01*
X72678548Y-91077316D01*
X72678547Y-91077317D01*
X72518589Y-91208589D01*
X72390371Y-91364826D01*
X72387315Y-91368550D01*
X72361852Y-91416188D01*
X72289769Y-91551043D01*
X72229699Y-91749067D01*
X72209417Y-91955000D01*
X71780583Y-91955000D01*
X71760300Y-91749066D01*
X71700232Y-91551046D01*
X71602685Y-91368550D01*
X71531526Y-91281842D01*
X71471410Y-91208589D01*
X71350500Y-91109362D01*
X71311450Y-91077315D01*
X71128954Y-90979768D01*
X70930934Y-90919700D01*
X70930932Y-90919699D01*
X70930934Y-90919699D01*
X70725000Y-90899417D01*
X70519067Y-90919699D01*
X70384736Y-90960448D01*
X70321050Y-90979767D01*
X70321043Y-90979769D01*
X70241011Y-91022548D01*
X70138550Y-91077315D01*
X70138548Y-91077316D01*
X70138547Y-91077317D01*
X69978589Y-91208589D01*
X69850371Y-91364826D01*
X69847315Y-91368550D01*
X69821852Y-91416188D01*
X69749769Y-91551043D01*
X69689699Y-91749067D01*
X69669417Y-91955000D01*
X69240583Y-91955000D01*
X69220300Y-91749066D01*
X69160232Y-91551046D01*
X69062685Y-91368550D01*
X68991526Y-91281842D01*
X68931410Y-91208589D01*
X68810500Y-91109362D01*
X68771450Y-91077315D01*
X68588954Y-90979768D01*
X68390934Y-90919700D01*
X68390932Y-90919699D01*
X68390934Y-90919699D01*
X68185000Y-90899417D01*
X67979067Y-90919699D01*
X67844736Y-90960448D01*
X67781050Y-90979767D01*
X67781043Y-90979769D01*
X67701011Y-91022548D01*
X67598550Y-91077315D01*
X67598548Y-91077316D01*
X67598547Y-91077317D01*
X67438589Y-91208589D01*
X67310371Y-91364826D01*
X67307315Y-91368550D01*
X67281852Y-91416188D01*
X67209769Y-91551043D01*
X67149699Y-91749067D01*
X67129417Y-91955000D01*
X66700583Y-91955000D01*
X66680300Y-91749066D01*
X66620232Y-91551046D01*
X66522685Y-91368550D01*
X66451526Y-91281842D01*
X66391410Y-91208589D01*
X66270500Y-91109362D01*
X66231450Y-91077315D01*
X66048954Y-90979768D01*
X65850934Y-90919700D01*
X65850932Y-90919699D01*
X65850934Y-90919699D01*
X65645000Y-90899417D01*
X65439067Y-90919699D01*
X65304736Y-90960448D01*
X65241050Y-90979767D01*
X65241043Y-90979769D01*
X65161011Y-91022548D01*
X65058550Y-91077315D01*
X65058548Y-91077316D01*
X65058547Y-91077317D01*
X64898589Y-91208589D01*
X64770371Y-91364826D01*
X64767315Y-91368550D01*
X64741852Y-91416188D01*
X64669769Y-91551043D01*
X64609699Y-91749067D01*
X64589417Y-91955000D01*
X64160583Y-91955000D01*
X64140300Y-91749066D01*
X64080232Y-91551046D01*
X63982685Y-91368550D01*
X63911526Y-91281842D01*
X63851410Y-91208589D01*
X63730500Y-91109362D01*
X63691450Y-91077315D01*
X63508954Y-90979768D01*
X63310934Y-90919700D01*
X63310932Y-90919699D01*
X63310934Y-90919699D01*
X63105000Y-90899417D01*
X62899067Y-90919699D01*
X62764736Y-90960448D01*
X62701050Y-90979767D01*
X62701043Y-90979769D01*
X62621011Y-91022548D01*
X62518550Y-91077315D01*
X62518548Y-91077316D01*
X62518547Y-91077317D01*
X62358589Y-91208589D01*
X62230371Y-91364826D01*
X62227315Y-91368550D01*
X62201852Y-91416188D01*
X62129769Y-91551043D01*
X62069699Y-91749067D01*
X62049417Y-91955000D01*
X61620583Y-91955000D01*
X61600300Y-91749066D01*
X61540232Y-91551046D01*
X61442685Y-91368550D01*
X61371526Y-91281842D01*
X61311410Y-91208589D01*
X61190500Y-91109362D01*
X61151450Y-91077315D01*
X60968954Y-90979768D01*
X60770934Y-90919700D01*
X60770932Y-90919699D01*
X60770934Y-90919699D01*
X60565000Y-90899417D01*
X60359067Y-90919699D01*
X60224736Y-90960448D01*
X60161050Y-90979767D01*
X60161043Y-90979769D01*
X60081011Y-91022548D01*
X59978550Y-91077315D01*
X59978548Y-91077316D01*
X59978547Y-91077317D01*
X59818589Y-91208589D01*
X59690371Y-91364826D01*
X59687315Y-91368550D01*
X59661852Y-91416188D01*
X59589769Y-91551043D01*
X59529699Y-91749067D01*
X59509417Y-91955000D01*
X59080583Y-91955000D01*
X59060300Y-91749066D01*
X59000232Y-91551046D01*
X58902685Y-91368550D01*
X58831526Y-91281842D01*
X58771410Y-91208589D01*
X58650500Y-91109362D01*
X58611450Y-91077315D01*
X58428954Y-90979768D01*
X58230934Y-90919700D01*
X58230932Y-90919699D01*
X58230934Y-90919699D01*
X58025000Y-90899417D01*
X57819067Y-90919699D01*
X57684736Y-90960448D01*
X57621050Y-90979767D01*
X57621043Y-90979769D01*
X57541011Y-91022548D01*
X57438550Y-91077315D01*
X57438548Y-91077316D01*
X57438547Y-91077317D01*
X57278589Y-91208589D01*
X57150371Y-91364826D01*
X57147315Y-91368550D01*
X57121852Y-91416188D01*
X57049769Y-91551043D01*
X56989699Y-91749067D01*
X56969417Y-91955000D01*
X56535500Y-91955000D01*
X56535500Y-91085252D01*
X56535500Y-91085249D01*
X56535499Y-91085247D01*
X56523868Y-91026770D01*
X56523867Y-91026769D01*
X56479552Y-90960447D01*
X56413230Y-90916132D01*
X56413229Y-90916131D01*
X56354752Y-90904500D01*
X56354748Y-90904500D01*
X54615252Y-90904500D01*
X54615247Y-90904500D01*
X54556770Y-90916131D01*
X54556769Y-90916132D01*
X54490447Y-90960447D01*
X54446132Y-91026769D01*
X54446131Y-91026770D01*
X54434500Y-91085247D01*
X54434500Y-92824752D01*
X51050872Y-92824752D01*
X51050500Y-84172527D01*
X51050500Y-81667067D01*
X51051031Y-81658966D01*
X51054475Y-81632804D01*
X51064810Y-81554300D01*
X51073184Y-81523047D01*
X51108898Y-81436825D01*
X51125078Y-81408802D01*
X51181887Y-81334766D01*
X51204766Y-81311887D01*
X51278802Y-81255078D01*
X51306825Y-81238898D01*
X51393047Y-81203184D01*
X51424300Y-81194810D01*
X51528967Y-81181030D01*
X51537067Y-81180500D01*
X51541285Y-81180500D01*
X158458715Y-81180500D01*
X158462933Y-81180500D01*
X158471032Y-81181030D01*
G37*
G04 #@! TD.AperFunction*
G04 #@! TA.AperFunction,Conductor*
G36*
X104743703Y-89604703D02*
G01*
X104750181Y-89610735D01*
X104790181Y-89650735D01*
X104823666Y-89712058D01*
X104826500Y-89738416D01*
X104826500Y-103778850D01*
X104826264Y-103784257D01*
X104822735Y-103824580D01*
X104833212Y-103863682D01*
X104834383Y-103868962D01*
X104841411Y-103908815D01*
X104843235Y-103913827D01*
X104850197Y-103930633D01*
X104852445Y-103935453D01*
X104852446Y-103935456D01*
X104853416Y-103936841D01*
X104875655Y-103968603D01*
X104878561Y-103973164D01*
X104898806Y-104008227D01*
X104929815Y-104034247D01*
X104933805Y-104037903D01*
X109083181Y-108187279D01*
X109116666Y-108248602D01*
X109119500Y-108274960D01*
X109119500Y-112098259D01*
X109099815Y-112165298D01*
X109047011Y-112211053D01*
X108977853Y-112220997D01*
X108945581Y-112210256D01*
X108945399Y-112210746D01*
X108802379Y-112157403D01*
X108802372Y-112157401D01*
X108742844Y-112151000D01*
X108425000Y-112151000D01*
X108425000Y-112247600D01*
X108405315Y-112314639D01*
X108352511Y-112360394D01*
X108301000Y-112371600D01*
X108049000Y-112371600D01*
X107981961Y-112351915D01*
X107936206Y-112299111D01*
X107925000Y-112247600D01*
X107925000Y-112151000D01*
X107607155Y-112151000D01*
X107547627Y-112157401D01*
X107547620Y-112157403D01*
X107412913Y-112207645D01*
X107412906Y-112207649D01*
X107297813Y-112293809D01*
X107276776Y-112321911D01*
X107220842Y-112363782D01*
X107216908Y-112364491D01*
X107209800Y-112371600D01*
X107209800Y-112391490D01*
X107201982Y-112434823D01*
X107161403Y-112543620D01*
X107161401Y-112543627D01*
X107155000Y-112603155D01*
X107155000Y-113671000D01*
X107173481Y-113689481D01*
X107206966Y-113750804D01*
X107209800Y-113777162D01*
X107209800Y-114064838D01*
X107190115Y-114131877D01*
X107173481Y-114152519D01*
X107155000Y-114171000D01*
X107155000Y-115238840D01*
X107155628Y-115244678D01*
X107143220Y-115313437D01*
X107095607Y-115364573D01*
X107027907Y-115381849D01*
X106991385Y-115374970D01*
X106978206Y-115370358D01*
X106959337Y-115363756D01*
X106934319Y-115351708D01*
X106842410Y-115293957D01*
X106820702Y-115276645D01*
X106743954Y-115199897D01*
X106726642Y-115178189D01*
X106668891Y-115086280D01*
X106656846Y-115061270D01*
X106620992Y-114958804D01*
X106614816Y-114931745D01*
X106601489Y-114813458D01*
X106601100Y-114806518D01*
X106601100Y-112454875D01*
X106601099Y-112454866D01*
X106565353Y-112217705D01*
X106565351Y-112217699D01*
X106563301Y-112211053D01*
X106494654Y-111988505D01*
X106390586Y-111772407D01*
X106255473Y-111574232D01*
X106188102Y-111501624D01*
X106092336Y-111398411D01*
X106038275Y-111355299D01*
X105904809Y-111248863D01*
X105697091Y-111128937D01*
X105473819Y-111041309D01*
X105473810Y-111041307D01*
X105473807Y-111041306D01*
X105239978Y-110987936D01*
X105000805Y-110970013D01*
X105000795Y-110970013D01*
X104761621Y-110987936D01*
X104527792Y-111041306D01*
X104527784Y-111041308D01*
X104527781Y-111041309D01*
X104527778Y-111041309D01*
X104527775Y-111041311D01*
X104304508Y-111128937D01*
X104096791Y-111248863D01*
X103909263Y-111398411D01*
X103746125Y-111574234D01*
X103611014Y-111772406D01*
X103611012Y-111772410D01*
X103506948Y-111988499D01*
X103506947Y-111988502D01*
X103506946Y-111988505D01*
X103479863Y-112076303D01*
X103436248Y-112217699D01*
X103436246Y-112217705D01*
X103400500Y-112454866D01*
X103400500Y-114806518D01*
X103400110Y-114813465D01*
X103386783Y-114931742D01*
X103380605Y-114958813D01*
X103344757Y-115061261D01*
X103332708Y-115086280D01*
X103274957Y-115178189D01*
X103257645Y-115199897D01*
X103180897Y-115276645D01*
X103159189Y-115293957D01*
X103067280Y-115351708D01*
X103042262Y-115363756D01*
X103020601Y-115371335D01*
X103005954Y-115376461D01*
X102936175Y-115380022D01*
X102875548Y-115345293D01*
X102843321Y-115283299D01*
X102841000Y-115259419D01*
X102841000Y-112371600D01*
X102274500Y-112371600D01*
X102207461Y-112351915D01*
X102161706Y-112299111D01*
X102150500Y-112247600D01*
X102150500Y-105217187D01*
X102170185Y-105150148D01*
X102186814Y-105129511D01*
X104431204Y-102885120D01*
X104435166Y-102881489D01*
X104466194Y-102855455D01*
X104486438Y-102820390D01*
X104489335Y-102815841D01*
X104512554Y-102782684D01*
X104512554Y-102782681D01*
X104514819Y-102777824D01*
X104521747Y-102761099D01*
X104523584Y-102756050D01*
X104523588Y-102756045D01*
X104530619Y-102716162D01*
X104531777Y-102710940D01*
X104542264Y-102671807D01*
X104538735Y-102631481D01*
X104538500Y-102626078D01*
X104538500Y-89698416D01*
X104558185Y-89631377D01*
X104610989Y-89585622D01*
X104680147Y-89575678D01*
X104743703Y-89604703D01*
G37*
G04 #@! TD.AperFunction*
G04 #@! TA.AperFunction,Conductor*
G36*
X85130703Y-92597122D02*
G01*
X85145354Y-92612171D01*
X85218589Y-92701410D01*
X85272873Y-92745959D01*
X85378550Y-92832685D01*
X85561046Y-92930232D01*
X85561051Y-92930233D01*
X85562951Y-92931021D01*
X85563796Y-92931701D01*
X85566419Y-92933104D01*
X85566153Y-92933601D01*
X85617355Y-92974862D01*
X85639421Y-93041156D01*
X85639500Y-93045583D01*
X85639500Y-96127461D01*
X85619815Y-96194500D01*
X85567011Y-96240255D01*
X85497853Y-96250199D01*
X85468048Y-96242022D01*
X85344765Y-96190957D01*
X85344760Y-96190955D01*
X85188001Y-96170318D01*
X85187999Y-96170318D01*
X85031239Y-96190955D01*
X85031237Y-96190956D01*
X84885160Y-96251463D01*
X84759718Y-96347718D01*
X84663463Y-96473160D01*
X84602956Y-96619237D01*
X84602955Y-96619239D01*
X84582318Y-96775998D01*
X84582318Y-96776001D01*
X84604017Y-96940820D01*
X84601348Y-96941171D01*
X84599993Y-96997793D01*
X84560824Y-97055651D01*
X84496592Y-97083147D01*
X84427691Y-97071552D01*
X84406405Y-97058402D01*
X84347841Y-97013464D01*
X84315908Y-97000237D01*
X84201762Y-96952956D01*
X84201760Y-96952955D01*
X84045001Y-96932318D01*
X84044999Y-96932318D01*
X83888239Y-96952955D01*
X83888237Y-96952956D01*
X83742160Y-97013463D01*
X83616718Y-97109718D01*
X83520463Y-97235160D01*
X83459956Y-97381237D01*
X83459955Y-97381239D01*
X83439318Y-97537998D01*
X83439318Y-97538001D01*
X83459955Y-97694760D01*
X83459956Y-97694762D01*
X83517720Y-97834218D01*
X83520464Y-97840841D01*
X83616718Y-97966282D01*
X83670987Y-98007924D01*
X83712189Y-98064349D01*
X83719500Y-98106298D01*
X83719500Y-112247600D01*
X83699815Y-112314639D01*
X83647011Y-112360394D01*
X83595500Y-112371600D01*
X83224500Y-112371600D01*
X83157461Y-112351915D01*
X83111706Y-112299111D01*
X83100500Y-112247600D01*
X83100500Y-98868298D01*
X83120185Y-98801259D01*
X83149010Y-98769925D01*
X83203282Y-98728282D01*
X83299536Y-98602841D01*
X83360044Y-98456762D01*
X83380682Y-98300000D01*
X83360044Y-98143238D01*
X83299536Y-97997159D01*
X83203282Y-97871718D01*
X83077841Y-97775464D01*
X83062653Y-97769173D01*
X82931762Y-97714956D01*
X82931760Y-97714955D01*
X82775001Y-97694318D01*
X82774999Y-97694318D01*
X82618239Y-97714955D01*
X82618237Y-97714956D01*
X82472160Y-97775463D01*
X82346718Y-97871718D01*
X82250463Y-97997160D01*
X82189956Y-98143237D01*
X82189955Y-98143239D01*
X82169318Y-98299998D01*
X82169318Y-98300001D01*
X82189955Y-98456760D01*
X82189956Y-98456762D01*
X82247720Y-98596218D01*
X82250464Y-98602841D01*
X82346718Y-98728282D01*
X82400987Y-98769924D01*
X82442189Y-98826349D01*
X82449500Y-98868298D01*
X82449500Y-112247600D01*
X82429815Y-112314639D01*
X82377011Y-112360394D01*
X82325500Y-112371600D01*
X81954500Y-112371600D01*
X81887461Y-112351915D01*
X81841706Y-112299111D01*
X81830500Y-112247600D01*
X81830500Y-99630298D01*
X81850185Y-99563259D01*
X81879010Y-99531925D01*
X81933282Y-99490282D01*
X82029536Y-99364841D01*
X82090044Y-99218762D01*
X82105674Y-99100037D01*
X82110682Y-99062001D01*
X82110682Y-99061998D01*
X82090044Y-98905239D01*
X82090044Y-98905238D01*
X82029536Y-98759159D01*
X81933282Y-98633718D01*
X81807841Y-98537464D01*
X81773496Y-98523238D01*
X81661762Y-98476956D01*
X81661760Y-98476955D01*
X81505001Y-98456318D01*
X81504999Y-98456318D01*
X81348239Y-98476955D01*
X81348237Y-98476956D01*
X81202160Y-98537463D01*
X81076718Y-98633718D01*
X80980463Y-98759160D01*
X80919956Y-98905237D01*
X80919955Y-98905239D01*
X80899318Y-99061998D01*
X80899318Y-99062001D01*
X80919955Y-99218760D01*
X80919956Y-99218762D01*
X80980464Y-99364841D01*
X81076718Y-99490282D01*
X81130987Y-99531924D01*
X81172189Y-99588349D01*
X81179500Y-99630298D01*
X81179500Y-112098259D01*
X81159815Y-112165298D01*
X81107011Y-112211053D01*
X81037853Y-112220997D01*
X81005581Y-112210256D01*
X81005399Y-112210746D01*
X80862379Y-112157403D01*
X80862372Y-112157401D01*
X80802844Y-112151000D01*
X80485000Y-112151000D01*
X80485000Y-112247600D01*
X80465315Y-112314639D01*
X80412511Y-112360394D01*
X80361000Y-112371600D01*
X80109000Y-112371600D01*
X80041961Y-112351915D01*
X79996206Y-112299111D01*
X79985000Y-112247600D01*
X79985000Y-112151000D01*
X79667155Y-112151000D01*
X79607627Y-112157401D01*
X79607620Y-112157403D01*
X79464601Y-112210746D01*
X79464040Y-112209243D01*
X79405645Y-112221942D01*
X79340183Y-112197521D01*
X79298315Y-112141585D01*
X79290500Y-112098259D01*
X79290500Y-100010188D01*
X79310185Y-99943149D01*
X79326819Y-99922507D01*
X82051667Y-97197659D01*
X84818210Y-94431115D01*
X84822172Y-94427484D01*
X84853194Y-94401455D01*
X84873444Y-94366378D01*
X84876333Y-94361845D01*
X84899553Y-94328684D01*
X84899555Y-94328676D01*
X84901816Y-94323828D01*
X84908754Y-94307079D01*
X84910583Y-94302052D01*
X84910588Y-94302045D01*
X84917622Y-94262147D01*
X84918779Y-94256929D01*
X84929263Y-94217807D01*
X84925735Y-94177489D01*
X84925500Y-94172086D01*
X84925500Y-92690835D01*
X84945185Y-92623796D01*
X84997989Y-92578041D01*
X85067147Y-92568097D01*
X85130703Y-92597122D01*
G37*
G04 #@! TD.AperFunction*
G04 #@! TA.AperFunction,Conductor*
G36*
X88460850Y-86246185D02*
G01*
X88506605Y-86298989D01*
X88516549Y-86368147D01*
X88487524Y-86431703D01*
X88481492Y-86438181D01*
X86505994Y-88413678D01*
X86444671Y-88447163D01*
X86374979Y-88442179D01*
X86370862Y-88440559D01*
X86368962Y-88439772D01*
X86368954Y-88439768D01*
X86170934Y-88379700D01*
X86170932Y-88379699D01*
X86170934Y-88379699D01*
X85965000Y-88359417D01*
X85759067Y-88379699D01*
X85607917Y-88425550D01*
X85561050Y-88439767D01*
X85561043Y-88439769D01*
X85488743Y-88478415D01*
X85378550Y-88537315D01*
X85378548Y-88537316D01*
X85378547Y-88537317D01*
X85218589Y-88668589D01*
X85087317Y-88828547D01*
X84989769Y-89011043D01*
X84929699Y-89209067D01*
X84909417Y-89415000D01*
X84929699Y-89620932D01*
X84937096Y-89645315D01*
X84989768Y-89818954D01*
X85087315Y-90001450D01*
X85115222Y-90035455D01*
X85218589Y-90161410D01*
X85262979Y-90197839D01*
X85378550Y-90292685D01*
X85561046Y-90390232D01*
X85759066Y-90450300D01*
X85759065Y-90450300D01*
X85777529Y-90452118D01*
X85965000Y-90470583D01*
X86170934Y-90450300D01*
X86368954Y-90390232D01*
X86551450Y-90292685D01*
X86711410Y-90161410D01*
X86842685Y-90001450D01*
X86940232Y-89818954D01*
X87000300Y-89620934D01*
X87020583Y-89415000D01*
X87000300Y-89209066D01*
X86940232Y-89011046D01*
X86940227Y-89011038D01*
X86939439Y-89009132D01*
X86939322Y-89008051D01*
X86938463Y-89005217D01*
X86939000Y-89005053D01*
X86931973Y-88939663D01*
X86963250Y-88877185D01*
X86966291Y-88874033D01*
X89127508Y-86712819D01*
X89188831Y-86679334D01*
X89215189Y-86676500D01*
X90483811Y-86676500D01*
X90550850Y-86696185D01*
X90596605Y-86748989D01*
X90606549Y-86818147D01*
X90577524Y-86881703D01*
X90571492Y-86888181D01*
X89045994Y-88413678D01*
X88984671Y-88447163D01*
X88914979Y-88442179D01*
X88910862Y-88440559D01*
X88908962Y-88439772D01*
X88908954Y-88439768D01*
X88710934Y-88379700D01*
X88710932Y-88379699D01*
X88710934Y-88379699D01*
X88505000Y-88359417D01*
X88299067Y-88379699D01*
X88147917Y-88425550D01*
X88101050Y-88439767D01*
X88101043Y-88439769D01*
X88028743Y-88478415D01*
X87918550Y-88537315D01*
X87918548Y-88537316D01*
X87918547Y-88537317D01*
X87758589Y-88668589D01*
X87627317Y-88828547D01*
X87529769Y-89011043D01*
X87469699Y-89209067D01*
X87449417Y-89415000D01*
X87469699Y-89620932D01*
X87477096Y-89645315D01*
X87529768Y-89818954D01*
X87627315Y-90001450D01*
X87655222Y-90035455D01*
X87758589Y-90161410D01*
X87802979Y-90197839D01*
X87918550Y-90292685D01*
X88101046Y-90390232D01*
X88299066Y-90450300D01*
X88299065Y-90450300D01*
X88317529Y-90452118D01*
X88505000Y-90470583D01*
X88710934Y-90450300D01*
X88908954Y-90390232D01*
X89091450Y-90292685D01*
X89251410Y-90161410D01*
X89382685Y-90001450D01*
X89480232Y-89818954D01*
X89540300Y-89620934D01*
X89560583Y-89415000D01*
X89540300Y-89209066D01*
X89480232Y-89011046D01*
X89480227Y-89011038D01*
X89479439Y-89009132D01*
X89479322Y-89008051D01*
X89478463Y-89005217D01*
X89479000Y-89005053D01*
X89471973Y-88939663D01*
X89503250Y-88877185D01*
X89506291Y-88874033D01*
X91217508Y-87162819D01*
X91278831Y-87129334D01*
X91305189Y-87126500D01*
X92573812Y-87126500D01*
X92640851Y-87146185D01*
X92686606Y-87198989D01*
X92696550Y-87268147D01*
X92667525Y-87331703D01*
X92661493Y-87338181D01*
X91585994Y-88413678D01*
X91524671Y-88447163D01*
X91454979Y-88442179D01*
X91450862Y-88440559D01*
X91448962Y-88439772D01*
X91448954Y-88439768D01*
X91250934Y-88379700D01*
X91250932Y-88379699D01*
X91250934Y-88379699D01*
X91045000Y-88359417D01*
X90839067Y-88379699D01*
X90687917Y-88425550D01*
X90641050Y-88439767D01*
X90641043Y-88439769D01*
X90568743Y-88478415D01*
X90458550Y-88537315D01*
X90458548Y-88537316D01*
X90458547Y-88537317D01*
X90298589Y-88668589D01*
X90167317Y-88828547D01*
X90069769Y-89011043D01*
X90009699Y-89209067D01*
X89989417Y-89415000D01*
X90009699Y-89620932D01*
X90017096Y-89645315D01*
X90069768Y-89818954D01*
X90167315Y-90001450D01*
X90195222Y-90035455D01*
X90298589Y-90161410D01*
X90342979Y-90197839D01*
X90458550Y-90292685D01*
X90641046Y-90390232D01*
X90839066Y-90450300D01*
X90839065Y-90450300D01*
X90857529Y-90452118D01*
X91045000Y-90470583D01*
X91250934Y-90450300D01*
X91448954Y-90390232D01*
X91631450Y-90292685D01*
X91791410Y-90161410D01*
X91922685Y-90001450D01*
X92020232Y-89818954D01*
X92080300Y-89620934D01*
X92100583Y-89415000D01*
X92080300Y-89209066D01*
X92020232Y-89011046D01*
X92020227Y-89011038D01*
X92019439Y-89009132D01*
X92019322Y-89008051D01*
X92018463Y-89005217D01*
X92019000Y-89005053D01*
X92011973Y-88939663D01*
X92043250Y-88877185D01*
X92046292Y-88874033D01*
X93307507Y-87612819D01*
X93368830Y-87579334D01*
X93395188Y-87576500D01*
X94663812Y-87576500D01*
X94730851Y-87596185D01*
X94776606Y-87648989D01*
X94786550Y-87718147D01*
X94757525Y-87781703D01*
X94751493Y-87788181D01*
X94125994Y-88413678D01*
X94064671Y-88447163D01*
X93994979Y-88442179D01*
X93990862Y-88440559D01*
X93988962Y-88439772D01*
X93988954Y-88439768D01*
X93790934Y-88379700D01*
X93790932Y-88379699D01*
X93790934Y-88379699D01*
X93585000Y-88359417D01*
X93379067Y-88379699D01*
X93227917Y-88425550D01*
X93181050Y-88439767D01*
X93181043Y-88439769D01*
X93108743Y-88478415D01*
X92998550Y-88537315D01*
X92998548Y-88537316D01*
X92998547Y-88537317D01*
X92838589Y-88668589D01*
X92707317Y-88828547D01*
X92609769Y-89011043D01*
X92549699Y-89209067D01*
X92529417Y-89415000D01*
X92549699Y-89620932D01*
X92557096Y-89645315D01*
X92609768Y-89818954D01*
X92707315Y-90001450D01*
X92735222Y-90035455D01*
X92838589Y-90161410D01*
X92882979Y-90197839D01*
X92998550Y-90292685D01*
X93181046Y-90390232D01*
X93379066Y-90450300D01*
X93379065Y-90450300D01*
X93397529Y-90452118D01*
X93585000Y-90470583D01*
X93790934Y-90450300D01*
X93988954Y-90390232D01*
X94171450Y-90292685D01*
X94331410Y-90161410D01*
X94462685Y-90001450D01*
X94560232Y-89818954D01*
X94620300Y-89620934D01*
X94640583Y-89415000D01*
X94620300Y-89209066D01*
X94560232Y-89011046D01*
X94560227Y-89011038D01*
X94559439Y-89009132D01*
X94559322Y-89008051D01*
X94558463Y-89005217D01*
X94559000Y-89005053D01*
X94551973Y-88939663D01*
X94583250Y-88877185D01*
X94586291Y-88874033D01*
X95308507Y-88151819D01*
X95369830Y-88118334D01*
X95396188Y-88115500D01*
X96077453Y-88115500D01*
X96125893Y-88129723D01*
X96149442Y-88117672D01*
X96172547Y-88115500D01*
X96664811Y-88115500D01*
X96731850Y-88135185D01*
X96777605Y-88187989D01*
X96787549Y-88257147D01*
X96758524Y-88320703D01*
X96752499Y-88327173D01*
X96705438Y-88374235D01*
X96665994Y-88413679D01*
X96604670Y-88447163D01*
X96534979Y-88442179D01*
X96530862Y-88440559D01*
X96528962Y-88439772D01*
X96528954Y-88439768D01*
X96330934Y-88379700D01*
X96330932Y-88379699D01*
X96330934Y-88379699D01*
X96160393Y-88362903D01*
X96126682Y-88349290D01*
X96112388Y-88358477D01*
X96089607Y-88362903D01*
X95919067Y-88379699D01*
X95767917Y-88425550D01*
X95721050Y-88439767D01*
X95721043Y-88439769D01*
X95648743Y-88478415D01*
X95538550Y-88537315D01*
X95538548Y-88537316D01*
X95538547Y-88537317D01*
X95378589Y-88668589D01*
X95247317Y-88828547D01*
X95149769Y-89011043D01*
X95089699Y-89209067D01*
X95069417Y-89415000D01*
X95089699Y-89620932D01*
X95097096Y-89645315D01*
X95149768Y-89818954D01*
X95247315Y-90001450D01*
X95275222Y-90035455D01*
X95378589Y-90161410D01*
X95422979Y-90197839D01*
X95538550Y-90292685D01*
X95721046Y-90390232D01*
X95919066Y-90450300D01*
X95919065Y-90450300D01*
X95937529Y-90452118D01*
X96125000Y-90470583D01*
X96330934Y-90450300D01*
X96528954Y-90390232D01*
X96711450Y-90292685D01*
X96871410Y-90161410D01*
X97002685Y-90001450D01*
X97100232Y-89818954D01*
X97160300Y-89620934D01*
X97180583Y-89415000D01*
X97160300Y-89209066D01*
X97100232Y-89011046D01*
X97100227Y-89011038D01*
X97099439Y-89009132D01*
X97099322Y-89008051D01*
X97098463Y-89005217D01*
X97099000Y-89005053D01*
X97091973Y-88939663D01*
X97123250Y-88877185D01*
X97126261Y-88874063D01*
X97398508Y-88601816D01*
X97459830Y-88568334D01*
X97486188Y-88565500D01*
X97741018Y-88565500D01*
X97808057Y-88585185D01*
X97853812Y-88637989D01*
X97863756Y-88707147D01*
X97836871Y-88768165D01*
X97787317Y-88828546D01*
X97689769Y-89011043D01*
X97629699Y-89209067D01*
X97609417Y-89415000D01*
X97629699Y-89620932D01*
X97637096Y-89645315D01*
X97689768Y-89818954D01*
X97787315Y-90001450D01*
X97815222Y-90035455D01*
X97918589Y-90161410D01*
X97962979Y-90197839D01*
X98078550Y-90292685D01*
X98261046Y-90390232D01*
X98459066Y-90450300D01*
X98459065Y-90450300D01*
X98477529Y-90452118D01*
X98665000Y-90470583D01*
X98870934Y-90450300D01*
X99068954Y-90390232D01*
X99251450Y-90292685D01*
X99411410Y-90161410D01*
X99542685Y-90001450D01*
X99552497Y-89983092D01*
X99601457Y-89933249D01*
X99669594Y-89917786D01*
X99735274Y-89941615D01*
X99749537Y-89953863D01*
X100701181Y-90905507D01*
X100734666Y-90966830D01*
X100737500Y-90993188D01*
X100737500Y-101152039D01*
X100717815Y-101219078D01*
X100701181Y-101239720D01*
X92716803Y-109224098D01*
X92712814Y-109227753D01*
X92681805Y-109253773D01*
X92661562Y-109288834D01*
X92658656Y-109293394D01*
X92635446Y-109326541D01*
X92633206Y-109331345D01*
X92626229Y-109348189D01*
X92624410Y-109353187D01*
X92617383Y-109393039D01*
X92616212Y-109398319D01*
X92605735Y-109437419D01*
X92609264Y-109477741D01*
X92609500Y-109483148D01*
X92609500Y-112098259D01*
X92589815Y-112165298D01*
X92537011Y-112211053D01*
X92467853Y-112220997D01*
X92435581Y-112210256D01*
X92435399Y-112210746D01*
X92292379Y-112157403D01*
X92292372Y-112157401D01*
X92232844Y-112151000D01*
X91915000Y-112151000D01*
X91915000Y-112247600D01*
X91895315Y-112314639D01*
X91842511Y-112360394D01*
X91791000Y-112371600D01*
X91539000Y-112371600D01*
X91471961Y-112351915D01*
X91426206Y-112299111D01*
X91415000Y-112247600D01*
X91415000Y-112151000D01*
X91097155Y-112151000D01*
X91037627Y-112157401D01*
X91037620Y-112157403D01*
X90894601Y-112210746D01*
X90894040Y-112209243D01*
X90835645Y-112221942D01*
X90770183Y-112197521D01*
X90728315Y-112141585D01*
X90720500Y-112098259D01*
X90720500Y-104328187D01*
X90740185Y-104261148D01*
X90756814Y-104240511D01*
X91254123Y-103743202D01*
X92311519Y-103743202D01*
X92332156Y-103899961D01*
X92332157Y-103899963D01*
X92362981Y-103974380D01*
X92392665Y-104046042D01*
X92488919Y-104171483D01*
X92614360Y-104267737D01*
X92760439Y-104328245D01*
X92825505Y-104336811D01*
X92917200Y-104348883D01*
X92917201Y-104348883D01*
X92917202Y-104348883D01*
X93008897Y-104336811D01*
X93073963Y-104328245D01*
X93220042Y-104267737D01*
X93345483Y-104171483D01*
X93441737Y-104046042D01*
X93502245Y-103899963D01*
X93519509Y-103768826D01*
X93522883Y-103743202D01*
X93522883Y-103743201D01*
X93512585Y-103664982D01*
X93503320Y-103594609D01*
X93514085Y-103525578D01*
X93538575Y-103490749D01*
X98883210Y-98146115D01*
X98887172Y-98142484D01*
X98918194Y-98116455D01*
X98938444Y-98081379D01*
X98941328Y-98076852D01*
X98964554Y-98043684D01*
X98964554Y-98043681D01*
X98966819Y-98038824D01*
X98973747Y-98022099D01*
X98975587Y-98017046D01*
X98975588Y-98017045D01*
X98982621Y-97977150D01*
X98983777Y-97971937D01*
X98994263Y-97932807D01*
X98990735Y-97892489D01*
X98990500Y-97887086D01*
X98990500Y-93045583D01*
X99010185Y-92978544D01*
X99062989Y-92932789D01*
X99067049Y-92931021D01*
X99068945Y-92930234D01*
X99068954Y-92930232D01*
X99251450Y-92832685D01*
X99411410Y-92701410D01*
X99542685Y-92541450D01*
X99640232Y-92358954D01*
X99700300Y-92160934D01*
X99720583Y-91955000D01*
X99700300Y-91749066D01*
X99640232Y-91551046D01*
X99542685Y-91368550D01*
X99471526Y-91281842D01*
X99411410Y-91208589D01*
X99290500Y-91109362D01*
X99251450Y-91077315D01*
X99068954Y-90979768D01*
X98870934Y-90919700D01*
X98870932Y-90919699D01*
X98870934Y-90919699D01*
X98665000Y-90899417D01*
X98459067Y-90919699D01*
X98324736Y-90960448D01*
X98261050Y-90979767D01*
X98261043Y-90979769D01*
X98181011Y-91022548D01*
X98078550Y-91077315D01*
X98078548Y-91077316D01*
X98078547Y-91077317D01*
X97918589Y-91208589D01*
X97790371Y-91364826D01*
X97787315Y-91368550D01*
X97761852Y-91416188D01*
X97689769Y-91551043D01*
X97629699Y-91749067D01*
X97609417Y-91955000D01*
X97629699Y-92160932D01*
X97638452Y-92189786D01*
X97689768Y-92358954D01*
X97787315Y-92541450D01*
X97811537Y-92570965D01*
X97918589Y-92701410D01*
X97972873Y-92745959D01*
X98078550Y-92832685D01*
X98261046Y-92930232D01*
X98261051Y-92930233D01*
X98262951Y-92931021D01*
X98263796Y-92931701D01*
X98266419Y-92933104D01*
X98266153Y-92933601D01*
X98317355Y-92974862D01*
X98339421Y-93041156D01*
X98339500Y-93045583D01*
X98339500Y-97717811D01*
X98319815Y-97784850D01*
X98303181Y-97805492D01*
X94361185Y-101747487D01*
X94299862Y-101780972D01*
X94253322Y-101777643D01*
X94259587Y-101804876D01*
X94235951Y-101870627D01*
X94223487Y-101885185D01*
X93007473Y-103101200D01*
X92946150Y-103134685D01*
X92919792Y-103137519D01*
X92917199Y-103137519D01*
X92760440Y-103158156D01*
X92760438Y-103158157D01*
X92614361Y-103218664D01*
X92488919Y-103314919D01*
X92392664Y-103440361D01*
X92332157Y-103586438D01*
X92332156Y-103586440D01*
X92311519Y-103743199D01*
X92311519Y-103743202D01*
X91254123Y-103743202D01*
X92809204Y-102188120D01*
X92813166Y-102184489D01*
X92844194Y-102158455D01*
X92864438Y-102123390D01*
X92867335Y-102118841D01*
X92890554Y-102085684D01*
X92890554Y-102085681D01*
X92892819Y-102080824D01*
X92899747Y-102064099D01*
X92901584Y-102059050D01*
X92901588Y-102059045D01*
X92908619Y-102019162D01*
X92909777Y-102013940D01*
X92920264Y-101974807D01*
X92916735Y-101934481D01*
X92916500Y-101929078D01*
X92916500Y-101529279D01*
X92936185Y-101462240D01*
X92988989Y-101416485D01*
X93058147Y-101406541D01*
X93121703Y-101435566D01*
X93155061Y-101481826D01*
X93172137Y-101523053D01*
X93172464Y-101523841D01*
X93268718Y-101649282D01*
X93394159Y-101745536D01*
X93540238Y-101806044D01*
X93618619Y-101816363D01*
X93696999Y-101826682D01*
X93697000Y-101826682D01*
X93697001Y-101826682D01*
X93749254Y-101819802D01*
X93853762Y-101806044D01*
X93999841Y-101745536D01*
X94060320Y-101699128D01*
X94125487Y-101673934D01*
X94153968Y-101679775D01*
X94149820Y-101668652D01*
X94164672Y-101600379D01*
X94175124Y-101584325D01*
X94221536Y-101523841D01*
X94282044Y-101377762D01*
X94299425Y-101245743D01*
X94302682Y-101221001D01*
X94302682Y-101220998D01*
X94282044Y-101064239D01*
X94280505Y-101058495D01*
X94282170Y-100988645D01*
X94312598Y-100938726D01*
X96343204Y-98908120D01*
X96347166Y-98904489D01*
X96378194Y-98878455D01*
X96398438Y-98843390D01*
X96401335Y-98838841D01*
X96424554Y-98805684D01*
X96424554Y-98805681D01*
X96426818Y-98800827D01*
X96433748Y-98784098D01*
X96435586Y-98779048D01*
X96435588Y-98779045D01*
X96442616Y-98739185D01*
X96443782Y-98733919D01*
X96454264Y-98694806D01*
X96450735Y-98654477D01*
X96450500Y-98649074D01*
X96450500Y-93045583D01*
X96470185Y-92978544D01*
X96522989Y-92932789D01*
X96527049Y-92931021D01*
X96528945Y-92930234D01*
X96528954Y-92930232D01*
X96711450Y-92832685D01*
X96871410Y-92701410D01*
X97002685Y-92541450D01*
X97100232Y-92358954D01*
X97160300Y-92160934D01*
X97180583Y-91955000D01*
X97160300Y-91749066D01*
X97100232Y-91551046D01*
X97002685Y-91368550D01*
X96931526Y-91281842D01*
X96871410Y-91208589D01*
X96750500Y-91109362D01*
X96711450Y-91077315D01*
X96528954Y-90979768D01*
X96330934Y-90919700D01*
X96330932Y-90919699D01*
X96330934Y-90919699D01*
X96125000Y-90899417D01*
X95919067Y-90919699D01*
X95784736Y-90960448D01*
X95721050Y-90979767D01*
X95721043Y-90979769D01*
X95641011Y-91022548D01*
X95538550Y-91077315D01*
X95538548Y-91077316D01*
X95538547Y-91077317D01*
X95378589Y-91208589D01*
X95250371Y-91364826D01*
X95247315Y-91368550D01*
X95221852Y-91416188D01*
X95149769Y-91551043D01*
X95089699Y-91749067D01*
X95069417Y-91955000D01*
X95089699Y-92160932D01*
X95098452Y-92189786D01*
X95149768Y-92358954D01*
X95247315Y-92541450D01*
X95271537Y-92570965D01*
X95378589Y-92701410D01*
X95432873Y-92745959D01*
X95538550Y-92832685D01*
X95721046Y-92930232D01*
X95721051Y-92930233D01*
X95722951Y-92931021D01*
X95723796Y-92931701D01*
X95726419Y-92933104D01*
X95726153Y-92933601D01*
X95777355Y-92974862D01*
X95799421Y-93041156D01*
X95799500Y-93045583D01*
X95799500Y-98479811D01*
X95779815Y-98546850D01*
X95763181Y-98567492D01*
X93747901Y-100582771D01*
X93686578Y-100616256D01*
X93676406Y-100618029D01*
X93540238Y-100635956D01*
X93540237Y-100635956D01*
X93394160Y-100696463D01*
X93268718Y-100792718D01*
X93172463Y-100918160D01*
X93155061Y-100960173D01*
X93111219Y-101014577D01*
X93044925Y-101036641D01*
X92977226Y-101019361D01*
X92929616Y-100968224D01*
X92916500Y-100912720D01*
X92916500Y-100481187D01*
X92936185Y-100414148D01*
X92952815Y-100393510D01*
X93661215Y-99685109D01*
X93665166Y-99681489D01*
X93696194Y-99655455D01*
X93716438Y-99620390D01*
X93719335Y-99615841D01*
X93742554Y-99582684D01*
X93742554Y-99582681D01*
X93744819Y-99577824D01*
X93751747Y-99561099D01*
X93753584Y-99556050D01*
X93753588Y-99556045D01*
X93760619Y-99516162D01*
X93761777Y-99510940D01*
X93772264Y-99471807D01*
X93768735Y-99431481D01*
X93768500Y-99426078D01*
X93768500Y-96074298D01*
X93788185Y-96007259D01*
X93817010Y-95975925D01*
X93871282Y-95934282D01*
X93967536Y-95808841D01*
X94028044Y-95662762D01*
X94048682Y-95506000D01*
X94046211Y-95487234D01*
X94033833Y-95393213D01*
X94028044Y-95349238D01*
X93967536Y-95203159D01*
X93871282Y-95077718D01*
X93745841Y-94981464D01*
X93599762Y-94920956D01*
X93599760Y-94920955D01*
X93443001Y-94900318D01*
X93442999Y-94900318D01*
X93286239Y-94920955D01*
X93286237Y-94920956D01*
X93140160Y-94981463D01*
X93014718Y-95077718D01*
X92918463Y-95203160D01*
X92857956Y-95349237D01*
X92857955Y-95349239D01*
X92837318Y-95505998D01*
X92837318Y-95506001D01*
X92857955Y-95662760D01*
X92857956Y-95662762D01*
X92914612Y-95799543D01*
X92918464Y-95808841D01*
X93014718Y-95934282D01*
X93068987Y-95975924D01*
X93110189Y-96032349D01*
X93117500Y-96074298D01*
X93117500Y-99256811D01*
X93097815Y-99323850D01*
X93081181Y-99344492D01*
X92372803Y-100052870D01*
X92368814Y-100056525D01*
X92337805Y-100082545D01*
X92336487Y-100084117D01*
X92333813Y-100085895D01*
X92329498Y-100089517D01*
X92329093Y-100089035D01*
X92278314Y-100122817D01*
X92208453Y-100123923D01*
X92149085Y-100087084D01*
X92119057Y-100023996D01*
X92117500Y-100004408D01*
X92117500Y-95057187D01*
X92137185Y-94990148D01*
X92153814Y-94969511D01*
X93803204Y-93320120D01*
X93807166Y-93316489D01*
X93838194Y-93290455D01*
X93858438Y-93255390D01*
X93861335Y-93250841D01*
X93884554Y-93217684D01*
X93884554Y-93217681D01*
X93886819Y-93212824D01*
X93893747Y-93196099D01*
X93895584Y-93191050D01*
X93895588Y-93191045D01*
X93902619Y-93151162D01*
X93903777Y-93145940D01*
X93914264Y-93106807D01*
X93910735Y-93066481D01*
X93910500Y-93061078D01*
X93910500Y-93045583D01*
X93930185Y-92978544D01*
X93982989Y-92932789D01*
X93987049Y-92931021D01*
X93988945Y-92930234D01*
X93988954Y-92930232D01*
X94171450Y-92832685D01*
X94331410Y-92701410D01*
X94462685Y-92541450D01*
X94560232Y-92358954D01*
X94620300Y-92160934D01*
X94640583Y-91955000D01*
X94620300Y-91749066D01*
X94560232Y-91551046D01*
X94462685Y-91368550D01*
X94391526Y-91281842D01*
X94331410Y-91208589D01*
X94210500Y-91109362D01*
X94171450Y-91077315D01*
X93988954Y-90979768D01*
X93790934Y-90919700D01*
X93790932Y-90919699D01*
X93790934Y-90919699D01*
X93585000Y-90899417D01*
X93379067Y-90919699D01*
X93244736Y-90960448D01*
X93181050Y-90979767D01*
X93181043Y-90979769D01*
X93101011Y-91022548D01*
X92998550Y-91077315D01*
X92998548Y-91077316D01*
X92998547Y-91077317D01*
X92838589Y-91208589D01*
X92710371Y-91364826D01*
X92707315Y-91368550D01*
X92681852Y-91416188D01*
X92609769Y-91551043D01*
X92549699Y-91749067D01*
X92529417Y-91955000D01*
X92549699Y-92160932D01*
X92558452Y-92189786D01*
X92609768Y-92358954D01*
X92707315Y-92541450D01*
X92731537Y-92570965D01*
X92838589Y-92701410D01*
X92892873Y-92745959D01*
X92998550Y-92832685D01*
X93093154Y-92883252D01*
X93142998Y-92932215D01*
X93158458Y-93000353D01*
X93134626Y-93066032D01*
X93122381Y-93080291D01*
X91589799Y-94612873D01*
X91528476Y-94646358D01*
X91458784Y-94641374D01*
X91402851Y-94599502D01*
X91378434Y-94534038D01*
X91379178Y-94509014D01*
X91381682Y-94490000D01*
X91361044Y-94333238D01*
X91300536Y-94187159D01*
X91204282Y-94061718D01*
X91078841Y-93965464D01*
X90932762Y-93904956D01*
X90932760Y-93904955D01*
X90925253Y-93901846D01*
X90926506Y-93898819D01*
X90879902Y-93870396D01*
X90849389Y-93807541D01*
X90857701Y-93738167D01*
X90883993Y-93699332D01*
X91263210Y-93320115D01*
X91267172Y-93316484D01*
X91298194Y-93290455D01*
X91318444Y-93255378D01*
X91321333Y-93250845D01*
X91344553Y-93217684D01*
X91344555Y-93217676D01*
X91346816Y-93212828D01*
X91353754Y-93196079D01*
X91355583Y-93191052D01*
X91355588Y-93191045D01*
X91362622Y-93151147D01*
X91363779Y-93145929D01*
X91374263Y-93106807D01*
X91370736Y-93066485D01*
X91370500Y-93061086D01*
X91370500Y-93045583D01*
X91390185Y-92978544D01*
X91442989Y-92932789D01*
X91447049Y-92931021D01*
X91448945Y-92930234D01*
X91448954Y-92930232D01*
X91631450Y-92832685D01*
X91791410Y-92701410D01*
X91922685Y-92541450D01*
X92020232Y-92358954D01*
X92080300Y-92160934D01*
X92100583Y-91955000D01*
X92080300Y-91749066D01*
X92020232Y-91551046D01*
X91922685Y-91368550D01*
X91851526Y-91281842D01*
X91791410Y-91208589D01*
X91670500Y-91109362D01*
X91631450Y-91077315D01*
X91448954Y-90979768D01*
X91250934Y-90919700D01*
X91250932Y-90919699D01*
X91250934Y-90919699D01*
X91045000Y-90899417D01*
X90839067Y-90919699D01*
X90704736Y-90960448D01*
X90641050Y-90979767D01*
X90641043Y-90979769D01*
X90561011Y-91022548D01*
X90458550Y-91077315D01*
X90458548Y-91077316D01*
X90458547Y-91077317D01*
X90298589Y-91208589D01*
X90170371Y-91364826D01*
X90167315Y-91368550D01*
X90141852Y-91416188D01*
X90069769Y-91551043D01*
X90009699Y-91749067D01*
X89989417Y-91955000D01*
X90009699Y-92160932D01*
X90018452Y-92189786D01*
X90069768Y-92358954D01*
X90167315Y-92541450D01*
X90191537Y-92570965D01*
X90298589Y-92701410D01*
X90352873Y-92745959D01*
X90458550Y-92832685D01*
X90553154Y-92883252D01*
X90602998Y-92932215D01*
X90618458Y-93000353D01*
X90594626Y-93066032D01*
X90582381Y-93080291D01*
X89541803Y-94120870D01*
X89537814Y-94124525D01*
X89506805Y-94150545D01*
X89486562Y-94185606D01*
X89483656Y-94190166D01*
X89460446Y-94223313D01*
X89458206Y-94228117D01*
X89451229Y-94244961D01*
X89449410Y-94249959D01*
X89442383Y-94289811D01*
X89441212Y-94295091D01*
X89430735Y-94334191D01*
X89434264Y-94374513D01*
X89434500Y-94379920D01*
X89434500Y-101132949D01*
X89414815Y-101199988D01*
X89362011Y-101245743D01*
X89294317Y-101255888D01*
X89252004Y-101250318D01*
X89251999Y-101250318D01*
X89095239Y-101270955D01*
X89095234Y-101270957D01*
X88986952Y-101315809D01*
X88917483Y-101323278D01*
X88855004Y-101292003D01*
X88819352Y-101231914D01*
X88815500Y-101201248D01*
X88815500Y-95604441D01*
X88835185Y-95537402D01*
X88841125Y-95528954D01*
X88844241Y-95524893D01*
X88850036Y-95517341D01*
X88910544Y-95371262D01*
X88931182Y-95214500D01*
X88929792Y-95203945D01*
X88910544Y-95057739D01*
X88910544Y-95057738D01*
X88850036Y-94911659D01*
X88753782Y-94786218D01*
X88628341Y-94689964D01*
X88571078Y-94666245D01*
X88482262Y-94629456D01*
X88482260Y-94629455D01*
X88325501Y-94608818D01*
X88325499Y-94608818D01*
X88168739Y-94629455D01*
X88168734Y-94629457D01*
X88097952Y-94658776D01*
X88028483Y-94666245D01*
X87966004Y-94634970D01*
X87930352Y-94574880D01*
X87926500Y-94544215D01*
X87926500Y-93045188D01*
X87946185Y-92978149D01*
X87962782Y-92957544D01*
X87963207Y-92957118D01*
X87963968Y-92956357D01*
X88025276Y-92922847D01*
X88094970Y-92927802D01*
X88099139Y-92929441D01*
X88101030Y-92930223D01*
X88101046Y-92930232D01*
X88299066Y-92990300D01*
X88299065Y-92990300D01*
X88317529Y-92992118D01*
X88505000Y-93010583D01*
X88710934Y-92990300D01*
X88908954Y-92930232D01*
X89091450Y-92832685D01*
X89251410Y-92701410D01*
X89382685Y-92541450D01*
X89480232Y-92358954D01*
X89540300Y-92160934D01*
X89560583Y-91955000D01*
X89540300Y-91749066D01*
X89480232Y-91551046D01*
X89382685Y-91368550D01*
X89311526Y-91281842D01*
X89251410Y-91208589D01*
X89130500Y-91109362D01*
X89091450Y-91077315D01*
X88908954Y-90979768D01*
X88710934Y-90919700D01*
X88710932Y-90919699D01*
X88710934Y-90919699D01*
X88505000Y-90899417D01*
X88299067Y-90919699D01*
X88164736Y-90960448D01*
X88101050Y-90979767D01*
X88101043Y-90979769D01*
X88021011Y-91022548D01*
X87918550Y-91077315D01*
X87918548Y-91077316D01*
X87918547Y-91077317D01*
X87758589Y-91208589D01*
X87630371Y-91364826D01*
X87627315Y-91368550D01*
X87601852Y-91416188D01*
X87529769Y-91551043D01*
X87469699Y-91749067D01*
X87449417Y-91955000D01*
X87469699Y-92160932D01*
X87478452Y-92189786D01*
X87529768Y-92358954D01*
X87529772Y-92358962D01*
X87530559Y-92360862D01*
X87530675Y-92361941D01*
X87531537Y-92364783D01*
X87530998Y-92364946D01*
X87538027Y-92430331D01*
X87506751Y-92492810D01*
X87503678Y-92495994D01*
X87382803Y-92616870D01*
X87378814Y-92620525D01*
X87347805Y-92646545D01*
X87327562Y-92681606D01*
X87324656Y-92686166D01*
X87301446Y-92719313D01*
X87299206Y-92724117D01*
X87292229Y-92740961D01*
X87290410Y-92745959D01*
X87283383Y-92785811D01*
X87282212Y-92791091D01*
X87271735Y-92830191D01*
X87275264Y-92870513D01*
X87275500Y-92875920D01*
X87275500Y-95359248D01*
X87255815Y-95426287D01*
X87203011Y-95472042D01*
X87133853Y-95481986D01*
X87104048Y-95473809D01*
X86995765Y-95428957D01*
X86995760Y-95428955D01*
X86839001Y-95408318D01*
X86838999Y-95408318D01*
X86682239Y-95428955D01*
X86682237Y-95428956D01*
X86536157Y-95489464D01*
X86489986Y-95524893D01*
X86424816Y-95550087D01*
X86356372Y-95536048D01*
X86306382Y-95487234D01*
X86290500Y-95426517D01*
X86290500Y-93045583D01*
X86310185Y-92978544D01*
X86362989Y-92932789D01*
X86367049Y-92931021D01*
X86368945Y-92930234D01*
X86368954Y-92930232D01*
X86551450Y-92832685D01*
X86711410Y-92701410D01*
X86842685Y-92541450D01*
X86940232Y-92358954D01*
X87000300Y-92160934D01*
X87020583Y-91955000D01*
X87000300Y-91749066D01*
X86940232Y-91551046D01*
X86842685Y-91368550D01*
X86771526Y-91281842D01*
X86711410Y-91208589D01*
X86590500Y-91109362D01*
X86551450Y-91077315D01*
X86368954Y-90979768D01*
X86170934Y-90919700D01*
X86170932Y-90919699D01*
X86170934Y-90919699D01*
X85965000Y-90899417D01*
X85759067Y-90919699D01*
X85624736Y-90960448D01*
X85561050Y-90979767D01*
X85561043Y-90979769D01*
X85481011Y-91022548D01*
X85378550Y-91077315D01*
X85378548Y-91077316D01*
X85378547Y-91077317D01*
X85218589Y-91208590D01*
X85148826Y-91293597D01*
X85091081Y-91332931D01*
X85021236Y-91334802D01*
X84961468Y-91298614D01*
X84930752Y-91235859D01*
X84929766Y-91211934D01*
X84929264Y-91206197D01*
X84929263Y-91206196D01*
X84929264Y-91206193D01*
X84918782Y-91167076D01*
X84917616Y-91161818D01*
X84910588Y-91121955D01*
X84910586Y-91121952D01*
X84910586Y-91121950D01*
X84908760Y-91116933D01*
X84901820Y-91100176D01*
X84899554Y-91095319D01*
X84899554Y-91095316D01*
X84876339Y-91062162D01*
X84873433Y-91057599D01*
X84853196Y-91022548D01*
X84853195Y-91022547D01*
X84853194Y-91022545D01*
X84822177Y-90996518D01*
X84818193Y-90992867D01*
X84197131Y-90371805D01*
X84193475Y-90367815D01*
X84162271Y-90330628D01*
X84134258Y-90266619D01*
X84145297Y-90197627D01*
X84167546Y-90166121D01*
X84167545Y-90166120D01*
X84167565Y-90166095D01*
X84169586Y-90163234D01*
X84171404Y-90161414D01*
X84171410Y-90161410D01*
X84302685Y-90001450D01*
X84400232Y-89818954D01*
X84460300Y-89620934D01*
X84480583Y-89415000D01*
X84460300Y-89209066D01*
X84400232Y-89011046D01*
X84400227Y-89011038D01*
X84399439Y-89009132D01*
X84399322Y-89008051D01*
X84398463Y-89005217D01*
X84399000Y-89005053D01*
X84391973Y-88939663D01*
X84423250Y-88877185D01*
X84426292Y-88874033D01*
X87037508Y-86262819D01*
X87098831Y-86229334D01*
X87125189Y-86226500D01*
X88393811Y-86226500D01*
X88460850Y-86246185D01*
G37*
G04 #@! TD.AperFunction*
G04 #@! TA.AperFunction,Conductor*
G36*
X108832703Y-89960090D02*
G01*
X108863882Y-90001398D01*
X108906399Y-90092578D01*
X109041894Y-90286082D01*
X109208917Y-90453105D01*
X109402421Y-90588600D01*
X109572948Y-90668118D01*
X109625387Y-90714290D01*
X109644539Y-90781484D01*
X109624323Y-90848365D01*
X109571158Y-90893700D01*
X109520543Y-90904500D01*
X109210247Y-90904500D01*
X109151770Y-90916131D01*
X109151769Y-90916132D01*
X109085447Y-90960447D01*
X109041132Y-91026769D01*
X109041131Y-91026770D01*
X109029500Y-91085247D01*
X109029500Y-92824752D01*
X109041131Y-92883229D01*
X109041132Y-92883230D01*
X109085447Y-92949552D01*
X109151769Y-92993867D01*
X109151770Y-92993868D01*
X109210247Y-93005499D01*
X109210250Y-93005500D01*
X109210252Y-93005500D01*
X109630500Y-93005500D01*
X109697539Y-93025185D01*
X109743294Y-93077989D01*
X109754500Y-93129500D01*
X109754500Y-93794699D01*
X109734815Y-93861738D01*
X109705988Y-93893074D01*
X109651720Y-93934715D01*
X109555463Y-94060160D01*
X109494956Y-94206237D01*
X109494955Y-94206239D01*
X109474318Y-94362998D01*
X109474318Y-94363001D01*
X109494955Y-94519760D01*
X109494956Y-94519762D01*
X109552537Y-94658776D01*
X109555464Y-94665841D01*
X109651718Y-94791282D01*
X109777159Y-94887536D01*
X109923238Y-94948044D01*
X110001619Y-94958363D01*
X110079999Y-94968682D01*
X110080000Y-94968682D01*
X110080001Y-94968682D01*
X110132254Y-94961802D01*
X110236762Y-94948044D01*
X110382841Y-94887536D01*
X110508282Y-94791282D01*
X110604536Y-94665841D01*
X110665044Y-94519762D01*
X110681764Y-94392760D01*
X110685682Y-94363001D01*
X110685682Y-94362998D01*
X110669615Y-94240957D01*
X110665044Y-94206238D01*
X110604536Y-94060159D01*
X110508282Y-93934718D01*
X110508280Y-93934716D01*
X110508279Y-93934715D01*
X110454012Y-93893074D01*
X110412810Y-93836646D01*
X110405500Y-93794699D01*
X110405500Y-93129500D01*
X110425185Y-93062461D01*
X110477989Y-93016706D01*
X110529500Y-93005500D01*
X110949750Y-93005500D01*
X110949751Y-93005499D01*
X110975624Y-93000353D01*
X111008229Y-92993868D01*
X111008229Y-92993867D01*
X111008231Y-92993867D01*
X111074552Y-92949552D01*
X111118867Y-92883231D01*
X111118867Y-92883229D01*
X111118868Y-92883229D01*
X111129417Y-92830191D01*
X111130500Y-92824748D01*
X111130500Y-91085252D01*
X111130500Y-91085249D01*
X111130499Y-91085247D01*
X111118868Y-91026770D01*
X111118867Y-91026769D01*
X111074552Y-90960447D01*
X111008230Y-90916132D01*
X111008229Y-90916131D01*
X110949752Y-90904500D01*
X110949748Y-90904500D01*
X110639457Y-90904500D01*
X110572418Y-90884815D01*
X110526663Y-90832011D01*
X110516719Y-90762853D01*
X110545744Y-90699297D01*
X110587052Y-90668118D01*
X110757578Y-90588600D01*
X110951082Y-90453105D01*
X111118105Y-90286082D01*
X111248425Y-90099968D01*
X111303002Y-90056344D01*
X111372501Y-90049151D01*
X111434855Y-90080673D01*
X111451575Y-90099968D01*
X111581894Y-90286082D01*
X111748917Y-90453105D01*
X111942421Y-90588600D01*
X112156507Y-90688429D01*
X112156516Y-90688433D01*
X112278649Y-90721158D01*
X112338310Y-90757523D01*
X112368839Y-90820369D01*
X112360545Y-90889745D01*
X112316059Y-90943623D01*
X112282552Y-90959593D01*
X112216046Y-90979767D01*
X112096843Y-91043484D01*
X112033550Y-91077315D01*
X112033548Y-91077316D01*
X112033547Y-91077317D01*
X111873589Y-91208589D01*
X111745371Y-91364826D01*
X111742315Y-91368550D01*
X111716852Y-91416188D01*
X111644769Y-91551043D01*
X111584699Y-91749067D01*
X111564417Y-91955000D01*
X111584699Y-92160932D01*
X111593452Y-92189786D01*
X111644768Y-92358954D01*
X111742315Y-92541450D01*
X111766537Y-92570965D01*
X111873589Y-92701410D01*
X111927873Y-92745959D01*
X112033550Y-92832685D01*
X112216046Y-92930232D01*
X112216051Y-92930233D01*
X112217951Y-92931021D01*
X112218796Y-92931701D01*
X112221419Y-92933104D01*
X112221153Y-92933601D01*
X112272355Y-92974862D01*
X112294421Y-93041156D01*
X112294500Y-93045583D01*
X112294500Y-93667699D01*
X112274815Y-93734738D01*
X112245988Y-93766074D01*
X112191720Y-93807715D01*
X112095463Y-93933160D01*
X112034956Y-94079237D01*
X112034955Y-94079239D01*
X112014318Y-94235998D01*
X112014318Y-94236001D01*
X112034955Y-94392760D01*
X112034956Y-94392762D01*
X112093474Y-94534038D01*
X112095464Y-94538841D01*
X112191718Y-94664282D01*
X112317159Y-94760536D01*
X112463238Y-94821044D01*
X112524050Y-94829050D01*
X112619999Y-94841682D01*
X112620000Y-94841682D01*
X112620001Y-94841682D01*
X112672254Y-94834802D01*
X112776762Y-94821044D01*
X112922841Y-94760536D01*
X113048282Y-94664282D01*
X113144536Y-94538841D01*
X113205044Y-94392762D01*
X113224502Y-94244961D01*
X113225682Y-94236001D01*
X113225682Y-94235998D01*
X113205471Y-94082481D01*
X113205044Y-94079238D01*
X113144536Y-93933159D01*
X113048282Y-93807718D01*
X113048280Y-93807716D01*
X113048279Y-93807715D01*
X112994012Y-93766074D01*
X112952810Y-93709646D01*
X112945500Y-93667699D01*
X112945500Y-93045583D01*
X112965185Y-92978544D01*
X113017989Y-92932789D01*
X113022049Y-92931021D01*
X113023945Y-92930234D01*
X113023954Y-92930232D01*
X113206450Y-92832685D01*
X113366410Y-92701410D01*
X113439646Y-92612170D01*
X113497392Y-92572836D01*
X113567236Y-92570965D01*
X113627005Y-92607152D01*
X113657721Y-92669908D01*
X113659500Y-92690835D01*
X113659500Y-98661030D01*
X113639815Y-98728069D01*
X113610988Y-98759404D01*
X113539390Y-98814344D01*
X113520919Y-98828517D01*
X113424664Y-98953959D01*
X113364157Y-99100036D01*
X113364156Y-99100038D01*
X113343519Y-99256797D01*
X113343519Y-99256800D01*
X113364156Y-99413559D01*
X113364157Y-99413561D01*
X113405563Y-99513525D01*
X113424665Y-99559640D01*
X113520919Y-99685081D01*
X113646360Y-99781335D01*
X113792439Y-99841843D01*
X113870820Y-99852162D01*
X113949200Y-99862481D01*
X113949201Y-99862481D01*
X113949202Y-99862481D01*
X114001455Y-99855601D01*
X114105963Y-99841843D01*
X114252042Y-99781335D01*
X114377483Y-99685081D01*
X114473737Y-99559640D01*
X114534245Y-99413561D01*
X114548119Y-99308174D01*
X114554883Y-99256800D01*
X114554883Y-99256797D01*
X114534245Y-99100038D01*
X114534245Y-99100037D01*
X114473737Y-98953958D01*
X114377483Y-98828517D01*
X114359011Y-98814343D01*
X114317810Y-98757915D01*
X114310500Y-98715969D01*
X114310500Y-94275892D01*
X114322045Y-94236574D01*
X114311981Y-94215213D01*
X114310500Y-94196107D01*
X114310500Y-92878982D01*
X114330185Y-92811943D01*
X114382989Y-92766188D01*
X114452147Y-92756244D01*
X114513165Y-92783129D01*
X114563920Y-92824782D01*
X114573550Y-92832685D01*
X114756046Y-92930232D01*
X114756051Y-92930233D01*
X114757951Y-92931021D01*
X114758796Y-92931701D01*
X114761419Y-92933104D01*
X114761153Y-92933601D01*
X114812355Y-92974862D01*
X114834421Y-93041156D01*
X114834500Y-93045583D01*
X114834500Y-93667699D01*
X114814815Y-93734738D01*
X114785988Y-93766074D01*
X114731720Y-93807715D01*
X114635463Y-93933160D01*
X114574956Y-94079237D01*
X114574955Y-94079239D01*
X114557439Y-94212292D01*
X114548312Y-94232921D01*
X114553477Y-94240957D01*
X114557439Y-94259707D01*
X114574955Y-94392760D01*
X114574956Y-94392762D01*
X114633474Y-94534038D01*
X114635464Y-94538841D01*
X114731718Y-94664282D01*
X114857159Y-94760536D01*
X115003238Y-94821044D01*
X115064050Y-94829050D01*
X115159999Y-94841682D01*
X115160000Y-94841682D01*
X115160001Y-94841682D01*
X115212254Y-94834802D01*
X115316762Y-94821044D01*
X115462841Y-94760536D01*
X115588282Y-94664282D01*
X115684536Y-94538841D01*
X115745044Y-94392762D01*
X115764502Y-94244961D01*
X115765682Y-94236001D01*
X115765682Y-94235998D01*
X115745471Y-94082481D01*
X115745044Y-94079238D01*
X115684536Y-93933159D01*
X115588282Y-93807718D01*
X115588280Y-93807716D01*
X115588279Y-93807715D01*
X115534012Y-93766074D01*
X115492810Y-93709646D01*
X115485500Y-93667699D01*
X115485500Y-93045583D01*
X115505185Y-92978544D01*
X115557989Y-92932789D01*
X115562049Y-92931021D01*
X115563945Y-92930234D01*
X115563954Y-92930232D01*
X115746450Y-92832685D01*
X115906410Y-92701410D01*
X115979646Y-92612170D01*
X116037392Y-92572836D01*
X116107236Y-92570965D01*
X116167005Y-92607152D01*
X116197721Y-92669908D01*
X116199500Y-92690835D01*
X116199500Y-100144699D01*
X116179815Y-100211738D01*
X116150988Y-100243074D01*
X116096720Y-100284715D01*
X116000463Y-100410160D01*
X115939956Y-100556237D01*
X115939955Y-100556239D01*
X115919318Y-100712998D01*
X115919318Y-100713001D01*
X115939955Y-100869760D01*
X115939956Y-100869762D01*
X115983489Y-100974861D01*
X116000464Y-101015841D01*
X116096718Y-101141282D01*
X116222159Y-101237536D01*
X116368238Y-101298044D01*
X116399548Y-101302166D01*
X116524999Y-101318682D01*
X116525000Y-101318682D01*
X116525001Y-101318682D01*
X116577254Y-101311802D01*
X116681762Y-101298044D01*
X116827841Y-101237536D01*
X116953282Y-101141282D01*
X117049536Y-101015841D01*
X117110044Y-100869762D01*
X117130682Y-100713000D01*
X117110044Y-100556238D01*
X117049536Y-100410159D01*
X116953282Y-100284718D01*
X116953280Y-100284716D01*
X116953279Y-100284715D01*
X116899012Y-100243074D01*
X116857810Y-100186646D01*
X116850500Y-100144699D01*
X116850500Y-94275892D01*
X116862045Y-94236574D01*
X116851981Y-94215213D01*
X116850500Y-94196107D01*
X116850500Y-92878982D01*
X116870185Y-92811943D01*
X116922989Y-92766188D01*
X116992147Y-92756244D01*
X117053165Y-92783129D01*
X117103920Y-92824782D01*
X117113550Y-92832685D01*
X117296046Y-92930232D01*
X117296051Y-92930233D01*
X117297951Y-92931021D01*
X117298796Y-92931701D01*
X117301419Y-92933104D01*
X117301153Y-92933601D01*
X117352355Y-92974862D01*
X117374421Y-93041156D01*
X117374500Y-93045583D01*
X117374500Y-93667699D01*
X117354815Y-93734738D01*
X117325988Y-93766074D01*
X117271720Y-93807715D01*
X117175463Y-93933160D01*
X117114956Y-94079237D01*
X117114955Y-94079239D01*
X117097439Y-94212292D01*
X117088312Y-94232921D01*
X117093477Y-94240957D01*
X117097439Y-94259707D01*
X117114955Y-94392760D01*
X117114956Y-94392762D01*
X117173474Y-94534038D01*
X117175464Y-94538841D01*
X117271718Y-94664282D01*
X117397159Y-94760536D01*
X117543238Y-94821044D01*
X117604050Y-94829050D01*
X117699999Y-94841682D01*
X117700000Y-94841682D01*
X117700001Y-94841682D01*
X117752254Y-94834802D01*
X117856762Y-94821044D01*
X118002841Y-94760536D01*
X118128282Y-94664282D01*
X118224536Y-94538841D01*
X118285044Y-94392762D01*
X118304502Y-94244961D01*
X118305682Y-94236001D01*
X118305682Y-94235998D01*
X118285471Y-94082481D01*
X118285044Y-94079238D01*
X118224536Y-93933159D01*
X118128282Y-93807718D01*
X118128280Y-93807716D01*
X118128279Y-93807715D01*
X118074012Y-93766074D01*
X118032810Y-93709646D01*
X118025500Y-93667699D01*
X118025500Y-93045583D01*
X118045185Y-92978544D01*
X118097989Y-92932789D01*
X118102049Y-92931021D01*
X118103945Y-92930234D01*
X118103954Y-92930232D01*
X118286450Y-92832685D01*
X118446410Y-92701410D01*
X118519646Y-92612170D01*
X118577392Y-92572836D01*
X118647236Y-92570965D01*
X118707005Y-92607152D01*
X118737721Y-92669908D01*
X118739500Y-92690835D01*
X118739500Y-100271699D01*
X118719815Y-100338738D01*
X118690988Y-100370074D01*
X118636720Y-100411715D01*
X118540463Y-100537160D01*
X118479956Y-100683237D01*
X118479955Y-100683239D01*
X118459318Y-100839998D01*
X118459318Y-100840001D01*
X118479955Y-100996760D01*
X118479956Y-100996762D01*
X118539686Y-101140964D01*
X118540464Y-101142841D01*
X118636718Y-101268282D01*
X118762159Y-101364536D01*
X118908238Y-101425044D01*
X118969050Y-101433050D01*
X119064999Y-101445682D01*
X119065000Y-101445682D01*
X119065001Y-101445682D01*
X119141839Y-101435566D01*
X119221762Y-101425044D01*
X119367841Y-101364536D01*
X119493282Y-101268282D01*
X119589536Y-101142841D01*
X119650044Y-100996762D01*
X119670682Y-100840000D01*
X119650044Y-100683238D01*
X119589536Y-100537159D01*
X119493282Y-100411718D01*
X119493280Y-100411716D01*
X119493279Y-100411715D01*
X119439012Y-100370074D01*
X119397810Y-100313646D01*
X119390500Y-100271699D01*
X119390500Y-94275892D01*
X119402045Y-94236574D01*
X119391981Y-94215213D01*
X119390500Y-94196107D01*
X119390500Y-92878982D01*
X119410185Y-92811943D01*
X119462989Y-92766188D01*
X119532147Y-92756244D01*
X119593165Y-92783129D01*
X119643920Y-92824782D01*
X119653550Y-92832685D01*
X119836046Y-92930232D01*
X119836051Y-92930233D01*
X119837951Y-92931021D01*
X119838796Y-92931701D01*
X119841419Y-92933104D01*
X119841153Y-92933601D01*
X119892355Y-92974862D01*
X119914421Y-93041156D01*
X119914500Y-93045583D01*
X119914500Y-93667699D01*
X119894815Y-93734738D01*
X119865988Y-93766074D01*
X119811720Y-93807715D01*
X119715463Y-93933160D01*
X119654956Y-94079237D01*
X119654955Y-94079239D01*
X119637439Y-94212292D01*
X119628312Y-94232921D01*
X119633477Y-94240957D01*
X119637439Y-94259707D01*
X119654955Y-94392760D01*
X119654956Y-94392762D01*
X119713474Y-94534038D01*
X119715464Y-94538841D01*
X119811718Y-94664282D01*
X119937159Y-94760536D01*
X120083238Y-94821044D01*
X120144050Y-94829050D01*
X120239999Y-94841682D01*
X120240000Y-94841682D01*
X120240001Y-94841682D01*
X120292254Y-94834802D01*
X120396762Y-94821044D01*
X120542841Y-94760536D01*
X120668282Y-94664282D01*
X120764536Y-94538841D01*
X120825044Y-94392762D01*
X120844502Y-94244961D01*
X120845682Y-94236001D01*
X120845682Y-94235998D01*
X120825471Y-94082481D01*
X120825044Y-94079238D01*
X120764536Y-93933159D01*
X120668282Y-93807718D01*
X120668280Y-93807716D01*
X120668279Y-93807715D01*
X120614012Y-93766074D01*
X120572810Y-93709646D01*
X120565500Y-93667699D01*
X120565500Y-93045583D01*
X120585185Y-92978544D01*
X120637989Y-92932789D01*
X120642049Y-92931021D01*
X120643945Y-92930234D01*
X120643954Y-92930232D01*
X120826450Y-92832685D01*
X120986410Y-92701410D01*
X121059646Y-92612170D01*
X121117392Y-92572836D01*
X121187236Y-92570965D01*
X121247005Y-92607152D01*
X121277721Y-92669908D01*
X121279500Y-92690835D01*
X121279500Y-100271699D01*
X121259815Y-100338738D01*
X121230988Y-100370074D01*
X121176720Y-100411715D01*
X121080463Y-100537160D01*
X121019956Y-100683237D01*
X121019955Y-100683239D01*
X120999318Y-100839998D01*
X120999318Y-100840001D01*
X121019955Y-100996760D01*
X121019956Y-100996762D01*
X121079686Y-101140964D01*
X121080464Y-101142841D01*
X121176718Y-101268282D01*
X121302159Y-101364536D01*
X121448238Y-101425044D01*
X121509050Y-101433050D01*
X121604999Y-101445682D01*
X121605000Y-101445682D01*
X121605001Y-101445682D01*
X121681839Y-101435566D01*
X121761762Y-101425044D01*
X121907841Y-101364536D01*
X122033282Y-101268282D01*
X122129536Y-101142841D01*
X122190044Y-100996762D01*
X122210682Y-100840000D01*
X122190044Y-100683238D01*
X122129536Y-100537159D01*
X122033282Y-100411718D01*
X122033280Y-100411716D01*
X122033279Y-100411715D01*
X121979012Y-100370074D01*
X121937810Y-100313646D01*
X121930500Y-100271699D01*
X121930500Y-94275892D01*
X121942045Y-94236574D01*
X121931981Y-94215213D01*
X121930500Y-94196107D01*
X121930500Y-92878982D01*
X121950185Y-92811943D01*
X122002989Y-92766188D01*
X122072147Y-92756244D01*
X122133165Y-92783129D01*
X122183920Y-92824782D01*
X122193550Y-92832685D01*
X122376046Y-92930232D01*
X122376051Y-92930233D01*
X122377951Y-92931021D01*
X122378796Y-92931701D01*
X122381419Y-92933104D01*
X122381153Y-92933601D01*
X122432355Y-92974862D01*
X122454421Y-93041156D01*
X122454500Y-93045583D01*
X122454500Y-93667699D01*
X122434815Y-93734738D01*
X122405988Y-93766074D01*
X122351720Y-93807715D01*
X122255463Y-93933160D01*
X122194956Y-94079237D01*
X122194955Y-94079239D01*
X122177439Y-94212292D01*
X122168312Y-94232921D01*
X122173477Y-94240957D01*
X122177439Y-94259707D01*
X122194955Y-94392760D01*
X122194956Y-94392762D01*
X122253474Y-94534038D01*
X122255464Y-94538841D01*
X122351718Y-94664282D01*
X122477159Y-94760536D01*
X122623238Y-94821044D01*
X122684050Y-94829050D01*
X122779999Y-94841682D01*
X122780000Y-94841682D01*
X122780001Y-94841682D01*
X122832254Y-94834802D01*
X122936762Y-94821044D01*
X123082841Y-94760536D01*
X123208282Y-94664282D01*
X123304536Y-94538841D01*
X123365044Y-94392762D01*
X123384502Y-94244961D01*
X123385682Y-94236001D01*
X123385682Y-94235998D01*
X123365471Y-94082481D01*
X123365044Y-94079238D01*
X123304536Y-93933159D01*
X123208282Y-93807718D01*
X123208280Y-93807716D01*
X123208279Y-93807715D01*
X123154012Y-93766074D01*
X123112810Y-93709646D01*
X123105500Y-93667699D01*
X123105500Y-93045583D01*
X123125185Y-92978544D01*
X123177989Y-92932789D01*
X123182049Y-92931021D01*
X123183945Y-92930234D01*
X123183954Y-92930232D01*
X123366450Y-92832685D01*
X123526410Y-92701410D01*
X123599646Y-92612170D01*
X123657392Y-92572836D01*
X123727236Y-92570965D01*
X123787005Y-92607152D01*
X123817721Y-92669908D01*
X123819500Y-92690835D01*
X123819500Y-99669811D01*
X123799815Y-99736850D01*
X123783181Y-99757492D01*
X123332684Y-100207988D01*
X123271361Y-100241473D01*
X123228818Y-100243246D01*
X123161001Y-100234318D01*
X123160999Y-100234318D01*
X123004239Y-100254955D01*
X123004237Y-100254956D01*
X122858160Y-100315463D01*
X122732718Y-100411718D01*
X122636463Y-100537160D01*
X122575956Y-100683237D01*
X122575955Y-100683239D01*
X122555318Y-100839998D01*
X122555318Y-100840001D01*
X122575955Y-100996760D01*
X122575956Y-100996762D01*
X122635686Y-101140964D01*
X122636464Y-101142841D01*
X122732718Y-101268282D01*
X122858159Y-101364536D01*
X123004238Y-101425044D01*
X123065050Y-101433050D01*
X123160999Y-101445682D01*
X123161000Y-101445682D01*
X123161001Y-101445682D01*
X123237839Y-101435566D01*
X123317762Y-101425044D01*
X123463841Y-101364536D01*
X123589282Y-101268282D01*
X123634125Y-101209841D01*
X123690552Y-101168639D01*
X123760298Y-101164484D01*
X123821218Y-101198696D01*
X123830871Y-101209837D01*
X123850014Y-101234784D01*
X123874679Y-101266929D01*
X123875718Y-101268282D01*
X124001159Y-101364536D01*
X124147238Y-101425044D01*
X124208050Y-101433050D01*
X124303999Y-101445682D01*
X124304000Y-101445682D01*
X124304001Y-101445682D01*
X124380839Y-101435566D01*
X124460762Y-101425044D01*
X124606841Y-101364536D01*
X124732282Y-101268282D01*
X124772125Y-101216357D01*
X124828552Y-101175155D01*
X124898298Y-101171000D01*
X124959218Y-101205212D01*
X124991971Y-101266929D01*
X124994500Y-101291844D01*
X124994500Y-104336811D01*
X124974815Y-104403850D01*
X124958181Y-104424492D01*
X120656803Y-108725870D01*
X120652814Y-108729525D01*
X120621805Y-108755545D01*
X120601562Y-108790606D01*
X120598656Y-108795166D01*
X120575446Y-108828313D01*
X120573206Y-108833117D01*
X120566229Y-108849961D01*
X120564410Y-108854959D01*
X120557383Y-108894811D01*
X120556212Y-108900091D01*
X120545735Y-108939191D01*
X120547852Y-108963378D01*
X120549040Y-108976961D01*
X120549264Y-108979513D01*
X120549500Y-108984920D01*
X120549500Y-112098259D01*
X120529815Y-112165298D01*
X120477011Y-112211053D01*
X120407853Y-112220997D01*
X120375581Y-112210256D01*
X120375399Y-112210746D01*
X120232379Y-112157403D01*
X120232372Y-112157401D01*
X120172844Y-112151000D01*
X119855000Y-112151000D01*
X119855000Y-112247600D01*
X119835315Y-112314639D01*
X119782511Y-112360394D01*
X119731000Y-112371600D01*
X119479000Y-112371600D01*
X119411961Y-112351915D01*
X119366206Y-112299111D01*
X119355000Y-112247600D01*
X119355000Y-112151000D01*
X119037155Y-112151000D01*
X118977627Y-112157401D01*
X118977620Y-112157403D01*
X118842913Y-112207645D01*
X118842910Y-112207647D01*
X118721557Y-112298492D01*
X118656092Y-112322909D01*
X118587819Y-112308057D01*
X118567540Y-112294214D01*
X118557182Y-112285523D01*
X118553193Y-112281867D01*
X108663819Y-102392493D01*
X108630334Y-102331170D01*
X108627500Y-102304812D01*
X108627500Y-90053803D01*
X108647185Y-89986764D01*
X108699989Y-89941009D01*
X108769147Y-89931065D01*
X108832703Y-89960090D01*
G37*
G04 #@! TD.AperFunction*
G04 #@! TA.AperFunction,Conductor*
G36*
X144800948Y-91103385D02*
G01*
X144846703Y-91156189D01*
X144856647Y-91225347D01*
X144829762Y-91286365D01*
X144762317Y-91368546D01*
X144664769Y-91551043D01*
X144604699Y-91749067D01*
X144584417Y-91955000D01*
X144604699Y-92160932D01*
X144613452Y-92189786D01*
X144664768Y-92358954D01*
X144762315Y-92541450D01*
X144786537Y-92570965D01*
X144893589Y-92701410D01*
X144947873Y-92745959D01*
X145053550Y-92832685D01*
X145236046Y-92930232D01*
X145236051Y-92930233D01*
X145237951Y-92931021D01*
X145238796Y-92931701D01*
X145241419Y-92933104D01*
X145241153Y-92933601D01*
X145292355Y-92974862D01*
X145314421Y-93041156D01*
X145314500Y-93045583D01*
X145314500Y-101288811D01*
X145294815Y-101355850D01*
X145278181Y-101376492D01*
X143516803Y-103137870D01*
X143512814Y-103141525D01*
X143481805Y-103167545D01*
X143461562Y-103202606D01*
X143458656Y-103207166D01*
X143435446Y-103240313D01*
X143433206Y-103245117D01*
X143426229Y-103261961D01*
X143424410Y-103266959D01*
X143417383Y-103306811D01*
X143416212Y-103312091D01*
X143405735Y-103351191D01*
X143409264Y-103391513D01*
X143409500Y-103396920D01*
X143409500Y-112247600D01*
X143389815Y-112314639D01*
X143337011Y-112360394D01*
X143285500Y-112371600D01*
X142914500Y-112371600D01*
X142847461Y-112351915D01*
X142801706Y-112299111D01*
X142790500Y-112247600D01*
X142790500Y-101661187D01*
X142810185Y-101594148D01*
X142826815Y-101573510D01*
X143318215Y-101082109D01*
X143322166Y-101078489D01*
X143353194Y-101052455D01*
X143373438Y-101017390D01*
X143376335Y-101012841D01*
X143399554Y-100979684D01*
X143399554Y-100979681D01*
X143401819Y-100974824D01*
X143408747Y-100958099D01*
X143410584Y-100953050D01*
X143410588Y-100953045D01*
X143417619Y-100913162D01*
X143418777Y-100907940D01*
X143429264Y-100868807D01*
X143425735Y-100828478D01*
X143425500Y-100823075D01*
X143425500Y-93045583D01*
X143445185Y-92978544D01*
X143497989Y-92932789D01*
X143502049Y-92931021D01*
X143503945Y-92930234D01*
X143503954Y-92930232D01*
X143686450Y-92832685D01*
X143846410Y-92701410D01*
X143977685Y-92541450D01*
X144075232Y-92358954D01*
X144135300Y-92160934D01*
X144155583Y-91955000D01*
X144135300Y-91749066D01*
X144075232Y-91551046D01*
X143977685Y-91368550D01*
X143973313Y-91363223D01*
X143910238Y-91286365D01*
X143882925Y-91222055D01*
X143894716Y-91153187D01*
X143941868Y-91101627D01*
X144006091Y-91083700D01*
X144733909Y-91083700D01*
X144800948Y-91103385D01*
G37*
G04 #@! TD.AperFunction*
G04 #@! TA.AperFunction,Conductor*
G36*
X149880948Y-91103385D02*
G01*
X149926703Y-91156189D01*
X149936647Y-91225347D01*
X149909762Y-91286365D01*
X149842317Y-91368546D01*
X149744769Y-91551043D01*
X149684699Y-91749067D01*
X149664417Y-91955000D01*
X149684699Y-92160932D01*
X149693452Y-92189786D01*
X149744768Y-92358954D01*
X149842315Y-92541450D01*
X149866537Y-92570965D01*
X149973589Y-92701410D01*
X150027873Y-92745959D01*
X150133550Y-92832685D01*
X150316046Y-92930232D01*
X150316051Y-92930233D01*
X150317951Y-92931021D01*
X150318796Y-92931701D01*
X150321419Y-92933104D01*
X150321153Y-92933601D01*
X150372355Y-92974862D01*
X150394421Y-93041156D01*
X150394500Y-93045583D01*
X150394500Y-102558811D01*
X150374815Y-102625850D01*
X150358181Y-102646492D01*
X147326803Y-105677870D01*
X147322814Y-105681525D01*
X147291805Y-105707545D01*
X147271562Y-105742606D01*
X147268656Y-105747166D01*
X147245446Y-105780313D01*
X147243206Y-105785117D01*
X147236229Y-105801961D01*
X147234410Y-105806959D01*
X147227383Y-105846811D01*
X147226212Y-105852091D01*
X147215735Y-105891191D01*
X147219264Y-105931513D01*
X147219500Y-105936920D01*
X147219500Y-112247600D01*
X147199815Y-112314639D01*
X147147011Y-112360394D01*
X147095500Y-112371600D01*
X146674585Y-112371600D01*
X146607546Y-112351915D01*
X146599098Y-112345975D01*
X146577842Y-112329664D01*
X146577836Y-112329661D01*
X146431765Y-112269157D01*
X146431760Y-112269155D01*
X146275001Y-112248518D01*
X146274999Y-112248518D01*
X146118239Y-112269155D01*
X146118234Y-112269157D01*
X145972163Y-112329661D01*
X145972157Y-112329664D01*
X145950902Y-112345975D01*
X145885733Y-112371170D01*
X145875415Y-112371600D01*
X145454500Y-112371600D01*
X145387461Y-112351915D01*
X145341706Y-112299111D01*
X145330500Y-112247600D01*
X145330500Y-105471187D01*
X145350185Y-105404148D01*
X145366814Y-105383511D01*
X148398204Y-102352120D01*
X148402166Y-102348489D01*
X148433194Y-102322455D01*
X148453438Y-102287390D01*
X148456335Y-102282841D01*
X148479554Y-102249684D01*
X148479554Y-102249681D01*
X148481819Y-102244824D01*
X148488747Y-102228099D01*
X148490584Y-102223050D01*
X148490588Y-102223045D01*
X148497619Y-102183162D01*
X148498777Y-102177940D01*
X148509264Y-102138807D01*
X148505735Y-102098481D01*
X148505500Y-102093078D01*
X148505500Y-93045583D01*
X148525185Y-92978544D01*
X148577989Y-92932789D01*
X148582049Y-92931021D01*
X148583945Y-92930234D01*
X148583954Y-92930232D01*
X148766450Y-92832685D01*
X148926410Y-92701410D01*
X149057685Y-92541450D01*
X149155232Y-92358954D01*
X149215300Y-92160934D01*
X149235583Y-91955000D01*
X149215300Y-91749066D01*
X149155232Y-91551046D01*
X149057685Y-91368550D01*
X149053313Y-91363223D01*
X148990238Y-91286365D01*
X148962925Y-91222055D01*
X148974716Y-91153187D01*
X149021868Y-91101627D01*
X149086091Y-91083700D01*
X149813909Y-91083700D01*
X149880948Y-91103385D01*
G37*
G04 #@! TD.AperFunction*
G04 #@! TA.AperFunction,Conductor*
G36*
X154246205Y-92632497D02*
G01*
X154276921Y-92695252D01*
X154278700Y-92716180D01*
X154278700Y-101739020D01*
X154259015Y-101806059D01*
X154242381Y-101826701D01*
X152294329Y-103774752D01*
X152284152Y-103794725D01*
X152273991Y-103811306D01*
X152260818Y-103829438D01*
X152260814Y-103829446D01*
X152253889Y-103850757D01*
X152246447Y-103868724D01*
X152236272Y-103888694D01*
X152232764Y-103910838D01*
X152228226Y-103929742D01*
X152221300Y-103951062D01*
X152221300Y-112247600D01*
X152201615Y-112314639D01*
X152148811Y-112360394D01*
X152097300Y-112371600D01*
X151754585Y-112371600D01*
X151687546Y-112351915D01*
X151679098Y-112345975D01*
X151657842Y-112329664D01*
X151657836Y-112329661D01*
X151511765Y-112269157D01*
X151511760Y-112269155D01*
X151355001Y-112248518D01*
X151354999Y-112248518D01*
X151198239Y-112269155D01*
X151198234Y-112269157D01*
X151052163Y-112329661D01*
X151052157Y-112329664D01*
X151030902Y-112345975D01*
X150965733Y-112371170D01*
X150955415Y-112371600D01*
X150484585Y-112371600D01*
X150417546Y-112351915D01*
X150409098Y-112345975D01*
X150387842Y-112329664D01*
X150387836Y-112329661D01*
X150241765Y-112269157D01*
X150241760Y-112269155D01*
X150085001Y-112248518D01*
X150084999Y-112248518D01*
X149928239Y-112269155D01*
X149928234Y-112269157D01*
X149782163Y-112329661D01*
X149782157Y-112329664D01*
X149760902Y-112345975D01*
X149695733Y-112371170D01*
X149685415Y-112371600D01*
X149264500Y-112371600D01*
X149197461Y-112351915D01*
X149151706Y-112299111D01*
X149140500Y-112247600D01*
X149140500Y-106106188D01*
X149160185Y-106039149D01*
X149176819Y-106018507D01*
X151326602Y-103868724D01*
X153478210Y-101717115D01*
X153482172Y-101713484D01*
X153513194Y-101687455D01*
X153533444Y-101652379D01*
X153536328Y-101647852D01*
X153559554Y-101614684D01*
X153559554Y-101614681D01*
X153561819Y-101609824D01*
X153568747Y-101593099D01*
X153570587Y-101588046D01*
X153570588Y-101588045D01*
X153577621Y-101548150D01*
X153578777Y-101542937D01*
X153589263Y-101503807D01*
X153585735Y-101463489D01*
X153585500Y-101458086D01*
X153585500Y-93045583D01*
X153605185Y-92978544D01*
X153657989Y-92932789D01*
X153662049Y-92931021D01*
X153663945Y-92930234D01*
X153663954Y-92930232D01*
X153846450Y-92832685D01*
X154006410Y-92701410D01*
X154058846Y-92637515D01*
X154116592Y-92598181D01*
X154186436Y-92596310D01*
X154246205Y-92632497D01*
G37*
G04 #@! TD.AperFunction*
G04 #@! TA.AperFunction,Conductor*
G36*
X112160507Y-89205156D02*
G01*
X112120000Y-89343111D01*
X112120000Y-89486889D01*
X112160507Y-89624844D01*
X112186314Y-89665000D01*
X110513686Y-89665000D01*
X110539493Y-89624844D01*
X110580000Y-89486889D01*
X110580000Y-89343111D01*
X110539493Y-89205156D01*
X110513686Y-89165000D01*
X112186314Y-89165000D01*
X112160507Y-89205156D01*
G37*
G04 #@! TD.AperFunction*
M02*
