M48
; DRILL file {KiCad 7.0.9} date Monday, January 22, 2024 at 10:05:12 PM
; FORMAT={-:-/ absolute / metric / decimal}
; #@! TF.CreationDate,2024-01-22T22:05:12+01:00
; #@! TF.GenerationSoftware,Kicad,Pcbnew,7.0.9
; #@! TF.FileFunction,Plated,1,2,PTH
FMAT,2
METRIC
; #@! TA.AperFunction,Plated,PTH,ViaDrill
T1C0.400
; #@! TA.AperFunction,Plated,PTH,ComponentDrill
T2C1.000
%
G90
G05
T1
X57.375Y-112.854
X58.025Y-94.49
X58.645Y-112.854
X59.407Y-99.57
X59.915Y-112.854
X60.565Y-95.215
X61.185Y-112.854
X61.566Y-104.396
X62.455Y-112.854
X63.105Y-95.939
X63.725Y-112.854
X64.995Y-112.854
X65.645Y-96.739
X66.265Y-112.854
X67.535Y-112.854
X68.185Y-97.501
X68.805Y-112.854
X68.932Y-106.174
X70.075Y-106.905
X70.075Y-112.854
X70.725Y-98.262
X71.345Y-106.18
X71.345Y-112.854
X72.615Y-105.456
X72.615Y-112.854
X73.25Y-103.253
X73.265Y-99.024
X73.885Y-104.65
X73.885Y-112.854
X75.155Y-103.634
X75.155Y-112.854
X76.425Y-102.999
X76.425Y-112.854
X76.806Y-88.775
X77.695Y-112.854
X78.965Y-112.854
X80.235Y-101.805
X80.235Y-112.854
X81.505Y-99.062
X81.505Y-112.854
X82.775Y-98.3
X82.775Y-112.854
X84.045Y-97.538
X84.045Y-112.854
X85.188Y-96.776
X85.315Y-112.854
X85.965Y-101.221
X86.585Y-112.854
X86.839Y-96.014
X87.537Y-101.665
X87.855Y-112.854
X88.325Y-95.215
X89.125Y-112.854
X89.252Y-101.856
X90.395Y-112.854
X90.776Y-94.49
X91.665Y-112.854
X91.792Y-101.094
X92.173Y-106.047
X92.917Y-103.743
X92.935Y-112.854
X93.443Y-95.506
X93.697Y-101.221
X94.205Y-112.854
X95.475Y-112.854
X96.745Y-112.854
X98.015Y-112.854
X99.285Y-112.854
X100.555Y-112.854
X101.825Y-112.854
X107.667Y-111.0
X108.175Y-112.854
X109.445Y-112.854
X110.08Y-94.363
X110.715Y-112.854
X111.985Y-112.854
X112.62Y-94.236
X113.255Y-112.854
X113.949Y-99.257
X114.525Y-112.854
X115.16Y-94.236
X115.16Y-101.475
X115.795Y-112.854
X116.525Y-100.713
X117.065Y-112.854
X117.446Y-103.126
X117.7Y-94.236
X118.335Y-112.854
X119.065Y-100.84
X119.605Y-111.381
X119.605Y-112.854
X120.113Y-107.19
X120.24Y-94.236
X120.24Y-101.475
X120.875Y-112.854
X121.605Y-100.84
X122.145Y-112.854
X122.78Y-94.236
X123.161Y-100.84
X123.415Y-112.854
X124.304Y-100.84
X124.685Y-112.854
X125.955Y-112.854
X127.225Y-112.854
X127.293Y-95.32
X128.495Y-111.127
X128.495Y-112.854
X128.749Y-96.141
X129.765Y-112.854
X130.146Y-97.157
X131.035Y-112.854
X131.67Y-93.601
X131.67Y-98.046
X132.178Y-88.521
X132.305Y-112.854
X132.94Y-98.935
X133.575Y-112.854
X134.083Y-99.951
X134.845Y-112.854
X136.115Y-112.854
X137.385Y-112.854
X138.655Y-112.854
X139.925Y-112.854
X141.195Y-112.854
X142.465Y-112.854
X143.735Y-112.854
X144.37Y-100.332
X145.005Y-112.854
X146.275Y-112.854
X146.402Y-108.333
X147.545Y-112.854
X148.815Y-112.854
X149.45Y-94.998
X150.085Y-112.854
X150.974Y-108.46
X151.355Y-112.854
X152.625Y-112.854
T2
X55.485Y-89.415
X55.485Y-91.955
X58.025Y-89.415
X58.025Y-91.955
X60.565Y-89.415
X60.565Y-91.955
X63.105Y-89.415
X63.105Y-91.955
X65.645Y-89.415
X65.645Y-91.955
X68.185Y-89.415
X68.185Y-91.955
X70.725Y-89.415
X70.725Y-91.955
X73.265Y-89.415
X73.265Y-91.955
X80.885Y-89.415
X80.885Y-91.955
X83.425Y-89.415
X83.425Y-91.955
X85.965Y-89.415
X85.965Y-91.955
X88.505Y-89.415
X88.505Y-91.955
X91.045Y-89.415
X91.045Y-91.955
X93.585Y-89.415
X93.585Y-91.955
X96.125Y-89.415
X96.125Y-91.955
X98.665Y-89.415
X98.665Y-91.955
X110.08Y-89.415
X110.08Y-91.955
X112.62Y-89.415
X112.62Y-91.955
X115.16Y-89.415
X115.16Y-91.955
X117.7Y-89.415
X117.7Y-91.955
X120.24Y-89.415
X120.24Y-91.955
X122.78Y-89.415
X122.78Y-91.955
X125.32Y-89.415
X125.32Y-91.955
X127.86Y-89.415
X127.86Y-91.955
X135.48Y-89.415
X135.48Y-91.955
X138.02Y-89.415
X138.02Y-91.955
X140.56Y-89.415
X140.56Y-91.955
X143.1Y-89.415
X143.1Y-91.955
X145.64Y-89.415
X145.64Y-91.955
X148.18Y-89.415
X148.18Y-91.955
X150.72Y-89.415
X150.72Y-91.955
X153.26Y-89.415
X153.26Y-91.955
T0
M30
