G04 #@! TF.GenerationSoftware,KiCad,Pcbnew,7.0.9*
G04 #@! TF.CreationDate,2024-01-22T22:05:04+01:00*
G04 #@! TF.ProjectId,simm72,73696d6d-3732-42e6-9b69-6361645f7063,A*
G04 #@! TF.SameCoordinates,Original*
G04 #@! TF.FileFunction,Legend,Top*
G04 #@! TF.FilePolarity,Positive*
%FSLAX46Y46*%
G04 Gerber Fmt 4.6, Leading zero omitted, Abs format (unit mm)*
G04 Created by KiCad (PCBNEW 7.0.9) date 2024-01-22 22:05:04*
%MOMM*%
%LPD*%
G01*
G04 APERTURE LIST*
%ADD10C,0.150000*%
%ADD11C,0.120000*%
%ADD12R,1.040000X2.540000*%
%ADD13R,1.700000X1.700000*%
%ADD14O,1.700000X1.700000*%
G04 APERTURE END LIST*
D10*
X73754819Y-87308220D02*
X72754819Y-87308220D01*
X72754819Y-87308220D02*
X72754819Y-87070125D01*
X72754819Y-87070125D02*
X72802438Y-86927268D01*
X72802438Y-86927268D02*
X72897676Y-86832030D01*
X72897676Y-86832030D02*
X72992914Y-86784411D01*
X72992914Y-86784411D02*
X73183390Y-86736792D01*
X73183390Y-86736792D02*
X73326247Y-86736792D01*
X73326247Y-86736792D02*
X73516723Y-86784411D01*
X73516723Y-86784411D02*
X73611961Y-86832030D01*
X73611961Y-86832030D02*
X73707200Y-86927268D01*
X73707200Y-86927268D02*
X73754819Y-87070125D01*
X73754819Y-87070125D02*
X73754819Y-87308220D01*
X72754819Y-86403458D02*
X72754819Y-85736792D01*
X72754819Y-85736792D02*
X73754819Y-86165363D01*
X128079104Y-96740839D02*
X128079104Y-96264649D01*
X128364819Y-96836077D02*
X127364819Y-96502744D01*
X127364819Y-96502744D02*
X128364819Y-96169411D01*
X127460057Y-95883696D02*
X127412438Y-95836077D01*
X127412438Y-95836077D02*
X127364819Y-95740839D01*
X127364819Y-95740839D02*
X127364819Y-95502744D01*
X127364819Y-95502744D02*
X127412438Y-95407506D01*
X127412438Y-95407506D02*
X127460057Y-95359887D01*
X127460057Y-95359887D02*
X127555295Y-95312268D01*
X127555295Y-95312268D02*
X127650533Y-95312268D01*
X127650533Y-95312268D02*
X127793390Y-95359887D01*
X127793390Y-95359887D02*
X128364819Y-95931315D01*
X128364819Y-95931315D02*
X128364819Y-95312268D01*
X127364819Y-94978934D02*
X127364819Y-94359887D01*
X127364819Y-94359887D02*
X127745771Y-94693220D01*
X127745771Y-94693220D02*
X127745771Y-94550363D01*
X127745771Y-94550363D02*
X127793390Y-94455125D01*
X127793390Y-94455125D02*
X127841009Y-94407506D01*
X127841009Y-94407506D02*
X127936247Y-94359887D01*
X127936247Y-94359887D02*
X128174342Y-94359887D01*
X128174342Y-94359887D02*
X128269580Y-94407506D01*
X128269580Y-94407506D02*
X128317200Y-94455125D01*
X128317200Y-94455125D02*
X128364819Y-94550363D01*
X128364819Y-94550363D02*
X128364819Y-94836077D01*
X128364819Y-94836077D02*
X128317200Y-94931315D01*
X128317200Y-94931315D02*
X128269580Y-94978934D01*
X145859104Y-87215839D02*
X145859104Y-86739649D01*
X146144819Y-87311077D02*
X145144819Y-86977744D01*
X145144819Y-86977744D02*
X146144819Y-86644411D01*
X146144819Y-85787268D02*
X146144819Y-86358696D01*
X146144819Y-86072982D02*
X145144819Y-86072982D01*
X145144819Y-86072982D02*
X145287676Y-86168220D01*
X145287676Y-86168220D02*
X145382914Y-86263458D01*
X145382914Y-86263458D02*
X145430533Y-86358696D01*
X145240057Y-85406315D02*
X145192438Y-85358696D01*
X145192438Y-85358696D02*
X145144819Y-85263458D01*
X145144819Y-85263458D02*
X145144819Y-85025363D01*
X145144819Y-85025363D02*
X145192438Y-84930125D01*
X145192438Y-84930125D02*
X145240057Y-84882506D01*
X145240057Y-84882506D02*
X145335295Y-84834887D01*
X145335295Y-84834887D02*
X145430533Y-84834887D01*
X145430533Y-84834887D02*
X145573390Y-84882506D01*
X145573390Y-84882506D02*
X146144819Y-85453934D01*
X146144819Y-85453934D02*
X146144819Y-84834887D01*
X120459104Y-96740839D02*
X120459104Y-96264649D01*
X120744819Y-96836077D02*
X119744819Y-96502744D01*
X119744819Y-96502744D02*
X120744819Y-96169411D01*
X119840057Y-95883696D02*
X119792438Y-95836077D01*
X119792438Y-95836077D02*
X119744819Y-95740839D01*
X119744819Y-95740839D02*
X119744819Y-95502744D01*
X119744819Y-95502744D02*
X119792438Y-95407506D01*
X119792438Y-95407506D02*
X119840057Y-95359887D01*
X119840057Y-95359887D02*
X119935295Y-95312268D01*
X119935295Y-95312268D02*
X120030533Y-95312268D01*
X120030533Y-95312268D02*
X120173390Y-95359887D01*
X120173390Y-95359887D02*
X120744819Y-95931315D01*
X120744819Y-95931315D02*
X120744819Y-95312268D01*
X119744819Y-94693220D02*
X119744819Y-94597982D01*
X119744819Y-94597982D02*
X119792438Y-94502744D01*
X119792438Y-94502744D02*
X119840057Y-94455125D01*
X119840057Y-94455125D02*
X119935295Y-94407506D01*
X119935295Y-94407506D02*
X120125771Y-94359887D01*
X120125771Y-94359887D02*
X120363866Y-94359887D01*
X120363866Y-94359887D02*
X120554342Y-94407506D01*
X120554342Y-94407506D02*
X120649580Y-94455125D01*
X120649580Y-94455125D02*
X120697200Y-94502744D01*
X120697200Y-94502744D02*
X120744819Y-94597982D01*
X120744819Y-94597982D02*
X120744819Y-94693220D01*
X120744819Y-94693220D02*
X120697200Y-94788458D01*
X120697200Y-94788458D02*
X120649580Y-94836077D01*
X120649580Y-94836077D02*
X120554342Y-94883696D01*
X120554342Y-94883696D02*
X120363866Y-94931315D01*
X120363866Y-94931315D02*
X120125771Y-94931315D01*
X120125771Y-94931315D02*
X119935295Y-94883696D01*
X119935295Y-94883696D02*
X119840057Y-94836077D01*
X119840057Y-94836077D02*
X119792438Y-94788458D01*
X119792438Y-94788458D02*
X119744819Y-94693220D01*
X150224819Y-96502744D02*
X150224819Y-96312268D01*
X150224819Y-96312268D02*
X150272438Y-96217030D01*
X150272438Y-96217030D02*
X150367676Y-96121792D01*
X150367676Y-96121792D02*
X150558152Y-96074173D01*
X150558152Y-96074173D02*
X150891485Y-96074173D01*
X150891485Y-96074173D02*
X151081961Y-96121792D01*
X151081961Y-96121792D02*
X151177200Y-96217030D01*
X151177200Y-96217030D02*
X151224819Y-96312268D01*
X151224819Y-96312268D02*
X151224819Y-96502744D01*
X151224819Y-96502744D02*
X151177200Y-96597982D01*
X151177200Y-96597982D02*
X151081961Y-96693220D01*
X151081961Y-96693220D02*
X150891485Y-96740839D01*
X150891485Y-96740839D02*
X150558152Y-96740839D01*
X150558152Y-96740839D02*
X150367676Y-96693220D01*
X150367676Y-96693220D02*
X150272438Y-96597982D01*
X150272438Y-96597982D02*
X150224819Y-96502744D01*
X150701009Y-95645601D02*
X150701009Y-95312268D01*
X151224819Y-95169411D02*
X151224819Y-95645601D01*
X151224819Y-95645601D02*
X150224819Y-95645601D01*
X150224819Y-95645601D02*
X150224819Y-95169411D01*
X149947200Y-96831316D02*
X149947200Y-95078935D01*
X83914819Y-96693220D02*
X82914819Y-96693220D01*
X82914819Y-96693220D02*
X82914819Y-96455125D01*
X82914819Y-96455125D02*
X82962438Y-96312268D01*
X82962438Y-96312268D02*
X83057676Y-96217030D01*
X83057676Y-96217030D02*
X83152914Y-96169411D01*
X83152914Y-96169411D02*
X83343390Y-96121792D01*
X83343390Y-96121792D02*
X83486247Y-96121792D01*
X83486247Y-96121792D02*
X83676723Y-96169411D01*
X83676723Y-96169411D02*
X83771961Y-96217030D01*
X83771961Y-96217030D02*
X83867200Y-96312268D01*
X83867200Y-96312268D02*
X83914819Y-96455125D01*
X83914819Y-96455125D02*
X83914819Y-96693220D01*
X83010057Y-95740839D02*
X82962438Y-95693220D01*
X82962438Y-95693220D02*
X82914819Y-95597982D01*
X82914819Y-95597982D02*
X82914819Y-95359887D01*
X82914819Y-95359887D02*
X82962438Y-95264649D01*
X82962438Y-95264649D02*
X83010057Y-95217030D01*
X83010057Y-95217030D02*
X83105295Y-95169411D01*
X83105295Y-95169411D02*
X83200533Y-95169411D01*
X83200533Y-95169411D02*
X83343390Y-95217030D01*
X83343390Y-95217030D02*
X83914819Y-95788458D01*
X83914819Y-95788458D02*
X83914819Y-95169411D01*
X82914819Y-94264649D02*
X82914819Y-94740839D01*
X82914819Y-94740839D02*
X83391009Y-94788458D01*
X83391009Y-94788458D02*
X83343390Y-94740839D01*
X83343390Y-94740839D02*
X83295771Y-94645601D01*
X83295771Y-94645601D02*
X83295771Y-94407506D01*
X83295771Y-94407506D02*
X83343390Y-94312268D01*
X83343390Y-94312268D02*
X83391009Y-94264649D01*
X83391009Y-94264649D02*
X83486247Y-94217030D01*
X83486247Y-94217030D02*
X83724342Y-94217030D01*
X83724342Y-94217030D02*
X83819580Y-94264649D01*
X83819580Y-94264649D02*
X83867200Y-94312268D01*
X83867200Y-94312268D02*
X83914819Y-94407506D01*
X83914819Y-94407506D02*
X83914819Y-94645601D01*
X83914819Y-94645601D02*
X83867200Y-94740839D01*
X83867200Y-94740839D02*
X83819580Y-94788458D01*
X71214819Y-96693220D02*
X70214819Y-96693220D01*
X70214819Y-96693220D02*
X70214819Y-96455125D01*
X70214819Y-96455125D02*
X70262438Y-96312268D01*
X70262438Y-96312268D02*
X70357676Y-96217030D01*
X70357676Y-96217030D02*
X70452914Y-96169411D01*
X70452914Y-96169411D02*
X70643390Y-96121792D01*
X70643390Y-96121792D02*
X70786247Y-96121792D01*
X70786247Y-96121792D02*
X70976723Y-96169411D01*
X70976723Y-96169411D02*
X71071961Y-96217030D01*
X71071961Y-96217030D02*
X71167200Y-96312268D01*
X71167200Y-96312268D02*
X71214819Y-96455125D01*
X71214819Y-96455125D02*
X71214819Y-96693220D01*
X70310057Y-95740839D02*
X70262438Y-95693220D01*
X70262438Y-95693220D02*
X70214819Y-95597982D01*
X70214819Y-95597982D02*
X70214819Y-95359887D01*
X70214819Y-95359887D02*
X70262438Y-95264649D01*
X70262438Y-95264649D02*
X70310057Y-95217030D01*
X70310057Y-95217030D02*
X70405295Y-95169411D01*
X70405295Y-95169411D02*
X70500533Y-95169411D01*
X70500533Y-95169411D02*
X70643390Y-95217030D01*
X70643390Y-95217030D02*
X71214819Y-95788458D01*
X71214819Y-95788458D02*
X71214819Y-95169411D01*
X70310057Y-94788458D02*
X70262438Y-94740839D01*
X70262438Y-94740839D02*
X70214819Y-94645601D01*
X70214819Y-94645601D02*
X70214819Y-94407506D01*
X70214819Y-94407506D02*
X70262438Y-94312268D01*
X70262438Y-94312268D02*
X70310057Y-94264649D01*
X70310057Y-94264649D02*
X70405295Y-94217030D01*
X70405295Y-94217030D02*
X70500533Y-94217030D01*
X70500533Y-94217030D02*
X70643390Y-94264649D01*
X70643390Y-94264649D02*
X71214819Y-94836077D01*
X71214819Y-94836077D02*
X71214819Y-94217030D01*
X153479104Y-87215839D02*
X153479104Y-86739649D01*
X153764819Y-87311077D02*
X152764819Y-86977744D01*
X152764819Y-86977744D02*
X153764819Y-86644411D01*
X153764819Y-85787268D02*
X153764819Y-86358696D01*
X153764819Y-86072982D02*
X152764819Y-86072982D01*
X152764819Y-86072982D02*
X152907676Y-86168220D01*
X152907676Y-86168220D02*
X153002914Y-86263458D01*
X153002914Y-86263458D02*
X153050533Y-86358696D01*
X152764819Y-84882506D02*
X152764819Y-85358696D01*
X152764819Y-85358696D02*
X153241009Y-85406315D01*
X153241009Y-85406315D02*
X153193390Y-85358696D01*
X153193390Y-85358696D02*
X153145771Y-85263458D01*
X153145771Y-85263458D02*
X153145771Y-85025363D01*
X153145771Y-85025363D02*
X153193390Y-84930125D01*
X153193390Y-84930125D02*
X153241009Y-84882506D01*
X153241009Y-84882506D02*
X153336247Y-84834887D01*
X153336247Y-84834887D02*
X153574342Y-84834887D01*
X153574342Y-84834887D02*
X153669580Y-84882506D01*
X153669580Y-84882506D02*
X153717200Y-84930125D01*
X153717200Y-84930125D02*
X153764819Y-85025363D01*
X153764819Y-85025363D02*
X153764819Y-85263458D01*
X153764819Y-85263458D02*
X153717200Y-85358696D01*
X153717200Y-85358696D02*
X153669580Y-85406315D01*
X55869819Y-87168220D02*
X54869819Y-87168220D01*
X54869819Y-87168220D02*
X54869819Y-86930125D01*
X54869819Y-86930125D02*
X54917438Y-86787268D01*
X54917438Y-86787268D02*
X55012676Y-86692030D01*
X55012676Y-86692030D02*
X55107914Y-86644411D01*
X55107914Y-86644411D02*
X55298390Y-86596792D01*
X55298390Y-86596792D02*
X55441247Y-86596792D01*
X55441247Y-86596792D02*
X55631723Y-86644411D01*
X55631723Y-86644411D02*
X55726961Y-86692030D01*
X55726961Y-86692030D02*
X55822200Y-86787268D01*
X55822200Y-86787268D02*
X55869819Y-86930125D01*
X55869819Y-86930125D02*
X55869819Y-87168220D01*
X54869819Y-85977744D02*
X54869819Y-85882506D01*
X54869819Y-85882506D02*
X54917438Y-85787268D01*
X54917438Y-85787268D02*
X54965057Y-85739649D01*
X54965057Y-85739649D02*
X55060295Y-85692030D01*
X55060295Y-85692030D02*
X55250771Y-85644411D01*
X55250771Y-85644411D02*
X55488866Y-85644411D01*
X55488866Y-85644411D02*
X55679342Y-85692030D01*
X55679342Y-85692030D02*
X55774580Y-85739649D01*
X55774580Y-85739649D02*
X55822200Y-85787268D01*
X55822200Y-85787268D02*
X55869819Y-85882506D01*
X55869819Y-85882506D02*
X55869819Y-85977744D01*
X55869819Y-85977744D02*
X55822200Y-86072982D01*
X55822200Y-86072982D02*
X55774580Y-86120601D01*
X55774580Y-86120601D02*
X55679342Y-86168220D01*
X55679342Y-86168220D02*
X55488866Y-86215839D01*
X55488866Y-86215839D02*
X55250771Y-86215839D01*
X55250771Y-86215839D02*
X55060295Y-86168220D01*
X55060295Y-86168220D02*
X54965057Y-86120601D01*
X54965057Y-86120601D02*
X54917438Y-86072982D01*
X54917438Y-86072982D02*
X54869819Y-85977744D01*
X122999104Y-96740839D02*
X122999104Y-96264649D01*
X123284819Y-96836077D02*
X122284819Y-96502744D01*
X122284819Y-96502744D02*
X123284819Y-96169411D01*
X122380057Y-95883696D02*
X122332438Y-95836077D01*
X122332438Y-95836077D02*
X122284819Y-95740839D01*
X122284819Y-95740839D02*
X122284819Y-95502744D01*
X122284819Y-95502744D02*
X122332438Y-95407506D01*
X122332438Y-95407506D02*
X122380057Y-95359887D01*
X122380057Y-95359887D02*
X122475295Y-95312268D01*
X122475295Y-95312268D02*
X122570533Y-95312268D01*
X122570533Y-95312268D02*
X122713390Y-95359887D01*
X122713390Y-95359887D02*
X123284819Y-95931315D01*
X123284819Y-95931315D02*
X123284819Y-95312268D01*
X123284819Y-94359887D02*
X123284819Y-94931315D01*
X123284819Y-94645601D02*
X122284819Y-94645601D01*
X122284819Y-94645601D02*
X122427676Y-94740839D01*
X122427676Y-94740839D02*
X122522914Y-94836077D01*
X122522914Y-94836077D02*
X122570533Y-94931315D01*
X143319104Y-87215839D02*
X143319104Y-86739649D01*
X143604819Y-87311077D02*
X142604819Y-86977744D01*
X142604819Y-86977744D02*
X143604819Y-86644411D01*
X143604819Y-85787268D02*
X143604819Y-86358696D01*
X143604819Y-86072982D02*
X142604819Y-86072982D01*
X142604819Y-86072982D02*
X142747676Y-86168220D01*
X142747676Y-86168220D02*
X142842914Y-86263458D01*
X142842914Y-86263458D02*
X142890533Y-86358696D01*
X143604819Y-84834887D02*
X143604819Y-85406315D01*
X143604819Y-85120601D02*
X142604819Y-85120601D01*
X142604819Y-85120601D02*
X142747676Y-85215839D01*
X142747676Y-85215839D02*
X142842914Y-85311077D01*
X142842914Y-85311077D02*
X142890533Y-85406315D01*
X138239104Y-87215839D02*
X138239104Y-86739649D01*
X138524819Y-87311077D02*
X137524819Y-86977744D01*
X137524819Y-86977744D02*
X138524819Y-86644411D01*
X138524819Y-86263458D02*
X138524819Y-86072982D01*
X138524819Y-86072982D02*
X138477200Y-85977744D01*
X138477200Y-85977744D02*
X138429580Y-85930125D01*
X138429580Y-85930125D02*
X138286723Y-85834887D01*
X138286723Y-85834887D02*
X138096247Y-85787268D01*
X138096247Y-85787268D02*
X137715295Y-85787268D01*
X137715295Y-85787268D02*
X137620057Y-85834887D01*
X137620057Y-85834887D02*
X137572438Y-85882506D01*
X137572438Y-85882506D02*
X137524819Y-85977744D01*
X137524819Y-85977744D02*
X137524819Y-86168220D01*
X137524819Y-86168220D02*
X137572438Y-86263458D01*
X137572438Y-86263458D02*
X137620057Y-86311077D01*
X137620057Y-86311077D02*
X137715295Y-86358696D01*
X137715295Y-86358696D02*
X137953390Y-86358696D01*
X137953390Y-86358696D02*
X138048628Y-86311077D01*
X138048628Y-86311077D02*
X138096247Y-86263458D01*
X138096247Y-86263458D02*
X138143866Y-86168220D01*
X138143866Y-86168220D02*
X138143866Y-85977744D01*
X138143866Y-85977744D02*
X138096247Y-85882506D01*
X138096247Y-85882506D02*
X138048628Y-85834887D01*
X138048628Y-85834887D02*
X137953390Y-85787268D01*
X96614819Y-96693220D02*
X95614819Y-96693220D01*
X95614819Y-96693220D02*
X95614819Y-96455125D01*
X95614819Y-96455125D02*
X95662438Y-96312268D01*
X95662438Y-96312268D02*
X95757676Y-96217030D01*
X95757676Y-96217030D02*
X95852914Y-96169411D01*
X95852914Y-96169411D02*
X96043390Y-96121792D01*
X96043390Y-96121792D02*
X96186247Y-96121792D01*
X96186247Y-96121792D02*
X96376723Y-96169411D01*
X96376723Y-96169411D02*
X96471961Y-96217030D01*
X96471961Y-96217030D02*
X96567200Y-96312268D01*
X96567200Y-96312268D02*
X96614819Y-96455125D01*
X96614819Y-96455125D02*
X96614819Y-96693220D01*
X95614819Y-95788458D02*
X95614819Y-95169411D01*
X95614819Y-95169411D02*
X95995771Y-95502744D01*
X95995771Y-95502744D02*
X95995771Y-95359887D01*
X95995771Y-95359887D02*
X96043390Y-95264649D01*
X96043390Y-95264649D02*
X96091009Y-95217030D01*
X96091009Y-95217030D02*
X96186247Y-95169411D01*
X96186247Y-95169411D02*
X96424342Y-95169411D01*
X96424342Y-95169411D02*
X96519580Y-95217030D01*
X96519580Y-95217030D02*
X96567200Y-95264649D01*
X96567200Y-95264649D02*
X96614819Y-95359887D01*
X96614819Y-95359887D02*
X96614819Y-95645601D01*
X96614819Y-95645601D02*
X96567200Y-95740839D01*
X96567200Y-95740839D02*
X96519580Y-95788458D01*
X95614819Y-94550363D02*
X95614819Y-94455125D01*
X95614819Y-94455125D02*
X95662438Y-94359887D01*
X95662438Y-94359887D02*
X95710057Y-94312268D01*
X95710057Y-94312268D02*
X95805295Y-94264649D01*
X95805295Y-94264649D02*
X95995771Y-94217030D01*
X95995771Y-94217030D02*
X96233866Y-94217030D01*
X96233866Y-94217030D02*
X96424342Y-94264649D01*
X96424342Y-94264649D02*
X96519580Y-94312268D01*
X96519580Y-94312268D02*
X96567200Y-94359887D01*
X96567200Y-94359887D02*
X96614819Y-94455125D01*
X96614819Y-94455125D02*
X96614819Y-94550363D01*
X96614819Y-94550363D02*
X96567200Y-94645601D01*
X96567200Y-94645601D02*
X96519580Y-94693220D01*
X96519580Y-94693220D02*
X96424342Y-94740839D01*
X96424342Y-94740839D02*
X96233866Y-94788458D01*
X96233866Y-94788458D02*
X95995771Y-94788458D01*
X95995771Y-94788458D02*
X95805295Y-94740839D01*
X95805295Y-94740839D02*
X95710057Y-94693220D01*
X95710057Y-94693220D02*
X95662438Y-94645601D01*
X95662438Y-94645601D02*
X95614819Y-94550363D01*
X63594819Y-96693220D02*
X62594819Y-96693220D01*
X62594819Y-96693220D02*
X62594819Y-96455125D01*
X62594819Y-96455125D02*
X62642438Y-96312268D01*
X62642438Y-96312268D02*
X62737676Y-96217030D01*
X62737676Y-96217030D02*
X62832914Y-96169411D01*
X62832914Y-96169411D02*
X63023390Y-96121792D01*
X63023390Y-96121792D02*
X63166247Y-96121792D01*
X63166247Y-96121792D02*
X63356723Y-96169411D01*
X63356723Y-96169411D02*
X63451961Y-96217030D01*
X63451961Y-96217030D02*
X63547200Y-96312268D01*
X63547200Y-96312268D02*
X63594819Y-96455125D01*
X63594819Y-96455125D02*
X63594819Y-96693220D01*
X63594819Y-95169411D02*
X63594819Y-95740839D01*
X63594819Y-95455125D02*
X62594819Y-95455125D01*
X62594819Y-95455125D02*
X62737676Y-95550363D01*
X62737676Y-95550363D02*
X62832914Y-95645601D01*
X62832914Y-95645601D02*
X62880533Y-95740839D01*
X63594819Y-94693220D02*
X63594819Y-94502744D01*
X63594819Y-94502744D02*
X63547200Y-94407506D01*
X63547200Y-94407506D02*
X63499580Y-94359887D01*
X63499580Y-94359887D02*
X63356723Y-94264649D01*
X63356723Y-94264649D02*
X63166247Y-94217030D01*
X63166247Y-94217030D02*
X62785295Y-94217030D01*
X62785295Y-94217030D02*
X62690057Y-94264649D01*
X62690057Y-94264649D02*
X62642438Y-94312268D01*
X62642438Y-94312268D02*
X62594819Y-94407506D01*
X62594819Y-94407506D02*
X62594819Y-94597982D01*
X62594819Y-94597982D02*
X62642438Y-94693220D01*
X62642438Y-94693220D02*
X62690057Y-94740839D01*
X62690057Y-94740839D02*
X62785295Y-94788458D01*
X62785295Y-94788458D02*
X63023390Y-94788458D01*
X63023390Y-94788458D02*
X63118628Y-94740839D01*
X63118628Y-94740839D02*
X63166247Y-94693220D01*
X63166247Y-94693220D02*
X63213866Y-94597982D01*
X63213866Y-94597982D02*
X63213866Y-94407506D01*
X63213866Y-94407506D02*
X63166247Y-94312268D01*
X63166247Y-94312268D02*
X63118628Y-94264649D01*
X63118628Y-94264649D02*
X63023390Y-94217030D01*
X94074819Y-96693220D02*
X93074819Y-96693220D01*
X93074819Y-96693220D02*
X93074819Y-96455125D01*
X93074819Y-96455125D02*
X93122438Y-96312268D01*
X93122438Y-96312268D02*
X93217676Y-96217030D01*
X93217676Y-96217030D02*
X93312914Y-96169411D01*
X93312914Y-96169411D02*
X93503390Y-96121792D01*
X93503390Y-96121792D02*
X93646247Y-96121792D01*
X93646247Y-96121792D02*
X93836723Y-96169411D01*
X93836723Y-96169411D02*
X93931961Y-96217030D01*
X93931961Y-96217030D02*
X94027200Y-96312268D01*
X94027200Y-96312268D02*
X94074819Y-96455125D01*
X94074819Y-96455125D02*
X94074819Y-96693220D01*
X93170057Y-95740839D02*
X93122438Y-95693220D01*
X93122438Y-95693220D02*
X93074819Y-95597982D01*
X93074819Y-95597982D02*
X93074819Y-95359887D01*
X93074819Y-95359887D02*
X93122438Y-95264649D01*
X93122438Y-95264649D02*
X93170057Y-95217030D01*
X93170057Y-95217030D02*
X93265295Y-95169411D01*
X93265295Y-95169411D02*
X93360533Y-95169411D01*
X93360533Y-95169411D02*
X93503390Y-95217030D01*
X93503390Y-95217030D02*
X94074819Y-95788458D01*
X94074819Y-95788458D02*
X94074819Y-95169411D01*
X94074819Y-94693220D02*
X94074819Y-94502744D01*
X94074819Y-94502744D02*
X94027200Y-94407506D01*
X94027200Y-94407506D02*
X93979580Y-94359887D01*
X93979580Y-94359887D02*
X93836723Y-94264649D01*
X93836723Y-94264649D02*
X93646247Y-94217030D01*
X93646247Y-94217030D02*
X93265295Y-94217030D01*
X93265295Y-94217030D02*
X93170057Y-94264649D01*
X93170057Y-94264649D02*
X93122438Y-94312268D01*
X93122438Y-94312268D02*
X93074819Y-94407506D01*
X93074819Y-94407506D02*
X93074819Y-94597982D01*
X93074819Y-94597982D02*
X93122438Y-94693220D01*
X93122438Y-94693220D02*
X93170057Y-94740839D01*
X93170057Y-94740839D02*
X93265295Y-94788458D01*
X93265295Y-94788458D02*
X93503390Y-94788458D01*
X93503390Y-94788458D02*
X93598628Y-94740839D01*
X93598628Y-94740839D02*
X93646247Y-94693220D01*
X93646247Y-94693220D02*
X93693866Y-94597982D01*
X93693866Y-94597982D02*
X93693866Y-94407506D01*
X93693866Y-94407506D02*
X93646247Y-94312268D01*
X93646247Y-94312268D02*
X93598628Y-94264649D01*
X93598628Y-94264649D02*
X93503390Y-94217030D01*
X58514819Y-87308220D02*
X57514819Y-87308220D01*
X57514819Y-87308220D02*
X57514819Y-87070125D01*
X57514819Y-87070125D02*
X57562438Y-86927268D01*
X57562438Y-86927268D02*
X57657676Y-86832030D01*
X57657676Y-86832030D02*
X57752914Y-86784411D01*
X57752914Y-86784411D02*
X57943390Y-86736792D01*
X57943390Y-86736792D02*
X58086247Y-86736792D01*
X58086247Y-86736792D02*
X58276723Y-86784411D01*
X58276723Y-86784411D02*
X58371961Y-86832030D01*
X58371961Y-86832030D02*
X58467200Y-86927268D01*
X58467200Y-86927268D02*
X58514819Y-87070125D01*
X58514819Y-87070125D02*
X58514819Y-87308220D01*
X58514819Y-85784411D02*
X58514819Y-86355839D01*
X58514819Y-86070125D02*
X57514819Y-86070125D01*
X57514819Y-86070125D02*
X57657676Y-86165363D01*
X57657676Y-86165363D02*
X57752914Y-86260601D01*
X57752914Y-86260601D02*
X57800533Y-86355839D01*
X86454819Y-87168220D02*
X85454819Y-87168220D01*
X85454819Y-87168220D02*
X85454819Y-86930125D01*
X85454819Y-86930125D02*
X85502438Y-86787268D01*
X85502438Y-86787268D02*
X85597676Y-86692030D01*
X85597676Y-86692030D02*
X85692914Y-86644411D01*
X85692914Y-86644411D02*
X85883390Y-86596792D01*
X85883390Y-86596792D02*
X86026247Y-86596792D01*
X86026247Y-86596792D02*
X86216723Y-86644411D01*
X86216723Y-86644411D02*
X86311961Y-86692030D01*
X86311961Y-86692030D02*
X86407200Y-86787268D01*
X86407200Y-86787268D02*
X86454819Y-86930125D01*
X86454819Y-86930125D02*
X86454819Y-87168220D01*
X86454819Y-85644411D02*
X86454819Y-86215839D01*
X86454819Y-85930125D02*
X85454819Y-85930125D01*
X85454819Y-85930125D02*
X85597676Y-86025363D01*
X85597676Y-86025363D02*
X85692914Y-86120601D01*
X85692914Y-86120601D02*
X85740533Y-86215839D01*
X85454819Y-85025363D02*
X85454819Y-84930125D01*
X85454819Y-84930125D02*
X85502438Y-84834887D01*
X85502438Y-84834887D02*
X85550057Y-84787268D01*
X85550057Y-84787268D02*
X85645295Y-84739649D01*
X85645295Y-84739649D02*
X85835771Y-84692030D01*
X85835771Y-84692030D02*
X86073866Y-84692030D01*
X86073866Y-84692030D02*
X86264342Y-84739649D01*
X86264342Y-84739649D02*
X86359580Y-84787268D01*
X86359580Y-84787268D02*
X86407200Y-84834887D01*
X86407200Y-84834887D02*
X86454819Y-84930125D01*
X86454819Y-84930125D02*
X86454819Y-85025363D01*
X86454819Y-85025363D02*
X86407200Y-85120601D01*
X86407200Y-85120601D02*
X86359580Y-85168220D01*
X86359580Y-85168220D02*
X86264342Y-85215839D01*
X86264342Y-85215839D02*
X86073866Y-85263458D01*
X86073866Y-85263458D02*
X85835771Y-85263458D01*
X85835771Y-85263458D02*
X85645295Y-85215839D01*
X85645295Y-85215839D02*
X85550057Y-85168220D01*
X85550057Y-85168220D02*
X85502438Y-85120601D01*
X85502438Y-85120601D02*
X85454819Y-85025363D01*
X73754819Y-96693220D02*
X72754819Y-96693220D01*
X72754819Y-96693220D02*
X72754819Y-96455125D01*
X72754819Y-96455125D02*
X72802438Y-96312268D01*
X72802438Y-96312268D02*
X72897676Y-96217030D01*
X72897676Y-96217030D02*
X72992914Y-96169411D01*
X72992914Y-96169411D02*
X73183390Y-96121792D01*
X73183390Y-96121792D02*
X73326247Y-96121792D01*
X73326247Y-96121792D02*
X73516723Y-96169411D01*
X73516723Y-96169411D02*
X73611961Y-96217030D01*
X73611961Y-96217030D02*
X73707200Y-96312268D01*
X73707200Y-96312268D02*
X73754819Y-96455125D01*
X73754819Y-96455125D02*
X73754819Y-96693220D01*
X72850057Y-95740839D02*
X72802438Y-95693220D01*
X72802438Y-95693220D02*
X72754819Y-95597982D01*
X72754819Y-95597982D02*
X72754819Y-95359887D01*
X72754819Y-95359887D02*
X72802438Y-95264649D01*
X72802438Y-95264649D02*
X72850057Y-95217030D01*
X72850057Y-95217030D02*
X72945295Y-95169411D01*
X72945295Y-95169411D02*
X73040533Y-95169411D01*
X73040533Y-95169411D02*
X73183390Y-95217030D01*
X73183390Y-95217030D02*
X73754819Y-95788458D01*
X73754819Y-95788458D02*
X73754819Y-95169411D01*
X72754819Y-94836077D02*
X72754819Y-94217030D01*
X72754819Y-94217030D02*
X73135771Y-94550363D01*
X73135771Y-94550363D02*
X73135771Y-94407506D01*
X73135771Y-94407506D02*
X73183390Y-94312268D01*
X73183390Y-94312268D02*
X73231009Y-94264649D01*
X73231009Y-94264649D02*
X73326247Y-94217030D01*
X73326247Y-94217030D02*
X73564342Y-94217030D01*
X73564342Y-94217030D02*
X73659580Y-94264649D01*
X73659580Y-94264649D02*
X73707200Y-94312268D01*
X73707200Y-94312268D02*
X73754819Y-94407506D01*
X73754819Y-94407506D02*
X73754819Y-94693220D01*
X73754819Y-94693220D02*
X73707200Y-94788458D01*
X73707200Y-94788458D02*
X73659580Y-94836077D01*
X125539104Y-87215839D02*
X125539104Y-86739649D01*
X125824819Y-87311077D02*
X124824819Y-86977744D01*
X124824819Y-86977744D02*
X125824819Y-86644411D01*
X124824819Y-85882506D02*
X124824819Y-86072982D01*
X124824819Y-86072982D02*
X124872438Y-86168220D01*
X124872438Y-86168220D02*
X124920057Y-86215839D01*
X124920057Y-86215839D02*
X125062914Y-86311077D01*
X125062914Y-86311077D02*
X125253390Y-86358696D01*
X125253390Y-86358696D02*
X125634342Y-86358696D01*
X125634342Y-86358696D02*
X125729580Y-86311077D01*
X125729580Y-86311077D02*
X125777200Y-86263458D01*
X125777200Y-86263458D02*
X125824819Y-86168220D01*
X125824819Y-86168220D02*
X125824819Y-85977744D01*
X125824819Y-85977744D02*
X125777200Y-85882506D01*
X125777200Y-85882506D02*
X125729580Y-85834887D01*
X125729580Y-85834887D02*
X125634342Y-85787268D01*
X125634342Y-85787268D02*
X125396247Y-85787268D01*
X125396247Y-85787268D02*
X125301009Y-85834887D01*
X125301009Y-85834887D02*
X125253390Y-85882506D01*
X125253390Y-85882506D02*
X125205771Y-85977744D01*
X125205771Y-85977744D02*
X125205771Y-86168220D01*
X125205771Y-86168220D02*
X125253390Y-86263458D01*
X125253390Y-86263458D02*
X125301009Y-86311077D01*
X125301009Y-86311077D02*
X125396247Y-86358696D01*
X81374819Y-96693220D02*
X80374819Y-96693220D01*
X80374819Y-96693220D02*
X80374819Y-96455125D01*
X80374819Y-96455125D02*
X80422438Y-96312268D01*
X80422438Y-96312268D02*
X80517676Y-96217030D01*
X80517676Y-96217030D02*
X80612914Y-96169411D01*
X80612914Y-96169411D02*
X80803390Y-96121792D01*
X80803390Y-96121792D02*
X80946247Y-96121792D01*
X80946247Y-96121792D02*
X81136723Y-96169411D01*
X81136723Y-96169411D02*
X81231961Y-96217030D01*
X81231961Y-96217030D02*
X81327200Y-96312268D01*
X81327200Y-96312268D02*
X81374819Y-96455125D01*
X81374819Y-96455125D02*
X81374819Y-96693220D01*
X80470057Y-95740839D02*
X80422438Y-95693220D01*
X80422438Y-95693220D02*
X80374819Y-95597982D01*
X80374819Y-95597982D02*
X80374819Y-95359887D01*
X80374819Y-95359887D02*
X80422438Y-95264649D01*
X80422438Y-95264649D02*
X80470057Y-95217030D01*
X80470057Y-95217030D02*
X80565295Y-95169411D01*
X80565295Y-95169411D02*
X80660533Y-95169411D01*
X80660533Y-95169411D02*
X80803390Y-95217030D01*
X80803390Y-95217030D02*
X81374819Y-95788458D01*
X81374819Y-95788458D02*
X81374819Y-95169411D01*
X80708152Y-94312268D02*
X81374819Y-94312268D01*
X80327200Y-94550363D02*
X81041485Y-94788458D01*
X81041485Y-94788458D02*
X81041485Y-94169411D01*
X94074819Y-87168220D02*
X93074819Y-87168220D01*
X93074819Y-87168220D02*
X93074819Y-86930125D01*
X93074819Y-86930125D02*
X93122438Y-86787268D01*
X93122438Y-86787268D02*
X93217676Y-86692030D01*
X93217676Y-86692030D02*
X93312914Y-86644411D01*
X93312914Y-86644411D02*
X93503390Y-86596792D01*
X93503390Y-86596792D02*
X93646247Y-86596792D01*
X93646247Y-86596792D02*
X93836723Y-86644411D01*
X93836723Y-86644411D02*
X93931961Y-86692030D01*
X93931961Y-86692030D02*
X94027200Y-86787268D01*
X94027200Y-86787268D02*
X94074819Y-86930125D01*
X94074819Y-86930125D02*
X94074819Y-87168220D01*
X94074819Y-85644411D02*
X94074819Y-86215839D01*
X94074819Y-85930125D02*
X93074819Y-85930125D01*
X93074819Y-85930125D02*
X93217676Y-86025363D01*
X93217676Y-86025363D02*
X93312914Y-86120601D01*
X93312914Y-86120601D02*
X93360533Y-86215839D01*
X93074819Y-85311077D02*
X93074819Y-84692030D01*
X93074819Y-84692030D02*
X93455771Y-85025363D01*
X93455771Y-85025363D02*
X93455771Y-84882506D01*
X93455771Y-84882506D02*
X93503390Y-84787268D01*
X93503390Y-84787268D02*
X93551009Y-84739649D01*
X93551009Y-84739649D02*
X93646247Y-84692030D01*
X93646247Y-84692030D02*
X93884342Y-84692030D01*
X93884342Y-84692030D02*
X93979580Y-84739649D01*
X93979580Y-84739649D02*
X94027200Y-84787268D01*
X94027200Y-84787268D02*
X94074819Y-84882506D01*
X94074819Y-84882506D02*
X94074819Y-85168220D01*
X94074819Y-85168220D02*
X94027200Y-85263458D01*
X94027200Y-85263458D02*
X93979580Y-85311077D01*
X117919104Y-96740839D02*
X117919104Y-96264649D01*
X118204819Y-96836077D02*
X117204819Y-96502744D01*
X117204819Y-96502744D02*
X118204819Y-96169411D01*
X118204819Y-95312268D02*
X118204819Y-95883696D01*
X118204819Y-95597982D02*
X117204819Y-95597982D01*
X117204819Y-95597982D02*
X117347676Y-95693220D01*
X117347676Y-95693220D02*
X117442914Y-95788458D01*
X117442914Y-95788458D02*
X117490533Y-95883696D01*
X118204819Y-94836077D02*
X118204819Y-94645601D01*
X118204819Y-94645601D02*
X118157200Y-94550363D01*
X118157200Y-94550363D02*
X118109580Y-94502744D01*
X118109580Y-94502744D02*
X117966723Y-94407506D01*
X117966723Y-94407506D02*
X117776247Y-94359887D01*
X117776247Y-94359887D02*
X117395295Y-94359887D01*
X117395295Y-94359887D02*
X117300057Y-94407506D01*
X117300057Y-94407506D02*
X117252438Y-94455125D01*
X117252438Y-94455125D02*
X117204819Y-94550363D01*
X117204819Y-94550363D02*
X117204819Y-94740839D01*
X117204819Y-94740839D02*
X117252438Y-94836077D01*
X117252438Y-94836077D02*
X117300057Y-94883696D01*
X117300057Y-94883696D02*
X117395295Y-94931315D01*
X117395295Y-94931315D02*
X117633390Y-94931315D01*
X117633390Y-94931315D02*
X117728628Y-94883696D01*
X117728628Y-94883696D02*
X117776247Y-94836077D01*
X117776247Y-94836077D02*
X117823866Y-94740839D01*
X117823866Y-94740839D02*
X117823866Y-94550363D01*
X117823866Y-94550363D02*
X117776247Y-94455125D01*
X117776247Y-94455125D02*
X117728628Y-94407506D01*
X117728628Y-94407506D02*
X117633390Y-94359887D01*
X88994819Y-87168220D02*
X87994819Y-87168220D01*
X87994819Y-87168220D02*
X87994819Y-86930125D01*
X87994819Y-86930125D02*
X88042438Y-86787268D01*
X88042438Y-86787268D02*
X88137676Y-86692030D01*
X88137676Y-86692030D02*
X88232914Y-86644411D01*
X88232914Y-86644411D02*
X88423390Y-86596792D01*
X88423390Y-86596792D02*
X88566247Y-86596792D01*
X88566247Y-86596792D02*
X88756723Y-86644411D01*
X88756723Y-86644411D02*
X88851961Y-86692030D01*
X88851961Y-86692030D02*
X88947200Y-86787268D01*
X88947200Y-86787268D02*
X88994819Y-86930125D01*
X88994819Y-86930125D02*
X88994819Y-87168220D01*
X88994819Y-85644411D02*
X88994819Y-86215839D01*
X88994819Y-85930125D02*
X87994819Y-85930125D01*
X87994819Y-85930125D02*
X88137676Y-86025363D01*
X88137676Y-86025363D02*
X88232914Y-86120601D01*
X88232914Y-86120601D02*
X88280533Y-86215839D01*
X88994819Y-84692030D02*
X88994819Y-85263458D01*
X88994819Y-84977744D02*
X87994819Y-84977744D01*
X87994819Y-84977744D02*
X88137676Y-85072982D01*
X88137676Y-85072982D02*
X88232914Y-85168220D01*
X88232914Y-85168220D02*
X88280533Y-85263458D01*
X66134819Y-87308220D02*
X65134819Y-87308220D01*
X65134819Y-87308220D02*
X65134819Y-87070125D01*
X65134819Y-87070125D02*
X65182438Y-86927268D01*
X65182438Y-86927268D02*
X65277676Y-86832030D01*
X65277676Y-86832030D02*
X65372914Y-86784411D01*
X65372914Y-86784411D02*
X65563390Y-86736792D01*
X65563390Y-86736792D02*
X65706247Y-86736792D01*
X65706247Y-86736792D02*
X65896723Y-86784411D01*
X65896723Y-86784411D02*
X65991961Y-86832030D01*
X65991961Y-86832030D02*
X66087200Y-86927268D01*
X66087200Y-86927268D02*
X66134819Y-87070125D01*
X66134819Y-87070125D02*
X66134819Y-87308220D01*
X65468152Y-85879649D02*
X66134819Y-85879649D01*
X65087200Y-86117744D02*
X65801485Y-86355839D01*
X65801485Y-86355839D02*
X65801485Y-85736792D01*
X148399104Y-87215839D02*
X148399104Y-86739649D01*
X148684819Y-87311077D02*
X147684819Y-86977744D01*
X147684819Y-86977744D02*
X148684819Y-86644411D01*
X148684819Y-85787268D02*
X148684819Y-86358696D01*
X148684819Y-86072982D02*
X147684819Y-86072982D01*
X147684819Y-86072982D02*
X147827676Y-86168220D01*
X147827676Y-86168220D02*
X147922914Y-86263458D01*
X147922914Y-86263458D02*
X147970533Y-86358696D01*
X147684819Y-85453934D02*
X147684819Y-84834887D01*
X147684819Y-84834887D02*
X148065771Y-85168220D01*
X148065771Y-85168220D02*
X148065771Y-85025363D01*
X148065771Y-85025363D02*
X148113390Y-84930125D01*
X148113390Y-84930125D02*
X148161009Y-84882506D01*
X148161009Y-84882506D02*
X148256247Y-84834887D01*
X148256247Y-84834887D02*
X148494342Y-84834887D01*
X148494342Y-84834887D02*
X148589580Y-84882506D01*
X148589580Y-84882506D02*
X148637200Y-84930125D01*
X148637200Y-84930125D02*
X148684819Y-85025363D01*
X148684819Y-85025363D02*
X148684819Y-85311077D01*
X148684819Y-85311077D02*
X148637200Y-85406315D01*
X148637200Y-85406315D02*
X148589580Y-85453934D01*
X68674819Y-87308220D02*
X67674819Y-87308220D01*
X67674819Y-87308220D02*
X67674819Y-87070125D01*
X67674819Y-87070125D02*
X67722438Y-86927268D01*
X67722438Y-86927268D02*
X67817676Y-86832030D01*
X67817676Y-86832030D02*
X67912914Y-86784411D01*
X67912914Y-86784411D02*
X68103390Y-86736792D01*
X68103390Y-86736792D02*
X68246247Y-86736792D01*
X68246247Y-86736792D02*
X68436723Y-86784411D01*
X68436723Y-86784411D02*
X68531961Y-86832030D01*
X68531961Y-86832030D02*
X68627200Y-86927268D01*
X68627200Y-86927268D02*
X68674819Y-87070125D01*
X68674819Y-87070125D02*
X68674819Y-87308220D01*
X67674819Y-85832030D02*
X67674819Y-86308220D01*
X67674819Y-86308220D02*
X68151009Y-86355839D01*
X68151009Y-86355839D02*
X68103390Y-86308220D01*
X68103390Y-86308220D02*
X68055771Y-86212982D01*
X68055771Y-86212982D02*
X68055771Y-85974887D01*
X68055771Y-85974887D02*
X68103390Y-85879649D01*
X68103390Y-85879649D02*
X68151009Y-85832030D01*
X68151009Y-85832030D02*
X68246247Y-85784411D01*
X68246247Y-85784411D02*
X68484342Y-85784411D01*
X68484342Y-85784411D02*
X68579580Y-85832030D01*
X68579580Y-85832030D02*
X68627200Y-85879649D01*
X68627200Y-85879649D02*
X68674819Y-85974887D01*
X68674819Y-85974887D02*
X68674819Y-86212982D01*
X68674819Y-86212982D02*
X68627200Y-86308220D01*
X68627200Y-86308220D02*
X68579580Y-86355839D01*
X128079104Y-87215839D02*
X128079104Y-86739649D01*
X128364819Y-87311077D02*
X127364819Y-86977744D01*
X127364819Y-86977744D02*
X128364819Y-86644411D01*
X127364819Y-86406315D02*
X127364819Y-85739649D01*
X127364819Y-85739649D02*
X128364819Y-86168220D01*
X110299104Y-96740839D02*
X110299104Y-96264649D01*
X110584819Y-96836077D02*
X109584819Y-96502744D01*
X109584819Y-96502744D02*
X110584819Y-96169411D01*
X110584819Y-95312268D02*
X110584819Y-95883696D01*
X110584819Y-95597982D02*
X109584819Y-95597982D01*
X109584819Y-95597982D02*
X109727676Y-95693220D01*
X109727676Y-95693220D02*
X109822914Y-95788458D01*
X109822914Y-95788458D02*
X109870533Y-95883696D01*
X109584819Y-94455125D02*
X109584819Y-94645601D01*
X109584819Y-94645601D02*
X109632438Y-94740839D01*
X109632438Y-94740839D02*
X109680057Y-94788458D01*
X109680057Y-94788458D02*
X109822914Y-94883696D01*
X109822914Y-94883696D02*
X110013390Y-94931315D01*
X110013390Y-94931315D02*
X110394342Y-94931315D01*
X110394342Y-94931315D02*
X110489580Y-94883696D01*
X110489580Y-94883696D02*
X110537200Y-94836077D01*
X110537200Y-94836077D02*
X110584819Y-94740839D01*
X110584819Y-94740839D02*
X110584819Y-94550363D01*
X110584819Y-94550363D02*
X110537200Y-94455125D01*
X110537200Y-94455125D02*
X110489580Y-94407506D01*
X110489580Y-94407506D02*
X110394342Y-94359887D01*
X110394342Y-94359887D02*
X110156247Y-94359887D01*
X110156247Y-94359887D02*
X110061009Y-94407506D01*
X110061009Y-94407506D02*
X110013390Y-94455125D01*
X110013390Y-94455125D02*
X109965771Y-94550363D01*
X109965771Y-94550363D02*
X109965771Y-94740839D01*
X109965771Y-94740839D02*
X110013390Y-94836077D01*
X110013390Y-94836077D02*
X110061009Y-94883696D01*
X110061009Y-94883696D02*
X110156247Y-94931315D01*
X55974819Y-96693220D02*
X54974819Y-96693220D01*
X54974819Y-96693220D02*
X54974819Y-96455125D01*
X54974819Y-96455125D02*
X55022438Y-96312268D01*
X55022438Y-96312268D02*
X55117676Y-96217030D01*
X55117676Y-96217030D02*
X55212914Y-96169411D01*
X55212914Y-96169411D02*
X55403390Y-96121792D01*
X55403390Y-96121792D02*
X55546247Y-96121792D01*
X55546247Y-96121792D02*
X55736723Y-96169411D01*
X55736723Y-96169411D02*
X55831961Y-96217030D01*
X55831961Y-96217030D02*
X55927200Y-96312268D01*
X55927200Y-96312268D02*
X55974819Y-96455125D01*
X55974819Y-96455125D02*
X55974819Y-96693220D01*
X55974819Y-95169411D02*
X55974819Y-95740839D01*
X55974819Y-95455125D02*
X54974819Y-95455125D01*
X54974819Y-95455125D02*
X55117676Y-95550363D01*
X55117676Y-95550363D02*
X55212914Y-95645601D01*
X55212914Y-95645601D02*
X55260533Y-95740839D01*
X54974819Y-94312268D02*
X54974819Y-94502744D01*
X54974819Y-94502744D02*
X55022438Y-94597982D01*
X55022438Y-94597982D02*
X55070057Y-94645601D01*
X55070057Y-94645601D02*
X55212914Y-94740839D01*
X55212914Y-94740839D02*
X55403390Y-94788458D01*
X55403390Y-94788458D02*
X55784342Y-94788458D01*
X55784342Y-94788458D02*
X55879580Y-94740839D01*
X55879580Y-94740839D02*
X55927200Y-94693220D01*
X55927200Y-94693220D02*
X55974819Y-94597982D01*
X55974819Y-94597982D02*
X55974819Y-94407506D01*
X55974819Y-94407506D02*
X55927200Y-94312268D01*
X55927200Y-94312268D02*
X55879580Y-94264649D01*
X55879580Y-94264649D02*
X55784342Y-94217030D01*
X55784342Y-94217030D02*
X55546247Y-94217030D01*
X55546247Y-94217030D02*
X55451009Y-94264649D01*
X55451009Y-94264649D02*
X55403390Y-94312268D01*
X55403390Y-94312268D02*
X55355771Y-94407506D01*
X55355771Y-94407506D02*
X55355771Y-94597982D01*
X55355771Y-94597982D02*
X55403390Y-94693220D01*
X55403390Y-94693220D02*
X55451009Y-94740839D01*
X55451009Y-94740839D02*
X55546247Y-94788458D01*
X135699104Y-87215839D02*
X135699104Y-86739649D01*
X135984819Y-87311077D02*
X134984819Y-86977744D01*
X134984819Y-86977744D02*
X135984819Y-86644411D01*
X135413390Y-86168220D02*
X135365771Y-86263458D01*
X135365771Y-86263458D02*
X135318152Y-86311077D01*
X135318152Y-86311077D02*
X135222914Y-86358696D01*
X135222914Y-86358696D02*
X135175295Y-86358696D01*
X135175295Y-86358696D02*
X135080057Y-86311077D01*
X135080057Y-86311077D02*
X135032438Y-86263458D01*
X135032438Y-86263458D02*
X134984819Y-86168220D01*
X134984819Y-86168220D02*
X134984819Y-85977744D01*
X134984819Y-85977744D02*
X135032438Y-85882506D01*
X135032438Y-85882506D02*
X135080057Y-85834887D01*
X135080057Y-85834887D02*
X135175295Y-85787268D01*
X135175295Y-85787268D02*
X135222914Y-85787268D01*
X135222914Y-85787268D02*
X135318152Y-85834887D01*
X135318152Y-85834887D02*
X135365771Y-85882506D01*
X135365771Y-85882506D02*
X135413390Y-85977744D01*
X135413390Y-85977744D02*
X135413390Y-86168220D01*
X135413390Y-86168220D02*
X135461009Y-86263458D01*
X135461009Y-86263458D02*
X135508628Y-86311077D01*
X135508628Y-86311077D02*
X135603866Y-86358696D01*
X135603866Y-86358696D02*
X135794342Y-86358696D01*
X135794342Y-86358696D02*
X135889580Y-86311077D01*
X135889580Y-86311077D02*
X135937200Y-86263458D01*
X135937200Y-86263458D02*
X135984819Y-86168220D01*
X135984819Y-86168220D02*
X135984819Y-85977744D01*
X135984819Y-85977744D02*
X135937200Y-85882506D01*
X135937200Y-85882506D02*
X135889580Y-85834887D01*
X135889580Y-85834887D02*
X135794342Y-85787268D01*
X135794342Y-85787268D02*
X135603866Y-85787268D01*
X135603866Y-85787268D02*
X135508628Y-85834887D01*
X135508628Y-85834887D02*
X135461009Y-85882506D01*
X135461009Y-85882506D02*
X135413390Y-85977744D01*
X83914819Y-87168220D02*
X82914819Y-87168220D01*
X82914819Y-87168220D02*
X82914819Y-86930125D01*
X82914819Y-86930125D02*
X82962438Y-86787268D01*
X82962438Y-86787268D02*
X83057676Y-86692030D01*
X83057676Y-86692030D02*
X83152914Y-86644411D01*
X83152914Y-86644411D02*
X83343390Y-86596792D01*
X83343390Y-86596792D02*
X83486247Y-86596792D01*
X83486247Y-86596792D02*
X83676723Y-86644411D01*
X83676723Y-86644411D02*
X83771961Y-86692030D01*
X83771961Y-86692030D02*
X83867200Y-86787268D01*
X83867200Y-86787268D02*
X83914819Y-86930125D01*
X83914819Y-86930125D02*
X83914819Y-87168220D01*
X83914819Y-86120601D02*
X83914819Y-85930125D01*
X83914819Y-85930125D02*
X83867200Y-85834887D01*
X83867200Y-85834887D02*
X83819580Y-85787268D01*
X83819580Y-85787268D02*
X83676723Y-85692030D01*
X83676723Y-85692030D02*
X83486247Y-85644411D01*
X83486247Y-85644411D02*
X83105295Y-85644411D01*
X83105295Y-85644411D02*
X83010057Y-85692030D01*
X83010057Y-85692030D02*
X82962438Y-85739649D01*
X82962438Y-85739649D02*
X82914819Y-85834887D01*
X82914819Y-85834887D02*
X82914819Y-86025363D01*
X82914819Y-86025363D02*
X82962438Y-86120601D01*
X82962438Y-86120601D02*
X83010057Y-86168220D01*
X83010057Y-86168220D02*
X83105295Y-86215839D01*
X83105295Y-86215839D02*
X83343390Y-86215839D01*
X83343390Y-86215839D02*
X83438628Y-86168220D01*
X83438628Y-86168220D02*
X83486247Y-86120601D01*
X83486247Y-86120601D02*
X83533866Y-86025363D01*
X83533866Y-86025363D02*
X83533866Y-85834887D01*
X83533866Y-85834887D02*
X83486247Y-85739649D01*
X83486247Y-85739649D02*
X83438628Y-85692030D01*
X83438628Y-85692030D02*
X83343390Y-85644411D01*
X152764819Y-96788458D02*
X153764819Y-96550363D01*
X153764819Y-96550363D02*
X153050533Y-96359887D01*
X153050533Y-96359887D02*
X153764819Y-96169411D01*
X153764819Y-96169411D02*
X152764819Y-95931316D01*
X153241009Y-95550363D02*
X153241009Y-95217030D01*
X153764819Y-95074173D02*
X153764819Y-95550363D01*
X153764819Y-95550363D02*
X152764819Y-95550363D01*
X152764819Y-95550363D02*
X152764819Y-95074173D01*
X152487200Y-96831316D02*
X152487200Y-94983697D01*
X134984819Y-96836077D02*
X135984819Y-96502744D01*
X135984819Y-96502744D02*
X134984819Y-96169411D01*
X135889580Y-95264649D02*
X135937200Y-95312268D01*
X135937200Y-95312268D02*
X135984819Y-95455125D01*
X135984819Y-95455125D02*
X135984819Y-95550363D01*
X135984819Y-95550363D02*
X135937200Y-95693220D01*
X135937200Y-95693220D02*
X135841961Y-95788458D01*
X135841961Y-95788458D02*
X135746723Y-95836077D01*
X135746723Y-95836077D02*
X135556247Y-95883696D01*
X135556247Y-95883696D02*
X135413390Y-95883696D01*
X135413390Y-95883696D02*
X135222914Y-95836077D01*
X135222914Y-95836077D02*
X135127676Y-95788458D01*
X135127676Y-95788458D02*
X135032438Y-95693220D01*
X135032438Y-95693220D02*
X134984819Y-95550363D01*
X134984819Y-95550363D02*
X134984819Y-95455125D01*
X134984819Y-95455125D02*
X135032438Y-95312268D01*
X135032438Y-95312268D02*
X135080057Y-95264649D01*
X135889580Y-94264649D02*
X135937200Y-94312268D01*
X135937200Y-94312268D02*
X135984819Y-94455125D01*
X135984819Y-94455125D02*
X135984819Y-94550363D01*
X135984819Y-94550363D02*
X135937200Y-94693220D01*
X135937200Y-94693220D02*
X135841961Y-94788458D01*
X135841961Y-94788458D02*
X135746723Y-94836077D01*
X135746723Y-94836077D02*
X135556247Y-94883696D01*
X135556247Y-94883696D02*
X135413390Y-94883696D01*
X135413390Y-94883696D02*
X135222914Y-94836077D01*
X135222914Y-94836077D02*
X135127676Y-94788458D01*
X135127676Y-94788458D02*
X135032438Y-94693220D01*
X135032438Y-94693220D02*
X134984819Y-94550363D01*
X134984819Y-94550363D02*
X134984819Y-94455125D01*
X134984819Y-94455125D02*
X135032438Y-94312268D01*
X135032438Y-94312268D02*
X135080057Y-94264649D01*
X148161009Y-96359887D02*
X148208628Y-96217030D01*
X148208628Y-96217030D02*
X148256247Y-96169411D01*
X148256247Y-96169411D02*
X148351485Y-96121792D01*
X148351485Y-96121792D02*
X148494342Y-96121792D01*
X148494342Y-96121792D02*
X148589580Y-96169411D01*
X148589580Y-96169411D02*
X148637200Y-96217030D01*
X148637200Y-96217030D02*
X148684819Y-96312268D01*
X148684819Y-96312268D02*
X148684819Y-96693220D01*
X148684819Y-96693220D02*
X147684819Y-96693220D01*
X147684819Y-96693220D02*
X147684819Y-96359887D01*
X147684819Y-96359887D02*
X147732438Y-96264649D01*
X147732438Y-96264649D02*
X147780057Y-96217030D01*
X147780057Y-96217030D02*
X147875295Y-96169411D01*
X147875295Y-96169411D02*
X147970533Y-96169411D01*
X147970533Y-96169411D02*
X148065771Y-96217030D01*
X148065771Y-96217030D02*
X148113390Y-96264649D01*
X148113390Y-96264649D02*
X148161009Y-96359887D01*
X148161009Y-96359887D02*
X148161009Y-96693220D01*
X148637200Y-95740839D02*
X148684819Y-95597982D01*
X148684819Y-95597982D02*
X148684819Y-95359887D01*
X148684819Y-95359887D02*
X148637200Y-95264649D01*
X148637200Y-95264649D02*
X148589580Y-95217030D01*
X148589580Y-95217030D02*
X148494342Y-95169411D01*
X148494342Y-95169411D02*
X148399104Y-95169411D01*
X148399104Y-95169411D02*
X148303866Y-95217030D01*
X148303866Y-95217030D02*
X148256247Y-95264649D01*
X148256247Y-95264649D02*
X148208628Y-95359887D01*
X148208628Y-95359887D02*
X148161009Y-95550363D01*
X148161009Y-95550363D02*
X148113390Y-95645601D01*
X148113390Y-95645601D02*
X148065771Y-95693220D01*
X148065771Y-95693220D02*
X147970533Y-95740839D01*
X147970533Y-95740839D02*
X147875295Y-95740839D01*
X147875295Y-95740839D02*
X147780057Y-95693220D01*
X147780057Y-95693220D02*
X147732438Y-95645601D01*
X147732438Y-95645601D02*
X147684819Y-95550363D01*
X147684819Y-95550363D02*
X147684819Y-95312268D01*
X147684819Y-95312268D02*
X147732438Y-95169411D01*
X147684819Y-94836077D02*
X147684819Y-94217030D01*
X147684819Y-94217030D02*
X148065771Y-94550363D01*
X148065771Y-94550363D02*
X148065771Y-94407506D01*
X148065771Y-94407506D02*
X148113390Y-94312268D01*
X148113390Y-94312268D02*
X148161009Y-94264649D01*
X148161009Y-94264649D02*
X148256247Y-94217030D01*
X148256247Y-94217030D02*
X148494342Y-94217030D01*
X148494342Y-94217030D02*
X148589580Y-94264649D01*
X148589580Y-94264649D02*
X148637200Y-94312268D01*
X148637200Y-94312268D02*
X148684819Y-94407506D01*
X148684819Y-94407506D02*
X148684819Y-94693220D01*
X148684819Y-94693220D02*
X148637200Y-94788458D01*
X148637200Y-94788458D02*
X148589580Y-94836077D01*
X147407200Y-96831316D02*
X147407200Y-94126554D01*
X86454819Y-96693220D02*
X85454819Y-96693220D01*
X85454819Y-96693220D02*
X85454819Y-96455125D01*
X85454819Y-96455125D02*
X85502438Y-96312268D01*
X85502438Y-96312268D02*
X85597676Y-96217030D01*
X85597676Y-96217030D02*
X85692914Y-96169411D01*
X85692914Y-96169411D02*
X85883390Y-96121792D01*
X85883390Y-96121792D02*
X86026247Y-96121792D01*
X86026247Y-96121792D02*
X86216723Y-96169411D01*
X86216723Y-96169411D02*
X86311961Y-96217030D01*
X86311961Y-96217030D02*
X86407200Y-96312268D01*
X86407200Y-96312268D02*
X86454819Y-96455125D01*
X86454819Y-96455125D02*
X86454819Y-96693220D01*
X85550057Y-95740839D02*
X85502438Y-95693220D01*
X85502438Y-95693220D02*
X85454819Y-95597982D01*
X85454819Y-95597982D02*
X85454819Y-95359887D01*
X85454819Y-95359887D02*
X85502438Y-95264649D01*
X85502438Y-95264649D02*
X85550057Y-95217030D01*
X85550057Y-95217030D02*
X85645295Y-95169411D01*
X85645295Y-95169411D02*
X85740533Y-95169411D01*
X85740533Y-95169411D02*
X85883390Y-95217030D01*
X85883390Y-95217030D02*
X86454819Y-95788458D01*
X86454819Y-95788458D02*
X86454819Y-95169411D01*
X85454819Y-94312268D02*
X85454819Y-94502744D01*
X85454819Y-94502744D02*
X85502438Y-94597982D01*
X85502438Y-94597982D02*
X85550057Y-94645601D01*
X85550057Y-94645601D02*
X85692914Y-94740839D01*
X85692914Y-94740839D02*
X85883390Y-94788458D01*
X85883390Y-94788458D02*
X86264342Y-94788458D01*
X86264342Y-94788458D02*
X86359580Y-94740839D01*
X86359580Y-94740839D02*
X86407200Y-94693220D01*
X86407200Y-94693220D02*
X86454819Y-94597982D01*
X86454819Y-94597982D02*
X86454819Y-94407506D01*
X86454819Y-94407506D02*
X86407200Y-94312268D01*
X86407200Y-94312268D02*
X86359580Y-94264649D01*
X86359580Y-94264649D02*
X86264342Y-94217030D01*
X86264342Y-94217030D02*
X86026247Y-94217030D01*
X86026247Y-94217030D02*
X85931009Y-94264649D01*
X85931009Y-94264649D02*
X85883390Y-94312268D01*
X85883390Y-94312268D02*
X85835771Y-94407506D01*
X85835771Y-94407506D02*
X85835771Y-94597982D01*
X85835771Y-94597982D02*
X85883390Y-94693220D01*
X85883390Y-94693220D02*
X85931009Y-94740839D01*
X85931009Y-94740839D02*
X86026247Y-94788458D01*
X96614819Y-87168220D02*
X95614819Y-87168220D01*
X95614819Y-87168220D02*
X95614819Y-86930125D01*
X95614819Y-86930125D02*
X95662438Y-86787268D01*
X95662438Y-86787268D02*
X95757676Y-86692030D01*
X95757676Y-86692030D02*
X95852914Y-86644411D01*
X95852914Y-86644411D02*
X96043390Y-86596792D01*
X96043390Y-86596792D02*
X96186247Y-86596792D01*
X96186247Y-86596792D02*
X96376723Y-86644411D01*
X96376723Y-86644411D02*
X96471961Y-86692030D01*
X96471961Y-86692030D02*
X96567200Y-86787268D01*
X96567200Y-86787268D02*
X96614819Y-86930125D01*
X96614819Y-86930125D02*
X96614819Y-87168220D01*
X96614819Y-85644411D02*
X96614819Y-86215839D01*
X96614819Y-85930125D02*
X95614819Y-85930125D01*
X95614819Y-85930125D02*
X95757676Y-86025363D01*
X95757676Y-86025363D02*
X95852914Y-86120601D01*
X95852914Y-86120601D02*
X95900533Y-86215839D01*
X95948152Y-84787268D02*
X96614819Y-84787268D01*
X95567200Y-85025363D02*
X96281485Y-85263458D01*
X96281485Y-85263458D02*
X96281485Y-84644411D01*
X71214819Y-87308220D02*
X70214819Y-87308220D01*
X70214819Y-87308220D02*
X70214819Y-87070125D01*
X70214819Y-87070125D02*
X70262438Y-86927268D01*
X70262438Y-86927268D02*
X70357676Y-86832030D01*
X70357676Y-86832030D02*
X70452914Y-86784411D01*
X70452914Y-86784411D02*
X70643390Y-86736792D01*
X70643390Y-86736792D02*
X70786247Y-86736792D01*
X70786247Y-86736792D02*
X70976723Y-86784411D01*
X70976723Y-86784411D02*
X71071961Y-86832030D01*
X71071961Y-86832030D02*
X71167200Y-86927268D01*
X71167200Y-86927268D02*
X71214819Y-87070125D01*
X71214819Y-87070125D02*
X71214819Y-87308220D01*
X70214819Y-85879649D02*
X70214819Y-86070125D01*
X70214819Y-86070125D02*
X70262438Y-86165363D01*
X70262438Y-86165363D02*
X70310057Y-86212982D01*
X70310057Y-86212982D02*
X70452914Y-86308220D01*
X70452914Y-86308220D02*
X70643390Y-86355839D01*
X70643390Y-86355839D02*
X71024342Y-86355839D01*
X71024342Y-86355839D02*
X71119580Y-86308220D01*
X71119580Y-86308220D02*
X71167200Y-86260601D01*
X71167200Y-86260601D02*
X71214819Y-86165363D01*
X71214819Y-86165363D02*
X71214819Y-85974887D01*
X71214819Y-85974887D02*
X71167200Y-85879649D01*
X71167200Y-85879649D02*
X71119580Y-85832030D01*
X71119580Y-85832030D02*
X71024342Y-85784411D01*
X71024342Y-85784411D02*
X70786247Y-85784411D01*
X70786247Y-85784411D02*
X70691009Y-85832030D01*
X70691009Y-85832030D02*
X70643390Y-85879649D01*
X70643390Y-85879649D02*
X70595771Y-85974887D01*
X70595771Y-85974887D02*
X70595771Y-86165363D01*
X70595771Y-86165363D02*
X70643390Y-86260601D01*
X70643390Y-86260601D02*
X70691009Y-86308220D01*
X70691009Y-86308220D02*
X70786247Y-86355839D01*
X109632438Y-86644411D02*
X109584819Y-86739649D01*
X109584819Y-86739649D02*
X109584819Y-86882506D01*
X109584819Y-86882506D02*
X109632438Y-87025363D01*
X109632438Y-87025363D02*
X109727676Y-87120601D01*
X109727676Y-87120601D02*
X109822914Y-87168220D01*
X109822914Y-87168220D02*
X110013390Y-87215839D01*
X110013390Y-87215839D02*
X110156247Y-87215839D01*
X110156247Y-87215839D02*
X110346723Y-87168220D01*
X110346723Y-87168220D02*
X110441961Y-87120601D01*
X110441961Y-87120601D02*
X110537200Y-87025363D01*
X110537200Y-87025363D02*
X110584819Y-86882506D01*
X110584819Y-86882506D02*
X110584819Y-86787268D01*
X110584819Y-86787268D02*
X110537200Y-86644411D01*
X110537200Y-86644411D02*
X110489580Y-86596792D01*
X110489580Y-86596792D02*
X110156247Y-86596792D01*
X110156247Y-86596792D02*
X110156247Y-86787268D01*
X110584819Y-86168220D02*
X109584819Y-86168220D01*
X109584819Y-86168220D02*
X110584819Y-85596792D01*
X110584819Y-85596792D02*
X109584819Y-85596792D01*
X110584819Y-85120601D02*
X109584819Y-85120601D01*
X109584819Y-85120601D02*
X109584819Y-84882506D01*
X109584819Y-84882506D02*
X109632438Y-84739649D01*
X109632438Y-84739649D02*
X109727676Y-84644411D01*
X109727676Y-84644411D02*
X109822914Y-84596792D01*
X109822914Y-84596792D02*
X110013390Y-84549173D01*
X110013390Y-84549173D02*
X110156247Y-84549173D01*
X110156247Y-84549173D02*
X110346723Y-84596792D01*
X110346723Y-84596792D02*
X110441961Y-84644411D01*
X110441961Y-84644411D02*
X110537200Y-84739649D01*
X110537200Y-84739649D02*
X110584819Y-84882506D01*
X110584819Y-84882506D02*
X110584819Y-85120601D01*
X120459104Y-87215839D02*
X120459104Y-86739649D01*
X120744819Y-87311077D02*
X119744819Y-86977744D01*
X119744819Y-86977744D02*
X120744819Y-86644411D01*
X120078152Y-85882506D02*
X120744819Y-85882506D01*
X119697200Y-86120601D02*
X120411485Y-86358696D01*
X120411485Y-86358696D02*
X120411485Y-85739649D01*
X115379104Y-87215839D02*
X115379104Y-86739649D01*
X115664819Y-87311077D02*
X114664819Y-86977744D01*
X114664819Y-86977744D02*
X115664819Y-86644411D01*
X114760057Y-86358696D02*
X114712438Y-86311077D01*
X114712438Y-86311077D02*
X114664819Y-86215839D01*
X114664819Y-86215839D02*
X114664819Y-85977744D01*
X114664819Y-85977744D02*
X114712438Y-85882506D01*
X114712438Y-85882506D02*
X114760057Y-85834887D01*
X114760057Y-85834887D02*
X114855295Y-85787268D01*
X114855295Y-85787268D02*
X114950533Y-85787268D01*
X114950533Y-85787268D02*
X115093390Y-85834887D01*
X115093390Y-85834887D02*
X115664819Y-86406315D01*
X115664819Y-86406315D02*
X115664819Y-85787268D01*
X140779104Y-87215839D02*
X140779104Y-86739649D01*
X141064819Y-87311077D02*
X140064819Y-86977744D01*
X140064819Y-86977744D02*
X141064819Y-86644411D01*
X141064819Y-85787268D02*
X141064819Y-86358696D01*
X141064819Y-86072982D02*
X140064819Y-86072982D01*
X140064819Y-86072982D02*
X140207676Y-86168220D01*
X140207676Y-86168220D02*
X140302914Y-86263458D01*
X140302914Y-86263458D02*
X140350533Y-86358696D01*
X140064819Y-85168220D02*
X140064819Y-85072982D01*
X140064819Y-85072982D02*
X140112438Y-84977744D01*
X140112438Y-84977744D02*
X140160057Y-84930125D01*
X140160057Y-84930125D02*
X140255295Y-84882506D01*
X140255295Y-84882506D02*
X140445771Y-84834887D01*
X140445771Y-84834887D02*
X140683866Y-84834887D01*
X140683866Y-84834887D02*
X140874342Y-84882506D01*
X140874342Y-84882506D02*
X140969580Y-84930125D01*
X140969580Y-84930125D02*
X141017200Y-84977744D01*
X141017200Y-84977744D02*
X141064819Y-85072982D01*
X141064819Y-85072982D02*
X141064819Y-85168220D01*
X141064819Y-85168220D02*
X141017200Y-85263458D01*
X141017200Y-85263458D02*
X140969580Y-85311077D01*
X140969580Y-85311077D02*
X140874342Y-85358696D01*
X140874342Y-85358696D02*
X140683866Y-85406315D01*
X140683866Y-85406315D02*
X140445771Y-85406315D01*
X140445771Y-85406315D02*
X140255295Y-85358696D01*
X140255295Y-85358696D02*
X140160057Y-85311077D01*
X140160057Y-85311077D02*
X140112438Y-85263458D01*
X140112438Y-85263458D02*
X140064819Y-85168220D01*
X91534819Y-96693220D02*
X90534819Y-96693220D01*
X90534819Y-96693220D02*
X90534819Y-96455125D01*
X90534819Y-96455125D02*
X90582438Y-96312268D01*
X90582438Y-96312268D02*
X90677676Y-96217030D01*
X90677676Y-96217030D02*
X90772914Y-96169411D01*
X90772914Y-96169411D02*
X90963390Y-96121792D01*
X90963390Y-96121792D02*
X91106247Y-96121792D01*
X91106247Y-96121792D02*
X91296723Y-96169411D01*
X91296723Y-96169411D02*
X91391961Y-96217030D01*
X91391961Y-96217030D02*
X91487200Y-96312268D01*
X91487200Y-96312268D02*
X91534819Y-96455125D01*
X91534819Y-96455125D02*
X91534819Y-96693220D01*
X90630057Y-95740839D02*
X90582438Y-95693220D01*
X90582438Y-95693220D02*
X90534819Y-95597982D01*
X90534819Y-95597982D02*
X90534819Y-95359887D01*
X90534819Y-95359887D02*
X90582438Y-95264649D01*
X90582438Y-95264649D02*
X90630057Y-95217030D01*
X90630057Y-95217030D02*
X90725295Y-95169411D01*
X90725295Y-95169411D02*
X90820533Y-95169411D01*
X90820533Y-95169411D02*
X90963390Y-95217030D01*
X90963390Y-95217030D02*
X91534819Y-95788458D01*
X91534819Y-95788458D02*
X91534819Y-95169411D01*
X90963390Y-94597982D02*
X90915771Y-94693220D01*
X90915771Y-94693220D02*
X90868152Y-94740839D01*
X90868152Y-94740839D02*
X90772914Y-94788458D01*
X90772914Y-94788458D02*
X90725295Y-94788458D01*
X90725295Y-94788458D02*
X90630057Y-94740839D01*
X90630057Y-94740839D02*
X90582438Y-94693220D01*
X90582438Y-94693220D02*
X90534819Y-94597982D01*
X90534819Y-94597982D02*
X90534819Y-94407506D01*
X90534819Y-94407506D02*
X90582438Y-94312268D01*
X90582438Y-94312268D02*
X90630057Y-94264649D01*
X90630057Y-94264649D02*
X90725295Y-94217030D01*
X90725295Y-94217030D02*
X90772914Y-94217030D01*
X90772914Y-94217030D02*
X90868152Y-94264649D01*
X90868152Y-94264649D02*
X90915771Y-94312268D01*
X90915771Y-94312268D02*
X90963390Y-94407506D01*
X90963390Y-94407506D02*
X90963390Y-94597982D01*
X90963390Y-94597982D02*
X91011009Y-94693220D01*
X91011009Y-94693220D02*
X91058628Y-94740839D01*
X91058628Y-94740839D02*
X91153866Y-94788458D01*
X91153866Y-94788458D02*
X91344342Y-94788458D01*
X91344342Y-94788458D02*
X91439580Y-94740839D01*
X91439580Y-94740839D02*
X91487200Y-94693220D01*
X91487200Y-94693220D02*
X91534819Y-94597982D01*
X91534819Y-94597982D02*
X91534819Y-94407506D01*
X91534819Y-94407506D02*
X91487200Y-94312268D01*
X91487200Y-94312268D02*
X91439580Y-94264649D01*
X91439580Y-94264649D02*
X91344342Y-94217030D01*
X91344342Y-94217030D02*
X91153866Y-94217030D01*
X91153866Y-94217030D02*
X91058628Y-94264649D01*
X91058628Y-94264649D02*
X91011009Y-94312268D01*
X91011009Y-94312268D02*
X90963390Y-94407506D01*
X99154819Y-96693220D02*
X98154819Y-96693220D01*
X98154819Y-96693220D02*
X98154819Y-96455125D01*
X98154819Y-96455125D02*
X98202438Y-96312268D01*
X98202438Y-96312268D02*
X98297676Y-96217030D01*
X98297676Y-96217030D02*
X98392914Y-96169411D01*
X98392914Y-96169411D02*
X98583390Y-96121792D01*
X98583390Y-96121792D02*
X98726247Y-96121792D01*
X98726247Y-96121792D02*
X98916723Y-96169411D01*
X98916723Y-96169411D02*
X99011961Y-96217030D01*
X99011961Y-96217030D02*
X99107200Y-96312268D01*
X99107200Y-96312268D02*
X99154819Y-96455125D01*
X99154819Y-96455125D02*
X99154819Y-96693220D01*
X98154819Y-95788458D02*
X98154819Y-95169411D01*
X98154819Y-95169411D02*
X98535771Y-95502744D01*
X98535771Y-95502744D02*
X98535771Y-95359887D01*
X98535771Y-95359887D02*
X98583390Y-95264649D01*
X98583390Y-95264649D02*
X98631009Y-95217030D01*
X98631009Y-95217030D02*
X98726247Y-95169411D01*
X98726247Y-95169411D02*
X98964342Y-95169411D01*
X98964342Y-95169411D02*
X99059580Y-95217030D01*
X99059580Y-95217030D02*
X99107200Y-95264649D01*
X99107200Y-95264649D02*
X99154819Y-95359887D01*
X99154819Y-95359887D02*
X99154819Y-95645601D01*
X99154819Y-95645601D02*
X99107200Y-95740839D01*
X99107200Y-95740839D02*
X99059580Y-95788458D01*
X99154819Y-94217030D02*
X99154819Y-94788458D01*
X99154819Y-94502744D02*
X98154819Y-94502744D01*
X98154819Y-94502744D02*
X98297676Y-94597982D01*
X98297676Y-94597982D02*
X98392914Y-94693220D01*
X98392914Y-94693220D02*
X98440533Y-94788458D01*
X140541009Y-96359887D02*
X140588628Y-96217030D01*
X140588628Y-96217030D02*
X140636247Y-96169411D01*
X140636247Y-96169411D02*
X140731485Y-96121792D01*
X140731485Y-96121792D02*
X140874342Y-96121792D01*
X140874342Y-96121792D02*
X140969580Y-96169411D01*
X140969580Y-96169411D02*
X141017200Y-96217030D01*
X141017200Y-96217030D02*
X141064819Y-96312268D01*
X141064819Y-96312268D02*
X141064819Y-96693220D01*
X141064819Y-96693220D02*
X140064819Y-96693220D01*
X140064819Y-96693220D02*
X140064819Y-96359887D01*
X140064819Y-96359887D02*
X140112438Y-96264649D01*
X140112438Y-96264649D02*
X140160057Y-96217030D01*
X140160057Y-96217030D02*
X140255295Y-96169411D01*
X140255295Y-96169411D02*
X140350533Y-96169411D01*
X140350533Y-96169411D02*
X140445771Y-96217030D01*
X140445771Y-96217030D02*
X140493390Y-96264649D01*
X140493390Y-96264649D02*
X140541009Y-96359887D01*
X140541009Y-96359887D02*
X140541009Y-96693220D01*
X141017200Y-95740839D02*
X141064819Y-95597982D01*
X141064819Y-95597982D02*
X141064819Y-95359887D01*
X141064819Y-95359887D02*
X141017200Y-95264649D01*
X141017200Y-95264649D02*
X140969580Y-95217030D01*
X140969580Y-95217030D02*
X140874342Y-95169411D01*
X140874342Y-95169411D02*
X140779104Y-95169411D01*
X140779104Y-95169411D02*
X140683866Y-95217030D01*
X140683866Y-95217030D02*
X140636247Y-95264649D01*
X140636247Y-95264649D02*
X140588628Y-95359887D01*
X140588628Y-95359887D02*
X140541009Y-95550363D01*
X140541009Y-95550363D02*
X140493390Y-95645601D01*
X140493390Y-95645601D02*
X140445771Y-95693220D01*
X140445771Y-95693220D02*
X140350533Y-95740839D01*
X140350533Y-95740839D02*
X140255295Y-95740839D01*
X140255295Y-95740839D02*
X140160057Y-95693220D01*
X140160057Y-95693220D02*
X140112438Y-95645601D01*
X140112438Y-95645601D02*
X140064819Y-95550363D01*
X140064819Y-95550363D02*
X140064819Y-95312268D01*
X140064819Y-95312268D02*
X140112438Y-95169411D01*
X140064819Y-94550363D02*
X140064819Y-94455125D01*
X140064819Y-94455125D02*
X140112438Y-94359887D01*
X140112438Y-94359887D02*
X140160057Y-94312268D01*
X140160057Y-94312268D02*
X140255295Y-94264649D01*
X140255295Y-94264649D02*
X140445771Y-94217030D01*
X140445771Y-94217030D02*
X140683866Y-94217030D01*
X140683866Y-94217030D02*
X140874342Y-94264649D01*
X140874342Y-94264649D02*
X140969580Y-94312268D01*
X140969580Y-94312268D02*
X141017200Y-94359887D01*
X141017200Y-94359887D02*
X141064819Y-94455125D01*
X141064819Y-94455125D02*
X141064819Y-94550363D01*
X141064819Y-94550363D02*
X141017200Y-94645601D01*
X141017200Y-94645601D02*
X140969580Y-94693220D01*
X140969580Y-94693220D02*
X140874342Y-94740839D01*
X140874342Y-94740839D02*
X140683866Y-94788458D01*
X140683866Y-94788458D02*
X140445771Y-94788458D01*
X140445771Y-94788458D02*
X140255295Y-94740839D01*
X140255295Y-94740839D02*
X140160057Y-94693220D01*
X140160057Y-94693220D02*
X140112438Y-94645601D01*
X140112438Y-94645601D02*
X140064819Y-94550363D01*
X139787200Y-96831316D02*
X139787200Y-94126554D01*
X68674819Y-96693220D02*
X67674819Y-96693220D01*
X67674819Y-96693220D02*
X67674819Y-96455125D01*
X67674819Y-96455125D02*
X67722438Y-96312268D01*
X67722438Y-96312268D02*
X67817676Y-96217030D01*
X67817676Y-96217030D02*
X67912914Y-96169411D01*
X67912914Y-96169411D02*
X68103390Y-96121792D01*
X68103390Y-96121792D02*
X68246247Y-96121792D01*
X68246247Y-96121792D02*
X68436723Y-96169411D01*
X68436723Y-96169411D02*
X68531961Y-96217030D01*
X68531961Y-96217030D02*
X68627200Y-96312268D01*
X68627200Y-96312268D02*
X68674819Y-96455125D01*
X68674819Y-96455125D02*
X68674819Y-96693220D01*
X67770057Y-95740839D02*
X67722438Y-95693220D01*
X67722438Y-95693220D02*
X67674819Y-95597982D01*
X67674819Y-95597982D02*
X67674819Y-95359887D01*
X67674819Y-95359887D02*
X67722438Y-95264649D01*
X67722438Y-95264649D02*
X67770057Y-95217030D01*
X67770057Y-95217030D02*
X67865295Y-95169411D01*
X67865295Y-95169411D02*
X67960533Y-95169411D01*
X67960533Y-95169411D02*
X68103390Y-95217030D01*
X68103390Y-95217030D02*
X68674819Y-95788458D01*
X68674819Y-95788458D02*
X68674819Y-95169411D01*
X68674819Y-94217030D02*
X68674819Y-94788458D01*
X68674819Y-94502744D02*
X67674819Y-94502744D01*
X67674819Y-94502744D02*
X67817676Y-94597982D01*
X67817676Y-94597982D02*
X67912914Y-94693220D01*
X67912914Y-94693220D02*
X67960533Y-94788458D01*
X112172438Y-86644411D02*
X112124819Y-86739649D01*
X112124819Y-86739649D02*
X112124819Y-86882506D01*
X112124819Y-86882506D02*
X112172438Y-87025363D01*
X112172438Y-87025363D02*
X112267676Y-87120601D01*
X112267676Y-87120601D02*
X112362914Y-87168220D01*
X112362914Y-87168220D02*
X112553390Y-87215839D01*
X112553390Y-87215839D02*
X112696247Y-87215839D01*
X112696247Y-87215839D02*
X112886723Y-87168220D01*
X112886723Y-87168220D02*
X112981961Y-87120601D01*
X112981961Y-87120601D02*
X113077200Y-87025363D01*
X113077200Y-87025363D02*
X113124819Y-86882506D01*
X113124819Y-86882506D02*
X113124819Y-86787268D01*
X113124819Y-86787268D02*
X113077200Y-86644411D01*
X113077200Y-86644411D02*
X113029580Y-86596792D01*
X113029580Y-86596792D02*
X112696247Y-86596792D01*
X112696247Y-86596792D02*
X112696247Y-86787268D01*
X113124819Y-86168220D02*
X112124819Y-86168220D01*
X112124819Y-86168220D02*
X113124819Y-85596792D01*
X113124819Y-85596792D02*
X112124819Y-85596792D01*
X113124819Y-85120601D02*
X112124819Y-85120601D01*
X112124819Y-85120601D02*
X112124819Y-84882506D01*
X112124819Y-84882506D02*
X112172438Y-84739649D01*
X112172438Y-84739649D02*
X112267676Y-84644411D01*
X112267676Y-84644411D02*
X112362914Y-84596792D01*
X112362914Y-84596792D02*
X112553390Y-84549173D01*
X112553390Y-84549173D02*
X112696247Y-84549173D01*
X112696247Y-84549173D02*
X112886723Y-84596792D01*
X112886723Y-84596792D02*
X112981961Y-84644411D01*
X112981961Y-84644411D02*
X113077200Y-84739649D01*
X113077200Y-84739649D02*
X113124819Y-84882506D01*
X113124819Y-84882506D02*
X113124819Y-85120601D01*
X115379104Y-96740839D02*
X115379104Y-96264649D01*
X115664819Y-96836077D02*
X114664819Y-96502744D01*
X114664819Y-96502744D02*
X115664819Y-96169411D01*
X115664819Y-95312268D02*
X115664819Y-95883696D01*
X115664819Y-95597982D02*
X114664819Y-95597982D01*
X114664819Y-95597982D02*
X114807676Y-95693220D01*
X114807676Y-95693220D02*
X114902914Y-95788458D01*
X114902914Y-95788458D02*
X114950533Y-95883696D01*
X115093390Y-94740839D02*
X115045771Y-94836077D01*
X115045771Y-94836077D02*
X114998152Y-94883696D01*
X114998152Y-94883696D02*
X114902914Y-94931315D01*
X114902914Y-94931315D02*
X114855295Y-94931315D01*
X114855295Y-94931315D02*
X114760057Y-94883696D01*
X114760057Y-94883696D02*
X114712438Y-94836077D01*
X114712438Y-94836077D02*
X114664819Y-94740839D01*
X114664819Y-94740839D02*
X114664819Y-94550363D01*
X114664819Y-94550363D02*
X114712438Y-94455125D01*
X114712438Y-94455125D02*
X114760057Y-94407506D01*
X114760057Y-94407506D02*
X114855295Y-94359887D01*
X114855295Y-94359887D02*
X114902914Y-94359887D01*
X114902914Y-94359887D02*
X114998152Y-94407506D01*
X114998152Y-94407506D02*
X115045771Y-94455125D01*
X115045771Y-94455125D02*
X115093390Y-94550363D01*
X115093390Y-94550363D02*
X115093390Y-94740839D01*
X115093390Y-94740839D02*
X115141009Y-94836077D01*
X115141009Y-94836077D02*
X115188628Y-94883696D01*
X115188628Y-94883696D02*
X115283866Y-94931315D01*
X115283866Y-94931315D02*
X115474342Y-94931315D01*
X115474342Y-94931315D02*
X115569580Y-94883696D01*
X115569580Y-94883696D02*
X115617200Y-94836077D01*
X115617200Y-94836077D02*
X115664819Y-94740839D01*
X115664819Y-94740839D02*
X115664819Y-94550363D01*
X115664819Y-94550363D02*
X115617200Y-94455125D01*
X115617200Y-94455125D02*
X115569580Y-94407506D01*
X115569580Y-94407506D02*
X115474342Y-94359887D01*
X115474342Y-94359887D02*
X115283866Y-94359887D01*
X115283866Y-94359887D02*
X115188628Y-94407506D01*
X115188628Y-94407506D02*
X115141009Y-94455125D01*
X115141009Y-94455125D02*
X115093390Y-94550363D01*
X112839104Y-96740839D02*
X112839104Y-96264649D01*
X113124819Y-96836077D02*
X112124819Y-96502744D01*
X112124819Y-96502744D02*
X113124819Y-96169411D01*
X113124819Y-95312268D02*
X113124819Y-95883696D01*
X113124819Y-95597982D02*
X112124819Y-95597982D01*
X112124819Y-95597982D02*
X112267676Y-95693220D01*
X112267676Y-95693220D02*
X112362914Y-95788458D01*
X112362914Y-95788458D02*
X112410533Y-95883696D01*
X112124819Y-94978934D02*
X112124819Y-94312268D01*
X112124819Y-94312268D02*
X113124819Y-94740839D01*
X61054819Y-87308220D02*
X60054819Y-87308220D01*
X60054819Y-87308220D02*
X60054819Y-87070125D01*
X60054819Y-87070125D02*
X60102438Y-86927268D01*
X60102438Y-86927268D02*
X60197676Y-86832030D01*
X60197676Y-86832030D02*
X60292914Y-86784411D01*
X60292914Y-86784411D02*
X60483390Y-86736792D01*
X60483390Y-86736792D02*
X60626247Y-86736792D01*
X60626247Y-86736792D02*
X60816723Y-86784411D01*
X60816723Y-86784411D02*
X60911961Y-86832030D01*
X60911961Y-86832030D02*
X61007200Y-86927268D01*
X61007200Y-86927268D02*
X61054819Y-87070125D01*
X61054819Y-87070125D02*
X61054819Y-87308220D01*
X60150057Y-86355839D02*
X60102438Y-86308220D01*
X60102438Y-86308220D02*
X60054819Y-86212982D01*
X60054819Y-86212982D02*
X60054819Y-85974887D01*
X60054819Y-85974887D02*
X60102438Y-85879649D01*
X60102438Y-85879649D02*
X60150057Y-85832030D01*
X60150057Y-85832030D02*
X60245295Y-85784411D01*
X60245295Y-85784411D02*
X60340533Y-85784411D01*
X60340533Y-85784411D02*
X60483390Y-85832030D01*
X60483390Y-85832030D02*
X61054819Y-86403458D01*
X61054819Y-86403458D02*
X61054819Y-85784411D01*
X88994819Y-96693220D02*
X87994819Y-96693220D01*
X87994819Y-96693220D02*
X87994819Y-96455125D01*
X87994819Y-96455125D02*
X88042438Y-96312268D01*
X88042438Y-96312268D02*
X88137676Y-96217030D01*
X88137676Y-96217030D02*
X88232914Y-96169411D01*
X88232914Y-96169411D02*
X88423390Y-96121792D01*
X88423390Y-96121792D02*
X88566247Y-96121792D01*
X88566247Y-96121792D02*
X88756723Y-96169411D01*
X88756723Y-96169411D02*
X88851961Y-96217030D01*
X88851961Y-96217030D02*
X88947200Y-96312268D01*
X88947200Y-96312268D02*
X88994819Y-96455125D01*
X88994819Y-96455125D02*
X88994819Y-96693220D01*
X88090057Y-95740839D02*
X88042438Y-95693220D01*
X88042438Y-95693220D02*
X87994819Y-95597982D01*
X87994819Y-95597982D02*
X87994819Y-95359887D01*
X87994819Y-95359887D02*
X88042438Y-95264649D01*
X88042438Y-95264649D02*
X88090057Y-95217030D01*
X88090057Y-95217030D02*
X88185295Y-95169411D01*
X88185295Y-95169411D02*
X88280533Y-95169411D01*
X88280533Y-95169411D02*
X88423390Y-95217030D01*
X88423390Y-95217030D02*
X88994819Y-95788458D01*
X88994819Y-95788458D02*
X88994819Y-95169411D01*
X87994819Y-94836077D02*
X87994819Y-94169411D01*
X87994819Y-94169411D02*
X88994819Y-94597982D01*
X145621009Y-96359887D02*
X145668628Y-96217030D01*
X145668628Y-96217030D02*
X145716247Y-96169411D01*
X145716247Y-96169411D02*
X145811485Y-96121792D01*
X145811485Y-96121792D02*
X145954342Y-96121792D01*
X145954342Y-96121792D02*
X146049580Y-96169411D01*
X146049580Y-96169411D02*
X146097200Y-96217030D01*
X146097200Y-96217030D02*
X146144819Y-96312268D01*
X146144819Y-96312268D02*
X146144819Y-96693220D01*
X146144819Y-96693220D02*
X145144819Y-96693220D01*
X145144819Y-96693220D02*
X145144819Y-96359887D01*
X145144819Y-96359887D02*
X145192438Y-96264649D01*
X145192438Y-96264649D02*
X145240057Y-96217030D01*
X145240057Y-96217030D02*
X145335295Y-96169411D01*
X145335295Y-96169411D02*
X145430533Y-96169411D01*
X145430533Y-96169411D02*
X145525771Y-96217030D01*
X145525771Y-96217030D02*
X145573390Y-96264649D01*
X145573390Y-96264649D02*
X145621009Y-96359887D01*
X145621009Y-96359887D02*
X145621009Y-96693220D01*
X146097200Y-95740839D02*
X146144819Y-95597982D01*
X146144819Y-95597982D02*
X146144819Y-95359887D01*
X146144819Y-95359887D02*
X146097200Y-95264649D01*
X146097200Y-95264649D02*
X146049580Y-95217030D01*
X146049580Y-95217030D02*
X145954342Y-95169411D01*
X145954342Y-95169411D02*
X145859104Y-95169411D01*
X145859104Y-95169411D02*
X145763866Y-95217030D01*
X145763866Y-95217030D02*
X145716247Y-95264649D01*
X145716247Y-95264649D02*
X145668628Y-95359887D01*
X145668628Y-95359887D02*
X145621009Y-95550363D01*
X145621009Y-95550363D02*
X145573390Y-95645601D01*
X145573390Y-95645601D02*
X145525771Y-95693220D01*
X145525771Y-95693220D02*
X145430533Y-95740839D01*
X145430533Y-95740839D02*
X145335295Y-95740839D01*
X145335295Y-95740839D02*
X145240057Y-95693220D01*
X145240057Y-95693220D02*
X145192438Y-95645601D01*
X145192438Y-95645601D02*
X145144819Y-95550363D01*
X145144819Y-95550363D02*
X145144819Y-95312268D01*
X145144819Y-95312268D02*
X145192438Y-95169411D01*
X145240057Y-94788458D02*
X145192438Y-94740839D01*
X145192438Y-94740839D02*
X145144819Y-94645601D01*
X145144819Y-94645601D02*
X145144819Y-94407506D01*
X145144819Y-94407506D02*
X145192438Y-94312268D01*
X145192438Y-94312268D02*
X145240057Y-94264649D01*
X145240057Y-94264649D02*
X145335295Y-94217030D01*
X145335295Y-94217030D02*
X145430533Y-94217030D01*
X145430533Y-94217030D02*
X145573390Y-94264649D01*
X145573390Y-94264649D02*
X146144819Y-94836077D01*
X146144819Y-94836077D02*
X146144819Y-94217030D01*
X144867200Y-96831316D02*
X144867200Y-94126554D01*
X58514819Y-96693220D02*
X57514819Y-96693220D01*
X57514819Y-96693220D02*
X57514819Y-96455125D01*
X57514819Y-96455125D02*
X57562438Y-96312268D01*
X57562438Y-96312268D02*
X57657676Y-96217030D01*
X57657676Y-96217030D02*
X57752914Y-96169411D01*
X57752914Y-96169411D02*
X57943390Y-96121792D01*
X57943390Y-96121792D02*
X58086247Y-96121792D01*
X58086247Y-96121792D02*
X58276723Y-96169411D01*
X58276723Y-96169411D02*
X58371961Y-96217030D01*
X58371961Y-96217030D02*
X58467200Y-96312268D01*
X58467200Y-96312268D02*
X58514819Y-96455125D01*
X58514819Y-96455125D02*
X58514819Y-96693220D01*
X58514819Y-95169411D02*
X58514819Y-95740839D01*
X58514819Y-95455125D02*
X57514819Y-95455125D01*
X57514819Y-95455125D02*
X57657676Y-95550363D01*
X57657676Y-95550363D02*
X57752914Y-95645601D01*
X57752914Y-95645601D02*
X57800533Y-95740839D01*
X57514819Y-94836077D02*
X57514819Y-94169411D01*
X57514819Y-94169411D02*
X58514819Y-94597982D01*
X99154819Y-87168220D02*
X98154819Y-87168220D01*
X98154819Y-87168220D02*
X98154819Y-86930125D01*
X98154819Y-86930125D02*
X98202438Y-86787268D01*
X98202438Y-86787268D02*
X98297676Y-86692030D01*
X98297676Y-86692030D02*
X98392914Y-86644411D01*
X98392914Y-86644411D02*
X98583390Y-86596792D01*
X98583390Y-86596792D02*
X98726247Y-86596792D01*
X98726247Y-86596792D02*
X98916723Y-86644411D01*
X98916723Y-86644411D02*
X99011961Y-86692030D01*
X99011961Y-86692030D02*
X99107200Y-86787268D01*
X99107200Y-86787268D02*
X99154819Y-86930125D01*
X99154819Y-86930125D02*
X99154819Y-87168220D01*
X99154819Y-85644411D02*
X99154819Y-86215839D01*
X99154819Y-85930125D02*
X98154819Y-85930125D01*
X98154819Y-85930125D02*
X98297676Y-86025363D01*
X98297676Y-86025363D02*
X98392914Y-86120601D01*
X98392914Y-86120601D02*
X98440533Y-86215839D01*
X98154819Y-84739649D02*
X98154819Y-85215839D01*
X98154819Y-85215839D02*
X98631009Y-85263458D01*
X98631009Y-85263458D02*
X98583390Y-85215839D01*
X98583390Y-85215839D02*
X98535771Y-85120601D01*
X98535771Y-85120601D02*
X98535771Y-84882506D01*
X98535771Y-84882506D02*
X98583390Y-84787268D01*
X98583390Y-84787268D02*
X98631009Y-84739649D01*
X98631009Y-84739649D02*
X98726247Y-84692030D01*
X98726247Y-84692030D02*
X98964342Y-84692030D01*
X98964342Y-84692030D02*
X99059580Y-84739649D01*
X99059580Y-84739649D02*
X99107200Y-84787268D01*
X99107200Y-84787268D02*
X99154819Y-84882506D01*
X99154819Y-84882506D02*
X99154819Y-85120601D01*
X99154819Y-85120601D02*
X99107200Y-85215839D01*
X99107200Y-85215839D02*
X99059580Y-85263458D01*
X81374819Y-87168220D02*
X80374819Y-87168220D01*
X80374819Y-87168220D02*
X80374819Y-86930125D01*
X80374819Y-86930125D02*
X80422438Y-86787268D01*
X80422438Y-86787268D02*
X80517676Y-86692030D01*
X80517676Y-86692030D02*
X80612914Y-86644411D01*
X80612914Y-86644411D02*
X80803390Y-86596792D01*
X80803390Y-86596792D02*
X80946247Y-86596792D01*
X80946247Y-86596792D02*
X81136723Y-86644411D01*
X81136723Y-86644411D02*
X81231961Y-86692030D01*
X81231961Y-86692030D02*
X81327200Y-86787268D01*
X81327200Y-86787268D02*
X81374819Y-86930125D01*
X81374819Y-86930125D02*
X81374819Y-87168220D01*
X80803390Y-86025363D02*
X80755771Y-86120601D01*
X80755771Y-86120601D02*
X80708152Y-86168220D01*
X80708152Y-86168220D02*
X80612914Y-86215839D01*
X80612914Y-86215839D02*
X80565295Y-86215839D01*
X80565295Y-86215839D02*
X80470057Y-86168220D01*
X80470057Y-86168220D02*
X80422438Y-86120601D01*
X80422438Y-86120601D02*
X80374819Y-86025363D01*
X80374819Y-86025363D02*
X80374819Y-85834887D01*
X80374819Y-85834887D02*
X80422438Y-85739649D01*
X80422438Y-85739649D02*
X80470057Y-85692030D01*
X80470057Y-85692030D02*
X80565295Y-85644411D01*
X80565295Y-85644411D02*
X80612914Y-85644411D01*
X80612914Y-85644411D02*
X80708152Y-85692030D01*
X80708152Y-85692030D02*
X80755771Y-85739649D01*
X80755771Y-85739649D02*
X80803390Y-85834887D01*
X80803390Y-85834887D02*
X80803390Y-86025363D01*
X80803390Y-86025363D02*
X80851009Y-86120601D01*
X80851009Y-86120601D02*
X80898628Y-86168220D01*
X80898628Y-86168220D02*
X80993866Y-86215839D01*
X80993866Y-86215839D02*
X81184342Y-86215839D01*
X81184342Y-86215839D02*
X81279580Y-86168220D01*
X81279580Y-86168220D02*
X81327200Y-86120601D01*
X81327200Y-86120601D02*
X81374819Y-86025363D01*
X81374819Y-86025363D02*
X81374819Y-85834887D01*
X81374819Y-85834887D02*
X81327200Y-85739649D01*
X81327200Y-85739649D02*
X81279580Y-85692030D01*
X81279580Y-85692030D02*
X81184342Y-85644411D01*
X81184342Y-85644411D02*
X80993866Y-85644411D01*
X80993866Y-85644411D02*
X80898628Y-85692030D01*
X80898628Y-85692030D02*
X80851009Y-85739649D01*
X80851009Y-85739649D02*
X80803390Y-85834887D01*
X117919104Y-87215839D02*
X117919104Y-86739649D01*
X118204819Y-87311077D02*
X117204819Y-86977744D01*
X117204819Y-86977744D02*
X118204819Y-86644411D01*
X117204819Y-86406315D02*
X117204819Y-85787268D01*
X117204819Y-85787268D02*
X117585771Y-86120601D01*
X117585771Y-86120601D02*
X117585771Y-85977744D01*
X117585771Y-85977744D02*
X117633390Y-85882506D01*
X117633390Y-85882506D02*
X117681009Y-85834887D01*
X117681009Y-85834887D02*
X117776247Y-85787268D01*
X117776247Y-85787268D02*
X118014342Y-85787268D01*
X118014342Y-85787268D02*
X118109580Y-85834887D01*
X118109580Y-85834887D02*
X118157200Y-85882506D01*
X118157200Y-85882506D02*
X118204819Y-85977744D01*
X118204819Y-85977744D02*
X118204819Y-86263458D01*
X118204819Y-86263458D02*
X118157200Y-86358696D01*
X118157200Y-86358696D02*
X118109580Y-86406315D01*
X61054819Y-96693220D02*
X60054819Y-96693220D01*
X60054819Y-96693220D02*
X60054819Y-96455125D01*
X60054819Y-96455125D02*
X60102438Y-96312268D01*
X60102438Y-96312268D02*
X60197676Y-96217030D01*
X60197676Y-96217030D02*
X60292914Y-96169411D01*
X60292914Y-96169411D02*
X60483390Y-96121792D01*
X60483390Y-96121792D02*
X60626247Y-96121792D01*
X60626247Y-96121792D02*
X60816723Y-96169411D01*
X60816723Y-96169411D02*
X60911961Y-96217030D01*
X60911961Y-96217030D02*
X61007200Y-96312268D01*
X61007200Y-96312268D02*
X61054819Y-96455125D01*
X61054819Y-96455125D02*
X61054819Y-96693220D01*
X61054819Y-95169411D02*
X61054819Y-95740839D01*
X61054819Y-95455125D02*
X60054819Y-95455125D01*
X60054819Y-95455125D02*
X60197676Y-95550363D01*
X60197676Y-95550363D02*
X60292914Y-95645601D01*
X60292914Y-95645601D02*
X60340533Y-95740839D01*
X60483390Y-94597982D02*
X60435771Y-94693220D01*
X60435771Y-94693220D02*
X60388152Y-94740839D01*
X60388152Y-94740839D02*
X60292914Y-94788458D01*
X60292914Y-94788458D02*
X60245295Y-94788458D01*
X60245295Y-94788458D02*
X60150057Y-94740839D01*
X60150057Y-94740839D02*
X60102438Y-94693220D01*
X60102438Y-94693220D02*
X60054819Y-94597982D01*
X60054819Y-94597982D02*
X60054819Y-94407506D01*
X60054819Y-94407506D02*
X60102438Y-94312268D01*
X60102438Y-94312268D02*
X60150057Y-94264649D01*
X60150057Y-94264649D02*
X60245295Y-94217030D01*
X60245295Y-94217030D02*
X60292914Y-94217030D01*
X60292914Y-94217030D02*
X60388152Y-94264649D01*
X60388152Y-94264649D02*
X60435771Y-94312268D01*
X60435771Y-94312268D02*
X60483390Y-94407506D01*
X60483390Y-94407506D02*
X60483390Y-94597982D01*
X60483390Y-94597982D02*
X60531009Y-94693220D01*
X60531009Y-94693220D02*
X60578628Y-94740839D01*
X60578628Y-94740839D02*
X60673866Y-94788458D01*
X60673866Y-94788458D02*
X60864342Y-94788458D01*
X60864342Y-94788458D02*
X60959580Y-94740839D01*
X60959580Y-94740839D02*
X61007200Y-94693220D01*
X61007200Y-94693220D02*
X61054819Y-94597982D01*
X61054819Y-94597982D02*
X61054819Y-94407506D01*
X61054819Y-94407506D02*
X61007200Y-94312268D01*
X61007200Y-94312268D02*
X60959580Y-94264649D01*
X60959580Y-94264649D02*
X60864342Y-94217030D01*
X60864342Y-94217030D02*
X60673866Y-94217030D01*
X60673866Y-94217030D02*
X60578628Y-94264649D01*
X60578628Y-94264649D02*
X60531009Y-94312268D01*
X60531009Y-94312268D02*
X60483390Y-94407506D01*
X122999104Y-87215839D02*
X122999104Y-86739649D01*
X123284819Y-87311077D02*
X122284819Y-86977744D01*
X122284819Y-86977744D02*
X123284819Y-86644411D01*
X122284819Y-85834887D02*
X122284819Y-86311077D01*
X122284819Y-86311077D02*
X122761009Y-86358696D01*
X122761009Y-86358696D02*
X122713390Y-86311077D01*
X122713390Y-86311077D02*
X122665771Y-86215839D01*
X122665771Y-86215839D02*
X122665771Y-85977744D01*
X122665771Y-85977744D02*
X122713390Y-85882506D01*
X122713390Y-85882506D02*
X122761009Y-85834887D01*
X122761009Y-85834887D02*
X122856247Y-85787268D01*
X122856247Y-85787268D02*
X123094342Y-85787268D01*
X123094342Y-85787268D02*
X123189580Y-85834887D01*
X123189580Y-85834887D02*
X123237200Y-85882506D01*
X123237200Y-85882506D02*
X123284819Y-85977744D01*
X123284819Y-85977744D02*
X123284819Y-86215839D01*
X123284819Y-86215839D02*
X123237200Y-86311077D01*
X123237200Y-86311077D02*
X123189580Y-86358696D01*
X150939104Y-87215839D02*
X150939104Y-86739649D01*
X151224819Y-87311077D02*
X150224819Y-86977744D01*
X150224819Y-86977744D02*
X151224819Y-86644411D01*
X151224819Y-85787268D02*
X151224819Y-86358696D01*
X151224819Y-86072982D02*
X150224819Y-86072982D01*
X150224819Y-86072982D02*
X150367676Y-86168220D01*
X150367676Y-86168220D02*
X150462914Y-86263458D01*
X150462914Y-86263458D02*
X150510533Y-86358696D01*
X150558152Y-84930125D02*
X151224819Y-84930125D01*
X150177200Y-85168220D02*
X150891485Y-85406315D01*
X150891485Y-85406315D02*
X150891485Y-84787268D01*
X137572438Y-96169411D02*
X137524819Y-96264649D01*
X137524819Y-96264649D02*
X137524819Y-96407506D01*
X137524819Y-96407506D02*
X137572438Y-96550363D01*
X137572438Y-96550363D02*
X137667676Y-96645601D01*
X137667676Y-96645601D02*
X137762914Y-96693220D01*
X137762914Y-96693220D02*
X137953390Y-96740839D01*
X137953390Y-96740839D02*
X138096247Y-96740839D01*
X138096247Y-96740839D02*
X138286723Y-96693220D01*
X138286723Y-96693220D02*
X138381961Y-96645601D01*
X138381961Y-96645601D02*
X138477200Y-96550363D01*
X138477200Y-96550363D02*
X138524819Y-96407506D01*
X138524819Y-96407506D02*
X138524819Y-96312268D01*
X138524819Y-96312268D02*
X138477200Y-96169411D01*
X138477200Y-96169411D02*
X138429580Y-96121792D01*
X138429580Y-96121792D02*
X138096247Y-96121792D01*
X138096247Y-96121792D02*
X138096247Y-96312268D01*
X138524819Y-95693220D02*
X137524819Y-95693220D01*
X137524819Y-95693220D02*
X138524819Y-95121792D01*
X138524819Y-95121792D02*
X137524819Y-95121792D01*
X138524819Y-94645601D02*
X137524819Y-94645601D01*
X137524819Y-94645601D02*
X137524819Y-94407506D01*
X137524819Y-94407506D02*
X137572438Y-94264649D01*
X137572438Y-94264649D02*
X137667676Y-94169411D01*
X137667676Y-94169411D02*
X137762914Y-94121792D01*
X137762914Y-94121792D02*
X137953390Y-94074173D01*
X137953390Y-94074173D02*
X138096247Y-94074173D01*
X138096247Y-94074173D02*
X138286723Y-94121792D01*
X138286723Y-94121792D02*
X138381961Y-94169411D01*
X138381961Y-94169411D02*
X138477200Y-94264649D01*
X138477200Y-94264649D02*
X138524819Y-94407506D01*
X138524819Y-94407506D02*
X138524819Y-94645601D01*
X66134819Y-96693220D02*
X65134819Y-96693220D01*
X65134819Y-96693220D02*
X65134819Y-96455125D01*
X65134819Y-96455125D02*
X65182438Y-96312268D01*
X65182438Y-96312268D02*
X65277676Y-96217030D01*
X65277676Y-96217030D02*
X65372914Y-96169411D01*
X65372914Y-96169411D02*
X65563390Y-96121792D01*
X65563390Y-96121792D02*
X65706247Y-96121792D01*
X65706247Y-96121792D02*
X65896723Y-96169411D01*
X65896723Y-96169411D02*
X65991961Y-96217030D01*
X65991961Y-96217030D02*
X66087200Y-96312268D01*
X66087200Y-96312268D02*
X66134819Y-96455125D01*
X66134819Y-96455125D02*
X66134819Y-96693220D01*
X65230057Y-95740839D02*
X65182438Y-95693220D01*
X65182438Y-95693220D02*
X65134819Y-95597982D01*
X65134819Y-95597982D02*
X65134819Y-95359887D01*
X65134819Y-95359887D02*
X65182438Y-95264649D01*
X65182438Y-95264649D02*
X65230057Y-95217030D01*
X65230057Y-95217030D02*
X65325295Y-95169411D01*
X65325295Y-95169411D02*
X65420533Y-95169411D01*
X65420533Y-95169411D02*
X65563390Y-95217030D01*
X65563390Y-95217030D02*
X66134819Y-95788458D01*
X66134819Y-95788458D02*
X66134819Y-95169411D01*
X65134819Y-94550363D02*
X65134819Y-94455125D01*
X65134819Y-94455125D02*
X65182438Y-94359887D01*
X65182438Y-94359887D02*
X65230057Y-94312268D01*
X65230057Y-94312268D02*
X65325295Y-94264649D01*
X65325295Y-94264649D02*
X65515771Y-94217030D01*
X65515771Y-94217030D02*
X65753866Y-94217030D01*
X65753866Y-94217030D02*
X65944342Y-94264649D01*
X65944342Y-94264649D02*
X66039580Y-94312268D01*
X66039580Y-94312268D02*
X66087200Y-94359887D01*
X66087200Y-94359887D02*
X66134819Y-94455125D01*
X66134819Y-94455125D02*
X66134819Y-94550363D01*
X66134819Y-94550363D02*
X66087200Y-94645601D01*
X66087200Y-94645601D02*
X66039580Y-94693220D01*
X66039580Y-94693220D02*
X65944342Y-94740839D01*
X65944342Y-94740839D02*
X65753866Y-94788458D01*
X65753866Y-94788458D02*
X65515771Y-94788458D01*
X65515771Y-94788458D02*
X65325295Y-94740839D01*
X65325295Y-94740839D02*
X65230057Y-94693220D01*
X65230057Y-94693220D02*
X65182438Y-94645601D01*
X65182438Y-94645601D02*
X65134819Y-94550363D01*
X91534819Y-87168220D02*
X90534819Y-87168220D01*
X90534819Y-87168220D02*
X90534819Y-86930125D01*
X90534819Y-86930125D02*
X90582438Y-86787268D01*
X90582438Y-86787268D02*
X90677676Y-86692030D01*
X90677676Y-86692030D02*
X90772914Y-86644411D01*
X90772914Y-86644411D02*
X90963390Y-86596792D01*
X90963390Y-86596792D02*
X91106247Y-86596792D01*
X91106247Y-86596792D02*
X91296723Y-86644411D01*
X91296723Y-86644411D02*
X91391961Y-86692030D01*
X91391961Y-86692030D02*
X91487200Y-86787268D01*
X91487200Y-86787268D02*
X91534819Y-86930125D01*
X91534819Y-86930125D02*
X91534819Y-87168220D01*
X91534819Y-85644411D02*
X91534819Y-86215839D01*
X91534819Y-85930125D02*
X90534819Y-85930125D01*
X90534819Y-85930125D02*
X90677676Y-86025363D01*
X90677676Y-86025363D02*
X90772914Y-86120601D01*
X90772914Y-86120601D02*
X90820533Y-86215839D01*
X90630057Y-85263458D02*
X90582438Y-85215839D01*
X90582438Y-85215839D02*
X90534819Y-85120601D01*
X90534819Y-85120601D02*
X90534819Y-84882506D01*
X90534819Y-84882506D02*
X90582438Y-84787268D01*
X90582438Y-84787268D02*
X90630057Y-84739649D01*
X90630057Y-84739649D02*
X90725295Y-84692030D01*
X90725295Y-84692030D02*
X90820533Y-84692030D01*
X90820533Y-84692030D02*
X90963390Y-84739649D01*
X90963390Y-84739649D02*
X91534819Y-85311077D01*
X91534819Y-85311077D02*
X91534819Y-84692030D01*
X143081009Y-96359887D02*
X143128628Y-96217030D01*
X143128628Y-96217030D02*
X143176247Y-96169411D01*
X143176247Y-96169411D02*
X143271485Y-96121792D01*
X143271485Y-96121792D02*
X143414342Y-96121792D01*
X143414342Y-96121792D02*
X143509580Y-96169411D01*
X143509580Y-96169411D02*
X143557200Y-96217030D01*
X143557200Y-96217030D02*
X143604819Y-96312268D01*
X143604819Y-96312268D02*
X143604819Y-96693220D01*
X143604819Y-96693220D02*
X142604819Y-96693220D01*
X142604819Y-96693220D02*
X142604819Y-96359887D01*
X142604819Y-96359887D02*
X142652438Y-96264649D01*
X142652438Y-96264649D02*
X142700057Y-96217030D01*
X142700057Y-96217030D02*
X142795295Y-96169411D01*
X142795295Y-96169411D02*
X142890533Y-96169411D01*
X142890533Y-96169411D02*
X142985771Y-96217030D01*
X142985771Y-96217030D02*
X143033390Y-96264649D01*
X143033390Y-96264649D02*
X143081009Y-96359887D01*
X143081009Y-96359887D02*
X143081009Y-96693220D01*
X143557200Y-95740839D02*
X143604819Y-95597982D01*
X143604819Y-95597982D02*
X143604819Y-95359887D01*
X143604819Y-95359887D02*
X143557200Y-95264649D01*
X143557200Y-95264649D02*
X143509580Y-95217030D01*
X143509580Y-95217030D02*
X143414342Y-95169411D01*
X143414342Y-95169411D02*
X143319104Y-95169411D01*
X143319104Y-95169411D02*
X143223866Y-95217030D01*
X143223866Y-95217030D02*
X143176247Y-95264649D01*
X143176247Y-95264649D02*
X143128628Y-95359887D01*
X143128628Y-95359887D02*
X143081009Y-95550363D01*
X143081009Y-95550363D02*
X143033390Y-95645601D01*
X143033390Y-95645601D02*
X142985771Y-95693220D01*
X142985771Y-95693220D02*
X142890533Y-95740839D01*
X142890533Y-95740839D02*
X142795295Y-95740839D01*
X142795295Y-95740839D02*
X142700057Y-95693220D01*
X142700057Y-95693220D02*
X142652438Y-95645601D01*
X142652438Y-95645601D02*
X142604819Y-95550363D01*
X142604819Y-95550363D02*
X142604819Y-95312268D01*
X142604819Y-95312268D02*
X142652438Y-95169411D01*
X143604819Y-94217030D02*
X143604819Y-94788458D01*
X143604819Y-94502744D02*
X142604819Y-94502744D01*
X142604819Y-94502744D02*
X142747676Y-94597982D01*
X142747676Y-94597982D02*
X142842914Y-94693220D01*
X142842914Y-94693220D02*
X142890533Y-94788458D01*
X142327200Y-96831316D02*
X142327200Y-94126554D01*
X125539104Y-96740839D02*
X125539104Y-96264649D01*
X125824819Y-96836077D02*
X124824819Y-96502744D01*
X124824819Y-96502744D02*
X125824819Y-96169411D01*
X124920057Y-95883696D02*
X124872438Y-95836077D01*
X124872438Y-95836077D02*
X124824819Y-95740839D01*
X124824819Y-95740839D02*
X124824819Y-95502744D01*
X124824819Y-95502744D02*
X124872438Y-95407506D01*
X124872438Y-95407506D02*
X124920057Y-95359887D01*
X124920057Y-95359887D02*
X125015295Y-95312268D01*
X125015295Y-95312268D02*
X125110533Y-95312268D01*
X125110533Y-95312268D02*
X125253390Y-95359887D01*
X125253390Y-95359887D02*
X125824819Y-95931315D01*
X125824819Y-95931315D02*
X125824819Y-95312268D01*
X124920057Y-94931315D02*
X124872438Y-94883696D01*
X124872438Y-94883696D02*
X124824819Y-94788458D01*
X124824819Y-94788458D02*
X124824819Y-94550363D01*
X124824819Y-94550363D02*
X124872438Y-94455125D01*
X124872438Y-94455125D02*
X124920057Y-94407506D01*
X124920057Y-94407506D02*
X125015295Y-94359887D01*
X125015295Y-94359887D02*
X125110533Y-94359887D01*
X125110533Y-94359887D02*
X125253390Y-94407506D01*
X125253390Y-94407506D02*
X125824819Y-94978934D01*
X125824819Y-94978934D02*
X125824819Y-94359887D01*
X63594819Y-87308220D02*
X62594819Y-87308220D01*
X62594819Y-87308220D02*
X62594819Y-87070125D01*
X62594819Y-87070125D02*
X62642438Y-86927268D01*
X62642438Y-86927268D02*
X62737676Y-86832030D01*
X62737676Y-86832030D02*
X62832914Y-86784411D01*
X62832914Y-86784411D02*
X63023390Y-86736792D01*
X63023390Y-86736792D02*
X63166247Y-86736792D01*
X63166247Y-86736792D02*
X63356723Y-86784411D01*
X63356723Y-86784411D02*
X63451961Y-86832030D01*
X63451961Y-86832030D02*
X63547200Y-86927268D01*
X63547200Y-86927268D02*
X63594819Y-87070125D01*
X63594819Y-87070125D02*
X63594819Y-87308220D01*
X62594819Y-86403458D02*
X62594819Y-85784411D01*
X62594819Y-85784411D02*
X62975771Y-86117744D01*
X62975771Y-86117744D02*
X62975771Y-85974887D01*
X62975771Y-85974887D02*
X63023390Y-85879649D01*
X63023390Y-85879649D02*
X63071009Y-85832030D01*
X63071009Y-85832030D02*
X63166247Y-85784411D01*
X63166247Y-85784411D02*
X63404342Y-85784411D01*
X63404342Y-85784411D02*
X63499580Y-85832030D01*
X63499580Y-85832030D02*
X63547200Y-85879649D01*
X63547200Y-85879649D02*
X63594819Y-85974887D01*
X63594819Y-85974887D02*
X63594819Y-86260601D01*
X63594819Y-86260601D02*
X63547200Y-86355839D01*
X63547200Y-86355839D02*
X63499580Y-86403458D01*
X52609819Y-91018333D02*
X53324104Y-91018333D01*
X53324104Y-91018333D02*
X53466961Y-91065952D01*
X53466961Y-91065952D02*
X53562200Y-91161190D01*
X53562200Y-91161190D02*
X53609819Y-91304047D01*
X53609819Y-91304047D02*
X53609819Y-91399285D01*
X52705057Y-90589761D02*
X52657438Y-90542142D01*
X52657438Y-90542142D02*
X52609819Y-90446904D01*
X52609819Y-90446904D02*
X52609819Y-90208809D01*
X52609819Y-90208809D02*
X52657438Y-90113571D01*
X52657438Y-90113571D02*
X52705057Y-90065952D01*
X52705057Y-90065952D02*
X52800295Y-90018333D01*
X52800295Y-90018333D02*
X52895533Y-90018333D01*
X52895533Y-90018333D02*
X53038390Y-90065952D01*
X53038390Y-90065952D02*
X53609819Y-90637380D01*
X53609819Y-90637380D02*
X53609819Y-90018333D01*
X78009819Y-91018333D02*
X78724104Y-91018333D01*
X78724104Y-91018333D02*
X78866961Y-91065952D01*
X78866961Y-91065952D02*
X78962200Y-91161190D01*
X78962200Y-91161190D02*
X79009819Y-91304047D01*
X79009819Y-91304047D02*
X79009819Y-91399285D01*
X78009819Y-90637380D02*
X78009819Y-90018333D01*
X78009819Y-90018333D02*
X78390771Y-90351666D01*
X78390771Y-90351666D02*
X78390771Y-90208809D01*
X78390771Y-90208809D02*
X78438390Y-90113571D01*
X78438390Y-90113571D02*
X78486009Y-90065952D01*
X78486009Y-90065952D02*
X78581247Y-90018333D01*
X78581247Y-90018333D02*
X78819342Y-90018333D01*
X78819342Y-90018333D02*
X78914580Y-90065952D01*
X78914580Y-90065952D02*
X78962200Y-90113571D01*
X78962200Y-90113571D02*
X79009819Y-90208809D01*
X79009819Y-90208809D02*
X79009819Y-90494523D01*
X79009819Y-90494523D02*
X78962200Y-90589761D01*
X78962200Y-90589761D02*
X78914580Y-90637380D01*
X132604819Y-91018333D02*
X133319104Y-91018333D01*
X133319104Y-91018333D02*
X133461961Y-91065952D01*
X133461961Y-91065952D02*
X133557200Y-91161190D01*
X133557200Y-91161190D02*
X133604819Y-91304047D01*
X133604819Y-91304047D02*
X133604819Y-91399285D01*
X132604819Y-90065952D02*
X132604819Y-90542142D01*
X132604819Y-90542142D02*
X133081009Y-90589761D01*
X133081009Y-90589761D02*
X133033390Y-90542142D01*
X133033390Y-90542142D02*
X132985771Y-90446904D01*
X132985771Y-90446904D02*
X132985771Y-90208809D01*
X132985771Y-90208809D02*
X133033390Y-90113571D01*
X133033390Y-90113571D02*
X133081009Y-90065952D01*
X133081009Y-90065952D02*
X133176247Y-90018333D01*
X133176247Y-90018333D02*
X133414342Y-90018333D01*
X133414342Y-90018333D02*
X133509580Y-90065952D01*
X133509580Y-90065952D02*
X133557200Y-90113571D01*
X133557200Y-90113571D02*
X133604819Y-90208809D01*
X133604819Y-90208809D02*
X133604819Y-90446904D01*
X133604819Y-90446904D02*
X133557200Y-90542142D01*
X133557200Y-90542142D02*
X133509580Y-90589761D01*
X107204819Y-91018333D02*
X107919104Y-91018333D01*
X107919104Y-91018333D02*
X108061961Y-91065952D01*
X108061961Y-91065952D02*
X108157200Y-91161190D01*
X108157200Y-91161190D02*
X108204819Y-91304047D01*
X108204819Y-91304047D02*
X108204819Y-91399285D01*
X107538152Y-90113571D02*
X108204819Y-90113571D01*
X107157200Y-90351666D02*
X107871485Y-90589761D01*
X107871485Y-90589761D02*
X107871485Y-89970714D01*
D11*
X54155000Y-93285000D02*
X54155000Y-91955000D01*
X55485000Y-93285000D02*
X54155000Y-93285000D01*
X56755000Y-93285000D02*
X74595000Y-93285000D01*
X56755000Y-93285000D02*
X56755000Y-90685000D01*
X74595000Y-93285000D02*
X74595000Y-88085000D01*
X54155000Y-90685000D02*
X54155000Y-88085000D01*
X56755000Y-90685000D02*
X54155000Y-90685000D01*
X54155000Y-88085000D02*
X74595000Y-88085000D01*
X79555000Y-93285000D02*
X79555000Y-91955000D01*
X80885000Y-93285000D02*
X79555000Y-93285000D01*
X82155000Y-93285000D02*
X99995000Y-93285000D01*
X82155000Y-93285000D02*
X82155000Y-90685000D01*
X99995000Y-93285000D02*
X99995000Y-88085000D01*
X79555000Y-90685000D02*
X79555000Y-88085000D01*
X82155000Y-90685000D02*
X79555000Y-90685000D01*
X79555000Y-88085000D02*
X99995000Y-88085000D01*
X134150000Y-93285000D02*
X134150000Y-91955000D01*
X135480000Y-93285000D02*
X134150000Y-93285000D01*
X136750000Y-93285000D02*
X154590000Y-93285000D01*
X136750000Y-93285000D02*
X136750000Y-90685000D01*
X154590000Y-93285000D02*
X154590000Y-88085000D01*
X134150000Y-90685000D02*
X134150000Y-88085000D01*
X136750000Y-90685000D02*
X134150000Y-90685000D01*
X134150000Y-88085000D02*
X154590000Y-88085000D01*
X108750000Y-93285000D02*
X108750000Y-91955000D01*
X110080000Y-93285000D02*
X108750000Y-93285000D01*
X111350000Y-93285000D02*
X129190000Y-93285000D01*
X111350000Y-93285000D02*
X111350000Y-90685000D01*
X129190000Y-93285000D02*
X129190000Y-88085000D01*
X108750000Y-90685000D02*
X108750000Y-88085000D01*
X111350000Y-90685000D02*
X108750000Y-90685000D01*
X108750000Y-88085000D02*
X129190000Y-88085000D01*
%LPC*%
D12*
X57375000Y-113921000D03*
X58645000Y-113921000D03*
X59915000Y-113921000D03*
X61185000Y-113921000D03*
X62455000Y-113921000D03*
X63725000Y-113921000D03*
X64995000Y-113921000D03*
X66265000Y-113921000D03*
X67535000Y-113921000D03*
X68805000Y-113921000D03*
X70075000Y-113921000D03*
X71345000Y-113921000D03*
X72615000Y-113921000D03*
X73885000Y-113921000D03*
X75155000Y-113921000D03*
X76425000Y-113921000D03*
X77695000Y-113921000D03*
X78965000Y-113921000D03*
X80235000Y-113921000D03*
X81505000Y-113921000D03*
X82775000Y-113921000D03*
X84045000Y-113921000D03*
X85315000Y-113921000D03*
X86585000Y-113921000D03*
X87855000Y-113921000D03*
X89125000Y-113921000D03*
X90395000Y-113921000D03*
X91665000Y-113921000D03*
X92935000Y-113921000D03*
X94205000Y-113921000D03*
X95475000Y-113921000D03*
X96745000Y-113921000D03*
X98015000Y-113921000D03*
X99285000Y-113921000D03*
X100555000Y-113921000D03*
X101825000Y-113921000D03*
X108175000Y-113921000D03*
X109445000Y-113921000D03*
X110715000Y-113921000D03*
X111985000Y-113921000D03*
X113255000Y-113921000D03*
X114525000Y-113921000D03*
X115795000Y-113921000D03*
X117065000Y-113921000D03*
X118335000Y-113921000D03*
X119605000Y-113921000D03*
X120875000Y-113921000D03*
X122145000Y-113921000D03*
X123415000Y-113921000D03*
X124685000Y-113921000D03*
X125955000Y-113921000D03*
X127225000Y-113921000D03*
X128495000Y-113921000D03*
X129765000Y-113921000D03*
X131035000Y-113921000D03*
X132305000Y-113921000D03*
X133575000Y-113921000D03*
X134845000Y-113921000D03*
X136115000Y-113921000D03*
X137385000Y-113921000D03*
X138655000Y-113921000D03*
X139925000Y-113921000D03*
X141195000Y-113921000D03*
X142465000Y-113921000D03*
X143735000Y-113921000D03*
X145005000Y-113921000D03*
X146275000Y-113921000D03*
X147545000Y-113921000D03*
X148815000Y-113921000D03*
X150085000Y-113921000D03*
X151355000Y-113921000D03*
X152625000Y-113921000D03*
D13*
X55485000Y-91955000D03*
D14*
X55485000Y-89415000D03*
X58025000Y-91955000D03*
X58025000Y-89415000D03*
X60565000Y-91955000D03*
X60565000Y-89415000D03*
X63105000Y-91955000D03*
X63105000Y-89415000D03*
X65645000Y-91955000D03*
X65645000Y-89415000D03*
X68185000Y-91955000D03*
X68185000Y-89415000D03*
X70725000Y-91955000D03*
X70725000Y-89415000D03*
X73265000Y-91955000D03*
X73265000Y-89415000D03*
D13*
X80885000Y-91955000D03*
D14*
X80885000Y-89415000D03*
X83425000Y-91955000D03*
X83425000Y-89415000D03*
X85965000Y-91955000D03*
X85965000Y-89415000D03*
X88505000Y-91955000D03*
X88505000Y-89415000D03*
X91045000Y-91955000D03*
X91045000Y-89415000D03*
X93585000Y-91955000D03*
X93585000Y-89415000D03*
X96125000Y-91955000D03*
X96125000Y-89415000D03*
X98665000Y-91955000D03*
X98665000Y-89415000D03*
D13*
X135480000Y-91955000D03*
D14*
X135480000Y-89415000D03*
X138020000Y-91955000D03*
X138020000Y-89415000D03*
X140560000Y-91955000D03*
X140560000Y-89415000D03*
X143100000Y-91955000D03*
X143100000Y-89415000D03*
X145640000Y-91955000D03*
X145640000Y-89415000D03*
X148180000Y-91955000D03*
X148180000Y-89415000D03*
X150720000Y-91955000D03*
X150720000Y-89415000D03*
X153260000Y-91955000D03*
X153260000Y-89415000D03*
D13*
X110080000Y-91955000D03*
D14*
X110080000Y-89415000D03*
X112620000Y-91955000D03*
X112620000Y-89415000D03*
X115160000Y-91955000D03*
X115160000Y-89415000D03*
X117700000Y-91955000D03*
X117700000Y-89415000D03*
X120240000Y-91955000D03*
X120240000Y-89415000D03*
X122780000Y-91955000D03*
X122780000Y-89415000D03*
X125320000Y-91955000D03*
X125320000Y-89415000D03*
X127860000Y-91955000D03*
X127860000Y-89415000D03*
G36*
X102530039Y-112391285D02*
G01*
X102575794Y-112444089D01*
X102587000Y-112495600D01*
X102587000Y-115321000D01*
X102567315Y-115388039D01*
X102514511Y-115433794D01*
X102463000Y-115445000D01*
X56737000Y-115445000D01*
X56669961Y-115425315D01*
X56624206Y-115372511D01*
X56613000Y-115321000D01*
X56613000Y-112495600D01*
X56632685Y-112428561D01*
X56685489Y-112382806D01*
X56737000Y-112371600D01*
X102463000Y-112371600D01*
X102530039Y-112391285D01*
G37*
G36*
X153330039Y-112391285D02*
G01*
X153375794Y-112444089D01*
X153387000Y-112495600D01*
X153387000Y-115321000D01*
X153367315Y-115388039D01*
X153314511Y-115433794D01*
X153263000Y-115445000D01*
X107537000Y-115445000D01*
X107469961Y-115425315D01*
X107424206Y-115372511D01*
X107413000Y-115321000D01*
X107413000Y-112495600D01*
X107432685Y-112428561D01*
X107485489Y-112382806D01*
X107537000Y-112371600D01*
X153263000Y-112371600D01*
X153330039Y-112391285D01*
G37*
%LPD*%
M02*
