G04 #@! TF.GenerationSoftware,KiCad,Pcbnew,7.0.9*
G04 #@! TF.CreationDate,2024-01-22T22:48:28+01:00*
G04 #@! TF.ProjectId,simm72,73696d6d-3732-42e6-9b69-6361645f7063,A*
G04 #@! TF.SameCoordinates,Original*
G04 #@! TF.FileFunction,Legend,Top*
G04 #@! TF.FilePolarity,Positive*
%FSLAX46Y46*%
G04 Gerber Fmt 4.6, Leading zero omitted, Abs format (unit mm)*
G04 Created by KiCad (PCBNEW 7.0.9) date 2024-01-22 22:48:28*
%MOMM*%
%LPD*%
G01*
G04 APERTURE LIST*
G04 Aperture macros list*
%AMRoundRect*
0 Rectangle with rounded corners*
0 $1 Rounding radius*
0 $2 $3 $4 $5 $6 $7 $8 $9 X,Y pos of 4 corners*
0 Add a 4 corners polygon primitive as box body*
4,1,4,$2,$3,$4,$5,$6,$7,$8,$9,$2,$3,0*
0 Add four circle primitives for the rounded corners*
1,1,$1+$1,$2,$3*
1,1,$1+$1,$4,$5*
1,1,$1+$1,$6,$7*
1,1,$1+$1,$8,$9*
0 Add four rect primitives between the rounded corners*
20,1,$1+$1,$2,$3,$4,$5,0*
20,1,$1+$1,$4,$5,$6,$7,0*
20,1,$1+$1,$6,$7,$8,$9,0*
20,1,$1+$1,$8,$9,$2,$3,0*%
G04 Aperture macros list end*
%ADD10C,0.150000*%
%ADD11C,0.300000*%
%ADD12C,0.200000*%
%ADD13C,0.120000*%
%ADD14R,1.040000X2.540000*%
%ADD15R,1.300000X0.300000*%
%ADD16RoundRect,0.250000X-0.650000X0.412500X-0.650000X-0.412500X0.650000X-0.412500X0.650000X0.412500X0*%
%ADD17R,0.850000X0.300000*%
%ADD18RoundRect,0.250000X0.412500X0.650000X-0.412500X0.650000X-0.412500X-0.650000X0.412500X-0.650000X0*%
G04 APERTURE END LIST*
D10*
G36*
X154526154Y-85406495D02*
G01*
X154232330Y-85518358D01*
X154526154Y-85630710D01*
X154526154Y-86274534D01*
X154022037Y-86442573D01*
X154022037Y-85770417D01*
X153857173Y-85714729D01*
X153857173Y-86498749D01*
X153353789Y-86694632D01*
X153353789Y-84958554D01*
X153857173Y-84958554D01*
X153857173Y-85322475D01*
X154022037Y-85266300D01*
X154022037Y-84958554D01*
X153857173Y-84958554D01*
X153353789Y-84958554D01*
X153353789Y-84650319D01*
X154526154Y-84650319D01*
X154526154Y-85406495D01*
G37*
G36*
X155868513Y-86276000D02*
G01*
X154696147Y-86276000D01*
X154696147Y-84958554D01*
X155199532Y-84958554D01*
X155199532Y-85967765D01*
X155364396Y-85967765D01*
X155364396Y-84958554D01*
X155199532Y-84958554D01*
X154696147Y-84958554D01*
X154696147Y-84650319D01*
X155868513Y-84650319D01*
X155868513Y-86276000D01*
G37*
G36*
X156038506Y-86274534D02*
G01*
X156038506Y-84650319D01*
X157879120Y-84650319D01*
X157879120Y-86274534D01*
X157375003Y-86274534D01*
X157375003Y-84958554D01*
X157210872Y-84958554D01*
X157210872Y-86274534D01*
X156706755Y-86274534D01*
X156706755Y-84958554D01*
X156541891Y-84958554D01*
X156541891Y-86274534D01*
X156038506Y-86274534D01*
G37*
D11*
X85283082Y-92684400D02*
X85497368Y-92755828D01*
X85497368Y-92755828D02*
X85854510Y-92755828D01*
X85854510Y-92755828D02*
X85997368Y-92684400D01*
X85997368Y-92684400D02*
X86068796Y-92612971D01*
X86068796Y-92612971D02*
X86140225Y-92470114D01*
X86140225Y-92470114D02*
X86140225Y-92327257D01*
X86140225Y-92327257D02*
X86068796Y-92184400D01*
X86068796Y-92184400D02*
X85997368Y-92112971D01*
X85997368Y-92112971D02*
X85854510Y-92041542D01*
X85854510Y-92041542D02*
X85568796Y-91970114D01*
X85568796Y-91970114D02*
X85425939Y-91898685D01*
X85425939Y-91898685D02*
X85354510Y-91827257D01*
X85354510Y-91827257D02*
X85283082Y-91684400D01*
X85283082Y-91684400D02*
X85283082Y-91541542D01*
X85283082Y-91541542D02*
X85354510Y-91398685D01*
X85354510Y-91398685D02*
X85425939Y-91327257D01*
X85425939Y-91327257D02*
X85568796Y-91255828D01*
X85568796Y-91255828D02*
X85925939Y-91255828D01*
X85925939Y-91255828D02*
X86140225Y-91327257D01*
X86711653Y-92684400D02*
X86925939Y-92755828D01*
X86925939Y-92755828D02*
X87283081Y-92755828D01*
X87283081Y-92755828D02*
X87425939Y-92684400D01*
X87425939Y-92684400D02*
X87497367Y-92612971D01*
X87497367Y-92612971D02*
X87568796Y-92470114D01*
X87568796Y-92470114D02*
X87568796Y-92327257D01*
X87568796Y-92327257D02*
X87497367Y-92184400D01*
X87497367Y-92184400D02*
X87425939Y-92112971D01*
X87425939Y-92112971D02*
X87283081Y-92041542D01*
X87283081Y-92041542D02*
X86997367Y-91970114D01*
X86997367Y-91970114D02*
X86854510Y-91898685D01*
X86854510Y-91898685D02*
X86783081Y-91827257D01*
X86783081Y-91827257D02*
X86711653Y-91684400D01*
X86711653Y-91684400D02*
X86711653Y-91541542D01*
X86711653Y-91541542D02*
X86783081Y-91398685D01*
X86783081Y-91398685D02*
X86854510Y-91327257D01*
X86854510Y-91327257D02*
X86997367Y-91255828D01*
X86997367Y-91255828D02*
X87354510Y-91255828D01*
X87354510Y-91255828D02*
X87568796Y-91327257D01*
X87997367Y-91255828D02*
X88854510Y-91255828D01*
X88425938Y-92755828D02*
X88425938Y-91255828D01*
X89211652Y-91255828D02*
X90140224Y-91255828D01*
X90140224Y-91255828D02*
X89640224Y-91827257D01*
X89640224Y-91827257D02*
X89854509Y-91827257D01*
X89854509Y-91827257D02*
X89997367Y-91898685D01*
X89997367Y-91898685D02*
X90068795Y-91970114D01*
X90068795Y-91970114D02*
X90140224Y-92112971D01*
X90140224Y-92112971D02*
X90140224Y-92470114D01*
X90140224Y-92470114D02*
X90068795Y-92612971D01*
X90068795Y-92612971D02*
X89997367Y-92684400D01*
X89997367Y-92684400D02*
X89854509Y-92755828D01*
X89854509Y-92755828D02*
X89425938Y-92755828D01*
X89425938Y-92755828D02*
X89283081Y-92684400D01*
X89283081Y-92684400D02*
X89211652Y-92612971D01*
X90854509Y-92755828D02*
X91140223Y-92755828D01*
X91140223Y-92755828D02*
X91283080Y-92684400D01*
X91283080Y-92684400D02*
X91354509Y-92612971D01*
X91354509Y-92612971D02*
X91497366Y-92398685D01*
X91497366Y-92398685D02*
X91568795Y-92112971D01*
X91568795Y-92112971D02*
X91568795Y-91541542D01*
X91568795Y-91541542D02*
X91497366Y-91398685D01*
X91497366Y-91398685D02*
X91425938Y-91327257D01*
X91425938Y-91327257D02*
X91283080Y-91255828D01*
X91283080Y-91255828D02*
X90997366Y-91255828D01*
X90997366Y-91255828D02*
X90854509Y-91327257D01*
X90854509Y-91327257D02*
X90783080Y-91398685D01*
X90783080Y-91398685D02*
X90711652Y-91541542D01*
X90711652Y-91541542D02*
X90711652Y-91898685D01*
X90711652Y-91898685D02*
X90783080Y-92041542D01*
X90783080Y-92041542D02*
X90854509Y-92112971D01*
X90854509Y-92112971D02*
X90997366Y-92184400D01*
X90997366Y-92184400D02*
X91283080Y-92184400D01*
X91283080Y-92184400D02*
X91425938Y-92112971D01*
X91425938Y-92112971D02*
X91497366Y-92041542D01*
X91497366Y-92041542D02*
X91568795Y-91898685D01*
X86068796Y-95170828D02*
X85354510Y-95170828D01*
X85354510Y-95170828D02*
X85354510Y-93670828D01*
X87640225Y-93599400D02*
X86354511Y-95527971D01*
X87925940Y-93670828D02*
X88425940Y-95170828D01*
X88425940Y-95170828D02*
X88925940Y-93670828D01*
X91068796Y-94385114D02*
X90568796Y-94385114D01*
X90568796Y-95170828D02*
X90568796Y-93670828D01*
X90568796Y-93670828D02*
X91283082Y-93670828D01*
X85997368Y-96585828D02*
X85997368Y-97585828D01*
X85640225Y-96014400D02*
X85283082Y-97085828D01*
X85283082Y-97085828D02*
X86211653Y-97085828D01*
X86783081Y-97014400D02*
X87925939Y-97014400D01*
X88497367Y-96085828D02*
X89425939Y-96085828D01*
X89425939Y-96085828D02*
X88925939Y-96657257D01*
X88925939Y-96657257D02*
X89140224Y-96657257D01*
X89140224Y-96657257D02*
X89283082Y-96728685D01*
X89283082Y-96728685D02*
X89354510Y-96800114D01*
X89354510Y-96800114D02*
X89425939Y-96942971D01*
X89425939Y-96942971D02*
X89425939Y-97300114D01*
X89425939Y-97300114D02*
X89354510Y-97442971D01*
X89354510Y-97442971D02*
X89283082Y-97514400D01*
X89283082Y-97514400D02*
X89140224Y-97585828D01*
X89140224Y-97585828D02*
X88711653Y-97585828D01*
X88711653Y-97585828D02*
X88568796Y-97514400D01*
X88568796Y-97514400D02*
X88497367Y-97442971D01*
X89997367Y-96228685D02*
X90068795Y-96157257D01*
X90068795Y-96157257D02*
X90211653Y-96085828D01*
X90211653Y-96085828D02*
X90568795Y-96085828D01*
X90568795Y-96085828D02*
X90711653Y-96157257D01*
X90711653Y-96157257D02*
X90783081Y-96228685D01*
X90783081Y-96228685D02*
X90854510Y-96371542D01*
X90854510Y-96371542D02*
X90854510Y-96514400D01*
X90854510Y-96514400D02*
X90783081Y-96728685D01*
X90783081Y-96728685D02*
X89925938Y-97585828D01*
X89925938Y-97585828D02*
X90854510Y-97585828D01*
X85640225Y-98500828D02*
X85783082Y-98500828D01*
X85783082Y-98500828D02*
X85925939Y-98572257D01*
X85925939Y-98572257D02*
X85997368Y-98643685D01*
X85997368Y-98643685D02*
X86068796Y-98786542D01*
X86068796Y-98786542D02*
X86140225Y-99072257D01*
X86140225Y-99072257D02*
X86140225Y-99429400D01*
X86140225Y-99429400D02*
X86068796Y-99715114D01*
X86068796Y-99715114D02*
X85997368Y-99857971D01*
X85997368Y-99857971D02*
X85925939Y-99929400D01*
X85925939Y-99929400D02*
X85783082Y-100000828D01*
X85783082Y-100000828D02*
X85640225Y-100000828D01*
X85640225Y-100000828D02*
X85497368Y-99929400D01*
X85497368Y-99929400D02*
X85425939Y-99857971D01*
X85425939Y-99857971D02*
X85354510Y-99715114D01*
X85354510Y-99715114D02*
X85283082Y-99429400D01*
X85283082Y-99429400D02*
X85283082Y-99072257D01*
X85283082Y-99072257D02*
X85354510Y-98786542D01*
X85354510Y-98786542D02*
X85425939Y-98643685D01*
X85425939Y-98643685D02*
X85497368Y-98572257D01*
X85497368Y-98572257D02*
X85640225Y-98500828D01*
X87568796Y-100000828D02*
X86711653Y-100000828D01*
X87140224Y-100000828D02*
X87140224Y-98500828D01*
X87140224Y-98500828D02*
X86997367Y-98715114D01*
X86997367Y-98715114D02*
X86854510Y-98857971D01*
X86854510Y-98857971D02*
X86711653Y-98929400D01*
D10*
G36*
X53053154Y-85406495D02*
G01*
X52759330Y-85518358D01*
X53053154Y-85630710D01*
X53053154Y-86274534D01*
X52549037Y-86442573D01*
X52549037Y-85770417D01*
X52384173Y-85714729D01*
X52384173Y-86498749D01*
X51880789Y-86694632D01*
X51880789Y-84958554D01*
X52384173Y-84958554D01*
X52384173Y-85322475D01*
X52549037Y-85266300D01*
X52549037Y-84958554D01*
X52384173Y-84958554D01*
X51880789Y-84958554D01*
X51880789Y-84650319D01*
X53053154Y-84650319D01*
X53053154Y-85406495D01*
G37*
G36*
X53223147Y-85266788D02*
G01*
X53726532Y-85070905D01*
X53726532Y-85967765D01*
X53891396Y-85967765D01*
X53891396Y-84958554D01*
X53219484Y-84958554D01*
X53219484Y-84650319D01*
X54395513Y-84650319D01*
X54395513Y-86276000D01*
X53223147Y-86276000D01*
X53223147Y-85266788D01*
G37*
G36*
X54565506Y-84651785D02*
G01*
X55068891Y-84651785D01*
X55068891Y-86023941D01*
X55233755Y-85967765D01*
X55233755Y-84651785D01*
X55737872Y-84651785D01*
X55737872Y-86135804D01*
X54565506Y-86555902D01*
X54565506Y-84651785D01*
G37*
G36*
X57080230Y-85659531D02*
G01*
X56576113Y-85883745D01*
X56576113Y-84958554D01*
X56411249Y-84958554D01*
X56411249Y-85967765D01*
X57083894Y-85967765D01*
X57083894Y-86276000D01*
X55907865Y-86276000D01*
X55907865Y-84650319D01*
X57080230Y-84650319D01*
X57080230Y-85659531D01*
G37*
G36*
X58422589Y-86274534D02*
G01*
X57918472Y-86274534D01*
X57918472Y-84958554D01*
X57753608Y-84958554D01*
X57753608Y-86274534D01*
X57250224Y-86274534D01*
X57250224Y-84650319D01*
X58422589Y-84650319D01*
X58422589Y-86274534D01*
G37*
D11*
X123983082Y-92484400D02*
X124197368Y-92555828D01*
X124197368Y-92555828D02*
X124554510Y-92555828D01*
X124554510Y-92555828D02*
X124697368Y-92484400D01*
X124697368Y-92484400D02*
X124768796Y-92412971D01*
X124768796Y-92412971D02*
X124840225Y-92270114D01*
X124840225Y-92270114D02*
X124840225Y-92127257D01*
X124840225Y-92127257D02*
X124768796Y-91984400D01*
X124768796Y-91984400D02*
X124697368Y-91912971D01*
X124697368Y-91912971D02*
X124554510Y-91841542D01*
X124554510Y-91841542D02*
X124268796Y-91770114D01*
X124268796Y-91770114D02*
X124125939Y-91698685D01*
X124125939Y-91698685D02*
X124054510Y-91627257D01*
X124054510Y-91627257D02*
X123983082Y-91484400D01*
X123983082Y-91484400D02*
X123983082Y-91341542D01*
X123983082Y-91341542D02*
X124054510Y-91198685D01*
X124054510Y-91198685D02*
X124125939Y-91127257D01*
X124125939Y-91127257D02*
X124268796Y-91055828D01*
X124268796Y-91055828D02*
X124625939Y-91055828D01*
X124625939Y-91055828D02*
X124840225Y-91127257D01*
X125411653Y-92484400D02*
X125625939Y-92555828D01*
X125625939Y-92555828D02*
X125983081Y-92555828D01*
X125983081Y-92555828D02*
X126125939Y-92484400D01*
X126125939Y-92484400D02*
X126197367Y-92412971D01*
X126197367Y-92412971D02*
X126268796Y-92270114D01*
X126268796Y-92270114D02*
X126268796Y-92127257D01*
X126268796Y-92127257D02*
X126197367Y-91984400D01*
X126197367Y-91984400D02*
X126125939Y-91912971D01*
X126125939Y-91912971D02*
X125983081Y-91841542D01*
X125983081Y-91841542D02*
X125697367Y-91770114D01*
X125697367Y-91770114D02*
X125554510Y-91698685D01*
X125554510Y-91698685D02*
X125483081Y-91627257D01*
X125483081Y-91627257D02*
X125411653Y-91484400D01*
X125411653Y-91484400D02*
X125411653Y-91341542D01*
X125411653Y-91341542D02*
X125483081Y-91198685D01*
X125483081Y-91198685D02*
X125554510Y-91127257D01*
X125554510Y-91127257D02*
X125697367Y-91055828D01*
X125697367Y-91055828D02*
X126054510Y-91055828D01*
X126054510Y-91055828D02*
X126268796Y-91127257D01*
X126697367Y-91055828D02*
X127554510Y-91055828D01*
X127125938Y-92555828D02*
X127125938Y-91055828D01*
X127911652Y-91055828D02*
X128840224Y-91055828D01*
X128840224Y-91055828D02*
X128340224Y-91627257D01*
X128340224Y-91627257D02*
X128554509Y-91627257D01*
X128554509Y-91627257D02*
X128697367Y-91698685D01*
X128697367Y-91698685D02*
X128768795Y-91770114D01*
X128768795Y-91770114D02*
X128840224Y-91912971D01*
X128840224Y-91912971D02*
X128840224Y-92270114D01*
X128840224Y-92270114D02*
X128768795Y-92412971D01*
X128768795Y-92412971D02*
X128697367Y-92484400D01*
X128697367Y-92484400D02*
X128554509Y-92555828D01*
X128554509Y-92555828D02*
X128125938Y-92555828D01*
X128125938Y-92555828D02*
X127983081Y-92484400D01*
X127983081Y-92484400D02*
X127911652Y-92412971D01*
X129554509Y-92555828D02*
X129840223Y-92555828D01*
X129840223Y-92555828D02*
X129983080Y-92484400D01*
X129983080Y-92484400D02*
X130054509Y-92412971D01*
X130054509Y-92412971D02*
X130197366Y-92198685D01*
X130197366Y-92198685D02*
X130268795Y-91912971D01*
X130268795Y-91912971D02*
X130268795Y-91341542D01*
X130268795Y-91341542D02*
X130197366Y-91198685D01*
X130197366Y-91198685D02*
X130125938Y-91127257D01*
X130125938Y-91127257D02*
X129983080Y-91055828D01*
X129983080Y-91055828D02*
X129697366Y-91055828D01*
X129697366Y-91055828D02*
X129554509Y-91127257D01*
X129554509Y-91127257D02*
X129483080Y-91198685D01*
X129483080Y-91198685D02*
X129411652Y-91341542D01*
X129411652Y-91341542D02*
X129411652Y-91698685D01*
X129411652Y-91698685D02*
X129483080Y-91841542D01*
X129483080Y-91841542D02*
X129554509Y-91912971D01*
X129554509Y-91912971D02*
X129697366Y-91984400D01*
X129697366Y-91984400D02*
X129983080Y-91984400D01*
X129983080Y-91984400D02*
X130125938Y-91912971D01*
X130125938Y-91912971D02*
X130197366Y-91841542D01*
X130197366Y-91841542D02*
X130268795Y-91698685D01*
X124768796Y-94970828D02*
X124054510Y-94970828D01*
X124054510Y-94970828D02*
X124054510Y-93470828D01*
X126340225Y-93399400D02*
X125054511Y-95327971D01*
X126625940Y-93470828D02*
X127125940Y-94970828D01*
X127125940Y-94970828D02*
X127625940Y-93470828D01*
X129768796Y-94185114D02*
X129268796Y-94185114D01*
X129268796Y-94970828D02*
X129268796Y-93470828D01*
X129268796Y-93470828D02*
X129983082Y-93470828D01*
X124697368Y-96385828D02*
X124697368Y-97385828D01*
X124340225Y-95814400D02*
X123983082Y-96885828D01*
X123983082Y-96885828D02*
X124911653Y-96885828D01*
X125483081Y-96814400D02*
X126625939Y-96814400D01*
X127197367Y-95885828D02*
X128125939Y-95885828D01*
X128125939Y-95885828D02*
X127625939Y-96457257D01*
X127625939Y-96457257D02*
X127840224Y-96457257D01*
X127840224Y-96457257D02*
X127983082Y-96528685D01*
X127983082Y-96528685D02*
X128054510Y-96600114D01*
X128054510Y-96600114D02*
X128125939Y-96742971D01*
X128125939Y-96742971D02*
X128125939Y-97100114D01*
X128125939Y-97100114D02*
X128054510Y-97242971D01*
X128054510Y-97242971D02*
X127983082Y-97314400D01*
X127983082Y-97314400D02*
X127840224Y-97385828D01*
X127840224Y-97385828D02*
X127411653Y-97385828D01*
X127411653Y-97385828D02*
X127268796Y-97314400D01*
X127268796Y-97314400D02*
X127197367Y-97242971D01*
X128697367Y-96028685D02*
X128768795Y-95957257D01*
X128768795Y-95957257D02*
X128911653Y-95885828D01*
X128911653Y-95885828D02*
X129268795Y-95885828D01*
X129268795Y-95885828D02*
X129411653Y-95957257D01*
X129411653Y-95957257D02*
X129483081Y-96028685D01*
X129483081Y-96028685D02*
X129554510Y-96171542D01*
X129554510Y-96171542D02*
X129554510Y-96314400D01*
X129554510Y-96314400D02*
X129483081Y-96528685D01*
X129483081Y-96528685D02*
X128625938Y-97385828D01*
X128625938Y-97385828D02*
X129554510Y-97385828D01*
X124340225Y-98300828D02*
X124483082Y-98300828D01*
X124483082Y-98300828D02*
X124625939Y-98372257D01*
X124625939Y-98372257D02*
X124697368Y-98443685D01*
X124697368Y-98443685D02*
X124768796Y-98586542D01*
X124768796Y-98586542D02*
X124840225Y-98872257D01*
X124840225Y-98872257D02*
X124840225Y-99229400D01*
X124840225Y-99229400D02*
X124768796Y-99515114D01*
X124768796Y-99515114D02*
X124697368Y-99657971D01*
X124697368Y-99657971D02*
X124625939Y-99729400D01*
X124625939Y-99729400D02*
X124483082Y-99800828D01*
X124483082Y-99800828D02*
X124340225Y-99800828D01*
X124340225Y-99800828D02*
X124197368Y-99729400D01*
X124197368Y-99729400D02*
X124125939Y-99657971D01*
X124125939Y-99657971D02*
X124054510Y-99515114D01*
X124054510Y-99515114D02*
X123983082Y-99229400D01*
X123983082Y-99229400D02*
X123983082Y-98872257D01*
X123983082Y-98872257D02*
X124054510Y-98586542D01*
X124054510Y-98586542D02*
X124125939Y-98443685D01*
X124125939Y-98443685D02*
X124197368Y-98372257D01*
X124197368Y-98372257D02*
X124340225Y-98300828D01*
X126268796Y-99800828D02*
X125411653Y-99800828D01*
X125840224Y-99800828D02*
X125840224Y-98300828D01*
X125840224Y-98300828D02*
X125697367Y-98515114D01*
X125697367Y-98515114D02*
X125554510Y-98657971D01*
X125554510Y-98657971D02*
X125411653Y-98729400D01*
D12*
X133280000Y-102010000D02*
X131980000Y-102010000D01*
X131630000Y-101760000D02*
X113930000Y-101760000D01*
X131630000Y-89760000D02*
X131630000Y-101760000D01*
X113930000Y-101760000D02*
X113930000Y-89760000D01*
X113930000Y-89760000D02*
X131630000Y-89760000D01*
D13*
X108196000Y-97207748D02*
X108196000Y-98630252D01*
X106376000Y-97207748D02*
X106376000Y-98630252D01*
D12*
X141354000Y-96542000D02*
X142204000Y-96542000D01*
X142554000Y-96792000D02*
X144154000Y-96792000D01*
X142554000Y-98792000D02*
X142554000Y-96792000D01*
X144154000Y-96792000D02*
X144154000Y-98792000D01*
X144154000Y-98792000D02*
X142554000Y-98792000D01*
D13*
X71366000Y-97715748D02*
X71366000Y-99138252D01*
X69546000Y-97715748D02*
X69546000Y-99138252D01*
X144065252Y-95654000D02*
X142642748Y-95654000D01*
X144065252Y-93834000D02*
X142642748Y-93834000D01*
D12*
X95180000Y-102010000D02*
X93880000Y-102010000D01*
X93530000Y-101760000D02*
X75830000Y-101760000D01*
X93530000Y-89760000D02*
X93530000Y-101760000D01*
X75830000Y-101760000D02*
X75830000Y-89760000D01*
X75830000Y-89760000D02*
X93530000Y-89760000D01*
%LPC*%
D14*
X57375000Y-113921000D03*
X58645000Y-113921000D03*
X59915000Y-113921000D03*
X61185000Y-113921000D03*
X62455000Y-113921000D03*
X63725000Y-113921000D03*
X64995000Y-113921000D03*
X66265000Y-113921000D03*
X67535000Y-113921000D03*
X68805000Y-113921000D03*
X70075000Y-113921000D03*
X71345000Y-113921000D03*
X72615000Y-113921000D03*
X73885000Y-113921000D03*
X75155000Y-113921000D03*
X76425000Y-113921000D03*
X77695000Y-113921000D03*
X78965000Y-113921000D03*
X80235000Y-113921000D03*
X81505000Y-113921000D03*
X82775000Y-113921000D03*
X84045000Y-113921000D03*
X85315000Y-113921000D03*
X86585000Y-113921000D03*
X87855000Y-113921000D03*
X89125000Y-113921000D03*
X90395000Y-113921000D03*
X91665000Y-113921000D03*
X92935000Y-113921000D03*
X94205000Y-113921000D03*
X95475000Y-113921000D03*
X96745000Y-113921000D03*
X98015000Y-113921000D03*
X99285000Y-113921000D03*
X100555000Y-113921000D03*
X101825000Y-113921000D03*
X108175000Y-113921000D03*
X109445000Y-113921000D03*
X110715000Y-113921000D03*
X111985000Y-113921000D03*
X113255000Y-113921000D03*
X114525000Y-113921000D03*
X115795000Y-113921000D03*
X117065000Y-113921000D03*
X118335000Y-113921000D03*
X119605000Y-113921000D03*
X120875000Y-113921000D03*
X122145000Y-113921000D03*
X123415000Y-113921000D03*
X124685000Y-113921000D03*
X125955000Y-113921000D03*
X127225000Y-113921000D03*
X128495000Y-113921000D03*
X129765000Y-113921000D03*
X131035000Y-113921000D03*
X132305000Y-113921000D03*
X133575000Y-113921000D03*
X134845000Y-113921000D03*
X136115000Y-113921000D03*
X137385000Y-113921000D03*
X138655000Y-113921000D03*
X139925000Y-113921000D03*
X141195000Y-113921000D03*
X142465000Y-113921000D03*
X143735000Y-113921000D03*
X145005000Y-113921000D03*
X146275000Y-113921000D03*
X147545000Y-113921000D03*
X148815000Y-113921000D03*
X150085000Y-113921000D03*
X151355000Y-113921000D03*
X152625000Y-113921000D03*
D15*
X132630000Y-101510000D03*
X132630000Y-101010000D03*
X132630000Y-100510000D03*
X132630000Y-100010000D03*
X132630000Y-99510000D03*
X132630000Y-99010000D03*
X132630000Y-98510000D03*
X132630000Y-98010000D03*
X132630000Y-97510000D03*
X132630000Y-97010000D03*
X132630000Y-96510000D03*
X132630000Y-96010000D03*
X132630000Y-95510000D03*
X132630000Y-95010000D03*
X132630000Y-94510000D03*
X132630000Y-94010000D03*
X132630000Y-93510000D03*
X132630000Y-93010000D03*
X132630000Y-92510000D03*
X132630000Y-92010000D03*
X132630000Y-91510000D03*
X132630000Y-91010000D03*
X132630000Y-90510000D03*
X132630000Y-90010000D03*
X112930000Y-90010000D03*
X112930000Y-90510000D03*
X112930000Y-91010000D03*
X112930000Y-91510000D03*
X112930000Y-92010000D03*
X112930000Y-92510000D03*
X112930000Y-93010000D03*
X112930000Y-93510000D03*
X112930000Y-94010000D03*
X112930000Y-94510000D03*
X112930000Y-95010000D03*
X112930000Y-95510000D03*
X112930000Y-96010000D03*
X112930000Y-96510000D03*
X112930000Y-97010000D03*
X112930000Y-97510000D03*
X112930000Y-98010000D03*
X112930000Y-98510000D03*
X112930000Y-99010000D03*
X112930000Y-99510000D03*
X112930000Y-100010000D03*
X112930000Y-100510000D03*
X112930000Y-101010000D03*
X112930000Y-101510000D03*
D16*
X107286000Y-96356500D03*
X107286000Y-99481500D03*
D17*
X141779000Y-97042000D03*
X141779000Y-97542000D03*
X141779000Y-98042000D03*
X141779000Y-98542000D03*
X144929000Y-98542000D03*
X144929000Y-98042000D03*
X144929000Y-97542000D03*
X144929000Y-97042000D03*
D16*
X70456000Y-96864500D03*
X70456000Y-99989500D03*
D18*
X144916500Y-94744000D03*
X141791500Y-94744000D03*
D15*
X94530000Y-101510000D03*
X94530000Y-101010000D03*
X94530000Y-100510000D03*
X94530000Y-100010000D03*
X94530000Y-99510000D03*
X94530000Y-99010000D03*
X94530000Y-98510000D03*
X94530000Y-98010000D03*
X94530000Y-97510000D03*
X94530000Y-97010000D03*
X94530000Y-96510000D03*
X94530000Y-96010000D03*
X94530000Y-95510000D03*
X94530000Y-95010000D03*
X94530000Y-94510000D03*
X94530000Y-94010000D03*
X94530000Y-93510000D03*
X94530000Y-93010000D03*
X94530000Y-92510000D03*
X94530000Y-92010000D03*
X94530000Y-91510000D03*
X94530000Y-91010000D03*
X94530000Y-90510000D03*
X94530000Y-90010000D03*
X74830000Y-90010000D03*
X74830000Y-90510000D03*
X74830000Y-91010000D03*
X74830000Y-91510000D03*
X74830000Y-92010000D03*
X74830000Y-92510000D03*
X74830000Y-93010000D03*
X74830000Y-93510000D03*
X74830000Y-94010000D03*
X74830000Y-94510000D03*
X74830000Y-95010000D03*
X74830000Y-95510000D03*
X74830000Y-96010000D03*
X74830000Y-96510000D03*
X74830000Y-97010000D03*
X74830000Y-97510000D03*
X74830000Y-98010000D03*
X74830000Y-98510000D03*
X74830000Y-99010000D03*
X74830000Y-99510000D03*
X74830000Y-100010000D03*
X74830000Y-100510000D03*
X74830000Y-101010000D03*
X74830000Y-101510000D03*
G36*
X102530039Y-112391285D02*
G01*
X102575794Y-112444089D01*
X102587000Y-112495600D01*
X102587000Y-115321000D01*
X102567315Y-115388039D01*
X102514511Y-115433794D01*
X102463000Y-115445000D01*
X56737000Y-115445000D01*
X56669961Y-115425315D01*
X56624206Y-115372511D01*
X56613000Y-115321000D01*
X56613000Y-112495600D01*
X56632685Y-112428561D01*
X56685489Y-112382806D01*
X56737000Y-112371600D01*
X102463000Y-112371600D01*
X102530039Y-112391285D01*
G37*
G36*
X153330039Y-112391285D02*
G01*
X153375794Y-112444089D01*
X153387000Y-112495600D01*
X153387000Y-115321000D01*
X153367315Y-115388039D01*
X153314511Y-115433794D01*
X153263000Y-115445000D01*
X107537000Y-115445000D01*
X107469961Y-115425315D01*
X107424206Y-115372511D01*
X107413000Y-115321000D01*
X107413000Y-112495600D01*
X107432685Y-112428561D01*
X107485489Y-112382806D01*
X107537000Y-112371600D01*
X153263000Y-112371600D01*
X153330039Y-112391285D01*
G37*
%LPD*%
M02*
