G04 #@! TF.GenerationSoftware,KiCad,Pcbnew,7.0.9*
G04 #@! TF.CreationDate,2024-01-22T22:48:28+01:00*
G04 #@! TF.ProjectId,simm72,73696d6d-3732-42e6-9b69-6361645f7063,A*
G04 #@! TF.SameCoordinates,Original*
G04 #@! TF.FileFunction,Copper,L3,Inr*
G04 #@! TF.FilePolarity,Positive*
%FSLAX46Y46*%
G04 Gerber Fmt 4.6, Leading zero omitted, Abs format (unit mm)*
G04 Created by KiCad (PCBNEW 7.0.9) date 2024-01-22 22:48:28*
%MOMM*%
%LPD*%
G01*
G04 APERTURE LIST*
G04 #@! TA.AperFunction,ViaPad*
%ADD10C,0.800000*%
G04 #@! TD*
G04 APERTURE END LIST*
D10*
X58645000Y-112854200D03*
X86378816Y-89362184D03*
X76679000Y-90045000D03*
X105635000Y-89381900D03*
X110778134Y-90362134D03*
X59915000Y-112854200D03*
X61185000Y-112854200D03*
X62455000Y-112854200D03*
X63725000Y-112854200D03*
X64995000Y-112854200D03*
X66265000Y-112854200D03*
X67535000Y-112854200D03*
X138655000Y-112854200D03*
X137385000Y-112854200D03*
X136115000Y-112854200D03*
X101952000Y-98681000D03*
X121764000Y-94109000D03*
X127860000Y-90813900D03*
X108175000Y-111127000D03*
X142973000Y-94744000D03*
X79593100Y-101094000D03*
X114779000Y-90800100D03*
X68805000Y-110873000D03*
X128495000Y-112854200D03*
X121135900Y-97919000D03*
X68805000Y-112854200D03*
X126209000Y-93340100D03*
X128495000Y-111127000D03*
X70456000Y-98935000D03*
X80235000Y-111381000D03*
X111350000Y-106675100D03*
X73885000Y-102999000D03*
X135988000Y-91061000D03*
X77822000Y-90045000D03*
X125447000Y-96903000D03*
X141779000Y-99316000D03*
X82775000Y-98808000D03*
X139925000Y-110873000D03*
X104492000Y-88775000D03*
X97507000Y-95887000D03*
X125193000Y-102872000D03*
X91665000Y-112854200D03*
X114652000Y-100509800D03*
X129257000Y-95379000D03*
X72568034Y-91903034D03*
X108175000Y-112854200D03*
X89506000Y-99570000D03*
X79593100Y-103126000D03*
X117319000Y-95004900D03*
X81124000Y-91695500D03*
X139925000Y-112854200D03*
X91665000Y-111254000D03*
X108683000Y-99570000D03*
X79860900Y-99570000D03*
X91284000Y-95506000D03*
X118208000Y-97284000D03*
X87601000Y-88775000D03*
X98142000Y-105285000D03*
X128241000Y-106047000D03*
X100809000Y-99824000D03*
X102841000Y-97665000D03*
X119605000Y-112854200D03*
X104619000Y-95379000D03*
X80235000Y-112854200D03*
X136750000Y-104904000D03*
X82965134Y-97220866D03*
X108873134Y-92267134D03*
X84425634Y-96776366D03*
X103857000Y-96522000D03*
X119605000Y-111254000D03*
X117827000Y-92839000D03*
X70075000Y-112854200D03*
X76298000Y-102618000D03*
X77441000Y-101094000D03*
X71345000Y-112854200D03*
X72615000Y-112854200D03*
X78203000Y-99824000D03*
X73885000Y-112854200D03*
X78965000Y-98681000D03*
X80108366Y-97918634D03*
X75155000Y-112854200D03*
X81187866Y-97220134D03*
X76425000Y-112854200D03*
X82140000Y-96395000D03*
X77695000Y-112854200D03*
X78965000Y-112854200D03*
X82774634Y-95125366D03*
X81505000Y-112854200D03*
X82775000Y-112854200D03*
X84045000Y-112854200D03*
X85315000Y-112854200D03*
X86585000Y-112854200D03*
X87855000Y-112854200D03*
X89125000Y-112854200D03*
X90395000Y-112854200D03*
X92935000Y-112854200D03*
X101577900Y-100586000D03*
X94205000Y-112854200D03*
X102593900Y-99443000D03*
X103603000Y-98381900D03*
X95475000Y-112854200D03*
X104625900Y-97381900D03*
X96745000Y-112854200D03*
X105508000Y-95887000D03*
X98015000Y-112854200D03*
X114906000Y-94991100D03*
X99285000Y-112854200D03*
X100555000Y-112854200D03*
X115541000Y-93734900D03*
X101825000Y-112854200D03*
X116684000Y-92839000D03*
X117446000Y-99951000D03*
X109445000Y-112854200D03*
X118208000Y-99062000D03*
X110715000Y-112854200D03*
X118970000Y-98300000D03*
X111985000Y-112854200D03*
X119732000Y-97538000D03*
X113255000Y-112854200D03*
X114525000Y-112854200D03*
X120494000Y-96776000D03*
X121256000Y-96014000D03*
X115795000Y-112854200D03*
X117065000Y-112854200D03*
X122018000Y-95252000D03*
X122780000Y-94490000D03*
X118335000Y-112854200D03*
X122145000Y-112854200D03*
X125955000Y-98554000D03*
X123415000Y-112854200D03*
X127352000Y-99189000D03*
X127225000Y-92712000D03*
X124685000Y-112854200D03*
X125955000Y-112854200D03*
X128114000Y-92070100D03*
X127225000Y-112854200D03*
X110715000Y-101431100D03*
X110207000Y-106047000D03*
X129765000Y-112854200D03*
X131035000Y-112854200D03*
X132305000Y-112854200D03*
X133575000Y-112854200D03*
X134845000Y-112854200D03*
X130400000Y-96014000D03*
X135226000Y-98046000D03*
X109699000Y-91569000D03*
X79473000Y-91381006D03*
X147545000Y-112854200D03*
X129384000Y-96903000D03*
X148815000Y-112854200D03*
X146275000Y-112854200D03*
X150085000Y-112854200D03*
X151355000Y-112854200D03*
X137385000Y-96649000D03*
X82623090Y-91720410D03*
X142465000Y-112854200D03*
X141195000Y-112854200D03*
X145005000Y-112854200D03*
X143735000Y-112854200D03*
X152625000Y-111508000D03*
X108683000Y-96395000D03*
X57375000Y-111381000D03*
X146275000Y-94744000D03*
X134972000Y-93982000D03*
X70456000Y-95633000D03*
X136432500Y-95315500D03*
X57375000Y-112854200D03*
X152625000Y-112854200D03*
X120875000Y-112854200D03*
G04 #@! TA.AperFunction,Conductor*
G36*
X158471032Y-83695630D02*
G01*
X158575697Y-83709410D01*
X158606954Y-83717784D01*
X158693170Y-83753496D01*
X158721200Y-83769680D01*
X158795229Y-83826484D01*
X158818115Y-83849370D01*
X158850799Y-83891965D01*
X158874919Y-83923399D01*
X158891103Y-83951430D01*
X158904224Y-83983107D01*
X158926812Y-84037638D01*
X158935189Y-84068905D01*
X158948968Y-84173562D01*
X158948969Y-84173565D01*
X158949500Y-84181667D01*
X158949500Y-84185885D01*
X158950300Y-102739928D01*
X158950300Y-114806518D01*
X158949910Y-114813465D01*
X158936583Y-114931742D01*
X158930405Y-114958813D01*
X158894557Y-115061261D01*
X158882508Y-115086280D01*
X158824757Y-115178189D01*
X158807445Y-115199897D01*
X158730697Y-115276645D01*
X158708989Y-115293957D01*
X158617080Y-115351708D01*
X158592062Y-115363756D01*
X158489746Y-115399558D01*
X158489613Y-115399605D01*
X158462543Y-115405783D01*
X158418775Y-115410714D01*
X158344256Y-115419110D01*
X158337319Y-115419500D01*
X107214081Y-115419500D01*
X107207143Y-115419110D01*
X107132624Y-115410714D01*
X107088857Y-115405783D01*
X107061788Y-115399605D01*
X106959333Y-115363754D01*
X106934319Y-115351708D01*
X106842410Y-115293957D01*
X106820702Y-115276645D01*
X106743954Y-115199897D01*
X106726642Y-115178189D01*
X106668891Y-115086280D01*
X106656846Y-115061270D01*
X106620992Y-114958804D01*
X106614816Y-114931745D01*
X106601489Y-114813458D01*
X106601100Y-114806518D01*
X106601100Y-112854201D01*
X108887329Y-112854201D01*
X108906330Y-112998534D01*
X108906332Y-112998539D01*
X108962040Y-113133031D01*
X108962040Y-113133032D01*
X108962042Y-113133035D01*
X108962043Y-113133036D01*
X109050667Y-113248533D01*
X109166164Y-113337157D01*
X109166167Y-113337158D01*
X109166168Y-113337159D01*
X109233414Y-113365013D01*
X109300664Y-113392869D01*
X109372832Y-113402370D01*
X109444999Y-113411871D01*
X109445000Y-113411871D01*
X109445001Y-113411871D01*
X109493112Y-113405537D01*
X109589336Y-113392869D01*
X109723831Y-113337159D01*
X109723832Y-113337159D01*
X109723832Y-113337158D01*
X109723836Y-113337157D01*
X109839333Y-113248533D01*
X109927957Y-113133036D01*
X109965439Y-113042547D01*
X110009280Y-112988143D01*
X110075574Y-112966078D01*
X110143273Y-112983357D01*
X110190884Y-113034494D01*
X110194561Y-113042547D01*
X110232040Y-113133031D01*
X110232040Y-113133032D01*
X110232042Y-113133035D01*
X110232043Y-113133036D01*
X110320667Y-113248533D01*
X110436164Y-113337157D01*
X110436167Y-113337158D01*
X110436168Y-113337159D01*
X110503414Y-113365013D01*
X110570664Y-113392869D01*
X110642832Y-113402370D01*
X110714999Y-113411871D01*
X110715000Y-113411871D01*
X110715001Y-113411871D01*
X110763112Y-113405537D01*
X110859336Y-113392869D01*
X110993831Y-113337159D01*
X110993832Y-113337159D01*
X110993832Y-113337158D01*
X110993836Y-113337157D01*
X111109333Y-113248533D01*
X111197957Y-113133036D01*
X111235439Y-113042547D01*
X111279280Y-112988143D01*
X111345574Y-112966078D01*
X111413273Y-112983357D01*
X111460884Y-113034494D01*
X111464561Y-113042547D01*
X111502040Y-113133031D01*
X111502040Y-113133032D01*
X111502042Y-113133035D01*
X111502043Y-113133036D01*
X111590667Y-113248533D01*
X111706164Y-113337157D01*
X111706167Y-113337158D01*
X111706168Y-113337159D01*
X111773414Y-113365013D01*
X111840664Y-113392869D01*
X111912832Y-113402370D01*
X111984999Y-113411871D01*
X111985000Y-113411871D01*
X111985001Y-113411871D01*
X112033112Y-113405537D01*
X112129336Y-113392869D01*
X112263831Y-113337159D01*
X112263832Y-113337159D01*
X112263832Y-113337158D01*
X112263836Y-113337157D01*
X112379333Y-113248533D01*
X112467957Y-113133036D01*
X112505439Y-113042547D01*
X112549280Y-112988143D01*
X112615574Y-112966078D01*
X112683273Y-112983357D01*
X112730884Y-113034494D01*
X112734561Y-113042547D01*
X112772040Y-113133031D01*
X112772040Y-113133032D01*
X112772042Y-113133035D01*
X112772043Y-113133036D01*
X112860667Y-113248533D01*
X112976164Y-113337157D01*
X112976167Y-113337158D01*
X112976168Y-113337159D01*
X113043414Y-113365013D01*
X113110664Y-113392869D01*
X113182832Y-113402370D01*
X113254999Y-113411871D01*
X113255000Y-113411871D01*
X113255001Y-113411871D01*
X113303112Y-113405537D01*
X113399336Y-113392869D01*
X113533831Y-113337159D01*
X113533832Y-113337159D01*
X113533832Y-113337158D01*
X113533836Y-113337157D01*
X113649333Y-113248533D01*
X113737957Y-113133036D01*
X113775439Y-113042547D01*
X113819280Y-112988143D01*
X113885574Y-112966078D01*
X113953273Y-112983357D01*
X114000884Y-113034494D01*
X114004561Y-113042547D01*
X114042040Y-113133031D01*
X114042040Y-113133032D01*
X114042042Y-113133035D01*
X114042043Y-113133036D01*
X114130667Y-113248533D01*
X114246164Y-113337157D01*
X114246167Y-113337158D01*
X114246168Y-113337159D01*
X114313414Y-113365013D01*
X114380664Y-113392869D01*
X114452832Y-113402370D01*
X114524999Y-113411871D01*
X114525000Y-113411871D01*
X114525001Y-113411871D01*
X114573112Y-113405537D01*
X114669336Y-113392869D01*
X114803831Y-113337159D01*
X114803832Y-113337159D01*
X114803832Y-113337158D01*
X114803836Y-113337157D01*
X114919333Y-113248533D01*
X115007957Y-113133036D01*
X115045439Y-113042547D01*
X115089280Y-112988143D01*
X115155574Y-112966078D01*
X115223273Y-112983357D01*
X115270884Y-113034494D01*
X115274561Y-113042547D01*
X115312040Y-113133031D01*
X115312040Y-113133032D01*
X115312042Y-113133035D01*
X115312043Y-113133036D01*
X115400667Y-113248533D01*
X115516164Y-113337157D01*
X115516167Y-113337158D01*
X115516168Y-113337159D01*
X115583414Y-113365013D01*
X115650664Y-113392869D01*
X115722832Y-113402370D01*
X115794999Y-113411871D01*
X115795000Y-113411871D01*
X115795001Y-113411871D01*
X115843112Y-113405537D01*
X115939336Y-113392869D01*
X116073831Y-113337159D01*
X116073832Y-113337159D01*
X116073832Y-113337158D01*
X116073836Y-113337157D01*
X116189333Y-113248533D01*
X116277957Y-113133036D01*
X116315439Y-113042547D01*
X116359280Y-112988143D01*
X116425574Y-112966078D01*
X116493273Y-112983357D01*
X116540884Y-113034494D01*
X116544561Y-113042547D01*
X116582040Y-113133031D01*
X116582040Y-113133032D01*
X116582042Y-113133035D01*
X116582043Y-113133036D01*
X116670667Y-113248533D01*
X116786164Y-113337157D01*
X116786167Y-113337158D01*
X116786168Y-113337159D01*
X116853414Y-113365013D01*
X116920664Y-113392869D01*
X116992832Y-113402370D01*
X117064999Y-113411871D01*
X117065000Y-113411871D01*
X117065001Y-113411871D01*
X117113112Y-113405537D01*
X117209336Y-113392869D01*
X117343831Y-113337159D01*
X117343832Y-113337159D01*
X117343832Y-113337158D01*
X117343836Y-113337157D01*
X117459333Y-113248533D01*
X117547957Y-113133036D01*
X117585439Y-113042547D01*
X117629280Y-112988143D01*
X117695574Y-112966078D01*
X117763273Y-112983357D01*
X117810884Y-113034494D01*
X117814561Y-113042547D01*
X117852040Y-113133031D01*
X117852040Y-113133032D01*
X117852042Y-113133035D01*
X117852043Y-113133036D01*
X117940667Y-113248533D01*
X118056164Y-113337157D01*
X118056167Y-113337158D01*
X118056168Y-113337159D01*
X118123414Y-113365013D01*
X118190664Y-113392869D01*
X118262832Y-113402370D01*
X118334999Y-113411871D01*
X118335000Y-113411871D01*
X118335001Y-113411871D01*
X118383112Y-113405537D01*
X118479336Y-113392869D01*
X118613831Y-113337159D01*
X118613832Y-113337159D01*
X118613832Y-113337158D01*
X118613836Y-113337157D01*
X118729333Y-113248533D01*
X118817957Y-113133036D01*
X118873669Y-112998536D01*
X118892671Y-112854201D01*
X120317329Y-112854201D01*
X120336330Y-112998534D01*
X120336332Y-112998539D01*
X120392040Y-113133031D01*
X120392040Y-113133032D01*
X120392042Y-113133035D01*
X120392043Y-113133036D01*
X120480667Y-113248533D01*
X120596164Y-113337157D01*
X120596167Y-113337158D01*
X120596168Y-113337159D01*
X120663414Y-113365013D01*
X120730664Y-113392869D01*
X120802832Y-113402370D01*
X120874999Y-113411871D01*
X120875000Y-113411871D01*
X120875001Y-113411871D01*
X120923112Y-113405537D01*
X121019336Y-113392869D01*
X121153831Y-113337159D01*
X121153832Y-113337159D01*
X121153832Y-113337158D01*
X121153836Y-113337157D01*
X121269333Y-113248533D01*
X121357957Y-113133036D01*
X121395439Y-113042547D01*
X121439280Y-112988143D01*
X121505574Y-112966078D01*
X121573273Y-112983357D01*
X121620884Y-113034494D01*
X121624561Y-113042547D01*
X121662040Y-113133031D01*
X121662040Y-113133032D01*
X121662042Y-113133035D01*
X121662043Y-113133036D01*
X121750667Y-113248533D01*
X121866164Y-113337157D01*
X121866167Y-113337158D01*
X121866168Y-113337159D01*
X121933414Y-113365013D01*
X122000664Y-113392869D01*
X122072832Y-113402370D01*
X122144999Y-113411871D01*
X122145000Y-113411871D01*
X122145001Y-113411871D01*
X122193112Y-113405537D01*
X122289336Y-113392869D01*
X122423831Y-113337159D01*
X122423832Y-113337159D01*
X122423832Y-113337158D01*
X122423836Y-113337157D01*
X122539333Y-113248533D01*
X122627957Y-113133036D01*
X122665439Y-113042547D01*
X122709280Y-112988143D01*
X122775574Y-112966078D01*
X122843273Y-112983357D01*
X122890884Y-113034494D01*
X122894561Y-113042547D01*
X122932040Y-113133031D01*
X122932040Y-113133032D01*
X122932042Y-113133035D01*
X122932043Y-113133036D01*
X123020667Y-113248533D01*
X123136164Y-113337157D01*
X123136167Y-113337158D01*
X123136168Y-113337159D01*
X123203414Y-113365013D01*
X123270664Y-113392869D01*
X123342832Y-113402370D01*
X123414999Y-113411871D01*
X123415000Y-113411871D01*
X123415001Y-113411871D01*
X123463112Y-113405537D01*
X123559336Y-113392869D01*
X123693831Y-113337159D01*
X123693832Y-113337159D01*
X123693832Y-113337158D01*
X123693836Y-113337157D01*
X123809333Y-113248533D01*
X123897957Y-113133036D01*
X123935439Y-113042547D01*
X123979280Y-112988143D01*
X124045574Y-112966078D01*
X124113273Y-112983357D01*
X124160884Y-113034494D01*
X124164561Y-113042547D01*
X124202040Y-113133031D01*
X124202040Y-113133032D01*
X124202042Y-113133035D01*
X124202043Y-113133036D01*
X124290667Y-113248533D01*
X124406164Y-113337157D01*
X124406167Y-113337158D01*
X124406168Y-113337159D01*
X124473414Y-113365013D01*
X124540664Y-113392869D01*
X124612832Y-113402370D01*
X124684999Y-113411871D01*
X124685000Y-113411871D01*
X124685001Y-113411871D01*
X124733112Y-113405537D01*
X124829336Y-113392869D01*
X124963831Y-113337159D01*
X124963832Y-113337159D01*
X124963832Y-113337158D01*
X124963836Y-113337157D01*
X125079333Y-113248533D01*
X125167957Y-113133036D01*
X125205439Y-113042547D01*
X125249280Y-112988143D01*
X125315574Y-112966078D01*
X125383273Y-112983357D01*
X125430884Y-113034494D01*
X125434561Y-113042547D01*
X125472040Y-113133031D01*
X125472040Y-113133032D01*
X125472042Y-113133035D01*
X125472043Y-113133036D01*
X125560667Y-113248533D01*
X125676164Y-113337157D01*
X125676167Y-113337158D01*
X125676168Y-113337159D01*
X125743414Y-113365013D01*
X125810664Y-113392869D01*
X125882832Y-113402370D01*
X125954999Y-113411871D01*
X125955000Y-113411871D01*
X125955001Y-113411871D01*
X126003112Y-113405537D01*
X126099336Y-113392869D01*
X126233831Y-113337159D01*
X126233832Y-113337159D01*
X126233832Y-113337158D01*
X126233836Y-113337157D01*
X126349333Y-113248533D01*
X126437957Y-113133036D01*
X126475439Y-113042547D01*
X126519280Y-112988143D01*
X126585574Y-112966078D01*
X126653273Y-112983357D01*
X126700884Y-113034494D01*
X126704561Y-113042547D01*
X126742040Y-113133031D01*
X126742040Y-113133032D01*
X126742042Y-113133035D01*
X126742043Y-113133036D01*
X126830667Y-113248533D01*
X126946164Y-113337157D01*
X126946167Y-113337158D01*
X126946168Y-113337159D01*
X127013414Y-113365013D01*
X127080664Y-113392869D01*
X127152832Y-113402370D01*
X127224999Y-113411871D01*
X127225000Y-113411871D01*
X127225001Y-113411871D01*
X127273112Y-113405537D01*
X127369336Y-113392869D01*
X127503831Y-113337159D01*
X127503832Y-113337159D01*
X127503832Y-113337158D01*
X127503836Y-113337157D01*
X127619333Y-113248533D01*
X127707957Y-113133036D01*
X127763669Y-112998536D01*
X127782671Y-112854201D01*
X129207329Y-112854201D01*
X129226330Y-112998534D01*
X129226332Y-112998539D01*
X129282040Y-113133031D01*
X129282040Y-113133032D01*
X129282042Y-113133035D01*
X129282043Y-113133036D01*
X129370667Y-113248533D01*
X129486164Y-113337157D01*
X129486167Y-113337158D01*
X129486168Y-113337159D01*
X129553414Y-113365013D01*
X129620664Y-113392869D01*
X129692832Y-113402370D01*
X129764999Y-113411871D01*
X129765000Y-113411871D01*
X129765001Y-113411871D01*
X129813112Y-113405537D01*
X129909336Y-113392869D01*
X130043831Y-113337159D01*
X130043832Y-113337159D01*
X130043832Y-113337158D01*
X130043836Y-113337157D01*
X130159333Y-113248533D01*
X130247957Y-113133036D01*
X130285439Y-113042547D01*
X130329280Y-112988143D01*
X130395574Y-112966078D01*
X130463273Y-112983357D01*
X130510884Y-113034494D01*
X130514561Y-113042547D01*
X130552040Y-113133031D01*
X130552040Y-113133032D01*
X130552042Y-113133035D01*
X130552043Y-113133036D01*
X130640667Y-113248533D01*
X130756164Y-113337157D01*
X130756167Y-113337158D01*
X130756168Y-113337159D01*
X130823414Y-113365013D01*
X130890664Y-113392869D01*
X130962832Y-113402370D01*
X131034999Y-113411871D01*
X131035000Y-113411871D01*
X131035001Y-113411871D01*
X131083112Y-113405537D01*
X131179336Y-113392869D01*
X131313831Y-113337159D01*
X131313832Y-113337159D01*
X131313832Y-113337158D01*
X131313836Y-113337157D01*
X131429333Y-113248533D01*
X131517957Y-113133036D01*
X131555439Y-113042547D01*
X131599280Y-112988143D01*
X131665574Y-112966078D01*
X131733273Y-112983357D01*
X131780884Y-113034494D01*
X131784561Y-113042547D01*
X131822040Y-113133031D01*
X131822040Y-113133032D01*
X131822042Y-113133035D01*
X131822043Y-113133036D01*
X131910667Y-113248533D01*
X132026164Y-113337157D01*
X132026167Y-113337158D01*
X132026168Y-113337159D01*
X132093414Y-113365013D01*
X132160664Y-113392869D01*
X132232832Y-113402370D01*
X132304999Y-113411871D01*
X132305000Y-113411871D01*
X132305001Y-113411871D01*
X132353112Y-113405537D01*
X132449336Y-113392869D01*
X132583831Y-113337159D01*
X132583832Y-113337159D01*
X132583832Y-113337158D01*
X132583836Y-113337157D01*
X132699333Y-113248533D01*
X132787957Y-113133036D01*
X132825439Y-113042547D01*
X132869280Y-112988143D01*
X132935574Y-112966078D01*
X133003273Y-112983357D01*
X133050884Y-113034494D01*
X133054561Y-113042547D01*
X133092040Y-113133031D01*
X133092040Y-113133032D01*
X133092042Y-113133035D01*
X133092043Y-113133036D01*
X133180667Y-113248533D01*
X133296164Y-113337157D01*
X133296167Y-113337158D01*
X133296168Y-113337159D01*
X133363414Y-113365013D01*
X133430664Y-113392869D01*
X133502832Y-113402370D01*
X133574999Y-113411871D01*
X133575000Y-113411871D01*
X133575001Y-113411871D01*
X133623112Y-113405537D01*
X133719336Y-113392869D01*
X133853831Y-113337159D01*
X133853832Y-113337159D01*
X133853832Y-113337158D01*
X133853836Y-113337157D01*
X133969333Y-113248533D01*
X134057957Y-113133036D01*
X134095439Y-113042547D01*
X134139280Y-112988143D01*
X134205574Y-112966078D01*
X134273273Y-112983357D01*
X134320884Y-113034494D01*
X134324561Y-113042547D01*
X134362040Y-113133031D01*
X134362040Y-113133032D01*
X134362042Y-113133035D01*
X134362043Y-113133036D01*
X134450667Y-113248533D01*
X134566164Y-113337157D01*
X134566167Y-113337158D01*
X134566168Y-113337159D01*
X134633414Y-113365013D01*
X134700664Y-113392869D01*
X134772832Y-113402370D01*
X134844999Y-113411871D01*
X134845000Y-113411871D01*
X134845001Y-113411871D01*
X134893112Y-113405537D01*
X134989336Y-113392869D01*
X135123831Y-113337159D01*
X135123832Y-113337159D01*
X135123832Y-113337158D01*
X135123836Y-113337157D01*
X135239333Y-113248533D01*
X135327957Y-113133036D01*
X135365439Y-113042547D01*
X135409280Y-112988143D01*
X135475574Y-112966078D01*
X135543273Y-112983357D01*
X135590884Y-113034494D01*
X135594561Y-113042547D01*
X135632040Y-113133031D01*
X135632040Y-113133032D01*
X135632042Y-113133035D01*
X135632043Y-113133036D01*
X135720667Y-113248533D01*
X135836164Y-113337157D01*
X135836167Y-113337158D01*
X135836168Y-113337159D01*
X135903414Y-113365013D01*
X135970664Y-113392869D01*
X136042832Y-113402370D01*
X136114999Y-113411871D01*
X136115000Y-113411871D01*
X136115001Y-113411871D01*
X136163112Y-113405537D01*
X136259336Y-113392869D01*
X136393831Y-113337159D01*
X136393832Y-113337159D01*
X136393832Y-113337158D01*
X136393836Y-113337157D01*
X136509333Y-113248533D01*
X136597957Y-113133036D01*
X136635439Y-113042547D01*
X136679280Y-112988143D01*
X136745574Y-112966078D01*
X136813273Y-112983357D01*
X136860884Y-113034494D01*
X136864561Y-113042547D01*
X136902040Y-113133031D01*
X136902040Y-113133032D01*
X136902042Y-113133035D01*
X136902043Y-113133036D01*
X136990667Y-113248533D01*
X137106164Y-113337157D01*
X137106167Y-113337158D01*
X137106168Y-113337159D01*
X137173414Y-113365013D01*
X137240664Y-113392869D01*
X137312832Y-113402370D01*
X137384999Y-113411871D01*
X137385000Y-113411871D01*
X137385001Y-113411871D01*
X137433112Y-113405537D01*
X137529336Y-113392869D01*
X137663831Y-113337159D01*
X137663832Y-113337159D01*
X137663832Y-113337158D01*
X137663836Y-113337157D01*
X137779333Y-113248533D01*
X137867957Y-113133036D01*
X137905439Y-113042547D01*
X137949280Y-112988143D01*
X138015574Y-112966078D01*
X138083273Y-112983357D01*
X138130884Y-113034494D01*
X138134561Y-113042547D01*
X138172040Y-113133031D01*
X138172040Y-113133032D01*
X138172042Y-113133035D01*
X138172043Y-113133036D01*
X138260667Y-113248533D01*
X138376164Y-113337157D01*
X138376167Y-113337158D01*
X138376168Y-113337159D01*
X138443414Y-113365013D01*
X138510664Y-113392869D01*
X138582832Y-113402370D01*
X138654999Y-113411871D01*
X138655000Y-113411871D01*
X138655001Y-113411871D01*
X138703112Y-113405537D01*
X138799336Y-113392869D01*
X138933831Y-113337159D01*
X138933832Y-113337159D01*
X138933832Y-113337158D01*
X138933836Y-113337157D01*
X139049333Y-113248533D01*
X139137957Y-113133036D01*
X139193669Y-112998536D01*
X139212671Y-112854201D01*
X140637329Y-112854201D01*
X140656330Y-112998534D01*
X140656332Y-112998539D01*
X140712040Y-113133031D01*
X140712040Y-113133032D01*
X140712042Y-113133035D01*
X140712043Y-113133036D01*
X140800667Y-113248533D01*
X140916164Y-113337157D01*
X140916167Y-113337158D01*
X140916168Y-113337159D01*
X140983414Y-113365013D01*
X141050664Y-113392869D01*
X141122832Y-113402370D01*
X141194999Y-113411871D01*
X141195000Y-113411871D01*
X141195001Y-113411871D01*
X141243112Y-113405537D01*
X141339336Y-113392869D01*
X141473831Y-113337159D01*
X141473832Y-113337159D01*
X141473832Y-113337158D01*
X141473836Y-113337157D01*
X141589333Y-113248533D01*
X141677957Y-113133036D01*
X141715439Y-113042547D01*
X141759280Y-112988143D01*
X141825574Y-112966078D01*
X141893273Y-112983357D01*
X141940884Y-113034494D01*
X141944561Y-113042547D01*
X141982040Y-113133031D01*
X141982040Y-113133032D01*
X141982042Y-113133035D01*
X141982043Y-113133036D01*
X142070667Y-113248533D01*
X142186164Y-113337157D01*
X142186167Y-113337158D01*
X142186168Y-113337159D01*
X142253414Y-113365013D01*
X142320664Y-113392869D01*
X142392832Y-113402370D01*
X142464999Y-113411871D01*
X142465000Y-113411871D01*
X142465001Y-113411871D01*
X142513112Y-113405537D01*
X142609336Y-113392869D01*
X142743831Y-113337159D01*
X142743832Y-113337159D01*
X142743832Y-113337158D01*
X142743836Y-113337157D01*
X142859333Y-113248533D01*
X142947957Y-113133036D01*
X142985439Y-113042547D01*
X143029280Y-112988143D01*
X143095574Y-112966078D01*
X143163273Y-112983357D01*
X143210884Y-113034494D01*
X143214561Y-113042547D01*
X143252040Y-113133031D01*
X143252040Y-113133032D01*
X143252042Y-113133035D01*
X143252043Y-113133036D01*
X143340667Y-113248533D01*
X143456164Y-113337157D01*
X143456167Y-113337158D01*
X143456168Y-113337159D01*
X143523414Y-113365013D01*
X143590664Y-113392869D01*
X143662832Y-113402370D01*
X143734999Y-113411871D01*
X143735000Y-113411871D01*
X143735001Y-113411871D01*
X143783112Y-113405537D01*
X143879336Y-113392869D01*
X144013831Y-113337159D01*
X144013832Y-113337159D01*
X144013832Y-113337158D01*
X144013836Y-113337157D01*
X144129333Y-113248533D01*
X144217957Y-113133036D01*
X144255439Y-113042547D01*
X144299280Y-112988143D01*
X144365574Y-112966078D01*
X144433273Y-112983357D01*
X144480884Y-113034494D01*
X144484561Y-113042547D01*
X144522040Y-113133031D01*
X144522040Y-113133032D01*
X144522042Y-113133035D01*
X144522043Y-113133036D01*
X144610667Y-113248533D01*
X144726164Y-113337157D01*
X144726167Y-113337158D01*
X144726168Y-113337159D01*
X144793414Y-113365013D01*
X144860664Y-113392869D01*
X144932832Y-113402370D01*
X145004999Y-113411871D01*
X145005000Y-113411871D01*
X145005001Y-113411871D01*
X145053112Y-113405537D01*
X145149336Y-113392869D01*
X145283831Y-113337159D01*
X145283832Y-113337159D01*
X145283832Y-113337158D01*
X145283836Y-113337157D01*
X145399333Y-113248533D01*
X145487957Y-113133036D01*
X145525439Y-113042547D01*
X145569280Y-112988143D01*
X145635574Y-112966078D01*
X145703273Y-112983357D01*
X145750884Y-113034494D01*
X145754561Y-113042547D01*
X145792040Y-113133031D01*
X145792040Y-113133032D01*
X145792042Y-113133035D01*
X145792043Y-113133036D01*
X145880667Y-113248533D01*
X145996164Y-113337157D01*
X145996167Y-113337158D01*
X145996168Y-113337159D01*
X146063414Y-113365013D01*
X146130664Y-113392869D01*
X146202832Y-113402370D01*
X146274999Y-113411871D01*
X146275000Y-113411871D01*
X146275001Y-113411871D01*
X146323112Y-113405537D01*
X146419336Y-113392869D01*
X146553831Y-113337159D01*
X146553832Y-113337159D01*
X146553832Y-113337158D01*
X146553836Y-113337157D01*
X146669333Y-113248533D01*
X146757957Y-113133036D01*
X146795439Y-113042547D01*
X146839280Y-112988143D01*
X146905574Y-112966078D01*
X146973273Y-112983357D01*
X147020884Y-113034494D01*
X147024561Y-113042547D01*
X147062040Y-113133031D01*
X147062040Y-113133032D01*
X147062042Y-113133035D01*
X147062043Y-113133036D01*
X147150667Y-113248533D01*
X147266164Y-113337157D01*
X147266167Y-113337158D01*
X147266168Y-113337159D01*
X147333414Y-113365013D01*
X147400664Y-113392869D01*
X147472832Y-113402370D01*
X147544999Y-113411871D01*
X147545000Y-113411871D01*
X147545001Y-113411871D01*
X147593112Y-113405537D01*
X147689336Y-113392869D01*
X147823831Y-113337159D01*
X147823832Y-113337159D01*
X147823832Y-113337158D01*
X147823836Y-113337157D01*
X147939333Y-113248533D01*
X148027957Y-113133036D01*
X148065439Y-113042547D01*
X148109280Y-112988143D01*
X148175574Y-112966078D01*
X148243273Y-112983357D01*
X148290884Y-113034494D01*
X148294561Y-113042547D01*
X148332040Y-113133031D01*
X148332040Y-113133032D01*
X148332042Y-113133035D01*
X148332043Y-113133036D01*
X148420667Y-113248533D01*
X148536164Y-113337157D01*
X148536167Y-113337158D01*
X148536168Y-113337159D01*
X148603414Y-113365013D01*
X148670664Y-113392869D01*
X148742832Y-113402370D01*
X148814999Y-113411871D01*
X148815000Y-113411871D01*
X148815001Y-113411871D01*
X148863112Y-113405537D01*
X148959336Y-113392869D01*
X149093831Y-113337159D01*
X149093832Y-113337159D01*
X149093832Y-113337158D01*
X149093836Y-113337157D01*
X149209333Y-113248533D01*
X149297957Y-113133036D01*
X149335439Y-113042547D01*
X149379280Y-112988143D01*
X149445574Y-112966078D01*
X149513273Y-112983357D01*
X149560884Y-113034494D01*
X149564561Y-113042547D01*
X149602040Y-113133031D01*
X149602040Y-113133032D01*
X149602042Y-113133035D01*
X149602043Y-113133036D01*
X149690667Y-113248533D01*
X149806164Y-113337157D01*
X149806167Y-113337158D01*
X149806168Y-113337159D01*
X149873414Y-113365013D01*
X149940664Y-113392869D01*
X150012832Y-113402370D01*
X150084999Y-113411871D01*
X150085000Y-113411871D01*
X150085001Y-113411871D01*
X150133112Y-113405537D01*
X150229336Y-113392869D01*
X150363831Y-113337159D01*
X150363832Y-113337159D01*
X150363832Y-113337158D01*
X150363836Y-113337157D01*
X150479333Y-113248533D01*
X150567957Y-113133036D01*
X150605439Y-113042547D01*
X150649280Y-112988143D01*
X150715574Y-112966078D01*
X150783273Y-112983357D01*
X150830884Y-113034494D01*
X150834561Y-113042547D01*
X150872040Y-113133031D01*
X150872040Y-113133032D01*
X150872042Y-113133035D01*
X150872043Y-113133036D01*
X150960667Y-113248533D01*
X151076164Y-113337157D01*
X151076167Y-113337158D01*
X151076168Y-113337159D01*
X151143414Y-113365013D01*
X151210664Y-113392869D01*
X151282832Y-113402370D01*
X151354999Y-113411871D01*
X151355000Y-113411871D01*
X151355001Y-113411871D01*
X151403112Y-113405537D01*
X151499336Y-113392869D01*
X151633831Y-113337159D01*
X151633832Y-113337159D01*
X151633832Y-113337158D01*
X151633836Y-113337157D01*
X151749333Y-113248533D01*
X151837957Y-113133036D01*
X151875439Y-113042547D01*
X151919280Y-112988143D01*
X151985574Y-112966078D01*
X152053273Y-112983357D01*
X152100884Y-113034494D01*
X152104561Y-113042547D01*
X152142040Y-113133031D01*
X152142040Y-113133032D01*
X152142042Y-113133035D01*
X152142043Y-113133036D01*
X152230667Y-113248533D01*
X152346164Y-113337157D01*
X152346167Y-113337158D01*
X152346168Y-113337159D01*
X152413414Y-113365013D01*
X152480664Y-113392869D01*
X152552832Y-113402370D01*
X152624999Y-113411871D01*
X152625000Y-113411871D01*
X152625001Y-113411871D01*
X152673112Y-113405537D01*
X152769336Y-113392869D01*
X152903831Y-113337159D01*
X152903832Y-113337159D01*
X152903832Y-113337158D01*
X152903836Y-113337157D01*
X153019333Y-113248533D01*
X153107957Y-113133036D01*
X153163669Y-112998536D01*
X153182671Y-112854200D01*
X153163669Y-112709864D01*
X153107957Y-112575365D01*
X153019333Y-112459867D01*
X152903836Y-112371243D01*
X152903833Y-112371242D01*
X152903831Y-112371240D01*
X152769339Y-112315532D01*
X152769334Y-112315530D01*
X152691730Y-112305314D01*
X152682043Y-112304038D01*
X152624249Y-112278472D01*
X152570876Y-112303619D01*
X152567955Y-112304039D01*
X152480665Y-112315530D01*
X152480663Y-112315531D01*
X152346165Y-112371242D01*
X152230667Y-112459867D01*
X152142042Y-112575365D01*
X152104561Y-112665853D01*
X152060720Y-112720256D01*
X151994426Y-112742321D01*
X151926726Y-112725042D01*
X151879116Y-112673904D01*
X151875439Y-112665853D01*
X151837957Y-112575365D01*
X151749334Y-112459868D01*
X151742826Y-112454874D01*
X151633836Y-112371243D01*
X151633833Y-112371242D01*
X151633831Y-112371240D01*
X151499339Y-112315532D01*
X151499334Y-112315530D01*
X151355001Y-112296529D01*
X151354999Y-112296529D01*
X151210665Y-112315530D01*
X151210663Y-112315531D01*
X151076165Y-112371242D01*
X150960667Y-112459867D01*
X150872042Y-112575365D01*
X150834561Y-112665853D01*
X150790720Y-112720256D01*
X150724426Y-112742321D01*
X150656726Y-112725042D01*
X150609116Y-112673904D01*
X150605439Y-112665853D01*
X150567957Y-112575365D01*
X150479334Y-112459868D01*
X150472826Y-112454874D01*
X150363836Y-112371243D01*
X150363833Y-112371242D01*
X150363831Y-112371240D01*
X150229339Y-112315532D01*
X150229334Y-112315530D01*
X150085001Y-112296529D01*
X150084999Y-112296529D01*
X149940665Y-112315530D01*
X149940663Y-112315531D01*
X149806165Y-112371242D01*
X149690667Y-112459867D01*
X149602042Y-112575365D01*
X149564561Y-112665853D01*
X149520720Y-112720256D01*
X149454426Y-112742321D01*
X149386726Y-112725042D01*
X149339116Y-112673904D01*
X149335439Y-112665853D01*
X149297957Y-112575365D01*
X149209334Y-112459868D01*
X149202826Y-112454874D01*
X149093836Y-112371243D01*
X149093833Y-112371242D01*
X149093831Y-112371240D01*
X148959339Y-112315532D01*
X148959334Y-112315530D01*
X148815001Y-112296529D01*
X148814999Y-112296529D01*
X148670665Y-112315530D01*
X148670663Y-112315531D01*
X148536165Y-112371242D01*
X148420667Y-112459867D01*
X148332042Y-112575365D01*
X148294561Y-112665853D01*
X148250720Y-112720256D01*
X148184426Y-112742321D01*
X148116726Y-112725042D01*
X148069116Y-112673904D01*
X148065439Y-112665853D01*
X148027957Y-112575365D01*
X147939334Y-112459868D01*
X147932826Y-112454874D01*
X147823836Y-112371243D01*
X147823833Y-112371242D01*
X147823831Y-112371240D01*
X147689339Y-112315532D01*
X147689334Y-112315530D01*
X147545001Y-112296529D01*
X147544999Y-112296529D01*
X147400665Y-112315530D01*
X147400663Y-112315531D01*
X147266165Y-112371242D01*
X147150667Y-112459867D01*
X147062042Y-112575365D01*
X147024561Y-112665853D01*
X146980720Y-112720256D01*
X146914426Y-112742321D01*
X146846726Y-112725042D01*
X146799116Y-112673904D01*
X146795439Y-112665853D01*
X146757957Y-112575365D01*
X146669334Y-112459868D01*
X146662826Y-112454874D01*
X146553836Y-112371243D01*
X146553833Y-112371242D01*
X146553831Y-112371240D01*
X146419339Y-112315532D01*
X146419334Y-112315530D01*
X146275001Y-112296529D01*
X146274999Y-112296529D01*
X146130665Y-112315530D01*
X146130663Y-112315531D01*
X145996165Y-112371242D01*
X145880667Y-112459867D01*
X145792042Y-112575365D01*
X145754561Y-112665853D01*
X145710720Y-112720256D01*
X145644426Y-112742321D01*
X145576726Y-112725042D01*
X145529116Y-112673904D01*
X145525439Y-112665853D01*
X145487957Y-112575365D01*
X145399334Y-112459868D01*
X145392826Y-112454874D01*
X145283836Y-112371243D01*
X145283833Y-112371242D01*
X145283831Y-112371240D01*
X145149339Y-112315532D01*
X145149334Y-112315530D01*
X145005001Y-112296529D01*
X145004999Y-112296529D01*
X144860665Y-112315530D01*
X144860663Y-112315531D01*
X144726165Y-112371242D01*
X144610667Y-112459867D01*
X144522042Y-112575365D01*
X144484561Y-112665853D01*
X144440720Y-112720256D01*
X144374426Y-112742321D01*
X144306726Y-112725042D01*
X144259116Y-112673904D01*
X144255439Y-112665853D01*
X144217957Y-112575365D01*
X144129334Y-112459868D01*
X144122826Y-112454874D01*
X144013836Y-112371243D01*
X144013833Y-112371242D01*
X144013831Y-112371240D01*
X143879339Y-112315532D01*
X143879334Y-112315530D01*
X143735001Y-112296529D01*
X143734999Y-112296529D01*
X143590665Y-112315530D01*
X143590663Y-112315531D01*
X143456165Y-112371242D01*
X143340667Y-112459867D01*
X143252042Y-112575365D01*
X143214561Y-112665853D01*
X143170720Y-112720256D01*
X143104426Y-112742321D01*
X143036726Y-112725042D01*
X142989116Y-112673904D01*
X142985439Y-112665853D01*
X142947957Y-112575365D01*
X142859334Y-112459868D01*
X142852826Y-112454874D01*
X142743836Y-112371243D01*
X142743833Y-112371242D01*
X142743831Y-112371240D01*
X142609339Y-112315532D01*
X142609334Y-112315530D01*
X142465001Y-112296529D01*
X142464999Y-112296529D01*
X142320665Y-112315530D01*
X142320663Y-112315531D01*
X142186165Y-112371242D01*
X142070667Y-112459867D01*
X141982042Y-112575365D01*
X141944561Y-112665853D01*
X141900720Y-112720256D01*
X141834426Y-112742321D01*
X141766726Y-112725042D01*
X141719116Y-112673904D01*
X141715439Y-112665853D01*
X141677957Y-112575365D01*
X141589334Y-112459868D01*
X141582826Y-112454874D01*
X141473836Y-112371243D01*
X141473833Y-112371242D01*
X141473831Y-112371240D01*
X141339339Y-112315532D01*
X141339334Y-112315530D01*
X141195001Y-112296529D01*
X141194999Y-112296529D01*
X141050665Y-112315530D01*
X141050663Y-112315531D01*
X140916165Y-112371242D01*
X140800667Y-112459867D01*
X140712042Y-112575365D01*
X140656331Y-112709863D01*
X140656330Y-112709865D01*
X140637329Y-112854198D01*
X140637329Y-112854201D01*
X139212671Y-112854201D01*
X139212671Y-112854200D01*
X139193669Y-112709864D01*
X139137957Y-112575365D01*
X139049333Y-112459867D01*
X138933836Y-112371243D01*
X138933833Y-112371242D01*
X138933831Y-112371240D01*
X138799339Y-112315532D01*
X138799334Y-112315530D01*
X138655001Y-112296529D01*
X138654999Y-112296529D01*
X138510665Y-112315530D01*
X138510663Y-112315531D01*
X138376165Y-112371242D01*
X138260667Y-112459867D01*
X138172042Y-112575365D01*
X138134561Y-112665853D01*
X138090720Y-112720256D01*
X138024426Y-112742321D01*
X137956726Y-112725042D01*
X137909116Y-112673904D01*
X137905439Y-112665853D01*
X137867957Y-112575365D01*
X137779334Y-112459868D01*
X137772826Y-112454874D01*
X137663836Y-112371243D01*
X137663833Y-112371242D01*
X137663831Y-112371240D01*
X137529339Y-112315532D01*
X137529334Y-112315530D01*
X137385001Y-112296529D01*
X137384999Y-112296529D01*
X137240665Y-112315530D01*
X137240663Y-112315531D01*
X137106165Y-112371242D01*
X136990667Y-112459867D01*
X136902042Y-112575365D01*
X136864561Y-112665853D01*
X136820720Y-112720256D01*
X136754426Y-112742321D01*
X136686726Y-112725042D01*
X136639116Y-112673904D01*
X136635439Y-112665853D01*
X136597957Y-112575365D01*
X136509334Y-112459868D01*
X136502826Y-112454874D01*
X136393836Y-112371243D01*
X136393833Y-112371242D01*
X136393831Y-112371240D01*
X136259339Y-112315532D01*
X136259334Y-112315530D01*
X136115001Y-112296529D01*
X136114999Y-112296529D01*
X135970665Y-112315530D01*
X135970663Y-112315531D01*
X135836165Y-112371242D01*
X135720667Y-112459867D01*
X135632042Y-112575365D01*
X135594561Y-112665853D01*
X135550720Y-112720256D01*
X135484426Y-112742321D01*
X135416726Y-112725042D01*
X135369116Y-112673904D01*
X135365439Y-112665853D01*
X135327957Y-112575365D01*
X135239334Y-112459868D01*
X135232826Y-112454874D01*
X135123836Y-112371243D01*
X135123833Y-112371242D01*
X135123831Y-112371240D01*
X134989339Y-112315532D01*
X134989334Y-112315530D01*
X134845001Y-112296529D01*
X134844999Y-112296529D01*
X134700665Y-112315530D01*
X134700663Y-112315531D01*
X134566165Y-112371242D01*
X134450667Y-112459867D01*
X134362042Y-112575365D01*
X134324561Y-112665853D01*
X134280720Y-112720256D01*
X134214426Y-112742321D01*
X134146726Y-112725042D01*
X134099116Y-112673904D01*
X134095439Y-112665853D01*
X134057957Y-112575365D01*
X133969334Y-112459868D01*
X133962826Y-112454874D01*
X133853836Y-112371243D01*
X133853833Y-112371242D01*
X133853831Y-112371240D01*
X133719339Y-112315532D01*
X133719334Y-112315530D01*
X133575001Y-112296529D01*
X133574999Y-112296529D01*
X133430665Y-112315530D01*
X133430663Y-112315531D01*
X133296165Y-112371242D01*
X133180667Y-112459867D01*
X133092042Y-112575365D01*
X133054561Y-112665853D01*
X133010720Y-112720256D01*
X132944426Y-112742321D01*
X132876726Y-112725042D01*
X132829116Y-112673904D01*
X132825439Y-112665853D01*
X132787957Y-112575365D01*
X132699334Y-112459868D01*
X132692826Y-112454874D01*
X132583836Y-112371243D01*
X132583833Y-112371242D01*
X132583831Y-112371240D01*
X132449339Y-112315532D01*
X132449334Y-112315530D01*
X132305001Y-112296529D01*
X132304999Y-112296529D01*
X132160665Y-112315530D01*
X132160663Y-112315531D01*
X132026165Y-112371242D01*
X131910667Y-112459867D01*
X131822042Y-112575365D01*
X131784561Y-112665853D01*
X131740720Y-112720256D01*
X131674426Y-112742321D01*
X131606726Y-112725042D01*
X131559116Y-112673904D01*
X131555439Y-112665853D01*
X131517957Y-112575365D01*
X131429334Y-112459868D01*
X131422826Y-112454874D01*
X131313836Y-112371243D01*
X131313833Y-112371242D01*
X131313831Y-112371240D01*
X131179339Y-112315532D01*
X131179334Y-112315530D01*
X131035001Y-112296529D01*
X131034999Y-112296529D01*
X130890665Y-112315530D01*
X130890663Y-112315531D01*
X130756165Y-112371242D01*
X130640667Y-112459867D01*
X130552042Y-112575365D01*
X130514561Y-112665853D01*
X130470720Y-112720256D01*
X130404426Y-112742321D01*
X130336726Y-112725042D01*
X130289116Y-112673904D01*
X130285439Y-112665853D01*
X130247957Y-112575365D01*
X130159334Y-112459868D01*
X130152826Y-112454874D01*
X130043836Y-112371243D01*
X130043833Y-112371242D01*
X130043831Y-112371240D01*
X129909339Y-112315532D01*
X129909334Y-112315530D01*
X129765001Y-112296529D01*
X129764999Y-112296529D01*
X129620665Y-112315530D01*
X129620663Y-112315531D01*
X129486165Y-112371242D01*
X129370667Y-112459867D01*
X129282042Y-112575365D01*
X129226331Y-112709863D01*
X129226330Y-112709865D01*
X129207329Y-112854198D01*
X129207329Y-112854201D01*
X127782671Y-112854201D01*
X127782671Y-112854200D01*
X127763669Y-112709864D01*
X127707957Y-112575365D01*
X127619333Y-112459867D01*
X127503836Y-112371243D01*
X127503833Y-112371242D01*
X127503831Y-112371240D01*
X127369339Y-112315532D01*
X127369334Y-112315530D01*
X127225001Y-112296529D01*
X127224999Y-112296529D01*
X127080665Y-112315530D01*
X127080663Y-112315531D01*
X126946165Y-112371242D01*
X126830667Y-112459867D01*
X126742042Y-112575365D01*
X126704561Y-112665853D01*
X126660720Y-112720256D01*
X126594426Y-112742321D01*
X126526726Y-112725042D01*
X126479116Y-112673904D01*
X126475439Y-112665853D01*
X126437957Y-112575365D01*
X126349334Y-112459868D01*
X126342826Y-112454874D01*
X126233836Y-112371243D01*
X126233833Y-112371242D01*
X126233831Y-112371240D01*
X126099339Y-112315532D01*
X126099334Y-112315530D01*
X125955001Y-112296529D01*
X125954999Y-112296529D01*
X125810665Y-112315530D01*
X125810663Y-112315531D01*
X125676165Y-112371242D01*
X125560667Y-112459867D01*
X125472042Y-112575365D01*
X125434561Y-112665853D01*
X125390720Y-112720256D01*
X125324426Y-112742321D01*
X125256726Y-112725042D01*
X125209116Y-112673904D01*
X125205439Y-112665853D01*
X125167957Y-112575365D01*
X125079334Y-112459868D01*
X125072826Y-112454874D01*
X124963836Y-112371243D01*
X124963833Y-112371242D01*
X124963831Y-112371240D01*
X124829339Y-112315532D01*
X124829334Y-112315530D01*
X124685001Y-112296529D01*
X124684999Y-112296529D01*
X124540665Y-112315530D01*
X124540663Y-112315531D01*
X124406165Y-112371242D01*
X124290667Y-112459867D01*
X124202042Y-112575365D01*
X124164561Y-112665853D01*
X124120720Y-112720256D01*
X124054426Y-112742321D01*
X123986726Y-112725042D01*
X123939116Y-112673904D01*
X123935439Y-112665853D01*
X123897957Y-112575365D01*
X123809334Y-112459868D01*
X123802826Y-112454874D01*
X123693836Y-112371243D01*
X123693833Y-112371242D01*
X123693831Y-112371240D01*
X123559339Y-112315532D01*
X123559334Y-112315530D01*
X123415001Y-112296529D01*
X123414999Y-112296529D01*
X123270665Y-112315530D01*
X123270663Y-112315531D01*
X123136165Y-112371242D01*
X123020667Y-112459867D01*
X122932042Y-112575365D01*
X122894561Y-112665853D01*
X122850720Y-112720256D01*
X122784426Y-112742321D01*
X122716726Y-112725042D01*
X122669116Y-112673904D01*
X122665439Y-112665853D01*
X122627957Y-112575365D01*
X122539334Y-112459868D01*
X122532826Y-112454874D01*
X122423836Y-112371243D01*
X122423833Y-112371242D01*
X122423831Y-112371240D01*
X122289339Y-112315532D01*
X122289334Y-112315530D01*
X122145001Y-112296529D01*
X122144999Y-112296529D01*
X122000665Y-112315530D01*
X122000663Y-112315531D01*
X121866165Y-112371242D01*
X121750667Y-112459867D01*
X121662042Y-112575365D01*
X121624561Y-112665853D01*
X121580720Y-112720256D01*
X121514426Y-112742321D01*
X121446726Y-112725042D01*
X121399116Y-112673904D01*
X121395439Y-112665853D01*
X121357957Y-112575365D01*
X121269334Y-112459868D01*
X121262826Y-112454874D01*
X121153836Y-112371243D01*
X121153833Y-112371242D01*
X121153831Y-112371240D01*
X121019339Y-112315532D01*
X121019334Y-112315530D01*
X120875001Y-112296529D01*
X120874999Y-112296529D01*
X120730665Y-112315530D01*
X120730663Y-112315531D01*
X120596165Y-112371242D01*
X120480667Y-112459867D01*
X120392042Y-112575365D01*
X120336331Y-112709863D01*
X120336330Y-112709865D01*
X120317329Y-112854198D01*
X120317329Y-112854201D01*
X118892671Y-112854201D01*
X118892671Y-112854200D01*
X118873669Y-112709864D01*
X118817957Y-112575365D01*
X118729333Y-112459867D01*
X118613836Y-112371243D01*
X118613833Y-112371242D01*
X118613831Y-112371240D01*
X118479339Y-112315532D01*
X118479334Y-112315530D01*
X118335001Y-112296529D01*
X118334999Y-112296529D01*
X118190665Y-112315530D01*
X118190663Y-112315531D01*
X118056165Y-112371242D01*
X117940667Y-112459867D01*
X117852042Y-112575365D01*
X117814561Y-112665853D01*
X117770720Y-112720256D01*
X117704426Y-112742321D01*
X117636726Y-112725042D01*
X117589116Y-112673904D01*
X117585439Y-112665853D01*
X117547957Y-112575365D01*
X117459334Y-112459868D01*
X117452826Y-112454874D01*
X117343836Y-112371243D01*
X117343833Y-112371242D01*
X117343831Y-112371240D01*
X117209339Y-112315532D01*
X117209334Y-112315530D01*
X117065001Y-112296529D01*
X117064999Y-112296529D01*
X116920665Y-112315530D01*
X116920663Y-112315531D01*
X116786165Y-112371242D01*
X116670667Y-112459867D01*
X116582042Y-112575365D01*
X116544561Y-112665853D01*
X116500720Y-112720256D01*
X116434426Y-112742321D01*
X116366726Y-112725042D01*
X116319116Y-112673904D01*
X116315439Y-112665853D01*
X116277957Y-112575365D01*
X116189334Y-112459868D01*
X116182826Y-112454874D01*
X116073836Y-112371243D01*
X116073833Y-112371242D01*
X116073831Y-112371240D01*
X115939339Y-112315532D01*
X115939334Y-112315530D01*
X115795001Y-112296529D01*
X115794999Y-112296529D01*
X115650665Y-112315530D01*
X115650663Y-112315531D01*
X115516165Y-112371242D01*
X115400667Y-112459867D01*
X115312042Y-112575365D01*
X115274561Y-112665853D01*
X115230720Y-112720256D01*
X115164426Y-112742321D01*
X115096726Y-112725042D01*
X115049116Y-112673904D01*
X115045439Y-112665853D01*
X115007957Y-112575365D01*
X114919334Y-112459868D01*
X114912826Y-112454874D01*
X114803836Y-112371243D01*
X114803833Y-112371242D01*
X114803831Y-112371240D01*
X114669339Y-112315532D01*
X114669334Y-112315530D01*
X114525001Y-112296529D01*
X114524999Y-112296529D01*
X114380665Y-112315530D01*
X114380663Y-112315531D01*
X114246165Y-112371242D01*
X114130667Y-112459867D01*
X114042042Y-112575365D01*
X114004561Y-112665853D01*
X113960720Y-112720256D01*
X113894426Y-112742321D01*
X113826726Y-112725042D01*
X113779116Y-112673904D01*
X113775439Y-112665853D01*
X113737957Y-112575365D01*
X113649334Y-112459868D01*
X113642826Y-112454874D01*
X113533836Y-112371243D01*
X113533833Y-112371242D01*
X113533831Y-112371240D01*
X113399339Y-112315532D01*
X113399334Y-112315530D01*
X113255001Y-112296529D01*
X113254999Y-112296529D01*
X113110665Y-112315530D01*
X113110663Y-112315531D01*
X112976165Y-112371242D01*
X112860667Y-112459867D01*
X112772042Y-112575365D01*
X112734561Y-112665853D01*
X112690720Y-112720256D01*
X112624426Y-112742321D01*
X112556726Y-112725042D01*
X112509116Y-112673904D01*
X112505439Y-112665853D01*
X112467957Y-112575365D01*
X112379334Y-112459868D01*
X112372826Y-112454874D01*
X112263836Y-112371243D01*
X112263833Y-112371242D01*
X112263831Y-112371240D01*
X112129339Y-112315532D01*
X112129334Y-112315530D01*
X111985001Y-112296529D01*
X111984999Y-112296529D01*
X111840665Y-112315530D01*
X111840663Y-112315531D01*
X111706165Y-112371242D01*
X111590667Y-112459867D01*
X111502042Y-112575365D01*
X111464561Y-112665853D01*
X111420720Y-112720256D01*
X111354426Y-112742321D01*
X111286726Y-112725042D01*
X111239116Y-112673904D01*
X111235439Y-112665853D01*
X111197957Y-112575365D01*
X111109334Y-112459868D01*
X111102826Y-112454874D01*
X110993836Y-112371243D01*
X110993833Y-112371242D01*
X110993831Y-112371240D01*
X110859339Y-112315532D01*
X110859334Y-112315530D01*
X110715001Y-112296529D01*
X110714999Y-112296529D01*
X110570665Y-112315530D01*
X110570663Y-112315531D01*
X110436165Y-112371242D01*
X110320667Y-112459867D01*
X110232042Y-112575365D01*
X110194561Y-112665853D01*
X110150720Y-112720256D01*
X110084426Y-112742321D01*
X110016726Y-112725042D01*
X109969116Y-112673904D01*
X109965439Y-112665853D01*
X109927957Y-112575365D01*
X109839334Y-112459868D01*
X109832826Y-112454874D01*
X109723836Y-112371243D01*
X109723833Y-112371242D01*
X109723831Y-112371240D01*
X109589339Y-112315532D01*
X109589334Y-112315530D01*
X109445001Y-112296529D01*
X109444999Y-112296529D01*
X109300665Y-112315530D01*
X109300663Y-112315531D01*
X109166165Y-112371242D01*
X109050667Y-112459867D01*
X108962042Y-112575365D01*
X108906331Y-112709863D01*
X108906330Y-112709865D01*
X108887329Y-112854198D01*
X108887329Y-112854201D01*
X106601100Y-112854201D01*
X106601100Y-112454875D01*
X106601099Y-112454866D01*
X106565353Y-112217705D01*
X106565351Y-112217699D01*
X106494654Y-111988505D01*
X106390586Y-111772407D01*
X106255473Y-111574232D01*
X106194019Y-111508001D01*
X152067329Y-111508001D01*
X152086330Y-111652334D01*
X152086332Y-111652339D01*
X152142040Y-111786831D01*
X152142040Y-111786832D01*
X152142042Y-111786835D01*
X152142043Y-111786836D01*
X152230667Y-111902333D01*
X152346164Y-111990957D01*
X152346167Y-111990958D01*
X152346168Y-111990959D01*
X152413414Y-112018813D01*
X152480664Y-112046669D01*
X152547731Y-112055498D01*
X152567955Y-112058161D01*
X152625749Y-112083727D01*
X152679123Y-112058581D01*
X152682036Y-112058162D01*
X152769336Y-112046669D01*
X152903831Y-111990959D01*
X152903832Y-111990959D01*
X152903832Y-111990958D01*
X152903836Y-111990957D01*
X153019333Y-111902333D01*
X153107957Y-111786836D01*
X153163669Y-111652336D01*
X153180389Y-111525334D01*
X153182671Y-111508001D01*
X153182671Y-111507998D01*
X153163669Y-111363665D01*
X153163669Y-111363664D01*
X153107957Y-111229165D01*
X153019334Y-111113668D01*
X153004343Y-111102165D01*
X152903836Y-111025043D01*
X152903833Y-111025042D01*
X152903831Y-111025040D01*
X152769339Y-110969332D01*
X152769334Y-110969330D01*
X152625001Y-110950329D01*
X152624999Y-110950329D01*
X152480665Y-110969330D01*
X152480663Y-110969331D01*
X152346165Y-111025042D01*
X152230667Y-111113667D01*
X152142042Y-111229165D01*
X152086331Y-111363663D01*
X152086330Y-111363665D01*
X152067329Y-111507998D01*
X152067329Y-111508001D01*
X106194019Y-111508001D01*
X106188102Y-111501624D01*
X106092336Y-111398411D01*
X106048766Y-111363665D01*
X105904809Y-111248863D01*
X105697091Y-111128937D01*
X105473819Y-111041309D01*
X105473810Y-111041307D01*
X105473807Y-111041306D01*
X105239978Y-110987936D01*
X105000805Y-110970013D01*
X105000795Y-110970013D01*
X104761621Y-110987936D01*
X104527792Y-111041306D01*
X104527784Y-111041308D01*
X104527781Y-111041309D01*
X104527778Y-111041309D01*
X104527775Y-111041311D01*
X104304508Y-111128937D01*
X104096791Y-111248863D01*
X103909263Y-111398411D01*
X103746125Y-111574234D01*
X103611014Y-111772406D01*
X103611012Y-111772410D01*
X103506948Y-111988499D01*
X103506947Y-111988503D01*
X103436248Y-112217699D01*
X103436246Y-112217705D01*
X103400500Y-112454866D01*
X103400500Y-114806518D01*
X103400110Y-114813465D01*
X103386783Y-114931742D01*
X103380605Y-114958813D01*
X103344757Y-115061261D01*
X103332708Y-115086280D01*
X103274957Y-115178189D01*
X103257645Y-115199897D01*
X103180897Y-115276645D01*
X103159189Y-115293957D01*
X103067280Y-115351708D01*
X103042262Y-115363756D01*
X102939946Y-115399558D01*
X102939813Y-115399605D01*
X102912743Y-115405783D01*
X102868975Y-115410714D01*
X102794456Y-115419110D01*
X102787519Y-115419500D01*
X53694281Y-115419500D01*
X53687343Y-115419110D01*
X53612824Y-115410714D01*
X53569057Y-115405783D01*
X53541988Y-115399605D01*
X53439533Y-115363754D01*
X53414519Y-115351708D01*
X53322610Y-115293957D01*
X53300902Y-115276645D01*
X53224154Y-115199897D01*
X53206842Y-115178189D01*
X53149091Y-115086280D01*
X53137046Y-115061270D01*
X53101192Y-114958804D01*
X53095016Y-114931745D01*
X53081689Y-114813458D01*
X53081300Y-114806518D01*
X53081300Y-112854201D01*
X56817329Y-112854201D01*
X56836330Y-112998534D01*
X56836332Y-112998539D01*
X56892040Y-113133031D01*
X56892040Y-113133032D01*
X56892042Y-113133035D01*
X56892043Y-113133036D01*
X56980667Y-113248533D01*
X57096164Y-113337157D01*
X57096167Y-113337158D01*
X57096168Y-113337159D01*
X57163414Y-113365013D01*
X57230664Y-113392869D01*
X57302832Y-113402370D01*
X57374999Y-113411871D01*
X57375000Y-113411871D01*
X57375001Y-113411871D01*
X57423112Y-113405537D01*
X57519336Y-113392869D01*
X57653831Y-113337159D01*
X57653832Y-113337159D01*
X57653832Y-113337158D01*
X57653836Y-113337157D01*
X57769333Y-113248533D01*
X57857957Y-113133036D01*
X57895439Y-113042547D01*
X57939280Y-112988143D01*
X58005574Y-112966078D01*
X58073273Y-112983357D01*
X58120884Y-113034494D01*
X58124561Y-113042547D01*
X58162040Y-113133031D01*
X58162040Y-113133032D01*
X58162042Y-113133035D01*
X58162043Y-113133036D01*
X58250667Y-113248533D01*
X58366164Y-113337157D01*
X58366167Y-113337158D01*
X58366168Y-113337159D01*
X58433414Y-113365013D01*
X58500664Y-113392869D01*
X58572832Y-113402370D01*
X58644999Y-113411871D01*
X58645000Y-113411871D01*
X58645001Y-113411871D01*
X58693112Y-113405537D01*
X58789336Y-113392869D01*
X58923831Y-113337159D01*
X58923832Y-113337159D01*
X58923832Y-113337158D01*
X58923836Y-113337157D01*
X59039333Y-113248533D01*
X59127957Y-113133036D01*
X59165439Y-113042547D01*
X59209280Y-112988143D01*
X59275574Y-112966078D01*
X59343273Y-112983357D01*
X59390884Y-113034494D01*
X59394561Y-113042547D01*
X59432040Y-113133031D01*
X59432040Y-113133032D01*
X59432042Y-113133035D01*
X59432043Y-113133036D01*
X59520667Y-113248533D01*
X59636164Y-113337157D01*
X59636167Y-113337158D01*
X59636168Y-113337159D01*
X59703414Y-113365013D01*
X59770664Y-113392869D01*
X59842832Y-113402370D01*
X59914999Y-113411871D01*
X59915000Y-113411871D01*
X59915001Y-113411871D01*
X59963112Y-113405537D01*
X60059336Y-113392869D01*
X60193831Y-113337159D01*
X60193832Y-113337159D01*
X60193832Y-113337158D01*
X60193836Y-113337157D01*
X60309333Y-113248533D01*
X60397957Y-113133036D01*
X60435439Y-113042547D01*
X60479280Y-112988143D01*
X60545574Y-112966078D01*
X60613273Y-112983357D01*
X60660884Y-113034494D01*
X60664561Y-113042547D01*
X60702040Y-113133031D01*
X60702040Y-113133032D01*
X60702042Y-113133035D01*
X60702043Y-113133036D01*
X60790667Y-113248533D01*
X60906164Y-113337157D01*
X60906167Y-113337158D01*
X60906168Y-113337159D01*
X60973414Y-113365013D01*
X61040664Y-113392869D01*
X61112832Y-113402370D01*
X61184999Y-113411871D01*
X61185000Y-113411871D01*
X61185001Y-113411871D01*
X61233112Y-113405537D01*
X61329336Y-113392869D01*
X61463831Y-113337159D01*
X61463832Y-113337159D01*
X61463832Y-113337158D01*
X61463836Y-113337157D01*
X61579333Y-113248533D01*
X61667957Y-113133036D01*
X61705439Y-113042547D01*
X61749280Y-112988143D01*
X61815574Y-112966078D01*
X61883273Y-112983357D01*
X61930884Y-113034494D01*
X61934561Y-113042547D01*
X61972040Y-113133031D01*
X61972040Y-113133032D01*
X61972042Y-113133035D01*
X61972043Y-113133036D01*
X62060667Y-113248533D01*
X62176164Y-113337157D01*
X62176167Y-113337158D01*
X62176168Y-113337159D01*
X62243414Y-113365013D01*
X62310664Y-113392869D01*
X62382832Y-113402370D01*
X62454999Y-113411871D01*
X62455000Y-113411871D01*
X62455001Y-113411871D01*
X62503112Y-113405537D01*
X62599336Y-113392869D01*
X62733831Y-113337159D01*
X62733832Y-113337159D01*
X62733832Y-113337158D01*
X62733836Y-113337157D01*
X62849333Y-113248533D01*
X62937957Y-113133036D01*
X62975439Y-113042547D01*
X63019280Y-112988143D01*
X63085574Y-112966078D01*
X63153273Y-112983357D01*
X63200884Y-113034494D01*
X63204561Y-113042547D01*
X63242040Y-113133031D01*
X63242040Y-113133032D01*
X63242042Y-113133035D01*
X63242043Y-113133036D01*
X63330667Y-113248533D01*
X63446164Y-113337157D01*
X63446167Y-113337158D01*
X63446168Y-113337159D01*
X63513414Y-113365013D01*
X63580664Y-113392869D01*
X63652832Y-113402370D01*
X63724999Y-113411871D01*
X63725000Y-113411871D01*
X63725001Y-113411871D01*
X63773112Y-113405537D01*
X63869336Y-113392869D01*
X64003831Y-113337159D01*
X64003832Y-113337159D01*
X64003832Y-113337158D01*
X64003836Y-113337157D01*
X64119333Y-113248533D01*
X64207957Y-113133036D01*
X64245439Y-113042547D01*
X64289280Y-112988143D01*
X64355574Y-112966078D01*
X64423273Y-112983357D01*
X64470884Y-113034494D01*
X64474561Y-113042547D01*
X64512040Y-113133031D01*
X64512040Y-113133032D01*
X64512042Y-113133035D01*
X64512043Y-113133036D01*
X64600667Y-113248533D01*
X64716164Y-113337157D01*
X64716167Y-113337158D01*
X64716168Y-113337159D01*
X64783414Y-113365013D01*
X64850664Y-113392869D01*
X64922832Y-113402370D01*
X64994999Y-113411871D01*
X64995000Y-113411871D01*
X64995001Y-113411871D01*
X65043112Y-113405537D01*
X65139336Y-113392869D01*
X65273831Y-113337159D01*
X65273832Y-113337159D01*
X65273832Y-113337158D01*
X65273836Y-113337157D01*
X65389333Y-113248533D01*
X65477957Y-113133036D01*
X65515439Y-113042547D01*
X65559280Y-112988143D01*
X65625574Y-112966078D01*
X65693273Y-112983357D01*
X65740884Y-113034494D01*
X65744561Y-113042547D01*
X65782040Y-113133031D01*
X65782040Y-113133032D01*
X65782042Y-113133035D01*
X65782043Y-113133036D01*
X65870667Y-113248533D01*
X65986164Y-113337157D01*
X65986167Y-113337158D01*
X65986168Y-113337159D01*
X66053414Y-113365013D01*
X66120664Y-113392869D01*
X66192832Y-113402370D01*
X66264999Y-113411871D01*
X66265000Y-113411871D01*
X66265001Y-113411871D01*
X66313112Y-113405537D01*
X66409336Y-113392869D01*
X66543831Y-113337159D01*
X66543832Y-113337159D01*
X66543832Y-113337158D01*
X66543836Y-113337157D01*
X66659333Y-113248533D01*
X66747957Y-113133036D01*
X66785439Y-113042547D01*
X66829280Y-112988143D01*
X66895574Y-112966078D01*
X66963273Y-112983357D01*
X67010884Y-113034494D01*
X67014561Y-113042547D01*
X67052040Y-113133031D01*
X67052040Y-113133032D01*
X67052042Y-113133035D01*
X67052043Y-113133036D01*
X67140667Y-113248533D01*
X67256164Y-113337157D01*
X67256167Y-113337158D01*
X67256168Y-113337159D01*
X67323414Y-113365013D01*
X67390664Y-113392869D01*
X67462832Y-113402370D01*
X67534999Y-113411871D01*
X67535000Y-113411871D01*
X67535001Y-113411871D01*
X67583112Y-113405537D01*
X67679336Y-113392869D01*
X67813831Y-113337159D01*
X67813832Y-113337159D01*
X67813832Y-113337158D01*
X67813836Y-113337157D01*
X67929333Y-113248533D01*
X68017957Y-113133036D01*
X68073669Y-112998536D01*
X68092671Y-112854201D01*
X69517329Y-112854201D01*
X69536330Y-112998534D01*
X69536332Y-112998539D01*
X69592040Y-113133031D01*
X69592040Y-113133032D01*
X69592042Y-113133035D01*
X69592043Y-113133036D01*
X69680667Y-113248533D01*
X69796164Y-113337157D01*
X69796167Y-113337158D01*
X69796168Y-113337159D01*
X69863414Y-113365013D01*
X69930664Y-113392869D01*
X70002832Y-113402370D01*
X70074999Y-113411871D01*
X70075000Y-113411871D01*
X70075001Y-113411871D01*
X70123112Y-113405537D01*
X70219336Y-113392869D01*
X70353831Y-113337159D01*
X70353832Y-113337159D01*
X70353832Y-113337158D01*
X70353836Y-113337157D01*
X70469333Y-113248533D01*
X70557957Y-113133036D01*
X70595439Y-113042547D01*
X70639280Y-112988143D01*
X70705574Y-112966078D01*
X70773273Y-112983357D01*
X70820884Y-113034494D01*
X70824561Y-113042547D01*
X70862040Y-113133031D01*
X70862040Y-113133032D01*
X70862042Y-113133035D01*
X70862043Y-113133036D01*
X70950667Y-113248533D01*
X71066164Y-113337157D01*
X71066167Y-113337158D01*
X71066168Y-113337159D01*
X71133414Y-113365013D01*
X71200664Y-113392869D01*
X71272832Y-113402370D01*
X71344999Y-113411871D01*
X71345000Y-113411871D01*
X71345001Y-113411871D01*
X71393112Y-113405537D01*
X71489336Y-113392869D01*
X71623831Y-113337159D01*
X71623832Y-113337159D01*
X71623832Y-113337158D01*
X71623836Y-113337157D01*
X71739333Y-113248533D01*
X71827957Y-113133036D01*
X71865439Y-113042547D01*
X71909280Y-112988143D01*
X71975574Y-112966078D01*
X72043273Y-112983357D01*
X72090884Y-113034494D01*
X72094561Y-113042547D01*
X72132040Y-113133031D01*
X72132040Y-113133032D01*
X72132042Y-113133035D01*
X72132043Y-113133036D01*
X72220667Y-113248533D01*
X72336164Y-113337157D01*
X72336167Y-113337158D01*
X72336168Y-113337159D01*
X72403414Y-113365013D01*
X72470664Y-113392869D01*
X72542832Y-113402370D01*
X72614999Y-113411871D01*
X72615000Y-113411871D01*
X72615001Y-113411871D01*
X72663112Y-113405537D01*
X72759336Y-113392869D01*
X72893831Y-113337159D01*
X72893832Y-113337159D01*
X72893832Y-113337158D01*
X72893836Y-113337157D01*
X73009333Y-113248533D01*
X73097957Y-113133036D01*
X73135439Y-113042547D01*
X73179280Y-112988143D01*
X73245574Y-112966078D01*
X73313273Y-112983357D01*
X73360884Y-113034494D01*
X73364561Y-113042547D01*
X73402040Y-113133031D01*
X73402040Y-113133032D01*
X73402042Y-113133035D01*
X73402043Y-113133036D01*
X73490667Y-113248533D01*
X73606164Y-113337157D01*
X73606167Y-113337158D01*
X73606168Y-113337159D01*
X73673414Y-113365013D01*
X73740664Y-113392869D01*
X73812832Y-113402370D01*
X73884999Y-113411871D01*
X73885000Y-113411871D01*
X73885001Y-113411871D01*
X73933112Y-113405537D01*
X74029336Y-113392869D01*
X74163831Y-113337159D01*
X74163832Y-113337159D01*
X74163832Y-113337158D01*
X74163836Y-113337157D01*
X74279333Y-113248533D01*
X74367957Y-113133036D01*
X74405439Y-113042547D01*
X74449280Y-112988143D01*
X74515574Y-112966078D01*
X74583273Y-112983357D01*
X74630884Y-113034494D01*
X74634561Y-113042547D01*
X74672040Y-113133031D01*
X74672040Y-113133032D01*
X74672042Y-113133035D01*
X74672043Y-113133036D01*
X74760667Y-113248533D01*
X74876164Y-113337157D01*
X74876167Y-113337158D01*
X74876168Y-113337159D01*
X74943414Y-113365013D01*
X75010664Y-113392869D01*
X75082832Y-113402370D01*
X75154999Y-113411871D01*
X75155000Y-113411871D01*
X75155001Y-113411871D01*
X75203112Y-113405537D01*
X75299336Y-113392869D01*
X75433831Y-113337159D01*
X75433832Y-113337159D01*
X75433832Y-113337158D01*
X75433836Y-113337157D01*
X75549333Y-113248533D01*
X75637957Y-113133036D01*
X75675439Y-113042547D01*
X75719280Y-112988143D01*
X75785574Y-112966078D01*
X75853273Y-112983357D01*
X75900884Y-113034494D01*
X75904561Y-113042547D01*
X75942040Y-113133031D01*
X75942040Y-113133032D01*
X75942042Y-113133035D01*
X75942043Y-113133036D01*
X76030667Y-113248533D01*
X76146164Y-113337157D01*
X76146167Y-113337158D01*
X76146168Y-113337159D01*
X76213414Y-113365013D01*
X76280664Y-113392869D01*
X76352832Y-113402370D01*
X76424999Y-113411871D01*
X76425000Y-113411871D01*
X76425001Y-113411871D01*
X76473112Y-113405537D01*
X76569336Y-113392869D01*
X76703831Y-113337159D01*
X76703832Y-113337159D01*
X76703832Y-113337158D01*
X76703836Y-113337157D01*
X76819333Y-113248533D01*
X76907957Y-113133036D01*
X76945439Y-113042547D01*
X76989280Y-112988143D01*
X77055574Y-112966078D01*
X77123273Y-112983357D01*
X77170884Y-113034494D01*
X77174561Y-113042547D01*
X77212040Y-113133031D01*
X77212040Y-113133032D01*
X77212042Y-113133035D01*
X77212043Y-113133036D01*
X77300667Y-113248533D01*
X77416164Y-113337157D01*
X77416167Y-113337158D01*
X77416168Y-113337159D01*
X77483414Y-113365013D01*
X77550664Y-113392869D01*
X77622832Y-113402370D01*
X77694999Y-113411871D01*
X77695000Y-113411871D01*
X77695001Y-113411871D01*
X77743112Y-113405537D01*
X77839336Y-113392869D01*
X77973831Y-113337159D01*
X77973832Y-113337159D01*
X77973832Y-113337158D01*
X77973836Y-113337157D01*
X78089333Y-113248533D01*
X78177957Y-113133036D01*
X78215439Y-113042547D01*
X78259280Y-112988143D01*
X78325574Y-112966078D01*
X78393273Y-112983357D01*
X78440884Y-113034494D01*
X78444561Y-113042547D01*
X78482040Y-113133031D01*
X78482040Y-113133032D01*
X78482042Y-113133035D01*
X78482043Y-113133036D01*
X78570667Y-113248533D01*
X78686164Y-113337157D01*
X78686167Y-113337158D01*
X78686168Y-113337159D01*
X78753414Y-113365013D01*
X78820664Y-113392869D01*
X78892832Y-113402370D01*
X78964999Y-113411871D01*
X78965000Y-113411871D01*
X78965001Y-113411871D01*
X79013112Y-113405537D01*
X79109336Y-113392869D01*
X79243831Y-113337159D01*
X79243832Y-113337159D01*
X79243832Y-113337158D01*
X79243836Y-113337157D01*
X79359333Y-113248533D01*
X79447957Y-113133036D01*
X79503669Y-112998536D01*
X79522671Y-112854201D01*
X80947329Y-112854201D01*
X80966330Y-112998534D01*
X80966332Y-112998539D01*
X81022040Y-113133031D01*
X81022040Y-113133032D01*
X81022042Y-113133035D01*
X81022043Y-113133036D01*
X81110667Y-113248533D01*
X81226164Y-113337157D01*
X81226167Y-113337158D01*
X81226168Y-113337159D01*
X81293414Y-113365013D01*
X81360664Y-113392869D01*
X81432832Y-113402370D01*
X81504999Y-113411871D01*
X81505000Y-113411871D01*
X81505001Y-113411871D01*
X81553112Y-113405537D01*
X81649336Y-113392869D01*
X81783831Y-113337159D01*
X81783832Y-113337159D01*
X81783832Y-113337158D01*
X81783836Y-113337157D01*
X81899333Y-113248533D01*
X81987957Y-113133036D01*
X82025439Y-113042547D01*
X82069280Y-112988143D01*
X82135574Y-112966078D01*
X82203273Y-112983357D01*
X82250884Y-113034494D01*
X82254561Y-113042547D01*
X82292040Y-113133031D01*
X82292040Y-113133032D01*
X82292042Y-113133035D01*
X82292043Y-113133036D01*
X82380667Y-113248533D01*
X82496164Y-113337157D01*
X82496167Y-113337158D01*
X82496168Y-113337159D01*
X82563414Y-113365013D01*
X82630664Y-113392869D01*
X82702832Y-113402370D01*
X82774999Y-113411871D01*
X82775000Y-113411871D01*
X82775001Y-113411871D01*
X82823112Y-113405537D01*
X82919336Y-113392869D01*
X83053831Y-113337159D01*
X83053832Y-113337159D01*
X83053832Y-113337158D01*
X83053836Y-113337157D01*
X83169333Y-113248533D01*
X83257957Y-113133036D01*
X83295439Y-113042547D01*
X83339280Y-112988143D01*
X83405574Y-112966078D01*
X83473273Y-112983357D01*
X83520884Y-113034494D01*
X83524561Y-113042547D01*
X83562040Y-113133031D01*
X83562040Y-113133032D01*
X83562042Y-113133035D01*
X83562043Y-113133036D01*
X83650667Y-113248533D01*
X83766164Y-113337157D01*
X83766167Y-113337158D01*
X83766168Y-113337159D01*
X83833414Y-113365013D01*
X83900664Y-113392869D01*
X83972832Y-113402370D01*
X84044999Y-113411871D01*
X84045000Y-113411871D01*
X84045001Y-113411871D01*
X84093112Y-113405537D01*
X84189336Y-113392869D01*
X84323831Y-113337159D01*
X84323832Y-113337159D01*
X84323832Y-113337158D01*
X84323836Y-113337157D01*
X84439333Y-113248533D01*
X84527957Y-113133036D01*
X84565439Y-113042547D01*
X84609280Y-112988143D01*
X84675574Y-112966078D01*
X84743273Y-112983357D01*
X84790884Y-113034494D01*
X84794561Y-113042547D01*
X84832040Y-113133031D01*
X84832040Y-113133032D01*
X84832042Y-113133035D01*
X84832043Y-113133036D01*
X84920667Y-113248533D01*
X85036164Y-113337157D01*
X85036167Y-113337158D01*
X85036168Y-113337159D01*
X85103414Y-113365013D01*
X85170664Y-113392869D01*
X85242832Y-113402370D01*
X85314999Y-113411871D01*
X85315000Y-113411871D01*
X85315001Y-113411871D01*
X85363112Y-113405537D01*
X85459336Y-113392869D01*
X85593831Y-113337159D01*
X85593832Y-113337159D01*
X85593832Y-113337158D01*
X85593836Y-113337157D01*
X85709333Y-113248533D01*
X85797957Y-113133036D01*
X85835439Y-113042547D01*
X85879280Y-112988143D01*
X85945574Y-112966078D01*
X86013273Y-112983357D01*
X86060884Y-113034494D01*
X86064561Y-113042547D01*
X86102040Y-113133031D01*
X86102040Y-113133032D01*
X86102042Y-113133035D01*
X86102043Y-113133036D01*
X86190667Y-113248533D01*
X86306164Y-113337157D01*
X86306167Y-113337158D01*
X86306168Y-113337159D01*
X86373414Y-113365013D01*
X86440664Y-113392869D01*
X86512832Y-113402370D01*
X86584999Y-113411871D01*
X86585000Y-113411871D01*
X86585001Y-113411871D01*
X86633112Y-113405537D01*
X86729336Y-113392869D01*
X86863831Y-113337159D01*
X86863832Y-113337159D01*
X86863832Y-113337158D01*
X86863836Y-113337157D01*
X86979333Y-113248533D01*
X87067957Y-113133036D01*
X87105439Y-113042547D01*
X87149280Y-112988143D01*
X87215574Y-112966078D01*
X87283273Y-112983357D01*
X87330884Y-113034494D01*
X87334561Y-113042547D01*
X87372040Y-113133031D01*
X87372040Y-113133032D01*
X87372042Y-113133035D01*
X87372043Y-113133036D01*
X87460667Y-113248533D01*
X87576164Y-113337157D01*
X87576167Y-113337158D01*
X87576168Y-113337159D01*
X87643414Y-113365013D01*
X87710664Y-113392869D01*
X87782832Y-113402370D01*
X87854999Y-113411871D01*
X87855000Y-113411871D01*
X87855001Y-113411871D01*
X87903112Y-113405537D01*
X87999336Y-113392869D01*
X88133831Y-113337159D01*
X88133832Y-113337159D01*
X88133832Y-113337158D01*
X88133836Y-113337157D01*
X88249333Y-113248533D01*
X88337957Y-113133036D01*
X88375439Y-113042547D01*
X88419280Y-112988143D01*
X88485574Y-112966078D01*
X88553273Y-112983357D01*
X88600884Y-113034494D01*
X88604561Y-113042547D01*
X88642040Y-113133031D01*
X88642040Y-113133032D01*
X88642042Y-113133035D01*
X88642043Y-113133036D01*
X88730667Y-113248533D01*
X88846164Y-113337157D01*
X88846167Y-113337158D01*
X88846168Y-113337159D01*
X88913414Y-113365013D01*
X88980664Y-113392869D01*
X89052832Y-113402370D01*
X89124999Y-113411871D01*
X89125000Y-113411871D01*
X89125001Y-113411871D01*
X89173112Y-113405537D01*
X89269336Y-113392869D01*
X89403831Y-113337159D01*
X89403832Y-113337159D01*
X89403832Y-113337158D01*
X89403836Y-113337157D01*
X89519333Y-113248533D01*
X89607957Y-113133036D01*
X89645439Y-113042547D01*
X89689280Y-112988143D01*
X89755574Y-112966078D01*
X89823273Y-112983357D01*
X89870884Y-113034494D01*
X89874561Y-113042547D01*
X89912040Y-113133031D01*
X89912040Y-113133032D01*
X89912042Y-113133035D01*
X89912043Y-113133036D01*
X90000667Y-113248533D01*
X90116164Y-113337157D01*
X90116167Y-113337158D01*
X90116168Y-113337159D01*
X90183414Y-113365013D01*
X90250664Y-113392869D01*
X90322832Y-113402370D01*
X90394999Y-113411871D01*
X90395000Y-113411871D01*
X90395001Y-113411871D01*
X90443112Y-113405537D01*
X90539336Y-113392869D01*
X90673831Y-113337159D01*
X90673832Y-113337159D01*
X90673832Y-113337158D01*
X90673836Y-113337157D01*
X90789333Y-113248533D01*
X90877957Y-113133036D01*
X90933669Y-112998536D01*
X90952671Y-112854201D01*
X92377329Y-112854201D01*
X92396330Y-112998534D01*
X92396332Y-112998539D01*
X92452040Y-113133031D01*
X92452040Y-113133032D01*
X92452042Y-113133035D01*
X92452043Y-113133036D01*
X92540667Y-113248533D01*
X92656164Y-113337157D01*
X92656167Y-113337158D01*
X92656168Y-113337159D01*
X92723414Y-113365013D01*
X92790664Y-113392869D01*
X92862832Y-113402370D01*
X92934999Y-113411871D01*
X92935000Y-113411871D01*
X92935001Y-113411871D01*
X92983112Y-113405537D01*
X93079336Y-113392869D01*
X93213831Y-113337159D01*
X93213832Y-113337159D01*
X93213832Y-113337158D01*
X93213836Y-113337157D01*
X93329333Y-113248533D01*
X93417957Y-113133036D01*
X93455439Y-113042547D01*
X93499280Y-112988143D01*
X93565574Y-112966078D01*
X93633273Y-112983357D01*
X93680884Y-113034494D01*
X93684561Y-113042547D01*
X93722040Y-113133031D01*
X93722040Y-113133032D01*
X93722042Y-113133035D01*
X93722043Y-113133036D01*
X93810667Y-113248533D01*
X93926164Y-113337157D01*
X93926167Y-113337158D01*
X93926168Y-113337159D01*
X93993414Y-113365013D01*
X94060664Y-113392869D01*
X94132832Y-113402370D01*
X94204999Y-113411871D01*
X94205000Y-113411871D01*
X94205001Y-113411871D01*
X94253112Y-113405537D01*
X94349336Y-113392869D01*
X94483831Y-113337159D01*
X94483832Y-113337159D01*
X94483832Y-113337158D01*
X94483836Y-113337157D01*
X94599333Y-113248533D01*
X94687957Y-113133036D01*
X94725439Y-113042547D01*
X94769280Y-112988143D01*
X94835574Y-112966078D01*
X94903273Y-112983357D01*
X94950884Y-113034494D01*
X94954561Y-113042547D01*
X94992040Y-113133031D01*
X94992040Y-113133032D01*
X94992042Y-113133035D01*
X94992043Y-113133036D01*
X95080667Y-113248533D01*
X95196164Y-113337157D01*
X95196167Y-113337158D01*
X95196168Y-113337159D01*
X95263414Y-113365013D01*
X95330664Y-113392869D01*
X95402832Y-113402370D01*
X95474999Y-113411871D01*
X95475000Y-113411871D01*
X95475001Y-113411871D01*
X95523112Y-113405537D01*
X95619336Y-113392869D01*
X95753831Y-113337159D01*
X95753832Y-113337159D01*
X95753832Y-113337158D01*
X95753836Y-113337157D01*
X95869333Y-113248533D01*
X95957957Y-113133036D01*
X95995439Y-113042547D01*
X96039280Y-112988143D01*
X96105574Y-112966078D01*
X96173273Y-112983357D01*
X96220884Y-113034494D01*
X96224561Y-113042547D01*
X96262040Y-113133031D01*
X96262040Y-113133032D01*
X96262042Y-113133035D01*
X96262043Y-113133036D01*
X96350667Y-113248533D01*
X96466164Y-113337157D01*
X96466167Y-113337158D01*
X96466168Y-113337159D01*
X96533414Y-113365013D01*
X96600664Y-113392869D01*
X96672832Y-113402370D01*
X96744999Y-113411871D01*
X96745000Y-113411871D01*
X96745001Y-113411871D01*
X96793112Y-113405537D01*
X96889336Y-113392869D01*
X97023831Y-113337159D01*
X97023832Y-113337159D01*
X97023832Y-113337158D01*
X97023836Y-113337157D01*
X97139333Y-113248533D01*
X97227957Y-113133036D01*
X97265439Y-113042547D01*
X97309280Y-112988143D01*
X97375574Y-112966078D01*
X97443273Y-112983357D01*
X97490884Y-113034494D01*
X97494561Y-113042547D01*
X97532040Y-113133031D01*
X97532040Y-113133032D01*
X97532042Y-113133035D01*
X97532043Y-113133036D01*
X97620667Y-113248533D01*
X97736164Y-113337157D01*
X97736167Y-113337158D01*
X97736168Y-113337159D01*
X97803414Y-113365013D01*
X97870664Y-113392869D01*
X97942832Y-113402370D01*
X98014999Y-113411871D01*
X98015000Y-113411871D01*
X98015001Y-113411871D01*
X98063112Y-113405537D01*
X98159336Y-113392869D01*
X98293831Y-113337159D01*
X98293832Y-113337159D01*
X98293832Y-113337158D01*
X98293836Y-113337157D01*
X98409333Y-113248533D01*
X98497957Y-113133036D01*
X98535439Y-113042547D01*
X98579280Y-112988143D01*
X98645574Y-112966078D01*
X98713273Y-112983357D01*
X98760884Y-113034494D01*
X98764561Y-113042547D01*
X98802040Y-113133031D01*
X98802040Y-113133032D01*
X98802042Y-113133035D01*
X98802043Y-113133036D01*
X98890667Y-113248533D01*
X99006164Y-113337157D01*
X99006167Y-113337158D01*
X99006168Y-113337159D01*
X99073414Y-113365013D01*
X99140664Y-113392869D01*
X99212832Y-113402370D01*
X99284999Y-113411871D01*
X99285000Y-113411871D01*
X99285001Y-113411871D01*
X99333112Y-113405537D01*
X99429336Y-113392869D01*
X99563831Y-113337159D01*
X99563832Y-113337159D01*
X99563832Y-113337158D01*
X99563836Y-113337157D01*
X99679333Y-113248533D01*
X99767957Y-113133036D01*
X99805439Y-113042547D01*
X99849280Y-112988143D01*
X99915574Y-112966078D01*
X99983273Y-112983357D01*
X100030884Y-113034494D01*
X100034561Y-113042547D01*
X100072040Y-113133031D01*
X100072040Y-113133032D01*
X100072042Y-113133035D01*
X100072043Y-113133036D01*
X100160667Y-113248533D01*
X100276164Y-113337157D01*
X100276167Y-113337158D01*
X100276168Y-113337159D01*
X100343414Y-113365013D01*
X100410664Y-113392869D01*
X100482832Y-113402370D01*
X100554999Y-113411871D01*
X100555000Y-113411871D01*
X100555001Y-113411871D01*
X100603112Y-113405537D01*
X100699336Y-113392869D01*
X100833831Y-113337159D01*
X100833832Y-113337159D01*
X100833832Y-113337158D01*
X100833836Y-113337157D01*
X100949333Y-113248533D01*
X101037957Y-113133036D01*
X101075439Y-113042547D01*
X101119280Y-112988143D01*
X101185574Y-112966078D01*
X101253273Y-112983357D01*
X101300884Y-113034494D01*
X101304561Y-113042547D01*
X101342040Y-113133031D01*
X101342040Y-113133032D01*
X101342042Y-113133035D01*
X101342043Y-113133036D01*
X101430667Y-113248533D01*
X101546164Y-113337157D01*
X101546167Y-113337158D01*
X101546168Y-113337159D01*
X101613414Y-113365013D01*
X101680664Y-113392869D01*
X101752832Y-113402370D01*
X101824999Y-113411871D01*
X101825000Y-113411871D01*
X101825001Y-113411871D01*
X101873112Y-113405537D01*
X101969336Y-113392869D01*
X102103831Y-113337159D01*
X102103832Y-113337159D01*
X102103832Y-113337158D01*
X102103836Y-113337157D01*
X102219333Y-113248533D01*
X102307957Y-113133036D01*
X102363669Y-112998536D01*
X102382671Y-112854200D01*
X102363669Y-112709864D01*
X102307957Y-112575365D01*
X102219333Y-112459867D01*
X102103836Y-112371243D01*
X102103833Y-112371242D01*
X102103831Y-112371240D01*
X101969339Y-112315532D01*
X101969334Y-112315530D01*
X101825001Y-112296529D01*
X101824999Y-112296529D01*
X101680665Y-112315530D01*
X101680663Y-112315531D01*
X101546165Y-112371242D01*
X101430667Y-112459867D01*
X101342042Y-112575365D01*
X101304561Y-112665853D01*
X101260720Y-112720256D01*
X101194426Y-112742321D01*
X101126726Y-112725042D01*
X101079116Y-112673904D01*
X101075439Y-112665853D01*
X101037957Y-112575365D01*
X100949334Y-112459868D01*
X100942826Y-112454874D01*
X100833836Y-112371243D01*
X100833833Y-112371242D01*
X100833831Y-112371240D01*
X100699339Y-112315532D01*
X100699334Y-112315530D01*
X100555001Y-112296529D01*
X100554999Y-112296529D01*
X100410665Y-112315530D01*
X100410663Y-112315531D01*
X100276165Y-112371242D01*
X100160667Y-112459867D01*
X100072042Y-112575365D01*
X100034561Y-112665853D01*
X99990720Y-112720256D01*
X99924426Y-112742321D01*
X99856726Y-112725042D01*
X99809116Y-112673904D01*
X99805439Y-112665853D01*
X99767957Y-112575365D01*
X99679334Y-112459868D01*
X99672826Y-112454874D01*
X99563836Y-112371243D01*
X99563833Y-112371242D01*
X99563831Y-112371240D01*
X99429339Y-112315532D01*
X99429334Y-112315530D01*
X99285001Y-112296529D01*
X99284999Y-112296529D01*
X99140665Y-112315530D01*
X99140663Y-112315531D01*
X99006165Y-112371242D01*
X98890667Y-112459867D01*
X98802042Y-112575365D01*
X98764561Y-112665853D01*
X98720720Y-112720256D01*
X98654426Y-112742321D01*
X98586726Y-112725042D01*
X98539116Y-112673904D01*
X98535439Y-112665853D01*
X98497957Y-112575365D01*
X98409334Y-112459868D01*
X98402826Y-112454874D01*
X98293836Y-112371243D01*
X98293833Y-112371242D01*
X98293831Y-112371240D01*
X98159339Y-112315532D01*
X98159334Y-112315530D01*
X98015001Y-112296529D01*
X98014999Y-112296529D01*
X97870665Y-112315530D01*
X97870663Y-112315531D01*
X97736165Y-112371242D01*
X97620667Y-112459867D01*
X97532042Y-112575365D01*
X97494561Y-112665853D01*
X97450720Y-112720256D01*
X97384426Y-112742321D01*
X97316726Y-112725042D01*
X97269116Y-112673904D01*
X97265439Y-112665853D01*
X97227957Y-112575365D01*
X97139334Y-112459868D01*
X97132826Y-112454874D01*
X97023836Y-112371243D01*
X97023833Y-112371242D01*
X97023831Y-112371240D01*
X96889339Y-112315532D01*
X96889334Y-112315530D01*
X96745001Y-112296529D01*
X96744999Y-112296529D01*
X96600665Y-112315530D01*
X96600663Y-112315531D01*
X96466165Y-112371242D01*
X96350667Y-112459867D01*
X96262042Y-112575365D01*
X96224561Y-112665853D01*
X96180720Y-112720256D01*
X96114426Y-112742321D01*
X96046726Y-112725042D01*
X95999116Y-112673904D01*
X95995439Y-112665853D01*
X95957957Y-112575365D01*
X95869334Y-112459868D01*
X95862826Y-112454874D01*
X95753836Y-112371243D01*
X95753833Y-112371242D01*
X95753831Y-112371240D01*
X95619339Y-112315532D01*
X95619334Y-112315530D01*
X95475001Y-112296529D01*
X95474999Y-112296529D01*
X95330665Y-112315530D01*
X95330663Y-112315531D01*
X95196165Y-112371242D01*
X95080667Y-112459867D01*
X94992042Y-112575365D01*
X94954561Y-112665853D01*
X94910720Y-112720256D01*
X94844426Y-112742321D01*
X94776726Y-112725042D01*
X94729116Y-112673904D01*
X94725439Y-112665853D01*
X94687957Y-112575365D01*
X94599334Y-112459868D01*
X94592826Y-112454874D01*
X94483836Y-112371243D01*
X94483833Y-112371242D01*
X94483831Y-112371240D01*
X94349339Y-112315532D01*
X94349334Y-112315530D01*
X94205001Y-112296529D01*
X94204999Y-112296529D01*
X94060665Y-112315530D01*
X94060663Y-112315531D01*
X93926165Y-112371242D01*
X93810667Y-112459867D01*
X93722042Y-112575365D01*
X93684561Y-112665853D01*
X93640720Y-112720256D01*
X93574426Y-112742321D01*
X93506726Y-112725042D01*
X93459116Y-112673904D01*
X93455439Y-112665853D01*
X93417957Y-112575365D01*
X93329334Y-112459868D01*
X93322826Y-112454874D01*
X93213836Y-112371243D01*
X93213833Y-112371242D01*
X93213831Y-112371240D01*
X93079339Y-112315532D01*
X93079334Y-112315530D01*
X92935001Y-112296529D01*
X92934999Y-112296529D01*
X92790665Y-112315530D01*
X92790663Y-112315531D01*
X92656165Y-112371242D01*
X92540667Y-112459867D01*
X92452042Y-112575365D01*
X92396331Y-112709863D01*
X92396330Y-112709865D01*
X92377329Y-112854198D01*
X92377329Y-112854201D01*
X90952671Y-112854201D01*
X90952671Y-112854200D01*
X90933669Y-112709864D01*
X90877957Y-112575365D01*
X90789333Y-112459867D01*
X90673836Y-112371243D01*
X90673833Y-112371242D01*
X90673831Y-112371240D01*
X90539339Y-112315532D01*
X90539334Y-112315530D01*
X90395001Y-112296529D01*
X90394999Y-112296529D01*
X90250665Y-112315530D01*
X90250663Y-112315531D01*
X90116165Y-112371242D01*
X90000667Y-112459867D01*
X89912042Y-112575365D01*
X89874561Y-112665853D01*
X89830720Y-112720256D01*
X89764426Y-112742321D01*
X89696726Y-112725042D01*
X89649116Y-112673904D01*
X89645439Y-112665853D01*
X89607957Y-112575365D01*
X89519334Y-112459868D01*
X89512826Y-112454874D01*
X89403836Y-112371243D01*
X89403833Y-112371242D01*
X89403831Y-112371240D01*
X89269339Y-112315532D01*
X89269334Y-112315530D01*
X89125001Y-112296529D01*
X89124999Y-112296529D01*
X88980665Y-112315530D01*
X88980663Y-112315531D01*
X88846165Y-112371242D01*
X88730667Y-112459867D01*
X88642042Y-112575365D01*
X88604561Y-112665853D01*
X88560720Y-112720256D01*
X88494426Y-112742321D01*
X88426726Y-112725042D01*
X88379116Y-112673904D01*
X88375439Y-112665853D01*
X88337957Y-112575365D01*
X88249334Y-112459868D01*
X88242826Y-112454874D01*
X88133836Y-112371243D01*
X88133833Y-112371242D01*
X88133831Y-112371240D01*
X87999339Y-112315532D01*
X87999334Y-112315530D01*
X87855001Y-112296529D01*
X87854999Y-112296529D01*
X87710665Y-112315530D01*
X87710663Y-112315531D01*
X87576165Y-112371242D01*
X87460667Y-112459867D01*
X87372042Y-112575365D01*
X87334561Y-112665853D01*
X87290720Y-112720256D01*
X87224426Y-112742321D01*
X87156726Y-112725042D01*
X87109116Y-112673904D01*
X87105439Y-112665853D01*
X87067957Y-112575365D01*
X86979334Y-112459868D01*
X86972826Y-112454874D01*
X86863836Y-112371243D01*
X86863833Y-112371242D01*
X86863831Y-112371240D01*
X86729339Y-112315532D01*
X86729334Y-112315530D01*
X86585001Y-112296529D01*
X86584999Y-112296529D01*
X86440665Y-112315530D01*
X86440663Y-112315531D01*
X86306165Y-112371242D01*
X86190667Y-112459867D01*
X86102042Y-112575365D01*
X86064561Y-112665853D01*
X86020720Y-112720256D01*
X85954426Y-112742321D01*
X85886726Y-112725042D01*
X85839116Y-112673904D01*
X85835439Y-112665853D01*
X85797957Y-112575365D01*
X85709334Y-112459868D01*
X85702826Y-112454874D01*
X85593836Y-112371243D01*
X85593833Y-112371242D01*
X85593831Y-112371240D01*
X85459339Y-112315532D01*
X85459334Y-112315530D01*
X85315001Y-112296529D01*
X85314999Y-112296529D01*
X85170665Y-112315530D01*
X85170663Y-112315531D01*
X85036165Y-112371242D01*
X84920667Y-112459867D01*
X84832042Y-112575365D01*
X84794561Y-112665853D01*
X84750720Y-112720256D01*
X84684426Y-112742321D01*
X84616726Y-112725042D01*
X84569116Y-112673904D01*
X84565439Y-112665853D01*
X84527957Y-112575365D01*
X84439334Y-112459868D01*
X84432826Y-112454874D01*
X84323836Y-112371243D01*
X84323833Y-112371242D01*
X84323831Y-112371240D01*
X84189339Y-112315532D01*
X84189334Y-112315530D01*
X84045001Y-112296529D01*
X84044999Y-112296529D01*
X83900665Y-112315530D01*
X83900663Y-112315531D01*
X83766165Y-112371242D01*
X83650667Y-112459867D01*
X83562042Y-112575365D01*
X83524561Y-112665853D01*
X83480720Y-112720256D01*
X83414426Y-112742321D01*
X83346726Y-112725042D01*
X83299116Y-112673904D01*
X83295439Y-112665853D01*
X83257957Y-112575365D01*
X83169334Y-112459868D01*
X83162826Y-112454874D01*
X83053836Y-112371243D01*
X83053833Y-112371242D01*
X83053831Y-112371240D01*
X82919339Y-112315532D01*
X82919334Y-112315530D01*
X82775001Y-112296529D01*
X82774999Y-112296529D01*
X82630665Y-112315530D01*
X82630663Y-112315531D01*
X82496165Y-112371242D01*
X82380667Y-112459867D01*
X82292042Y-112575365D01*
X82254561Y-112665853D01*
X82210720Y-112720256D01*
X82144426Y-112742321D01*
X82076726Y-112725042D01*
X82029116Y-112673904D01*
X82025439Y-112665853D01*
X81987957Y-112575365D01*
X81899334Y-112459868D01*
X81892826Y-112454874D01*
X81783836Y-112371243D01*
X81783833Y-112371242D01*
X81783831Y-112371240D01*
X81649339Y-112315532D01*
X81649334Y-112315530D01*
X81505001Y-112296529D01*
X81504999Y-112296529D01*
X81360665Y-112315530D01*
X81360663Y-112315531D01*
X81226165Y-112371242D01*
X81110667Y-112459867D01*
X81022042Y-112575365D01*
X80966331Y-112709863D01*
X80966330Y-112709865D01*
X80947329Y-112854198D01*
X80947329Y-112854201D01*
X79522671Y-112854201D01*
X79522671Y-112854200D01*
X79503669Y-112709864D01*
X79447957Y-112575365D01*
X79359333Y-112459867D01*
X79243836Y-112371243D01*
X79243833Y-112371242D01*
X79243831Y-112371240D01*
X79109339Y-112315532D01*
X79109334Y-112315530D01*
X78965001Y-112296529D01*
X78964999Y-112296529D01*
X78820665Y-112315530D01*
X78820663Y-112315531D01*
X78686165Y-112371242D01*
X78570667Y-112459867D01*
X78482042Y-112575365D01*
X78444561Y-112665853D01*
X78400720Y-112720256D01*
X78334426Y-112742321D01*
X78266726Y-112725042D01*
X78219116Y-112673904D01*
X78215439Y-112665853D01*
X78177957Y-112575365D01*
X78089334Y-112459868D01*
X78082826Y-112454874D01*
X77973836Y-112371243D01*
X77973833Y-112371242D01*
X77973831Y-112371240D01*
X77839339Y-112315532D01*
X77839334Y-112315530D01*
X77695001Y-112296529D01*
X77694999Y-112296529D01*
X77550665Y-112315530D01*
X77550663Y-112315531D01*
X77416165Y-112371242D01*
X77300667Y-112459867D01*
X77212042Y-112575365D01*
X77174561Y-112665853D01*
X77130720Y-112720256D01*
X77064426Y-112742321D01*
X76996726Y-112725042D01*
X76949116Y-112673904D01*
X76945439Y-112665853D01*
X76907957Y-112575365D01*
X76819334Y-112459868D01*
X76812826Y-112454874D01*
X76703836Y-112371243D01*
X76703833Y-112371242D01*
X76703831Y-112371240D01*
X76569339Y-112315532D01*
X76569334Y-112315530D01*
X76425001Y-112296529D01*
X76424999Y-112296529D01*
X76280665Y-112315530D01*
X76280663Y-112315531D01*
X76146165Y-112371242D01*
X76030667Y-112459867D01*
X75942042Y-112575365D01*
X75904561Y-112665853D01*
X75860720Y-112720256D01*
X75794426Y-112742321D01*
X75726726Y-112725042D01*
X75679116Y-112673904D01*
X75675439Y-112665853D01*
X75637957Y-112575365D01*
X75549334Y-112459868D01*
X75542826Y-112454874D01*
X75433836Y-112371243D01*
X75433833Y-112371242D01*
X75433831Y-112371240D01*
X75299339Y-112315532D01*
X75299334Y-112315530D01*
X75155001Y-112296529D01*
X75154999Y-112296529D01*
X75010665Y-112315530D01*
X75010663Y-112315531D01*
X74876165Y-112371242D01*
X74760667Y-112459867D01*
X74672042Y-112575365D01*
X74634561Y-112665853D01*
X74590720Y-112720256D01*
X74524426Y-112742321D01*
X74456726Y-112725042D01*
X74409116Y-112673904D01*
X74405439Y-112665853D01*
X74367957Y-112575365D01*
X74279334Y-112459868D01*
X74272826Y-112454874D01*
X74163836Y-112371243D01*
X74163833Y-112371242D01*
X74163831Y-112371240D01*
X74029339Y-112315532D01*
X74029334Y-112315530D01*
X73885001Y-112296529D01*
X73884999Y-112296529D01*
X73740665Y-112315530D01*
X73740663Y-112315531D01*
X73606165Y-112371242D01*
X73490667Y-112459867D01*
X73402042Y-112575365D01*
X73364561Y-112665853D01*
X73320720Y-112720256D01*
X73254426Y-112742321D01*
X73186726Y-112725042D01*
X73139116Y-112673904D01*
X73135439Y-112665853D01*
X73097957Y-112575365D01*
X73009334Y-112459868D01*
X73002826Y-112454874D01*
X72893836Y-112371243D01*
X72893833Y-112371242D01*
X72893831Y-112371240D01*
X72759339Y-112315532D01*
X72759334Y-112315530D01*
X72615001Y-112296529D01*
X72614999Y-112296529D01*
X72470665Y-112315530D01*
X72470663Y-112315531D01*
X72336165Y-112371242D01*
X72220667Y-112459867D01*
X72132042Y-112575365D01*
X72094561Y-112665853D01*
X72050720Y-112720256D01*
X71984426Y-112742321D01*
X71916726Y-112725042D01*
X71869116Y-112673904D01*
X71865439Y-112665853D01*
X71827957Y-112575365D01*
X71739334Y-112459868D01*
X71732826Y-112454874D01*
X71623836Y-112371243D01*
X71623833Y-112371242D01*
X71623831Y-112371240D01*
X71489339Y-112315532D01*
X71489334Y-112315530D01*
X71345001Y-112296529D01*
X71344999Y-112296529D01*
X71200665Y-112315530D01*
X71200663Y-112315531D01*
X71066165Y-112371242D01*
X70950667Y-112459867D01*
X70862042Y-112575365D01*
X70824561Y-112665853D01*
X70780720Y-112720256D01*
X70714426Y-112742321D01*
X70646726Y-112725042D01*
X70599116Y-112673904D01*
X70595439Y-112665853D01*
X70557957Y-112575365D01*
X70469334Y-112459868D01*
X70462826Y-112454874D01*
X70353836Y-112371243D01*
X70353833Y-112371242D01*
X70353831Y-112371240D01*
X70219339Y-112315532D01*
X70219334Y-112315530D01*
X70075001Y-112296529D01*
X70074999Y-112296529D01*
X69930665Y-112315530D01*
X69930663Y-112315531D01*
X69796165Y-112371242D01*
X69680667Y-112459867D01*
X69592042Y-112575365D01*
X69536331Y-112709863D01*
X69536330Y-112709865D01*
X69517329Y-112854198D01*
X69517329Y-112854201D01*
X68092671Y-112854201D01*
X68092671Y-112854200D01*
X68073669Y-112709864D01*
X68017957Y-112575365D01*
X67929333Y-112459867D01*
X67813836Y-112371243D01*
X67813833Y-112371242D01*
X67813831Y-112371240D01*
X67679339Y-112315532D01*
X67679334Y-112315530D01*
X67535001Y-112296529D01*
X67534999Y-112296529D01*
X67390665Y-112315530D01*
X67390663Y-112315531D01*
X67256165Y-112371242D01*
X67140667Y-112459867D01*
X67052042Y-112575365D01*
X67014561Y-112665853D01*
X66970720Y-112720256D01*
X66904426Y-112742321D01*
X66836726Y-112725042D01*
X66789116Y-112673904D01*
X66785439Y-112665853D01*
X66747957Y-112575365D01*
X66659334Y-112459868D01*
X66652826Y-112454874D01*
X66543836Y-112371243D01*
X66543833Y-112371242D01*
X66543831Y-112371240D01*
X66409339Y-112315532D01*
X66409334Y-112315530D01*
X66265001Y-112296529D01*
X66264999Y-112296529D01*
X66120665Y-112315530D01*
X66120663Y-112315531D01*
X65986165Y-112371242D01*
X65870667Y-112459867D01*
X65782042Y-112575365D01*
X65744561Y-112665853D01*
X65700720Y-112720256D01*
X65634426Y-112742321D01*
X65566726Y-112725042D01*
X65519116Y-112673904D01*
X65515439Y-112665853D01*
X65477957Y-112575365D01*
X65389334Y-112459868D01*
X65382826Y-112454874D01*
X65273836Y-112371243D01*
X65273833Y-112371242D01*
X65273831Y-112371240D01*
X65139339Y-112315532D01*
X65139334Y-112315530D01*
X64995001Y-112296529D01*
X64994999Y-112296529D01*
X64850665Y-112315530D01*
X64850663Y-112315531D01*
X64716165Y-112371242D01*
X64600667Y-112459867D01*
X64512042Y-112575365D01*
X64474561Y-112665853D01*
X64430720Y-112720256D01*
X64364426Y-112742321D01*
X64296726Y-112725042D01*
X64249116Y-112673904D01*
X64245439Y-112665853D01*
X64207957Y-112575365D01*
X64119334Y-112459868D01*
X64112826Y-112454874D01*
X64003836Y-112371243D01*
X64003833Y-112371242D01*
X64003831Y-112371240D01*
X63869339Y-112315532D01*
X63869334Y-112315530D01*
X63725001Y-112296529D01*
X63724999Y-112296529D01*
X63580665Y-112315530D01*
X63580663Y-112315531D01*
X63446165Y-112371242D01*
X63330667Y-112459867D01*
X63242042Y-112575365D01*
X63204561Y-112665853D01*
X63160720Y-112720256D01*
X63094426Y-112742321D01*
X63026726Y-112725042D01*
X62979116Y-112673904D01*
X62975439Y-112665853D01*
X62937957Y-112575365D01*
X62849334Y-112459868D01*
X62842826Y-112454874D01*
X62733836Y-112371243D01*
X62733833Y-112371242D01*
X62733831Y-112371240D01*
X62599339Y-112315532D01*
X62599334Y-112315530D01*
X62455001Y-112296529D01*
X62454999Y-112296529D01*
X62310665Y-112315530D01*
X62310663Y-112315531D01*
X62176165Y-112371242D01*
X62060667Y-112459867D01*
X61972042Y-112575365D01*
X61934561Y-112665853D01*
X61890720Y-112720256D01*
X61824426Y-112742321D01*
X61756726Y-112725042D01*
X61709116Y-112673904D01*
X61705439Y-112665853D01*
X61667957Y-112575365D01*
X61579334Y-112459868D01*
X61572826Y-112454874D01*
X61463836Y-112371243D01*
X61463833Y-112371242D01*
X61463831Y-112371240D01*
X61329339Y-112315532D01*
X61329334Y-112315530D01*
X61185001Y-112296529D01*
X61184999Y-112296529D01*
X61040665Y-112315530D01*
X61040663Y-112315531D01*
X60906165Y-112371242D01*
X60790667Y-112459867D01*
X60702042Y-112575365D01*
X60664561Y-112665853D01*
X60620720Y-112720256D01*
X60554426Y-112742321D01*
X60486726Y-112725042D01*
X60439116Y-112673904D01*
X60435439Y-112665853D01*
X60397957Y-112575365D01*
X60309334Y-112459868D01*
X60302826Y-112454874D01*
X60193836Y-112371243D01*
X60193833Y-112371242D01*
X60193831Y-112371240D01*
X60059339Y-112315532D01*
X60059334Y-112315530D01*
X59915001Y-112296529D01*
X59914999Y-112296529D01*
X59770665Y-112315530D01*
X59770663Y-112315531D01*
X59636165Y-112371242D01*
X59520667Y-112459867D01*
X59432042Y-112575365D01*
X59394561Y-112665853D01*
X59350720Y-112720256D01*
X59284426Y-112742321D01*
X59216726Y-112725042D01*
X59169116Y-112673904D01*
X59165439Y-112665853D01*
X59127957Y-112575365D01*
X59039334Y-112459868D01*
X59032826Y-112454874D01*
X58923836Y-112371243D01*
X58923833Y-112371242D01*
X58923831Y-112371240D01*
X58789339Y-112315532D01*
X58789334Y-112315530D01*
X58645001Y-112296529D01*
X58644999Y-112296529D01*
X58500665Y-112315530D01*
X58500663Y-112315531D01*
X58366165Y-112371242D01*
X58250667Y-112459867D01*
X58162042Y-112575365D01*
X58124561Y-112665853D01*
X58080720Y-112720256D01*
X58014426Y-112742321D01*
X57946726Y-112725042D01*
X57899116Y-112673904D01*
X57895439Y-112665853D01*
X57857957Y-112575365D01*
X57769334Y-112459868D01*
X57762826Y-112454874D01*
X57653836Y-112371243D01*
X57653833Y-112371242D01*
X57653831Y-112371240D01*
X57519339Y-112315532D01*
X57519334Y-112315530D01*
X57375001Y-112296529D01*
X57374999Y-112296529D01*
X57230665Y-112315530D01*
X57230663Y-112315531D01*
X57096165Y-112371242D01*
X56980667Y-112459867D01*
X56892042Y-112575365D01*
X56836331Y-112709863D01*
X56836330Y-112709865D01*
X56817329Y-112854198D01*
X56817329Y-112854201D01*
X53081300Y-112854201D01*
X53081300Y-111381001D01*
X56817329Y-111381001D01*
X56836330Y-111525334D01*
X56836332Y-111525339D01*
X56892040Y-111659831D01*
X56892040Y-111659832D01*
X56892042Y-111659835D01*
X56892043Y-111659836D01*
X56980667Y-111775333D01*
X57096164Y-111863957D01*
X57096167Y-111863958D01*
X57096168Y-111863959D01*
X57163414Y-111891813D01*
X57230664Y-111919669D01*
X57302832Y-111929170D01*
X57374999Y-111938671D01*
X57375000Y-111938671D01*
X57375001Y-111938671D01*
X57423112Y-111932337D01*
X57519336Y-111919669D01*
X57653831Y-111863959D01*
X57653832Y-111863959D01*
X57653832Y-111863958D01*
X57653836Y-111863957D01*
X57769333Y-111775333D01*
X57857957Y-111659836D01*
X57913669Y-111525336D01*
X57932671Y-111381000D01*
X57913669Y-111236664D01*
X57857957Y-111102165D01*
X57828936Y-111064344D01*
X57769334Y-110986668D01*
X57747629Y-110970013D01*
X57653836Y-110898043D01*
X57653833Y-110898042D01*
X57653831Y-110898040D01*
X57519339Y-110842332D01*
X57519334Y-110842330D01*
X57375001Y-110823329D01*
X57374999Y-110823329D01*
X57230665Y-110842330D01*
X57230663Y-110842331D01*
X57096165Y-110898042D01*
X56980667Y-110986667D01*
X56892042Y-111102165D01*
X56836331Y-111236663D01*
X56836330Y-111236665D01*
X56817329Y-111380998D01*
X56817329Y-111381001D01*
X53081300Y-111381001D01*
X53081300Y-110693010D01*
X53081384Y-110692482D01*
X53081300Y-110664923D01*
X53081300Y-110648253D01*
X53081249Y-110647758D01*
X53080968Y-110551031D01*
X53047924Y-110325658D01*
X52983204Y-110107264D01*
X52983201Y-110107258D01*
X52983200Y-110107254D01*
X52933431Y-109998916D01*
X52888119Y-109900277D01*
X52888116Y-109900273D01*
X52888115Y-109900270D01*
X52764599Y-109708896D01*
X52764598Y-109708894D01*
X52615146Y-109536996D01*
X52561141Y-109490332D01*
X52442792Y-109388069D01*
X52251030Y-109265134D01*
X52043753Y-109170682D01*
X52043754Y-109170682D01*
X51867952Y-109119169D01*
X51825164Y-109106631D01*
X51825162Y-109106630D01*
X51825161Y-109106630D01*
X51599685Y-109074276D01*
X51486089Y-109074292D01*
X51306876Y-109070122D01*
X51303222Y-109069500D01*
X51289561Y-109069500D01*
X51270165Y-109067973D01*
X51228587Y-109061388D01*
X51191693Y-109049401D01*
X51162987Y-109034774D01*
X51131603Y-109011972D01*
X51108827Y-108989196D01*
X51086025Y-108957814D01*
X51071397Y-108929102D01*
X51059412Y-108892217D01*
X51052825Y-108850631D01*
X51051300Y-108831241D01*
X51051300Y-105285000D01*
X52785782Y-105285000D01*
X52805726Y-105538424D01*
X52865070Y-105785613D01*
X52962352Y-106020473D01*
X53095174Y-106237217D01*
X53095180Y-106237226D01*
X53260271Y-106430523D01*
X53260276Y-106430528D01*
X53441923Y-106585669D01*
X53453577Y-106595622D01*
X53453582Y-106595625D01*
X53670326Y-106728447D01*
X53905186Y-106825729D01*
X53923968Y-106830238D01*
X54152373Y-106885073D01*
X54405800Y-106905018D01*
X54659227Y-106885073D01*
X54906413Y-106825729D01*
X55141273Y-106728447D01*
X55358023Y-106595622D01*
X55551326Y-106430526D01*
X55716422Y-106237223D01*
X55832991Y-106047001D01*
X109649329Y-106047001D01*
X109668330Y-106191334D01*
X109668332Y-106191339D01*
X109724040Y-106325831D01*
X109724040Y-106325832D01*
X109724042Y-106325835D01*
X109724043Y-106325836D01*
X109812667Y-106441333D01*
X109928164Y-106529957D01*
X109928167Y-106529958D01*
X109928168Y-106529959D01*
X109995414Y-106557813D01*
X110062664Y-106585669D01*
X110134832Y-106595170D01*
X110206999Y-106604671D01*
X110207000Y-106604671D01*
X110207001Y-106604671D01*
X110272780Y-106596011D01*
X110351336Y-106585669D01*
X110485831Y-106529959D01*
X110485832Y-106529959D01*
X110485832Y-106529958D01*
X110485836Y-106529957D01*
X110601333Y-106441333D01*
X110689957Y-106325836D01*
X110745669Y-106191336D01*
X110764671Y-106047000D01*
X110757860Y-105995268D01*
X110745669Y-105902665D01*
X110745669Y-105902664D01*
X110689957Y-105768165D01*
X110601333Y-105652667D01*
X110485836Y-105564043D01*
X110485833Y-105564042D01*
X110485831Y-105564040D01*
X110351339Y-105508332D01*
X110351334Y-105508330D01*
X110207001Y-105489329D01*
X110206999Y-105489329D01*
X110062665Y-105508330D01*
X110062663Y-105508331D01*
X109928165Y-105564042D01*
X109812667Y-105652667D01*
X109724042Y-105768165D01*
X109668331Y-105902663D01*
X109668330Y-105902665D01*
X109649329Y-106046998D01*
X109649329Y-106047001D01*
X55832991Y-106047001D01*
X55849247Y-106020473D01*
X55946529Y-105785613D01*
X56005873Y-105538427D01*
X56025818Y-105285000D01*
X153875505Y-105285000D01*
X153895456Y-105538504D01*
X153954817Y-105785760D01*
X153954817Y-105785761D01*
X154052125Y-106020685D01*
X154052127Y-106020688D01*
X154184988Y-106237497D01*
X154184989Y-106237500D01*
X154184992Y-106237503D01*
X154350137Y-106430863D01*
X154466161Y-106529957D01*
X154543499Y-106596010D01*
X154543502Y-106596011D01*
X154760311Y-106728872D01*
X154760314Y-106728874D01*
X154995239Y-106826182D01*
X155207425Y-106877123D01*
X155242499Y-106885544D01*
X155496000Y-106905495D01*
X155749501Y-106885544D01*
X155996760Y-106826182D01*
X155996761Y-106826182D01*
X156231685Y-106728874D01*
X156231686Y-106728873D01*
X156231689Y-106728872D01*
X156448503Y-106596008D01*
X156641863Y-106430863D01*
X156807008Y-106237503D01*
X156939872Y-106020689D01*
X156939874Y-106020685D01*
X157037182Y-105785761D01*
X157037182Y-105785760D01*
X157090412Y-105564042D01*
X157096544Y-105538501D01*
X157116495Y-105285000D01*
X157096544Y-105031499D01*
X157088123Y-104996425D01*
X157037182Y-104784239D01*
X157037182Y-104784238D01*
X156939874Y-104549314D01*
X156939872Y-104549311D01*
X156807011Y-104332502D01*
X156807010Y-104332499D01*
X156675679Y-104178731D01*
X156641863Y-104139137D01*
X156514023Y-104029951D01*
X156448500Y-103973989D01*
X156448497Y-103973988D01*
X156231688Y-103841127D01*
X156231685Y-103841125D01*
X155996760Y-103743817D01*
X155749504Y-103684456D01*
X155496000Y-103664505D01*
X155242495Y-103684456D01*
X154995239Y-103743817D01*
X154995238Y-103743817D01*
X154760314Y-103841125D01*
X154760311Y-103841127D01*
X154543502Y-103973988D01*
X154543499Y-103973989D01*
X154350137Y-104139137D01*
X154184989Y-104332499D01*
X154184988Y-104332502D01*
X154052127Y-104549311D01*
X154052125Y-104549314D01*
X153954817Y-104784238D01*
X153954817Y-104784239D01*
X153895456Y-105031495D01*
X153875505Y-105285000D01*
X56025818Y-105285000D01*
X56005873Y-105031573D01*
X55946529Y-104784387D01*
X55946469Y-104784240D01*
X55849247Y-104549526D01*
X55716425Y-104332782D01*
X55716419Y-104332773D01*
X55551328Y-104139476D01*
X55551323Y-104139471D01*
X55358026Y-103974380D01*
X55358017Y-103974374D01*
X55141273Y-103841552D01*
X54906413Y-103744270D01*
X54659223Y-103684926D01*
X54659224Y-103684926D01*
X54405800Y-103664982D01*
X54152375Y-103684926D01*
X53905186Y-103744270D01*
X53670326Y-103841552D01*
X53453582Y-103974374D01*
X53453573Y-103974380D01*
X53260276Y-104139471D01*
X53260271Y-104139476D01*
X53095180Y-104332773D01*
X53095174Y-104332782D01*
X52962352Y-104549526D01*
X52865070Y-104784386D01*
X52805726Y-105031575D01*
X52785782Y-105285000D01*
X51051300Y-105285000D01*
X51051300Y-102725502D01*
X51051298Y-102725488D01*
X51051293Y-102618001D01*
X75740329Y-102618001D01*
X75759330Y-102762334D01*
X75759332Y-102762339D01*
X75815040Y-102896831D01*
X75815040Y-102896832D01*
X75815042Y-102896835D01*
X75815043Y-102896836D01*
X75903667Y-103012333D01*
X76019164Y-103100957D01*
X76019167Y-103100958D01*
X76019168Y-103100959D01*
X76086414Y-103128813D01*
X76153664Y-103156669D01*
X76225832Y-103166170D01*
X76297999Y-103175671D01*
X76298000Y-103175671D01*
X76298001Y-103175671D01*
X76346112Y-103169337D01*
X76442336Y-103156669D01*
X76576831Y-103100959D01*
X76576832Y-103100959D01*
X76576832Y-103100958D01*
X76576836Y-103100957D01*
X76692333Y-103012333D01*
X76780957Y-102896836D01*
X76836669Y-102762336D01*
X76855671Y-102618000D01*
X76836669Y-102473664D01*
X76780957Y-102339165D01*
X76692333Y-102223667D01*
X76576836Y-102135043D01*
X76576833Y-102135042D01*
X76576831Y-102135040D01*
X76442339Y-102079332D01*
X76442334Y-102079330D01*
X76298001Y-102060329D01*
X76297999Y-102060329D01*
X76153665Y-102079330D01*
X76153663Y-102079331D01*
X76019165Y-102135042D01*
X75903667Y-102223667D01*
X75815042Y-102339165D01*
X75759331Y-102473663D01*
X75759330Y-102473665D01*
X75740329Y-102617998D01*
X75740329Y-102618001D01*
X51051293Y-102618001D01*
X51051228Y-101094001D01*
X76883329Y-101094001D01*
X76902330Y-101238334D01*
X76902332Y-101238339D01*
X76958040Y-101372831D01*
X76958040Y-101372832D01*
X76958042Y-101372835D01*
X76958043Y-101372836D01*
X77046667Y-101488333D01*
X77162164Y-101576957D01*
X77162167Y-101576958D01*
X77162168Y-101576959D01*
X77229414Y-101604813D01*
X77296664Y-101632669D01*
X77368832Y-101642170D01*
X77440999Y-101651671D01*
X77441000Y-101651671D01*
X77441001Y-101651671D01*
X77489112Y-101645337D01*
X77585336Y-101632669D01*
X77719831Y-101576959D01*
X77719832Y-101576959D01*
X77719832Y-101576958D01*
X77719836Y-101576957D01*
X77835333Y-101488333D01*
X77879249Y-101431101D01*
X110157329Y-101431101D01*
X110176330Y-101575434D01*
X110176332Y-101575439D01*
X110232040Y-101709931D01*
X110232040Y-101709932D01*
X110232042Y-101709935D01*
X110232043Y-101709936D01*
X110320667Y-101825433D01*
X110436164Y-101914057D01*
X110436167Y-101914058D01*
X110436168Y-101914059D01*
X110503414Y-101941913D01*
X110570664Y-101969769D01*
X110642832Y-101979270D01*
X110714999Y-101988771D01*
X110715000Y-101988771D01*
X110715001Y-101988771D01*
X110763112Y-101982437D01*
X110859336Y-101969769D01*
X110993831Y-101914059D01*
X110993832Y-101914059D01*
X110993832Y-101914058D01*
X110993836Y-101914057D01*
X111109333Y-101825433D01*
X111197957Y-101709936D01*
X111253669Y-101575436D01*
X111272671Y-101431100D01*
X111265000Y-101372836D01*
X111253669Y-101286765D01*
X111253669Y-101286764D01*
X111197957Y-101152265D01*
X111176782Y-101124669D01*
X111109334Y-101036768D01*
X111109333Y-101036767D01*
X110993836Y-100948143D01*
X110993833Y-100948142D01*
X110993831Y-100948140D01*
X110859339Y-100892432D01*
X110859334Y-100892430D01*
X110715001Y-100873429D01*
X110714999Y-100873429D01*
X110570665Y-100892430D01*
X110570663Y-100892431D01*
X110436165Y-100948142D01*
X110320667Y-101036767D01*
X110232042Y-101152265D01*
X110176331Y-101286763D01*
X110176330Y-101286765D01*
X110157329Y-101431098D01*
X110157329Y-101431101D01*
X77879249Y-101431101D01*
X77923957Y-101372836D01*
X77979669Y-101238336D01*
X77998671Y-101094000D01*
X77995374Y-101068959D01*
X77979669Y-100949665D01*
X77979669Y-100949664D01*
X77923957Y-100815165D01*
X77858866Y-100730336D01*
X77835334Y-100699668D01*
X77835333Y-100699667D01*
X77719836Y-100611043D01*
X77719833Y-100611042D01*
X77719831Y-100611040D01*
X77659381Y-100586001D01*
X101020229Y-100586001D01*
X101039230Y-100730334D01*
X101039232Y-100730339D01*
X101094940Y-100864831D01*
X101094940Y-100864832D01*
X101094942Y-100864835D01*
X101094943Y-100864836D01*
X101183567Y-100980333D01*
X101299064Y-101068957D01*
X101299067Y-101068958D01*
X101299068Y-101068959D01*
X101359518Y-101093998D01*
X101433564Y-101124669D01*
X101505732Y-101134170D01*
X101577899Y-101143671D01*
X101577900Y-101143671D01*
X101577901Y-101143671D01*
X101626012Y-101137337D01*
X101722236Y-101124669D01*
X101856731Y-101068959D01*
X101856732Y-101068959D01*
X101856732Y-101068958D01*
X101856736Y-101068957D01*
X101972233Y-100980333D01*
X102060857Y-100864836D01*
X102116569Y-100730336D01*
X102132274Y-100611042D01*
X102135571Y-100586001D01*
X102135571Y-100585998D01*
X102116569Y-100441665D01*
X102116569Y-100441664D01*
X102060857Y-100307165D01*
X102001517Y-100229831D01*
X101972234Y-100191668D01*
X101972233Y-100191667D01*
X101856736Y-100103043D01*
X101856733Y-100103042D01*
X101856731Y-100103040D01*
X101722239Y-100047332D01*
X101722234Y-100047330D01*
X101577901Y-100028329D01*
X101577899Y-100028329D01*
X101433565Y-100047330D01*
X101433563Y-100047331D01*
X101299065Y-100103042D01*
X101183567Y-100191667D01*
X101094942Y-100307165D01*
X101039231Y-100441663D01*
X101039230Y-100441665D01*
X101020229Y-100585998D01*
X101020229Y-100586001D01*
X77659381Y-100586001D01*
X77585339Y-100555332D01*
X77585334Y-100555330D01*
X77441001Y-100536329D01*
X77440999Y-100536329D01*
X77296665Y-100555330D01*
X77296663Y-100555331D01*
X77162165Y-100611042D01*
X77046667Y-100699667D01*
X76958042Y-100815165D01*
X76902331Y-100949663D01*
X76902330Y-100949665D01*
X76883329Y-101093998D01*
X76883329Y-101094001D01*
X51051228Y-101094001D01*
X51051173Y-99824001D01*
X77645329Y-99824001D01*
X77664330Y-99968334D01*
X77664332Y-99968339D01*
X77720040Y-100102831D01*
X77720040Y-100102832D01*
X77720042Y-100102835D01*
X77720043Y-100102836D01*
X77808667Y-100218333D01*
X77924164Y-100306957D01*
X77924167Y-100306958D01*
X77924168Y-100306959D01*
X77991414Y-100334813D01*
X78058664Y-100362669D01*
X78130832Y-100372170D01*
X78202999Y-100381671D01*
X78203000Y-100381671D01*
X78203001Y-100381671D01*
X78251112Y-100375337D01*
X78347336Y-100362669D01*
X78481831Y-100306959D01*
X78481832Y-100306959D01*
X78481832Y-100306958D01*
X78481836Y-100306957D01*
X78597333Y-100218333D01*
X78685957Y-100102836D01*
X78741669Y-99968336D01*
X78760671Y-99824000D01*
X78741669Y-99679664D01*
X78685957Y-99545165D01*
X78626617Y-99467831D01*
X78607565Y-99443001D01*
X102036229Y-99443001D01*
X102055230Y-99587334D01*
X102055232Y-99587339D01*
X102110940Y-99721831D01*
X102110940Y-99721832D01*
X102110942Y-99721835D01*
X102110943Y-99721836D01*
X102199567Y-99837333D01*
X102315064Y-99925957D01*
X102315067Y-99925958D01*
X102315068Y-99925959D01*
X102375518Y-99950998D01*
X102449564Y-99981669D01*
X102521732Y-99991170D01*
X102593899Y-100000671D01*
X102593900Y-100000671D01*
X102593901Y-100000671D01*
X102642012Y-99994337D01*
X102738236Y-99981669D01*
X102812275Y-99951001D01*
X116888329Y-99951001D01*
X116907330Y-100095334D01*
X116907332Y-100095339D01*
X116963040Y-100229831D01*
X116963040Y-100229832D01*
X116963042Y-100229835D01*
X116963043Y-100229836D01*
X117051667Y-100345333D01*
X117167164Y-100433957D01*
X117167167Y-100433958D01*
X117167168Y-100433959D01*
X117234414Y-100461813D01*
X117301664Y-100489669D01*
X117373832Y-100499170D01*
X117445999Y-100508671D01*
X117446000Y-100508671D01*
X117446001Y-100508671D01*
X117494112Y-100502337D01*
X117590336Y-100489669D01*
X117724831Y-100433959D01*
X117724832Y-100433959D01*
X117724832Y-100433958D01*
X117724836Y-100433957D01*
X117840333Y-100345333D01*
X117928957Y-100229836D01*
X117984669Y-100095336D01*
X118003671Y-99951000D01*
X117984669Y-99806664D01*
X117972054Y-99776210D01*
X117964586Y-99706745D01*
X117995860Y-99644265D01*
X118055949Y-99608612D01*
X118102799Y-99605821D01*
X118208000Y-99619671D01*
X118208001Y-99619671D01*
X118292002Y-99608612D01*
X118352336Y-99600669D01*
X118486831Y-99544959D01*
X118486832Y-99544959D01*
X118486832Y-99544958D01*
X118486836Y-99544957D01*
X118602333Y-99456333D01*
X118690957Y-99340836D01*
X118746669Y-99206336D01*
X118748951Y-99189001D01*
X126794329Y-99189001D01*
X126813330Y-99333334D01*
X126813332Y-99333339D01*
X126869040Y-99467831D01*
X126869040Y-99467832D01*
X126869042Y-99467835D01*
X126869043Y-99467836D01*
X126957667Y-99583333D01*
X127073164Y-99671957D01*
X127073167Y-99671958D01*
X127073168Y-99671959D01*
X127140414Y-99699813D01*
X127207664Y-99727669D01*
X127279832Y-99737170D01*
X127351999Y-99746671D01*
X127352000Y-99746671D01*
X127352001Y-99746671D01*
X127400112Y-99740337D01*
X127496336Y-99727669D01*
X127630831Y-99671959D01*
X127630832Y-99671959D01*
X127630832Y-99671958D01*
X127630836Y-99671957D01*
X127746333Y-99583333D01*
X127834957Y-99467836D01*
X127890669Y-99333336D01*
X127909671Y-99189000D01*
X127906401Y-99164165D01*
X127890669Y-99044665D01*
X127890669Y-99044664D01*
X127834957Y-98910165D01*
X127769866Y-98825336D01*
X127746334Y-98794668D01*
X127731343Y-98783165D01*
X127630836Y-98706043D01*
X127630833Y-98706042D01*
X127630831Y-98706040D01*
X127496339Y-98650332D01*
X127496334Y-98650330D01*
X127352001Y-98631329D01*
X127351999Y-98631329D01*
X127207665Y-98650330D01*
X127207663Y-98650331D01*
X127073165Y-98706042D01*
X126957667Y-98794667D01*
X126869042Y-98910165D01*
X126813331Y-99044663D01*
X126813330Y-99044665D01*
X126794329Y-99188998D01*
X126794329Y-99189001D01*
X118748951Y-99189001D01*
X118765671Y-99062000D01*
X118755785Y-98986908D01*
X118766550Y-98917874D01*
X118812930Y-98865618D01*
X118880199Y-98846733D01*
X118894904Y-98847784D01*
X118970000Y-98857671D01*
X118970001Y-98857671D01*
X119045092Y-98847785D01*
X119114336Y-98838669D01*
X119248831Y-98782959D01*
X119248832Y-98782959D01*
X119248832Y-98782958D01*
X119248836Y-98782957D01*
X119364333Y-98694333D01*
X119452957Y-98578836D01*
X119463244Y-98554001D01*
X125397329Y-98554001D01*
X125416330Y-98698334D01*
X125416332Y-98698339D01*
X125472040Y-98832831D01*
X125472040Y-98832832D01*
X125472042Y-98832835D01*
X125472043Y-98832836D01*
X125560667Y-98948333D01*
X125676164Y-99036957D01*
X125676167Y-99036958D01*
X125676168Y-99036959D01*
X125736618Y-99061998D01*
X125810664Y-99092669D01*
X125882832Y-99102170D01*
X125954999Y-99111671D01*
X125955000Y-99111671D01*
X125955001Y-99111671D01*
X126003112Y-99105337D01*
X126099336Y-99092669D01*
X126233831Y-99036959D01*
X126233832Y-99036959D01*
X126233832Y-99036958D01*
X126233836Y-99036957D01*
X126349333Y-98948333D01*
X126437957Y-98832836D01*
X126493669Y-98698336D01*
X126512671Y-98554000D01*
X126509374Y-98528959D01*
X126493669Y-98409665D01*
X126493669Y-98409664D01*
X126437957Y-98275165D01*
X126378779Y-98198042D01*
X126349334Y-98159668D01*
X126344115Y-98155663D01*
X126233836Y-98071043D01*
X126233833Y-98071042D01*
X126233831Y-98071040D01*
X126173381Y-98046001D01*
X134668329Y-98046001D01*
X134687330Y-98190334D01*
X134687332Y-98190339D01*
X134743040Y-98324831D01*
X134743040Y-98324832D01*
X134743042Y-98324835D01*
X134743043Y-98324836D01*
X134831667Y-98440333D01*
X134947164Y-98528957D01*
X134947167Y-98528958D01*
X134947168Y-98528959D01*
X135007618Y-98553998D01*
X135081664Y-98584669D01*
X135153832Y-98594170D01*
X135225999Y-98603671D01*
X135226000Y-98603671D01*
X135226001Y-98603671D01*
X135274112Y-98597337D01*
X135370336Y-98584669D01*
X135504831Y-98528959D01*
X135504832Y-98528959D01*
X135504832Y-98528958D01*
X135504836Y-98528957D01*
X135620333Y-98440333D01*
X135708957Y-98324836D01*
X135764669Y-98190336D01*
X135780374Y-98071042D01*
X135783671Y-98046001D01*
X135783671Y-98045998D01*
X135771003Y-97949776D01*
X135764669Y-97901664D01*
X135708957Y-97767165D01*
X135643866Y-97682336D01*
X135620334Y-97651668D01*
X135604866Y-97639799D01*
X135504836Y-97563043D01*
X135504833Y-97563042D01*
X135504831Y-97563040D01*
X135370339Y-97507332D01*
X135370334Y-97507330D01*
X135226001Y-97488329D01*
X135225999Y-97488329D01*
X135081665Y-97507330D01*
X135081663Y-97507331D01*
X134947165Y-97563042D01*
X134831667Y-97651667D01*
X134743042Y-97767165D01*
X134687331Y-97901663D01*
X134687330Y-97901665D01*
X134668329Y-98045998D01*
X134668329Y-98046001D01*
X126173381Y-98046001D01*
X126099339Y-98015332D01*
X126099334Y-98015330D01*
X125955001Y-97996329D01*
X125954999Y-97996329D01*
X125810665Y-98015330D01*
X125810663Y-98015331D01*
X125676165Y-98071042D01*
X125560667Y-98159667D01*
X125472042Y-98275165D01*
X125416331Y-98409663D01*
X125416330Y-98409665D01*
X125397329Y-98553998D01*
X125397329Y-98554001D01*
X119463244Y-98554001D01*
X119508669Y-98444336D01*
X119527671Y-98300000D01*
X119517785Y-98224908D01*
X119528550Y-98155874D01*
X119574930Y-98103618D01*
X119642199Y-98084733D01*
X119656904Y-98085784D01*
X119732000Y-98095671D01*
X119732001Y-98095671D01*
X119807092Y-98085785D01*
X119876336Y-98076669D01*
X120010831Y-98020959D01*
X120010832Y-98020959D01*
X120010832Y-98020958D01*
X120010836Y-98020957D01*
X120126333Y-97932333D01*
X120214957Y-97816836D01*
X120270669Y-97682336D01*
X120286374Y-97563042D01*
X120289671Y-97538001D01*
X120289671Y-97538000D01*
X120288122Y-97526234D01*
X120279785Y-97462908D01*
X120290550Y-97393874D01*
X120336930Y-97341618D01*
X120404199Y-97322733D01*
X120418904Y-97323784D01*
X120494000Y-97333671D01*
X120494001Y-97333671D01*
X120569092Y-97323785D01*
X120638336Y-97314669D01*
X120772831Y-97258959D01*
X120772832Y-97258959D01*
X120772832Y-97258958D01*
X120772836Y-97258957D01*
X120888333Y-97170333D01*
X120976957Y-97054836D01*
X121032669Y-96920336D01*
X121034951Y-96903001D01*
X128826329Y-96903001D01*
X128845330Y-97047334D01*
X128845332Y-97047339D01*
X128901040Y-97181831D01*
X128901040Y-97181832D01*
X128901042Y-97181835D01*
X128901043Y-97181836D01*
X128989667Y-97297333D01*
X129105164Y-97385957D01*
X129105167Y-97385958D01*
X129105168Y-97385959D01*
X129124277Y-97393874D01*
X129239664Y-97441669D01*
X129311832Y-97451170D01*
X129383999Y-97460671D01*
X129384000Y-97460671D01*
X129384001Y-97460671D01*
X129432112Y-97454337D01*
X129528336Y-97441669D01*
X129662831Y-97385959D01*
X129662832Y-97385959D01*
X129662832Y-97385958D01*
X129662836Y-97385957D01*
X129778333Y-97297333D01*
X129866957Y-97181836D01*
X129922669Y-97047336D01*
X129941671Y-96903000D01*
X129941136Y-96898940D01*
X129926706Y-96789332D01*
X129922669Y-96758664D01*
X129877245Y-96649001D01*
X136827329Y-96649001D01*
X136846330Y-96793334D01*
X136846332Y-96793339D01*
X136902040Y-96927831D01*
X136902040Y-96927832D01*
X136902042Y-96927835D01*
X136902043Y-96927836D01*
X136990667Y-97043333D01*
X137106164Y-97131957D01*
X137106167Y-97131958D01*
X137106168Y-97131959D01*
X137134434Y-97143667D01*
X137240664Y-97187669D01*
X137312832Y-97197170D01*
X137384999Y-97206671D01*
X137385000Y-97206671D01*
X137385001Y-97206671D01*
X137433112Y-97200337D01*
X137529336Y-97187669D01*
X137663831Y-97131959D01*
X137663832Y-97131959D01*
X137663832Y-97131958D01*
X137663836Y-97131957D01*
X137779333Y-97043333D01*
X137867957Y-96927836D01*
X137923669Y-96793336D01*
X137942671Y-96649000D01*
X137940416Y-96631874D01*
X137923669Y-96504665D01*
X137923669Y-96504664D01*
X137867957Y-96370165D01*
X137808617Y-96292831D01*
X137779334Y-96254668D01*
X137756739Y-96237330D01*
X137663836Y-96166043D01*
X137663833Y-96166042D01*
X137663831Y-96166040D01*
X137529339Y-96110332D01*
X137529334Y-96110330D01*
X137385001Y-96091329D01*
X137384999Y-96091329D01*
X137240665Y-96110330D01*
X137240663Y-96110331D01*
X137106165Y-96166042D01*
X136990667Y-96254667D01*
X136902042Y-96370165D01*
X136846331Y-96504663D01*
X136846330Y-96504665D01*
X136827329Y-96648998D01*
X136827329Y-96649001D01*
X129877245Y-96649001D01*
X129866957Y-96624165D01*
X129838971Y-96587692D01*
X129813778Y-96522525D01*
X129814374Y-96519618D01*
X129773526Y-96504935D01*
X129771164Y-96503166D01*
X129662836Y-96420043D01*
X129662831Y-96420040D01*
X129528339Y-96364332D01*
X129528334Y-96364330D01*
X129384001Y-96345329D01*
X129383999Y-96345329D01*
X129239665Y-96364330D01*
X129239663Y-96364331D01*
X129105165Y-96420042D01*
X128989667Y-96508667D01*
X128901042Y-96624165D01*
X128845331Y-96758663D01*
X128845330Y-96758665D01*
X128826329Y-96902998D01*
X128826329Y-96903001D01*
X121034951Y-96903001D01*
X121051671Y-96776000D01*
X121041785Y-96700908D01*
X121052550Y-96631874D01*
X121098930Y-96579618D01*
X121166199Y-96560733D01*
X121180904Y-96561784D01*
X121256000Y-96571671D01*
X121256001Y-96571671D01*
X121331092Y-96561785D01*
X121400336Y-96552669D01*
X121534831Y-96496959D01*
X121534832Y-96496959D01*
X121534832Y-96496958D01*
X121534836Y-96496957D01*
X121650333Y-96408333D01*
X121738957Y-96292836D01*
X121794669Y-96158336D01*
X121813671Y-96014001D01*
X129842329Y-96014001D01*
X129861330Y-96158334D01*
X129861332Y-96158339D01*
X129917040Y-96292831D01*
X129917040Y-96292832D01*
X129917042Y-96292835D01*
X129917043Y-96292836D01*
X129945026Y-96329305D01*
X129970220Y-96394472D01*
X129969623Y-96397379D01*
X130010472Y-96412064D01*
X130012772Y-96413784D01*
X130121164Y-96496957D01*
X130121167Y-96496958D01*
X130121168Y-96496959D01*
X130149434Y-96508667D01*
X130255664Y-96552669D01*
X130316917Y-96560733D01*
X130399999Y-96571671D01*
X130400000Y-96571671D01*
X130400001Y-96571671D01*
X130475092Y-96561785D01*
X130544336Y-96552669D01*
X130678831Y-96496959D01*
X130678832Y-96496959D01*
X130678832Y-96496958D01*
X130678836Y-96496957D01*
X130794333Y-96408333D01*
X130882957Y-96292836D01*
X130938669Y-96158336D01*
X130957671Y-96014000D01*
X130938669Y-95869664D01*
X130882957Y-95735165D01*
X130863519Y-95709833D01*
X130794334Y-95619668D01*
X130794333Y-95619667D01*
X130678836Y-95531043D01*
X130678833Y-95531042D01*
X130678831Y-95531040D01*
X130544339Y-95475332D01*
X130544334Y-95475330D01*
X130400001Y-95456329D01*
X130399999Y-95456329D01*
X130255665Y-95475330D01*
X130255663Y-95475331D01*
X130121165Y-95531042D01*
X130005667Y-95619667D01*
X129917042Y-95735165D01*
X129861331Y-95869663D01*
X129861330Y-95869665D01*
X129842329Y-96013998D01*
X129842329Y-96014001D01*
X121813671Y-96014001D01*
X121813671Y-96014000D01*
X121803785Y-95938908D01*
X121814550Y-95869874D01*
X121860930Y-95817618D01*
X121928199Y-95798733D01*
X121942904Y-95799784D01*
X122018000Y-95809671D01*
X122018001Y-95809671D01*
X122093092Y-95799785D01*
X122162336Y-95790669D01*
X122296831Y-95734959D01*
X122296832Y-95734959D01*
X122296832Y-95734958D01*
X122296836Y-95734957D01*
X122412333Y-95646333D01*
X122500957Y-95530836D01*
X122556669Y-95396336D01*
X122567311Y-95315501D01*
X135874829Y-95315501D01*
X135893830Y-95459834D01*
X135893832Y-95459839D01*
X135949540Y-95594331D01*
X135949540Y-95594332D01*
X135949542Y-95594335D01*
X135949543Y-95594336D01*
X136038167Y-95709833D01*
X136153664Y-95798457D01*
X136153667Y-95798458D01*
X136153668Y-95798459D01*
X136220914Y-95826313D01*
X136288164Y-95854169D01*
X136360332Y-95863670D01*
X136432499Y-95873171D01*
X136432500Y-95873171D01*
X136432501Y-95873171D01*
X136480612Y-95866837D01*
X136576836Y-95854169D01*
X136711331Y-95798459D01*
X136711332Y-95798459D01*
X136711332Y-95798458D01*
X136711336Y-95798457D01*
X136826833Y-95709833D01*
X136915457Y-95594336D01*
X136971169Y-95459836D01*
X136990171Y-95315500D01*
X136988350Y-95301671D01*
X136971169Y-95171165D01*
X136971169Y-95171164D01*
X136915457Y-95036665D01*
X136826833Y-94921167D01*
X136711336Y-94832543D01*
X136711333Y-94832542D01*
X136711331Y-94832540D01*
X136576839Y-94776832D01*
X136576834Y-94776830D01*
X136432501Y-94757829D01*
X136432499Y-94757829D01*
X136288165Y-94776830D01*
X136288163Y-94776831D01*
X136153665Y-94832542D01*
X136038167Y-94921167D01*
X135949542Y-95036665D01*
X135893831Y-95171163D01*
X135893830Y-95171165D01*
X135874829Y-95315498D01*
X135874829Y-95315501D01*
X122567311Y-95315501D01*
X122575671Y-95252000D01*
X122565785Y-95176908D01*
X122576550Y-95107874D01*
X122622930Y-95055618D01*
X122690199Y-95036733D01*
X122704904Y-95037784D01*
X122780000Y-95047671D01*
X122780001Y-95047671D01*
X122855092Y-95037785D01*
X122924336Y-95028669D01*
X123058831Y-94972959D01*
X123058832Y-94972959D01*
X123058832Y-94972958D01*
X123058836Y-94972957D01*
X123174333Y-94884333D01*
X123262957Y-94768836D01*
X123273244Y-94744001D01*
X145717329Y-94744001D01*
X145736330Y-94888334D01*
X145736332Y-94888339D01*
X145792040Y-95022831D01*
X145792040Y-95022832D01*
X145792042Y-95022835D01*
X145792043Y-95022836D01*
X145880667Y-95138333D01*
X145996164Y-95226957D01*
X145996167Y-95226958D01*
X145996168Y-95226959D01*
X146056618Y-95251998D01*
X146130664Y-95282669D01*
X146202832Y-95292170D01*
X146274999Y-95301671D01*
X146275000Y-95301671D01*
X146275001Y-95301671D01*
X146323112Y-95295337D01*
X146419336Y-95282669D01*
X146553831Y-95226959D01*
X146553832Y-95226959D01*
X146553832Y-95226958D01*
X146553836Y-95226957D01*
X146669333Y-95138333D01*
X146757957Y-95022836D01*
X146813669Y-94888336D01*
X146832671Y-94744000D01*
X146828633Y-94713331D01*
X146813669Y-94599665D01*
X146813669Y-94599664D01*
X146757957Y-94465165D01*
X146733605Y-94433429D01*
X146669334Y-94349668D01*
X146664115Y-94345663D01*
X146553836Y-94261043D01*
X146553833Y-94261042D01*
X146553831Y-94261040D01*
X146419339Y-94205332D01*
X146419334Y-94205330D01*
X146275001Y-94186329D01*
X146274999Y-94186329D01*
X146130665Y-94205330D01*
X146130663Y-94205331D01*
X145996165Y-94261042D01*
X145880667Y-94349667D01*
X145792042Y-94465165D01*
X145736331Y-94599663D01*
X145736330Y-94599665D01*
X145717329Y-94743998D01*
X145717329Y-94744001D01*
X123273244Y-94744001D01*
X123318669Y-94634336D01*
X123333634Y-94520667D01*
X123337671Y-94490001D01*
X123337671Y-94489998D01*
X123318669Y-94345665D01*
X123318669Y-94345664D01*
X123262957Y-94211165D01*
X123197866Y-94126336D01*
X123174334Y-94095668D01*
X123174333Y-94095667D01*
X123058836Y-94007043D01*
X123058833Y-94007042D01*
X123058831Y-94007040D01*
X122998381Y-93982001D01*
X134414329Y-93982001D01*
X134433330Y-94126334D01*
X134433332Y-94126339D01*
X134489040Y-94260831D01*
X134489040Y-94260832D01*
X134489042Y-94260835D01*
X134489043Y-94260836D01*
X134577667Y-94376333D01*
X134693164Y-94464957D01*
X134693167Y-94464958D01*
X134693168Y-94464959D01*
X134753618Y-94489998D01*
X134827664Y-94520669D01*
X134899832Y-94530170D01*
X134971999Y-94539671D01*
X134972000Y-94539671D01*
X134972001Y-94539671D01*
X135020112Y-94533337D01*
X135116336Y-94520669D01*
X135250831Y-94464959D01*
X135250832Y-94464959D01*
X135250832Y-94464958D01*
X135250836Y-94464957D01*
X135366333Y-94376333D01*
X135454957Y-94260836D01*
X135510669Y-94126336D01*
X135526374Y-94007042D01*
X135529671Y-93982001D01*
X135529671Y-93981998D01*
X135510669Y-93837665D01*
X135510669Y-93837664D01*
X135454957Y-93703165D01*
X135366333Y-93587667D01*
X135250836Y-93499043D01*
X135250833Y-93499042D01*
X135250831Y-93499040D01*
X135116339Y-93443332D01*
X135116334Y-93443330D01*
X134972001Y-93424329D01*
X134971999Y-93424329D01*
X134827665Y-93443330D01*
X134827663Y-93443331D01*
X134693165Y-93499042D01*
X134577667Y-93587667D01*
X134489042Y-93703165D01*
X134433331Y-93837663D01*
X134433330Y-93837665D01*
X134414329Y-93981998D01*
X134414329Y-93982001D01*
X122998381Y-93982001D01*
X122924339Y-93951332D01*
X122924334Y-93951330D01*
X122780001Y-93932329D01*
X122779999Y-93932329D01*
X122635665Y-93951330D01*
X122635663Y-93951331D01*
X122501165Y-94007042D01*
X122385667Y-94095667D01*
X122297042Y-94211165D01*
X122241331Y-94345663D01*
X122241330Y-94345665D01*
X122222329Y-94489998D01*
X122222329Y-94490002D01*
X122232214Y-94565091D01*
X122221448Y-94634126D01*
X122175068Y-94686381D01*
X122107798Y-94705266D01*
X122093091Y-94704214D01*
X122018003Y-94694329D01*
X122017999Y-94694329D01*
X121873665Y-94713330D01*
X121873663Y-94713331D01*
X121739165Y-94769042D01*
X121623667Y-94857667D01*
X121535042Y-94973165D01*
X121479331Y-95107663D01*
X121479330Y-95107665D01*
X121460329Y-95251998D01*
X121460329Y-95252002D01*
X121470214Y-95327091D01*
X121459448Y-95396126D01*
X121413068Y-95448381D01*
X121345798Y-95467266D01*
X121331091Y-95466214D01*
X121256003Y-95456329D01*
X121255999Y-95456329D01*
X121111665Y-95475330D01*
X121111663Y-95475331D01*
X120977165Y-95531042D01*
X120861667Y-95619667D01*
X120773042Y-95735165D01*
X120717331Y-95869663D01*
X120717330Y-95869665D01*
X120698329Y-96013998D01*
X120698329Y-96014002D01*
X120708214Y-96089091D01*
X120697448Y-96158126D01*
X120651068Y-96210381D01*
X120583798Y-96229266D01*
X120569091Y-96228214D01*
X120494003Y-96218329D01*
X120493999Y-96218329D01*
X120349665Y-96237330D01*
X120349663Y-96237331D01*
X120215165Y-96293042D01*
X120099667Y-96381667D01*
X120011042Y-96497165D01*
X119955331Y-96631663D01*
X119955330Y-96631665D01*
X119936329Y-96775998D01*
X119936329Y-96776002D01*
X119946214Y-96851091D01*
X119935448Y-96920126D01*
X119889068Y-96972381D01*
X119821798Y-96991266D01*
X119807091Y-96990214D01*
X119732003Y-96980329D01*
X119731999Y-96980329D01*
X119587665Y-96999330D01*
X119587663Y-96999331D01*
X119453165Y-97055042D01*
X119337667Y-97143667D01*
X119249042Y-97259165D01*
X119193331Y-97393663D01*
X119193330Y-97393665D01*
X119174329Y-97537998D01*
X119174329Y-97538002D01*
X119184214Y-97613091D01*
X119173448Y-97682126D01*
X119127068Y-97734381D01*
X119059798Y-97753266D01*
X119045091Y-97752214D01*
X118970003Y-97742329D01*
X118969999Y-97742329D01*
X118825665Y-97761330D01*
X118825663Y-97761331D01*
X118691165Y-97817042D01*
X118575667Y-97905667D01*
X118487042Y-98021165D01*
X118431331Y-98155663D01*
X118431330Y-98155665D01*
X118412329Y-98299998D01*
X118412329Y-98300002D01*
X118422214Y-98375091D01*
X118411448Y-98444126D01*
X118365068Y-98496381D01*
X118297798Y-98515266D01*
X118283091Y-98514214D01*
X118208003Y-98504329D01*
X118207999Y-98504329D01*
X118063665Y-98523330D01*
X118063663Y-98523331D01*
X117929165Y-98579042D01*
X117813667Y-98667667D01*
X117725042Y-98783165D01*
X117669331Y-98917663D01*
X117669330Y-98917665D01*
X117650329Y-99061998D01*
X117650329Y-99062001D01*
X117669330Y-99206334D01*
X117669332Y-99206339D01*
X117681944Y-99236787D01*
X117689413Y-99306256D01*
X117658138Y-99368735D01*
X117598049Y-99404387D01*
X117551198Y-99407178D01*
X117446001Y-99393329D01*
X117445999Y-99393329D01*
X117301665Y-99412330D01*
X117301663Y-99412331D01*
X117167165Y-99468042D01*
X117051667Y-99556667D01*
X116963042Y-99672165D01*
X116907331Y-99806663D01*
X116907330Y-99806665D01*
X116888329Y-99950998D01*
X116888329Y-99951001D01*
X102812275Y-99951001D01*
X102872731Y-99925959D01*
X102872732Y-99925959D01*
X102872732Y-99925958D01*
X102872736Y-99925957D01*
X102988233Y-99837333D01*
X103076857Y-99721836D01*
X103132569Y-99587336D01*
X103151571Y-99443000D01*
X103147533Y-99412331D01*
X103132569Y-99298665D01*
X103132569Y-99298664D01*
X103076857Y-99164165D01*
X103021995Y-99092667D01*
X102988234Y-99048668D01*
X102983015Y-99044663D01*
X102872736Y-98960043D01*
X102872733Y-98960042D01*
X102872731Y-98960040D01*
X102738239Y-98904332D01*
X102738234Y-98904330D01*
X102593901Y-98885329D01*
X102593899Y-98885329D01*
X102449565Y-98904330D01*
X102449563Y-98904331D01*
X102315065Y-98960042D01*
X102199567Y-99048667D01*
X102110942Y-99164165D01*
X102055231Y-99298663D01*
X102055230Y-99298665D01*
X102036229Y-99442998D01*
X102036229Y-99443001D01*
X78607565Y-99443001D01*
X78597334Y-99429668D01*
X78574739Y-99412330D01*
X78481836Y-99341043D01*
X78481833Y-99341042D01*
X78481831Y-99341040D01*
X78347339Y-99285332D01*
X78347334Y-99285330D01*
X78203001Y-99266329D01*
X78202999Y-99266329D01*
X78058665Y-99285330D01*
X78058663Y-99285331D01*
X77924165Y-99341042D01*
X77808667Y-99429667D01*
X77720042Y-99545165D01*
X77664331Y-99679663D01*
X77664330Y-99679665D01*
X77645329Y-99823998D01*
X77645329Y-99824001D01*
X51051173Y-99824001D01*
X51051124Y-98681001D01*
X78407329Y-98681001D01*
X78426330Y-98825334D01*
X78426332Y-98825339D01*
X78482040Y-98959831D01*
X78482040Y-98959832D01*
X78482042Y-98959835D01*
X78482043Y-98959836D01*
X78570667Y-99075333D01*
X78686164Y-99163957D01*
X78686167Y-99163958D01*
X78686168Y-99163959D01*
X78746618Y-99188998D01*
X78820664Y-99219669D01*
X78892832Y-99229170D01*
X78964999Y-99238671D01*
X78965000Y-99238671D01*
X78965001Y-99238671D01*
X79013112Y-99232337D01*
X79109336Y-99219669D01*
X79243831Y-99163959D01*
X79243832Y-99163959D01*
X79243832Y-99163958D01*
X79243836Y-99163957D01*
X79359333Y-99075333D01*
X79447957Y-98959836D01*
X79503669Y-98825336D01*
X79519374Y-98706042D01*
X79522671Y-98681001D01*
X79522671Y-98680998D01*
X79503669Y-98536665D01*
X79503669Y-98536664D01*
X79447957Y-98402165D01*
X79369565Y-98300002D01*
X79359334Y-98286668D01*
X79344343Y-98275165D01*
X79243836Y-98198043D01*
X79243833Y-98198042D01*
X79243831Y-98198040D01*
X79109339Y-98142332D01*
X79109334Y-98142330D01*
X78965001Y-98123329D01*
X78964999Y-98123329D01*
X78820665Y-98142330D01*
X78820663Y-98142331D01*
X78686165Y-98198042D01*
X78570667Y-98286667D01*
X78482042Y-98402165D01*
X78426331Y-98536663D01*
X78426330Y-98536665D01*
X78407329Y-98680998D01*
X78407329Y-98681001D01*
X51051124Y-98681001D01*
X51051091Y-97918635D01*
X79550695Y-97918635D01*
X79569696Y-98062968D01*
X79569698Y-98062973D01*
X79625406Y-98197465D01*
X79625406Y-98197466D01*
X79625408Y-98197469D01*
X79625409Y-98197470D01*
X79714033Y-98312967D01*
X79829530Y-98401591D01*
X79829533Y-98401592D01*
X79829534Y-98401593D01*
X79849022Y-98409665D01*
X79964030Y-98457303D01*
X80036198Y-98466804D01*
X80108365Y-98476305D01*
X80108366Y-98476305D01*
X80108367Y-98476305D01*
X80156478Y-98469971D01*
X80252702Y-98457303D01*
X80387197Y-98401593D01*
X80387198Y-98401593D01*
X80387198Y-98401592D01*
X80387202Y-98401591D01*
X80412862Y-98381901D01*
X103045329Y-98381901D01*
X103064330Y-98526234D01*
X103064332Y-98526239D01*
X103120040Y-98660731D01*
X103120040Y-98660732D01*
X103120042Y-98660735D01*
X103120043Y-98660736D01*
X103208667Y-98776233D01*
X103324164Y-98864857D01*
X103324167Y-98864858D01*
X103324168Y-98864859D01*
X103391414Y-98892713D01*
X103458664Y-98920569D01*
X103530832Y-98930070D01*
X103602999Y-98939571D01*
X103603000Y-98939571D01*
X103603001Y-98939571D01*
X103651112Y-98933237D01*
X103747336Y-98920569D01*
X103881831Y-98864859D01*
X103881832Y-98864859D01*
X103881832Y-98864858D01*
X103881836Y-98864857D01*
X103997333Y-98776233D01*
X104085957Y-98660736D01*
X104141669Y-98526236D01*
X104160671Y-98381900D01*
X104153158Y-98324836D01*
X104141669Y-98237565D01*
X104141669Y-98237564D01*
X104085957Y-98103065D01*
X104072698Y-98085785D01*
X103997334Y-97987568D01*
X103934783Y-97939571D01*
X103881836Y-97898943D01*
X103881833Y-97898942D01*
X103881831Y-97898940D01*
X103747339Y-97843232D01*
X103747334Y-97843230D01*
X103603001Y-97824229D01*
X103602999Y-97824229D01*
X103458665Y-97843230D01*
X103458663Y-97843231D01*
X103324165Y-97898942D01*
X103208667Y-97987567D01*
X103120042Y-98103065D01*
X103064331Y-98237563D01*
X103064330Y-98237565D01*
X103045329Y-98381898D01*
X103045329Y-98381901D01*
X80412862Y-98381901D01*
X80502699Y-98312967D01*
X80591323Y-98197470D01*
X80647035Y-98062970D01*
X80666037Y-97918634D01*
X80647035Y-97774298D01*
X80647034Y-97774295D01*
X80646240Y-97768264D01*
X80657005Y-97699228D01*
X80703385Y-97646972D01*
X80770654Y-97628087D01*
X80837455Y-97648568D01*
X80844665Y-97653702D01*
X80909030Y-97703091D01*
X80909032Y-97703091D01*
X80909034Y-97703093D01*
X80976280Y-97730947D01*
X81043530Y-97758803D01*
X81107046Y-97767165D01*
X81187865Y-97777805D01*
X81187866Y-97777805D01*
X81187867Y-97777805D01*
X81235978Y-97771471D01*
X81332202Y-97758803D01*
X81466697Y-97703093D01*
X81466698Y-97703093D01*
X81466698Y-97703092D01*
X81466702Y-97703091D01*
X81582199Y-97614467D01*
X81670823Y-97498970D01*
X81719315Y-97381901D01*
X104068229Y-97381901D01*
X104087230Y-97526234D01*
X104087232Y-97526239D01*
X104142940Y-97660731D01*
X104142940Y-97660732D01*
X104142942Y-97660735D01*
X104142943Y-97660736D01*
X104231567Y-97776233D01*
X104347064Y-97864857D01*
X104347067Y-97864858D01*
X104347068Y-97864859D01*
X104414314Y-97892713D01*
X104481564Y-97920569D01*
X104553732Y-97930070D01*
X104625899Y-97939571D01*
X104625900Y-97939571D01*
X104625901Y-97939571D01*
X104674012Y-97933237D01*
X104770236Y-97920569D01*
X104904731Y-97864859D01*
X104904732Y-97864859D01*
X104904732Y-97864858D01*
X104904736Y-97864857D01*
X105020233Y-97776233D01*
X105108857Y-97660736D01*
X105164569Y-97526236D01*
X105183571Y-97381900D01*
X105183316Y-97379966D01*
X105164569Y-97237565D01*
X105164569Y-97237564D01*
X105108857Y-97103065D01*
X105087935Y-97075799D01*
X105020234Y-96987568D01*
X105010800Y-96980329D01*
X104904736Y-96898943D01*
X104904733Y-96898942D01*
X104904731Y-96898940D01*
X104770239Y-96843232D01*
X104770234Y-96843230D01*
X104625901Y-96824229D01*
X104625899Y-96824229D01*
X104481565Y-96843230D01*
X104481563Y-96843231D01*
X104347065Y-96898942D01*
X104231567Y-96987567D01*
X104142942Y-97103065D01*
X104087231Y-97237563D01*
X104087230Y-97237565D01*
X104068229Y-97381898D01*
X104068229Y-97381901D01*
X81719315Y-97381901D01*
X81726535Y-97364470D01*
X81743242Y-97237564D01*
X81745537Y-97220135D01*
X81745537Y-97220132D01*
X81726535Y-97075799D01*
X81726534Y-97075797D01*
X81714292Y-97046243D01*
X81706823Y-96976775D01*
X81738097Y-96914295D01*
X81798185Y-96878642D01*
X81868011Y-96881135D01*
X81876304Y-96884228D01*
X81995664Y-96933669D01*
X82053620Y-96941299D01*
X82139999Y-96952671D01*
X82140000Y-96952671D01*
X82140001Y-96952671D01*
X82188112Y-96946337D01*
X82284336Y-96933669D01*
X82418831Y-96877959D01*
X82418832Y-96877959D01*
X82418832Y-96877958D01*
X82418836Y-96877957D01*
X82534333Y-96789333D01*
X82622957Y-96673836D01*
X82678669Y-96539336D01*
X82694374Y-96420042D01*
X82697671Y-96395001D01*
X82697671Y-96394998D01*
X82678669Y-96250665D01*
X82678669Y-96250664D01*
X82622957Y-96116165D01*
X82557866Y-96031336D01*
X82534334Y-96000668D01*
X82534333Y-96000667D01*
X82418836Y-95912043D01*
X82418833Y-95912042D01*
X82418831Y-95912040D01*
X82358381Y-95887001D01*
X104950329Y-95887001D01*
X104969330Y-96031334D01*
X104969332Y-96031339D01*
X105025040Y-96165831D01*
X105025040Y-96165832D01*
X105025042Y-96165835D01*
X105025043Y-96165836D01*
X105113667Y-96281333D01*
X105229164Y-96369957D01*
X105229167Y-96369958D01*
X105229168Y-96369959D01*
X105257434Y-96381667D01*
X105363664Y-96425669D01*
X105435832Y-96435170D01*
X105507999Y-96444671D01*
X105508000Y-96444671D01*
X105508001Y-96444671D01*
X105556112Y-96438337D01*
X105652336Y-96425669D01*
X105726375Y-96395001D01*
X108125329Y-96395001D01*
X108144330Y-96539334D01*
X108144332Y-96539339D01*
X108200040Y-96673831D01*
X108200040Y-96673832D01*
X108200042Y-96673835D01*
X108200043Y-96673836D01*
X108288667Y-96789333D01*
X108404164Y-96877957D01*
X108404167Y-96877958D01*
X108404168Y-96877959D01*
X108454821Y-96898940D01*
X108538664Y-96933669D01*
X108596620Y-96941299D01*
X108682999Y-96952671D01*
X108683000Y-96952671D01*
X108683001Y-96952671D01*
X108731112Y-96946337D01*
X108827336Y-96933669D01*
X108961831Y-96877959D01*
X108961832Y-96877959D01*
X108961832Y-96877958D01*
X108961836Y-96877957D01*
X109077333Y-96789333D01*
X109165957Y-96673836D01*
X109221669Y-96539336D01*
X109237374Y-96420042D01*
X109240671Y-96395001D01*
X109240671Y-96394998D01*
X109221669Y-96250665D01*
X109221669Y-96250664D01*
X109165957Y-96116165D01*
X109100866Y-96031336D01*
X109077334Y-96000668D01*
X109077333Y-96000667D01*
X108961836Y-95912043D01*
X108961833Y-95912042D01*
X108961831Y-95912040D01*
X108827339Y-95856332D01*
X108827334Y-95856330D01*
X108683001Y-95837329D01*
X108682999Y-95837329D01*
X108538665Y-95856330D01*
X108538663Y-95856331D01*
X108404165Y-95912042D01*
X108288667Y-96000667D01*
X108200042Y-96116165D01*
X108144331Y-96250663D01*
X108144330Y-96250665D01*
X108125329Y-96394998D01*
X108125329Y-96395001D01*
X105726375Y-96395001D01*
X105786831Y-96369959D01*
X105786832Y-96369959D01*
X105786832Y-96369958D01*
X105786836Y-96369957D01*
X105902333Y-96281333D01*
X105990957Y-96165836D01*
X106046669Y-96031336D01*
X106062374Y-95912042D01*
X106065671Y-95887001D01*
X106065671Y-95886998D01*
X106046669Y-95742665D01*
X106046669Y-95742664D01*
X105990957Y-95608165D01*
X105931779Y-95531042D01*
X105902334Y-95492668D01*
X105897115Y-95488663D01*
X105786836Y-95404043D01*
X105786833Y-95404042D01*
X105786831Y-95404040D01*
X105652339Y-95348332D01*
X105652334Y-95348330D01*
X105508001Y-95329329D01*
X105507999Y-95329329D01*
X105363665Y-95348330D01*
X105363663Y-95348331D01*
X105229165Y-95404042D01*
X105113667Y-95492667D01*
X105025042Y-95608165D01*
X104969331Y-95742663D01*
X104969330Y-95742665D01*
X104950329Y-95886998D01*
X104950329Y-95887001D01*
X82358381Y-95887001D01*
X82284339Y-95856332D01*
X82284334Y-95856330D01*
X82140001Y-95837329D01*
X82139999Y-95837329D01*
X81995665Y-95856330D01*
X81995663Y-95856331D01*
X81861165Y-95912042D01*
X81745667Y-96000667D01*
X81657042Y-96116165D01*
X81601331Y-96250663D01*
X81601330Y-96250665D01*
X81582329Y-96394998D01*
X81582329Y-96395001D01*
X81601330Y-96539334D01*
X81601331Y-96539336D01*
X81613573Y-96568890D01*
X81621042Y-96638360D01*
X81589767Y-96700839D01*
X81529678Y-96736491D01*
X81459853Y-96733997D01*
X81451560Y-96730904D01*
X81332205Y-96681466D01*
X81332200Y-96681464D01*
X81187867Y-96662463D01*
X81187865Y-96662463D01*
X81043531Y-96681464D01*
X81043529Y-96681465D01*
X80909031Y-96737176D01*
X80793533Y-96825801D01*
X80704908Y-96941299D01*
X80649197Y-97075797D01*
X80649196Y-97075799D01*
X80630195Y-97220132D01*
X80630195Y-97220135D01*
X80649991Y-97370504D01*
X80639225Y-97439539D01*
X80592845Y-97491795D01*
X80525576Y-97510680D01*
X80458776Y-97490199D01*
X80451566Y-97485065D01*
X80387202Y-97435677D01*
X80387197Y-97435674D01*
X80252705Y-97379966D01*
X80252700Y-97379964D01*
X80108367Y-97360963D01*
X80108365Y-97360963D01*
X79964031Y-97379964D01*
X79964029Y-97379965D01*
X79829531Y-97435676D01*
X79714033Y-97524301D01*
X79625408Y-97639799D01*
X79569697Y-97774297D01*
X79569696Y-97774299D01*
X79550695Y-97918632D01*
X79550695Y-97918635D01*
X51051091Y-97918635D01*
X51050993Y-95633001D01*
X69898329Y-95633001D01*
X69917330Y-95777334D01*
X69917332Y-95777339D01*
X69973040Y-95911831D01*
X69973040Y-95911832D01*
X69973042Y-95911835D01*
X69973043Y-95911836D01*
X70061667Y-96027333D01*
X70177164Y-96115957D01*
X70177167Y-96115958D01*
X70177168Y-96115959D01*
X70244414Y-96143813D01*
X70311664Y-96171669D01*
X70383832Y-96181170D01*
X70455999Y-96190671D01*
X70456000Y-96190671D01*
X70456001Y-96190671D01*
X70504112Y-96184337D01*
X70600336Y-96171669D01*
X70734831Y-96115959D01*
X70734832Y-96115959D01*
X70734832Y-96115958D01*
X70734836Y-96115957D01*
X70850333Y-96027333D01*
X70938957Y-95911836D01*
X70994669Y-95777336D01*
X71009585Y-95664035D01*
X71013671Y-95633001D01*
X71013671Y-95632998D01*
X70994669Y-95488665D01*
X70994669Y-95488664D01*
X70938957Y-95354165D01*
X70884095Y-95282667D01*
X70850334Y-95238668D01*
X70850333Y-95238667D01*
X70734836Y-95150043D01*
X70734833Y-95150042D01*
X70734831Y-95150040D01*
X70675265Y-95125367D01*
X82216963Y-95125367D01*
X82235964Y-95269700D01*
X82235966Y-95269705D01*
X82291674Y-95404197D01*
X82291674Y-95404198D01*
X82291676Y-95404201D01*
X82291677Y-95404202D01*
X82380301Y-95519699D01*
X82495798Y-95608323D01*
X82495801Y-95608324D01*
X82495802Y-95608325D01*
X82523187Y-95619668D01*
X82630298Y-95664035D01*
X82702466Y-95673536D01*
X82774633Y-95683037D01*
X82774634Y-95683037D01*
X82774635Y-95683037D01*
X82822746Y-95676703D01*
X82918970Y-95664035D01*
X83053465Y-95608325D01*
X83053466Y-95608325D01*
X83053466Y-95608324D01*
X83053470Y-95608323D01*
X83168967Y-95519699D01*
X83257591Y-95404202D01*
X83313303Y-95269702D01*
X83332305Y-95125366D01*
X83329974Y-95107663D01*
X83314629Y-94991101D01*
X114348329Y-94991101D01*
X114367330Y-95135434D01*
X114367332Y-95135439D01*
X114423040Y-95269931D01*
X114423040Y-95269932D01*
X114423042Y-95269935D01*
X114423043Y-95269936D01*
X114511667Y-95385433D01*
X114627164Y-95474057D01*
X114627167Y-95474058D01*
X114627168Y-95474059D01*
X114694414Y-95501913D01*
X114761664Y-95529769D01*
X114833832Y-95539270D01*
X114905999Y-95548771D01*
X114906000Y-95548771D01*
X114906001Y-95548771D01*
X114954112Y-95542437D01*
X115050336Y-95529769D01*
X115184831Y-95474059D01*
X115184832Y-95474059D01*
X115184832Y-95474058D01*
X115184836Y-95474057D01*
X115300333Y-95385433D01*
X115388957Y-95269936D01*
X115444669Y-95135436D01*
X115463671Y-94991100D01*
X115462345Y-94981031D01*
X115444669Y-94846765D01*
X115444669Y-94846764D01*
X115388957Y-94712265D01*
X115329163Y-94634339D01*
X115300334Y-94596768D01*
X115300333Y-94596767D01*
X115184836Y-94508143D01*
X115184833Y-94508142D01*
X115184831Y-94508140D01*
X115050339Y-94452432D01*
X115050334Y-94452430D01*
X114906001Y-94433429D01*
X114905999Y-94433429D01*
X114761665Y-94452430D01*
X114761663Y-94452431D01*
X114627165Y-94508142D01*
X114511667Y-94596767D01*
X114423042Y-94712265D01*
X114367331Y-94846763D01*
X114367330Y-94846765D01*
X114348329Y-94991098D01*
X114348329Y-94991101D01*
X83314629Y-94991101D01*
X83313303Y-94981031D01*
X83313303Y-94981030D01*
X83257591Y-94846531D01*
X83178917Y-94744000D01*
X83168968Y-94731034D01*
X83144508Y-94712265D01*
X83053470Y-94642409D01*
X83053467Y-94642408D01*
X83053465Y-94642406D01*
X82918973Y-94586698D01*
X82918968Y-94586696D01*
X82774635Y-94567695D01*
X82774633Y-94567695D01*
X82630299Y-94586696D01*
X82630297Y-94586697D01*
X82495799Y-94642408D01*
X82380301Y-94731033D01*
X82291676Y-94846531D01*
X82235965Y-94981029D01*
X82235964Y-94981031D01*
X82216963Y-95125364D01*
X82216963Y-95125367D01*
X70675265Y-95125367D01*
X70600339Y-95094332D01*
X70600334Y-95094330D01*
X70456001Y-95075329D01*
X70455999Y-95075329D01*
X70311665Y-95094330D01*
X70311663Y-95094331D01*
X70177165Y-95150042D01*
X70061667Y-95238667D01*
X69973042Y-95354165D01*
X69917331Y-95488663D01*
X69917330Y-95488665D01*
X69898329Y-95632998D01*
X69898329Y-95633001D01*
X51050993Y-95633001D01*
X51050911Y-93734901D01*
X114983329Y-93734901D01*
X115002330Y-93879234D01*
X115002332Y-93879239D01*
X115058040Y-94013731D01*
X115058040Y-94013732D01*
X115058042Y-94013735D01*
X115058043Y-94013736D01*
X115146667Y-94129233D01*
X115262164Y-94217857D01*
X115262167Y-94217858D01*
X115262168Y-94217859D01*
X115329414Y-94245713D01*
X115396664Y-94273569D01*
X115468832Y-94283070D01*
X115540999Y-94292571D01*
X115541000Y-94292571D01*
X115541001Y-94292571D01*
X115589112Y-94286237D01*
X115685336Y-94273569D01*
X115819831Y-94217859D01*
X115819832Y-94217859D01*
X115819832Y-94217858D01*
X115819836Y-94217857D01*
X115935333Y-94129233D01*
X116023957Y-94013736D01*
X116079669Y-93879236D01*
X116098671Y-93734900D01*
X116079669Y-93590564D01*
X116023957Y-93456065D01*
X115935333Y-93340567D01*
X115819836Y-93251943D01*
X115819833Y-93251942D01*
X115819831Y-93251940D01*
X115685339Y-93196232D01*
X115685334Y-93196230D01*
X115541001Y-93177229D01*
X115540999Y-93177229D01*
X115396665Y-93196230D01*
X115396663Y-93196231D01*
X115262165Y-93251942D01*
X115146667Y-93340567D01*
X115058042Y-93456065D01*
X115002331Y-93590563D01*
X115002330Y-93590565D01*
X114983329Y-93734898D01*
X114983329Y-93734901D01*
X51050911Y-93734901D01*
X51050873Y-92839001D01*
X116126329Y-92839001D01*
X116145330Y-92983334D01*
X116145332Y-92983339D01*
X116201040Y-93117831D01*
X116201040Y-93117832D01*
X116201042Y-93117835D01*
X116201043Y-93117836D01*
X116289667Y-93233333D01*
X116405164Y-93321957D01*
X116405167Y-93321958D01*
X116405168Y-93321959D01*
X116472414Y-93349813D01*
X116539664Y-93377669D01*
X116611832Y-93387170D01*
X116683999Y-93396671D01*
X116684000Y-93396671D01*
X116684001Y-93396671D01*
X116732112Y-93390337D01*
X116828336Y-93377669D01*
X116962831Y-93321959D01*
X116962832Y-93321959D01*
X116962832Y-93321958D01*
X116962836Y-93321957D01*
X117078333Y-93233333D01*
X117166957Y-93117836D01*
X117222669Y-92983336D01*
X117241671Y-92839000D01*
X117224951Y-92712001D01*
X126667329Y-92712001D01*
X126686330Y-92856334D01*
X126686332Y-92856339D01*
X126742040Y-92990831D01*
X126742040Y-92990832D01*
X126742042Y-92990835D01*
X126742043Y-92990836D01*
X126830667Y-93106333D01*
X126946164Y-93194957D01*
X126946167Y-93194958D01*
X126946168Y-93194959D01*
X127013414Y-93222813D01*
X127080664Y-93250669D01*
X127152832Y-93260170D01*
X127224999Y-93269671D01*
X127225000Y-93269671D01*
X127225001Y-93269671D01*
X127273112Y-93263337D01*
X127369336Y-93250669D01*
X127503831Y-93194959D01*
X127503832Y-93194959D01*
X127503832Y-93194958D01*
X127503836Y-93194957D01*
X127619333Y-93106333D01*
X127707957Y-92990836D01*
X127763669Y-92856336D01*
X127782671Y-92712000D01*
X127782671Y-92711998D01*
X127783732Y-92703942D01*
X127786371Y-92704289D01*
X127802356Y-92649853D01*
X127855160Y-92604098D01*
X127924318Y-92594154D01*
X127954117Y-92602329D01*
X127969664Y-92608769D01*
X128041832Y-92618270D01*
X128113999Y-92627771D01*
X128114000Y-92627771D01*
X128114001Y-92627771D01*
X128162112Y-92621437D01*
X128258336Y-92608769D01*
X128392831Y-92553059D01*
X128392832Y-92553059D01*
X128392832Y-92553058D01*
X128392836Y-92553057D01*
X128508333Y-92464433D01*
X128596957Y-92348936D01*
X128652669Y-92214436D01*
X128671671Y-92070100D01*
X128669282Y-92051957D01*
X128652669Y-91925765D01*
X128652669Y-91925764D01*
X128596957Y-91791265D01*
X128542589Y-91720411D01*
X128508334Y-91675768D01*
X128487579Y-91659842D01*
X128392836Y-91587143D01*
X128392833Y-91587142D01*
X128392831Y-91587140D01*
X128258339Y-91531432D01*
X128258334Y-91531430D01*
X128114001Y-91512429D01*
X128113999Y-91512429D01*
X127969665Y-91531430D01*
X127969663Y-91531431D01*
X127835165Y-91587142D01*
X127719667Y-91675767D01*
X127631042Y-91791265D01*
X127575331Y-91925763D01*
X127575330Y-91925765D01*
X127555268Y-92078158D01*
X127552628Y-92077810D01*
X127536644Y-92132246D01*
X127483840Y-92178001D01*
X127414682Y-92187945D01*
X127384877Y-92179768D01*
X127369339Y-92173332D01*
X127369334Y-92173330D01*
X127225001Y-92154329D01*
X127224999Y-92154329D01*
X127080665Y-92173330D01*
X127080663Y-92173331D01*
X126946165Y-92229042D01*
X126830667Y-92317667D01*
X126742042Y-92433165D01*
X126686331Y-92567663D01*
X126686330Y-92567665D01*
X126667329Y-92711998D01*
X126667329Y-92712001D01*
X117224951Y-92712001D01*
X117222669Y-92694664D01*
X117166957Y-92560165D01*
X117078333Y-92444667D01*
X116962836Y-92356043D01*
X116962833Y-92356042D01*
X116962831Y-92356040D01*
X116828339Y-92300332D01*
X116828334Y-92300330D01*
X116684001Y-92281329D01*
X116683999Y-92281329D01*
X116539665Y-92300330D01*
X116539663Y-92300331D01*
X116405165Y-92356042D01*
X116289667Y-92444667D01*
X116201042Y-92560165D01*
X116145331Y-92694663D01*
X116145330Y-92694665D01*
X116126329Y-92838998D01*
X116126329Y-92839001D01*
X51050873Y-92839001D01*
X51050810Y-91381007D01*
X78915329Y-91381007D01*
X78934330Y-91525340D01*
X78934332Y-91525345D01*
X78990040Y-91659837D01*
X78990040Y-91659838D01*
X78990042Y-91659841D01*
X78990043Y-91659842D01*
X79078667Y-91775339D01*
X79194164Y-91863963D01*
X79194167Y-91863964D01*
X79194168Y-91863965D01*
X79261414Y-91891819D01*
X79328664Y-91919675D01*
X79374915Y-91925764D01*
X79472999Y-91938677D01*
X79473000Y-91938677D01*
X79473001Y-91938677D01*
X79521112Y-91932343D01*
X79617336Y-91919675D01*
X79751831Y-91863965D01*
X79751832Y-91863965D01*
X79751832Y-91863964D01*
X79751836Y-91863963D01*
X79867333Y-91775339D01*
X79909481Y-91720411D01*
X82065419Y-91720411D01*
X82084420Y-91864744D01*
X82084422Y-91864749D01*
X82140130Y-91999241D01*
X82140130Y-91999242D01*
X82140132Y-91999245D01*
X82140133Y-91999246D01*
X82228757Y-92114743D01*
X82344254Y-92203367D01*
X82344257Y-92203368D01*
X82344258Y-92203369D01*
X82370984Y-92214439D01*
X82478754Y-92259079D01*
X82550922Y-92268580D01*
X82623089Y-92278081D01*
X82623090Y-92278081D01*
X82623091Y-92278081D01*
X82671202Y-92271747D01*
X82767426Y-92259079D01*
X82901921Y-92203369D01*
X82901922Y-92203369D01*
X82901922Y-92203368D01*
X82901926Y-92203367D01*
X83017423Y-92114743D01*
X83106047Y-91999246D01*
X83161759Y-91864746D01*
X83180761Y-91720410D01*
X83179829Y-91713334D01*
X83161759Y-91576075D01*
X83161759Y-91576074D01*
X83158829Y-91569001D01*
X109141329Y-91569001D01*
X109160330Y-91713334D01*
X109160332Y-91713339D01*
X109216040Y-91847831D01*
X109216040Y-91847832D01*
X109216042Y-91847835D01*
X109216043Y-91847836D01*
X109304667Y-91963333D01*
X109420164Y-92051957D01*
X109420167Y-92051958D01*
X109420168Y-92051959D01*
X109463960Y-92070098D01*
X109554664Y-92107669D01*
X109608397Y-92114743D01*
X109698999Y-92126671D01*
X109699000Y-92126671D01*
X109699001Y-92126671D01*
X109747112Y-92120337D01*
X109843336Y-92107669D01*
X109977831Y-92051959D01*
X109977832Y-92051959D01*
X109977832Y-92051958D01*
X109977836Y-92051957D01*
X110093333Y-91963333D01*
X110181957Y-91847836D01*
X110237669Y-91713336D01*
X110250337Y-91617112D01*
X110256671Y-91569001D01*
X110256671Y-91568998D01*
X110237669Y-91424665D01*
X110237669Y-91424664D01*
X110181957Y-91290165D01*
X110140909Y-91236670D01*
X110093334Y-91174668D01*
X110077788Y-91162739D01*
X109977836Y-91086043D01*
X109977833Y-91086042D01*
X109977831Y-91086040D01*
X109843339Y-91030332D01*
X109843334Y-91030330D01*
X109699001Y-91011329D01*
X109698999Y-91011329D01*
X109554665Y-91030330D01*
X109554663Y-91030331D01*
X109420165Y-91086042D01*
X109304667Y-91174667D01*
X109216042Y-91290165D01*
X109160331Y-91424663D01*
X109160330Y-91424665D01*
X109141329Y-91568998D01*
X109141329Y-91569001D01*
X83158829Y-91569001D01*
X83106047Y-91441575D01*
X83017423Y-91326077D01*
X82901926Y-91237453D01*
X82901923Y-91237452D01*
X82901921Y-91237450D01*
X82767429Y-91181742D01*
X82767424Y-91181740D01*
X82623091Y-91162739D01*
X82623089Y-91162739D01*
X82478755Y-91181740D01*
X82478753Y-91181741D01*
X82344255Y-91237452D01*
X82228757Y-91326077D01*
X82140132Y-91441575D01*
X82084421Y-91576073D01*
X82084420Y-91576075D01*
X82065419Y-91720408D01*
X82065419Y-91720411D01*
X79909481Y-91720411D01*
X79955957Y-91659842D01*
X80011669Y-91525342D01*
X80030671Y-91381006D01*
X80011669Y-91236670D01*
X79955957Y-91102171D01*
X79943579Y-91086040D01*
X79867334Y-90986674D01*
X79867333Y-90986673D01*
X79751836Y-90898049D01*
X79751833Y-90898048D01*
X79751831Y-90898046D01*
X79617339Y-90842338D01*
X79617334Y-90842336D01*
X79473001Y-90823335D01*
X79472999Y-90823335D01*
X79328665Y-90842336D01*
X79328663Y-90842337D01*
X79194165Y-90898048D01*
X79078667Y-90986673D01*
X78990042Y-91102171D01*
X78934331Y-91236669D01*
X78934330Y-91236671D01*
X78915329Y-91381004D01*
X78915329Y-91381007D01*
X51050810Y-91381007D01*
X51050752Y-90045001D01*
X76121329Y-90045001D01*
X76140330Y-90189334D01*
X76140332Y-90189339D01*
X76196040Y-90323831D01*
X76196040Y-90323832D01*
X76196042Y-90323835D01*
X76196043Y-90323836D01*
X76284667Y-90439333D01*
X76400164Y-90527957D01*
X76400167Y-90527958D01*
X76400168Y-90527959D01*
X76467414Y-90555813D01*
X76534664Y-90583669D01*
X76606832Y-90593170D01*
X76678999Y-90602671D01*
X76679000Y-90602671D01*
X76679001Y-90602671D01*
X76727112Y-90596337D01*
X76823336Y-90583669D01*
X76957831Y-90527959D01*
X76957832Y-90527959D01*
X76957832Y-90527958D01*
X76957836Y-90527957D01*
X77073333Y-90439333D01*
X77132569Y-90362135D01*
X110220463Y-90362135D01*
X110239464Y-90506468D01*
X110239466Y-90506473D01*
X110295174Y-90640965D01*
X110295174Y-90640966D01*
X110295176Y-90640969D01*
X110295177Y-90640970D01*
X110383801Y-90756467D01*
X110499298Y-90845091D01*
X110499301Y-90845092D01*
X110499302Y-90845093D01*
X110566548Y-90872947D01*
X110633798Y-90900803D01*
X110705966Y-90910304D01*
X110778133Y-90919805D01*
X110778134Y-90919805D01*
X110778135Y-90919805D01*
X110826246Y-90913471D01*
X110922470Y-90900803D01*
X111056965Y-90845093D01*
X111056966Y-90845093D01*
X111056966Y-90845092D01*
X111056970Y-90845091D01*
X111172467Y-90756467D01*
X111261091Y-90640970D01*
X111316803Y-90506470D01*
X111335805Y-90362134D01*
X111330762Y-90323832D01*
X111316803Y-90217799D01*
X111316803Y-90217798D01*
X111261091Y-90083299D01*
X111172467Y-89967801D01*
X111056970Y-89879177D01*
X111056967Y-89879176D01*
X111056965Y-89879174D01*
X110922473Y-89823466D01*
X110922468Y-89823464D01*
X110778135Y-89804463D01*
X110778133Y-89804463D01*
X110633799Y-89823464D01*
X110633797Y-89823465D01*
X110499299Y-89879176D01*
X110383801Y-89967801D01*
X110295176Y-90083299D01*
X110239465Y-90217797D01*
X110239464Y-90217799D01*
X110220463Y-90362132D01*
X110220463Y-90362135D01*
X77132569Y-90362135D01*
X77161957Y-90323836D01*
X77217669Y-90189336D01*
X77236671Y-90045000D01*
X77217669Y-89900664D01*
X77161957Y-89766165D01*
X77081056Y-89660732D01*
X77073334Y-89650668D01*
X77073333Y-89650667D01*
X76957836Y-89562043D01*
X76957833Y-89562042D01*
X76957831Y-89562040D01*
X76823339Y-89506332D01*
X76823334Y-89506330D01*
X76679001Y-89487329D01*
X76678999Y-89487329D01*
X76534665Y-89506330D01*
X76534663Y-89506331D01*
X76400165Y-89562042D01*
X76284667Y-89650667D01*
X76196042Y-89766165D01*
X76140331Y-89900663D01*
X76140330Y-89900665D01*
X76121329Y-90044998D01*
X76121329Y-90045001D01*
X51050752Y-90045001D01*
X51050723Y-89362185D01*
X85821145Y-89362185D01*
X85840146Y-89506518D01*
X85840148Y-89506523D01*
X85895856Y-89641015D01*
X85895856Y-89641016D01*
X85895858Y-89641019D01*
X85895859Y-89641020D01*
X85984483Y-89756517D01*
X86099980Y-89845141D01*
X86099983Y-89845142D01*
X86099984Y-89845143D01*
X86147578Y-89864857D01*
X86234480Y-89900853D01*
X86306648Y-89910354D01*
X86378815Y-89919855D01*
X86378816Y-89919855D01*
X86378817Y-89919855D01*
X86426928Y-89913521D01*
X86523152Y-89900853D01*
X86657647Y-89845143D01*
X86657648Y-89845143D01*
X86657648Y-89845142D01*
X86657652Y-89845141D01*
X86773149Y-89756517D01*
X86861773Y-89641020D01*
X86917485Y-89506520D01*
X86933891Y-89381901D01*
X105077329Y-89381901D01*
X105096330Y-89526234D01*
X105096332Y-89526239D01*
X105152040Y-89660731D01*
X105152040Y-89660732D01*
X105152042Y-89660735D01*
X105152043Y-89660736D01*
X105240667Y-89776233D01*
X105356164Y-89864857D01*
X105356167Y-89864858D01*
X105356168Y-89864859D01*
X105390728Y-89879174D01*
X105490664Y-89920569D01*
X105562832Y-89930070D01*
X105634999Y-89939571D01*
X105635000Y-89939571D01*
X105635001Y-89939571D01*
X105683112Y-89933237D01*
X105779336Y-89920569D01*
X105913831Y-89864859D01*
X105913832Y-89864859D01*
X105913832Y-89864858D01*
X105913836Y-89864857D01*
X106029333Y-89776233D01*
X106117957Y-89660736D01*
X106173669Y-89526236D01*
X106192671Y-89381900D01*
X106190075Y-89362185D01*
X106173669Y-89237565D01*
X106173669Y-89237564D01*
X106117957Y-89103065D01*
X106029333Y-88987567D01*
X105913836Y-88898943D01*
X105913833Y-88898942D01*
X105913831Y-88898940D01*
X105779339Y-88843232D01*
X105779334Y-88843230D01*
X105635001Y-88824229D01*
X105634999Y-88824229D01*
X105490665Y-88843230D01*
X105490663Y-88843231D01*
X105356165Y-88898942D01*
X105240667Y-88987567D01*
X105152042Y-89103065D01*
X105096331Y-89237563D01*
X105096330Y-89237565D01*
X105077329Y-89381898D01*
X105077329Y-89381901D01*
X86933891Y-89381901D01*
X86936487Y-89362184D01*
X86917485Y-89217848D01*
X86861773Y-89083349D01*
X86788278Y-88987568D01*
X86773150Y-88967852D01*
X86773149Y-88967851D01*
X86657652Y-88879227D01*
X86657649Y-88879226D01*
X86657647Y-88879224D01*
X86523155Y-88823516D01*
X86523150Y-88823514D01*
X86378817Y-88804513D01*
X86378815Y-88804513D01*
X86234481Y-88823514D01*
X86234479Y-88823515D01*
X86099981Y-88879226D01*
X85984483Y-88967851D01*
X85895858Y-89083349D01*
X85840147Y-89217847D01*
X85840146Y-89217849D01*
X85821145Y-89362182D01*
X85821145Y-89362185D01*
X51050723Y-89362185D01*
X51050500Y-84181663D01*
X51051031Y-84173562D01*
X51051168Y-84172527D01*
X51064810Y-84068903D01*
X51073188Y-84037638D01*
X51108896Y-83951429D01*
X51125078Y-83923402D01*
X51181887Y-83849366D01*
X51204766Y-83826487D01*
X51278802Y-83769678D01*
X51306825Y-83753498D01*
X51393047Y-83717784D01*
X51424300Y-83709410D01*
X51528967Y-83695630D01*
X51537067Y-83695100D01*
X51541285Y-83695100D01*
X158458715Y-83695100D01*
X158462933Y-83695100D01*
X158471032Y-83695630D01*
G37*
G04 #@! TD.AperFunction*
M02*
