M48
; DRILL file {KiCad 7.0.9} date Monday, January 22, 2024 at 10:48:32 PM
; FORMAT={-:-/ absolute / metric / decimal}
; #@! TF.CreationDate,2024-01-22T22:48:32+01:00
; #@! TF.GenerationSoftware,Kicad,Pcbnew,7.0.9
; #@! TF.FileFunction,Plated,1,4,PTH
FMAT,2
METRIC
; #@! TA.AperFunction,Plated,PTH,ViaDrill
T1C0.400
%
G90
G05
T1
X57.375Y-111.381
X57.375Y-112.854
X58.645Y-112.854
X59.915Y-112.854
X61.185Y-112.854
X62.455Y-112.854
X63.725Y-112.854
X64.995Y-112.854
X66.265Y-112.854
X67.535Y-112.854
X68.805Y-110.873
X68.805Y-112.854
X70.075Y-112.854
X70.456Y-95.633
X70.456Y-98.935
X71.345Y-112.854
X72.568Y-91.903
X72.615Y-112.854
X73.885Y-102.999
X73.885Y-112.854
X75.155Y-112.854
X76.298Y-102.618
X76.425Y-112.854
X76.679Y-90.045
X77.441Y-101.094
X77.695Y-112.854
X77.822Y-90.045
X78.203Y-99.824
X78.965Y-98.681
X78.965Y-112.854
X79.473Y-91.381
X79.593Y-101.094
X79.593Y-103.126
X79.861Y-99.57
X80.108Y-97.919
X80.235Y-111.381
X80.235Y-112.854
X81.124Y-91.695
X81.188Y-97.22
X81.505Y-112.854
X82.14Y-96.395
X82.623Y-91.72
X82.775Y-95.125
X82.775Y-98.808
X82.775Y-112.854
X82.965Y-97.221
X84.045Y-112.854
X84.426Y-96.776
X85.315Y-112.854
X86.379Y-89.362
X86.585Y-112.854
X87.601Y-88.775
X87.855Y-112.854
X89.125Y-112.854
X89.506Y-99.57
X90.395Y-112.854
X91.284Y-95.506
X91.665Y-111.254
X91.665Y-112.854
X92.935Y-112.854
X94.205Y-112.854
X95.475Y-112.854
X96.745Y-112.854
X97.507Y-95.887
X98.015Y-112.854
X98.142Y-105.285
X99.285Y-112.854
X100.555Y-112.854
X100.809Y-99.824
X101.578Y-100.586
X101.825Y-112.854
X101.952Y-98.681
X102.594Y-99.443
X102.841Y-97.665
X103.603Y-98.382
X103.857Y-96.522
X104.492Y-88.775
X104.619Y-95.379
X104.626Y-97.382
X105.508Y-95.887
X105.635Y-89.382
X108.175Y-111.127
X108.175Y-112.854
X108.683Y-96.395
X108.683Y-99.57
X108.873Y-92.267
X109.445Y-112.854
X109.699Y-91.569
X110.207Y-106.047
X110.715Y-101.431
X110.715Y-112.854
X110.778Y-90.362
X111.35Y-106.675
X111.985Y-112.854
X113.255Y-112.854
X114.525Y-112.854
X114.652Y-100.51
X114.779Y-90.8
X114.906Y-94.991
X115.541Y-93.735
X115.795Y-112.854
X116.684Y-92.839
X117.065Y-112.854
X117.319Y-95.005
X117.446Y-99.951
X117.827Y-92.839
X118.208Y-97.284
X118.208Y-99.062
X118.335Y-112.854
X118.97Y-98.3
X119.605Y-111.254
X119.605Y-112.854
X119.732Y-97.538
X120.494Y-96.776
X120.875Y-112.854
X121.136Y-97.919
X121.256Y-96.014
X121.764Y-94.109
X122.018Y-95.252
X122.145Y-112.854
X122.78Y-94.49
X123.415Y-112.854
X124.685Y-112.854
X125.193Y-102.872
X125.447Y-96.903
X125.955Y-98.554
X125.955Y-112.854
X126.209Y-93.34
X127.225Y-92.712
X127.225Y-112.854
X127.352Y-99.189
X127.86Y-90.814
X128.114Y-92.07
X128.241Y-106.047
X128.495Y-111.127
X128.495Y-112.854
X129.257Y-95.379
X129.384Y-96.903
X129.765Y-112.854
X130.4Y-96.014
X131.035Y-112.854
X132.305Y-112.854
X133.575Y-112.854
X134.845Y-112.854
X134.972Y-93.982
X135.226Y-98.046
X135.988Y-91.061
X136.115Y-112.854
X136.433Y-95.316
X136.75Y-104.904
X137.385Y-96.649
X137.385Y-112.854
X138.655Y-112.854
X139.925Y-110.873
X139.925Y-112.854
X141.195Y-112.854
X141.779Y-99.316
X142.465Y-112.854
X142.973Y-94.744
X143.735Y-112.854
X145.005Y-112.854
X146.275Y-94.744
X146.275Y-112.854
X147.545Y-112.854
X148.815Y-112.854
X150.085Y-112.854
X151.355Y-112.854
X152.625Y-111.508
X152.625Y-112.854
T0
M30
