G04 #@! TF.GenerationSoftware,KiCad,Pcbnew,7.0.9*
G04 #@! TF.CreationDate,2024-01-22T22:35:46+01:00*
G04 #@! TF.ProjectId,simm72,73696d6d-3732-42e6-9b69-6361645f7063,A*
G04 #@! TF.SameCoordinates,Original*
G04 #@! TF.FileFunction,Copper,L4,Bot*
G04 #@! TF.FilePolarity,Positive*
%FSLAX46Y46*%
G04 Gerber Fmt 4.6, Leading zero omitted, Abs format (unit mm)*
G04 Created by KiCad (PCBNEW 7.0.9) date 2024-01-22 22:35:46*
%MOMM*%
%LPD*%
G01*
G04 APERTURE LIST*
G04 #@! TA.AperFunction,SMDPad,CuDef*
%ADD10R,1.040000X2.540000*%
G04 #@! TD*
G04 #@! TA.AperFunction,ViaPad*
%ADD11C,0.800000*%
G04 #@! TD*
G04 #@! TA.AperFunction,Conductor*
%ADD12C,0.609600*%
G04 #@! TD*
G04 #@! TA.AperFunction,Conductor*
%ADD13C,0.152400*%
G04 #@! TD*
G04 APERTURE END LIST*
D10*
X57375000Y-113921000D03*
X58645000Y-113921000D03*
X59915000Y-113921000D03*
X61185000Y-113921000D03*
X62455000Y-113921000D03*
X63725000Y-113921000D03*
X64995000Y-113921000D03*
X66265000Y-113921000D03*
X67535000Y-113921000D03*
X68805000Y-113921000D03*
X70075000Y-113921000D03*
X71345000Y-113921000D03*
X72615000Y-113921000D03*
X73885000Y-113921000D03*
X75155000Y-113921000D03*
X76425000Y-113921000D03*
X77695000Y-113921000D03*
X78965000Y-113921000D03*
X80235000Y-113921000D03*
X81505000Y-113921000D03*
X82775000Y-113921000D03*
X84045000Y-113921000D03*
X85315000Y-113921000D03*
X86585000Y-113921000D03*
X87855000Y-113921000D03*
X89125000Y-113921000D03*
X90395000Y-113921000D03*
X91665000Y-113921000D03*
X92935000Y-113921000D03*
X94205000Y-113921000D03*
X95475000Y-113921000D03*
X96745000Y-113921000D03*
X98015000Y-113921000D03*
X99285000Y-113921000D03*
X100555000Y-113921000D03*
X101825000Y-113921000D03*
X108175000Y-113921000D03*
X109445000Y-113921000D03*
X110715000Y-113921000D03*
X111985000Y-113921000D03*
X113255000Y-113921000D03*
X114525000Y-113921000D03*
X115795000Y-113921000D03*
X117065000Y-113921000D03*
X118335000Y-113921000D03*
X119605000Y-113921000D03*
X120875000Y-113921000D03*
X122145000Y-113921000D03*
X123415000Y-113921000D03*
X124685000Y-113921000D03*
X125955000Y-113921000D03*
X127225000Y-113921000D03*
X128495000Y-113921000D03*
X129765000Y-113921000D03*
X131035000Y-113921000D03*
X132305000Y-113921000D03*
X133575000Y-113921000D03*
X134845000Y-113921000D03*
X136115000Y-113921000D03*
X137385000Y-113921000D03*
X138655000Y-113921000D03*
X139925000Y-113921000D03*
X141195000Y-113921000D03*
X142465000Y-113921000D03*
X143735000Y-113921000D03*
X145005000Y-113921000D03*
X146275000Y-113921000D03*
X147545000Y-113921000D03*
X148815000Y-113921000D03*
X150085000Y-113921000D03*
X151355000Y-113921000D03*
X152625000Y-113921000D03*
D11*
X124900000Y-99200000D03*
X91600000Y-108400000D03*
X92173000Y-93093000D03*
X58264000Y-110111000D03*
X98904000Y-99443000D03*
X137004000Y-93093000D03*
X140941000Y-99316000D03*
X76806000Y-97411000D03*
X113255000Y-98554000D03*
X152625000Y-111254000D03*
X57375000Y-112854200D03*
X152625000Y-112854200D03*
X131797000Y-93728000D03*
X58645000Y-112854200D03*
X91531100Y-105425300D03*
X78076000Y-105425800D03*
X137258000Y-103380000D03*
X59915000Y-110365000D03*
X59915000Y-112854200D03*
X61185000Y-112854200D03*
X61121866Y-108269866D03*
X62392232Y-106111232D03*
X62455000Y-112854200D03*
X63726098Y-103889098D03*
X63725000Y-112854200D03*
X64995000Y-101921900D03*
X64995000Y-112854200D03*
X66265000Y-101348000D03*
X66265000Y-112854200D03*
X67535000Y-112854200D03*
X67535000Y-100921900D03*
X123401200Y-97411000D03*
X138655000Y-112854200D03*
X137385000Y-112854200D03*
X122773100Y-96395000D03*
X136115000Y-112854200D03*
X122145000Y-95506000D03*
X80616000Y-111508000D03*
X128495000Y-111254000D03*
X85315000Y-97284000D03*
X124304000Y-96141000D03*
X128495000Y-112854200D03*
X116684000Y-105672900D03*
X96364000Y-94744000D03*
X68805000Y-112854200D03*
X60804000Y-106555000D03*
X139925000Y-111127000D03*
X108175000Y-110619000D03*
X63471000Y-102110000D03*
X80362000Y-104396000D03*
X100555000Y-101221000D03*
X66519000Y-99824000D03*
X91665000Y-112854200D03*
X76044000Y-90807000D03*
X68805000Y-111000000D03*
X140941000Y-102491000D03*
X108175000Y-112854200D03*
X122018000Y-93474000D03*
X123161000Y-94490000D03*
X139925000Y-112854200D03*
X96491000Y-103380000D03*
X127606000Y-93093000D03*
X92427000Y-110619000D03*
X119605000Y-112854200D03*
X80235000Y-112854200D03*
X107286000Y-98427000D03*
X120621000Y-92077000D03*
X62201000Y-104142000D03*
X138909000Y-93982000D03*
X133702000Y-104396000D03*
X71599000Y-107063000D03*
X70075000Y-112854200D03*
X79854000Y-106307900D03*
X82133100Y-106682000D03*
X71345000Y-112854200D03*
X83410000Y-107317000D03*
X72615000Y-112854200D03*
X84807000Y-107958900D03*
X73885000Y-112854200D03*
X86068875Y-108594393D03*
X75155000Y-112854200D03*
X87474000Y-109222000D03*
X76425000Y-112854200D03*
X88608902Y-109991366D03*
X77695000Y-112854200D03*
X90117032Y-110642236D03*
X78965000Y-112854200D03*
X81505000Y-112854200D03*
X82775000Y-112854200D03*
X84045000Y-112854200D03*
X85315000Y-112854200D03*
X86585000Y-112854200D03*
X87855000Y-112854200D03*
X89125000Y-112854200D03*
X90395000Y-112854200D03*
X92935000Y-112854200D03*
X94205000Y-112854200D03*
X130527000Y-96706191D03*
X129257000Y-97284000D03*
X132940000Y-96268000D03*
X129257000Y-98427000D03*
X95475000Y-112854200D03*
X132114134Y-97728134D03*
X96745000Y-112854200D03*
X128237184Y-99573084D03*
X98015000Y-112854200D03*
X129130000Y-100078000D03*
X131924000Y-99189000D03*
X99285000Y-112854200D03*
X129130000Y-101221000D03*
X133195633Y-99698634D03*
X100555000Y-112854200D03*
X132940000Y-101221000D03*
X129257000Y-102364000D03*
X101825000Y-112854200D03*
X132933100Y-102872000D03*
X129130000Y-103634000D03*
X109445000Y-112854200D03*
X110715000Y-112854200D03*
X111985000Y-112854200D03*
X113255000Y-112854200D03*
X114525000Y-112854200D03*
X115795000Y-112854200D03*
X117065000Y-112854200D03*
X118335000Y-112854200D03*
X120875000Y-112854200D03*
X117065000Y-98550000D03*
X117423202Y-97178600D03*
X122145000Y-112854200D03*
X123415000Y-112854200D03*
X118589000Y-97665000D03*
X119224000Y-103253000D03*
X124685000Y-112854200D03*
X125955000Y-112854200D03*
X119986000Y-104396000D03*
X127225000Y-112854200D03*
X121256000Y-104777000D03*
X117700000Y-92077000D03*
X129765000Y-112854200D03*
X118966550Y-92461450D03*
X131035000Y-112854200D03*
X119979100Y-93220000D03*
X132305000Y-112854200D03*
X120621000Y-93982000D03*
X133575000Y-112854200D03*
X121383000Y-94744000D03*
X134845000Y-112854200D03*
X141195000Y-112854200D03*
X142465000Y-112854200D03*
X124050000Y-100211900D03*
X143735000Y-112854200D03*
X145005000Y-112854200D03*
X125066549Y-100840183D03*
X138147000Y-101856000D03*
X133448000Y-93178100D03*
X147545000Y-112854200D03*
X129384000Y-92839000D03*
X148815000Y-112854200D03*
X146275000Y-112854200D03*
X150085000Y-112854200D03*
X151355000Y-112854200D03*
D12*
X57375000Y-111000000D02*
X57375000Y-112854200D01*
X58264000Y-110111000D02*
X57375000Y-111000000D01*
X152625000Y-111254000D02*
X152625000Y-112854200D01*
D13*
X137258000Y-97919000D02*
X133067000Y-93728000D01*
X78076000Y-105425800D02*
X78076500Y-105425300D01*
X133067000Y-93728000D02*
X131797000Y-93728000D01*
X78076500Y-105425300D02*
X91531100Y-105425300D01*
X137258000Y-103380000D02*
X137258000Y-97919000D01*
X59915000Y-110365000D02*
X59915000Y-112854200D01*
X61185000Y-108333000D02*
X61185000Y-112854200D01*
X61121866Y-108269866D02*
X61185000Y-108333000D01*
X62455000Y-106174000D02*
X62455000Y-112854200D01*
X62392232Y-106111232D02*
X62455000Y-106174000D01*
X63726098Y-103889098D02*
X63725000Y-103890196D01*
X63725000Y-103890196D02*
X63725000Y-112854200D01*
X64995000Y-101921900D02*
X64995000Y-112854200D01*
X66265000Y-101348000D02*
X66265000Y-112854200D01*
X67535000Y-100921900D02*
X67535000Y-112854200D01*
X130019000Y-107698000D02*
X133498800Y-107698000D01*
X123401200Y-97411000D02*
X123401200Y-101080200D01*
X133498800Y-107698000D02*
X138655000Y-112854200D01*
X123401200Y-101080200D02*
X130019000Y-107698000D01*
X133194000Y-108663200D02*
X137385000Y-112854200D01*
X122773100Y-96395000D02*
X122773100Y-101341100D01*
X130095200Y-108663200D02*
X133194000Y-108663200D01*
X122773100Y-101341100D02*
X130095200Y-108663200D01*
X122145000Y-101221000D02*
X129892000Y-108968000D01*
X122145000Y-95506000D02*
X122145000Y-101221000D01*
X129892000Y-108968000D02*
X132228800Y-108968000D01*
X132228800Y-108968000D02*
X136115000Y-112854200D01*
X116684000Y-105672900D02*
X116684000Y-107190000D01*
X116684000Y-107190000D02*
X119605000Y-110111000D01*
X119605000Y-110111000D02*
X119605000Y-112854200D01*
X79733900Y-106428000D02*
X76501200Y-106428000D01*
X79854000Y-106307900D02*
X79733900Y-106428000D01*
X76501200Y-106428000D02*
X70075000Y-112854200D01*
X76933000Y-106936000D02*
X71345000Y-112524000D01*
X82133100Y-106682000D02*
X81879100Y-106936000D01*
X71345000Y-112524000D02*
X71345000Y-112854200D01*
X81879100Y-106936000D02*
X76933000Y-106936000D01*
X72615000Y-112016000D02*
X72615000Y-112854200D01*
X83410000Y-107317000D02*
X83156000Y-107571000D01*
X83156000Y-107571000D02*
X77060000Y-107571000D01*
X77060000Y-107571000D02*
X72615000Y-112016000D01*
X73885000Y-111508000D02*
X73885000Y-112854200D01*
X84807000Y-107958900D02*
X84559900Y-108206000D01*
X77187000Y-108206000D02*
X73885000Y-111508000D01*
X84559900Y-108206000D02*
X77187000Y-108206000D01*
X77314000Y-108841000D02*
X75155000Y-111000000D01*
X75155000Y-111000000D02*
X75155000Y-112854200D01*
X86068875Y-108594393D02*
X85822268Y-108841000D01*
X85822268Y-108841000D02*
X77314000Y-108841000D01*
X76425000Y-111762000D02*
X76425000Y-112854200D01*
X87474000Y-109222000D02*
X87220000Y-109476000D01*
X87220000Y-109476000D02*
X78711000Y-109476000D01*
X78711000Y-109476000D02*
X76425000Y-111762000D01*
X77695000Y-111889000D02*
X77695000Y-112854200D01*
X79346000Y-110238000D02*
X77695000Y-111889000D01*
X88608902Y-109991366D02*
X88362268Y-110238000D01*
X88362268Y-110238000D02*
X79346000Y-110238000D01*
X90117032Y-110642236D02*
X89886268Y-110873000D01*
X79854000Y-110873000D02*
X78965000Y-111762000D01*
X89886268Y-110873000D02*
X79854000Y-110873000D01*
X78965000Y-111762000D02*
X78965000Y-112854200D01*
X129765000Y-97284000D02*
X130342809Y-96706191D01*
X129257000Y-97284000D02*
X129765000Y-97284000D01*
X130342809Y-96706191D02*
X130527000Y-96706191D01*
X132394668Y-96776000D02*
X132902668Y-96268000D01*
X129257000Y-98427000D02*
X129892000Y-98427000D01*
X131543000Y-96776000D02*
X132394668Y-96776000D01*
X132902668Y-96268000D02*
X132940000Y-96268000D01*
X129892000Y-98427000D02*
X131543000Y-96776000D01*
X128477556Y-99332712D02*
X129875288Y-99332712D01*
X129875288Y-99332712D02*
X131479866Y-97728134D01*
X131479866Y-97728134D02*
X132114134Y-97728134D01*
X128237184Y-99573084D02*
X128477556Y-99332712D01*
X131475488Y-99637512D02*
X131924000Y-99189000D01*
X129570488Y-99637512D02*
X131475488Y-99637512D01*
X129130000Y-100078000D02*
X129570488Y-99637512D01*
X129130000Y-101221000D02*
X130146000Y-100205000D01*
X132557366Y-99698634D02*
X133195633Y-99698634D01*
X132051000Y-100205000D02*
X132557366Y-99698634D01*
X130146000Y-100205000D02*
X132051000Y-100205000D01*
X131670000Y-101221000D02*
X132940000Y-101221000D01*
X131162000Y-101729000D02*
X131670000Y-101221000D01*
X129892000Y-101729000D02*
X131162000Y-101729000D01*
X129257000Y-102364000D02*
X129892000Y-101729000D01*
X129511000Y-103253000D02*
X132552100Y-103253000D01*
X129130000Y-103634000D02*
X129511000Y-103253000D01*
X132552100Y-103253000D02*
X132933100Y-102872000D01*
X117065000Y-98550000D02*
X117065000Y-104904000D01*
X117065000Y-104904000D02*
X120875000Y-108714000D01*
X120875000Y-108714000D02*
X120875000Y-112854200D01*
X117700000Y-104777000D02*
X122145000Y-109222000D01*
X117423202Y-97178600D02*
X117700000Y-97455398D01*
X117700000Y-97455398D02*
X117700000Y-104777000D01*
X122145000Y-109222000D02*
X122145000Y-112854200D01*
X118589000Y-104904000D02*
X123415000Y-109730000D01*
X118589000Y-97665000D02*
X118589000Y-104904000D01*
X123415000Y-109730000D02*
X123415000Y-112854200D01*
X119224000Y-104777000D02*
X124685000Y-110238000D01*
X124685000Y-110238000D02*
X124685000Y-112854200D01*
X119224000Y-103253000D02*
X119224000Y-104777000D01*
X119986000Y-104396000D02*
X120113000Y-104523000D01*
X120113000Y-104523000D02*
X120113000Y-104536800D01*
X125955000Y-110378800D02*
X125955000Y-112854200D01*
X120113000Y-104536800D02*
X125955000Y-110378800D01*
X127225000Y-110746000D02*
X127225000Y-112854200D01*
X121256000Y-104777000D02*
X127225000Y-110746000D01*
X118208000Y-96014000D02*
X119732000Y-97538000D01*
X128120400Y-110625400D02*
X128755375Y-110625400D01*
X117954000Y-92077000D02*
X118208000Y-92331000D01*
X118208000Y-92331000D02*
X118208000Y-96014000D01*
X128755375Y-110625400D02*
X129765000Y-111635025D01*
X119732000Y-102237000D02*
X128120400Y-110625400D01*
X119732000Y-97538000D02*
X119732000Y-102237000D01*
X117700000Y-92077000D02*
X117954000Y-92077000D01*
X129765000Y-111635025D02*
X129765000Y-112854200D01*
X119407613Y-92902513D02*
X119350500Y-92959625D01*
X118966550Y-92461450D02*
X119407613Y-92902513D01*
X119350500Y-96394500D02*
X120240000Y-97284000D01*
X131035000Y-112473973D02*
X131035000Y-112854200D01*
X120240000Y-97284000D02*
X120240000Y-102110000D01*
X119350500Y-92959625D02*
X119350500Y-96394500D01*
X128881627Y-110320600D02*
X131035000Y-112473973D01*
X128450600Y-110320600D02*
X128881627Y-110320600D01*
X120240000Y-102110000D02*
X128450600Y-110320600D01*
X120748000Y-97157000D02*
X120748000Y-102110000D01*
X119979100Y-93220000D02*
X119979100Y-96388100D01*
X119979100Y-96388100D02*
X120748000Y-97157000D01*
X129466600Y-110015800D02*
X132305000Y-112854200D01*
X128653800Y-110015800D02*
X129466600Y-110015800D01*
X120748000Y-102110000D02*
X128653800Y-110015800D01*
X128857000Y-109711000D02*
X130431800Y-109711000D01*
X121256000Y-97030000D02*
X121256000Y-102110000D01*
X120621000Y-93982000D02*
X120621000Y-96395000D01*
X130431800Y-109711000D02*
X133575000Y-112854200D01*
X121256000Y-102110000D02*
X128857000Y-109711000D01*
X120621000Y-96395000D02*
X121256000Y-97030000D01*
X121383000Y-94744000D02*
X121383000Y-96395000D01*
X131397000Y-109406200D02*
X134845000Y-112854200D01*
X121764000Y-96776000D02*
X121764000Y-101983000D01*
X121764000Y-101983000D02*
X129187200Y-109406200D01*
X129187200Y-109406200D02*
X131397000Y-109406200D01*
X121383000Y-96395000D02*
X121764000Y-96776000D01*
X124050000Y-100211900D02*
X124050000Y-100713000D01*
X130120600Y-106783600D02*
X137664400Y-106783600D01*
X137664400Y-106783600D02*
X143735000Y-112854200D01*
X124050000Y-100713000D02*
X130120600Y-106783600D01*
X138629600Y-106478800D02*
X145005000Y-112854200D01*
X131085800Y-106478800D02*
X138629600Y-106478800D01*
X125066549Y-100840183D02*
X125447183Y-100840183D01*
X125447183Y-100840183D02*
X131085800Y-106478800D01*
X137893000Y-97623100D02*
X133448000Y-93178100D01*
X147545000Y-112854200D02*
X147545000Y-111254000D01*
X137893000Y-101602000D02*
X137893000Y-97623100D01*
X147545000Y-111254000D02*
X138147000Y-101856000D01*
X138147000Y-101856000D02*
X137893000Y-101602000D01*
X138655000Y-101348000D02*
X148815000Y-111508000D01*
X129673500Y-92549500D02*
X133708375Y-92549500D01*
X133708375Y-92549500D02*
X138655000Y-97496125D01*
X138655000Y-97496125D02*
X138655000Y-101348000D01*
X148815000Y-111508000D02*
X148815000Y-112854200D01*
X129384000Y-92839000D02*
X129673500Y-92549500D01*
M02*
