M48
; DRILL file {KiCad 7.0.9} date Monday, January 22, 2024 at 10:35:53 PM
; FORMAT={-:-/ absolute / metric / decimal}
; #@! TF.CreationDate,2024-01-22T22:35:53+01:00
; #@! TF.GenerationSoftware,Kicad,Pcbnew,7.0.9
; #@! TF.FileFunction,Plated,1,4,PTH
FMAT,2
METRIC
; #@! TA.AperFunction,Plated,PTH,ViaDrill
T1C0.400
%
G90
G05
T1
X57.375Y-112.854
X58.264Y-110.111
X58.645Y-112.854
X59.915Y-110.365
X59.915Y-112.854
X60.804Y-106.555
X61.122Y-108.27
X61.185Y-112.854
X62.201Y-104.142
X62.392Y-106.111
X62.455Y-112.854
X63.471Y-102.11
X63.725Y-112.854
X63.726Y-103.889
X64.995Y-101.922
X64.995Y-112.854
X66.265Y-101.348
X66.265Y-112.854
X66.519Y-99.824
X67.535Y-100.922
X67.535Y-112.854
X68.805Y-111.0
X68.805Y-112.854
X70.075Y-112.854
X71.345Y-112.854
X71.599Y-107.063
X72.615Y-112.854
X73.885Y-112.854
X75.155Y-112.854
X76.044Y-90.807
X76.425Y-112.854
X76.806Y-97.411
X77.695Y-112.854
X78.076Y-105.426
X78.965Y-112.854
X79.854Y-106.308
X80.235Y-112.854
X80.362Y-104.396
X80.616Y-111.508
X81.505Y-112.854
X82.133Y-106.682
X82.775Y-112.854
X83.41Y-107.317
X84.045Y-112.854
X84.807Y-107.959
X85.315Y-97.284
X85.315Y-112.854
X86.069Y-108.594
X86.585Y-112.854
X87.474Y-109.222
X87.855Y-112.854
X88.609Y-109.991
X89.125Y-112.854
X90.117Y-110.642
X90.395Y-112.854
X91.531Y-105.425
X91.6Y-108.4
X91.665Y-112.854
X92.173Y-93.093
X92.427Y-110.619
X92.935Y-112.854
X94.205Y-112.854
X95.475Y-112.854
X96.364Y-94.744
X96.491Y-103.38
X96.745Y-112.854
X98.015Y-112.854
X98.904Y-99.443
X99.285Y-112.854
X100.555Y-101.221
X100.555Y-112.854
X101.825Y-112.854
X107.286Y-98.427
X108.175Y-110.619
X108.175Y-112.854
X109.445Y-112.854
X110.715Y-112.854
X111.985Y-112.854
X113.255Y-98.554
X113.255Y-112.854
X114.525Y-112.854
X115.795Y-112.854
X116.684Y-105.673
X117.065Y-98.55
X117.065Y-112.854
X117.423Y-97.179
X117.7Y-92.077
X118.335Y-112.854
X118.589Y-97.665
X118.967Y-92.461
X119.224Y-103.253
X119.605Y-112.854
X119.979Y-93.22
X119.986Y-104.396
X120.621Y-92.077
X120.621Y-93.982
X120.875Y-112.854
X121.256Y-104.777
X121.383Y-94.744
X122.018Y-93.474
X122.145Y-95.506
X122.145Y-112.854
X122.773Y-96.395
X123.161Y-94.49
X123.401Y-97.411
X123.415Y-112.854
X124.05Y-100.212
X124.304Y-96.141
X124.685Y-112.854
X124.9Y-99.2
X125.067Y-100.84
X125.955Y-112.854
X127.225Y-112.854
X127.606Y-93.093
X128.237Y-99.573
X128.495Y-111.254
X128.495Y-112.854
X129.13Y-100.078
X129.13Y-101.221
X129.13Y-103.634
X129.257Y-97.284
X129.257Y-98.427
X129.257Y-102.364
X129.384Y-92.839
X129.765Y-112.854
X130.527Y-96.706
X131.035Y-112.854
X131.797Y-93.728
X131.924Y-99.189
X132.114Y-97.728
X132.305Y-112.854
X132.933Y-102.872
X132.94Y-96.268
X132.94Y-101.221
X133.196Y-99.699
X133.448Y-93.178
X133.575Y-112.854
X133.702Y-104.396
X134.845Y-112.854
X136.115Y-112.854
X137.004Y-93.093
X137.258Y-103.38
X137.385Y-112.854
X138.147Y-101.856
X138.655Y-112.854
X138.909Y-93.982
X139.925Y-111.127
X139.925Y-112.854
X140.941Y-99.316
X140.941Y-102.491
X141.195Y-112.854
X142.465Y-112.854
X143.735Y-112.854
X145.005Y-112.854
X146.275Y-112.854
X147.545Y-112.854
X148.815Y-112.854
X150.085Y-112.854
X151.355Y-112.854
X152.625Y-111.254
X152.625Y-112.854
T0
M30
