%TF.GenerationSoftware,KiCad,Pcbnew,7.0.9*%
%TF.CreationDate,2024-01-22T22:35:53+01:00*%
%TF.ProjectId,simm72,73696d6d-3732-42e6-9b69-6361645f7063,A*%
%TF.SameCoordinates,Original*%
%TF.FileFunction,Drillmap*%
%TF.FilePolarity,Positive*%
%FSLAX45Y45*%
G04 Gerber Fmt 4.5, Leading zero omitted, Abs format (unit mm)*
G04 Created by KiCad (PCBNEW 7.0.9) date 2024-01-22 22:35:53*
%MOMM*%
%LPD*%
G01*
G04 APERTURE LIST*
%ADD10C,0.050000*%
%ADD11C,0.200000*%
%ADD12C,0.100000*%
G04 APERTURE END LIST*
D10*
X5153300Y-8366960D02*
G75*
G03*
X5102500Y-8417760I0J-50800D01*
G01*
X15897500Y-8417760D02*
G75*
G03*
X15846700Y-8366960I-50800J0D01*
G01*
X15897500Y-8417760D02*
X15897580Y-10274500D01*
X5102500Y-8417760D02*
X5102580Y-10274500D01*
X15846700Y-8366960D02*
X5153300Y-8366960D01*
D11*
D12*
X5717500Y-11265420D02*
X5757500Y-11305420D01*
X5757500Y-11265420D02*
X5717500Y-11305420D01*
X5806400Y-10991100D02*
X5846400Y-11031100D01*
X5846400Y-10991100D02*
X5806400Y-11031100D01*
X5844500Y-11265420D02*
X5884500Y-11305420D01*
X5884500Y-11265420D02*
X5844500Y-11305420D01*
X5971500Y-11016500D02*
X6011500Y-11056500D01*
X6011500Y-11016500D02*
X5971500Y-11056500D01*
X5971500Y-11265420D02*
X6011500Y-11305420D01*
X6011500Y-11265420D02*
X5971500Y-11305420D01*
X6060400Y-10635500D02*
X6100400Y-10675500D01*
X6100400Y-10635500D02*
X6060400Y-10675500D01*
X6092187Y-10806987D02*
X6132187Y-10846987D01*
X6132187Y-10806987D02*
X6092187Y-10846987D01*
X6098500Y-11265420D02*
X6138500Y-11305420D01*
X6138500Y-11265420D02*
X6098500Y-11305420D01*
X6200100Y-10394200D02*
X6240100Y-10434200D01*
X6240100Y-10394200D02*
X6200100Y-10434200D01*
X6219223Y-10591123D02*
X6259223Y-10631123D01*
X6259223Y-10591123D02*
X6219223Y-10631123D01*
X6225500Y-11265420D02*
X6265500Y-11305420D01*
X6265500Y-11265420D02*
X6225500Y-11305420D01*
X6327100Y-10191000D02*
X6367100Y-10231000D01*
X6367100Y-10191000D02*
X6327100Y-10231000D01*
X6352500Y-11265420D02*
X6392500Y-11305420D01*
X6392500Y-11265420D02*
X6352500Y-11305420D01*
X6352610Y-10368910D02*
X6392610Y-10408910D01*
X6392610Y-10368910D02*
X6352610Y-10408910D01*
X6479500Y-10172190D02*
X6519500Y-10212190D01*
X6519500Y-10172190D02*
X6479500Y-10212190D01*
X6479500Y-11265420D02*
X6519500Y-11305420D01*
X6519500Y-11265420D02*
X6479500Y-11305420D01*
X6606500Y-10114800D02*
X6646500Y-10154800D01*
X6646500Y-10114800D02*
X6606500Y-10154800D01*
X6606500Y-11265420D02*
X6646500Y-11305420D01*
X6646500Y-11265420D02*
X6606500Y-11305420D01*
X6631900Y-9962400D02*
X6671900Y-10002400D01*
X6671900Y-9962400D02*
X6631900Y-10002400D01*
X6733500Y-10072190D02*
X6773500Y-10112190D01*
X6773500Y-10072190D02*
X6733500Y-10112190D01*
X6733500Y-11265420D02*
X6773500Y-11305420D01*
X6773500Y-11265420D02*
X6733500Y-11305420D01*
X6860500Y-11080000D02*
X6900500Y-11120000D01*
X6900500Y-11080000D02*
X6860500Y-11120000D01*
X6860500Y-11265420D02*
X6900500Y-11305420D01*
X6900500Y-11265420D02*
X6860500Y-11305420D01*
X6987500Y-11265420D02*
X7027500Y-11305420D01*
X7027500Y-11265420D02*
X6987500Y-11305420D01*
X7114500Y-11265420D02*
X7154500Y-11305420D01*
X7154500Y-11265420D02*
X7114500Y-11305420D01*
X7139900Y-10686300D02*
X7179900Y-10726300D01*
X7179900Y-10686300D02*
X7139900Y-10726300D01*
X7241500Y-11265420D02*
X7281500Y-11305420D01*
X7281500Y-11265420D02*
X7241500Y-11305420D01*
X7368500Y-11265420D02*
X7408500Y-11305420D01*
X7408500Y-11265420D02*
X7368500Y-11305420D01*
X7495500Y-11265420D02*
X7535500Y-11305420D01*
X7535500Y-11265420D02*
X7495500Y-11305420D01*
X7584400Y-9060700D02*
X7624400Y-9100700D01*
X7624400Y-9060700D02*
X7584400Y-9100700D01*
X7622500Y-11265420D02*
X7662500Y-11305420D01*
X7662500Y-11265420D02*
X7622500Y-11305420D01*
X7660600Y-9721100D02*
X7700600Y-9761100D01*
X7700600Y-9721100D02*
X7660600Y-9761100D01*
X7749500Y-11265420D02*
X7789500Y-11305420D01*
X7789500Y-11265420D02*
X7749500Y-11305420D01*
X7787600Y-10522580D02*
X7827600Y-10562580D01*
X7827600Y-10522580D02*
X7787600Y-10562580D01*
X7876500Y-11265420D02*
X7916500Y-11305420D01*
X7916500Y-11265420D02*
X7876500Y-11305420D01*
X7965400Y-10610790D02*
X8005400Y-10650790D01*
X8005400Y-10610790D02*
X7965400Y-10650790D01*
X8003500Y-11265420D02*
X8043500Y-11305420D01*
X8043500Y-11265420D02*
X8003500Y-11305420D01*
X8016200Y-10419600D02*
X8056200Y-10459600D01*
X8056200Y-10419600D02*
X8016200Y-10459600D01*
X8041600Y-11130800D02*
X8081600Y-11170800D01*
X8081600Y-11130800D02*
X8041600Y-11170800D01*
X8130500Y-11265420D02*
X8170500Y-11305420D01*
X8170500Y-11265420D02*
X8130500Y-11305420D01*
X8193310Y-10648200D02*
X8233310Y-10688200D01*
X8233310Y-10648200D02*
X8193310Y-10688200D01*
X8257500Y-11265420D02*
X8297500Y-11305420D01*
X8297500Y-11265420D02*
X8257500Y-11305420D01*
X8321000Y-10711700D02*
X8361000Y-10751700D01*
X8361000Y-10711700D02*
X8321000Y-10751700D01*
X8384500Y-11265420D02*
X8424500Y-11305420D01*
X8424500Y-11265420D02*
X8384500Y-11305420D01*
X8460700Y-10775890D02*
X8500700Y-10815890D01*
X8500700Y-10775890D02*
X8460700Y-10815890D01*
X8511500Y-9708400D02*
X8551500Y-9748400D01*
X8551500Y-9708400D02*
X8511500Y-9748400D01*
X8511500Y-11265420D02*
X8551500Y-11305420D01*
X8551500Y-11265420D02*
X8511500Y-11305420D01*
X8586888Y-10839439D02*
X8626888Y-10879439D01*
X8626888Y-10839439D02*
X8586888Y-10879439D01*
X8638500Y-11265420D02*
X8678500Y-11305420D01*
X8678500Y-11265420D02*
X8638500Y-11305420D01*
X8727400Y-10902200D02*
X8767400Y-10942200D01*
X8767400Y-10902200D02*
X8727400Y-10942200D01*
X8765500Y-11265420D02*
X8805500Y-11305420D01*
X8805500Y-11265420D02*
X8765500Y-11305420D01*
X8840890Y-10979137D02*
X8880890Y-11019137D01*
X8880890Y-10979137D02*
X8840890Y-11019137D01*
X8892500Y-11265420D02*
X8932500Y-11305420D01*
X8932500Y-11265420D02*
X8892500Y-11305420D01*
X8991703Y-11044224D02*
X9031703Y-11084224D01*
X9031703Y-11044224D02*
X8991703Y-11084224D01*
X9019500Y-11265420D02*
X9059500Y-11305420D01*
X9059500Y-11265420D02*
X9019500Y-11305420D01*
X9133110Y-10522530D02*
X9173110Y-10562530D01*
X9173110Y-10522530D02*
X9133110Y-10562530D01*
X9140000Y-10820000D02*
X9180000Y-10860000D01*
X9180000Y-10820000D02*
X9140000Y-10860000D01*
X9146500Y-11265420D02*
X9186500Y-11305420D01*
X9186500Y-11265420D02*
X9146500Y-11305420D01*
X9197300Y-9289300D02*
X9237300Y-9329300D01*
X9237300Y-9289300D02*
X9197300Y-9329300D01*
X9222700Y-11041900D02*
X9262700Y-11081900D01*
X9262700Y-11041900D02*
X9222700Y-11081900D01*
X9273500Y-11265420D02*
X9313500Y-11305420D01*
X9313500Y-11265420D02*
X9273500Y-11305420D01*
X9400500Y-11265420D02*
X9440500Y-11305420D01*
X9440500Y-11265420D02*
X9400500Y-11305420D01*
X9527500Y-11265420D02*
X9567500Y-11305420D01*
X9567500Y-11265420D02*
X9527500Y-11305420D01*
X9616400Y-9454400D02*
X9656400Y-9494400D01*
X9656400Y-9454400D02*
X9616400Y-9494400D01*
X9629100Y-10318000D02*
X9669100Y-10358000D01*
X9669100Y-10318000D02*
X9629100Y-10358000D01*
X9654500Y-11265420D02*
X9694500Y-11305420D01*
X9694500Y-11265420D02*
X9654500Y-11305420D01*
X9781500Y-11265420D02*
X9821500Y-11305420D01*
X9821500Y-11265420D02*
X9781500Y-11305420D01*
X9870400Y-9924300D02*
X9910400Y-9964300D01*
X9910400Y-9924300D02*
X9870400Y-9964300D01*
X9908500Y-11265420D02*
X9948500Y-11305420D01*
X9948500Y-11265420D02*
X9908500Y-11305420D01*
X10035500Y-10102100D02*
X10075500Y-10142100D01*
X10075500Y-10102100D02*
X10035500Y-10142100D01*
X10035500Y-11265420D02*
X10075500Y-11305420D01*
X10075500Y-11265420D02*
X10035500Y-11305420D01*
X10162500Y-11265420D02*
X10202500Y-11305420D01*
X10202500Y-11265420D02*
X10162500Y-11305420D01*
X10708600Y-9822700D02*
X10748600Y-9862700D01*
X10748600Y-9822700D02*
X10708600Y-9862700D01*
X10797500Y-11041900D02*
X10837500Y-11081900D01*
X10837500Y-11041900D02*
X10797500Y-11081900D01*
X10797500Y-11265420D02*
X10837500Y-11305420D01*
X10837500Y-11265420D02*
X10797500Y-11305420D01*
X10924500Y-11265420D02*
X10964500Y-11305420D01*
X10964500Y-11265420D02*
X10924500Y-11305420D01*
X11051500Y-11265420D02*
X11091500Y-11305420D01*
X11091500Y-11265420D02*
X11051500Y-11305420D01*
X11178500Y-11265420D02*
X11218500Y-11305420D01*
X11218500Y-11265420D02*
X11178500Y-11305420D01*
X11305500Y-9835400D02*
X11345500Y-9875400D01*
X11345500Y-9835400D02*
X11305500Y-9875400D01*
X11305500Y-11265420D02*
X11345500Y-11305420D01*
X11345500Y-11265420D02*
X11305500Y-11305420D01*
X11432500Y-11265420D02*
X11472500Y-11305420D01*
X11472500Y-11265420D02*
X11432500Y-11305420D01*
X11559500Y-11265420D02*
X11599500Y-11305420D01*
X11599500Y-11265420D02*
X11559500Y-11305420D01*
X11648400Y-10547290D02*
X11688400Y-10587290D01*
X11688400Y-10547290D02*
X11648400Y-10587290D01*
X11686500Y-9835000D02*
X11726500Y-9875000D01*
X11726500Y-9835000D02*
X11686500Y-9875000D01*
X11686500Y-11265420D02*
X11726500Y-11305420D01*
X11726500Y-11265420D02*
X11686500Y-11305420D01*
X11722320Y-9697860D02*
X11762320Y-9737860D01*
X11762320Y-9697860D02*
X11722320Y-9737860D01*
X11750000Y-9187700D02*
X11790000Y-9227700D01*
X11790000Y-9187700D02*
X11750000Y-9227700D01*
X11813500Y-11265420D02*
X11853500Y-11305420D01*
X11853500Y-11265420D02*
X11813500Y-11305420D01*
X11838900Y-9746500D02*
X11878900Y-9786500D01*
X11878900Y-9746500D02*
X11838900Y-9786500D01*
X11876655Y-9226145D02*
X11916655Y-9266145D01*
X11916655Y-9226145D02*
X11876655Y-9266145D01*
X11902400Y-10305300D02*
X11942400Y-10345300D01*
X11942400Y-10305300D02*
X11902400Y-10345300D01*
X11940500Y-11265420D02*
X11980500Y-11305420D01*
X11980500Y-11265420D02*
X11940500Y-11305420D01*
X11977910Y-9302000D02*
X12017910Y-9342000D01*
X12017910Y-9302000D02*
X11977910Y-9342000D01*
X11978600Y-10419600D02*
X12018600Y-10459600D01*
X12018600Y-10419600D02*
X11978600Y-10459600D01*
X12042100Y-9187700D02*
X12082100Y-9227700D01*
X12082100Y-9187700D02*
X12042100Y-9227700D01*
X12042100Y-9378200D02*
X12082100Y-9418200D01*
X12082100Y-9378200D02*
X12042100Y-9418200D01*
X12067500Y-11265420D02*
X12107500Y-11305420D01*
X12107500Y-11265420D02*
X12067500Y-11305420D01*
X12105600Y-10457700D02*
X12145600Y-10497700D01*
X12145600Y-10457700D02*
X12105600Y-10497700D01*
X12118300Y-9454400D02*
X12158300Y-9494400D01*
X12158300Y-9454400D02*
X12118300Y-9494400D01*
X12181800Y-9327400D02*
X12221800Y-9367400D01*
X12221800Y-9327400D02*
X12181800Y-9367400D01*
X12194500Y-9530600D02*
X12234500Y-9570600D01*
X12234500Y-9530600D02*
X12194500Y-9570600D01*
X12194500Y-11265420D02*
X12234500Y-11305420D01*
X12234500Y-11265420D02*
X12194500Y-11305420D01*
X12257310Y-9619500D02*
X12297310Y-9659500D01*
X12297310Y-9619500D02*
X12257310Y-9659500D01*
X12296100Y-9429000D02*
X12336100Y-9469000D01*
X12336100Y-9429000D02*
X12296100Y-9469000D01*
X12320120Y-9721100D02*
X12360120Y-9761100D01*
X12360120Y-9721100D02*
X12320120Y-9761100D01*
X12321500Y-11265420D02*
X12361500Y-11305420D01*
X12361500Y-11265420D02*
X12321500Y-11305420D01*
X12385000Y-10001190D02*
X12425000Y-10041190D01*
X12425000Y-10001190D02*
X12385000Y-10041190D01*
X12410400Y-9594100D02*
X12450400Y-9634100D01*
X12450400Y-9594100D02*
X12410400Y-9634100D01*
X12448500Y-11265420D02*
X12488500Y-11305420D01*
X12488500Y-11265420D02*
X12448500Y-11305420D01*
X12470000Y-9900000D02*
X12510000Y-9940000D01*
X12510000Y-9900000D02*
X12470000Y-9940000D01*
X12486655Y-10064018D02*
X12526655Y-10104018D01*
X12526655Y-10064018D02*
X12486655Y-10104018D01*
X12575500Y-11265420D02*
X12615500Y-11305420D01*
X12615500Y-11265420D02*
X12575500Y-11305420D01*
X12702500Y-11265420D02*
X12742500Y-11305420D01*
X12742500Y-11265420D02*
X12702500Y-11305420D01*
X12740600Y-9289300D02*
X12780600Y-9329300D01*
X12780600Y-9289300D02*
X12740600Y-9329300D01*
X12803718Y-9937308D02*
X12843718Y-9977308D01*
X12843718Y-9937308D02*
X12803718Y-9977308D01*
X12829500Y-11105400D02*
X12869500Y-11145400D01*
X12869500Y-11105400D02*
X12829500Y-11145400D01*
X12829500Y-11265420D02*
X12869500Y-11305420D01*
X12869500Y-11265420D02*
X12829500Y-11305420D01*
X12893000Y-9987800D02*
X12933000Y-10027800D01*
X12933000Y-9987800D02*
X12893000Y-10027800D01*
X12893000Y-10102100D02*
X12933000Y-10142100D01*
X12933000Y-10102100D02*
X12893000Y-10142100D01*
X12893000Y-10343400D02*
X12933000Y-10383400D01*
X12933000Y-10343400D02*
X12893000Y-10383400D01*
X12905700Y-9708400D02*
X12945700Y-9748400D01*
X12945700Y-9708400D02*
X12905700Y-9748400D01*
X12905700Y-9822700D02*
X12945700Y-9862700D01*
X12945700Y-9822700D02*
X12905700Y-9862700D01*
X12905700Y-10216400D02*
X12945700Y-10256400D01*
X12945700Y-10216400D02*
X12905700Y-10256400D01*
X12918400Y-9263900D02*
X12958400Y-9303900D01*
X12958400Y-9263900D02*
X12918400Y-9303900D01*
X12956500Y-11265420D02*
X12996500Y-11305420D01*
X12996500Y-11265420D02*
X12956500Y-11305420D01*
X13032700Y-9650619D02*
X13072700Y-9690619D01*
X13072700Y-9650619D02*
X13032700Y-9690619D01*
X13083500Y-11265420D02*
X13123500Y-11305420D01*
X13123500Y-11265420D02*
X13083500Y-11305420D01*
X13159700Y-9352800D02*
X13199700Y-9392800D01*
X13199700Y-9352800D02*
X13159700Y-9392800D01*
X13172400Y-9898900D02*
X13212400Y-9938900D01*
X13212400Y-9898900D02*
X13172400Y-9938900D01*
X13191413Y-9752813D02*
X13231413Y-9792813D01*
X13231413Y-9752813D02*
X13191413Y-9792813D01*
X13210500Y-11265420D02*
X13250500Y-11305420D01*
X13250500Y-11265420D02*
X13210500Y-11305420D01*
X13273310Y-10267200D02*
X13313310Y-10307200D01*
X13313310Y-10267200D02*
X13273310Y-10307200D01*
X13274000Y-9606800D02*
X13314000Y-9646800D01*
X13314000Y-9606800D02*
X13274000Y-9646800D01*
X13274000Y-10102100D02*
X13314000Y-10142100D01*
X13314000Y-10102100D02*
X13274000Y-10142100D01*
X13299563Y-9949863D02*
X13339563Y-9989863D01*
X13339563Y-9949863D02*
X13299563Y-9989863D01*
X13324800Y-9297810D02*
X13364800Y-9337810D01*
X13364800Y-9297810D02*
X13324800Y-9337810D01*
X13337500Y-11265420D02*
X13377500Y-11305420D01*
X13377500Y-11265420D02*
X13337500Y-11305420D01*
X13350200Y-10419600D02*
X13390200Y-10459600D01*
X13390200Y-10419600D02*
X13350200Y-10459600D01*
X13464500Y-11265420D02*
X13504500Y-11305420D01*
X13504500Y-11265420D02*
X13464500Y-11305420D01*
X13591500Y-11265420D02*
X13631500Y-11305420D01*
X13631500Y-11265420D02*
X13591500Y-11305420D01*
X13680400Y-9289300D02*
X13720400Y-9329300D01*
X13720400Y-9289300D02*
X13680400Y-9329300D01*
X13705800Y-10318000D02*
X13745800Y-10358000D01*
X13745800Y-10318000D02*
X13705800Y-10358000D01*
X13718500Y-11265420D02*
X13758500Y-11305420D01*
X13758500Y-11265420D02*
X13718500Y-11305420D01*
X13794700Y-10165600D02*
X13834700Y-10205600D01*
X13834700Y-10165600D02*
X13794700Y-10205600D01*
X13845500Y-11265420D02*
X13885500Y-11305420D01*
X13885500Y-11265420D02*
X13845500Y-11305420D01*
X13870900Y-9378200D02*
X13910900Y-9418200D01*
X13910900Y-9378200D02*
X13870900Y-9418200D01*
X13972500Y-11092700D02*
X14012500Y-11132700D01*
X14012500Y-11092700D02*
X13972500Y-11132700D01*
X13972500Y-11265420D02*
X14012500Y-11305420D01*
X14012500Y-11265420D02*
X13972500Y-11305420D01*
X14074100Y-9911600D02*
X14114100Y-9951600D01*
X14114100Y-9911600D02*
X14074100Y-9951600D01*
X14074100Y-10229100D02*
X14114100Y-10269100D01*
X14114100Y-10229100D02*
X14074100Y-10269100D01*
X14099500Y-11265420D02*
X14139500Y-11305420D01*
X14139500Y-11265420D02*
X14099500Y-11305420D01*
X14226500Y-11265420D02*
X14266500Y-11305420D01*
X14266500Y-11265420D02*
X14226500Y-11305420D01*
X14353500Y-11265420D02*
X14393500Y-11305420D01*
X14393500Y-11265420D02*
X14353500Y-11305420D01*
X14480500Y-11265420D02*
X14520500Y-11305420D01*
X14520500Y-11265420D02*
X14480500Y-11305420D01*
X14607500Y-11265420D02*
X14647500Y-11305420D01*
X14647500Y-11265420D02*
X14607500Y-11305420D01*
X14734500Y-11265420D02*
X14774500Y-11305420D01*
X14774500Y-11265420D02*
X14734500Y-11305420D01*
X14861500Y-11265420D02*
X14901500Y-11305420D01*
X14901500Y-11265420D02*
X14861500Y-11305420D01*
X14988500Y-11265420D02*
X15028500Y-11305420D01*
X15028500Y-11265420D02*
X14988500Y-11305420D01*
X15115500Y-11265420D02*
X15155500Y-11305420D01*
X15155500Y-11265420D02*
X15115500Y-11305420D01*
X15242500Y-11105400D02*
X15282500Y-11145400D01*
X15282500Y-11105400D02*
X15242500Y-11145400D01*
X15242500Y-11265420D02*
X15282500Y-11305420D01*
X15282500Y-11265420D02*
X15242500Y-11305420D01*
D11*
X5360777Y-11858484D02*
X5360777Y-11658484D01*
X5360777Y-11658484D02*
X5408396Y-11658484D01*
X5408396Y-11658484D02*
X5436967Y-11668008D01*
X5436967Y-11668008D02*
X5456015Y-11687055D01*
X5456015Y-11687055D02*
X5465539Y-11706103D01*
X5465539Y-11706103D02*
X5475063Y-11744198D01*
X5475063Y-11744198D02*
X5475063Y-11772769D01*
X5475063Y-11772769D02*
X5465539Y-11810865D01*
X5465539Y-11810865D02*
X5456015Y-11829912D01*
X5456015Y-11829912D02*
X5436967Y-11848960D01*
X5436967Y-11848960D02*
X5408396Y-11858484D01*
X5408396Y-11858484D02*
X5360777Y-11858484D01*
X5560777Y-11858484D02*
X5560777Y-11725150D01*
X5560777Y-11763246D02*
X5570301Y-11744198D01*
X5570301Y-11744198D02*
X5579824Y-11734674D01*
X5579824Y-11734674D02*
X5598872Y-11725150D01*
X5598872Y-11725150D02*
X5617920Y-11725150D01*
X5684586Y-11858484D02*
X5684586Y-11725150D01*
X5684586Y-11658484D02*
X5675062Y-11668008D01*
X5675062Y-11668008D02*
X5684586Y-11677531D01*
X5684586Y-11677531D02*
X5694110Y-11668008D01*
X5694110Y-11668008D02*
X5684586Y-11658484D01*
X5684586Y-11658484D02*
X5684586Y-11677531D01*
X5808396Y-11858484D02*
X5789348Y-11848960D01*
X5789348Y-11848960D02*
X5779824Y-11829912D01*
X5779824Y-11829912D02*
X5779824Y-11658484D01*
X5913158Y-11858484D02*
X5894110Y-11848960D01*
X5894110Y-11848960D02*
X5884586Y-11829912D01*
X5884586Y-11829912D02*
X5884586Y-11658484D01*
X6141729Y-11858484D02*
X6141729Y-11658484D01*
X6141729Y-11658484D02*
X6208396Y-11801341D01*
X6208396Y-11801341D02*
X6275062Y-11658484D01*
X6275062Y-11658484D02*
X6275062Y-11858484D01*
X6456015Y-11858484D02*
X6456015Y-11753722D01*
X6456015Y-11753722D02*
X6446491Y-11734674D01*
X6446491Y-11734674D02*
X6427443Y-11725150D01*
X6427443Y-11725150D02*
X6389348Y-11725150D01*
X6389348Y-11725150D02*
X6370301Y-11734674D01*
X6456015Y-11848960D02*
X6436967Y-11858484D01*
X6436967Y-11858484D02*
X6389348Y-11858484D01*
X6389348Y-11858484D02*
X6370301Y-11848960D01*
X6370301Y-11848960D02*
X6360777Y-11829912D01*
X6360777Y-11829912D02*
X6360777Y-11810865D01*
X6360777Y-11810865D02*
X6370301Y-11791817D01*
X6370301Y-11791817D02*
X6389348Y-11782293D01*
X6389348Y-11782293D02*
X6436967Y-11782293D01*
X6436967Y-11782293D02*
X6456015Y-11772769D01*
X6551253Y-11725150D02*
X6551253Y-11925150D01*
X6551253Y-11734674D02*
X6570301Y-11725150D01*
X6570301Y-11725150D02*
X6608396Y-11725150D01*
X6608396Y-11725150D02*
X6627443Y-11734674D01*
X6627443Y-11734674D02*
X6636967Y-11744198D01*
X6636967Y-11744198D02*
X6646491Y-11763246D01*
X6646491Y-11763246D02*
X6646491Y-11820388D01*
X6646491Y-11820388D02*
X6636967Y-11839436D01*
X6636967Y-11839436D02*
X6627443Y-11848960D01*
X6627443Y-11848960D02*
X6608396Y-11858484D01*
X6608396Y-11858484D02*
X6570301Y-11858484D01*
X6570301Y-11858484D02*
X6551253Y-11848960D01*
X6732205Y-11839436D02*
X6741729Y-11848960D01*
X6741729Y-11848960D02*
X6732205Y-11858484D01*
X6732205Y-11858484D02*
X6722682Y-11848960D01*
X6722682Y-11848960D02*
X6732205Y-11839436D01*
X6732205Y-11839436D02*
X6732205Y-11858484D01*
X6732205Y-11734674D02*
X6741729Y-11744198D01*
X6741729Y-11744198D02*
X6732205Y-11753722D01*
X6732205Y-11753722D02*
X6722682Y-11744198D01*
X6722682Y-11744198D02*
X6732205Y-11734674D01*
X6732205Y-11734674D02*
X6732205Y-11753722D01*
D12*
X5060000Y-12167000D02*
X5100000Y-12207000D01*
X5100000Y-12167000D02*
X5060000Y-12207000D01*
D11*
X5398872Y-12078484D02*
X5417920Y-12078484D01*
X5417920Y-12078484D02*
X5436967Y-12088008D01*
X5436967Y-12088008D02*
X5446491Y-12097531D01*
X5446491Y-12097531D02*
X5456015Y-12116579D01*
X5456015Y-12116579D02*
X5465539Y-12154674D01*
X5465539Y-12154674D02*
X5465539Y-12202293D01*
X5465539Y-12202293D02*
X5456015Y-12240388D01*
X5456015Y-12240388D02*
X5446491Y-12259436D01*
X5446491Y-12259436D02*
X5436967Y-12268960D01*
X5436967Y-12268960D02*
X5417920Y-12278484D01*
X5417920Y-12278484D02*
X5398872Y-12278484D01*
X5398872Y-12278484D02*
X5379824Y-12268960D01*
X5379824Y-12268960D02*
X5370301Y-12259436D01*
X5370301Y-12259436D02*
X5360777Y-12240388D01*
X5360777Y-12240388D02*
X5351253Y-12202293D01*
X5351253Y-12202293D02*
X5351253Y-12154674D01*
X5351253Y-12154674D02*
X5360777Y-12116579D01*
X5360777Y-12116579D02*
X5370301Y-12097531D01*
X5370301Y-12097531D02*
X5379824Y-12088008D01*
X5379824Y-12088008D02*
X5398872Y-12078484D01*
X5551253Y-12259436D02*
X5560777Y-12268960D01*
X5560777Y-12268960D02*
X5551253Y-12278484D01*
X5551253Y-12278484D02*
X5541729Y-12268960D01*
X5541729Y-12268960D02*
X5551253Y-12259436D01*
X5551253Y-12259436D02*
X5551253Y-12278484D01*
X5732205Y-12145150D02*
X5732205Y-12278484D01*
X5684586Y-12068960D02*
X5636967Y-12211817D01*
X5636967Y-12211817D02*
X5760777Y-12211817D01*
X5875062Y-12078484D02*
X5894110Y-12078484D01*
X5894110Y-12078484D02*
X5913158Y-12088008D01*
X5913158Y-12088008D02*
X5922682Y-12097531D01*
X5922682Y-12097531D02*
X5932205Y-12116579D01*
X5932205Y-12116579D02*
X5941729Y-12154674D01*
X5941729Y-12154674D02*
X5941729Y-12202293D01*
X5941729Y-12202293D02*
X5932205Y-12240388D01*
X5932205Y-12240388D02*
X5922682Y-12259436D01*
X5922682Y-12259436D02*
X5913158Y-12268960D01*
X5913158Y-12268960D02*
X5894110Y-12278484D01*
X5894110Y-12278484D02*
X5875062Y-12278484D01*
X5875062Y-12278484D02*
X5856015Y-12268960D01*
X5856015Y-12268960D02*
X5846491Y-12259436D01*
X5846491Y-12259436D02*
X5836967Y-12240388D01*
X5836967Y-12240388D02*
X5827443Y-12202293D01*
X5827443Y-12202293D02*
X5827443Y-12154674D01*
X5827443Y-12154674D02*
X5836967Y-12116579D01*
X5836967Y-12116579D02*
X5846491Y-12097531D01*
X5846491Y-12097531D02*
X5856015Y-12088008D01*
X5856015Y-12088008D02*
X5875062Y-12078484D01*
X6065539Y-12078484D02*
X6084586Y-12078484D01*
X6084586Y-12078484D02*
X6103634Y-12088008D01*
X6103634Y-12088008D02*
X6113158Y-12097531D01*
X6113158Y-12097531D02*
X6122682Y-12116579D01*
X6122682Y-12116579D02*
X6132205Y-12154674D01*
X6132205Y-12154674D02*
X6132205Y-12202293D01*
X6132205Y-12202293D02*
X6122682Y-12240388D01*
X6122682Y-12240388D02*
X6113158Y-12259436D01*
X6113158Y-12259436D02*
X6103634Y-12268960D01*
X6103634Y-12268960D02*
X6084586Y-12278484D01*
X6084586Y-12278484D02*
X6065539Y-12278484D01*
X6065539Y-12278484D02*
X6046491Y-12268960D01*
X6046491Y-12268960D02*
X6036967Y-12259436D01*
X6036967Y-12259436D02*
X6027443Y-12240388D01*
X6027443Y-12240388D02*
X6017920Y-12202293D01*
X6017920Y-12202293D02*
X6017920Y-12154674D01*
X6017920Y-12154674D02*
X6027443Y-12116579D01*
X6027443Y-12116579D02*
X6036967Y-12097531D01*
X6036967Y-12097531D02*
X6046491Y-12088008D01*
X6046491Y-12088008D02*
X6065539Y-12078484D01*
X6217920Y-12278484D02*
X6217920Y-12145150D01*
X6217920Y-12164198D02*
X6227443Y-12154674D01*
X6227443Y-12154674D02*
X6246491Y-12145150D01*
X6246491Y-12145150D02*
X6275063Y-12145150D01*
X6275063Y-12145150D02*
X6294110Y-12154674D01*
X6294110Y-12154674D02*
X6303634Y-12173722D01*
X6303634Y-12173722D02*
X6303634Y-12278484D01*
X6303634Y-12173722D02*
X6313158Y-12154674D01*
X6313158Y-12154674D02*
X6332205Y-12145150D01*
X6332205Y-12145150D02*
X6360777Y-12145150D01*
X6360777Y-12145150D02*
X6379824Y-12154674D01*
X6379824Y-12154674D02*
X6389348Y-12173722D01*
X6389348Y-12173722D02*
X6389348Y-12278484D01*
X6484586Y-12278484D02*
X6484586Y-12145150D01*
X6484586Y-12164198D02*
X6494110Y-12154674D01*
X6494110Y-12154674D02*
X6513158Y-12145150D01*
X6513158Y-12145150D02*
X6541729Y-12145150D01*
X6541729Y-12145150D02*
X6560777Y-12154674D01*
X6560777Y-12154674D02*
X6570301Y-12173722D01*
X6570301Y-12173722D02*
X6570301Y-12278484D01*
X6570301Y-12173722D02*
X6579824Y-12154674D01*
X6579824Y-12154674D02*
X6598872Y-12145150D01*
X6598872Y-12145150D02*
X6627443Y-12145150D01*
X6627443Y-12145150D02*
X6646491Y-12154674D01*
X6646491Y-12154674D02*
X6656015Y-12173722D01*
X6656015Y-12173722D02*
X6656015Y-12278484D01*
X7046491Y-12068960D02*
X6875063Y-12326103D01*
X7303634Y-12078484D02*
X7322682Y-12078484D01*
X7322682Y-12078484D02*
X7341729Y-12088008D01*
X7341729Y-12088008D02*
X7351253Y-12097531D01*
X7351253Y-12097531D02*
X7360777Y-12116579D01*
X7360777Y-12116579D02*
X7370301Y-12154674D01*
X7370301Y-12154674D02*
X7370301Y-12202293D01*
X7370301Y-12202293D02*
X7360777Y-12240388D01*
X7360777Y-12240388D02*
X7351253Y-12259436D01*
X7351253Y-12259436D02*
X7341729Y-12268960D01*
X7341729Y-12268960D02*
X7322682Y-12278484D01*
X7322682Y-12278484D02*
X7303634Y-12278484D01*
X7303634Y-12278484D02*
X7284586Y-12268960D01*
X7284586Y-12268960D02*
X7275063Y-12259436D01*
X7275063Y-12259436D02*
X7265539Y-12240388D01*
X7265539Y-12240388D02*
X7256015Y-12202293D01*
X7256015Y-12202293D02*
X7256015Y-12154674D01*
X7256015Y-12154674D02*
X7265539Y-12116579D01*
X7265539Y-12116579D02*
X7275063Y-12097531D01*
X7275063Y-12097531D02*
X7284586Y-12088008D01*
X7284586Y-12088008D02*
X7303634Y-12078484D01*
X7456015Y-12259436D02*
X7465539Y-12268960D01*
X7465539Y-12268960D02*
X7456015Y-12278484D01*
X7456015Y-12278484D02*
X7446491Y-12268960D01*
X7446491Y-12268960D02*
X7456015Y-12259436D01*
X7456015Y-12259436D02*
X7456015Y-12278484D01*
X7589348Y-12078484D02*
X7608396Y-12078484D01*
X7608396Y-12078484D02*
X7627444Y-12088008D01*
X7627444Y-12088008D02*
X7636967Y-12097531D01*
X7636967Y-12097531D02*
X7646491Y-12116579D01*
X7646491Y-12116579D02*
X7656015Y-12154674D01*
X7656015Y-12154674D02*
X7656015Y-12202293D01*
X7656015Y-12202293D02*
X7646491Y-12240388D01*
X7646491Y-12240388D02*
X7636967Y-12259436D01*
X7636967Y-12259436D02*
X7627444Y-12268960D01*
X7627444Y-12268960D02*
X7608396Y-12278484D01*
X7608396Y-12278484D02*
X7589348Y-12278484D01*
X7589348Y-12278484D02*
X7570301Y-12268960D01*
X7570301Y-12268960D02*
X7560777Y-12259436D01*
X7560777Y-12259436D02*
X7551253Y-12240388D01*
X7551253Y-12240388D02*
X7541729Y-12202293D01*
X7541729Y-12202293D02*
X7541729Y-12154674D01*
X7541729Y-12154674D02*
X7551253Y-12116579D01*
X7551253Y-12116579D02*
X7560777Y-12097531D01*
X7560777Y-12097531D02*
X7570301Y-12088008D01*
X7570301Y-12088008D02*
X7589348Y-12078484D01*
X7846491Y-12278484D02*
X7732206Y-12278484D01*
X7789348Y-12278484D02*
X7789348Y-12078484D01*
X7789348Y-12078484D02*
X7770301Y-12107055D01*
X7770301Y-12107055D02*
X7751253Y-12126103D01*
X7751253Y-12126103D02*
X7732206Y-12135627D01*
X8027444Y-12078484D02*
X7932206Y-12078484D01*
X7932206Y-12078484D02*
X7922682Y-12173722D01*
X7922682Y-12173722D02*
X7932206Y-12164198D01*
X7932206Y-12164198D02*
X7951253Y-12154674D01*
X7951253Y-12154674D02*
X7998872Y-12154674D01*
X7998872Y-12154674D02*
X8017920Y-12164198D01*
X8017920Y-12164198D02*
X8027444Y-12173722D01*
X8027444Y-12173722D02*
X8036967Y-12192769D01*
X8036967Y-12192769D02*
X8036967Y-12240388D01*
X8036967Y-12240388D02*
X8027444Y-12259436D01*
X8027444Y-12259436D02*
X8017920Y-12268960D01*
X8017920Y-12268960D02*
X7998872Y-12278484D01*
X7998872Y-12278484D02*
X7951253Y-12278484D01*
X7951253Y-12278484D02*
X7932206Y-12268960D01*
X7932206Y-12268960D02*
X7922682Y-12259436D01*
X8103634Y-12078484D02*
X8236967Y-12078484D01*
X8236967Y-12078484D02*
X8151253Y-12278484D01*
X8303634Y-12078484D02*
X8303634Y-12116579D01*
X8379825Y-12078484D02*
X8379825Y-12116579D01*
X8675063Y-12354674D02*
X8665539Y-12345150D01*
X8665539Y-12345150D02*
X8646491Y-12316579D01*
X8646491Y-12316579D02*
X8636968Y-12297531D01*
X8636968Y-12297531D02*
X8627444Y-12268960D01*
X8627444Y-12268960D02*
X8617920Y-12221341D01*
X8617920Y-12221341D02*
X8617920Y-12183246D01*
X8617920Y-12183246D02*
X8627444Y-12135627D01*
X8627444Y-12135627D02*
X8636968Y-12107055D01*
X8636968Y-12107055D02*
X8646491Y-12088008D01*
X8646491Y-12088008D02*
X8665539Y-12059436D01*
X8665539Y-12059436D02*
X8675063Y-12049912D01*
X8856015Y-12278484D02*
X8741730Y-12278484D01*
X8798872Y-12278484D02*
X8798872Y-12078484D01*
X8798872Y-12078484D02*
X8779825Y-12107055D01*
X8779825Y-12107055D02*
X8760777Y-12126103D01*
X8760777Y-12126103D02*
X8741730Y-12135627D01*
X9027444Y-12078484D02*
X8989349Y-12078484D01*
X8989349Y-12078484D02*
X8970301Y-12088008D01*
X8970301Y-12088008D02*
X8960777Y-12097531D01*
X8960777Y-12097531D02*
X8941730Y-12126103D01*
X8941730Y-12126103D02*
X8932206Y-12164198D01*
X8932206Y-12164198D02*
X8932206Y-12240388D01*
X8932206Y-12240388D02*
X8941730Y-12259436D01*
X8941730Y-12259436D02*
X8951253Y-12268960D01*
X8951253Y-12268960D02*
X8970301Y-12278484D01*
X8970301Y-12278484D02*
X9008396Y-12278484D01*
X9008396Y-12278484D02*
X9027444Y-12268960D01*
X9027444Y-12268960D02*
X9036968Y-12259436D01*
X9036968Y-12259436D02*
X9046491Y-12240388D01*
X9046491Y-12240388D02*
X9046491Y-12192769D01*
X9046491Y-12192769D02*
X9036968Y-12173722D01*
X9036968Y-12173722D02*
X9027444Y-12164198D01*
X9027444Y-12164198D02*
X9008396Y-12154674D01*
X9008396Y-12154674D02*
X8970301Y-12154674D01*
X8970301Y-12154674D02*
X8951253Y-12164198D01*
X8951253Y-12164198D02*
X8941730Y-12173722D01*
X8941730Y-12173722D02*
X8932206Y-12192769D01*
X9236968Y-12278484D02*
X9122682Y-12278484D01*
X9179825Y-12278484D02*
X9179825Y-12078484D01*
X9179825Y-12078484D02*
X9160777Y-12107055D01*
X9160777Y-12107055D02*
X9141730Y-12126103D01*
X9141730Y-12126103D02*
X9122682Y-12135627D01*
X9475063Y-12278484D02*
X9475063Y-12078484D01*
X9560777Y-12278484D02*
X9560777Y-12173722D01*
X9560777Y-12173722D02*
X9551253Y-12154674D01*
X9551253Y-12154674D02*
X9532206Y-12145150D01*
X9532206Y-12145150D02*
X9503634Y-12145150D01*
X9503634Y-12145150D02*
X9484587Y-12154674D01*
X9484587Y-12154674D02*
X9475063Y-12164198D01*
X9684587Y-12278484D02*
X9665539Y-12268960D01*
X9665539Y-12268960D02*
X9656015Y-12259436D01*
X9656015Y-12259436D02*
X9646492Y-12240388D01*
X9646492Y-12240388D02*
X9646492Y-12183246D01*
X9646492Y-12183246D02*
X9656015Y-12164198D01*
X9656015Y-12164198D02*
X9665539Y-12154674D01*
X9665539Y-12154674D02*
X9684587Y-12145150D01*
X9684587Y-12145150D02*
X9713158Y-12145150D01*
X9713158Y-12145150D02*
X9732206Y-12154674D01*
X9732206Y-12154674D02*
X9741730Y-12164198D01*
X9741730Y-12164198D02*
X9751253Y-12183246D01*
X9751253Y-12183246D02*
X9751253Y-12240388D01*
X9751253Y-12240388D02*
X9741730Y-12259436D01*
X9741730Y-12259436D02*
X9732206Y-12268960D01*
X9732206Y-12268960D02*
X9713158Y-12278484D01*
X9713158Y-12278484D02*
X9684587Y-12278484D01*
X9865539Y-12278484D02*
X9846492Y-12268960D01*
X9846492Y-12268960D02*
X9836968Y-12249912D01*
X9836968Y-12249912D02*
X9836968Y-12078484D01*
X10017920Y-12268960D02*
X9998873Y-12278484D01*
X9998873Y-12278484D02*
X9960777Y-12278484D01*
X9960777Y-12278484D02*
X9941730Y-12268960D01*
X9941730Y-12268960D02*
X9932206Y-12249912D01*
X9932206Y-12249912D02*
X9932206Y-12173722D01*
X9932206Y-12173722D02*
X9941730Y-12154674D01*
X9941730Y-12154674D02*
X9960777Y-12145150D01*
X9960777Y-12145150D02*
X9998873Y-12145150D01*
X9998873Y-12145150D02*
X10017920Y-12154674D01*
X10017920Y-12154674D02*
X10027444Y-12173722D01*
X10027444Y-12173722D02*
X10027444Y-12192769D01*
X10027444Y-12192769D02*
X9932206Y-12211817D01*
X10103634Y-12268960D02*
X10122682Y-12278484D01*
X10122682Y-12278484D02*
X10160777Y-12278484D01*
X10160777Y-12278484D02*
X10179825Y-12268960D01*
X10179825Y-12268960D02*
X10189349Y-12249912D01*
X10189349Y-12249912D02*
X10189349Y-12240388D01*
X10189349Y-12240388D02*
X10179825Y-12221341D01*
X10179825Y-12221341D02*
X10160777Y-12211817D01*
X10160777Y-12211817D02*
X10132206Y-12211817D01*
X10132206Y-12211817D02*
X10113158Y-12202293D01*
X10113158Y-12202293D02*
X10103634Y-12183246D01*
X10103634Y-12183246D02*
X10103634Y-12173722D01*
X10103634Y-12173722D02*
X10113158Y-12154674D01*
X10113158Y-12154674D02*
X10132206Y-12145150D01*
X10132206Y-12145150D02*
X10160777Y-12145150D01*
X10160777Y-12145150D02*
X10179825Y-12154674D01*
X10256015Y-12354674D02*
X10265539Y-12345150D01*
X10265539Y-12345150D02*
X10284587Y-12316579D01*
X10284587Y-12316579D02*
X10294111Y-12297531D01*
X10294111Y-12297531D02*
X10303634Y-12268960D01*
X10303634Y-12268960D02*
X10313158Y-12221341D01*
X10313158Y-12221341D02*
X10313158Y-12183246D01*
X10313158Y-12183246D02*
X10303634Y-12135627D01*
X10303634Y-12135627D02*
X10294111Y-12107055D01*
X10294111Y-12107055D02*
X10284587Y-12088008D01*
X10284587Y-12088008D02*
X10265539Y-12059436D01*
X10265539Y-12059436D02*
X10256015Y-12049912D01*
M02*
