G04 #@! TF.GenerationSoftware,KiCad,Pcbnew,7.0.9*
G04 #@! TF.CreationDate,2024-01-22T22:35:46+01:00*
G04 #@! TF.ProjectId,simm72,73696d6d-3732-42e6-9b69-6361645f7063,A*
G04 #@! TF.SameCoordinates,Original*
G04 #@! TF.FileFunction,Legend,Top*
G04 #@! TF.FilePolarity,Positive*
%FSLAX46Y46*%
G04 Gerber Fmt 4.6, Leading zero omitted, Abs format (unit mm)*
G04 Created by KiCad (PCBNEW 7.0.9) date 2024-01-22 22:35:46*
%MOMM*%
%LPD*%
G01*
G04 APERTURE LIST*
G04 Aperture macros list*
%AMRoundRect*
0 Rectangle with rounded corners*
0 $1 Rounding radius*
0 $2 $3 $4 $5 $6 $7 $8 $9 X,Y pos of 4 corners*
0 Add a 4 corners polygon primitive as box body*
4,1,4,$2,$3,$4,$5,$6,$7,$8,$9,$2,$3,0*
0 Add four circle primitives for the rounded corners*
1,1,$1+$1,$2,$3*
1,1,$1+$1,$4,$5*
1,1,$1+$1,$6,$7*
1,1,$1+$1,$8,$9*
0 Add four rect primitives between the rounded corners*
20,1,$1+$1,$2,$3,$4,$5,0*
20,1,$1+$1,$4,$5,$6,$7,0*
20,1,$1+$1,$6,$7,$8,$9,0*
20,1,$1+$1,$8,$9,$2,$3,0*%
G04 Aperture macros list end*
%ADD10C,0.150000*%
%ADD11C,0.200000*%
%ADD12C,0.120000*%
%ADD13R,1.040000X2.540000*%
%ADD14R,1.300000X0.300000*%
%ADD15RoundRect,0.250000X-0.650000X0.412500X-0.650000X-0.412500X0.650000X-0.412500X0.650000X0.412500X0*%
G04 APERTURE END LIST*
D10*
G36*
X147843220Y-86173436D02*
G01*
X147843220Y-84577554D01*
X147633660Y-84577554D01*
X147633660Y-84269319D01*
X148389103Y-84269319D01*
X148389103Y-85977554D01*
X147843220Y-86173436D01*
G37*
G36*
X149734392Y-84998140D02*
G01*
X149734392Y-85895000D01*
X148562027Y-85895000D01*
X148562027Y-84269319D01*
X149738056Y-84269319D01*
X149738056Y-84577554D01*
X149065411Y-84577554D01*
X149065411Y-85586765D01*
X149230275Y-85586765D01*
X149230275Y-84773925D01*
X149734392Y-84998140D01*
G37*
G36*
X149904385Y-86313632D02*
G01*
X149904385Y-84269319D01*
X151745000Y-84269319D01*
X151745000Y-85893534D01*
X151240882Y-86061573D01*
X151240882Y-84577554D01*
X151076751Y-84577554D01*
X151076751Y-85893534D01*
X150572634Y-86061573D01*
X150572634Y-84577554D01*
X150407770Y-84577554D01*
X150407770Y-86117749D01*
X149904385Y-86313632D01*
G37*
G36*
X153090289Y-84969808D02*
G01*
X152796465Y-85082159D01*
X153090289Y-85194511D01*
X153090289Y-85895000D01*
X151917923Y-85895000D01*
X151917923Y-85222355D01*
X152421308Y-85222355D01*
X152421308Y-85586765D01*
X152586172Y-85586765D01*
X152586172Y-85278531D01*
X152421308Y-85222355D01*
X151917923Y-85222355D01*
X151917923Y-84577554D01*
X152421308Y-84577554D01*
X152421308Y-84941964D01*
X152586172Y-84885788D01*
X152586172Y-84577554D01*
X152421308Y-84577554D01*
X151917923Y-84577554D01*
X151917923Y-84269319D01*
X153090289Y-84269319D01*
X153090289Y-84969808D01*
G37*
G36*
X154601908Y-84577554D02*
G01*
X154601908Y-84998140D01*
X154853967Y-85110003D01*
X154853967Y-85895000D01*
X154088998Y-85895000D01*
X154088998Y-85586765D01*
X154308084Y-85586765D01*
X154308084Y-85250198D01*
X154098524Y-85138335D01*
X154098524Y-84269319D01*
X154853967Y-84269319D01*
X154853967Y-84577554D01*
X154601908Y-84577554D01*
G37*
G36*
X155525146Y-84577554D02*
G01*
X155525146Y-84998140D01*
X155777205Y-85110003D01*
X155777205Y-85895000D01*
X155012236Y-85895000D01*
X155012236Y-85586765D01*
X155231322Y-85586765D01*
X155231322Y-85250198D01*
X155021762Y-85138335D01*
X155021762Y-84269319D01*
X155777205Y-84269319D01*
X155777205Y-84577554D01*
X155525146Y-84577554D01*
G37*
G36*
X157117365Y-85893534D02*
G01*
X156613248Y-85893534D01*
X156613248Y-84577554D01*
X156448384Y-84577554D01*
X156448384Y-85893534D01*
X155945000Y-85893534D01*
X155945000Y-84269319D01*
X157117365Y-84269319D01*
X157117365Y-85893534D01*
G37*
G36*
X157790743Y-84577554D02*
G01*
X157790743Y-84773925D01*
X158042801Y-84941964D01*
X158042801Y-85895000D01*
X157277833Y-85895000D01*
X157277833Y-85586765D01*
X157496919Y-85586765D01*
X157496919Y-85025983D01*
X157287358Y-84885788D01*
X157287358Y-84269319D01*
X158042801Y-84269319D01*
X158042801Y-84577554D01*
X157790743Y-84577554D01*
G37*
X119132160Y-98392104D02*
X119608350Y-98392104D01*
X119036922Y-98677819D02*
X119370255Y-97677819D01*
X119370255Y-97677819D02*
X119703588Y-98677819D01*
X119989303Y-98630200D02*
X120132160Y-98677819D01*
X120132160Y-98677819D02*
X120370255Y-98677819D01*
X120370255Y-98677819D02*
X120465493Y-98630200D01*
X120465493Y-98630200D02*
X120513112Y-98582580D01*
X120513112Y-98582580D02*
X120560731Y-98487342D01*
X120560731Y-98487342D02*
X120560731Y-98392104D01*
X120560731Y-98392104D02*
X120513112Y-98296866D01*
X120513112Y-98296866D02*
X120465493Y-98249247D01*
X120465493Y-98249247D02*
X120370255Y-98201628D01*
X120370255Y-98201628D02*
X120179779Y-98154009D01*
X120179779Y-98154009D02*
X120084541Y-98106390D01*
X120084541Y-98106390D02*
X120036922Y-98058771D01*
X120036922Y-98058771D02*
X119989303Y-97963533D01*
X119989303Y-97963533D02*
X119989303Y-97868295D01*
X119989303Y-97868295D02*
X120036922Y-97773057D01*
X120036922Y-97773057D02*
X120084541Y-97725438D01*
X120084541Y-97725438D02*
X120179779Y-97677819D01*
X120179779Y-97677819D02*
X120417874Y-97677819D01*
X120417874Y-97677819D02*
X120560731Y-97725438D01*
X121417874Y-97677819D02*
X121227398Y-97677819D01*
X121227398Y-97677819D02*
X121132160Y-97725438D01*
X121132160Y-97725438D02*
X121084541Y-97773057D01*
X121084541Y-97773057D02*
X120989303Y-97915914D01*
X120989303Y-97915914D02*
X120941684Y-98106390D01*
X120941684Y-98106390D02*
X120941684Y-98487342D01*
X120941684Y-98487342D02*
X120989303Y-98582580D01*
X120989303Y-98582580D02*
X121036922Y-98630200D01*
X121036922Y-98630200D02*
X121132160Y-98677819D01*
X121132160Y-98677819D02*
X121322636Y-98677819D01*
X121322636Y-98677819D02*
X121417874Y-98630200D01*
X121417874Y-98630200D02*
X121465493Y-98582580D01*
X121465493Y-98582580D02*
X121513112Y-98487342D01*
X121513112Y-98487342D02*
X121513112Y-98249247D01*
X121513112Y-98249247D02*
X121465493Y-98154009D01*
X121465493Y-98154009D02*
X121417874Y-98106390D01*
X121417874Y-98106390D02*
X121322636Y-98058771D01*
X121322636Y-98058771D02*
X121132160Y-98058771D01*
X121132160Y-98058771D02*
X121036922Y-98106390D01*
X121036922Y-98106390D02*
X120989303Y-98154009D01*
X120989303Y-98154009D02*
X120941684Y-98249247D01*
X122513112Y-98582580D02*
X122465493Y-98630200D01*
X122465493Y-98630200D02*
X122322636Y-98677819D01*
X122322636Y-98677819D02*
X122227398Y-98677819D01*
X122227398Y-98677819D02*
X122084541Y-98630200D01*
X122084541Y-98630200D02*
X121989303Y-98534961D01*
X121989303Y-98534961D02*
X121941684Y-98439723D01*
X121941684Y-98439723D02*
X121894065Y-98249247D01*
X121894065Y-98249247D02*
X121894065Y-98106390D01*
X121894065Y-98106390D02*
X121941684Y-97915914D01*
X121941684Y-97915914D02*
X121989303Y-97820676D01*
X121989303Y-97820676D02*
X122084541Y-97725438D01*
X122084541Y-97725438D02*
X122227398Y-97677819D01*
X122227398Y-97677819D02*
X122322636Y-97677819D01*
X122322636Y-97677819D02*
X122465493Y-97725438D01*
X122465493Y-97725438D02*
X122513112Y-97773057D01*
X123370255Y-97677819D02*
X123179779Y-97677819D01*
X123179779Y-97677819D02*
X123084541Y-97725438D01*
X123084541Y-97725438D02*
X123036922Y-97773057D01*
X123036922Y-97773057D02*
X122941684Y-97915914D01*
X122941684Y-97915914D02*
X122894065Y-98106390D01*
X122894065Y-98106390D02*
X122894065Y-98487342D01*
X122894065Y-98487342D02*
X122941684Y-98582580D01*
X122941684Y-98582580D02*
X122989303Y-98630200D01*
X122989303Y-98630200D02*
X123084541Y-98677819D01*
X123084541Y-98677819D02*
X123275017Y-98677819D01*
X123275017Y-98677819D02*
X123370255Y-98630200D01*
X123370255Y-98630200D02*
X123417874Y-98582580D01*
X123417874Y-98582580D02*
X123465493Y-98487342D01*
X123465493Y-98487342D02*
X123465493Y-98249247D01*
X123465493Y-98249247D02*
X123417874Y-98154009D01*
X123417874Y-98154009D02*
X123370255Y-98106390D01*
X123370255Y-98106390D02*
X123275017Y-98058771D01*
X123275017Y-98058771D02*
X123084541Y-98058771D01*
X123084541Y-98058771D02*
X122989303Y-98106390D01*
X122989303Y-98106390D02*
X122941684Y-98154009D01*
X122941684Y-98154009D02*
X122894065Y-98249247D01*
X124322636Y-98011152D02*
X124322636Y-98677819D01*
X124084541Y-97630200D02*
X123846446Y-98344485D01*
X123846446Y-98344485D02*
X124465493Y-98344485D01*
X125370255Y-98677819D02*
X124798827Y-98677819D01*
X125084541Y-98677819D02*
X125084541Y-97677819D01*
X125084541Y-97677819D02*
X124989303Y-97820676D01*
X124989303Y-97820676D02*
X124894065Y-97915914D01*
X124894065Y-97915914D02*
X124798827Y-97963533D01*
X126227398Y-97677819D02*
X126036922Y-97677819D01*
X126036922Y-97677819D02*
X125941684Y-97725438D01*
X125941684Y-97725438D02*
X125894065Y-97773057D01*
X125894065Y-97773057D02*
X125798827Y-97915914D01*
X125798827Y-97915914D02*
X125751208Y-98106390D01*
X125751208Y-98106390D02*
X125751208Y-98487342D01*
X125751208Y-98487342D02*
X125798827Y-98582580D01*
X125798827Y-98582580D02*
X125846446Y-98630200D01*
X125846446Y-98630200D02*
X125941684Y-98677819D01*
X125941684Y-98677819D02*
X126132160Y-98677819D01*
X126132160Y-98677819D02*
X126227398Y-98630200D01*
X126227398Y-98630200D02*
X126275017Y-98582580D01*
X126275017Y-98582580D02*
X126322636Y-98487342D01*
X126322636Y-98487342D02*
X126322636Y-98249247D01*
X126322636Y-98249247D02*
X126275017Y-98154009D01*
X126275017Y-98154009D02*
X126227398Y-98106390D01*
X126227398Y-98106390D02*
X126132160Y-98058771D01*
X126132160Y-98058771D02*
X125941684Y-98058771D01*
X125941684Y-98058771D02*
X125846446Y-98106390D01*
X125846446Y-98106390D02*
X125798827Y-98154009D01*
X125798827Y-98154009D02*
X125751208Y-98249247D01*
X126751208Y-98296866D02*
X127513113Y-98296866D01*
X128465493Y-97677819D02*
X127989303Y-97677819D01*
X127989303Y-97677819D02*
X127941684Y-98154009D01*
X127941684Y-98154009D02*
X127989303Y-98106390D01*
X127989303Y-98106390D02*
X128084541Y-98058771D01*
X128084541Y-98058771D02*
X128322636Y-98058771D01*
X128322636Y-98058771D02*
X128417874Y-98106390D01*
X128417874Y-98106390D02*
X128465493Y-98154009D01*
X128465493Y-98154009D02*
X128513112Y-98249247D01*
X128513112Y-98249247D02*
X128513112Y-98487342D01*
X128513112Y-98487342D02*
X128465493Y-98582580D01*
X128465493Y-98582580D02*
X128417874Y-98630200D01*
X128417874Y-98630200D02*
X128322636Y-98677819D01*
X128322636Y-98677819D02*
X128084541Y-98677819D01*
X128084541Y-98677819D02*
X127989303Y-98630200D01*
X127989303Y-98630200D02*
X127941684Y-98582580D01*
X129417874Y-97677819D02*
X128941684Y-97677819D01*
X128941684Y-97677819D02*
X128894065Y-98154009D01*
X128894065Y-98154009D02*
X128941684Y-98106390D01*
X128941684Y-98106390D02*
X129036922Y-98058771D01*
X129036922Y-98058771D02*
X129275017Y-98058771D01*
X129275017Y-98058771D02*
X129370255Y-98106390D01*
X129370255Y-98106390D02*
X129417874Y-98154009D01*
X129417874Y-98154009D02*
X129465493Y-98249247D01*
X129465493Y-98249247D02*
X129465493Y-98487342D01*
X129465493Y-98487342D02*
X129417874Y-98582580D01*
X129417874Y-98582580D02*
X129370255Y-98630200D01*
X129370255Y-98630200D02*
X129275017Y-98677819D01*
X129275017Y-98677819D02*
X129036922Y-98677819D01*
X129036922Y-98677819D02*
X128941684Y-98630200D01*
X128941684Y-98630200D02*
X128894065Y-98582580D01*
X129751208Y-97677819D02*
X130322636Y-97677819D01*
X130036922Y-98677819D02*
X130036922Y-97677819D01*
X130655970Y-98677819D02*
X130655970Y-97677819D01*
X131132160Y-98677819D02*
X131132160Y-97677819D01*
X131132160Y-97677819D02*
X131703588Y-98677819D01*
X131703588Y-98677819D02*
X131703588Y-97677819D01*
X78492160Y-98519104D02*
X78968350Y-98519104D01*
X78396922Y-98804819D02*
X78730255Y-97804819D01*
X78730255Y-97804819D02*
X79063588Y-98804819D01*
X79349303Y-98757200D02*
X79492160Y-98804819D01*
X79492160Y-98804819D02*
X79730255Y-98804819D01*
X79730255Y-98804819D02*
X79825493Y-98757200D01*
X79825493Y-98757200D02*
X79873112Y-98709580D01*
X79873112Y-98709580D02*
X79920731Y-98614342D01*
X79920731Y-98614342D02*
X79920731Y-98519104D01*
X79920731Y-98519104D02*
X79873112Y-98423866D01*
X79873112Y-98423866D02*
X79825493Y-98376247D01*
X79825493Y-98376247D02*
X79730255Y-98328628D01*
X79730255Y-98328628D02*
X79539779Y-98281009D01*
X79539779Y-98281009D02*
X79444541Y-98233390D01*
X79444541Y-98233390D02*
X79396922Y-98185771D01*
X79396922Y-98185771D02*
X79349303Y-98090533D01*
X79349303Y-98090533D02*
X79349303Y-97995295D01*
X79349303Y-97995295D02*
X79396922Y-97900057D01*
X79396922Y-97900057D02*
X79444541Y-97852438D01*
X79444541Y-97852438D02*
X79539779Y-97804819D01*
X79539779Y-97804819D02*
X79777874Y-97804819D01*
X79777874Y-97804819D02*
X79920731Y-97852438D01*
X80777874Y-97804819D02*
X80587398Y-97804819D01*
X80587398Y-97804819D02*
X80492160Y-97852438D01*
X80492160Y-97852438D02*
X80444541Y-97900057D01*
X80444541Y-97900057D02*
X80349303Y-98042914D01*
X80349303Y-98042914D02*
X80301684Y-98233390D01*
X80301684Y-98233390D02*
X80301684Y-98614342D01*
X80301684Y-98614342D02*
X80349303Y-98709580D01*
X80349303Y-98709580D02*
X80396922Y-98757200D01*
X80396922Y-98757200D02*
X80492160Y-98804819D01*
X80492160Y-98804819D02*
X80682636Y-98804819D01*
X80682636Y-98804819D02*
X80777874Y-98757200D01*
X80777874Y-98757200D02*
X80825493Y-98709580D01*
X80825493Y-98709580D02*
X80873112Y-98614342D01*
X80873112Y-98614342D02*
X80873112Y-98376247D01*
X80873112Y-98376247D02*
X80825493Y-98281009D01*
X80825493Y-98281009D02*
X80777874Y-98233390D01*
X80777874Y-98233390D02*
X80682636Y-98185771D01*
X80682636Y-98185771D02*
X80492160Y-98185771D01*
X80492160Y-98185771D02*
X80396922Y-98233390D01*
X80396922Y-98233390D02*
X80349303Y-98281009D01*
X80349303Y-98281009D02*
X80301684Y-98376247D01*
X81873112Y-98709580D02*
X81825493Y-98757200D01*
X81825493Y-98757200D02*
X81682636Y-98804819D01*
X81682636Y-98804819D02*
X81587398Y-98804819D01*
X81587398Y-98804819D02*
X81444541Y-98757200D01*
X81444541Y-98757200D02*
X81349303Y-98661961D01*
X81349303Y-98661961D02*
X81301684Y-98566723D01*
X81301684Y-98566723D02*
X81254065Y-98376247D01*
X81254065Y-98376247D02*
X81254065Y-98233390D01*
X81254065Y-98233390D02*
X81301684Y-98042914D01*
X81301684Y-98042914D02*
X81349303Y-97947676D01*
X81349303Y-97947676D02*
X81444541Y-97852438D01*
X81444541Y-97852438D02*
X81587398Y-97804819D01*
X81587398Y-97804819D02*
X81682636Y-97804819D01*
X81682636Y-97804819D02*
X81825493Y-97852438D01*
X81825493Y-97852438D02*
X81873112Y-97900057D01*
X82730255Y-97804819D02*
X82539779Y-97804819D01*
X82539779Y-97804819D02*
X82444541Y-97852438D01*
X82444541Y-97852438D02*
X82396922Y-97900057D01*
X82396922Y-97900057D02*
X82301684Y-98042914D01*
X82301684Y-98042914D02*
X82254065Y-98233390D01*
X82254065Y-98233390D02*
X82254065Y-98614342D01*
X82254065Y-98614342D02*
X82301684Y-98709580D01*
X82301684Y-98709580D02*
X82349303Y-98757200D01*
X82349303Y-98757200D02*
X82444541Y-98804819D01*
X82444541Y-98804819D02*
X82635017Y-98804819D01*
X82635017Y-98804819D02*
X82730255Y-98757200D01*
X82730255Y-98757200D02*
X82777874Y-98709580D01*
X82777874Y-98709580D02*
X82825493Y-98614342D01*
X82825493Y-98614342D02*
X82825493Y-98376247D01*
X82825493Y-98376247D02*
X82777874Y-98281009D01*
X82777874Y-98281009D02*
X82730255Y-98233390D01*
X82730255Y-98233390D02*
X82635017Y-98185771D01*
X82635017Y-98185771D02*
X82444541Y-98185771D01*
X82444541Y-98185771D02*
X82349303Y-98233390D01*
X82349303Y-98233390D02*
X82301684Y-98281009D01*
X82301684Y-98281009D02*
X82254065Y-98376247D01*
X83682636Y-98138152D02*
X83682636Y-98804819D01*
X83444541Y-97757200D02*
X83206446Y-98471485D01*
X83206446Y-98471485D02*
X83825493Y-98471485D01*
X84730255Y-98804819D02*
X84158827Y-98804819D01*
X84444541Y-98804819D02*
X84444541Y-97804819D01*
X84444541Y-97804819D02*
X84349303Y-97947676D01*
X84349303Y-97947676D02*
X84254065Y-98042914D01*
X84254065Y-98042914D02*
X84158827Y-98090533D01*
X85587398Y-97804819D02*
X85396922Y-97804819D01*
X85396922Y-97804819D02*
X85301684Y-97852438D01*
X85301684Y-97852438D02*
X85254065Y-97900057D01*
X85254065Y-97900057D02*
X85158827Y-98042914D01*
X85158827Y-98042914D02*
X85111208Y-98233390D01*
X85111208Y-98233390D02*
X85111208Y-98614342D01*
X85111208Y-98614342D02*
X85158827Y-98709580D01*
X85158827Y-98709580D02*
X85206446Y-98757200D01*
X85206446Y-98757200D02*
X85301684Y-98804819D01*
X85301684Y-98804819D02*
X85492160Y-98804819D01*
X85492160Y-98804819D02*
X85587398Y-98757200D01*
X85587398Y-98757200D02*
X85635017Y-98709580D01*
X85635017Y-98709580D02*
X85682636Y-98614342D01*
X85682636Y-98614342D02*
X85682636Y-98376247D01*
X85682636Y-98376247D02*
X85635017Y-98281009D01*
X85635017Y-98281009D02*
X85587398Y-98233390D01*
X85587398Y-98233390D02*
X85492160Y-98185771D01*
X85492160Y-98185771D02*
X85301684Y-98185771D01*
X85301684Y-98185771D02*
X85206446Y-98233390D01*
X85206446Y-98233390D02*
X85158827Y-98281009D01*
X85158827Y-98281009D02*
X85111208Y-98376247D01*
X86111208Y-98423866D02*
X86873113Y-98423866D01*
X87825493Y-97804819D02*
X87349303Y-97804819D01*
X87349303Y-97804819D02*
X87301684Y-98281009D01*
X87301684Y-98281009D02*
X87349303Y-98233390D01*
X87349303Y-98233390D02*
X87444541Y-98185771D01*
X87444541Y-98185771D02*
X87682636Y-98185771D01*
X87682636Y-98185771D02*
X87777874Y-98233390D01*
X87777874Y-98233390D02*
X87825493Y-98281009D01*
X87825493Y-98281009D02*
X87873112Y-98376247D01*
X87873112Y-98376247D02*
X87873112Y-98614342D01*
X87873112Y-98614342D02*
X87825493Y-98709580D01*
X87825493Y-98709580D02*
X87777874Y-98757200D01*
X87777874Y-98757200D02*
X87682636Y-98804819D01*
X87682636Y-98804819D02*
X87444541Y-98804819D01*
X87444541Y-98804819D02*
X87349303Y-98757200D01*
X87349303Y-98757200D02*
X87301684Y-98709580D01*
X88777874Y-97804819D02*
X88301684Y-97804819D01*
X88301684Y-97804819D02*
X88254065Y-98281009D01*
X88254065Y-98281009D02*
X88301684Y-98233390D01*
X88301684Y-98233390D02*
X88396922Y-98185771D01*
X88396922Y-98185771D02*
X88635017Y-98185771D01*
X88635017Y-98185771D02*
X88730255Y-98233390D01*
X88730255Y-98233390D02*
X88777874Y-98281009D01*
X88777874Y-98281009D02*
X88825493Y-98376247D01*
X88825493Y-98376247D02*
X88825493Y-98614342D01*
X88825493Y-98614342D02*
X88777874Y-98709580D01*
X88777874Y-98709580D02*
X88730255Y-98757200D01*
X88730255Y-98757200D02*
X88635017Y-98804819D01*
X88635017Y-98804819D02*
X88396922Y-98804819D01*
X88396922Y-98804819D02*
X88301684Y-98757200D01*
X88301684Y-98757200D02*
X88254065Y-98709580D01*
X89111208Y-97804819D02*
X89682636Y-97804819D01*
X89396922Y-98804819D02*
X89396922Y-97804819D01*
X90015970Y-98804819D02*
X90015970Y-97804819D01*
X90492160Y-98804819D02*
X90492160Y-97804819D01*
X90492160Y-97804819D02*
X91063588Y-98804819D01*
X91063588Y-98804819D02*
X91063588Y-97804819D01*
G36*
X52926154Y-85025495D02*
G01*
X52632330Y-85137358D01*
X52926154Y-85249710D01*
X52926154Y-85893534D01*
X52422037Y-86061573D01*
X52422037Y-85389417D01*
X52257173Y-85333729D01*
X52257173Y-86117749D01*
X51753789Y-86313632D01*
X51753789Y-84577554D01*
X52257173Y-84577554D01*
X52257173Y-84941475D01*
X52422037Y-84885300D01*
X52422037Y-84577554D01*
X52257173Y-84577554D01*
X51753789Y-84577554D01*
X51753789Y-84269319D01*
X52926154Y-84269319D01*
X52926154Y-85025495D01*
G37*
G36*
X53096147Y-84885788D02*
G01*
X53599532Y-84689905D01*
X53599532Y-85586765D01*
X53764396Y-85586765D01*
X53764396Y-84577554D01*
X53092484Y-84577554D01*
X53092484Y-84269319D01*
X54268513Y-84269319D01*
X54268513Y-85895000D01*
X53096147Y-85895000D01*
X53096147Y-84885788D01*
G37*
G36*
X54438506Y-84270785D02*
G01*
X54941891Y-84270785D01*
X54941891Y-85642941D01*
X55106755Y-85586765D01*
X55106755Y-84270785D01*
X55610872Y-84270785D01*
X55610872Y-85754804D01*
X54438506Y-86174902D01*
X54438506Y-84270785D01*
G37*
G36*
X56953230Y-85278531D02*
G01*
X56449113Y-85502745D01*
X56449113Y-84577554D01*
X56284249Y-84577554D01*
X56284249Y-85586765D01*
X56956894Y-85586765D01*
X56956894Y-85895000D01*
X55780865Y-85895000D01*
X55780865Y-84269319D01*
X56953230Y-84269319D01*
X56953230Y-85278531D01*
G37*
G36*
X58295589Y-85893534D02*
G01*
X57791472Y-85893534D01*
X57791472Y-84577554D01*
X57626608Y-84577554D01*
X57626608Y-85893534D01*
X57123224Y-85893534D01*
X57123224Y-84269319D01*
X58295589Y-84269319D01*
X58295589Y-85893534D01*
G37*
D11*
X74180000Y-92050000D02*
X75480000Y-92050000D01*
X75830000Y-92300000D02*
X93530000Y-92300000D01*
X75830000Y-104300000D02*
X75830000Y-92300000D01*
X93530000Y-92300000D02*
X93530000Y-104300000D01*
X93530000Y-104300000D02*
X75830000Y-104300000D01*
D12*
X141851000Y-98858748D02*
X141851000Y-100281252D01*
X140031000Y-98858748D02*
X140031000Y-100281252D01*
D11*
X114820000Y-92050000D02*
X116120000Y-92050000D01*
X116470000Y-92300000D02*
X134170000Y-92300000D01*
X116470000Y-104300000D02*
X116470000Y-92300000D01*
X134170000Y-92300000D02*
X134170000Y-104300000D01*
X134170000Y-104300000D02*
X116470000Y-104300000D01*
D12*
X99814000Y-98985748D02*
X99814000Y-100408252D01*
X97994000Y-98985748D02*
X97994000Y-100408252D01*
%LPC*%
D13*
X57375000Y-113921000D03*
X58645000Y-113921000D03*
X59915000Y-113921000D03*
X61185000Y-113921000D03*
X62455000Y-113921000D03*
X63725000Y-113921000D03*
X64995000Y-113921000D03*
X66265000Y-113921000D03*
X67535000Y-113921000D03*
X68805000Y-113921000D03*
X70075000Y-113921000D03*
X71345000Y-113921000D03*
X72615000Y-113921000D03*
X73885000Y-113921000D03*
X75155000Y-113921000D03*
X76425000Y-113921000D03*
X77695000Y-113921000D03*
X78965000Y-113921000D03*
X80235000Y-113921000D03*
X81505000Y-113921000D03*
X82775000Y-113921000D03*
X84045000Y-113921000D03*
X85315000Y-113921000D03*
X86585000Y-113921000D03*
X87855000Y-113921000D03*
X89125000Y-113921000D03*
X90395000Y-113921000D03*
X91665000Y-113921000D03*
X92935000Y-113921000D03*
X94205000Y-113921000D03*
X95475000Y-113921000D03*
X96745000Y-113921000D03*
X98015000Y-113921000D03*
X99285000Y-113921000D03*
X100555000Y-113921000D03*
X101825000Y-113921000D03*
X108175000Y-113921000D03*
X109445000Y-113921000D03*
X110715000Y-113921000D03*
X111985000Y-113921000D03*
X113255000Y-113921000D03*
X114525000Y-113921000D03*
X115795000Y-113921000D03*
X117065000Y-113921000D03*
X118335000Y-113921000D03*
X119605000Y-113921000D03*
X120875000Y-113921000D03*
X122145000Y-113921000D03*
X123415000Y-113921000D03*
X124685000Y-113921000D03*
X125955000Y-113921000D03*
X127225000Y-113921000D03*
X128495000Y-113921000D03*
X129765000Y-113921000D03*
X131035000Y-113921000D03*
X132305000Y-113921000D03*
X133575000Y-113921000D03*
X134845000Y-113921000D03*
X136115000Y-113921000D03*
X137385000Y-113921000D03*
X138655000Y-113921000D03*
X139925000Y-113921000D03*
X141195000Y-113921000D03*
X142465000Y-113921000D03*
X143735000Y-113921000D03*
X145005000Y-113921000D03*
X146275000Y-113921000D03*
X147545000Y-113921000D03*
X148815000Y-113921000D03*
X150085000Y-113921000D03*
X151355000Y-113921000D03*
X152625000Y-113921000D03*
D14*
X74830000Y-92550000D03*
X74830000Y-93050000D03*
X74830000Y-93550000D03*
X74830000Y-94050000D03*
X74830000Y-94550000D03*
X74830000Y-95050000D03*
X74830000Y-95550000D03*
X74830000Y-96050000D03*
X74830000Y-96550000D03*
X74830000Y-97050000D03*
X74830000Y-97550000D03*
X74830000Y-98050000D03*
X74830000Y-98550000D03*
X74830000Y-99050000D03*
X74830000Y-99550000D03*
X74830000Y-100050000D03*
X74830000Y-100550000D03*
X74830000Y-101050000D03*
X74830000Y-101550000D03*
X74830000Y-102050000D03*
X74830000Y-102550000D03*
X74830000Y-103050000D03*
X74830000Y-103550000D03*
X74830000Y-104050000D03*
X94530000Y-104050000D03*
X94530000Y-103550000D03*
X94530000Y-103050000D03*
X94530000Y-102550000D03*
X94530000Y-102050000D03*
X94530000Y-101550000D03*
X94530000Y-101050000D03*
X94530000Y-100550000D03*
X94530000Y-100050000D03*
X94530000Y-99550000D03*
X94530000Y-99050000D03*
X94530000Y-98550000D03*
X94530000Y-98050000D03*
X94530000Y-97550000D03*
X94530000Y-97050000D03*
X94530000Y-96550000D03*
X94530000Y-96050000D03*
X94530000Y-95550000D03*
X94530000Y-95050000D03*
X94530000Y-94550000D03*
X94530000Y-94050000D03*
X94530000Y-93550000D03*
X94530000Y-93050000D03*
X94530000Y-92550000D03*
D15*
X140941000Y-98007500D03*
X140941000Y-101132500D03*
D14*
X115470000Y-92550000D03*
X115470000Y-93050000D03*
X115470000Y-93550000D03*
X115470000Y-94050000D03*
X115470000Y-94550000D03*
X115470000Y-95050000D03*
X115470000Y-95550000D03*
X115470000Y-96050000D03*
X115470000Y-96550000D03*
X115470000Y-97050000D03*
X115470000Y-97550000D03*
X115470000Y-98050000D03*
X115470000Y-98550000D03*
X115470000Y-99050000D03*
X115470000Y-99550000D03*
X115470000Y-100050000D03*
X115470000Y-100550000D03*
X115470000Y-101050000D03*
X115470000Y-101550000D03*
X115470000Y-102050000D03*
X115470000Y-102550000D03*
X115470000Y-103050000D03*
X115470000Y-103550000D03*
X115470000Y-104050000D03*
X135170000Y-104050000D03*
X135170000Y-103550000D03*
X135170000Y-103050000D03*
X135170000Y-102550000D03*
X135170000Y-102050000D03*
X135170000Y-101550000D03*
X135170000Y-101050000D03*
X135170000Y-100550000D03*
X135170000Y-100050000D03*
X135170000Y-99550000D03*
X135170000Y-99050000D03*
X135170000Y-98550000D03*
X135170000Y-98050000D03*
X135170000Y-97550000D03*
X135170000Y-97050000D03*
X135170000Y-96550000D03*
X135170000Y-96050000D03*
X135170000Y-95550000D03*
X135170000Y-95050000D03*
X135170000Y-94550000D03*
X135170000Y-94050000D03*
X135170000Y-93550000D03*
X135170000Y-93050000D03*
X135170000Y-92550000D03*
D15*
X98904000Y-98134500D03*
X98904000Y-101259500D03*
G36*
X102530039Y-112391285D02*
G01*
X102575794Y-112444089D01*
X102587000Y-112495600D01*
X102587000Y-115321000D01*
X102567315Y-115388039D01*
X102514511Y-115433794D01*
X102463000Y-115445000D01*
X56737000Y-115445000D01*
X56669961Y-115425315D01*
X56624206Y-115372511D01*
X56613000Y-115321000D01*
X56613000Y-112495600D01*
X56632685Y-112428561D01*
X56685489Y-112382806D01*
X56737000Y-112371600D01*
X102463000Y-112371600D01*
X102530039Y-112391285D01*
G37*
G36*
X153330039Y-112391285D02*
G01*
X153375794Y-112444089D01*
X153387000Y-112495600D01*
X153387000Y-115321000D01*
X153367315Y-115388039D01*
X153314511Y-115433794D01*
X153263000Y-115445000D01*
X107537000Y-115445000D01*
X107469961Y-115425315D01*
X107424206Y-115372511D01*
X107413000Y-115321000D01*
X107413000Y-112495600D01*
X107432685Y-112428561D01*
X107485489Y-112382806D01*
X107537000Y-112371600D01*
X153263000Y-112371600D01*
X153330039Y-112391285D01*
G37*
%LPD*%
M02*
