G04 #@! TF.GenerationSoftware,KiCad,Pcbnew,9.0.0*
G04 #@! TF.CreationDate,2025-07-06T15:54:38+02:00*
G04 #@! TF.ProjectId,ckbd,636b6264-2e6b-4696-9361-645f70636258,d*
G04 #@! TF.SameCoordinates,Original*
G04 #@! TF.FileFunction,Copper,L3,Inr*
G04 #@! TF.FilePolarity,Positive*
%FSLAX46Y46*%
G04 Gerber Fmt 4.6, Leading zero omitted, Abs format (unit mm)*
G04 Created by KiCad (PCBNEW 9.0.0) date 2025-07-06 15:54:38*
%MOMM*%
%LPD*%
G01*
G04 APERTURE LIST*
G04 #@! TA.AperFunction,ComponentPad*
%ADD10R,1.700000X1.700000*%
G04 #@! TD*
G04 #@! TA.AperFunction,ComponentPad*
%ADD11O,1.700000X1.700000*%
G04 #@! TD*
G04 #@! TA.AperFunction,ViaPad*
%ADD12C,0.600000*%
G04 #@! TD*
G04 APERTURE END LIST*
D10*
X132613400Y-71831200D03*
D11*
X132613400Y-74371200D03*
X130073400Y-71831200D03*
X130073400Y-74371200D03*
X127533400Y-71831200D03*
X127533400Y-74371200D03*
X124993400Y-71831200D03*
X124993400Y-74371200D03*
X122453400Y-74371200D03*
D10*
X114833400Y-41351200D03*
D11*
X114833400Y-43891200D03*
X114833400Y-46431200D03*
X114833400Y-48971200D03*
X114833400Y-51511200D03*
X114833400Y-54051200D03*
X114833400Y-56591200D03*
X114833400Y-59131200D03*
X114833400Y-61671200D03*
X114833400Y-64211200D03*
X114833400Y-66751200D03*
X114833400Y-69291200D03*
X114833400Y-71831200D03*
X114833400Y-74371200D03*
D10*
X110972600Y-48971200D03*
D11*
X110972600Y-51511200D03*
X110972600Y-54051200D03*
X110972600Y-56591200D03*
D10*
X107213400Y-41351200D03*
D11*
X107213400Y-43891200D03*
X107213400Y-46431200D03*
X107213400Y-48971200D03*
X107213400Y-51511200D03*
X107213400Y-54051200D03*
X107213400Y-56591200D03*
X107213400Y-59131200D03*
X107213400Y-61671200D03*
X107213400Y-64211200D03*
X107213400Y-66751200D03*
X107213400Y-69291200D03*
X107213400Y-71831200D03*
X107213400Y-74371200D03*
D12*
X110998000Y-67945000D03*
X120294400Y-67259200D03*
X124358400Y-59258200D03*
X118272000Y-62941200D03*
X119659400Y-64973200D03*
X117373400Y-65481200D03*
X125120400Y-59766200D03*
X127152400Y-60756800D03*
X136569650Y-61194750D03*
X126974600Y-54156500D03*
X136569650Y-59924750D03*
X135553650Y-59924750D03*
X126390400Y-61671200D03*
X132130800Y-55118000D03*
X137566400Y-74422000D03*
X121183400Y-61671200D03*
X137566400Y-71831200D03*
X111023400Y-43332400D03*
X138640150Y-59963250D03*
X137585650Y-63734750D03*
X137566400Y-56083200D03*
X129819400Y-54152800D03*
X125501400Y-61163200D03*
X122834400Y-67259200D03*
X124741257Y-61671200D03*
X128270000Y-63957200D03*
X126775400Y-55702200D03*
X128676400Y-61976000D03*
G04 #@! TA.AperFunction,Conductor*
G36*
X117379461Y-39312297D02*
G01*
X117511373Y-39325289D01*
X117535201Y-39330028D01*
X117656193Y-39366731D01*
X117678645Y-39376032D01*
X117734393Y-39405829D01*
X117790138Y-39435626D01*
X117810349Y-39449130D01*
X117908077Y-39529332D01*
X117925267Y-39546522D01*
X118005469Y-39644250D01*
X118018973Y-39664461D01*
X118078566Y-39775951D01*
X118087869Y-39798409D01*
X118124569Y-39919392D01*
X118129311Y-39943232D01*
X118140556Y-40057406D01*
X118142303Y-40075137D01*
X118142900Y-40087292D01*
X118142900Y-46746308D01*
X118142900Y-46812200D01*
X118142900Y-46938829D01*
X118144451Y-46949614D01*
X118178941Y-47189503D01*
X118178943Y-47189513D01*
X118250294Y-47432512D01*
X118355493Y-47662866D01*
X118355506Y-47662889D01*
X118492416Y-47875925D01*
X118492420Y-47875931D01*
X118658268Y-48067331D01*
X118849668Y-48233179D01*
X118849674Y-48233183D01*
X119062710Y-48370093D01*
X119062733Y-48370106D01*
X119293087Y-48475305D01*
X119293091Y-48475306D01*
X119293093Y-48475307D01*
X119536092Y-48546658D01*
X119786771Y-48582700D01*
X119847508Y-48582700D01*
X138897508Y-48582700D01*
X138957307Y-48582700D01*
X138969461Y-48583297D01*
X139101373Y-48596289D01*
X139125201Y-48601028D01*
X139246193Y-48637731D01*
X139268645Y-48647032D01*
X139283478Y-48654960D01*
X139380138Y-48706626D01*
X139400349Y-48720130D01*
X139498077Y-48800332D01*
X139515267Y-48817522D01*
X139595469Y-48915250D01*
X139608973Y-48935461D01*
X139668566Y-49046951D01*
X139677869Y-49069409D01*
X139714569Y-49190392D01*
X139719311Y-49214232D01*
X139726521Y-49287439D01*
X139732303Y-49346137D01*
X139732900Y-49358292D01*
X139732900Y-76905107D01*
X139732303Y-76917261D01*
X139732303Y-76917262D01*
X139719311Y-77049167D01*
X139714569Y-77073007D01*
X139677869Y-77193990D01*
X139668566Y-77216448D01*
X139608973Y-77327938D01*
X139595469Y-77348149D01*
X139515267Y-77445877D01*
X139498077Y-77463067D01*
X139400349Y-77543269D01*
X139380138Y-77556773D01*
X139268648Y-77616366D01*
X139246190Y-77625669D01*
X139125207Y-77662369D01*
X139101367Y-77667111D01*
X139004098Y-77676691D01*
X138969460Y-77680103D01*
X138957307Y-77680700D01*
X105949493Y-77680700D01*
X105937339Y-77680103D01*
X105805433Y-77667111D01*
X105781592Y-77662369D01*
X105660609Y-77625669D01*
X105638151Y-77616366D01*
X105526661Y-77556773D01*
X105506450Y-77543269D01*
X105408722Y-77463067D01*
X105391532Y-77445877D01*
X105311330Y-77348149D01*
X105297826Y-77327938D01*
X105238233Y-77216448D01*
X105228930Y-77193990D01*
X105192228Y-77073001D01*
X105187489Y-77049173D01*
X105174497Y-76917261D01*
X105173900Y-76905107D01*
X105173900Y-40453335D01*
X105862900Y-40453335D01*
X105862900Y-42249070D01*
X105862901Y-42249076D01*
X105869308Y-42308683D01*
X105919602Y-42443528D01*
X105919606Y-42443535D01*
X106005852Y-42558744D01*
X106005855Y-42558747D01*
X106121064Y-42644993D01*
X106121071Y-42644997D01*
X106252482Y-42694010D01*
X106308416Y-42735881D01*
X106332833Y-42801345D01*
X106317982Y-42869618D01*
X106296831Y-42897873D01*
X106183289Y-43011415D01*
X106058351Y-43183379D01*
X105961844Y-43372785D01*
X105896153Y-43574960D01*
X105862900Y-43784913D01*
X105862900Y-43997486D01*
X105896153Y-44207439D01*
X105961844Y-44409614D01*
X106058351Y-44599020D01*
X106183290Y-44770986D01*
X106333613Y-44921309D01*
X106505582Y-45046250D01*
X106514346Y-45050716D01*
X106565142Y-45098691D01*
X106581936Y-45166512D01*
X106559398Y-45232647D01*
X106514346Y-45271684D01*
X106505582Y-45276149D01*
X106333613Y-45401090D01*
X106183290Y-45551413D01*
X106058351Y-45723379D01*
X105961844Y-45912785D01*
X105896153Y-46114960D01*
X105862900Y-46324913D01*
X105862900Y-46537487D01*
X105896154Y-46747443D01*
X105958339Y-46938829D01*
X105961844Y-46949614D01*
X106058351Y-47139020D01*
X106183290Y-47310986D01*
X106333613Y-47461309D01*
X106505582Y-47586250D01*
X106514346Y-47590716D01*
X106565142Y-47638691D01*
X106581936Y-47706512D01*
X106559398Y-47772647D01*
X106514346Y-47811684D01*
X106505582Y-47816149D01*
X106333613Y-47941090D01*
X106183290Y-48091413D01*
X106058351Y-48263379D01*
X105961844Y-48452785D01*
X105896153Y-48654960D01*
X105862900Y-48864913D01*
X105862900Y-49077486D01*
X105880782Y-49190392D01*
X105896154Y-49287443D01*
X105919174Y-49358292D01*
X105961844Y-49489614D01*
X106058351Y-49679020D01*
X106183290Y-49850986D01*
X106333613Y-50001309D01*
X106505582Y-50126250D01*
X106514346Y-50130716D01*
X106565142Y-50178691D01*
X106581936Y-50246512D01*
X106559398Y-50312647D01*
X106514346Y-50351684D01*
X106505582Y-50356149D01*
X106333613Y-50481090D01*
X106183290Y-50631413D01*
X106058351Y-50803379D01*
X105961844Y-50992785D01*
X105896153Y-51194960D01*
X105862900Y-51404913D01*
X105862900Y-51617486D01*
X105896153Y-51827439D01*
X105961844Y-52029614D01*
X106058351Y-52219020D01*
X106183290Y-52390986D01*
X106333613Y-52541309D01*
X106505582Y-52666250D01*
X106514346Y-52670716D01*
X106565142Y-52718691D01*
X106581936Y-52786512D01*
X106559398Y-52852647D01*
X106514346Y-52891684D01*
X106505582Y-52896149D01*
X106333613Y-53021090D01*
X106183290Y-53171413D01*
X106058351Y-53343379D01*
X105961844Y-53532785D01*
X105896153Y-53734960D01*
X105890031Y-53773614D01*
X105862900Y-53944913D01*
X105862900Y-54157487D01*
X105896154Y-54367443D01*
X105949617Y-54531985D01*
X105961844Y-54569614D01*
X106058351Y-54759020D01*
X106183290Y-54930986D01*
X106333613Y-55081309D01*
X106505582Y-55206250D01*
X106514346Y-55210716D01*
X106565142Y-55258691D01*
X106581936Y-55326512D01*
X106559398Y-55392647D01*
X106514346Y-55431684D01*
X106505582Y-55436149D01*
X106333613Y-55561090D01*
X106183290Y-55711413D01*
X106058351Y-55883379D01*
X105961844Y-56072785D01*
X105896153Y-56274960D01*
X105862900Y-56484913D01*
X105862900Y-56697486D01*
X105896153Y-56907439D01*
X105961844Y-57109614D01*
X106058351Y-57299020D01*
X106183290Y-57470986D01*
X106333613Y-57621309D01*
X106505582Y-57746250D01*
X106514346Y-57750716D01*
X106565142Y-57798691D01*
X106581936Y-57866512D01*
X106559398Y-57932647D01*
X106514346Y-57971684D01*
X106505582Y-57976149D01*
X106333613Y-58101090D01*
X106183290Y-58251413D01*
X106058351Y-58423379D01*
X105961844Y-58612785D01*
X105896153Y-58814960D01*
X105875396Y-58946015D01*
X105862900Y-59024913D01*
X105862900Y-59237487D01*
X105896154Y-59447443D01*
X105957870Y-59637385D01*
X105961844Y-59649614D01*
X106058351Y-59839020D01*
X106183290Y-60010986D01*
X106333613Y-60161309D01*
X106505582Y-60286250D01*
X106514346Y-60290716D01*
X106565142Y-60338691D01*
X106581936Y-60406512D01*
X106559398Y-60472647D01*
X106514346Y-60511684D01*
X106505582Y-60516149D01*
X106333613Y-60641090D01*
X106183290Y-60791413D01*
X106058351Y-60963379D01*
X105961844Y-61152785D01*
X105896153Y-61354960D01*
X105868978Y-61526537D01*
X105862900Y-61564913D01*
X105862900Y-61777487D01*
X105896154Y-61987443D01*
X105959203Y-62181488D01*
X105961844Y-62189614D01*
X106058351Y-62379020D01*
X106183290Y-62550986D01*
X106333613Y-62701309D01*
X106505582Y-62826250D01*
X106514346Y-62830716D01*
X106565142Y-62878691D01*
X106581936Y-62946512D01*
X106559398Y-63012647D01*
X106514346Y-63051684D01*
X106505582Y-63056149D01*
X106333613Y-63181090D01*
X106183290Y-63331413D01*
X106058351Y-63503379D01*
X105961844Y-63692785D01*
X105896153Y-63894960D01*
X105862900Y-64104913D01*
X105862900Y-64317486D01*
X105892517Y-64504485D01*
X105896154Y-64527443D01*
X105960974Y-64726938D01*
X105961844Y-64729614D01*
X106058351Y-64919020D01*
X106183290Y-65090986D01*
X106333613Y-65241309D01*
X106505582Y-65366250D01*
X106514346Y-65370716D01*
X106565142Y-65418691D01*
X106581936Y-65486512D01*
X106559398Y-65552647D01*
X106514346Y-65591684D01*
X106505582Y-65596149D01*
X106333613Y-65721090D01*
X106183290Y-65871413D01*
X106058351Y-66043379D01*
X105961844Y-66232785D01*
X105896153Y-66434960D01*
X105862900Y-66644913D01*
X105862900Y-66857486D01*
X105896153Y-67067439D01*
X105896153Y-67067441D01*
X105896154Y-67067443D01*
X105932842Y-67180358D01*
X105961844Y-67269614D01*
X106058351Y-67459020D01*
X106183290Y-67630986D01*
X106333613Y-67781309D01*
X106505582Y-67906250D01*
X106514346Y-67910716D01*
X106565142Y-67958691D01*
X106581936Y-68026512D01*
X106559398Y-68092647D01*
X106514346Y-68131684D01*
X106505582Y-68136149D01*
X106333613Y-68261090D01*
X106183290Y-68411413D01*
X106058351Y-68583379D01*
X105961844Y-68772785D01*
X105896153Y-68974960D01*
X105862900Y-69184913D01*
X105862900Y-69397486D01*
X105896153Y-69607439D01*
X105961844Y-69809614D01*
X106058351Y-69999020D01*
X106183290Y-70170986D01*
X106333613Y-70321309D01*
X106505582Y-70446250D01*
X106514346Y-70450716D01*
X106565142Y-70498691D01*
X106581936Y-70566512D01*
X106559398Y-70632647D01*
X106514346Y-70671684D01*
X106505582Y-70676149D01*
X106333613Y-70801090D01*
X106183290Y-70951413D01*
X106058351Y-71123379D01*
X105961844Y-71312785D01*
X105896153Y-71514960D01*
X105883049Y-71597698D01*
X105862900Y-71724913D01*
X105862900Y-71937487D01*
X105896154Y-72147443D01*
X105959203Y-72341488D01*
X105961844Y-72349614D01*
X106058351Y-72539020D01*
X106183290Y-72710986D01*
X106333613Y-72861309D01*
X106505582Y-72986250D01*
X106514346Y-72990716D01*
X106565142Y-73038691D01*
X106581936Y-73106512D01*
X106559398Y-73172647D01*
X106514346Y-73211684D01*
X106505582Y-73216149D01*
X106333613Y-73341090D01*
X106183290Y-73491413D01*
X106058351Y-73663379D01*
X105961844Y-73852785D01*
X105896153Y-74054960D01*
X105875003Y-74188498D01*
X105862900Y-74264913D01*
X105862900Y-74477487D01*
X105896154Y-74687443D01*
X105933111Y-74801185D01*
X105961844Y-74889614D01*
X106058351Y-75079020D01*
X106183290Y-75250986D01*
X106333613Y-75401309D01*
X106505579Y-75526248D01*
X106505581Y-75526249D01*
X106505584Y-75526251D01*
X106694988Y-75622757D01*
X106897157Y-75688446D01*
X107107113Y-75721700D01*
X107107114Y-75721700D01*
X107319686Y-75721700D01*
X107319687Y-75721700D01*
X107529643Y-75688446D01*
X107731812Y-75622757D01*
X107921216Y-75526251D01*
X107943189Y-75510286D01*
X108093186Y-75401309D01*
X108093188Y-75401306D01*
X108093192Y-75401304D01*
X108243504Y-75250992D01*
X108243506Y-75250988D01*
X108243509Y-75250986D01*
X108368448Y-75079020D01*
X108368447Y-75079020D01*
X108368451Y-75079016D01*
X108464957Y-74889612D01*
X108530646Y-74687443D01*
X108563900Y-74477487D01*
X108563900Y-74264913D01*
X108530646Y-74054957D01*
X108464957Y-73852788D01*
X108368451Y-73663384D01*
X108368449Y-73663381D01*
X108368448Y-73663379D01*
X108243509Y-73491413D01*
X108093186Y-73341090D01*
X107921220Y-73216151D01*
X107920515Y-73215791D01*
X107912454Y-73211685D01*
X107861659Y-73163712D01*
X107844863Y-73095892D01*
X107867399Y-73029756D01*
X107912454Y-72990715D01*
X107921216Y-72986251D01*
X108007538Y-72923535D01*
X108093186Y-72861309D01*
X108093188Y-72861306D01*
X108093192Y-72861304D01*
X108243504Y-72710992D01*
X108243506Y-72710988D01*
X108243509Y-72710986D01*
X108367302Y-72540597D01*
X108368451Y-72539016D01*
X108464957Y-72349612D01*
X108530646Y-72147443D01*
X108563900Y-71937487D01*
X108563900Y-71724913D01*
X108530646Y-71514957D01*
X108464957Y-71312788D01*
X108368451Y-71123384D01*
X108368449Y-71123381D01*
X108368448Y-71123379D01*
X108243509Y-70951413D01*
X108093186Y-70801090D01*
X107921220Y-70676151D01*
X107920515Y-70675791D01*
X107912454Y-70671685D01*
X107861659Y-70623712D01*
X107844863Y-70555892D01*
X107867399Y-70489756D01*
X107912454Y-70450715D01*
X107921216Y-70446251D01*
X107943189Y-70430286D01*
X108093186Y-70321309D01*
X108093188Y-70321306D01*
X108093192Y-70321304D01*
X108243504Y-70170992D01*
X108243506Y-70170988D01*
X108243509Y-70170986D01*
X108368448Y-69999020D01*
X108368447Y-69999020D01*
X108368451Y-69999016D01*
X108464957Y-69809612D01*
X108530646Y-69607443D01*
X108563900Y-69397487D01*
X108563900Y-69184913D01*
X108530646Y-68974957D01*
X108464957Y-68772788D01*
X108368451Y-68583384D01*
X108368449Y-68583381D01*
X108368448Y-68583379D01*
X108243509Y-68411413D01*
X108093186Y-68261090D01*
X107921220Y-68136151D01*
X107920515Y-68135791D01*
X107912454Y-68131685D01*
X107861659Y-68083712D01*
X107844863Y-68015892D01*
X107867399Y-67949756D01*
X107912454Y-67910715D01*
X107921216Y-67906251D01*
X107955991Y-67880986D01*
X108093186Y-67781309D01*
X108093188Y-67781306D01*
X108093192Y-67781304D01*
X108243504Y-67630992D01*
X108243506Y-67630988D01*
X108243509Y-67630986D01*
X108368448Y-67459020D01*
X108368447Y-67459020D01*
X108368451Y-67459016D01*
X108464957Y-67269612D01*
X108530646Y-67067443D01*
X108563900Y-66857487D01*
X108563900Y-66644913D01*
X108530646Y-66434957D01*
X108464957Y-66232788D01*
X108368451Y-66043384D01*
X108368449Y-66043381D01*
X108368448Y-66043379D01*
X108243509Y-65871413D01*
X108093186Y-65721090D01*
X107921220Y-65596151D01*
X107918933Y-65594986D01*
X107912454Y-65591685D01*
X107861659Y-65543712D01*
X107844863Y-65475892D01*
X107867399Y-65409756D01*
X107912454Y-65370715D01*
X107921216Y-65366251D01*
X108019021Y-65295192D01*
X108093186Y-65241309D01*
X108093188Y-65241306D01*
X108093192Y-65241304D01*
X108243504Y-65090992D01*
X108243506Y-65090988D01*
X108243509Y-65090986D01*
X108368448Y-64919020D01*
X108368447Y-64919020D01*
X108368451Y-64919016D01*
X108464957Y-64729612D01*
X108530646Y-64527443D01*
X108563900Y-64317487D01*
X108563900Y-64104913D01*
X108530646Y-63894957D01*
X108464957Y-63692788D01*
X108368451Y-63503384D01*
X108368449Y-63503381D01*
X108368448Y-63503379D01*
X108243509Y-63331413D01*
X108093186Y-63181090D01*
X107921220Y-63056151D01*
X107920515Y-63055791D01*
X107912454Y-63051685D01*
X107861659Y-63003712D01*
X107844863Y-62935892D01*
X107867399Y-62869756D01*
X107912454Y-62830715D01*
X107921216Y-62826251D01*
X107989693Y-62776500D01*
X108093186Y-62701309D01*
X108093188Y-62701306D01*
X108093192Y-62701304D01*
X108243504Y-62550992D01*
X108243506Y-62550988D01*
X108243509Y-62550986D01*
X108367302Y-62380597D01*
X108368451Y-62379016D01*
X108464957Y-62189612D01*
X108530646Y-61987443D01*
X108563900Y-61777487D01*
X108563900Y-61564913D01*
X108530646Y-61354957D01*
X108464957Y-61152788D01*
X108368451Y-60963384D01*
X108368449Y-60963381D01*
X108368448Y-60963379D01*
X108243509Y-60791413D01*
X108093186Y-60641090D01*
X107921220Y-60516151D01*
X107920515Y-60515791D01*
X107912454Y-60511685D01*
X107861659Y-60463712D01*
X107844863Y-60395892D01*
X107867399Y-60329756D01*
X107912454Y-60290715D01*
X107921216Y-60286251D01*
X107978214Y-60244840D01*
X108093186Y-60161309D01*
X108093188Y-60161306D01*
X108093192Y-60161304D01*
X108243504Y-60010992D01*
X108243506Y-60010988D01*
X108243509Y-60010986D01*
X108368448Y-59839020D01*
X108368447Y-59839020D01*
X108368451Y-59839016D01*
X108464957Y-59649612D01*
X108530646Y-59447443D01*
X108563900Y-59237487D01*
X108563900Y-59024913D01*
X108530646Y-58814957D01*
X108464957Y-58612788D01*
X108368451Y-58423384D01*
X108368449Y-58423381D01*
X108368448Y-58423379D01*
X108243509Y-58251413D01*
X108093186Y-58101090D01*
X107921220Y-57976151D01*
X107920515Y-57975791D01*
X107912454Y-57971685D01*
X107861659Y-57923712D01*
X107844863Y-57855892D01*
X107867399Y-57789756D01*
X107912454Y-57750715D01*
X107921216Y-57746251D01*
X107943189Y-57730286D01*
X108093186Y-57621309D01*
X108093188Y-57621306D01*
X108093192Y-57621304D01*
X108243504Y-57470992D01*
X108243506Y-57470988D01*
X108243509Y-57470986D01*
X108368448Y-57299020D01*
X108368447Y-57299020D01*
X108368451Y-57299016D01*
X108464957Y-57109612D01*
X108530646Y-56907443D01*
X108563900Y-56697487D01*
X108563900Y-56484913D01*
X108530646Y-56274957D01*
X108464957Y-56072788D01*
X108368451Y-55883384D01*
X108368449Y-55883381D01*
X108368448Y-55883379D01*
X108243509Y-55711413D01*
X108093186Y-55561090D01*
X107921220Y-55436151D01*
X107920515Y-55435791D01*
X107912454Y-55431685D01*
X107861659Y-55383712D01*
X107844863Y-55315892D01*
X107867399Y-55249756D01*
X107912454Y-55210715D01*
X107921216Y-55206251D01*
X107943189Y-55190286D01*
X108093186Y-55081309D01*
X108093188Y-55081306D01*
X108093192Y-55081304D01*
X108243504Y-54930992D01*
X108243506Y-54930988D01*
X108243509Y-54930986D01*
X108368448Y-54759020D01*
X108368447Y-54759020D01*
X108368451Y-54759016D01*
X108464957Y-54569612D01*
X108530646Y-54367443D01*
X108563900Y-54157487D01*
X108563900Y-53944913D01*
X108530646Y-53734957D01*
X108464957Y-53532788D01*
X108368451Y-53343384D01*
X108368449Y-53343381D01*
X108368448Y-53343379D01*
X108243509Y-53171413D01*
X108093186Y-53021090D01*
X107921220Y-52896151D01*
X107920515Y-52895791D01*
X107912454Y-52891685D01*
X107861659Y-52843712D01*
X107844863Y-52775892D01*
X107867399Y-52709756D01*
X107912454Y-52670715D01*
X107921216Y-52666251D01*
X107943189Y-52650286D01*
X108093186Y-52541309D01*
X108093188Y-52541306D01*
X108093192Y-52541304D01*
X108243504Y-52390992D01*
X108243506Y-52390988D01*
X108243509Y-52390986D01*
X108368448Y-52219020D01*
X108368447Y-52219020D01*
X108368451Y-52219016D01*
X108464957Y-52029612D01*
X108530646Y-51827443D01*
X108563900Y-51617487D01*
X108563900Y-51404913D01*
X108530646Y-51194957D01*
X108464957Y-50992788D01*
X108368451Y-50803384D01*
X108368449Y-50803381D01*
X108368448Y-50803379D01*
X108243509Y-50631413D01*
X108093186Y-50481090D01*
X107921220Y-50356151D01*
X107920515Y-50355791D01*
X107912454Y-50351685D01*
X107861659Y-50303712D01*
X107844863Y-50235892D01*
X107867399Y-50169756D01*
X107912454Y-50130715D01*
X107921216Y-50126251D01*
X108007538Y-50063535D01*
X108093186Y-50001309D01*
X108093188Y-50001306D01*
X108093192Y-50001304D01*
X108243504Y-49850992D01*
X108243506Y-49850988D01*
X108243509Y-49850986D01*
X108368448Y-49679020D01*
X108368447Y-49679020D01*
X108368451Y-49679016D01*
X108464957Y-49489612D01*
X108530646Y-49287443D01*
X108563900Y-49077487D01*
X108563900Y-48864913D01*
X108530646Y-48654957D01*
X108464957Y-48452788D01*
X108368451Y-48263384D01*
X108243504Y-48091408D01*
X108225431Y-48073335D01*
X109622100Y-48073335D01*
X109622100Y-49869070D01*
X109622101Y-49869076D01*
X109628508Y-49928683D01*
X109678802Y-50063528D01*
X109678806Y-50063535D01*
X109765052Y-50178744D01*
X109765055Y-50178747D01*
X109880264Y-50264993D01*
X109880271Y-50264997D01*
X110011682Y-50314010D01*
X110067616Y-50355881D01*
X110092033Y-50421345D01*
X110077182Y-50489618D01*
X110056031Y-50517873D01*
X109942489Y-50631415D01*
X109817551Y-50803379D01*
X109721044Y-50992785D01*
X109655353Y-51194960D01*
X109622100Y-51404913D01*
X109622100Y-51617486D01*
X109655353Y-51827439D01*
X109721044Y-52029614D01*
X109817551Y-52219020D01*
X109942490Y-52390986D01*
X110092813Y-52541309D01*
X110264782Y-52666250D01*
X110273546Y-52670716D01*
X110324342Y-52718691D01*
X110341136Y-52786512D01*
X110318598Y-52852647D01*
X110273546Y-52891684D01*
X110264782Y-52896149D01*
X110092813Y-53021090D01*
X109942490Y-53171413D01*
X109817551Y-53343379D01*
X109721044Y-53532785D01*
X109655353Y-53734960D01*
X109649231Y-53773614D01*
X109622100Y-53944913D01*
X109622100Y-54157487D01*
X109655354Y-54367443D01*
X109708817Y-54531985D01*
X109721044Y-54569614D01*
X109817551Y-54759020D01*
X109942490Y-54930986D01*
X110092813Y-55081309D01*
X110264782Y-55206250D01*
X110273546Y-55210716D01*
X110324342Y-55258691D01*
X110341136Y-55326512D01*
X110318598Y-55392647D01*
X110273546Y-55431684D01*
X110264782Y-55436149D01*
X110092813Y-55561090D01*
X109942490Y-55711413D01*
X109817551Y-55883379D01*
X109721044Y-56072785D01*
X109655353Y-56274960D01*
X109622100Y-56484913D01*
X109622100Y-56697486D01*
X109655353Y-56907439D01*
X109721044Y-57109614D01*
X109817551Y-57299020D01*
X109942490Y-57470986D01*
X110092813Y-57621309D01*
X110264779Y-57746248D01*
X110264781Y-57746249D01*
X110264784Y-57746251D01*
X110454188Y-57842757D01*
X110656357Y-57908446D01*
X110866313Y-57941700D01*
X110866314Y-57941700D01*
X111078886Y-57941700D01*
X111078887Y-57941700D01*
X111288843Y-57908446D01*
X111491012Y-57842757D01*
X111680416Y-57746251D01*
X111702389Y-57730286D01*
X111852386Y-57621309D01*
X111852388Y-57621306D01*
X111852392Y-57621304D01*
X112002704Y-57470992D01*
X112002706Y-57470988D01*
X112002709Y-57470986D01*
X112127648Y-57299020D01*
X112127647Y-57299020D01*
X112127651Y-57299016D01*
X112224157Y-57109612D01*
X112289846Y-56907443D01*
X112323100Y-56697487D01*
X112323100Y-56484913D01*
X112289846Y-56274957D01*
X112224157Y-56072788D01*
X112127651Y-55883384D01*
X112127649Y-55883381D01*
X112127648Y-55883379D01*
X112002709Y-55711413D01*
X111852386Y-55561090D01*
X111680420Y-55436151D01*
X111679715Y-55435791D01*
X111671654Y-55431685D01*
X111620859Y-55383712D01*
X111604063Y-55315892D01*
X111626599Y-55249756D01*
X111671654Y-55210715D01*
X111680416Y-55206251D01*
X111702389Y-55190286D01*
X111852386Y-55081309D01*
X111852388Y-55081306D01*
X111852392Y-55081304D01*
X112002704Y-54930992D01*
X112002706Y-54930988D01*
X112002709Y-54930986D01*
X112127648Y-54759020D01*
X112127647Y-54759020D01*
X112127651Y-54759016D01*
X112224157Y-54569612D01*
X112289846Y-54367443D01*
X112323100Y-54157487D01*
X112323100Y-53944913D01*
X112289846Y-53734957D01*
X112224157Y-53532788D01*
X112127651Y-53343384D01*
X112127649Y-53343381D01*
X112127648Y-53343379D01*
X112002709Y-53171413D01*
X111852386Y-53021090D01*
X111680420Y-52896151D01*
X111679715Y-52895791D01*
X111671654Y-52891685D01*
X111620859Y-52843712D01*
X111604063Y-52775892D01*
X111626599Y-52709756D01*
X111671654Y-52670715D01*
X111680416Y-52666251D01*
X111702389Y-52650286D01*
X111852386Y-52541309D01*
X111852388Y-52541306D01*
X111852392Y-52541304D01*
X112002704Y-52390992D01*
X112002706Y-52390988D01*
X112002709Y-52390986D01*
X112127648Y-52219020D01*
X112127647Y-52219020D01*
X112127651Y-52219016D01*
X112224157Y-52029612D01*
X112289846Y-51827443D01*
X112323100Y-51617487D01*
X112323100Y-51404913D01*
X112289846Y-51194957D01*
X112224157Y-50992788D01*
X112127651Y-50803384D01*
X112127649Y-50803381D01*
X112127648Y-50803379D01*
X112002709Y-50631413D01*
X111889169Y-50517873D01*
X111855684Y-50456550D01*
X111860668Y-50386858D01*
X111902540Y-50330925D01*
X111933515Y-50314010D01*
X112064931Y-50264996D01*
X112180146Y-50178746D01*
X112266396Y-50063531D01*
X112316691Y-49928683D01*
X112323100Y-49869073D01*
X112323099Y-48073328D01*
X112316691Y-48013717D01*
X112266396Y-47878869D01*
X112266395Y-47878868D01*
X112266393Y-47878864D01*
X112180147Y-47763655D01*
X112180144Y-47763652D01*
X112064935Y-47677406D01*
X112064928Y-47677402D01*
X111930082Y-47627108D01*
X111930083Y-47627108D01*
X111870483Y-47620701D01*
X111870481Y-47620700D01*
X111870473Y-47620700D01*
X111870464Y-47620700D01*
X110074729Y-47620700D01*
X110074723Y-47620701D01*
X110015116Y-47627108D01*
X109880271Y-47677402D01*
X109880264Y-47677406D01*
X109765055Y-47763652D01*
X109765052Y-47763655D01*
X109678806Y-47878864D01*
X109678802Y-47878871D01*
X109628508Y-48013717D01*
X109622101Y-48073316D01*
X109622101Y-48073323D01*
X109622100Y-48073335D01*
X108225431Y-48073335D01*
X108093192Y-47941096D01*
X108093186Y-47941090D01*
X107921220Y-47816151D01*
X107920515Y-47815791D01*
X107912454Y-47811685D01*
X107861659Y-47763712D01*
X107844863Y-47695892D01*
X107867399Y-47629756D01*
X107912454Y-47590715D01*
X107921216Y-47586251D01*
X108008102Y-47523125D01*
X108093186Y-47461309D01*
X108093188Y-47461306D01*
X108093192Y-47461304D01*
X108243504Y-47310992D01*
X108243506Y-47310988D01*
X108243509Y-47310986D01*
X108368448Y-47139020D01*
X108368447Y-47139020D01*
X108368451Y-47139016D01*
X108464957Y-46949612D01*
X108530646Y-46747443D01*
X108563900Y-46537487D01*
X108563900Y-46324913D01*
X108530646Y-46114957D01*
X108464957Y-45912788D01*
X108368451Y-45723384D01*
X108368449Y-45723381D01*
X108368448Y-45723379D01*
X108243509Y-45551413D01*
X108093186Y-45401090D01*
X107921220Y-45276151D01*
X107920515Y-45275791D01*
X107912454Y-45271685D01*
X107861659Y-45223712D01*
X107844863Y-45155892D01*
X107867399Y-45089756D01*
X107912454Y-45050715D01*
X107921216Y-45046251D01*
X107943189Y-45030286D01*
X108093186Y-44921309D01*
X108093188Y-44921306D01*
X108093192Y-44921304D01*
X108243504Y-44770992D01*
X108243506Y-44770988D01*
X108243509Y-44770986D01*
X108368448Y-44599020D01*
X108368447Y-44599020D01*
X108368451Y-44599016D01*
X108464957Y-44409612D01*
X108530646Y-44207443D01*
X108563900Y-43997487D01*
X108563900Y-43784913D01*
X108530646Y-43574957D01*
X108464957Y-43372788D01*
X108404204Y-43253553D01*
X110222900Y-43253553D01*
X110222900Y-43411246D01*
X110253661Y-43565889D01*
X110253664Y-43565901D01*
X110314002Y-43711572D01*
X110314009Y-43711585D01*
X110401610Y-43842688D01*
X110401613Y-43842692D01*
X110513107Y-43954186D01*
X110513111Y-43954189D01*
X110644214Y-44041790D01*
X110644227Y-44041797D01*
X110789898Y-44102135D01*
X110789903Y-44102137D01*
X110944553Y-44132899D01*
X110944556Y-44132900D01*
X110944558Y-44132900D01*
X111102244Y-44132900D01*
X111102245Y-44132899D01*
X111256897Y-44102137D01*
X111402579Y-44041794D01*
X111533689Y-43954189D01*
X111645189Y-43842689D01*
X111732794Y-43711579D01*
X111793137Y-43565897D01*
X111823900Y-43411242D01*
X111823900Y-43253558D01*
X111823900Y-43253555D01*
X111823899Y-43253553D01*
X111793138Y-43098910D01*
X111793137Y-43098903D01*
X111756896Y-43011408D01*
X111732797Y-42953227D01*
X111732790Y-42953214D01*
X111645189Y-42822111D01*
X111645186Y-42822107D01*
X111533692Y-42710613D01*
X111533688Y-42710610D01*
X111402585Y-42623009D01*
X111402572Y-42623002D01*
X111256901Y-42562664D01*
X111256889Y-42562661D01*
X111102245Y-42531900D01*
X111102242Y-42531900D01*
X110944558Y-42531900D01*
X110944555Y-42531900D01*
X110789910Y-42562661D01*
X110789898Y-42562664D01*
X110644227Y-42623002D01*
X110644214Y-42623009D01*
X110513111Y-42710610D01*
X110513107Y-42710613D01*
X110401613Y-42822107D01*
X110401610Y-42822111D01*
X110314009Y-42953214D01*
X110314002Y-42953227D01*
X110253664Y-43098898D01*
X110253661Y-43098910D01*
X110222900Y-43253553D01*
X108404204Y-43253553D01*
X108368451Y-43183384D01*
X108368449Y-43183381D01*
X108368448Y-43183379D01*
X108243509Y-43011413D01*
X108129969Y-42897873D01*
X108096484Y-42836550D01*
X108101468Y-42766858D01*
X108143340Y-42710925D01*
X108174315Y-42694010D01*
X108305731Y-42644996D01*
X108420946Y-42558746D01*
X108507196Y-42443531D01*
X108557491Y-42308683D01*
X108563900Y-42249073D01*
X108563899Y-40453335D01*
X113482900Y-40453335D01*
X113482900Y-42249070D01*
X113482901Y-42249076D01*
X113489308Y-42308683D01*
X113539602Y-42443528D01*
X113539606Y-42443535D01*
X113625852Y-42558744D01*
X113625855Y-42558747D01*
X113741064Y-42644993D01*
X113741071Y-42644997D01*
X113872482Y-42694010D01*
X113928416Y-42735881D01*
X113952833Y-42801345D01*
X113937982Y-42869618D01*
X113916831Y-42897873D01*
X113803289Y-43011415D01*
X113678351Y-43183379D01*
X113581844Y-43372785D01*
X113516153Y-43574960D01*
X113482900Y-43784913D01*
X113482900Y-43997486D01*
X113516153Y-44207439D01*
X113581844Y-44409614D01*
X113678351Y-44599020D01*
X113803290Y-44770986D01*
X113953613Y-44921309D01*
X114125582Y-45046250D01*
X114134346Y-45050716D01*
X114185142Y-45098691D01*
X114201936Y-45166512D01*
X114179398Y-45232647D01*
X114134346Y-45271684D01*
X114125582Y-45276149D01*
X113953613Y-45401090D01*
X113803290Y-45551413D01*
X113678351Y-45723379D01*
X113581844Y-45912785D01*
X113516153Y-46114960D01*
X113482900Y-46324913D01*
X113482900Y-46537487D01*
X113516154Y-46747443D01*
X113578339Y-46938829D01*
X113581844Y-46949614D01*
X113678351Y-47139020D01*
X113803290Y-47310986D01*
X113953613Y-47461309D01*
X114125582Y-47586250D01*
X114134346Y-47590716D01*
X114185142Y-47638691D01*
X114201936Y-47706512D01*
X114179398Y-47772647D01*
X114134346Y-47811684D01*
X114125582Y-47816149D01*
X113953613Y-47941090D01*
X113803290Y-48091413D01*
X113678351Y-48263379D01*
X113581844Y-48452785D01*
X113516153Y-48654960D01*
X113482900Y-48864913D01*
X113482900Y-49077486D01*
X113500782Y-49190392D01*
X113516154Y-49287443D01*
X113539174Y-49358292D01*
X113581844Y-49489614D01*
X113678351Y-49679020D01*
X113803290Y-49850986D01*
X113953613Y-50001309D01*
X114125582Y-50126250D01*
X114134346Y-50130716D01*
X114185142Y-50178691D01*
X114201936Y-50246512D01*
X114179398Y-50312647D01*
X114134346Y-50351684D01*
X114125582Y-50356149D01*
X113953613Y-50481090D01*
X113803290Y-50631413D01*
X113678351Y-50803379D01*
X113581844Y-50992785D01*
X113516153Y-51194960D01*
X113482900Y-51404913D01*
X113482900Y-51617486D01*
X113516153Y-51827439D01*
X113581844Y-52029614D01*
X113678351Y-52219020D01*
X113803290Y-52390986D01*
X113953613Y-52541309D01*
X114125582Y-52666250D01*
X114134346Y-52670716D01*
X114185142Y-52718691D01*
X114201936Y-52786512D01*
X114179398Y-52852647D01*
X114134346Y-52891684D01*
X114125582Y-52896149D01*
X113953613Y-53021090D01*
X113803290Y-53171413D01*
X113678351Y-53343379D01*
X113581844Y-53532785D01*
X113516153Y-53734960D01*
X113510031Y-53773614D01*
X113482900Y-53944913D01*
X113482900Y-54157487D01*
X113516154Y-54367443D01*
X113569617Y-54531985D01*
X113581844Y-54569614D01*
X113678351Y-54759020D01*
X113803290Y-54930986D01*
X113953613Y-55081309D01*
X114125582Y-55206250D01*
X114134346Y-55210716D01*
X114185142Y-55258691D01*
X114201936Y-55326512D01*
X114179398Y-55392647D01*
X114134346Y-55431684D01*
X114125582Y-55436149D01*
X113953613Y-55561090D01*
X113803290Y-55711413D01*
X113678351Y-55883379D01*
X113581844Y-56072785D01*
X113516153Y-56274960D01*
X113482900Y-56484913D01*
X113482900Y-56697486D01*
X113516153Y-56907439D01*
X113581844Y-57109614D01*
X113678351Y-57299020D01*
X113803290Y-57470986D01*
X113953613Y-57621309D01*
X114125582Y-57746250D01*
X114134346Y-57750716D01*
X114185142Y-57798691D01*
X114201936Y-57866512D01*
X114179398Y-57932647D01*
X114134346Y-57971684D01*
X114125582Y-57976149D01*
X113953613Y-58101090D01*
X113803290Y-58251413D01*
X113678351Y-58423379D01*
X113581844Y-58612785D01*
X113516153Y-58814960D01*
X113495396Y-58946015D01*
X113482900Y-59024913D01*
X113482900Y-59237487D01*
X113516154Y-59447443D01*
X113577870Y-59637385D01*
X113581844Y-59649614D01*
X113678351Y-59839020D01*
X113803290Y-60010986D01*
X113953613Y-60161309D01*
X114125582Y-60286250D01*
X114134346Y-60290716D01*
X114185142Y-60338691D01*
X114201936Y-60406512D01*
X114179398Y-60472647D01*
X114134346Y-60511684D01*
X114125582Y-60516149D01*
X113953613Y-60641090D01*
X113803290Y-60791413D01*
X113678351Y-60963379D01*
X113581844Y-61152785D01*
X113516153Y-61354960D01*
X113488978Y-61526537D01*
X113482900Y-61564913D01*
X113482900Y-61777487D01*
X113516154Y-61987443D01*
X113579203Y-62181488D01*
X113581844Y-62189614D01*
X113678351Y-62379020D01*
X113803290Y-62550986D01*
X113953613Y-62701309D01*
X114125582Y-62826250D01*
X114134346Y-62830716D01*
X114185142Y-62878691D01*
X114201936Y-62946512D01*
X114179398Y-63012647D01*
X114134346Y-63051684D01*
X114125582Y-63056149D01*
X113953613Y-63181090D01*
X113803290Y-63331413D01*
X113678351Y-63503379D01*
X113581844Y-63692785D01*
X113516153Y-63894960D01*
X113482900Y-64104913D01*
X113482900Y-64317486D01*
X113512517Y-64504485D01*
X113516154Y-64527443D01*
X113580974Y-64726938D01*
X113581844Y-64729614D01*
X113678351Y-64919020D01*
X113803290Y-65090986D01*
X113953613Y-65241309D01*
X114125582Y-65366250D01*
X114134346Y-65370716D01*
X114185142Y-65418691D01*
X114201936Y-65486512D01*
X114179398Y-65552647D01*
X114134346Y-65591684D01*
X114125582Y-65596149D01*
X113953613Y-65721090D01*
X113803290Y-65871413D01*
X113678351Y-66043379D01*
X113581844Y-66232785D01*
X113516153Y-66434960D01*
X113482900Y-66644913D01*
X113482900Y-66857486D01*
X113516153Y-67067439D01*
X113516153Y-67067441D01*
X113516154Y-67067443D01*
X113552842Y-67180358D01*
X113581844Y-67269614D01*
X113678351Y-67459020D01*
X113803290Y-67630986D01*
X113953613Y-67781309D01*
X114125582Y-67906250D01*
X114134346Y-67910716D01*
X114185142Y-67958691D01*
X114201936Y-68026512D01*
X114179398Y-68092647D01*
X114134346Y-68131684D01*
X114125582Y-68136149D01*
X113953613Y-68261090D01*
X113803290Y-68411413D01*
X113678351Y-68583379D01*
X113581844Y-68772785D01*
X113516153Y-68974960D01*
X113482900Y-69184913D01*
X113482900Y-69397486D01*
X113516153Y-69607439D01*
X113581844Y-69809614D01*
X113678351Y-69999020D01*
X113803290Y-70170986D01*
X113953613Y-70321309D01*
X114125582Y-70446250D01*
X114134346Y-70450716D01*
X114185142Y-70498691D01*
X114201936Y-70566512D01*
X114179398Y-70632647D01*
X114134346Y-70671684D01*
X114125582Y-70676149D01*
X113953613Y-70801090D01*
X113803290Y-70951413D01*
X113678351Y-71123379D01*
X113581844Y-71312785D01*
X113516153Y-71514960D01*
X113503049Y-71597698D01*
X113482900Y-71724913D01*
X113482900Y-71937487D01*
X113516154Y-72147443D01*
X113579203Y-72341488D01*
X113581844Y-72349614D01*
X113678351Y-72539020D01*
X113803290Y-72710986D01*
X113953613Y-72861309D01*
X114125582Y-72986250D01*
X114134346Y-72990716D01*
X114185142Y-73038691D01*
X114201936Y-73106512D01*
X114179398Y-73172647D01*
X114134346Y-73211684D01*
X114125582Y-73216149D01*
X113953613Y-73341090D01*
X113803290Y-73491413D01*
X113678351Y-73663379D01*
X113581844Y-73852785D01*
X113516153Y-74054960D01*
X113495003Y-74188498D01*
X113482900Y-74264913D01*
X113482900Y-74477487D01*
X113516154Y-74687443D01*
X113553111Y-74801185D01*
X113581844Y-74889614D01*
X113678351Y-75079020D01*
X113803290Y-75250986D01*
X113953613Y-75401309D01*
X114125579Y-75526248D01*
X114125581Y-75526249D01*
X114125584Y-75526251D01*
X114314988Y-75622757D01*
X114517157Y-75688446D01*
X114727113Y-75721700D01*
X114727114Y-75721700D01*
X114939686Y-75721700D01*
X114939687Y-75721700D01*
X115149643Y-75688446D01*
X115351812Y-75622757D01*
X115541216Y-75526251D01*
X115563189Y-75510286D01*
X115713186Y-75401309D01*
X115713188Y-75401306D01*
X115713192Y-75401304D01*
X115863504Y-75250992D01*
X115863506Y-75250988D01*
X115863509Y-75250986D01*
X115988448Y-75079020D01*
X115988447Y-75079020D01*
X115988451Y-75079016D01*
X116084957Y-74889612D01*
X116150646Y-74687443D01*
X116183900Y-74477487D01*
X116183900Y-74264913D01*
X121102900Y-74264913D01*
X121102900Y-74477487D01*
X121136154Y-74687443D01*
X121173111Y-74801185D01*
X121201844Y-74889614D01*
X121298351Y-75079020D01*
X121423290Y-75250986D01*
X121573613Y-75401309D01*
X121745579Y-75526248D01*
X121745581Y-75526249D01*
X121745584Y-75526251D01*
X121934988Y-75622757D01*
X122137157Y-75688446D01*
X122347113Y-75721700D01*
X122347114Y-75721700D01*
X122559686Y-75721700D01*
X122559687Y-75721700D01*
X122769643Y-75688446D01*
X122971812Y-75622757D01*
X123161216Y-75526251D01*
X123183189Y-75510286D01*
X123333186Y-75401309D01*
X123333188Y-75401306D01*
X123333192Y-75401304D01*
X123483504Y-75250992D01*
X123483506Y-75250988D01*
X123483509Y-75250986D01*
X123608448Y-75079020D01*
X123608447Y-75079020D01*
X123608451Y-75079016D01*
X123612914Y-75070254D01*
X123660888Y-75019459D01*
X123728708Y-75002663D01*
X123794844Y-75025199D01*
X123833886Y-75070256D01*
X123838351Y-75079020D01*
X123963290Y-75250986D01*
X124113613Y-75401309D01*
X124285579Y-75526248D01*
X124285581Y-75526249D01*
X124285584Y-75526251D01*
X124474988Y-75622757D01*
X124677157Y-75688446D01*
X124887113Y-75721700D01*
X124887114Y-75721700D01*
X125099686Y-75721700D01*
X125099687Y-75721700D01*
X125309643Y-75688446D01*
X125511812Y-75622757D01*
X125701216Y-75526251D01*
X125723189Y-75510286D01*
X125873186Y-75401309D01*
X125873188Y-75401306D01*
X125873192Y-75401304D01*
X126023504Y-75250992D01*
X126023506Y-75250988D01*
X126023509Y-75250986D01*
X126148448Y-75079020D01*
X126148447Y-75079020D01*
X126148451Y-75079016D01*
X126152914Y-75070254D01*
X126200888Y-75019459D01*
X126268708Y-75002663D01*
X126334844Y-75025199D01*
X126373886Y-75070256D01*
X126378351Y-75079020D01*
X126503290Y-75250986D01*
X126653613Y-75401309D01*
X126825579Y-75526248D01*
X126825581Y-75526249D01*
X126825584Y-75526251D01*
X127014988Y-75622757D01*
X127217157Y-75688446D01*
X127427113Y-75721700D01*
X127427114Y-75721700D01*
X127639686Y-75721700D01*
X127639687Y-75721700D01*
X127849643Y-75688446D01*
X128051812Y-75622757D01*
X128241216Y-75526251D01*
X128263189Y-75510286D01*
X128413186Y-75401309D01*
X128413188Y-75401306D01*
X128413192Y-75401304D01*
X128563504Y-75250992D01*
X128563506Y-75250988D01*
X128563509Y-75250986D01*
X128688448Y-75079020D01*
X128688447Y-75079020D01*
X128688451Y-75079016D01*
X128692914Y-75070254D01*
X128740888Y-75019459D01*
X128808708Y-75002663D01*
X128874844Y-75025199D01*
X128913886Y-75070256D01*
X128918351Y-75079020D01*
X129043290Y-75250986D01*
X129193613Y-75401309D01*
X129365579Y-75526248D01*
X129365581Y-75526249D01*
X129365584Y-75526251D01*
X129554988Y-75622757D01*
X129757157Y-75688446D01*
X129967113Y-75721700D01*
X129967114Y-75721700D01*
X130179686Y-75721700D01*
X130179687Y-75721700D01*
X130389643Y-75688446D01*
X130591812Y-75622757D01*
X130781216Y-75526251D01*
X130803189Y-75510286D01*
X130953186Y-75401309D01*
X130953188Y-75401306D01*
X130953192Y-75401304D01*
X131103504Y-75250992D01*
X131103506Y-75250988D01*
X131103509Y-75250986D01*
X131228448Y-75079020D01*
X131228447Y-75079020D01*
X131228451Y-75079016D01*
X131232914Y-75070254D01*
X131280888Y-75019459D01*
X131348708Y-75002663D01*
X131414844Y-75025199D01*
X131453886Y-75070256D01*
X131458351Y-75079020D01*
X131583290Y-75250986D01*
X131733613Y-75401309D01*
X131905579Y-75526248D01*
X131905581Y-75526249D01*
X131905584Y-75526251D01*
X132094988Y-75622757D01*
X132297157Y-75688446D01*
X132507113Y-75721700D01*
X132507114Y-75721700D01*
X132719686Y-75721700D01*
X132719687Y-75721700D01*
X132929643Y-75688446D01*
X133131812Y-75622757D01*
X133321216Y-75526251D01*
X133343189Y-75510286D01*
X133493186Y-75401309D01*
X133493188Y-75401306D01*
X133493192Y-75401304D01*
X133643504Y-75250992D01*
X133643506Y-75250988D01*
X133643509Y-75250986D01*
X133768448Y-75079020D01*
X133768447Y-75079020D01*
X133768451Y-75079016D01*
X133864957Y-74889612D01*
X133930646Y-74687443D01*
X133963900Y-74477487D01*
X133963900Y-74343153D01*
X136765900Y-74343153D01*
X136765900Y-74500846D01*
X136796661Y-74655489D01*
X136796664Y-74655501D01*
X136857002Y-74801172D01*
X136857009Y-74801185D01*
X136944610Y-74932288D01*
X136944613Y-74932292D01*
X137056107Y-75043786D01*
X137056111Y-75043789D01*
X137187214Y-75131390D01*
X137187227Y-75131397D01*
X137332898Y-75191735D01*
X137332903Y-75191737D01*
X137487553Y-75222499D01*
X137487556Y-75222500D01*
X137487558Y-75222500D01*
X137645244Y-75222500D01*
X137645245Y-75222499D01*
X137799897Y-75191737D01*
X137945579Y-75131394D01*
X138076689Y-75043789D01*
X138188189Y-74932289D01*
X138275794Y-74801179D01*
X138336137Y-74655497D01*
X138366900Y-74500842D01*
X138366900Y-74343158D01*
X138366900Y-74343155D01*
X138366899Y-74343153D01*
X138336138Y-74188510D01*
X138336137Y-74188503D01*
X138336135Y-74188498D01*
X138275797Y-74042827D01*
X138275790Y-74042814D01*
X138188189Y-73911711D01*
X138188186Y-73911707D01*
X138076692Y-73800213D01*
X138076688Y-73800210D01*
X137945585Y-73712609D01*
X137945572Y-73712602D01*
X137799901Y-73652264D01*
X137799889Y-73652261D01*
X137645245Y-73621500D01*
X137645242Y-73621500D01*
X137487558Y-73621500D01*
X137487555Y-73621500D01*
X137332910Y-73652261D01*
X137332898Y-73652264D01*
X137187227Y-73712602D01*
X137187214Y-73712609D01*
X137056111Y-73800210D01*
X137056107Y-73800213D01*
X136944613Y-73911707D01*
X136944610Y-73911711D01*
X136857009Y-74042814D01*
X136857002Y-74042827D01*
X136796664Y-74188498D01*
X136796661Y-74188510D01*
X136765900Y-74343153D01*
X133963900Y-74343153D01*
X133963900Y-74264913D01*
X133930646Y-74054957D01*
X133864957Y-73852788D01*
X133768451Y-73663384D01*
X133768449Y-73663381D01*
X133768448Y-73663379D01*
X133643509Y-73491413D01*
X133529969Y-73377873D01*
X133496484Y-73316550D01*
X133501468Y-73246858D01*
X133543340Y-73190925D01*
X133574315Y-73174010D01*
X133705731Y-73124996D01*
X133820946Y-73038746D01*
X133907196Y-72923531D01*
X133957491Y-72788683D01*
X133963900Y-72729073D01*
X133963899Y-71752353D01*
X136765900Y-71752353D01*
X136765900Y-71910046D01*
X136796661Y-72064689D01*
X136796664Y-72064701D01*
X136857002Y-72210372D01*
X136857009Y-72210385D01*
X136944610Y-72341488D01*
X136944613Y-72341492D01*
X137056107Y-72452986D01*
X137056111Y-72452989D01*
X137187214Y-72540590D01*
X137187227Y-72540597D01*
X137332898Y-72600935D01*
X137332903Y-72600937D01*
X137487553Y-72631699D01*
X137487556Y-72631700D01*
X137487558Y-72631700D01*
X137645244Y-72631700D01*
X137645245Y-72631699D01*
X137799897Y-72600937D01*
X137945579Y-72540594D01*
X138076689Y-72452989D01*
X138188189Y-72341489D01*
X138275794Y-72210379D01*
X138336137Y-72064697D01*
X138366900Y-71910042D01*
X138366900Y-71752358D01*
X138366900Y-71752355D01*
X138366899Y-71752353D01*
X138336138Y-71597710D01*
X138336137Y-71597703D01*
X138301863Y-71514957D01*
X138275797Y-71452027D01*
X138275790Y-71452014D01*
X138188189Y-71320911D01*
X138188186Y-71320907D01*
X138076692Y-71209413D01*
X138076688Y-71209410D01*
X137945585Y-71121809D01*
X137945572Y-71121802D01*
X137799901Y-71061464D01*
X137799889Y-71061461D01*
X137645245Y-71030700D01*
X137645242Y-71030700D01*
X137487558Y-71030700D01*
X137487555Y-71030700D01*
X137332910Y-71061461D01*
X137332898Y-71061464D01*
X137187227Y-71121802D01*
X137187214Y-71121809D01*
X137056111Y-71209410D01*
X137056107Y-71209413D01*
X136944613Y-71320907D01*
X136944610Y-71320911D01*
X136857009Y-71452014D01*
X136857002Y-71452027D01*
X136796664Y-71597698D01*
X136796661Y-71597710D01*
X136765900Y-71752353D01*
X133963899Y-71752353D01*
X133963899Y-70933328D01*
X133957491Y-70873717D01*
X133956210Y-70870283D01*
X133907197Y-70738871D01*
X133907193Y-70738864D01*
X133820947Y-70623655D01*
X133820944Y-70623652D01*
X133705735Y-70537406D01*
X133705728Y-70537402D01*
X133570882Y-70487108D01*
X133570883Y-70487108D01*
X133511283Y-70480701D01*
X133511281Y-70480700D01*
X133511273Y-70480700D01*
X133511264Y-70480700D01*
X131715529Y-70480700D01*
X131715523Y-70480701D01*
X131655916Y-70487108D01*
X131521071Y-70537402D01*
X131521064Y-70537406D01*
X131405855Y-70623652D01*
X131405852Y-70623655D01*
X131319606Y-70738864D01*
X131319603Y-70738869D01*
X131270589Y-70870283D01*
X131228717Y-70926216D01*
X131163253Y-70950633D01*
X131094980Y-70935781D01*
X131066726Y-70914630D01*
X130953186Y-70801090D01*
X130781220Y-70676151D01*
X130591814Y-70579644D01*
X130591813Y-70579643D01*
X130591812Y-70579643D01*
X130389643Y-70513954D01*
X130389641Y-70513953D01*
X130389640Y-70513953D01*
X130228357Y-70488408D01*
X130179687Y-70480700D01*
X129967113Y-70480700D01*
X129918442Y-70488408D01*
X129757160Y-70513953D01*
X129554985Y-70579644D01*
X129365579Y-70676151D01*
X129193613Y-70801090D01*
X129043290Y-70951413D01*
X128918349Y-71123382D01*
X128913884Y-71132146D01*
X128865909Y-71182942D01*
X128798088Y-71199736D01*
X128731953Y-71177198D01*
X128692916Y-71132146D01*
X128688450Y-71123382D01*
X128563509Y-70951413D01*
X128413186Y-70801090D01*
X128241220Y-70676151D01*
X128051814Y-70579644D01*
X128051813Y-70579643D01*
X128051812Y-70579643D01*
X127849643Y-70513954D01*
X127849641Y-70513953D01*
X127849640Y-70513953D01*
X127688357Y-70488408D01*
X127639687Y-70480700D01*
X127427113Y-70480700D01*
X127378442Y-70488408D01*
X127217160Y-70513953D01*
X127014985Y-70579644D01*
X126825579Y-70676151D01*
X126653613Y-70801090D01*
X126503290Y-70951413D01*
X126378349Y-71123382D01*
X126373884Y-71132146D01*
X126325909Y-71182942D01*
X126258088Y-71199736D01*
X126191953Y-71177198D01*
X126152916Y-71132146D01*
X126148450Y-71123382D01*
X126023509Y-70951413D01*
X125873186Y-70801090D01*
X125701220Y-70676151D01*
X125511814Y-70579644D01*
X125511813Y-70579643D01*
X125511812Y-70579643D01*
X125309643Y-70513954D01*
X125309641Y-70513953D01*
X125309640Y-70513953D01*
X125148357Y-70488408D01*
X125099687Y-70480700D01*
X124887113Y-70480700D01*
X124838442Y-70488408D01*
X124677160Y-70513953D01*
X124474985Y-70579644D01*
X124285579Y-70676151D01*
X124113613Y-70801090D01*
X123963290Y-70951413D01*
X123838351Y-71123379D01*
X123741844Y-71312785D01*
X123676153Y-71514960D01*
X123663049Y-71597698D01*
X123642900Y-71724913D01*
X123642900Y-71937487D01*
X123676154Y-72147443D01*
X123739203Y-72341488D01*
X123741844Y-72349614D01*
X123838351Y-72539020D01*
X123963290Y-72710986D01*
X124113613Y-72861309D01*
X124285582Y-72986250D01*
X124294346Y-72990716D01*
X124345142Y-73038691D01*
X124361936Y-73106512D01*
X124339398Y-73172647D01*
X124294346Y-73211684D01*
X124285582Y-73216149D01*
X124113613Y-73341090D01*
X123963290Y-73491413D01*
X123838349Y-73663382D01*
X123833884Y-73672146D01*
X123785909Y-73722942D01*
X123718088Y-73739736D01*
X123651953Y-73717198D01*
X123612916Y-73672146D01*
X123608450Y-73663382D01*
X123483509Y-73491413D01*
X123333186Y-73341090D01*
X123161220Y-73216151D01*
X122971814Y-73119644D01*
X122971813Y-73119643D01*
X122971812Y-73119643D01*
X122769643Y-73053954D01*
X122769641Y-73053953D01*
X122769640Y-73053953D01*
X122608357Y-73028408D01*
X122559687Y-73020700D01*
X122347113Y-73020700D01*
X122298442Y-73028408D01*
X122137160Y-73053953D01*
X121934985Y-73119644D01*
X121745579Y-73216151D01*
X121573613Y-73341090D01*
X121423290Y-73491413D01*
X121298351Y-73663379D01*
X121201844Y-73852785D01*
X121136153Y-74054960D01*
X121115003Y-74188498D01*
X121102900Y-74264913D01*
X116183900Y-74264913D01*
X116150646Y-74054957D01*
X116084957Y-73852788D01*
X115988451Y-73663384D01*
X115988449Y-73663381D01*
X115988448Y-73663379D01*
X115863509Y-73491413D01*
X115713186Y-73341090D01*
X115541220Y-73216151D01*
X115540515Y-73215791D01*
X115532454Y-73211685D01*
X115481659Y-73163712D01*
X115464863Y-73095892D01*
X115487399Y-73029756D01*
X115532454Y-72990715D01*
X115541216Y-72986251D01*
X115627538Y-72923535D01*
X115713186Y-72861309D01*
X115713188Y-72861306D01*
X115713192Y-72861304D01*
X115863504Y-72710992D01*
X115863506Y-72710988D01*
X115863509Y-72710986D01*
X115987302Y-72540597D01*
X115988451Y-72539016D01*
X116084957Y-72349612D01*
X116150646Y-72147443D01*
X116183900Y-71937487D01*
X116183900Y-71724913D01*
X116150646Y-71514957D01*
X116084957Y-71312788D01*
X115988451Y-71123384D01*
X115988449Y-71123381D01*
X115988448Y-71123379D01*
X115863509Y-70951413D01*
X115713186Y-70801090D01*
X115541220Y-70676151D01*
X115540515Y-70675791D01*
X115532454Y-70671685D01*
X115481659Y-70623712D01*
X115464863Y-70555892D01*
X115487399Y-70489756D01*
X115532454Y-70450715D01*
X115541216Y-70446251D01*
X115563189Y-70430286D01*
X115713186Y-70321309D01*
X115713188Y-70321306D01*
X115713192Y-70321304D01*
X115863504Y-70170992D01*
X115863506Y-70170988D01*
X115863509Y-70170986D01*
X115988448Y-69999020D01*
X115988447Y-69999020D01*
X115988451Y-69999016D01*
X116084957Y-69809612D01*
X116150646Y-69607443D01*
X116183900Y-69397487D01*
X116183900Y-69184913D01*
X116150646Y-68974957D01*
X116084957Y-68772788D01*
X115988451Y-68583384D01*
X115988449Y-68583381D01*
X115988448Y-68583379D01*
X115863509Y-68411413D01*
X115713186Y-68261090D01*
X115541220Y-68136151D01*
X115540515Y-68135791D01*
X115532454Y-68131685D01*
X115481659Y-68083712D01*
X115464863Y-68015892D01*
X115487399Y-67949756D01*
X115532454Y-67910715D01*
X115541216Y-67906251D01*
X115575991Y-67880986D01*
X115713186Y-67781309D01*
X115713188Y-67781306D01*
X115713192Y-67781304D01*
X115863504Y-67630992D01*
X115863506Y-67630988D01*
X115863509Y-67630986D01*
X115988448Y-67459020D01*
X115988447Y-67459020D01*
X115988451Y-67459016D01*
X116084957Y-67269612D01*
X116113959Y-67180353D01*
X119493900Y-67180353D01*
X119493900Y-67338046D01*
X119524661Y-67492689D01*
X119524664Y-67492701D01*
X119585002Y-67638372D01*
X119585009Y-67638385D01*
X119672610Y-67769488D01*
X119672613Y-67769492D01*
X119784107Y-67880986D01*
X119784111Y-67880989D01*
X119915214Y-67968590D01*
X119915227Y-67968597D01*
X119997698Y-68002757D01*
X120060903Y-68028937D01*
X120215553Y-68059699D01*
X120215556Y-68059700D01*
X120215558Y-68059700D01*
X120373244Y-68059700D01*
X120373245Y-68059699D01*
X120527897Y-68028937D01*
X120673579Y-67968594D01*
X120804689Y-67880989D01*
X120916189Y-67769489D01*
X121003794Y-67638379D01*
X121064137Y-67492697D01*
X121094900Y-67338042D01*
X121094900Y-67180358D01*
X121094900Y-67180355D01*
X121094899Y-67180353D01*
X122033900Y-67180353D01*
X122033900Y-67338046D01*
X122064661Y-67492689D01*
X122064664Y-67492701D01*
X122125002Y-67638372D01*
X122125009Y-67638385D01*
X122212610Y-67769488D01*
X122212613Y-67769492D01*
X122324107Y-67880986D01*
X122324111Y-67880989D01*
X122455214Y-67968590D01*
X122455227Y-67968597D01*
X122537698Y-68002757D01*
X122600903Y-68028937D01*
X122755553Y-68059699D01*
X122755556Y-68059700D01*
X122755558Y-68059700D01*
X122913244Y-68059700D01*
X122913245Y-68059699D01*
X123067897Y-68028937D01*
X123213579Y-67968594D01*
X123344689Y-67880989D01*
X123456189Y-67769489D01*
X123543794Y-67638379D01*
X123604137Y-67492697D01*
X123634900Y-67338042D01*
X123634900Y-67180358D01*
X123634900Y-67180355D01*
X123634899Y-67180353D01*
X123626066Y-67135948D01*
X123604137Y-67025703D01*
X123604135Y-67025698D01*
X123543797Y-66880027D01*
X123543790Y-66880014D01*
X123456189Y-66748911D01*
X123456186Y-66748907D01*
X123344692Y-66637413D01*
X123344688Y-66637410D01*
X123213585Y-66549809D01*
X123213572Y-66549802D01*
X123067901Y-66489464D01*
X123067889Y-66489461D01*
X122913245Y-66458700D01*
X122913242Y-66458700D01*
X122755558Y-66458700D01*
X122755555Y-66458700D01*
X122600910Y-66489461D01*
X122600898Y-66489464D01*
X122455227Y-66549802D01*
X122455214Y-66549809D01*
X122324111Y-66637410D01*
X122324107Y-66637413D01*
X122212613Y-66748907D01*
X122212610Y-66748911D01*
X122125009Y-66880014D01*
X122125002Y-66880027D01*
X122064664Y-67025698D01*
X122064661Y-67025710D01*
X122033900Y-67180353D01*
X121094899Y-67180353D01*
X121086066Y-67135948D01*
X121064137Y-67025703D01*
X121064135Y-67025698D01*
X121003797Y-66880027D01*
X121003790Y-66880014D01*
X120916189Y-66748911D01*
X120916186Y-66748907D01*
X120804692Y-66637413D01*
X120804688Y-66637410D01*
X120673585Y-66549809D01*
X120673572Y-66549802D01*
X120527901Y-66489464D01*
X120527889Y-66489461D01*
X120373245Y-66458700D01*
X120373242Y-66458700D01*
X120215558Y-66458700D01*
X120215555Y-66458700D01*
X120060910Y-66489461D01*
X120060898Y-66489464D01*
X119915227Y-66549802D01*
X119915214Y-66549809D01*
X119784111Y-66637410D01*
X119784107Y-66637413D01*
X119672613Y-66748907D01*
X119672610Y-66748911D01*
X119585009Y-66880014D01*
X119585002Y-66880027D01*
X119524664Y-67025698D01*
X119524661Y-67025710D01*
X119493900Y-67180353D01*
X116113959Y-67180353D01*
X116150646Y-67067443D01*
X116183900Y-66857487D01*
X116183900Y-66644913D01*
X116150646Y-66434957D01*
X116084957Y-66232788D01*
X115988451Y-66043384D01*
X115988449Y-66043381D01*
X115988448Y-66043379D01*
X115863509Y-65871413D01*
X115713186Y-65721090D01*
X115541220Y-65596151D01*
X115538933Y-65594986D01*
X115532454Y-65591685D01*
X115529500Y-65588895D01*
X115525561Y-65587893D01*
X115504309Y-65565103D01*
X115481659Y-65543712D01*
X115480681Y-65539766D01*
X115477910Y-65536794D01*
X115472353Y-65506137D01*
X115464863Y-65475892D01*
X115466174Y-65472044D01*
X115465449Y-65468044D01*
X115477348Y-65439249D01*
X115487399Y-65409756D01*
X115491028Y-65406149D01*
X115492135Y-65403472D01*
X115493512Y-65402353D01*
X116572900Y-65402353D01*
X116572900Y-65560046D01*
X116603661Y-65714689D01*
X116603664Y-65714701D01*
X116664002Y-65860372D01*
X116664009Y-65860385D01*
X116751610Y-65991488D01*
X116751613Y-65991492D01*
X116863107Y-66102986D01*
X116863111Y-66102989D01*
X116994214Y-66190590D01*
X116994227Y-66190597D01*
X117096087Y-66232788D01*
X117139903Y-66250937D01*
X117294553Y-66281699D01*
X117294556Y-66281700D01*
X117294558Y-66281700D01*
X117452244Y-66281700D01*
X117452245Y-66281699D01*
X117606897Y-66250937D01*
X117752579Y-66190594D01*
X117883689Y-66102989D01*
X117995189Y-65991489D01*
X118082794Y-65860379D01*
X118143137Y-65714697D01*
X118173900Y-65560042D01*
X118173900Y-65402358D01*
X118173900Y-65402355D01*
X118173899Y-65402353D01*
X118172715Y-65396399D01*
X118143137Y-65247703D01*
X118140487Y-65241305D01*
X118082797Y-65102027D01*
X118082790Y-65102014D01*
X117995192Y-64970916D01*
X117995189Y-64970911D01*
X117995184Y-64970906D01*
X117995181Y-64970902D01*
X117918632Y-64894353D01*
X118858900Y-64894353D01*
X118858900Y-65052046D01*
X118889661Y-65206689D01*
X118889664Y-65206701D01*
X118950002Y-65352372D01*
X118950009Y-65352385D01*
X119037610Y-65483488D01*
X119037613Y-65483492D01*
X119149107Y-65594986D01*
X119149111Y-65594989D01*
X119280214Y-65682590D01*
X119280227Y-65682597D01*
X119425898Y-65742935D01*
X119425903Y-65742937D01*
X119580553Y-65773699D01*
X119580556Y-65773700D01*
X119580558Y-65773700D01*
X119738244Y-65773700D01*
X119738245Y-65773699D01*
X119892897Y-65742937D01*
X120038579Y-65682594D01*
X120169689Y-65594989D01*
X120281189Y-65483489D01*
X120368794Y-65352379D01*
X120429137Y-65206697D01*
X120459900Y-65052042D01*
X120459900Y-64894358D01*
X120459900Y-64894355D01*
X120459899Y-64894353D01*
X120452949Y-64859413D01*
X120429137Y-64739703D01*
X120417439Y-64711461D01*
X120368797Y-64594027D01*
X120368790Y-64594014D01*
X120281189Y-64462911D01*
X120281186Y-64462907D01*
X120169692Y-64351413D01*
X120169688Y-64351410D01*
X120038585Y-64263809D01*
X120038572Y-64263802D01*
X119892901Y-64203464D01*
X119892889Y-64203461D01*
X119738245Y-64172700D01*
X119738242Y-64172700D01*
X119580558Y-64172700D01*
X119580555Y-64172700D01*
X119425910Y-64203461D01*
X119425898Y-64203464D01*
X119280227Y-64263802D01*
X119280214Y-64263809D01*
X119149111Y-64351410D01*
X119149107Y-64351413D01*
X119037613Y-64462907D01*
X119037610Y-64462911D01*
X118950009Y-64594014D01*
X118950002Y-64594027D01*
X118889664Y-64739698D01*
X118889661Y-64739710D01*
X118858900Y-64894353D01*
X117918632Y-64894353D01*
X117883692Y-64859413D01*
X117883688Y-64859410D01*
X117752585Y-64771809D01*
X117752572Y-64771802D01*
X117606901Y-64711464D01*
X117606889Y-64711461D01*
X117452245Y-64680700D01*
X117452242Y-64680700D01*
X117294558Y-64680700D01*
X117294555Y-64680700D01*
X117139910Y-64711461D01*
X117139898Y-64711464D01*
X116994227Y-64771802D01*
X116994214Y-64771809D01*
X116863111Y-64859410D01*
X116863107Y-64859413D01*
X116751613Y-64970907D01*
X116751610Y-64970911D01*
X116664009Y-65102014D01*
X116664002Y-65102027D01*
X116603664Y-65247698D01*
X116603661Y-65247710D01*
X116572900Y-65402353D01*
X115493512Y-65402353D01*
X115500840Y-65396399D01*
X115517947Y-65379401D01*
X115524903Y-65374562D01*
X115541216Y-65366251D01*
X115713192Y-65241304D01*
X115863504Y-65090992D01*
X115863506Y-65090988D01*
X115863509Y-65090986D01*
X115988448Y-64919020D01*
X115988447Y-64919020D01*
X115988451Y-64919016D01*
X116084957Y-64729612D01*
X116150646Y-64527443D01*
X116183900Y-64317487D01*
X116183900Y-64104913D01*
X116150646Y-63894957D01*
X116145251Y-63878353D01*
X127469500Y-63878353D01*
X127469500Y-64036046D01*
X127500261Y-64190689D01*
X127500264Y-64190701D01*
X127560602Y-64336372D01*
X127560609Y-64336385D01*
X127648210Y-64467488D01*
X127648213Y-64467492D01*
X127759707Y-64578986D01*
X127759711Y-64578989D01*
X127890814Y-64666590D01*
X127890827Y-64666597D01*
X128036498Y-64726935D01*
X128036503Y-64726937D01*
X128191153Y-64757699D01*
X128191156Y-64757700D01*
X128191158Y-64757700D01*
X128348844Y-64757700D01*
X128348845Y-64757699D01*
X128503497Y-64726937D01*
X128649179Y-64666594D01*
X128780289Y-64578989D01*
X128891789Y-64467489D01*
X128979394Y-64336379D01*
X129039737Y-64190697D01*
X129070500Y-64036042D01*
X129070500Y-63878358D01*
X129070500Y-63878355D01*
X129070499Y-63878353D01*
X129057618Y-63813596D01*
X129039737Y-63723703D01*
X129011654Y-63655903D01*
X136785150Y-63655903D01*
X136785150Y-63813596D01*
X136815911Y-63968239D01*
X136815914Y-63968251D01*
X136876252Y-64113922D01*
X136876259Y-64113935D01*
X136963860Y-64245038D01*
X136963863Y-64245042D01*
X137075357Y-64356536D01*
X137075361Y-64356539D01*
X137206464Y-64444140D01*
X137206477Y-64444147D01*
X137262838Y-64467492D01*
X137352153Y-64504487D01*
X137467540Y-64527439D01*
X137506803Y-64535249D01*
X137506806Y-64535250D01*
X137506808Y-64535250D01*
X137664494Y-64535250D01*
X137664495Y-64535249D01*
X137819147Y-64504487D01*
X137964829Y-64444144D01*
X138095939Y-64356539D01*
X138207439Y-64245039D01*
X138295044Y-64113929D01*
X138355387Y-63968247D01*
X138386150Y-63813592D01*
X138386150Y-63655908D01*
X138386150Y-63655905D01*
X138386149Y-63655903D01*
X138367667Y-63562989D01*
X138355387Y-63501253D01*
X138355385Y-63501248D01*
X138295047Y-63355577D01*
X138295040Y-63355564D01*
X138207439Y-63224461D01*
X138207436Y-63224457D01*
X138095942Y-63112963D01*
X138095938Y-63112960D01*
X137964835Y-63025359D01*
X137964822Y-63025352D01*
X137819151Y-62965014D01*
X137819139Y-62965011D01*
X137664495Y-62934250D01*
X137664492Y-62934250D01*
X137506808Y-62934250D01*
X137506805Y-62934250D01*
X137352160Y-62965011D01*
X137352148Y-62965014D01*
X137206477Y-63025352D01*
X137206464Y-63025359D01*
X137075361Y-63112960D01*
X137075357Y-63112963D01*
X136963863Y-63224457D01*
X136963860Y-63224461D01*
X136876259Y-63355564D01*
X136876252Y-63355577D01*
X136815914Y-63501248D01*
X136815911Y-63501260D01*
X136785150Y-63655903D01*
X129011654Y-63655903D01*
X129009456Y-63650597D01*
X128979397Y-63578027D01*
X128979390Y-63578014D01*
X128891789Y-63446911D01*
X128891786Y-63446907D01*
X128780292Y-63335413D01*
X128780288Y-63335410D01*
X128649185Y-63247809D01*
X128649172Y-63247802D01*
X128503501Y-63187464D01*
X128503489Y-63187461D01*
X128348845Y-63156700D01*
X128348842Y-63156700D01*
X128191158Y-63156700D01*
X128191155Y-63156700D01*
X128036510Y-63187461D01*
X128036498Y-63187464D01*
X127890827Y-63247802D01*
X127890814Y-63247809D01*
X127759711Y-63335410D01*
X127759707Y-63335413D01*
X127648213Y-63446907D01*
X127648210Y-63446911D01*
X127560609Y-63578014D01*
X127560602Y-63578027D01*
X127500264Y-63723698D01*
X127500261Y-63723710D01*
X127469500Y-63878353D01*
X116145251Y-63878353D01*
X116084957Y-63692788D01*
X115988451Y-63503384D01*
X115988449Y-63503381D01*
X115988448Y-63503379D01*
X115863509Y-63331413D01*
X115713186Y-63181090D01*
X115541220Y-63056151D01*
X115540515Y-63055791D01*
X115532454Y-63051685D01*
X115529500Y-63048895D01*
X115525561Y-63047893D01*
X115504309Y-63025103D01*
X115481659Y-63003712D01*
X115480681Y-62999766D01*
X115477910Y-62996794D01*
X115472353Y-62966137D01*
X115464863Y-62935892D01*
X115466174Y-62932044D01*
X115465449Y-62928044D01*
X115477348Y-62899249D01*
X115487399Y-62869756D01*
X115491028Y-62866149D01*
X115492135Y-62863472D01*
X115493512Y-62862353D01*
X117471500Y-62862353D01*
X117471500Y-63020046D01*
X117502261Y-63174689D01*
X117502264Y-63174701D01*
X117562602Y-63320372D01*
X117562609Y-63320385D01*
X117650210Y-63451488D01*
X117650213Y-63451492D01*
X117761707Y-63562986D01*
X117761711Y-63562989D01*
X117892814Y-63650590D01*
X117892827Y-63650597D01*
X118005500Y-63697267D01*
X118038503Y-63710937D01*
X118193153Y-63741699D01*
X118193156Y-63741700D01*
X118193158Y-63741700D01*
X118350844Y-63741700D01*
X118350845Y-63741699D01*
X118505497Y-63710937D01*
X118651179Y-63650594D01*
X118782289Y-63562989D01*
X118893789Y-63451489D01*
X118981394Y-63320379D01*
X119041737Y-63174697D01*
X119072500Y-63020042D01*
X119072500Y-62862358D01*
X119072500Y-62862355D01*
X119072499Y-62862353D01*
X119071315Y-62856399D01*
X119041737Y-62707703D01*
X119039087Y-62701305D01*
X118981397Y-62562027D01*
X118981390Y-62562014D01*
X118893789Y-62430911D01*
X118893786Y-62430907D01*
X118782292Y-62319413D01*
X118782288Y-62319410D01*
X118651185Y-62231809D01*
X118651172Y-62231802D01*
X118505501Y-62171464D01*
X118505489Y-62171461D01*
X118350845Y-62140700D01*
X118350842Y-62140700D01*
X118193158Y-62140700D01*
X118193155Y-62140700D01*
X118038510Y-62171461D01*
X118038498Y-62171464D01*
X117892827Y-62231802D01*
X117892814Y-62231809D01*
X117761711Y-62319410D01*
X117761707Y-62319413D01*
X117650213Y-62430907D01*
X117650210Y-62430911D01*
X117562609Y-62562014D01*
X117562602Y-62562027D01*
X117502264Y-62707698D01*
X117502261Y-62707710D01*
X117471500Y-62862353D01*
X115493512Y-62862353D01*
X115500840Y-62856399D01*
X115517947Y-62839401D01*
X115524903Y-62834562D01*
X115541216Y-62826251D01*
X115713192Y-62701304D01*
X115863504Y-62550992D01*
X115863506Y-62550988D01*
X115863509Y-62550986D01*
X115987302Y-62380597D01*
X115988451Y-62379016D01*
X116084957Y-62189612D01*
X116150646Y-61987443D01*
X116183900Y-61777487D01*
X116183900Y-61592353D01*
X120382900Y-61592353D01*
X120382900Y-61750046D01*
X120413661Y-61904689D01*
X120413664Y-61904701D01*
X120474002Y-62050372D01*
X120474009Y-62050385D01*
X120561610Y-62181488D01*
X120561613Y-62181492D01*
X120673107Y-62292986D01*
X120673111Y-62292989D01*
X120804214Y-62380590D01*
X120804227Y-62380597D01*
X120925688Y-62430907D01*
X120949903Y-62440937D01*
X121104553Y-62471699D01*
X121104556Y-62471700D01*
X121104558Y-62471700D01*
X121262244Y-62471700D01*
X121262245Y-62471699D01*
X121416897Y-62440937D01*
X121562579Y-62380594D01*
X121693689Y-62292989D01*
X121805189Y-62181489D01*
X121892794Y-62050379D01*
X121893408Y-62048898D01*
X121918864Y-61987439D01*
X121953137Y-61904697D01*
X121983900Y-61750042D01*
X121983900Y-61592358D01*
X121983900Y-61592355D01*
X121983899Y-61592353D01*
X121976926Y-61557300D01*
X121953137Y-61437703D01*
X121953135Y-61437698D01*
X121892797Y-61292027D01*
X121892790Y-61292014D01*
X121805189Y-61160911D01*
X121805186Y-61160907D01*
X121693692Y-61049413D01*
X121693688Y-61049410D01*
X121562585Y-60961809D01*
X121562572Y-60961802D01*
X121416901Y-60901464D01*
X121416889Y-60901461D01*
X121262245Y-60870700D01*
X121262242Y-60870700D01*
X121104558Y-60870700D01*
X121104555Y-60870700D01*
X120949910Y-60901461D01*
X120949898Y-60901464D01*
X120804227Y-60961802D01*
X120804214Y-60961809D01*
X120673111Y-61049410D01*
X120673107Y-61049413D01*
X120561613Y-61160907D01*
X120561610Y-61160911D01*
X120474009Y-61292014D01*
X120474002Y-61292027D01*
X120413664Y-61437698D01*
X120413661Y-61437710D01*
X120382900Y-61592353D01*
X116183900Y-61592353D01*
X116183900Y-61564913D01*
X116150646Y-61354957D01*
X116084957Y-61152788D01*
X115988451Y-60963384D01*
X115988449Y-60963381D01*
X115988448Y-60963379D01*
X115863509Y-60791413D01*
X115713186Y-60641090D01*
X115541220Y-60516151D01*
X115540515Y-60515791D01*
X115532454Y-60511685D01*
X115481659Y-60463712D01*
X115464863Y-60395892D01*
X115487399Y-60329756D01*
X115532454Y-60290715D01*
X115541216Y-60286251D01*
X115598214Y-60244840D01*
X115713186Y-60161309D01*
X115713188Y-60161306D01*
X115713192Y-60161304D01*
X115863504Y-60010992D01*
X115863506Y-60010988D01*
X115863509Y-60010986D01*
X115988448Y-59839020D01*
X115988447Y-59839020D01*
X115988451Y-59839016D01*
X116084957Y-59649612D01*
X116150646Y-59447443D01*
X116183900Y-59237487D01*
X116183900Y-59179353D01*
X123557900Y-59179353D01*
X123557900Y-59337046D01*
X123588661Y-59491689D01*
X123588664Y-59491701D01*
X123649002Y-59637372D01*
X123649009Y-59637385D01*
X123736610Y-59768488D01*
X123736613Y-59768492D01*
X123848107Y-59879986D01*
X123848111Y-59879989D01*
X123979214Y-59967590D01*
X123979227Y-59967597D01*
X124124898Y-60027935D01*
X124124903Y-60027937D01*
X124222760Y-60047402D01*
X124279553Y-60058699D01*
X124279556Y-60058700D01*
X124279558Y-60058700D01*
X124292249Y-60058700D01*
X124359288Y-60078385D01*
X124405043Y-60131189D01*
X124406789Y-60135200D01*
X124411006Y-60145379D01*
X124411008Y-60145382D01*
X124411009Y-60145384D01*
X124498610Y-60276488D01*
X124498613Y-60276492D01*
X124610107Y-60387986D01*
X124610111Y-60387989D01*
X124741214Y-60475590D01*
X124741221Y-60475594D01*
X124802815Y-60501107D01*
X124817843Y-60513217D01*
X124835490Y-60521034D01*
X124844485Y-60534685D01*
X124857217Y-60544945D01*
X124863313Y-60563259D01*
X124873933Y-60579377D01*
X124874119Y-60595726D01*
X124879283Y-60611239D01*
X124874509Y-60629941D01*
X124874730Y-60649242D01*
X124863189Y-60674297D01*
X124862005Y-60678939D01*
X124860435Y-60681512D01*
X124859447Y-60683087D01*
X124792006Y-60784021D01*
X124783835Y-60803746D01*
X124778322Y-60812545D01*
X124759640Y-60829109D01*
X124743972Y-60848554D01*
X124733947Y-60851890D01*
X124726044Y-60858899D01*
X124701373Y-60862733D01*
X124677679Y-60870621D01*
X124673249Y-60870700D01*
X124662412Y-60870700D01*
X124507767Y-60901461D01*
X124507755Y-60901464D01*
X124362084Y-60961802D01*
X124362071Y-60961809D01*
X124230968Y-61049410D01*
X124230964Y-61049413D01*
X124119470Y-61160907D01*
X124119467Y-61160911D01*
X124031866Y-61292014D01*
X124031859Y-61292027D01*
X123971521Y-61437698D01*
X123971518Y-61437710D01*
X123940757Y-61592353D01*
X123940757Y-61750046D01*
X123971518Y-61904689D01*
X123971521Y-61904701D01*
X124031859Y-62050372D01*
X124031866Y-62050385D01*
X124119467Y-62181488D01*
X124119470Y-62181492D01*
X124230964Y-62292986D01*
X124230968Y-62292989D01*
X124362071Y-62380590D01*
X124362084Y-62380597D01*
X124483545Y-62430907D01*
X124507760Y-62440937D01*
X124662410Y-62471699D01*
X124662413Y-62471700D01*
X124662415Y-62471700D01*
X124820101Y-62471700D01*
X124820102Y-62471699D01*
X124974754Y-62440937D01*
X125120436Y-62380594D01*
X125251546Y-62292989D01*
X125363046Y-62181489D01*
X125450651Y-62050379D01*
X125451264Y-62048896D01*
X125451794Y-62048239D01*
X125453519Y-62045013D01*
X125454130Y-62045339D01*
X125495101Y-61994491D01*
X125561394Y-61972422D01*
X125629095Y-61989697D01*
X125676708Y-62040831D01*
X125680389Y-62048890D01*
X125681004Y-62050375D01*
X125681009Y-62050385D01*
X125768610Y-62181488D01*
X125768613Y-62181492D01*
X125880107Y-62292986D01*
X125880111Y-62292989D01*
X126011214Y-62380590D01*
X126011227Y-62380597D01*
X126132688Y-62430907D01*
X126156903Y-62440937D01*
X126311553Y-62471699D01*
X126311556Y-62471700D01*
X126311558Y-62471700D01*
X126469244Y-62471700D01*
X126469245Y-62471699D01*
X126623897Y-62440937D01*
X126769579Y-62380594D01*
X126900689Y-62292989D01*
X127012189Y-62181489D01*
X127099794Y-62050379D01*
X127100408Y-62048898D01*
X127125864Y-61987439D01*
X127160137Y-61904697D01*
X127161638Y-61897153D01*
X127875900Y-61897153D01*
X127875900Y-62054846D01*
X127906661Y-62209489D01*
X127906664Y-62209501D01*
X127967002Y-62355172D01*
X127967009Y-62355185D01*
X128054610Y-62486288D01*
X128054613Y-62486292D01*
X128166107Y-62597786D01*
X128166111Y-62597789D01*
X128297214Y-62685390D01*
X128297227Y-62685397D01*
X128442898Y-62745735D01*
X128442903Y-62745737D01*
X128597553Y-62776499D01*
X128597556Y-62776500D01*
X128597558Y-62776500D01*
X128755244Y-62776500D01*
X128755245Y-62776499D01*
X128909897Y-62745737D01*
X129055579Y-62685394D01*
X129186689Y-62597789D01*
X129298189Y-62486289D01*
X129385794Y-62355179D01*
X129446137Y-62209497D01*
X129476900Y-62054842D01*
X129476900Y-61897158D01*
X129476900Y-61897155D01*
X129476899Y-61897153D01*
X129471875Y-61871898D01*
X129446137Y-61742503D01*
X129409062Y-61652995D01*
X129385797Y-61596827D01*
X129385790Y-61596814D01*
X129298189Y-61465711D01*
X129298186Y-61465707D01*
X129186692Y-61354213D01*
X129186688Y-61354210D01*
X129055585Y-61266609D01*
X129055572Y-61266602D01*
X128909901Y-61206264D01*
X128909889Y-61206261D01*
X128755245Y-61175500D01*
X128755242Y-61175500D01*
X128597558Y-61175500D01*
X128597555Y-61175500D01*
X128442910Y-61206261D01*
X128442898Y-61206264D01*
X128297227Y-61266602D01*
X128297214Y-61266609D01*
X128166111Y-61354210D01*
X128166107Y-61354213D01*
X128054613Y-61465707D01*
X128054610Y-61465711D01*
X127967009Y-61596814D01*
X127967002Y-61596827D01*
X127906664Y-61742498D01*
X127906661Y-61742510D01*
X127875900Y-61897153D01*
X127161638Y-61897153D01*
X127190900Y-61750042D01*
X127190900Y-61660014D01*
X127191703Y-61652995D01*
X127202654Y-61627055D01*
X127210585Y-61600049D01*
X127216060Y-61595304D01*
X127218880Y-61588627D01*
X127242116Y-61572726D01*
X127263389Y-61554294D01*
X127274118Y-61550828D01*
X127276542Y-61549170D01*
X127279519Y-61549083D01*
X127290699Y-61545473D01*
X127385897Y-61526537D01*
X127531579Y-61466194D01*
X127662689Y-61378589D01*
X127774189Y-61267089D01*
X127861794Y-61135979D01*
X127922137Y-60990297D01*
X127952900Y-60835642D01*
X127952900Y-60677958D01*
X127952900Y-60677955D01*
X127952899Y-60677953D01*
X127934417Y-60585039D01*
X127922137Y-60523303D01*
X127912942Y-60501105D01*
X127861797Y-60377627D01*
X127861790Y-60377614D01*
X127774189Y-60246511D01*
X127774186Y-60246507D01*
X127662692Y-60135013D01*
X127662688Y-60135010D01*
X127531585Y-60047409D01*
X127531572Y-60047402D01*
X127399934Y-59992877D01*
X127385901Y-59987064D01*
X127385889Y-59987061D01*
X127231245Y-59956300D01*
X127231242Y-59956300D01*
X127073558Y-59956300D01*
X127073555Y-59956300D01*
X126918910Y-59987061D01*
X126918898Y-59987064D01*
X126773227Y-60047402D01*
X126773214Y-60047409D01*
X126642111Y-60135010D01*
X126642107Y-60135013D01*
X126530613Y-60246507D01*
X126530610Y-60246511D01*
X126443009Y-60377614D01*
X126443002Y-60377627D01*
X126382664Y-60523298D01*
X126382662Y-60523307D01*
X126361674Y-60628815D01*
X126329288Y-60690725D01*
X126268572Y-60725299D01*
X126198803Y-60721558D01*
X126142131Y-60680691D01*
X126136955Y-60673512D01*
X126123192Y-60652915D01*
X126123186Y-60652907D01*
X126011692Y-60541413D01*
X126011688Y-60541410D01*
X125880585Y-60453809D01*
X125880573Y-60453802D01*
X125818985Y-60428293D01*
X125764581Y-60384453D01*
X125742516Y-60318159D01*
X125759795Y-60250459D01*
X125763315Y-60244871D01*
X125829794Y-60145379D01*
X125890137Y-59999697D01*
X125913071Y-59884403D01*
X137839650Y-59884403D01*
X137839650Y-60042096D01*
X137870411Y-60196739D01*
X137870414Y-60196751D01*
X137930752Y-60342422D01*
X137930759Y-60342435D01*
X138018360Y-60473538D01*
X138018363Y-60473542D01*
X138129857Y-60585036D01*
X138129861Y-60585039D01*
X138260964Y-60672640D01*
X138260977Y-60672647D01*
X138388092Y-60725299D01*
X138406653Y-60732987D01*
X138561303Y-60763749D01*
X138561306Y-60763750D01*
X138561308Y-60763750D01*
X138718994Y-60763750D01*
X138718995Y-60763749D01*
X138873647Y-60732987D01*
X138999902Y-60680691D01*
X139019322Y-60672647D01*
X139019322Y-60672646D01*
X139019329Y-60672644D01*
X139150439Y-60585039D01*
X139261939Y-60473539D01*
X139349544Y-60342429D01*
X139409887Y-60196747D01*
X139440650Y-60042092D01*
X139440650Y-59884408D01*
X139440650Y-59884405D01*
X139440649Y-59884403D01*
X139432820Y-59845044D01*
X139409887Y-59729753D01*
X139392327Y-59687358D01*
X139349547Y-59584077D01*
X139349540Y-59584064D01*
X139261939Y-59452961D01*
X139261936Y-59452957D01*
X139150442Y-59341463D01*
X139150438Y-59341460D01*
X139019335Y-59253859D01*
X139019322Y-59253852D01*
X138873651Y-59193514D01*
X138873639Y-59193511D01*
X138718995Y-59162750D01*
X138718992Y-59162750D01*
X138561308Y-59162750D01*
X138561305Y-59162750D01*
X138406660Y-59193511D01*
X138406648Y-59193514D01*
X138260977Y-59253852D01*
X138260964Y-59253859D01*
X138129861Y-59341460D01*
X138129857Y-59341463D01*
X138018363Y-59452957D01*
X138018360Y-59452961D01*
X137930759Y-59584064D01*
X137930752Y-59584077D01*
X137870414Y-59729748D01*
X137870411Y-59729760D01*
X137839650Y-59884403D01*
X125913071Y-59884403D01*
X125920900Y-59845042D01*
X125920900Y-59687358D01*
X125920900Y-59687355D01*
X125920899Y-59687353D01*
X125890138Y-59532710D01*
X125890137Y-59532703D01*
X125857107Y-59452961D01*
X125829797Y-59387027D01*
X125829790Y-59387014D01*
X125742189Y-59255911D01*
X125742186Y-59255907D01*
X125630692Y-59144413D01*
X125630688Y-59144410D01*
X125499585Y-59056809D01*
X125499572Y-59056802D01*
X125353901Y-58996464D01*
X125353889Y-58996461D01*
X125199245Y-58965700D01*
X125199242Y-58965700D01*
X125186551Y-58965700D01*
X125119512Y-58946015D01*
X125073757Y-58893211D01*
X125072010Y-58889199D01*
X125067794Y-58879021D01*
X124980189Y-58747911D01*
X124980186Y-58747907D01*
X124868692Y-58636413D01*
X124868688Y-58636410D01*
X124737585Y-58548809D01*
X124737572Y-58548802D01*
X124591901Y-58488464D01*
X124591889Y-58488461D01*
X124437245Y-58457700D01*
X124437242Y-58457700D01*
X124279558Y-58457700D01*
X124279555Y-58457700D01*
X124124910Y-58488461D01*
X124124898Y-58488464D01*
X123979227Y-58548802D01*
X123979214Y-58548809D01*
X123848111Y-58636410D01*
X123848107Y-58636413D01*
X123736613Y-58747907D01*
X123736610Y-58747911D01*
X123649009Y-58879014D01*
X123649002Y-58879027D01*
X123588664Y-59024698D01*
X123588661Y-59024710D01*
X123557900Y-59179353D01*
X116183900Y-59179353D01*
X116183900Y-59024913D01*
X116150646Y-58814957D01*
X116084957Y-58612788D01*
X115988451Y-58423384D01*
X115988449Y-58423381D01*
X115988448Y-58423379D01*
X115863509Y-58251413D01*
X115713186Y-58101090D01*
X115541220Y-57976151D01*
X115540515Y-57975791D01*
X115532454Y-57971685D01*
X115481659Y-57923712D01*
X115464863Y-57855892D01*
X115487399Y-57789756D01*
X115532454Y-57750715D01*
X115541216Y-57746251D01*
X115563189Y-57730286D01*
X115713186Y-57621309D01*
X115713188Y-57621306D01*
X115713192Y-57621304D01*
X115863504Y-57470992D01*
X115863506Y-57470988D01*
X115863509Y-57470986D01*
X115988448Y-57299020D01*
X115988447Y-57299020D01*
X115988451Y-57299016D01*
X116084957Y-57109612D01*
X116150646Y-56907443D01*
X116183900Y-56697487D01*
X116183900Y-56484913D01*
X116150646Y-56274957D01*
X116084957Y-56072788D01*
X115988451Y-55883384D01*
X115988449Y-55883381D01*
X115988448Y-55883379D01*
X115863509Y-55711413D01*
X115775449Y-55623353D01*
X125974900Y-55623353D01*
X125974900Y-55781046D01*
X126005661Y-55935689D01*
X126005664Y-55935701D01*
X126066002Y-56081372D01*
X126066009Y-56081385D01*
X126153610Y-56212488D01*
X126153613Y-56212492D01*
X126265107Y-56323986D01*
X126265111Y-56323989D01*
X126396214Y-56411590D01*
X126396227Y-56411597D01*
X126518842Y-56462385D01*
X126541903Y-56471937D01*
X126696553Y-56502699D01*
X126696556Y-56502700D01*
X126696558Y-56502700D01*
X126854244Y-56502700D01*
X126854245Y-56502699D01*
X127008897Y-56471937D01*
X127154579Y-56411594D01*
X127285689Y-56323989D01*
X127397189Y-56212489D01*
X127484794Y-56081379D01*
X127488353Y-56072788D01*
X127516699Y-56004353D01*
X136765900Y-56004353D01*
X136765900Y-56162046D01*
X136796661Y-56316689D01*
X136796664Y-56316701D01*
X136857002Y-56462372D01*
X136857009Y-56462385D01*
X136944610Y-56593488D01*
X136944613Y-56593492D01*
X137056107Y-56704986D01*
X137056111Y-56704989D01*
X137187214Y-56792590D01*
X137187227Y-56792597D01*
X137332898Y-56852935D01*
X137332903Y-56852937D01*
X137487553Y-56883699D01*
X137487556Y-56883700D01*
X137487558Y-56883700D01*
X137645244Y-56883700D01*
X137645245Y-56883699D01*
X137799897Y-56852937D01*
X137945579Y-56792594D01*
X138076689Y-56704989D01*
X138188189Y-56593489D01*
X138275794Y-56462379D01*
X138336137Y-56316697D01*
X138366900Y-56162042D01*
X138366900Y-56004358D01*
X138366900Y-56004355D01*
X138366899Y-56004353D01*
X138353241Y-55935689D01*
X138336137Y-55849703D01*
X138326898Y-55827397D01*
X138275797Y-55704027D01*
X138275790Y-55704014D01*
X138188189Y-55572911D01*
X138188186Y-55572907D01*
X138076692Y-55461413D01*
X138076688Y-55461410D01*
X137945585Y-55373809D01*
X137945572Y-55373802D01*
X137799901Y-55313464D01*
X137799889Y-55313461D01*
X137645245Y-55282700D01*
X137645242Y-55282700D01*
X137487558Y-55282700D01*
X137487555Y-55282700D01*
X137332910Y-55313461D01*
X137332898Y-55313464D01*
X137187227Y-55373802D01*
X137187214Y-55373809D01*
X137056111Y-55461410D01*
X137056107Y-55461413D01*
X136944613Y-55572907D01*
X136944610Y-55572911D01*
X136857009Y-55704014D01*
X136857002Y-55704027D01*
X136796664Y-55849698D01*
X136796661Y-55849710D01*
X136765900Y-56004353D01*
X127516699Y-56004353D01*
X127545135Y-55935701D01*
X127545137Y-55935697D01*
X127575900Y-55781042D01*
X127575900Y-55623358D01*
X127575900Y-55623355D01*
X127575899Y-55623353D01*
X127565865Y-55572911D01*
X127545137Y-55468703D01*
X127529804Y-55431686D01*
X127484797Y-55323027D01*
X127484790Y-55323014D01*
X127397189Y-55191911D01*
X127397186Y-55191907D01*
X127285692Y-55080413D01*
X127285688Y-55080410D01*
X127223943Y-55039153D01*
X131330300Y-55039153D01*
X131330300Y-55196846D01*
X131361061Y-55351489D01*
X131361064Y-55351501D01*
X131421402Y-55497172D01*
X131421409Y-55497185D01*
X131509010Y-55628288D01*
X131509013Y-55628292D01*
X131620507Y-55739786D01*
X131620511Y-55739789D01*
X131751614Y-55827390D01*
X131751627Y-55827397D01*
X131886782Y-55883379D01*
X131897303Y-55887737D01*
X132051953Y-55918499D01*
X132051956Y-55918500D01*
X132051958Y-55918500D01*
X132209644Y-55918500D01*
X132209645Y-55918499D01*
X132364297Y-55887737D01*
X132369201Y-55885705D01*
X132374032Y-55883705D01*
X132509972Y-55827397D01*
X132509972Y-55827396D01*
X132509979Y-55827394D01*
X132641089Y-55739789D01*
X132752589Y-55628289D01*
X132840194Y-55497179D01*
X132900537Y-55351497D01*
X132931300Y-55196842D01*
X132931300Y-55039158D01*
X132931300Y-55039155D01*
X132931299Y-55039153D01*
X132900537Y-54884503D01*
X132891298Y-54862197D01*
X132840197Y-54738827D01*
X132840190Y-54738814D01*
X132752589Y-54607711D01*
X132752586Y-54607707D01*
X132641092Y-54496213D01*
X132641088Y-54496210D01*
X132509985Y-54408609D01*
X132509972Y-54408602D01*
X132364301Y-54348264D01*
X132364289Y-54348261D01*
X132209645Y-54317500D01*
X132209642Y-54317500D01*
X132051958Y-54317500D01*
X132051955Y-54317500D01*
X131897310Y-54348261D01*
X131897298Y-54348264D01*
X131751627Y-54408602D01*
X131751614Y-54408609D01*
X131620511Y-54496210D01*
X131620507Y-54496213D01*
X131509013Y-54607707D01*
X131509010Y-54607711D01*
X131421409Y-54738814D01*
X131421402Y-54738827D01*
X131361064Y-54884498D01*
X131361061Y-54884510D01*
X131330300Y-55039153D01*
X127223943Y-55039153D01*
X127154585Y-54992809D01*
X127154572Y-54992802D01*
X127008901Y-54932464D01*
X127008889Y-54932461D01*
X126854245Y-54901700D01*
X126854242Y-54901700D01*
X126696558Y-54901700D01*
X126696555Y-54901700D01*
X126541910Y-54932461D01*
X126541898Y-54932464D01*
X126396227Y-54992802D01*
X126396214Y-54992809D01*
X126265111Y-55080410D01*
X126265107Y-55080413D01*
X126153613Y-55191907D01*
X126153610Y-55191911D01*
X126066009Y-55323014D01*
X126066002Y-55323027D01*
X126005664Y-55468698D01*
X126005661Y-55468710D01*
X125974900Y-55623353D01*
X115775449Y-55623353D01*
X115713186Y-55561090D01*
X115541220Y-55436151D01*
X115540515Y-55435791D01*
X115532454Y-55431685D01*
X115481659Y-55383712D01*
X115464863Y-55315892D01*
X115487399Y-55249756D01*
X115532454Y-55210715D01*
X115541216Y-55206251D01*
X115563189Y-55190286D01*
X115713186Y-55081309D01*
X115713188Y-55081306D01*
X115713192Y-55081304D01*
X115863504Y-54930992D01*
X115863506Y-54930988D01*
X115863509Y-54930986D01*
X115988448Y-54759020D01*
X115988447Y-54759020D01*
X115988451Y-54759016D01*
X116084957Y-54569612D01*
X116150646Y-54367443D01*
X116183900Y-54157487D01*
X116183900Y-54073953D01*
X129018900Y-54073953D01*
X129018900Y-54231646D01*
X129049661Y-54386289D01*
X129049664Y-54386301D01*
X129110002Y-54531972D01*
X129110009Y-54531985D01*
X129197610Y-54663088D01*
X129197613Y-54663092D01*
X129309107Y-54774586D01*
X129309111Y-54774589D01*
X129440214Y-54862190D01*
X129440227Y-54862197D01*
X129576169Y-54918505D01*
X129585903Y-54922537D01*
X129740553Y-54953299D01*
X129740556Y-54953300D01*
X129740558Y-54953300D01*
X129898244Y-54953300D01*
X129898245Y-54953299D01*
X130052897Y-54922537D01*
X130057801Y-54920505D01*
X130062632Y-54918505D01*
X130198572Y-54862197D01*
X130198572Y-54862196D01*
X130198579Y-54862194D01*
X130329689Y-54774589D01*
X130441189Y-54663089D01*
X130528794Y-54531979D01*
X130589137Y-54386297D01*
X130619900Y-54231642D01*
X130619900Y-54073958D01*
X130619900Y-54073955D01*
X130619899Y-54073953D01*
X130589138Y-53919310D01*
X130589137Y-53919303D01*
X130589135Y-53919298D01*
X130528797Y-53773627D01*
X130528790Y-53773614D01*
X130441189Y-53642511D01*
X130441186Y-53642507D01*
X130329692Y-53531013D01*
X130329688Y-53531010D01*
X130198585Y-53443409D01*
X130198572Y-53443402D01*
X130052901Y-53383064D01*
X130052889Y-53383061D01*
X129898245Y-53352300D01*
X129898242Y-53352300D01*
X129740558Y-53352300D01*
X129740555Y-53352300D01*
X129585910Y-53383061D01*
X129585898Y-53383064D01*
X129440227Y-53443402D01*
X129440214Y-53443409D01*
X129309111Y-53531010D01*
X129309107Y-53531013D01*
X129197613Y-53642507D01*
X129197610Y-53642511D01*
X129110009Y-53773614D01*
X129110002Y-53773627D01*
X129049664Y-53919298D01*
X129049661Y-53919310D01*
X129018900Y-54073953D01*
X116183900Y-54073953D01*
X116183900Y-53944913D01*
X116150646Y-53734957D01*
X116084957Y-53532788D01*
X115988451Y-53343384D01*
X115988449Y-53343381D01*
X115988448Y-53343379D01*
X115863509Y-53171413D01*
X115713186Y-53021090D01*
X115541220Y-52896151D01*
X115540515Y-52895791D01*
X115532454Y-52891685D01*
X115481659Y-52843712D01*
X115464863Y-52775892D01*
X115487399Y-52709756D01*
X115532454Y-52670715D01*
X115541216Y-52666251D01*
X115563189Y-52650286D01*
X115713186Y-52541309D01*
X115713188Y-52541306D01*
X115713192Y-52541304D01*
X115863504Y-52390992D01*
X115863506Y-52390988D01*
X115863509Y-52390986D01*
X115988448Y-52219020D01*
X115988447Y-52219020D01*
X115988451Y-52219016D01*
X116084957Y-52029612D01*
X116150646Y-51827443D01*
X116183900Y-51617487D01*
X116183900Y-51404913D01*
X116150646Y-51194957D01*
X116084957Y-50992788D01*
X115988451Y-50803384D01*
X115988449Y-50803381D01*
X115988448Y-50803379D01*
X115863509Y-50631413D01*
X115713186Y-50481090D01*
X115541220Y-50356151D01*
X115540515Y-50355791D01*
X115532454Y-50351685D01*
X115481659Y-50303712D01*
X115464863Y-50235892D01*
X115487399Y-50169756D01*
X115532454Y-50130715D01*
X115541216Y-50126251D01*
X115627538Y-50063535D01*
X115713186Y-50001309D01*
X115713188Y-50001306D01*
X115713192Y-50001304D01*
X115863504Y-49850992D01*
X115863506Y-49850988D01*
X115863509Y-49850986D01*
X115988448Y-49679020D01*
X115988447Y-49679020D01*
X115988451Y-49679016D01*
X116084957Y-49489612D01*
X116150646Y-49287443D01*
X116183900Y-49077487D01*
X116183900Y-48864913D01*
X116150646Y-48654957D01*
X116084957Y-48452788D01*
X115988451Y-48263384D01*
X115988449Y-48263381D01*
X115988448Y-48263379D01*
X115863509Y-48091413D01*
X115713186Y-47941090D01*
X115541220Y-47816151D01*
X115540515Y-47815791D01*
X115532454Y-47811685D01*
X115481659Y-47763712D01*
X115464863Y-47695892D01*
X115487399Y-47629756D01*
X115532454Y-47590715D01*
X115541216Y-47586251D01*
X115628102Y-47523125D01*
X115713186Y-47461309D01*
X115713188Y-47461306D01*
X115713192Y-47461304D01*
X115863504Y-47310992D01*
X115863506Y-47310988D01*
X115863509Y-47310986D01*
X115988448Y-47139020D01*
X115988447Y-47139020D01*
X115988451Y-47139016D01*
X116084957Y-46949612D01*
X116150646Y-46747443D01*
X116183900Y-46537487D01*
X116183900Y-46324913D01*
X116150646Y-46114957D01*
X116084957Y-45912788D01*
X115988451Y-45723384D01*
X115988449Y-45723381D01*
X115988448Y-45723379D01*
X115863509Y-45551413D01*
X115713186Y-45401090D01*
X115541220Y-45276151D01*
X115540515Y-45275791D01*
X115532454Y-45271685D01*
X115481659Y-45223712D01*
X115464863Y-45155892D01*
X115487399Y-45089756D01*
X115532454Y-45050715D01*
X115541216Y-45046251D01*
X115563189Y-45030286D01*
X115713186Y-44921309D01*
X115713188Y-44921306D01*
X115713192Y-44921304D01*
X115863504Y-44770992D01*
X115863506Y-44770988D01*
X115863509Y-44770986D01*
X115988448Y-44599020D01*
X115988447Y-44599020D01*
X115988451Y-44599016D01*
X116084957Y-44409612D01*
X116150646Y-44207443D01*
X116183900Y-43997487D01*
X116183900Y-43784913D01*
X116150646Y-43574957D01*
X116084957Y-43372788D01*
X115988451Y-43183384D01*
X115988449Y-43183381D01*
X115988448Y-43183379D01*
X115863509Y-43011413D01*
X115749969Y-42897873D01*
X115716484Y-42836550D01*
X115721468Y-42766858D01*
X115763340Y-42710925D01*
X115794315Y-42694010D01*
X115925731Y-42644996D01*
X116040946Y-42558746D01*
X116127196Y-42443531D01*
X116177491Y-42308683D01*
X116183900Y-42249073D01*
X116183899Y-40453328D01*
X116177491Y-40393717D01*
X116127196Y-40258869D01*
X116127195Y-40258868D01*
X116127193Y-40258864D01*
X116040947Y-40143655D01*
X116040944Y-40143652D01*
X115925735Y-40057406D01*
X115925728Y-40057402D01*
X115790882Y-40007108D01*
X115790883Y-40007108D01*
X115731283Y-40000701D01*
X115731281Y-40000700D01*
X115731273Y-40000700D01*
X115731264Y-40000700D01*
X113935529Y-40000700D01*
X113935523Y-40000701D01*
X113875916Y-40007108D01*
X113741071Y-40057402D01*
X113741064Y-40057406D01*
X113625855Y-40143652D01*
X113625852Y-40143655D01*
X113539606Y-40258864D01*
X113539602Y-40258871D01*
X113489308Y-40393717D01*
X113482901Y-40453316D01*
X113482901Y-40453323D01*
X113482900Y-40453335D01*
X108563899Y-40453335D01*
X108563899Y-40453328D01*
X108557491Y-40393717D01*
X108507196Y-40258869D01*
X108507195Y-40258868D01*
X108507193Y-40258864D01*
X108420947Y-40143655D01*
X108420944Y-40143652D01*
X108305735Y-40057406D01*
X108305728Y-40057402D01*
X108170882Y-40007108D01*
X108170883Y-40007108D01*
X108111283Y-40000701D01*
X108111281Y-40000700D01*
X108111273Y-40000700D01*
X108111264Y-40000700D01*
X106315529Y-40000700D01*
X106315523Y-40000701D01*
X106255916Y-40007108D01*
X106121071Y-40057402D01*
X106121064Y-40057406D01*
X106005855Y-40143652D01*
X106005852Y-40143655D01*
X105919606Y-40258864D01*
X105919602Y-40258871D01*
X105869308Y-40393717D01*
X105862901Y-40453316D01*
X105862901Y-40453323D01*
X105862900Y-40453335D01*
X105173900Y-40453335D01*
X105173900Y-40087292D01*
X105174497Y-40075138D01*
X105174497Y-40075137D01*
X105187489Y-39943222D01*
X105192228Y-39919400D01*
X105228932Y-39798402D01*
X105238230Y-39775957D01*
X105297827Y-39664459D01*
X105311330Y-39644250D01*
X105391537Y-39546516D01*
X105408716Y-39529337D01*
X105506452Y-39449128D01*
X105526661Y-39435626D01*
X105638157Y-39376030D01*
X105660602Y-39366732D01*
X105781600Y-39330028D01*
X105805424Y-39325289D01*
X105937339Y-39312297D01*
X105949493Y-39311700D01*
X106009292Y-39311700D01*
X117307508Y-39311700D01*
X117367307Y-39311700D01*
X117379461Y-39312297D01*
G37*
G04 #@! TD.AperFunction*
M02*
