G04 #@! TF.GenerationSoftware,KiCad,Pcbnew,7.0.9*
G04 #@! TF.CreationDate,2024-06-30T23:03:44+02:00*
G04 #@! TF.ProjectId,simm72_rom_2M55,73696d6d-3732-45f7-926f-6d5f324d3535,A0*
G04 #@! TF.SameCoordinates,Original*
G04 #@! TF.FileFunction,Legend,Top*
G04 #@! TF.FilePolarity,Positive*
%FSLAX46Y46*%
G04 Gerber Fmt 4.6, Leading zero omitted, Abs format (unit mm)*
G04 Created by KiCad (PCBNEW 7.0.9) date 2024-06-30 23:03:44*
%MOMM*%
%LPD*%
G01*
G04 APERTURE LIST*
%ADD10C,0.150000*%
%ADD11C,0.120000*%
%ADD12R,1.040000X2.540000*%
%ADD13R,1.422400X1.422400*%
%ADD14C,1.422400*%
G04 APERTURE END LIST*
D10*
G36*
X155034154Y-85025495D02*
G01*
X154740330Y-85137358D01*
X155034154Y-85249710D01*
X155034154Y-85893534D01*
X154530037Y-86061573D01*
X154530037Y-85389417D01*
X154365173Y-85333729D01*
X154365173Y-86117749D01*
X153861789Y-86313632D01*
X153861789Y-84577554D01*
X154365173Y-84577554D01*
X154365173Y-84941475D01*
X154530037Y-84885300D01*
X154530037Y-84577554D01*
X154365173Y-84577554D01*
X153861789Y-84577554D01*
X153861789Y-84269319D01*
X155034154Y-84269319D01*
X155034154Y-85025495D01*
G37*
G36*
X156376513Y-85895000D02*
G01*
X155204147Y-85895000D01*
X155204147Y-84577554D01*
X155707532Y-84577554D01*
X155707532Y-85586765D01*
X155872396Y-85586765D01*
X155872396Y-84577554D01*
X155707532Y-84577554D01*
X155204147Y-84577554D01*
X155204147Y-84269319D01*
X156376513Y-84269319D01*
X156376513Y-85895000D01*
G37*
G36*
X156546506Y-85893534D02*
G01*
X156546506Y-84269319D01*
X158387120Y-84269319D01*
X158387120Y-85893534D01*
X157883003Y-85893534D01*
X157883003Y-84577554D01*
X157718872Y-84577554D01*
X157718872Y-85893534D01*
X157214755Y-85893534D01*
X157214755Y-84577554D01*
X157049891Y-84577554D01*
X157049891Y-85893534D01*
X156546506Y-85893534D01*
G37*
G36*
X52799154Y-85152495D02*
G01*
X52505330Y-85264358D01*
X52799154Y-85376710D01*
X52799154Y-86020534D01*
X52295037Y-86188573D01*
X52295037Y-85516417D01*
X52130173Y-85460729D01*
X52130173Y-86244749D01*
X51626789Y-86440632D01*
X51626789Y-84704554D01*
X52130173Y-84704554D01*
X52130173Y-85068475D01*
X52295037Y-85012300D01*
X52295037Y-84704554D01*
X52130173Y-84704554D01*
X51626789Y-84704554D01*
X51626789Y-84396319D01*
X52799154Y-84396319D01*
X52799154Y-85152495D01*
G37*
G36*
X52969147Y-85012788D02*
G01*
X53472532Y-84816905D01*
X53472532Y-85713765D01*
X53637396Y-85713765D01*
X53637396Y-84704554D01*
X52965484Y-84704554D01*
X52965484Y-84396319D01*
X54141513Y-84396319D01*
X54141513Y-86022000D01*
X52969147Y-86022000D01*
X52969147Y-85012788D01*
G37*
G36*
X54311506Y-84397785D02*
G01*
X54814891Y-84397785D01*
X54814891Y-85769941D01*
X54979755Y-85713765D01*
X54979755Y-84397785D01*
X55483872Y-84397785D01*
X55483872Y-85881804D01*
X54311506Y-86301902D01*
X54311506Y-84397785D01*
G37*
G36*
X56826230Y-85405531D02*
G01*
X56322113Y-85629745D01*
X56322113Y-84704554D01*
X56157249Y-84704554D01*
X56157249Y-85713765D01*
X56829894Y-85713765D01*
X56829894Y-86022000D01*
X55653865Y-86022000D01*
X55653865Y-84396319D01*
X56826230Y-84396319D01*
X56826230Y-85405531D01*
G37*
G36*
X58168589Y-86020534D02*
G01*
X57664472Y-86020534D01*
X57664472Y-84704554D01*
X57499608Y-84704554D01*
X57499608Y-86020534D01*
X56996224Y-86020534D01*
X56996224Y-84396319D01*
X58168589Y-84396319D01*
X58168589Y-86020534D01*
G37*
X85442857Y-87107200D02*
X85585714Y-87154819D01*
X85585714Y-87154819D02*
X85823809Y-87154819D01*
X85823809Y-87154819D02*
X85919047Y-87107200D01*
X85919047Y-87107200D02*
X85966666Y-87059580D01*
X85966666Y-87059580D02*
X86014285Y-86964342D01*
X86014285Y-86964342D02*
X86014285Y-86869104D01*
X86014285Y-86869104D02*
X85966666Y-86773866D01*
X85966666Y-86773866D02*
X85919047Y-86726247D01*
X85919047Y-86726247D02*
X85823809Y-86678628D01*
X85823809Y-86678628D02*
X85633333Y-86631009D01*
X85633333Y-86631009D02*
X85538095Y-86583390D01*
X85538095Y-86583390D02*
X85490476Y-86535771D01*
X85490476Y-86535771D02*
X85442857Y-86440533D01*
X85442857Y-86440533D02*
X85442857Y-86345295D01*
X85442857Y-86345295D02*
X85490476Y-86250057D01*
X85490476Y-86250057D02*
X85538095Y-86202438D01*
X85538095Y-86202438D02*
X85633333Y-86154819D01*
X85633333Y-86154819D02*
X85871428Y-86154819D01*
X85871428Y-86154819D02*
X86014285Y-86202438D01*
X86395238Y-87107200D02*
X86538095Y-87154819D01*
X86538095Y-87154819D02*
X86776190Y-87154819D01*
X86776190Y-87154819D02*
X86871428Y-87107200D01*
X86871428Y-87107200D02*
X86919047Y-87059580D01*
X86919047Y-87059580D02*
X86966666Y-86964342D01*
X86966666Y-86964342D02*
X86966666Y-86869104D01*
X86966666Y-86869104D02*
X86919047Y-86773866D01*
X86919047Y-86773866D02*
X86871428Y-86726247D01*
X86871428Y-86726247D02*
X86776190Y-86678628D01*
X86776190Y-86678628D02*
X86585714Y-86631009D01*
X86585714Y-86631009D02*
X86490476Y-86583390D01*
X86490476Y-86583390D02*
X86442857Y-86535771D01*
X86442857Y-86535771D02*
X86395238Y-86440533D01*
X86395238Y-86440533D02*
X86395238Y-86345295D01*
X86395238Y-86345295D02*
X86442857Y-86250057D01*
X86442857Y-86250057D02*
X86490476Y-86202438D01*
X86490476Y-86202438D02*
X86585714Y-86154819D01*
X86585714Y-86154819D02*
X86823809Y-86154819D01*
X86823809Y-86154819D02*
X86966666Y-86202438D01*
X87252381Y-86154819D02*
X87823809Y-86154819D01*
X87538095Y-87154819D02*
X87538095Y-86154819D01*
X88061905Y-86154819D02*
X88680952Y-86154819D01*
X88680952Y-86154819D02*
X88347619Y-86535771D01*
X88347619Y-86535771D02*
X88490476Y-86535771D01*
X88490476Y-86535771D02*
X88585714Y-86583390D01*
X88585714Y-86583390D02*
X88633333Y-86631009D01*
X88633333Y-86631009D02*
X88680952Y-86726247D01*
X88680952Y-86726247D02*
X88680952Y-86964342D01*
X88680952Y-86964342D02*
X88633333Y-87059580D01*
X88633333Y-87059580D02*
X88585714Y-87107200D01*
X88585714Y-87107200D02*
X88490476Y-87154819D01*
X88490476Y-87154819D02*
X88204762Y-87154819D01*
X88204762Y-87154819D02*
X88109524Y-87107200D01*
X88109524Y-87107200D02*
X88061905Y-87059580D01*
X89157143Y-87154819D02*
X89347619Y-87154819D01*
X89347619Y-87154819D02*
X89442857Y-87107200D01*
X89442857Y-87107200D02*
X89490476Y-87059580D01*
X89490476Y-87059580D02*
X89585714Y-86916723D01*
X89585714Y-86916723D02*
X89633333Y-86726247D01*
X89633333Y-86726247D02*
X89633333Y-86345295D01*
X89633333Y-86345295D02*
X89585714Y-86250057D01*
X89585714Y-86250057D02*
X89538095Y-86202438D01*
X89538095Y-86202438D02*
X89442857Y-86154819D01*
X89442857Y-86154819D02*
X89252381Y-86154819D01*
X89252381Y-86154819D02*
X89157143Y-86202438D01*
X89157143Y-86202438D02*
X89109524Y-86250057D01*
X89109524Y-86250057D02*
X89061905Y-86345295D01*
X89061905Y-86345295D02*
X89061905Y-86583390D01*
X89061905Y-86583390D02*
X89109524Y-86678628D01*
X89109524Y-86678628D02*
X89157143Y-86726247D01*
X89157143Y-86726247D02*
X89252381Y-86773866D01*
X89252381Y-86773866D02*
X89442857Y-86773866D01*
X89442857Y-86773866D02*
X89538095Y-86726247D01*
X89538095Y-86726247D02*
X89585714Y-86678628D01*
X89585714Y-86678628D02*
X89633333Y-86583390D01*
X90538095Y-87154819D02*
X90061905Y-87154819D01*
X90061905Y-87154819D02*
X90061905Y-86154819D01*
X91204762Y-86631009D02*
X90871429Y-86631009D01*
X90871429Y-87154819D02*
X90871429Y-86154819D01*
X90871429Y-86154819D02*
X91347619Y-86154819D01*
X91919048Y-86154819D02*
X92014286Y-86154819D01*
X92014286Y-86154819D02*
X92109524Y-86202438D01*
X92109524Y-86202438D02*
X92157143Y-86250057D01*
X92157143Y-86250057D02*
X92204762Y-86345295D01*
X92204762Y-86345295D02*
X92252381Y-86535771D01*
X92252381Y-86535771D02*
X92252381Y-86773866D01*
X92252381Y-86773866D02*
X92204762Y-86964342D01*
X92204762Y-86964342D02*
X92157143Y-87059580D01*
X92157143Y-87059580D02*
X92109524Y-87107200D01*
X92109524Y-87107200D02*
X92014286Y-87154819D01*
X92014286Y-87154819D02*
X91919048Y-87154819D01*
X91919048Y-87154819D02*
X91823810Y-87107200D01*
X91823810Y-87107200D02*
X91776191Y-87059580D01*
X91776191Y-87059580D02*
X91728572Y-86964342D01*
X91728572Y-86964342D02*
X91680953Y-86773866D01*
X91680953Y-86773866D02*
X91680953Y-86535771D01*
X91680953Y-86535771D02*
X91728572Y-86345295D01*
X91728572Y-86345295D02*
X91776191Y-86250057D01*
X91776191Y-86250057D02*
X91823810Y-86202438D01*
X91823810Y-86202438D02*
X91919048Y-86154819D01*
X93109524Y-86488152D02*
X93109524Y-87154819D01*
X92871429Y-86107200D02*
X92633334Y-86821485D01*
X92633334Y-86821485D02*
X93252381Y-86821485D01*
X93823810Y-86154819D02*
X93919048Y-86154819D01*
X93919048Y-86154819D02*
X94014286Y-86202438D01*
X94014286Y-86202438D02*
X94061905Y-86250057D01*
X94061905Y-86250057D02*
X94109524Y-86345295D01*
X94109524Y-86345295D02*
X94157143Y-86535771D01*
X94157143Y-86535771D02*
X94157143Y-86773866D01*
X94157143Y-86773866D02*
X94109524Y-86964342D01*
X94109524Y-86964342D02*
X94061905Y-87059580D01*
X94061905Y-87059580D02*
X94014286Y-87107200D01*
X94014286Y-87107200D02*
X93919048Y-87154819D01*
X93919048Y-87154819D02*
X93823810Y-87154819D01*
X93823810Y-87154819D02*
X93728572Y-87107200D01*
X93728572Y-87107200D02*
X93680953Y-87059580D01*
X93680953Y-87059580D02*
X93633334Y-86964342D01*
X93633334Y-86964342D02*
X93585715Y-86773866D01*
X93585715Y-86773866D02*
X93585715Y-86535771D01*
X93585715Y-86535771D02*
X93633334Y-86345295D01*
X93633334Y-86345295D02*
X93680953Y-86250057D01*
X93680953Y-86250057D02*
X93728572Y-86202438D01*
X93728572Y-86202438D02*
X93823810Y-86154819D01*
X129642857Y-87207200D02*
X129785714Y-87254819D01*
X129785714Y-87254819D02*
X130023809Y-87254819D01*
X130023809Y-87254819D02*
X130119047Y-87207200D01*
X130119047Y-87207200D02*
X130166666Y-87159580D01*
X130166666Y-87159580D02*
X130214285Y-87064342D01*
X130214285Y-87064342D02*
X130214285Y-86969104D01*
X130214285Y-86969104D02*
X130166666Y-86873866D01*
X130166666Y-86873866D02*
X130119047Y-86826247D01*
X130119047Y-86826247D02*
X130023809Y-86778628D01*
X130023809Y-86778628D02*
X129833333Y-86731009D01*
X129833333Y-86731009D02*
X129738095Y-86683390D01*
X129738095Y-86683390D02*
X129690476Y-86635771D01*
X129690476Y-86635771D02*
X129642857Y-86540533D01*
X129642857Y-86540533D02*
X129642857Y-86445295D01*
X129642857Y-86445295D02*
X129690476Y-86350057D01*
X129690476Y-86350057D02*
X129738095Y-86302438D01*
X129738095Y-86302438D02*
X129833333Y-86254819D01*
X129833333Y-86254819D02*
X130071428Y-86254819D01*
X130071428Y-86254819D02*
X130214285Y-86302438D01*
X130595238Y-87207200D02*
X130738095Y-87254819D01*
X130738095Y-87254819D02*
X130976190Y-87254819D01*
X130976190Y-87254819D02*
X131071428Y-87207200D01*
X131071428Y-87207200D02*
X131119047Y-87159580D01*
X131119047Y-87159580D02*
X131166666Y-87064342D01*
X131166666Y-87064342D02*
X131166666Y-86969104D01*
X131166666Y-86969104D02*
X131119047Y-86873866D01*
X131119047Y-86873866D02*
X131071428Y-86826247D01*
X131071428Y-86826247D02*
X130976190Y-86778628D01*
X130976190Y-86778628D02*
X130785714Y-86731009D01*
X130785714Y-86731009D02*
X130690476Y-86683390D01*
X130690476Y-86683390D02*
X130642857Y-86635771D01*
X130642857Y-86635771D02*
X130595238Y-86540533D01*
X130595238Y-86540533D02*
X130595238Y-86445295D01*
X130595238Y-86445295D02*
X130642857Y-86350057D01*
X130642857Y-86350057D02*
X130690476Y-86302438D01*
X130690476Y-86302438D02*
X130785714Y-86254819D01*
X130785714Y-86254819D02*
X131023809Y-86254819D01*
X131023809Y-86254819D02*
X131166666Y-86302438D01*
X131452381Y-86254819D02*
X132023809Y-86254819D01*
X131738095Y-87254819D02*
X131738095Y-86254819D01*
X132261905Y-86254819D02*
X132880952Y-86254819D01*
X132880952Y-86254819D02*
X132547619Y-86635771D01*
X132547619Y-86635771D02*
X132690476Y-86635771D01*
X132690476Y-86635771D02*
X132785714Y-86683390D01*
X132785714Y-86683390D02*
X132833333Y-86731009D01*
X132833333Y-86731009D02*
X132880952Y-86826247D01*
X132880952Y-86826247D02*
X132880952Y-87064342D01*
X132880952Y-87064342D02*
X132833333Y-87159580D01*
X132833333Y-87159580D02*
X132785714Y-87207200D01*
X132785714Y-87207200D02*
X132690476Y-87254819D01*
X132690476Y-87254819D02*
X132404762Y-87254819D01*
X132404762Y-87254819D02*
X132309524Y-87207200D01*
X132309524Y-87207200D02*
X132261905Y-87159580D01*
X133357143Y-87254819D02*
X133547619Y-87254819D01*
X133547619Y-87254819D02*
X133642857Y-87207200D01*
X133642857Y-87207200D02*
X133690476Y-87159580D01*
X133690476Y-87159580D02*
X133785714Y-87016723D01*
X133785714Y-87016723D02*
X133833333Y-86826247D01*
X133833333Y-86826247D02*
X133833333Y-86445295D01*
X133833333Y-86445295D02*
X133785714Y-86350057D01*
X133785714Y-86350057D02*
X133738095Y-86302438D01*
X133738095Y-86302438D02*
X133642857Y-86254819D01*
X133642857Y-86254819D02*
X133452381Y-86254819D01*
X133452381Y-86254819D02*
X133357143Y-86302438D01*
X133357143Y-86302438D02*
X133309524Y-86350057D01*
X133309524Y-86350057D02*
X133261905Y-86445295D01*
X133261905Y-86445295D02*
X133261905Y-86683390D01*
X133261905Y-86683390D02*
X133309524Y-86778628D01*
X133309524Y-86778628D02*
X133357143Y-86826247D01*
X133357143Y-86826247D02*
X133452381Y-86873866D01*
X133452381Y-86873866D02*
X133642857Y-86873866D01*
X133642857Y-86873866D02*
X133738095Y-86826247D01*
X133738095Y-86826247D02*
X133785714Y-86778628D01*
X133785714Y-86778628D02*
X133833333Y-86683390D01*
X134738095Y-87254819D02*
X134261905Y-87254819D01*
X134261905Y-87254819D02*
X134261905Y-86254819D01*
X135404762Y-86731009D02*
X135071429Y-86731009D01*
X135071429Y-87254819D02*
X135071429Y-86254819D01*
X135071429Y-86254819D02*
X135547619Y-86254819D01*
X136119048Y-86254819D02*
X136214286Y-86254819D01*
X136214286Y-86254819D02*
X136309524Y-86302438D01*
X136309524Y-86302438D02*
X136357143Y-86350057D01*
X136357143Y-86350057D02*
X136404762Y-86445295D01*
X136404762Y-86445295D02*
X136452381Y-86635771D01*
X136452381Y-86635771D02*
X136452381Y-86873866D01*
X136452381Y-86873866D02*
X136404762Y-87064342D01*
X136404762Y-87064342D02*
X136357143Y-87159580D01*
X136357143Y-87159580D02*
X136309524Y-87207200D01*
X136309524Y-87207200D02*
X136214286Y-87254819D01*
X136214286Y-87254819D02*
X136119048Y-87254819D01*
X136119048Y-87254819D02*
X136023810Y-87207200D01*
X136023810Y-87207200D02*
X135976191Y-87159580D01*
X135976191Y-87159580D02*
X135928572Y-87064342D01*
X135928572Y-87064342D02*
X135880953Y-86873866D01*
X135880953Y-86873866D02*
X135880953Y-86635771D01*
X135880953Y-86635771D02*
X135928572Y-86445295D01*
X135928572Y-86445295D02*
X135976191Y-86350057D01*
X135976191Y-86350057D02*
X136023810Y-86302438D01*
X136023810Y-86302438D02*
X136119048Y-86254819D01*
X137309524Y-86588152D02*
X137309524Y-87254819D01*
X137071429Y-86207200D02*
X136833334Y-86921485D01*
X136833334Y-86921485D02*
X137452381Y-86921485D01*
X138023810Y-86254819D02*
X138119048Y-86254819D01*
X138119048Y-86254819D02*
X138214286Y-86302438D01*
X138214286Y-86302438D02*
X138261905Y-86350057D01*
X138261905Y-86350057D02*
X138309524Y-86445295D01*
X138309524Y-86445295D02*
X138357143Y-86635771D01*
X138357143Y-86635771D02*
X138357143Y-86873866D01*
X138357143Y-86873866D02*
X138309524Y-87064342D01*
X138309524Y-87064342D02*
X138261905Y-87159580D01*
X138261905Y-87159580D02*
X138214286Y-87207200D01*
X138214286Y-87207200D02*
X138119048Y-87254819D01*
X138119048Y-87254819D02*
X138023810Y-87254819D01*
X138023810Y-87254819D02*
X137928572Y-87207200D01*
X137928572Y-87207200D02*
X137880953Y-87159580D01*
X137880953Y-87159580D02*
X137833334Y-87064342D01*
X137833334Y-87064342D02*
X137785715Y-86873866D01*
X137785715Y-86873866D02*
X137785715Y-86635771D01*
X137785715Y-86635771D02*
X137833334Y-86445295D01*
X137833334Y-86445295D02*
X137880953Y-86350057D01*
X137880953Y-86350057D02*
X137928572Y-86302438D01*
X137928572Y-86302438D02*
X138023810Y-86254819D01*
X63542857Y-87107200D02*
X63685714Y-87154819D01*
X63685714Y-87154819D02*
X63923809Y-87154819D01*
X63923809Y-87154819D02*
X64019047Y-87107200D01*
X64019047Y-87107200D02*
X64066666Y-87059580D01*
X64066666Y-87059580D02*
X64114285Y-86964342D01*
X64114285Y-86964342D02*
X64114285Y-86869104D01*
X64114285Y-86869104D02*
X64066666Y-86773866D01*
X64066666Y-86773866D02*
X64019047Y-86726247D01*
X64019047Y-86726247D02*
X63923809Y-86678628D01*
X63923809Y-86678628D02*
X63733333Y-86631009D01*
X63733333Y-86631009D02*
X63638095Y-86583390D01*
X63638095Y-86583390D02*
X63590476Y-86535771D01*
X63590476Y-86535771D02*
X63542857Y-86440533D01*
X63542857Y-86440533D02*
X63542857Y-86345295D01*
X63542857Y-86345295D02*
X63590476Y-86250057D01*
X63590476Y-86250057D02*
X63638095Y-86202438D01*
X63638095Y-86202438D02*
X63733333Y-86154819D01*
X63733333Y-86154819D02*
X63971428Y-86154819D01*
X63971428Y-86154819D02*
X64114285Y-86202438D01*
X64495238Y-87107200D02*
X64638095Y-87154819D01*
X64638095Y-87154819D02*
X64876190Y-87154819D01*
X64876190Y-87154819D02*
X64971428Y-87107200D01*
X64971428Y-87107200D02*
X65019047Y-87059580D01*
X65019047Y-87059580D02*
X65066666Y-86964342D01*
X65066666Y-86964342D02*
X65066666Y-86869104D01*
X65066666Y-86869104D02*
X65019047Y-86773866D01*
X65019047Y-86773866D02*
X64971428Y-86726247D01*
X64971428Y-86726247D02*
X64876190Y-86678628D01*
X64876190Y-86678628D02*
X64685714Y-86631009D01*
X64685714Y-86631009D02*
X64590476Y-86583390D01*
X64590476Y-86583390D02*
X64542857Y-86535771D01*
X64542857Y-86535771D02*
X64495238Y-86440533D01*
X64495238Y-86440533D02*
X64495238Y-86345295D01*
X64495238Y-86345295D02*
X64542857Y-86250057D01*
X64542857Y-86250057D02*
X64590476Y-86202438D01*
X64590476Y-86202438D02*
X64685714Y-86154819D01*
X64685714Y-86154819D02*
X64923809Y-86154819D01*
X64923809Y-86154819D02*
X65066666Y-86202438D01*
X65352381Y-86154819D02*
X65923809Y-86154819D01*
X65638095Y-87154819D02*
X65638095Y-86154819D01*
X66161905Y-86154819D02*
X66780952Y-86154819D01*
X66780952Y-86154819D02*
X66447619Y-86535771D01*
X66447619Y-86535771D02*
X66590476Y-86535771D01*
X66590476Y-86535771D02*
X66685714Y-86583390D01*
X66685714Y-86583390D02*
X66733333Y-86631009D01*
X66733333Y-86631009D02*
X66780952Y-86726247D01*
X66780952Y-86726247D02*
X66780952Y-86964342D01*
X66780952Y-86964342D02*
X66733333Y-87059580D01*
X66733333Y-87059580D02*
X66685714Y-87107200D01*
X66685714Y-87107200D02*
X66590476Y-87154819D01*
X66590476Y-87154819D02*
X66304762Y-87154819D01*
X66304762Y-87154819D02*
X66209524Y-87107200D01*
X66209524Y-87107200D02*
X66161905Y-87059580D01*
X67257143Y-87154819D02*
X67447619Y-87154819D01*
X67447619Y-87154819D02*
X67542857Y-87107200D01*
X67542857Y-87107200D02*
X67590476Y-87059580D01*
X67590476Y-87059580D02*
X67685714Y-86916723D01*
X67685714Y-86916723D02*
X67733333Y-86726247D01*
X67733333Y-86726247D02*
X67733333Y-86345295D01*
X67733333Y-86345295D02*
X67685714Y-86250057D01*
X67685714Y-86250057D02*
X67638095Y-86202438D01*
X67638095Y-86202438D02*
X67542857Y-86154819D01*
X67542857Y-86154819D02*
X67352381Y-86154819D01*
X67352381Y-86154819D02*
X67257143Y-86202438D01*
X67257143Y-86202438D02*
X67209524Y-86250057D01*
X67209524Y-86250057D02*
X67161905Y-86345295D01*
X67161905Y-86345295D02*
X67161905Y-86583390D01*
X67161905Y-86583390D02*
X67209524Y-86678628D01*
X67209524Y-86678628D02*
X67257143Y-86726247D01*
X67257143Y-86726247D02*
X67352381Y-86773866D01*
X67352381Y-86773866D02*
X67542857Y-86773866D01*
X67542857Y-86773866D02*
X67638095Y-86726247D01*
X67638095Y-86726247D02*
X67685714Y-86678628D01*
X67685714Y-86678628D02*
X67733333Y-86583390D01*
X68638095Y-87154819D02*
X68161905Y-87154819D01*
X68161905Y-87154819D02*
X68161905Y-86154819D01*
X69304762Y-86631009D02*
X68971429Y-86631009D01*
X68971429Y-87154819D02*
X68971429Y-86154819D01*
X68971429Y-86154819D02*
X69447619Y-86154819D01*
X70019048Y-86154819D02*
X70114286Y-86154819D01*
X70114286Y-86154819D02*
X70209524Y-86202438D01*
X70209524Y-86202438D02*
X70257143Y-86250057D01*
X70257143Y-86250057D02*
X70304762Y-86345295D01*
X70304762Y-86345295D02*
X70352381Y-86535771D01*
X70352381Y-86535771D02*
X70352381Y-86773866D01*
X70352381Y-86773866D02*
X70304762Y-86964342D01*
X70304762Y-86964342D02*
X70257143Y-87059580D01*
X70257143Y-87059580D02*
X70209524Y-87107200D01*
X70209524Y-87107200D02*
X70114286Y-87154819D01*
X70114286Y-87154819D02*
X70019048Y-87154819D01*
X70019048Y-87154819D02*
X69923810Y-87107200D01*
X69923810Y-87107200D02*
X69876191Y-87059580D01*
X69876191Y-87059580D02*
X69828572Y-86964342D01*
X69828572Y-86964342D02*
X69780953Y-86773866D01*
X69780953Y-86773866D02*
X69780953Y-86535771D01*
X69780953Y-86535771D02*
X69828572Y-86345295D01*
X69828572Y-86345295D02*
X69876191Y-86250057D01*
X69876191Y-86250057D02*
X69923810Y-86202438D01*
X69923810Y-86202438D02*
X70019048Y-86154819D01*
X71209524Y-86488152D02*
X71209524Y-87154819D01*
X70971429Y-86107200D02*
X70733334Y-86821485D01*
X70733334Y-86821485D02*
X71352381Y-86821485D01*
X71923810Y-86154819D02*
X72019048Y-86154819D01*
X72019048Y-86154819D02*
X72114286Y-86202438D01*
X72114286Y-86202438D02*
X72161905Y-86250057D01*
X72161905Y-86250057D02*
X72209524Y-86345295D01*
X72209524Y-86345295D02*
X72257143Y-86535771D01*
X72257143Y-86535771D02*
X72257143Y-86773866D01*
X72257143Y-86773866D02*
X72209524Y-86964342D01*
X72209524Y-86964342D02*
X72161905Y-87059580D01*
X72161905Y-87059580D02*
X72114286Y-87107200D01*
X72114286Y-87107200D02*
X72019048Y-87154819D01*
X72019048Y-87154819D02*
X71923810Y-87154819D01*
X71923810Y-87154819D02*
X71828572Y-87107200D01*
X71828572Y-87107200D02*
X71780953Y-87059580D01*
X71780953Y-87059580D02*
X71733334Y-86964342D01*
X71733334Y-86964342D02*
X71685715Y-86773866D01*
X71685715Y-86773866D02*
X71685715Y-86535771D01*
X71685715Y-86535771D02*
X71733334Y-86345295D01*
X71733334Y-86345295D02*
X71780953Y-86250057D01*
X71780953Y-86250057D02*
X71828572Y-86202438D01*
X71828572Y-86202438D02*
X71923810Y-86154819D01*
X107642857Y-87007200D02*
X107785714Y-87054819D01*
X107785714Y-87054819D02*
X108023809Y-87054819D01*
X108023809Y-87054819D02*
X108119047Y-87007200D01*
X108119047Y-87007200D02*
X108166666Y-86959580D01*
X108166666Y-86959580D02*
X108214285Y-86864342D01*
X108214285Y-86864342D02*
X108214285Y-86769104D01*
X108214285Y-86769104D02*
X108166666Y-86673866D01*
X108166666Y-86673866D02*
X108119047Y-86626247D01*
X108119047Y-86626247D02*
X108023809Y-86578628D01*
X108023809Y-86578628D02*
X107833333Y-86531009D01*
X107833333Y-86531009D02*
X107738095Y-86483390D01*
X107738095Y-86483390D02*
X107690476Y-86435771D01*
X107690476Y-86435771D02*
X107642857Y-86340533D01*
X107642857Y-86340533D02*
X107642857Y-86245295D01*
X107642857Y-86245295D02*
X107690476Y-86150057D01*
X107690476Y-86150057D02*
X107738095Y-86102438D01*
X107738095Y-86102438D02*
X107833333Y-86054819D01*
X107833333Y-86054819D02*
X108071428Y-86054819D01*
X108071428Y-86054819D02*
X108214285Y-86102438D01*
X108595238Y-87007200D02*
X108738095Y-87054819D01*
X108738095Y-87054819D02*
X108976190Y-87054819D01*
X108976190Y-87054819D02*
X109071428Y-87007200D01*
X109071428Y-87007200D02*
X109119047Y-86959580D01*
X109119047Y-86959580D02*
X109166666Y-86864342D01*
X109166666Y-86864342D02*
X109166666Y-86769104D01*
X109166666Y-86769104D02*
X109119047Y-86673866D01*
X109119047Y-86673866D02*
X109071428Y-86626247D01*
X109071428Y-86626247D02*
X108976190Y-86578628D01*
X108976190Y-86578628D02*
X108785714Y-86531009D01*
X108785714Y-86531009D02*
X108690476Y-86483390D01*
X108690476Y-86483390D02*
X108642857Y-86435771D01*
X108642857Y-86435771D02*
X108595238Y-86340533D01*
X108595238Y-86340533D02*
X108595238Y-86245295D01*
X108595238Y-86245295D02*
X108642857Y-86150057D01*
X108642857Y-86150057D02*
X108690476Y-86102438D01*
X108690476Y-86102438D02*
X108785714Y-86054819D01*
X108785714Y-86054819D02*
X109023809Y-86054819D01*
X109023809Y-86054819D02*
X109166666Y-86102438D01*
X109452381Y-86054819D02*
X110023809Y-86054819D01*
X109738095Y-87054819D02*
X109738095Y-86054819D01*
X110261905Y-86054819D02*
X110880952Y-86054819D01*
X110880952Y-86054819D02*
X110547619Y-86435771D01*
X110547619Y-86435771D02*
X110690476Y-86435771D01*
X110690476Y-86435771D02*
X110785714Y-86483390D01*
X110785714Y-86483390D02*
X110833333Y-86531009D01*
X110833333Y-86531009D02*
X110880952Y-86626247D01*
X110880952Y-86626247D02*
X110880952Y-86864342D01*
X110880952Y-86864342D02*
X110833333Y-86959580D01*
X110833333Y-86959580D02*
X110785714Y-87007200D01*
X110785714Y-87007200D02*
X110690476Y-87054819D01*
X110690476Y-87054819D02*
X110404762Y-87054819D01*
X110404762Y-87054819D02*
X110309524Y-87007200D01*
X110309524Y-87007200D02*
X110261905Y-86959580D01*
X111357143Y-87054819D02*
X111547619Y-87054819D01*
X111547619Y-87054819D02*
X111642857Y-87007200D01*
X111642857Y-87007200D02*
X111690476Y-86959580D01*
X111690476Y-86959580D02*
X111785714Y-86816723D01*
X111785714Y-86816723D02*
X111833333Y-86626247D01*
X111833333Y-86626247D02*
X111833333Y-86245295D01*
X111833333Y-86245295D02*
X111785714Y-86150057D01*
X111785714Y-86150057D02*
X111738095Y-86102438D01*
X111738095Y-86102438D02*
X111642857Y-86054819D01*
X111642857Y-86054819D02*
X111452381Y-86054819D01*
X111452381Y-86054819D02*
X111357143Y-86102438D01*
X111357143Y-86102438D02*
X111309524Y-86150057D01*
X111309524Y-86150057D02*
X111261905Y-86245295D01*
X111261905Y-86245295D02*
X111261905Y-86483390D01*
X111261905Y-86483390D02*
X111309524Y-86578628D01*
X111309524Y-86578628D02*
X111357143Y-86626247D01*
X111357143Y-86626247D02*
X111452381Y-86673866D01*
X111452381Y-86673866D02*
X111642857Y-86673866D01*
X111642857Y-86673866D02*
X111738095Y-86626247D01*
X111738095Y-86626247D02*
X111785714Y-86578628D01*
X111785714Y-86578628D02*
X111833333Y-86483390D01*
X112738095Y-87054819D02*
X112261905Y-87054819D01*
X112261905Y-87054819D02*
X112261905Y-86054819D01*
X113404762Y-86531009D02*
X113071429Y-86531009D01*
X113071429Y-87054819D02*
X113071429Y-86054819D01*
X113071429Y-86054819D02*
X113547619Y-86054819D01*
X114119048Y-86054819D02*
X114214286Y-86054819D01*
X114214286Y-86054819D02*
X114309524Y-86102438D01*
X114309524Y-86102438D02*
X114357143Y-86150057D01*
X114357143Y-86150057D02*
X114404762Y-86245295D01*
X114404762Y-86245295D02*
X114452381Y-86435771D01*
X114452381Y-86435771D02*
X114452381Y-86673866D01*
X114452381Y-86673866D02*
X114404762Y-86864342D01*
X114404762Y-86864342D02*
X114357143Y-86959580D01*
X114357143Y-86959580D02*
X114309524Y-87007200D01*
X114309524Y-87007200D02*
X114214286Y-87054819D01*
X114214286Y-87054819D02*
X114119048Y-87054819D01*
X114119048Y-87054819D02*
X114023810Y-87007200D01*
X114023810Y-87007200D02*
X113976191Y-86959580D01*
X113976191Y-86959580D02*
X113928572Y-86864342D01*
X113928572Y-86864342D02*
X113880953Y-86673866D01*
X113880953Y-86673866D02*
X113880953Y-86435771D01*
X113880953Y-86435771D02*
X113928572Y-86245295D01*
X113928572Y-86245295D02*
X113976191Y-86150057D01*
X113976191Y-86150057D02*
X114023810Y-86102438D01*
X114023810Y-86102438D02*
X114119048Y-86054819D01*
X115309524Y-86388152D02*
X115309524Y-87054819D01*
X115071429Y-86007200D02*
X114833334Y-86721485D01*
X114833334Y-86721485D02*
X115452381Y-86721485D01*
X116023810Y-86054819D02*
X116119048Y-86054819D01*
X116119048Y-86054819D02*
X116214286Y-86102438D01*
X116214286Y-86102438D02*
X116261905Y-86150057D01*
X116261905Y-86150057D02*
X116309524Y-86245295D01*
X116309524Y-86245295D02*
X116357143Y-86435771D01*
X116357143Y-86435771D02*
X116357143Y-86673866D01*
X116357143Y-86673866D02*
X116309524Y-86864342D01*
X116309524Y-86864342D02*
X116261905Y-86959580D01*
X116261905Y-86959580D02*
X116214286Y-87007200D01*
X116214286Y-87007200D02*
X116119048Y-87054819D01*
X116119048Y-87054819D02*
X116023810Y-87054819D01*
X116023810Y-87054819D02*
X115928572Y-87007200D01*
X115928572Y-87007200D02*
X115880953Y-86959580D01*
X115880953Y-86959580D02*
X115833334Y-86864342D01*
X115833334Y-86864342D02*
X115785715Y-86673866D01*
X115785715Y-86673866D02*
X115785715Y-86435771D01*
X115785715Y-86435771D02*
X115833334Y-86245295D01*
X115833334Y-86245295D02*
X115880953Y-86150057D01*
X115880953Y-86150057D02*
X115928572Y-86102438D01*
X115928572Y-86102438D02*
X116023810Y-86054819D01*
D11*
X103125000Y-105400000D02*
X103125000Y-85600000D01*
X103125000Y-85600000D02*
X84875000Y-85600000D01*
X102125000Y-106400000D02*
X103125000Y-105400000D01*
X95000000Y-106400000D02*
X102125000Y-106400000D01*
X84875000Y-106400000D02*
X93000000Y-106400000D01*
X84875000Y-85600000D02*
X84875000Y-106400000D01*
X147125000Y-105400000D02*
X147125000Y-85600000D01*
X147125000Y-85600000D02*
X128875000Y-85600000D01*
X146125000Y-106400000D02*
X147125000Y-105400000D01*
X139000000Y-106400000D02*
X146125000Y-106400000D01*
X128875000Y-106400000D02*
X137000000Y-106400000D01*
X128875000Y-85600000D02*
X128875000Y-106400000D01*
X81125000Y-105400000D02*
X81125000Y-85600000D01*
X81125000Y-85600000D02*
X62875000Y-85600000D01*
X80125000Y-106400000D02*
X81125000Y-105400000D01*
X73000000Y-106400000D02*
X80125000Y-106400000D01*
X62875000Y-106400000D02*
X71000000Y-106400000D01*
X62875000Y-85600000D02*
X62875000Y-106400000D01*
X125315000Y-105400000D02*
X125315000Y-85600000D01*
X125315000Y-85600000D02*
X107065000Y-85600000D01*
X124315000Y-106400000D02*
X125315000Y-105400000D01*
X117190000Y-106400000D02*
X124315000Y-106400000D01*
X107065000Y-106400000D02*
X115190000Y-106400000D01*
X107065000Y-85600000D02*
X107065000Y-106400000D01*
%LPC*%
D12*
X57375000Y-113921000D03*
X58645000Y-113921000D03*
X59915000Y-113921000D03*
X61185000Y-113921000D03*
X62455000Y-113921000D03*
X63725000Y-113921000D03*
X64995000Y-113921000D03*
X66265000Y-113921000D03*
X67535000Y-113921000D03*
X68805000Y-113921000D03*
X70075000Y-113921000D03*
X71345000Y-113921000D03*
X72615000Y-113921000D03*
X73885000Y-113921000D03*
X75155000Y-113921000D03*
X76425000Y-113921000D03*
X77695000Y-113921000D03*
X78965000Y-113921000D03*
X80235000Y-113921000D03*
X81505000Y-113921000D03*
X82775000Y-113921000D03*
X84045000Y-113921000D03*
X85315000Y-113921000D03*
X86585000Y-113921000D03*
X87855000Y-113921000D03*
X89125000Y-113921000D03*
X90395000Y-113921000D03*
X91665000Y-113921000D03*
X92935000Y-113921000D03*
X94205000Y-113921000D03*
X95475000Y-113921000D03*
X96745000Y-113921000D03*
X98015000Y-113921000D03*
X99285000Y-113921000D03*
X100555000Y-113921000D03*
X101825000Y-113921000D03*
X108175000Y-113921000D03*
X109445000Y-113921000D03*
X110715000Y-113921000D03*
X111985000Y-113921000D03*
X113255000Y-113921000D03*
X114525000Y-113921000D03*
X115795000Y-113921000D03*
X117065000Y-113921000D03*
X118335000Y-113921000D03*
X119605000Y-113921000D03*
X120875000Y-113921000D03*
X122145000Y-113921000D03*
X123415000Y-113921000D03*
X124685000Y-113921000D03*
X125955000Y-113921000D03*
X127225000Y-113921000D03*
X128495000Y-113921000D03*
X129765000Y-113921000D03*
X131035000Y-113921000D03*
X132305000Y-113921000D03*
X133575000Y-113921000D03*
X134845000Y-113921000D03*
X136115000Y-113921000D03*
X137385000Y-113921000D03*
X138655000Y-113921000D03*
X139925000Y-113921000D03*
X141195000Y-113921000D03*
X142465000Y-113921000D03*
X143735000Y-113921000D03*
X145005000Y-113921000D03*
X146275000Y-113921000D03*
X147545000Y-113921000D03*
X148815000Y-113921000D03*
X150085000Y-113921000D03*
X151355000Y-113921000D03*
X152625000Y-113921000D03*
D13*
X92730000Y-101080000D03*
D14*
X95270000Y-103620000D03*
X95270000Y-101080000D03*
X97810000Y-103620000D03*
X100350000Y-101080000D03*
X97810000Y-101080000D03*
X100350000Y-98540000D03*
X97810000Y-98540000D03*
X100350000Y-96000000D03*
X97810000Y-96000000D03*
X100350000Y-93460000D03*
X97810000Y-93460000D03*
X100350000Y-90920000D03*
X97810000Y-88380000D03*
X97810000Y-90920000D03*
X95270000Y-88380000D03*
X95270000Y-90920000D03*
X92730000Y-88380000D03*
X92730000Y-90920000D03*
X90190000Y-88380000D03*
X87650000Y-90920000D03*
X90190000Y-90920000D03*
X87650000Y-93460000D03*
X90190000Y-93460000D03*
X87650000Y-96000000D03*
X90190000Y-96000000D03*
X87650000Y-98540000D03*
X90190000Y-98540000D03*
X87650000Y-101080000D03*
X90190000Y-103620000D03*
X90190000Y-101080000D03*
X92730000Y-103620000D03*
D13*
X136730000Y-101080000D03*
D14*
X139270000Y-103620000D03*
X139270000Y-101080000D03*
X141810000Y-103620000D03*
X144350000Y-101080000D03*
X141810000Y-101080000D03*
X144350000Y-98540000D03*
X141810000Y-98540000D03*
X144350000Y-96000000D03*
X141810000Y-96000000D03*
X144350000Y-93460000D03*
X141810000Y-93460000D03*
X144350000Y-90920000D03*
X141810000Y-88380000D03*
X141810000Y-90920000D03*
X139270000Y-88380000D03*
X139270000Y-90920000D03*
X136730000Y-88380000D03*
X136730000Y-90920000D03*
X134190000Y-88380000D03*
X131650000Y-90920000D03*
X134190000Y-90920000D03*
X131650000Y-93460000D03*
X134190000Y-93460000D03*
X131650000Y-96000000D03*
X134190000Y-96000000D03*
X131650000Y-98540000D03*
X134190000Y-98540000D03*
X131650000Y-101080000D03*
X134190000Y-103620000D03*
X134190000Y-101080000D03*
X136730000Y-103620000D03*
D13*
X70730000Y-101080000D03*
D14*
X73270000Y-103620000D03*
X73270000Y-101080000D03*
X75810000Y-103620000D03*
X78350000Y-101080000D03*
X75810000Y-101080000D03*
X78350000Y-98540000D03*
X75810000Y-98540000D03*
X78350000Y-96000000D03*
X75810000Y-96000000D03*
X78350000Y-93460000D03*
X75810000Y-93460000D03*
X78350000Y-90920000D03*
X75810000Y-88380000D03*
X75810000Y-90920000D03*
X73270000Y-88380000D03*
X73270000Y-90920000D03*
X70730000Y-88380000D03*
X70730000Y-90920000D03*
X68190000Y-88380000D03*
X65650000Y-90920000D03*
X68190000Y-90920000D03*
X65650000Y-93460000D03*
X68190000Y-93460000D03*
X65650000Y-96000000D03*
X68190000Y-96000000D03*
X65650000Y-98540000D03*
X68190000Y-98540000D03*
X65650000Y-101080000D03*
X68190000Y-103620000D03*
X68190000Y-101080000D03*
X70730000Y-103620000D03*
D13*
X114920000Y-101080000D03*
D14*
X117460000Y-103620000D03*
X117460000Y-101080000D03*
X120000000Y-103620000D03*
X122540000Y-101080000D03*
X120000000Y-101080000D03*
X122540000Y-98540000D03*
X120000000Y-98540000D03*
X122540000Y-96000000D03*
X120000000Y-96000000D03*
X122540000Y-93460000D03*
X120000000Y-93460000D03*
X122540000Y-90920000D03*
X120000000Y-88380000D03*
X120000000Y-90920000D03*
X117460000Y-88380000D03*
X117460000Y-90920000D03*
X114920000Y-88380000D03*
X114920000Y-90920000D03*
X112380000Y-88380000D03*
X109840000Y-90920000D03*
X112380000Y-90920000D03*
X109840000Y-93460000D03*
X112380000Y-93460000D03*
X109840000Y-96000000D03*
X112380000Y-96000000D03*
X109840000Y-98540000D03*
X112380000Y-98540000D03*
X109840000Y-101080000D03*
X112380000Y-103620000D03*
X112380000Y-101080000D03*
X114920000Y-103620000D03*
G36*
X102530039Y-112391285D02*
G01*
X102575794Y-112444089D01*
X102587000Y-112495600D01*
X102587000Y-115321000D01*
X102567315Y-115388039D01*
X102514511Y-115433794D01*
X102463000Y-115445000D01*
X56737000Y-115445000D01*
X56669961Y-115425315D01*
X56624206Y-115372511D01*
X56613000Y-115321000D01*
X56613000Y-112495600D01*
X56632685Y-112428561D01*
X56685489Y-112382806D01*
X56737000Y-112371600D01*
X102463000Y-112371600D01*
X102530039Y-112391285D01*
G37*
G36*
X153330039Y-112391285D02*
G01*
X153375794Y-112444089D01*
X153387000Y-112495600D01*
X153387000Y-115321000D01*
X153367315Y-115388039D01*
X153314511Y-115433794D01*
X153263000Y-115445000D01*
X107537000Y-115445000D01*
X107469961Y-115425315D01*
X107424206Y-115372511D01*
X107413000Y-115321000D01*
X107413000Y-112495600D01*
X107432685Y-112428561D01*
X107485489Y-112382806D01*
X107537000Y-112371600D01*
X153263000Y-112371600D01*
X153330039Y-112391285D01*
G37*
%LPD*%
M02*
