G04 #@! TF.GenerationSoftware,KiCad,Pcbnew,9.0.0*
G04 #@! TF.CreationDate,2025-04-30T20:38:19+02:00*
G04 #@! TF.ProjectId,simm72_rom_smd,73696d6d-3732-45f7-926f-6d5f736d642e,A1*
G04 #@! TF.SameCoordinates,Original*
G04 #@! TF.FileFunction,Copper,L4,Bot*
G04 #@! TF.FilePolarity,Positive*
%FSLAX46Y46*%
G04 Gerber Fmt 4.6, Leading zero omitted, Abs format (unit mm)*
G04 Created by KiCad (PCBNEW 9.0.0) date 2025-04-30 20:38:19*
%MOMM*%
%LPD*%
G01*
G04 APERTURE LIST*
G04 #@! TA.AperFunction,SMDPad,CuDef*
%ADD10R,1.040000X2.540000*%
G04 #@! TD*
G04 #@! TA.AperFunction,ViaPad*
%ADD11C,0.800000*%
G04 #@! TD*
G04 #@! TA.AperFunction,Conductor*
%ADD12C,0.152400*%
G04 #@! TD*
G04 #@! TA.AperFunction,Conductor*
%ADD13C,0.609600*%
G04 #@! TD*
G04 #@! TA.AperFunction,Conductor*
%ADD14C,0.254000*%
G04 #@! TD*
G04 APERTURE END LIST*
D10*
X57375000Y-113921000D03*
X58645000Y-113921000D03*
X59915000Y-113921000D03*
X61185000Y-113921000D03*
X62455000Y-113921000D03*
X63725000Y-113921000D03*
X64995000Y-113921000D03*
X66265000Y-113921000D03*
X67535000Y-113921000D03*
X68805000Y-113921000D03*
X70075000Y-113921000D03*
X71345000Y-113921000D03*
X72615000Y-113921000D03*
X73885000Y-113921000D03*
X75155000Y-113921000D03*
X76425000Y-113921000D03*
X77695000Y-113921000D03*
X78965000Y-113921000D03*
X80235000Y-113921000D03*
X81505000Y-113921000D03*
X82775000Y-113921000D03*
X84045000Y-113921000D03*
X85315000Y-113921000D03*
X86585000Y-113921000D03*
X87855000Y-113921000D03*
X89125000Y-113921000D03*
X90395000Y-113921000D03*
X91665000Y-113921000D03*
X92935000Y-113921000D03*
X94205000Y-113921000D03*
X95475000Y-113921000D03*
X96745000Y-113921000D03*
X98015000Y-113921000D03*
X99285000Y-113921000D03*
X100555000Y-113921000D03*
X101825000Y-113921000D03*
X108175000Y-113921000D03*
X109445000Y-113921000D03*
X110715000Y-113921000D03*
X111985000Y-113921000D03*
X113255000Y-113921000D03*
X114525000Y-113921000D03*
X115795000Y-113921000D03*
X117065000Y-113921000D03*
X118335000Y-113921000D03*
X119605000Y-113921000D03*
X120875000Y-113921000D03*
X122145000Y-113921000D03*
X123415000Y-113921000D03*
X124685000Y-113921000D03*
X125955000Y-113921000D03*
X127225000Y-113921000D03*
X128495000Y-113921000D03*
X129765000Y-113921000D03*
X131035000Y-113921000D03*
X132305000Y-113921000D03*
X133575000Y-113921000D03*
X134845000Y-113921000D03*
X136115000Y-113921000D03*
X137385000Y-113921000D03*
X138655000Y-113921000D03*
X139925000Y-113921000D03*
X141195000Y-113921000D03*
X142465000Y-113921000D03*
X143735000Y-113921000D03*
X145005000Y-113921000D03*
X146275000Y-113921000D03*
X147545000Y-113921000D03*
X148815000Y-113921000D03*
X150085000Y-113921000D03*
X151355000Y-113921000D03*
X152625000Y-113921000D03*
D11*
X58645000Y-112854200D03*
X86378816Y-89362184D03*
X76679000Y-90045000D03*
X105635000Y-89381900D03*
X110778134Y-90362134D03*
X59915000Y-112854200D03*
X61185000Y-112854200D03*
X62455000Y-112854200D03*
X63725000Y-112854200D03*
X64995000Y-112854200D03*
X66265000Y-112854200D03*
X67535000Y-112854200D03*
X138655000Y-112854200D03*
X137385000Y-112854200D03*
X136115000Y-112854200D03*
X101952000Y-98681000D03*
X121764000Y-94109000D03*
X127860000Y-90813900D03*
X108175000Y-111127000D03*
X142973000Y-94744000D03*
X79593100Y-101094000D03*
X114779000Y-90800100D03*
X68805000Y-110873000D03*
X128495000Y-112854200D03*
X121135900Y-97919000D03*
X68805000Y-112854200D03*
X126209000Y-93340100D03*
X128495000Y-111127000D03*
X70456000Y-98935000D03*
X80235000Y-111381000D03*
X111350000Y-106675100D03*
X73885000Y-102999000D03*
X135988000Y-91061000D03*
X77822000Y-90045000D03*
X125447000Y-96903000D03*
X141779000Y-99316000D03*
X82775000Y-98808000D03*
X139925000Y-110873000D03*
X104492000Y-88775000D03*
X97507000Y-95887000D03*
X125193000Y-102872000D03*
X91665000Y-112854200D03*
X114652000Y-100509800D03*
X129257000Y-95379000D03*
X72568034Y-91903034D03*
X108175000Y-112854200D03*
X89506000Y-99570000D03*
X79593100Y-103126000D03*
X117319000Y-95004900D03*
X81124000Y-91695500D03*
X139925000Y-112854200D03*
X91665000Y-111254000D03*
X108683000Y-99570000D03*
X79860900Y-99570000D03*
X91284000Y-95506000D03*
X118208000Y-97284000D03*
X87601000Y-88775000D03*
X98142000Y-105285000D03*
X128241000Y-106047000D03*
X100809000Y-99824000D03*
X102841000Y-97665000D03*
X119605000Y-112854200D03*
X104619000Y-95379000D03*
X80235000Y-112854200D03*
X136750000Y-104904000D03*
X82965134Y-97220866D03*
X108873134Y-92267134D03*
X84425634Y-96776366D03*
X103857000Y-96522000D03*
X119605000Y-111254000D03*
X117827000Y-92839000D03*
X70075000Y-112854200D03*
X76298000Y-102618000D03*
X77441000Y-101094000D03*
X71345000Y-112854200D03*
X72615000Y-112854200D03*
X78203000Y-99824000D03*
X73885000Y-112854200D03*
X78965000Y-98681000D03*
X80108366Y-97918634D03*
X75155000Y-112854200D03*
X81187866Y-97220134D03*
X76425000Y-112854200D03*
X82140000Y-96395000D03*
X77695000Y-112854200D03*
X78965000Y-112854200D03*
X82774634Y-95125366D03*
X81505000Y-112854200D03*
X82775000Y-112854200D03*
X84045000Y-112854200D03*
X85315000Y-112854200D03*
X86585000Y-112854200D03*
X87855000Y-112854200D03*
X89125000Y-112854200D03*
X90395000Y-112854200D03*
X92935000Y-112854200D03*
X101577900Y-100586000D03*
X94205000Y-112854200D03*
X102593900Y-99443000D03*
X103603000Y-98381900D03*
X95475000Y-112854200D03*
X104625900Y-97381900D03*
X96745000Y-112854200D03*
X105508000Y-95887000D03*
X98015000Y-112854200D03*
X114906000Y-94991100D03*
X99285000Y-112854200D03*
X100555000Y-112854200D03*
X115541000Y-93734900D03*
X101825000Y-112854200D03*
X116684000Y-92839000D03*
X117446000Y-99951000D03*
X109445000Y-112854200D03*
X118208000Y-99062000D03*
X110715000Y-112854200D03*
X118970000Y-98300000D03*
X111985000Y-112854200D03*
X119732000Y-97538000D03*
X113255000Y-112854200D03*
X114525000Y-112854200D03*
X120494000Y-96776000D03*
X121256000Y-96014000D03*
X115795000Y-112854200D03*
X117065000Y-112854200D03*
X122018000Y-95252000D03*
X122780000Y-94490000D03*
X118335000Y-112854200D03*
X122145000Y-112854200D03*
X125955000Y-98554000D03*
X123415000Y-112854200D03*
X127352000Y-99189000D03*
X127225000Y-92712000D03*
X124685000Y-112854200D03*
X125955000Y-112854200D03*
X128114000Y-92070100D03*
X127225000Y-112854200D03*
X110715000Y-101431100D03*
X110207000Y-106047000D03*
X129765000Y-112854200D03*
X131035000Y-112854200D03*
X132305000Y-112854200D03*
X133575000Y-112854200D03*
X134845000Y-112854200D03*
X130400000Y-96014000D03*
X135226000Y-98046000D03*
X109699000Y-91569000D03*
X79473000Y-91381006D03*
X147545000Y-112854200D03*
X129384000Y-96903000D03*
X148815000Y-112854200D03*
X146275000Y-112854200D03*
X150085000Y-112854200D03*
X151355000Y-112854200D03*
X137385000Y-96649000D03*
X82623090Y-91720410D03*
X142465000Y-112854200D03*
X141195000Y-112854200D03*
X145005000Y-112854200D03*
X143735000Y-112854200D03*
X152625000Y-111508000D03*
X108683000Y-96395000D03*
X72742000Y-100713000D03*
X108937000Y-101348000D03*
X57375000Y-111381000D03*
X146275000Y-94744000D03*
X134972000Y-93982000D03*
X70456000Y-95633000D03*
X136432500Y-95315500D03*
X57375000Y-112854200D03*
X152625000Y-112854200D03*
X120875000Y-112854200D03*
D12*
X86378816Y-89362184D02*
X86331000Y-89410000D01*
X105987900Y-89381900D02*
X105635000Y-89381900D01*
X76865000Y-90045000D02*
X76679000Y-90045000D01*
X110778134Y-90362134D02*
X110714268Y-90426000D01*
X110714268Y-90426000D02*
X107032000Y-90426000D01*
X86331000Y-89410000D02*
X77500000Y-89410000D01*
X77500000Y-89410000D02*
X76865000Y-90045000D01*
X107032000Y-90426000D02*
X105987900Y-89381900D01*
D13*
X80235000Y-111381000D02*
X80235000Y-112854200D01*
X128495000Y-112854200D02*
X128495000Y-111127000D01*
X108175000Y-111127000D02*
X108175000Y-112854200D01*
X119605000Y-111254000D02*
X119605000Y-112854200D01*
X91665000Y-111254000D02*
X91665000Y-112854200D01*
X139925000Y-110873000D02*
X139925000Y-112854200D01*
X68805000Y-110873000D02*
X68805000Y-112854200D01*
D12*
X76298000Y-102618000D02*
X70075000Y-108841000D01*
X70075000Y-108841000D02*
X70075000Y-112854200D01*
X77441000Y-102491000D02*
X71345000Y-108587000D01*
X77441000Y-101094000D02*
X77441000Y-102491000D01*
X71345000Y-108587000D02*
X71345000Y-112854200D01*
X78203000Y-102745000D02*
X72615000Y-108333000D01*
X72615000Y-108333000D02*
X72615000Y-112854200D01*
X78203000Y-99824000D02*
X78203000Y-102745000D01*
X78965000Y-98681000D02*
X78965000Y-103126000D01*
X78965000Y-103126000D02*
X73885000Y-108206000D01*
X73885000Y-108206000D02*
X73885000Y-112854200D01*
X80489000Y-103126000D02*
X75155000Y-108460000D01*
X80108366Y-97918634D02*
X80489000Y-98299268D01*
X80489000Y-98299268D02*
X80489000Y-103126000D01*
X75155000Y-108460000D02*
X75155000Y-112854200D01*
X81378000Y-97410268D02*
X81378000Y-103507000D01*
X81378000Y-103507000D02*
X76425000Y-108460000D01*
X81187866Y-97220134D02*
X81378000Y-97410268D01*
X76425000Y-108460000D02*
X76425000Y-112854200D01*
X82140000Y-96395000D02*
X82140000Y-104015000D01*
X82140000Y-104015000D02*
X77695000Y-108460000D01*
X77695000Y-108460000D02*
X77695000Y-112854200D01*
X83664000Y-103380000D02*
X78965000Y-108079000D01*
X78965000Y-108079000D02*
X78965000Y-112854200D01*
X82774634Y-95125366D02*
X83664000Y-96014732D01*
X83664000Y-96014732D02*
X83664000Y-103380000D01*
X101317000Y-103507000D02*
X92935000Y-111889000D01*
X92935000Y-111889000D02*
X92935000Y-112854200D01*
X101317000Y-100846900D02*
X101317000Y-103507000D01*
X101577900Y-100586000D02*
X101317000Y-100846900D01*
X102333000Y-99703900D02*
X102333000Y-103507000D01*
X102593900Y-99443000D02*
X102333000Y-99703900D01*
X94205000Y-111635000D02*
X94205000Y-112854200D01*
X102333000Y-103507000D02*
X94205000Y-111635000D01*
X103222000Y-103634000D02*
X95475000Y-111381000D01*
X103603000Y-98381900D02*
X103222000Y-98762900D01*
X95475000Y-111381000D02*
X95475000Y-112854200D01*
X103222000Y-98762900D02*
X103222000Y-103634000D01*
X104625900Y-97381900D02*
X104625900Y-97404100D01*
X104625900Y-97404100D02*
X104238000Y-97792000D01*
X96745000Y-111254000D02*
X96745000Y-112854200D01*
X104238000Y-103761000D02*
X96745000Y-111254000D01*
X104238000Y-97792000D02*
X104238000Y-103761000D01*
X98015000Y-111127000D02*
X98015000Y-112854200D01*
X105254000Y-96141000D02*
X105254000Y-103888000D01*
X105508000Y-95887000D02*
X105254000Y-96141000D01*
X105254000Y-103888000D02*
X98015000Y-111127000D01*
X115287000Y-95372100D02*
X115287000Y-104015000D01*
X111477000Y-107825000D02*
X102587000Y-107825000D01*
X99285000Y-111127000D02*
X99285000Y-112854200D01*
X115287000Y-104015000D02*
X111477000Y-107825000D01*
X102587000Y-107825000D02*
X99285000Y-111127000D01*
X114906000Y-94991100D02*
X115287000Y-95372100D01*
X115795000Y-93988900D02*
X115795000Y-104396000D01*
X115795000Y-104396000D02*
X111731000Y-108460000D01*
X103222000Y-108460000D02*
X100555000Y-111127000D01*
X111731000Y-108460000D02*
X103222000Y-108460000D01*
X115541000Y-93734900D02*
X115795000Y-93988900D01*
X100555000Y-111127000D02*
X100555000Y-112854200D01*
X116684000Y-104396000D02*
X111985000Y-109095000D01*
X111985000Y-109095000D02*
X103730000Y-109095000D01*
X103730000Y-109095000D02*
X101825000Y-111000000D01*
X101825000Y-111000000D02*
X101825000Y-112854200D01*
X116684000Y-92839000D02*
X116684000Y-104396000D01*
X109445000Y-112524000D02*
X109445000Y-112854200D01*
X117446000Y-99951000D02*
X117446000Y-104523000D01*
X117446000Y-104523000D02*
X109445000Y-112524000D01*
X110715000Y-112397000D02*
X110715000Y-112854200D01*
X118208000Y-104904000D02*
X110715000Y-112397000D01*
X118208000Y-99062000D02*
X118208000Y-104904000D01*
X118970000Y-104904000D02*
X111985000Y-111889000D01*
X118970000Y-98300000D02*
X118970000Y-104904000D01*
X111985000Y-111889000D02*
X111985000Y-112854200D01*
X119732000Y-97538000D02*
X119732000Y-105285000D01*
X119732000Y-105285000D02*
X113255000Y-111762000D01*
X113255000Y-111762000D02*
X113255000Y-112854200D01*
X120494000Y-96776000D02*
X120494000Y-105285000D01*
X120494000Y-105285000D02*
X114525000Y-111254000D01*
X114525000Y-111254000D02*
X114525000Y-112854200D01*
X121764000Y-96522000D02*
X121764000Y-105158000D01*
X121256000Y-96014000D02*
X121764000Y-96522000D01*
X121764000Y-105158000D02*
X115795000Y-111127000D01*
X115795000Y-111127000D02*
X115795000Y-112854200D01*
X122653000Y-95887000D02*
X122653000Y-105412000D01*
X122653000Y-105412000D02*
X117065000Y-111000000D01*
X122018000Y-95252000D02*
X122653000Y-95887000D01*
X117065000Y-111000000D02*
X117065000Y-112854200D01*
X123542000Y-95252000D02*
X123542000Y-105666000D01*
X123542000Y-105666000D02*
X118335000Y-110873000D01*
X118335000Y-110873000D02*
X118335000Y-112854200D01*
X122780000Y-94490000D02*
X123542000Y-95252000D01*
X122145000Y-107952000D02*
X125955000Y-104142000D01*
X122145000Y-112854200D02*
X122145000Y-107952000D01*
X125955000Y-104142000D02*
X125955000Y-98554000D01*
X123415000Y-112854200D02*
X123415000Y-107609100D01*
X123415000Y-107609100D02*
X127225000Y-103799100D01*
X127225000Y-99316000D02*
X127352000Y-99189000D01*
X127225000Y-103799100D02*
X127225000Y-99316000D01*
X128495000Y-103507000D02*
X124685000Y-107317000D01*
X124685000Y-107317000D02*
X124685000Y-112854200D01*
X127225000Y-97792000D02*
X128495000Y-99062000D01*
X128495000Y-99062000D02*
X128495000Y-103507000D01*
X127225000Y-92712000D02*
X127225000Y-97792000D01*
X128114000Y-97792000D02*
X129130000Y-98808000D01*
X128114000Y-92070100D02*
X128114000Y-97792000D01*
X125955000Y-107063000D02*
X125955000Y-112854200D01*
X129130000Y-103888000D02*
X125955000Y-107063000D01*
X129130000Y-98808000D02*
X129130000Y-103888000D01*
X110207000Y-101939100D02*
X110207000Y-106047000D01*
X110715000Y-101431100D02*
X110207000Y-101939100D01*
X132432000Y-98046000D02*
X135226000Y-98046000D01*
X130400000Y-96014000D02*
X132432000Y-98046000D01*
X79473000Y-91381006D02*
X80168994Y-91381006D01*
X80482600Y-91067400D02*
X109197400Y-91067400D01*
X109197400Y-91067400D02*
X109699000Y-91569000D01*
X139544000Y-98808000D02*
X147545000Y-106809000D01*
X129384000Y-96903000D02*
X131289000Y-98808000D01*
X131289000Y-98808000D02*
X139544000Y-98808000D01*
X80168994Y-91381006D02*
X80482600Y-91067400D01*
X147545000Y-106809000D02*
X147545000Y-112854200D01*
X83791000Y-92966000D02*
X113509000Y-92966000D01*
X82623090Y-91720410D02*
X82623090Y-91798090D01*
X82623090Y-91798090D02*
X83791000Y-92966000D01*
X113509000Y-92966000D02*
X115033000Y-91442000D01*
X128622000Y-91442000D02*
X133829000Y-96649000D01*
X133829000Y-96649000D02*
X137385000Y-96649000D01*
X115033000Y-91442000D02*
X128622000Y-91442000D01*
D13*
X139031000Y-87500000D02*
X74144000Y-87500000D01*
D14*
X105971966Y-94445966D02*
X73167034Y-94445966D01*
D12*
X145513000Y-93982000D02*
X137893000Y-93982000D01*
D13*
X69313000Y-95633000D02*
X70456000Y-95633000D01*
D14*
X107921000Y-96395000D02*
X105971966Y-94445966D01*
D12*
X137893000Y-93982000D02*
X134972000Y-93982000D01*
X107921000Y-100967000D02*
X107921000Y-96395000D01*
D13*
X152625000Y-101094000D02*
X146275000Y-94744000D01*
X57375000Y-111381000D02*
X57375000Y-107571000D01*
D12*
X137766000Y-93982000D02*
X137893000Y-93982000D01*
D13*
X74144000Y-87500000D02*
X70456000Y-91188000D01*
D12*
X108937000Y-101348000D02*
X108302000Y-101348000D01*
X146275000Y-94744000D02*
X145513000Y-93982000D01*
X136432500Y-95315500D02*
X137766000Y-93982000D01*
D13*
X152625000Y-111508000D02*
X152625000Y-112854200D01*
X146275000Y-94744000D02*
X139031000Y-87500000D01*
D12*
X72742000Y-96395000D02*
X71980000Y-95633000D01*
X108302000Y-101348000D02*
X107921000Y-100967000D01*
D14*
X73167034Y-94445966D02*
X71980000Y-95633000D01*
X108683000Y-96395000D02*
X107921000Y-96395000D01*
D13*
X152625000Y-111508000D02*
X152625000Y-101094000D01*
X57375000Y-111381000D02*
X57375000Y-112854200D01*
X70456000Y-91188000D02*
X70456000Y-95633000D01*
X57375000Y-107571000D02*
X69313000Y-95633000D01*
D14*
X71980000Y-95633000D02*
X70456000Y-95633000D01*
D12*
X72742000Y-100713000D02*
X72742000Y-96395000D01*
M02*
