%TF.GenerationSoftware,KiCad,Pcbnew,7.0.9*%
%TF.CreationDate,2024-01-22T22:29:13+01:00*%
%TF.ProjectId,simm72_ram_8M10,73696d6d-3732-45f7-9261-6d5f384d3130,A*%
%TF.SameCoordinates,Original*%
%TF.FileFunction,Drillmap*%
%TF.FilePolarity,Positive*%
%FSLAX45Y45*%
G04 Gerber Fmt 4.5, Leading zero omitted, Abs format (unit mm)*
G04 Created by KiCad (PCBNEW 7.0.9) date 2024-01-22 22:29:13*
%MOMM*%
%LPD*%
G01*
G04 APERTURE LIST*
%ADD10C,0.050000*%
%ADD11C,0.200000*%
%ADD12C,0.100000*%
G04 APERTURE END LIST*
D10*
X5153300Y-8366960D02*
G75*
G03*
X5102500Y-8417760I0J-50800D01*
G01*
X15897500Y-8417760D02*
G75*
G03*
X15846700Y-8366960I-50800J0D01*
G01*
X15897500Y-8417760D02*
X15897580Y-10274500D01*
X5102500Y-8417760D02*
X5102580Y-10274500D01*
X15846700Y-8366960D02*
X5153300Y-8366960D01*
D11*
D12*
X5717500Y-11270500D02*
X5757500Y-11310500D01*
X5757500Y-11270500D02*
X5717500Y-11310500D01*
X5844500Y-11270500D02*
X5884500Y-11310500D01*
X5884500Y-11270500D02*
X5844500Y-11310500D01*
X5971500Y-11270500D02*
X6011500Y-11310500D01*
X6011500Y-11270500D02*
X5971500Y-11310500D01*
X6098500Y-11270500D02*
X6138500Y-11310500D01*
X6138500Y-11270500D02*
X6098500Y-11310500D01*
X6225500Y-11270500D02*
X6265500Y-11310500D01*
X6265500Y-11270500D02*
X6225500Y-11310500D01*
X6352500Y-11270500D02*
X6392500Y-11310500D01*
X6392500Y-11270500D02*
X6352500Y-11310500D01*
X6403300Y-10330700D02*
X6443300Y-10370700D01*
X6443300Y-10330700D02*
X6403300Y-10370700D01*
X6416000Y-9086100D02*
X6456000Y-9126100D01*
X6456000Y-9086100D02*
X6416000Y-9126100D01*
X6416000Y-9619500D02*
X6456000Y-9659500D01*
X6456000Y-9619500D02*
X6416000Y-9659500D01*
X6479500Y-11270500D02*
X6519500Y-11310500D01*
X6519500Y-11270500D02*
X6479500Y-11310500D01*
X6492200Y-10216400D02*
X6532200Y-10256400D01*
X6532200Y-10216400D02*
X6492200Y-10256400D01*
X6555700Y-10013200D02*
X6595700Y-10053200D01*
X6595700Y-10013200D02*
X6555700Y-10053200D01*
X6597099Y-10140200D02*
X6637099Y-10180200D01*
X6637099Y-10140200D02*
X6597099Y-10180200D01*
X6606500Y-11270500D02*
X6646500Y-11310500D01*
X6646500Y-11270500D02*
X6606500Y-11310500D01*
X6695400Y-10038600D02*
X6735400Y-10078600D01*
X6735400Y-10038600D02*
X6695400Y-10078600D01*
X6733500Y-11270500D02*
X6773500Y-11310500D01*
X6773500Y-11270500D02*
X6733500Y-11310500D01*
X6822400Y-9632200D02*
X6862400Y-9672200D01*
X6862400Y-9632200D02*
X6822400Y-9672200D01*
X6835100Y-11118100D02*
X6875100Y-11158100D01*
X6875100Y-11118100D02*
X6835100Y-11158100D01*
X6860500Y-11270500D02*
X6900500Y-11310500D01*
X6900500Y-11270500D02*
X6860500Y-11310500D01*
X6987500Y-11270500D02*
X7027500Y-11310500D01*
X7027500Y-11270500D02*
X6987500Y-11310500D01*
X7025600Y-10584700D02*
X7065600Y-10624700D01*
X7065600Y-10584700D02*
X7025600Y-10624700D01*
X7114500Y-11270500D02*
X7154500Y-11310500D01*
X7154500Y-11270500D02*
X7114500Y-11310500D01*
X7241500Y-11270500D02*
X7281500Y-11310500D01*
X7281500Y-11270500D02*
X7241500Y-11310500D01*
X7254200Y-10279900D02*
X7294200Y-10319900D01*
X7294200Y-10279900D02*
X7254200Y-10319900D01*
X7368500Y-11270500D02*
X7408500Y-11310500D01*
X7408500Y-11270500D02*
X7368500Y-11310500D01*
X7406600Y-9737550D02*
X7446600Y-9777550D01*
X7446600Y-9737550D02*
X7406600Y-9777550D01*
X7495500Y-11270500D02*
X7535500Y-11310500D01*
X7535500Y-11270500D02*
X7495500Y-11310500D01*
X7520900Y-9721100D02*
X7560900Y-9761100D01*
X7560900Y-9721100D02*
X7520900Y-9761100D01*
X7533600Y-8857500D02*
X7573600Y-8897500D01*
X7573600Y-8857500D02*
X7533600Y-8897500D01*
X7609370Y-9657170D02*
X7649370Y-9697170D01*
X7649370Y-9657170D02*
X7609370Y-9697170D01*
X7622500Y-11270500D02*
X7662500Y-11310500D01*
X7662500Y-11270500D02*
X7622500Y-11310500D01*
X7685570Y-9580970D02*
X7725570Y-9620970D01*
X7725570Y-9580970D02*
X7685570Y-9620970D01*
X7749500Y-11270500D02*
X7789500Y-11310500D01*
X7789500Y-11270500D02*
X7749500Y-11310500D01*
X7761770Y-9504770D02*
X7801770Y-9544770D01*
X7801770Y-9504770D02*
X7761770Y-9544770D01*
X7838400Y-9149600D02*
X7878400Y-9189600D01*
X7878400Y-9149600D02*
X7838400Y-9189600D01*
X7850670Y-9415870D02*
X7890670Y-9455870D01*
X7890670Y-9415870D02*
X7850670Y-9455870D01*
X7876500Y-11270500D02*
X7916500Y-11310500D01*
X7916500Y-11270500D02*
X7876500Y-11310500D01*
X7921564Y-9327400D02*
X7961564Y-9367400D01*
X7961564Y-9327400D02*
X7921564Y-9367400D01*
X8003500Y-11118100D02*
X8043500Y-11158100D01*
X8043500Y-11118100D02*
X8003500Y-11158100D01*
X8003500Y-11270500D02*
X8043500Y-11310500D01*
X8043500Y-11270500D02*
X8003500Y-11310500D01*
X8013920Y-9252620D02*
X8053920Y-9292620D01*
X8053920Y-9252620D02*
X8013920Y-9292620D01*
X8130500Y-11270500D02*
X8170500Y-11310500D01*
X8170500Y-11270500D02*
X8130500Y-11310500D01*
X8168600Y-9200400D02*
X8208600Y-9240400D01*
X8208600Y-9200400D02*
X8168600Y-9240400D01*
X8257500Y-11270500D02*
X8297500Y-11310500D01*
X8297500Y-11270500D02*
X8257500Y-11310500D01*
X8320570Y-9174570D02*
X8360570Y-9214570D01*
X8360570Y-9174570D02*
X8320570Y-9214570D01*
X8329950Y-9784600D02*
X8369950Y-9824600D01*
X8369950Y-9784600D02*
X8329950Y-9824600D01*
X8333700Y-8832100D02*
X8373700Y-8872100D01*
X8373700Y-8832100D02*
X8333700Y-8872100D01*
X8384500Y-11270500D02*
X8424500Y-11310500D01*
X8424500Y-11270500D02*
X8384500Y-11310500D01*
X8486100Y-9568700D02*
X8526100Y-9608700D01*
X8526100Y-9568700D02*
X8486100Y-9608700D01*
X8511500Y-11270500D02*
X8551500Y-11310500D01*
X8551500Y-11270500D02*
X8511500Y-11310500D01*
X8558550Y-9695700D02*
X8598550Y-9735700D01*
X8598550Y-9695700D02*
X8558550Y-9735700D01*
X8569150Y-9397750D02*
X8609150Y-9437750D01*
X8609150Y-9397750D02*
X8569150Y-9437750D01*
X8638500Y-11270500D02*
X8678500Y-11310500D01*
X8678500Y-11270500D02*
X8638500Y-11310500D01*
X8703500Y-9822700D02*
X8743500Y-9862700D01*
X8743500Y-9822700D02*
X8703500Y-9862700D01*
X8716165Y-9519365D02*
X8756165Y-9559365D01*
X8756165Y-9519365D02*
X8716165Y-9559365D01*
X8740100Y-9213100D02*
X8780100Y-9253100D01*
X8780100Y-9213100D02*
X8740100Y-9253100D01*
X8765500Y-11270500D02*
X8805500Y-11310500D01*
X8805500Y-11270500D02*
X8765500Y-11310500D01*
X8829899Y-9810000D02*
X8869899Y-9850000D01*
X8869899Y-9810000D02*
X8829899Y-9850000D01*
X8892500Y-11270500D02*
X8932500Y-11310500D01*
X8932500Y-11270500D02*
X8892500Y-11310500D01*
X8917900Y-10305300D02*
X8957900Y-10345300D01*
X8957900Y-10305300D02*
X8917900Y-10345300D01*
X9019500Y-11270500D02*
X9059500Y-11310500D01*
X9059500Y-11270500D02*
X9019500Y-11310500D01*
X9133800Y-9454400D02*
X9173800Y-9494400D01*
X9173800Y-9454400D02*
X9133800Y-9494400D01*
X9146500Y-9670300D02*
X9186500Y-9710300D01*
X9186500Y-9670300D02*
X9146500Y-9710300D01*
X9146500Y-11067300D02*
X9186500Y-11107300D01*
X9186500Y-11067300D02*
X9146500Y-11107300D01*
X9146500Y-11270500D02*
X9186500Y-11310500D01*
X9186500Y-11270500D02*
X9146500Y-11310500D01*
X9235400Y-9759200D02*
X9275400Y-9799200D01*
X9275400Y-9759200D02*
X9235400Y-9799200D01*
X9273500Y-11270500D02*
X9313500Y-11310500D01*
X9313500Y-11270500D02*
X9273500Y-11310500D01*
X9345950Y-9835400D02*
X9385950Y-9875400D01*
X9385950Y-9835400D02*
X9345950Y-9875400D01*
X9387800Y-9302000D02*
X9427800Y-9342000D01*
X9427800Y-9302000D02*
X9387800Y-9342000D01*
X9400500Y-11270500D02*
X9440500Y-11310500D01*
X9440500Y-11270500D02*
X9400500Y-11310500D01*
X9502100Y-9822700D02*
X9542100Y-9862700D01*
X9542100Y-9822700D02*
X9502100Y-9862700D01*
X9527500Y-11270500D02*
X9567500Y-11310500D01*
X9567500Y-11270500D02*
X9527500Y-11310500D01*
X9654500Y-11270500D02*
X9694500Y-11310500D01*
X9694500Y-11270500D02*
X9654500Y-11310500D01*
X9692600Y-10229100D02*
X9732600Y-10269100D01*
X9732600Y-10229100D02*
X9692600Y-10269100D01*
X9781500Y-11270500D02*
X9821500Y-11310500D01*
X9821500Y-11270500D02*
X9781500Y-11310500D01*
X9908500Y-11270500D02*
X9948500Y-11310500D01*
X9948500Y-11270500D02*
X9908500Y-11310500D01*
X10035500Y-11270500D02*
X10075500Y-11310500D01*
X10075500Y-11270500D02*
X10035500Y-11310500D01*
X10162500Y-11270500D02*
X10202500Y-11310500D01*
X10202500Y-11270500D02*
X10162500Y-11310500D01*
X10238700Y-9111500D02*
X10278700Y-9151500D01*
X10278700Y-9111500D02*
X10238700Y-9151500D01*
X10340300Y-10826000D02*
X10380300Y-10866000D01*
X10380300Y-10826000D02*
X10340300Y-10866000D01*
X10518100Y-9530600D02*
X10558100Y-9570600D01*
X10558100Y-9530600D02*
X10518100Y-9570600D01*
X10562979Y-9683000D02*
X10602979Y-9723000D01*
X10602979Y-9683000D02*
X10562979Y-9723000D01*
X10657800Y-9606800D02*
X10697800Y-9646800D01*
X10697800Y-9606800D02*
X10657800Y-9646800D01*
X10670500Y-9390900D02*
X10710500Y-9430900D01*
X10710500Y-9390900D02*
X10670500Y-9430900D01*
X10734000Y-9530600D02*
X10774000Y-9570600D01*
X10774000Y-9530600D02*
X10734000Y-9570600D01*
X10797500Y-11270500D02*
X10837500Y-11310500D01*
X10837500Y-11270500D02*
X10797500Y-11310500D01*
X10810200Y-9238500D02*
X10850200Y-9278500D01*
X10850200Y-9238500D02*
X10810200Y-9278500D01*
X10810200Y-9454400D02*
X10850200Y-9494400D01*
X10850200Y-9454400D02*
X10810200Y-9494400D01*
X10886400Y-9378200D02*
X10926400Y-9418200D01*
X10926400Y-9378200D02*
X10886400Y-9418200D01*
X10924500Y-11270500D02*
X10964500Y-11310500D01*
X10964500Y-11270500D02*
X10924500Y-11310500D01*
X10949900Y-9098800D02*
X10989900Y-9138800D01*
X10989900Y-9098800D02*
X10949900Y-9138800D01*
X10962600Y-9302000D02*
X11002600Y-9342000D01*
X11002600Y-9302000D02*
X10962600Y-9342000D01*
X11026100Y-10699000D02*
X11066100Y-10739000D01*
X11066100Y-10699000D02*
X11026100Y-10739000D01*
X11038800Y-9225800D02*
X11078800Y-9265800D01*
X11078800Y-9225800D02*
X11038800Y-9265800D01*
X11051500Y-11270500D02*
X11091500Y-11310500D01*
X11091500Y-11270500D02*
X11051500Y-11310500D01*
X11115000Y-9124200D02*
X11155000Y-9164200D01*
X11155000Y-9124200D02*
X11115000Y-9164200D01*
X11178500Y-11270500D02*
X11218500Y-11310500D01*
X11218500Y-11270500D02*
X11178500Y-11310500D01*
X11203900Y-9822700D02*
X11243900Y-9862700D01*
X11243900Y-9822700D02*
X11203900Y-9862700D01*
X11267400Y-10775200D02*
X11307400Y-10815200D01*
X11307400Y-10775200D02*
X11267400Y-10815200D01*
X11305500Y-11270500D02*
X11345500Y-11310500D01*
X11345500Y-11270500D02*
X11305500Y-11310500D01*
X11343600Y-9196550D02*
X11383600Y-9236550D01*
X11383600Y-9196550D02*
X11343600Y-9236550D01*
X11343600Y-10463050D02*
X11383600Y-10503050D01*
X11383600Y-10463050D02*
X11343600Y-10503050D01*
X11407100Y-10775200D02*
X11447100Y-10815200D01*
X11447100Y-10775200D02*
X11407100Y-10815200D01*
X11432500Y-11270500D02*
X11472500Y-11310500D01*
X11472500Y-11270500D02*
X11432500Y-11310500D01*
X11546800Y-10775200D02*
X11586800Y-10815200D01*
X11586800Y-10775200D02*
X11546800Y-10815200D01*
X11559500Y-11270500D02*
X11599500Y-11310500D01*
X11599500Y-11270500D02*
X11559500Y-11310500D01*
X11686500Y-10775200D02*
X11726500Y-10815200D01*
X11726500Y-10775200D02*
X11686500Y-10815200D01*
X11686500Y-11270500D02*
X11726500Y-11310500D01*
X11726500Y-11270500D02*
X11686500Y-11310500D01*
X11699200Y-9505200D02*
X11739200Y-9545200D01*
X11739200Y-9505200D02*
X11699200Y-9545200D01*
X11813500Y-10775200D02*
X11853500Y-10815200D01*
X11853500Y-10775200D02*
X11813500Y-10815200D01*
X11813500Y-11270500D02*
X11853500Y-11310500D01*
X11853500Y-11270500D02*
X11813500Y-11310500D01*
X11940500Y-10775200D02*
X11980500Y-10815200D01*
X11980500Y-10775200D02*
X11940500Y-10815200D01*
X11940500Y-11270500D02*
X11980500Y-11310500D01*
X11980500Y-11270500D02*
X11940500Y-11310500D01*
X12042100Y-11125550D02*
X12082100Y-11165550D01*
X12082100Y-11125550D02*
X12042100Y-11165550D01*
X12067500Y-10787900D02*
X12107500Y-10827900D01*
X12107500Y-10787900D02*
X12067500Y-10827900D01*
X12067500Y-11270500D02*
X12107500Y-11310500D01*
X12107500Y-11270500D02*
X12067500Y-11310500D01*
X12194500Y-11270500D02*
X12234500Y-11310500D01*
X12234500Y-11270500D02*
X12194500Y-11310500D01*
X12207200Y-9340100D02*
X12247200Y-9380100D01*
X12247200Y-9340100D02*
X12207200Y-9380100D01*
X12207200Y-9606800D02*
X12247200Y-9646800D01*
X12247200Y-9606800D02*
X12207200Y-9646800D01*
X12232600Y-10800600D02*
X12272600Y-10840600D01*
X12272600Y-10800600D02*
X12232600Y-10840600D01*
X12321500Y-11270500D02*
X12361500Y-11310500D01*
X12361500Y-11270500D02*
X12321500Y-11310500D01*
X12334200Y-8997200D02*
X12374200Y-9037200D01*
X12374200Y-8997200D02*
X12334200Y-9037200D01*
X12435800Y-9111500D02*
X12475800Y-9151500D01*
X12475800Y-9111500D02*
X12435800Y-9151500D01*
X12435800Y-10051300D02*
X12475800Y-10091300D01*
X12475800Y-10051300D02*
X12435800Y-10091300D01*
X12448500Y-11270500D02*
X12488500Y-11310500D01*
X12488500Y-11270500D02*
X12448500Y-11310500D01*
X12537400Y-9187700D02*
X12577400Y-9227700D01*
X12577400Y-9187700D02*
X12537400Y-9227700D01*
X12575500Y-9035300D02*
X12615500Y-9075300D01*
X12615500Y-9035300D02*
X12575500Y-9075300D01*
X12575500Y-11270500D02*
X12615500Y-11310500D01*
X12615500Y-11270500D02*
X12575500Y-11310500D01*
X12613600Y-9289300D02*
X12653600Y-9329300D01*
X12653600Y-9289300D02*
X12613600Y-9329300D01*
X12702500Y-11270500D02*
X12742500Y-11310500D01*
X12742500Y-11270500D02*
X12702500Y-11310500D01*
X12718128Y-9368428D02*
X12758128Y-9408428D01*
X12758128Y-9368428D02*
X12718128Y-9408428D01*
X12766000Y-9238500D02*
X12806000Y-9278500D01*
X12806000Y-9238500D02*
X12766000Y-9278500D01*
X12829500Y-11270500D02*
X12869500Y-11310500D01*
X12869500Y-11270500D02*
X12829500Y-11310500D01*
X12905865Y-9618946D02*
X12945865Y-9658946D01*
X12945865Y-9618946D02*
X12905865Y-9658946D01*
X12956500Y-11270500D02*
X12996500Y-11310500D01*
X12996500Y-11270500D02*
X12956500Y-11310500D01*
X13045400Y-9022600D02*
X13085400Y-9062600D01*
X13085400Y-9022600D02*
X13045400Y-9062600D01*
X13083500Y-11270500D02*
X13123500Y-11310500D01*
X13123500Y-11270500D02*
X13083500Y-11310500D01*
X13185100Y-9390900D02*
X13225100Y-9430900D01*
X13225100Y-9390900D02*
X13185100Y-9430900D01*
X13210500Y-11270500D02*
X13250500Y-11310500D01*
X13250500Y-11270500D02*
X13210500Y-11310500D01*
X13273570Y-9099230D02*
X13313570Y-9139230D01*
X13313570Y-9099230D02*
X13273570Y-9139230D01*
X13273570Y-9225370D02*
X13313570Y-9265370D01*
X13313570Y-9225370D02*
X13273570Y-9265370D01*
X13337500Y-11270500D02*
X13377500Y-11310500D01*
X13377500Y-11270500D02*
X13337500Y-11310500D01*
X13439530Y-9161870D02*
X13479530Y-9201870D01*
X13479530Y-9161870D02*
X13439530Y-9201870D01*
X13464500Y-11270500D02*
X13504500Y-11310500D01*
X13504500Y-11270500D02*
X13464500Y-11310500D01*
X13477200Y-9032450D02*
X13517200Y-9072450D01*
X13517200Y-9032450D02*
X13477200Y-9072450D01*
X13591500Y-11270500D02*
X13631500Y-11310500D01*
X13631500Y-11270500D02*
X13591500Y-11310500D01*
X13718500Y-11270500D02*
X13758500Y-11310500D01*
X13758500Y-11270500D02*
X13718500Y-11310500D01*
X13834687Y-9237550D02*
X13874687Y-9277550D01*
X13874687Y-9237550D02*
X13834687Y-9277550D01*
X13845500Y-11270500D02*
X13885500Y-11310500D01*
X13885500Y-11270500D02*
X13845500Y-11310500D01*
X13854450Y-9537550D02*
X13894450Y-9577550D01*
X13894450Y-9537550D02*
X13854450Y-9577550D01*
X13972500Y-11118100D02*
X14012500Y-11158100D01*
X14012500Y-11118100D02*
X13972500Y-11158100D01*
X13972500Y-11270500D02*
X14012500Y-11310500D01*
X14012500Y-11270500D02*
X13972500Y-11310500D01*
X14099500Y-11270500D02*
X14139500Y-11310500D01*
X14139500Y-11270500D02*
X14099500Y-11310500D01*
X14170350Y-9454400D02*
X14210350Y-9494400D01*
X14210350Y-9454400D02*
X14170350Y-9494400D01*
X14170350Y-9835400D02*
X14210350Y-9875400D01*
X14210350Y-9835400D02*
X14170350Y-9875400D01*
X14226500Y-11270500D02*
X14266500Y-11310500D01*
X14266500Y-11270500D02*
X14226500Y-11310500D01*
X14353500Y-11270500D02*
X14393500Y-11310500D01*
X14393500Y-11270500D02*
X14353500Y-11310500D01*
X14480500Y-11270500D02*
X14520500Y-11310500D01*
X14520500Y-11270500D02*
X14480500Y-11310500D01*
X14594800Y-9136900D02*
X14634800Y-9176900D01*
X14634800Y-9136900D02*
X14594800Y-9176900D01*
X14594800Y-9454400D02*
X14634800Y-9494400D01*
X14634800Y-9454400D02*
X14594800Y-9494400D01*
X14607500Y-11270500D02*
X14647500Y-11310500D01*
X14647500Y-11270500D02*
X14607500Y-11310500D01*
X14734500Y-11270500D02*
X14774500Y-11310500D01*
X14774500Y-11270500D02*
X14734500Y-11310500D01*
X14861500Y-11270500D02*
X14901500Y-11310500D01*
X14901500Y-11270500D02*
X14861500Y-11310500D01*
X14988500Y-11270500D02*
X15028500Y-11310500D01*
X15028500Y-11270500D02*
X14988500Y-11310500D01*
X15115500Y-11270500D02*
X15155500Y-11310500D01*
X15155500Y-11270500D02*
X15115500Y-11310500D01*
X15242500Y-11270500D02*
X15282500Y-11310500D01*
X15282500Y-11270500D02*
X15242500Y-11310500D01*
D11*
X5360777Y-11858484D02*
X5360777Y-11658484D01*
X5360777Y-11658484D02*
X5408396Y-11658484D01*
X5408396Y-11658484D02*
X5436967Y-11668008D01*
X5436967Y-11668008D02*
X5456015Y-11687055D01*
X5456015Y-11687055D02*
X5465539Y-11706103D01*
X5465539Y-11706103D02*
X5475063Y-11744198D01*
X5475063Y-11744198D02*
X5475063Y-11772769D01*
X5475063Y-11772769D02*
X5465539Y-11810865D01*
X5465539Y-11810865D02*
X5456015Y-11829912D01*
X5456015Y-11829912D02*
X5436967Y-11848960D01*
X5436967Y-11848960D02*
X5408396Y-11858484D01*
X5408396Y-11858484D02*
X5360777Y-11858484D01*
X5560777Y-11858484D02*
X5560777Y-11725150D01*
X5560777Y-11763246D02*
X5570301Y-11744198D01*
X5570301Y-11744198D02*
X5579824Y-11734674D01*
X5579824Y-11734674D02*
X5598872Y-11725150D01*
X5598872Y-11725150D02*
X5617920Y-11725150D01*
X5684586Y-11858484D02*
X5684586Y-11725150D01*
X5684586Y-11658484D02*
X5675062Y-11668008D01*
X5675062Y-11668008D02*
X5684586Y-11677531D01*
X5684586Y-11677531D02*
X5694110Y-11668008D01*
X5694110Y-11668008D02*
X5684586Y-11658484D01*
X5684586Y-11658484D02*
X5684586Y-11677531D01*
X5808396Y-11858484D02*
X5789348Y-11848960D01*
X5789348Y-11848960D02*
X5779824Y-11829912D01*
X5779824Y-11829912D02*
X5779824Y-11658484D01*
X5913158Y-11858484D02*
X5894110Y-11848960D01*
X5894110Y-11848960D02*
X5884586Y-11829912D01*
X5884586Y-11829912D02*
X5884586Y-11658484D01*
X6141729Y-11858484D02*
X6141729Y-11658484D01*
X6141729Y-11658484D02*
X6208396Y-11801341D01*
X6208396Y-11801341D02*
X6275062Y-11658484D01*
X6275062Y-11658484D02*
X6275062Y-11858484D01*
X6456015Y-11858484D02*
X6456015Y-11753722D01*
X6456015Y-11753722D02*
X6446491Y-11734674D01*
X6446491Y-11734674D02*
X6427443Y-11725150D01*
X6427443Y-11725150D02*
X6389348Y-11725150D01*
X6389348Y-11725150D02*
X6370301Y-11734674D01*
X6456015Y-11848960D02*
X6436967Y-11858484D01*
X6436967Y-11858484D02*
X6389348Y-11858484D01*
X6389348Y-11858484D02*
X6370301Y-11848960D01*
X6370301Y-11848960D02*
X6360777Y-11829912D01*
X6360777Y-11829912D02*
X6360777Y-11810865D01*
X6360777Y-11810865D02*
X6370301Y-11791817D01*
X6370301Y-11791817D02*
X6389348Y-11782293D01*
X6389348Y-11782293D02*
X6436967Y-11782293D01*
X6436967Y-11782293D02*
X6456015Y-11772769D01*
X6551253Y-11725150D02*
X6551253Y-11925150D01*
X6551253Y-11734674D02*
X6570301Y-11725150D01*
X6570301Y-11725150D02*
X6608396Y-11725150D01*
X6608396Y-11725150D02*
X6627443Y-11734674D01*
X6627443Y-11734674D02*
X6636967Y-11744198D01*
X6636967Y-11744198D02*
X6646491Y-11763246D01*
X6646491Y-11763246D02*
X6646491Y-11820388D01*
X6646491Y-11820388D02*
X6636967Y-11839436D01*
X6636967Y-11839436D02*
X6627443Y-11848960D01*
X6627443Y-11848960D02*
X6608396Y-11858484D01*
X6608396Y-11858484D02*
X6570301Y-11858484D01*
X6570301Y-11858484D02*
X6551253Y-11848960D01*
X6732205Y-11839436D02*
X6741729Y-11848960D01*
X6741729Y-11848960D02*
X6732205Y-11858484D01*
X6732205Y-11858484D02*
X6722682Y-11848960D01*
X6722682Y-11848960D02*
X6732205Y-11839436D01*
X6732205Y-11839436D02*
X6732205Y-11858484D01*
X6732205Y-11734674D02*
X6741729Y-11744198D01*
X6741729Y-11744198D02*
X6732205Y-11753722D01*
X6732205Y-11753722D02*
X6722682Y-11744198D01*
X6722682Y-11744198D02*
X6732205Y-11734674D01*
X6732205Y-11734674D02*
X6732205Y-11753722D01*
D12*
X5060000Y-12167000D02*
X5100000Y-12207000D01*
X5100000Y-12167000D02*
X5060000Y-12207000D01*
D11*
X5398872Y-12078484D02*
X5417920Y-12078484D01*
X5417920Y-12078484D02*
X5436967Y-12088008D01*
X5436967Y-12088008D02*
X5446491Y-12097531D01*
X5446491Y-12097531D02*
X5456015Y-12116579D01*
X5456015Y-12116579D02*
X5465539Y-12154674D01*
X5465539Y-12154674D02*
X5465539Y-12202293D01*
X5465539Y-12202293D02*
X5456015Y-12240388D01*
X5456015Y-12240388D02*
X5446491Y-12259436D01*
X5446491Y-12259436D02*
X5436967Y-12268960D01*
X5436967Y-12268960D02*
X5417920Y-12278484D01*
X5417920Y-12278484D02*
X5398872Y-12278484D01*
X5398872Y-12278484D02*
X5379824Y-12268960D01*
X5379824Y-12268960D02*
X5370301Y-12259436D01*
X5370301Y-12259436D02*
X5360777Y-12240388D01*
X5360777Y-12240388D02*
X5351253Y-12202293D01*
X5351253Y-12202293D02*
X5351253Y-12154674D01*
X5351253Y-12154674D02*
X5360777Y-12116579D01*
X5360777Y-12116579D02*
X5370301Y-12097531D01*
X5370301Y-12097531D02*
X5379824Y-12088008D01*
X5379824Y-12088008D02*
X5398872Y-12078484D01*
X5551253Y-12259436D02*
X5560777Y-12268960D01*
X5560777Y-12268960D02*
X5551253Y-12278484D01*
X5551253Y-12278484D02*
X5541729Y-12268960D01*
X5541729Y-12268960D02*
X5551253Y-12259436D01*
X5551253Y-12259436D02*
X5551253Y-12278484D01*
X5732205Y-12145150D02*
X5732205Y-12278484D01*
X5684586Y-12068960D02*
X5636967Y-12211817D01*
X5636967Y-12211817D02*
X5760777Y-12211817D01*
X5875062Y-12078484D02*
X5894110Y-12078484D01*
X5894110Y-12078484D02*
X5913158Y-12088008D01*
X5913158Y-12088008D02*
X5922682Y-12097531D01*
X5922682Y-12097531D02*
X5932205Y-12116579D01*
X5932205Y-12116579D02*
X5941729Y-12154674D01*
X5941729Y-12154674D02*
X5941729Y-12202293D01*
X5941729Y-12202293D02*
X5932205Y-12240388D01*
X5932205Y-12240388D02*
X5922682Y-12259436D01*
X5922682Y-12259436D02*
X5913158Y-12268960D01*
X5913158Y-12268960D02*
X5894110Y-12278484D01*
X5894110Y-12278484D02*
X5875062Y-12278484D01*
X5875062Y-12278484D02*
X5856015Y-12268960D01*
X5856015Y-12268960D02*
X5846491Y-12259436D01*
X5846491Y-12259436D02*
X5836967Y-12240388D01*
X5836967Y-12240388D02*
X5827443Y-12202293D01*
X5827443Y-12202293D02*
X5827443Y-12154674D01*
X5827443Y-12154674D02*
X5836967Y-12116579D01*
X5836967Y-12116579D02*
X5846491Y-12097531D01*
X5846491Y-12097531D02*
X5856015Y-12088008D01*
X5856015Y-12088008D02*
X5875062Y-12078484D01*
X6065539Y-12078484D02*
X6084586Y-12078484D01*
X6084586Y-12078484D02*
X6103634Y-12088008D01*
X6103634Y-12088008D02*
X6113158Y-12097531D01*
X6113158Y-12097531D02*
X6122682Y-12116579D01*
X6122682Y-12116579D02*
X6132205Y-12154674D01*
X6132205Y-12154674D02*
X6132205Y-12202293D01*
X6132205Y-12202293D02*
X6122682Y-12240388D01*
X6122682Y-12240388D02*
X6113158Y-12259436D01*
X6113158Y-12259436D02*
X6103634Y-12268960D01*
X6103634Y-12268960D02*
X6084586Y-12278484D01*
X6084586Y-12278484D02*
X6065539Y-12278484D01*
X6065539Y-12278484D02*
X6046491Y-12268960D01*
X6046491Y-12268960D02*
X6036967Y-12259436D01*
X6036967Y-12259436D02*
X6027443Y-12240388D01*
X6027443Y-12240388D02*
X6017920Y-12202293D01*
X6017920Y-12202293D02*
X6017920Y-12154674D01*
X6017920Y-12154674D02*
X6027443Y-12116579D01*
X6027443Y-12116579D02*
X6036967Y-12097531D01*
X6036967Y-12097531D02*
X6046491Y-12088008D01*
X6046491Y-12088008D02*
X6065539Y-12078484D01*
X6217920Y-12278484D02*
X6217920Y-12145150D01*
X6217920Y-12164198D02*
X6227443Y-12154674D01*
X6227443Y-12154674D02*
X6246491Y-12145150D01*
X6246491Y-12145150D02*
X6275063Y-12145150D01*
X6275063Y-12145150D02*
X6294110Y-12154674D01*
X6294110Y-12154674D02*
X6303634Y-12173722D01*
X6303634Y-12173722D02*
X6303634Y-12278484D01*
X6303634Y-12173722D02*
X6313158Y-12154674D01*
X6313158Y-12154674D02*
X6332205Y-12145150D01*
X6332205Y-12145150D02*
X6360777Y-12145150D01*
X6360777Y-12145150D02*
X6379824Y-12154674D01*
X6379824Y-12154674D02*
X6389348Y-12173722D01*
X6389348Y-12173722D02*
X6389348Y-12278484D01*
X6484586Y-12278484D02*
X6484586Y-12145150D01*
X6484586Y-12164198D02*
X6494110Y-12154674D01*
X6494110Y-12154674D02*
X6513158Y-12145150D01*
X6513158Y-12145150D02*
X6541729Y-12145150D01*
X6541729Y-12145150D02*
X6560777Y-12154674D01*
X6560777Y-12154674D02*
X6570301Y-12173722D01*
X6570301Y-12173722D02*
X6570301Y-12278484D01*
X6570301Y-12173722D02*
X6579824Y-12154674D01*
X6579824Y-12154674D02*
X6598872Y-12145150D01*
X6598872Y-12145150D02*
X6627443Y-12145150D01*
X6627443Y-12145150D02*
X6646491Y-12154674D01*
X6646491Y-12154674D02*
X6656015Y-12173722D01*
X6656015Y-12173722D02*
X6656015Y-12278484D01*
X7046491Y-12068960D02*
X6875063Y-12326103D01*
X7303634Y-12078484D02*
X7322682Y-12078484D01*
X7322682Y-12078484D02*
X7341729Y-12088008D01*
X7341729Y-12088008D02*
X7351253Y-12097531D01*
X7351253Y-12097531D02*
X7360777Y-12116579D01*
X7360777Y-12116579D02*
X7370301Y-12154674D01*
X7370301Y-12154674D02*
X7370301Y-12202293D01*
X7370301Y-12202293D02*
X7360777Y-12240388D01*
X7360777Y-12240388D02*
X7351253Y-12259436D01*
X7351253Y-12259436D02*
X7341729Y-12268960D01*
X7341729Y-12268960D02*
X7322682Y-12278484D01*
X7322682Y-12278484D02*
X7303634Y-12278484D01*
X7303634Y-12278484D02*
X7284586Y-12268960D01*
X7284586Y-12268960D02*
X7275063Y-12259436D01*
X7275063Y-12259436D02*
X7265539Y-12240388D01*
X7265539Y-12240388D02*
X7256015Y-12202293D01*
X7256015Y-12202293D02*
X7256015Y-12154674D01*
X7256015Y-12154674D02*
X7265539Y-12116579D01*
X7265539Y-12116579D02*
X7275063Y-12097531D01*
X7275063Y-12097531D02*
X7284586Y-12088008D01*
X7284586Y-12088008D02*
X7303634Y-12078484D01*
X7456015Y-12259436D02*
X7465539Y-12268960D01*
X7465539Y-12268960D02*
X7456015Y-12278484D01*
X7456015Y-12278484D02*
X7446491Y-12268960D01*
X7446491Y-12268960D02*
X7456015Y-12259436D01*
X7456015Y-12259436D02*
X7456015Y-12278484D01*
X7589348Y-12078484D02*
X7608396Y-12078484D01*
X7608396Y-12078484D02*
X7627444Y-12088008D01*
X7627444Y-12088008D02*
X7636967Y-12097531D01*
X7636967Y-12097531D02*
X7646491Y-12116579D01*
X7646491Y-12116579D02*
X7656015Y-12154674D01*
X7656015Y-12154674D02*
X7656015Y-12202293D01*
X7656015Y-12202293D02*
X7646491Y-12240388D01*
X7646491Y-12240388D02*
X7636967Y-12259436D01*
X7636967Y-12259436D02*
X7627444Y-12268960D01*
X7627444Y-12268960D02*
X7608396Y-12278484D01*
X7608396Y-12278484D02*
X7589348Y-12278484D01*
X7589348Y-12278484D02*
X7570301Y-12268960D01*
X7570301Y-12268960D02*
X7560777Y-12259436D01*
X7560777Y-12259436D02*
X7551253Y-12240388D01*
X7551253Y-12240388D02*
X7541729Y-12202293D01*
X7541729Y-12202293D02*
X7541729Y-12154674D01*
X7541729Y-12154674D02*
X7551253Y-12116579D01*
X7551253Y-12116579D02*
X7560777Y-12097531D01*
X7560777Y-12097531D02*
X7570301Y-12088008D01*
X7570301Y-12088008D02*
X7589348Y-12078484D01*
X7846491Y-12278484D02*
X7732206Y-12278484D01*
X7789348Y-12278484D02*
X7789348Y-12078484D01*
X7789348Y-12078484D02*
X7770301Y-12107055D01*
X7770301Y-12107055D02*
X7751253Y-12126103D01*
X7751253Y-12126103D02*
X7732206Y-12135627D01*
X8027444Y-12078484D02*
X7932206Y-12078484D01*
X7932206Y-12078484D02*
X7922682Y-12173722D01*
X7922682Y-12173722D02*
X7932206Y-12164198D01*
X7932206Y-12164198D02*
X7951253Y-12154674D01*
X7951253Y-12154674D02*
X7998872Y-12154674D01*
X7998872Y-12154674D02*
X8017920Y-12164198D01*
X8017920Y-12164198D02*
X8027444Y-12173722D01*
X8027444Y-12173722D02*
X8036967Y-12192769D01*
X8036967Y-12192769D02*
X8036967Y-12240388D01*
X8036967Y-12240388D02*
X8027444Y-12259436D01*
X8027444Y-12259436D02*
X8017920Y-12268960D01*
X8017920Y-12268960D02*
X7998872Y-12278484D01*
X7998872Y-12278484D02*
X7951253Y-12278484D01*
X7951253Y-12278484D02*
X7932206Y-12268960D01*
X7932206Y-12268960D02*
X7922682Y-12259436D01*
X8103634Y-12078484D02*
X8236967Y-12078484D01*
X8236967Y-12078484D02*
X8151253Y-12278484D01*
X8303634Y-12078484D02*
X8303634Y-12116579D01*
X8379825Y-12078484D02*
X8379825Y-12116579D01*
X8675063Y-12354674D02*
X8665539Y-12345150D01*
X8665539Y-12345150D02*
X8646491Y-12316579D01*
X8646491Y-12316579D02*
X8636968Y-12297531D01*
X8636968Y-12297531D02*
X8627444Y-12268960D01*
X8627444Y-12268960D02*
X8617920Y-12221341D01*
X8617920Y-12221341D02*
X8617920Y-12183246D01*
X8617920Y-12183246D02*
X8627444Y-12135627D01*
X8627444Y-12135627D02*
X8636968Y-12107055D01*
X8636968Y-12107055D02*
X8646491Y-12088008D01*
X8646491Y-12088008D02*
X8665539Y-12059436D01*
X8665539Y-12059436D02*
X8675063Y-12049912D01*
X8856015Y-12278484D02*
X8741730Y-12278484D01*
X8798872Y-12278484D02*
X8798872Y-12078484D01*
X8798872Y-12078484D02*
X8779825Y-12107055D01*
X8779825Y-12107055D02*
X8760777Y-12126103D01*
X8760777Y-12126103D02*
X8741730Y-12135627D01*
X9027444Y-12078484D02*
X8989349Y-12078484D01*
X8989349Y-12078484D02*
X8970301Y-12088008D01*
X8970301Y-12088008D02*
X8960777Y-12097531D01*
X8960777Y-12097531D02*
X8941730Y-12126103D01*
X8941730Y-12126103D02*
X8932206Y-12164198D01*
X8932206Y-12164198D02*
X8932206Y-12240388D01*
X8932206Y-12240388D02*
X8941730Y-12259436D01*
X8941730Y-12259436D02*
X8951253Y-12268960D01*
X8951253Y-12268960D02*
X8970301Y-12278484D01*
X8970301Y-12278484D02*
X9008396Y-12278484D01*
X9008396Y-12278484D02*
X9027444Y-12268960D01*
X9027444Y-12268960D02*
X9036968Y-12259436D01*
X9036968Y-12259436D02*
X9046491Y-12240388D01*
X9046491Y-12240388D02*
X9046491Y-12192769D01*
X9046491Y-12192769D02*
X9036968Y-12173722D01*
X9036968Y-12173722D02*
X9027444Y-12164198D01*
X9027444Y-12164198D02*
X9008396Y-12154674D01*
X9008396Y-12154674D02*
X8970301Y-12154674D01*
X8970301Y-12154674D02*
X8951253Y-12164198D01*
X8951253Y-12164198D02*
X8941730Y-12173722D01*
X8941730Y-12173722D02*
X8932206Y-12192769D01*
X9217920Y-12078484D02*
X9179825Y-12078484D01*
X9179825Y-12078484D02*
X9160777Y-12088008D01*
X9160777Y-12088008D02*
X9151253Y-12097531D01*
X9151253Y-12097531D02*
X9132206Y-12126103D01*
X9132206Y-12126103D02*
X9122682Y-12164198D01*
X9122682Y-12164198D02*
X9122682Y-12240388D01*
X9122682Y-12240388D02*
X9132206Y-12259436D01*
X9132206Y-12259436D02*
X9141730Y-12268960D01*
X9141730Y-12268960D02*
X9160777Y-12278484D01*
X9160777Y-12278484D02*
X9198872Y-12278484D01*
X9198872Y-12278484D02*
X9217920Y-12268960D01*
X9217920Y-12268960D02*
X9227444Y-12259436D01*
X9227444Y-12259436D02*
X9236968Y-12240388D01*
X9236968Y-12240388D02*
X9236968Y-12192769D01*
X9236968Y-12192769D02*
X9227444Y-12173722D01*
X9227444Y-12173722D02*
X9217920Y-12164198D01*
X9217920Y-12164198D02*
X9198872Y-12154674D01*
X9198872Y-12154674D02*
X9160777Y-12154674D01*
X9160777Y-12154674D02*
X9141730Y-12164198D01*
X9141730Y-12164198D02*
X9132206Y-12173722D01*
X9132206Y-12173722D02*
X9122682Y-12192769D01*
X9475063Y-12278484D02*
X9475063Y-12078484D01*
X9560777Y-12278484D02*
X9560777Y-12173722D01*
X9560777Y-12173722D02*
X9551253Y-12154674D01*
X9551253Y-12154674D02*
X9532206Y-12145150D01*
X9532206Y-12145150D02*
X9503634Y-12145150D01*
X9503634Y-12145150D02*
X9484587Y-12154674D01*
X9484587Y-12154674D02*
X9475063Y-12164198D01*
X9684587Y-12278484D02*
X9665539Y-12268960D01*
X9665539Y-12268960D02*
X9656015Y-12259436D01*
X9656015Y-12259436D02*
X9646492Y-12240388D01*
X9646492Y-12240388D02*
X9646492Y-12183246D01*
X9646492Y-12183246D02*
X9656015Y-12164198D01*
X9656015Y-12164198D02*
X9665539Y-12154674D01*
X9665539Y-12154674D02*
X9684587Y-12145150D01*
X9684587Y-12145150D02*
X9713158Y-12145150D01*
X9713158Y-12145150D02*
X9732206Y-12154674D01*
X9732206Y-12154674D02*
X9741730Y-12164198D01*
X9741730Y-12164198D02*
X9751253Y-12183246D01*
X9751253Y-12183246D02*
X9751253Y-12240388D01*
X9751253Y-12240388D02*
X9741730Y-12259436D01*
X9741730Y-12259436D02*
X9732206Y-12268960D01*
X9732206Y-12268960D02*
X9713158Y-12278484D01*
X9713158Y-12278484D02*
X9684587Y-12278484D01*
X9865539Y-12278484D02*
X9846492Y-12268960D01*
X9846492Y-12268960D02*
X9836968Y-12249912D01*
X9836968Y-12249912D02*
X9836968Y-12078484D01*
X10017920Y-12268960D02*
X9998873Y-12278484D01*
X9998873Y-12278484D02*
X9960777Y-12278484D01*
X9960777Y-12278484D02*
X9941730Y-12268960D01*
X9941730Y-12268960D02*
X9932206Y-12249912D01*
X9932206Y-12249912D02*
X9932206Y-12173722D01*
X9932206Y-12173722D02*
X9941730Y-12154674D01*
X9941730Y-12154674D02*
X9960777Y-12145150D01*
X9960777Y-12145150D02*
X9998873Y-12145150D01*
X9998873Y-12145150D02*
X10017920Y-12154674D01*
X10017920Y-12154674D02*
X10027444Y-12173722D01*
X10027444Y-12173722D02*
X10027444Y-12192769D01*
X10027444Y-12192769D02*
X9932206Y-12211817D01*
X10103634Y-12268960D02*
X10122682Y-12278484D01*
X10122682Y-12278484D02*
X10160777Y-12278484D01*
X10160777Y-12278484D02*
X10179825Y-12268960D01*
X10179825Y-12268960D02*
X10189349Y-12249912D01*
X10189349Y-12249912D02*
X10189349Y-12240388D01*
X10189349Y-12240388D02*
X10179825Y-12221341D01*
X10179825Y-12221341D02*
X10160777Y-12211817D01*
X10160777Y-12211817D02*
X10132206Y-12211817D01*
X10132206Y-12211817D02*
X10113158Y-12202293D01*
X10113158Y-12202293D02*
X10103634Y-12183246D01*
X10103634Y-12183246D02*
X10103634Y-12173722D01*
X10103634Y-12173722D02*
X10113158Y-12154674D01*
X10113158Y-12154674D02*
X10132206Y-12145150D01*
X10132206Y-12145150D02*
X10160777Y-12145150D01*
X10160777Y-12145150D02*
X10179825Y-12154674D01*
X10256015Y-12354674D02*
X10265539Y-12345150D01*
X10265539Y-12345150D02*
X10284587Y-12316579D01*
X10284587Y-12316579D02*
X10294111Y-12297531D01*
X10294111Y-12297531D02*
X10303634Y-12268960D01*
X10303634Y-12268960D02*
X10313158Y-12221341D01*
X10313158Y-12221341D02*
X10313158Y-12183246D01*
X10313158Y-12183246D02*
X10303634Y-12135627D01*
X10303634Y-12135627D02*
X10294111Y-12107055D01*
X10294111Y-12107055D02*
X10284587Y-12088008D01*
X10284587Y-12088008D02*
X10265539Y-12059436D01*
X10265539Y-12059436D02*
X10256015Y-12049912D01*
M02*
