G04 #@! TF.GenerationSoftware,KiCad,Pcbnew,7.0.9*
G04 #@! TF.CreationDate,2024-01-22T22:29:06+01:00*
G04 #@! TF.ProjectId,simm72_ram_8M10,73696d6d-3732-45f7-9261-6d5f384d3130,A*
G04 #@! TF.SameCoordinates,Original*
G04 #@! TF.FileFunction,Paste,Top*
G04 #@! TF.FilePolarity,Positive*
%FSLAX46Y46*%
G04 Gerber Fmt 4.6, Leading zero omitted, Abs format (unit mm)*
G04 Created by KiCad (PCBNEW 7.0.9) date 2024-01-22 22:29:06*
%MOMM*%
%LPD*%
G01*
G04 APERTURE LIST*
G04 Aperture macros list*
%AMRoundRect*
0 Rectangle with rounded corners*
0 $1 Rounding radius*
0 $2 $3 $4 $5 $6 $7 $8 $9 X,Y pos of 4 corners*
0 Add a 4 corners polygon primitive as box body*
4,1,4,$2,$3,$4,$5,$6,$7,$8,$9,$2,$3,0*
0 Add four circle primitives for the rounded corners*
1,1,$1+$1,$2,$3*
1,1,$1+$1,$4,$5*
1,1,$1+$1,$6,$7*
1,1,$1+$1,$8,$9*
0 Add four rect primitives between the rounded corners*
20,1,$1+$1,$2,$3,$4,$5,0*
20,1,$1+$1,$4,$5,$6,$7,0*
20,1,$1+$1,$6,$7,$8,$9,0*
20,1,$1+$1,$8,$9,$2,$3,0*%
G04 Aperture macros list end*
%ADD10R,1.040000X2.540000*%
%ADD11RoundRect,0.250000X0.650000X-0.412500X0.650000X0.412500X-0.650000X0.412500X-0.650000X-0.412500X0*%
%ADD12R,1.300000X0.300000*%
G04 APERTURE END LIST*
D10*
X57375000Y-113921000D03*
X58645000Y-113921000D03*
X59915000Y-113921000D03*
X61185000Y-113921000D03*
X62455000Y-113921000D03*
X63725000Y-113921000D03*
X64995000Y-113921000D03*
X66265000Y-113921000D03*
X67535000Y-113921000D03*
X68805000Y-113921000D03*
X70075000Y-113921000D03*
X71345000Y-113921000D03*
X72615000Y-113921000D03*
X73885000Y-113921000D03*
X75155000Y-113921000D03*
X76425000Y-113921000D03*
X77695000Y-113921000D03*
X78965000Y-113921000D03*
X80235000Y-113921000D03*
X81505000Y-113921000D03*
X82775000Y-113921000D03*
X84045000Y-113921000D03*
X85315000Y-113921000D03*
X86585000Y-113921000D03*
X87855000Y-113921000D03*
X89125000Y-113921000D03*
X90395000Y-113921000D03*
X91665000Y-113921000D03*
X92935000Y-113921000D03*
X94205000Y-113921000D03*
X95475000Y-113921000D03*
X96745000Y-113921000D03*
X98015000Y-113921000D03*
X99285000Y-113921000D03*
X100555000Y-113921000D03*
X101825000Y-113921000D03*
X108175000Y-113921000D03*
X109445000Y-113921000D03*
X110715000Y-113921000D03*
X111985000Y-113921000D03*
X113255000Y-113921000D03*
X114525000Y-113921000D03*
X115795000Y-113921000D03*
X117065000Y-113921000D03*
X118335000Y-113921000D03*
X119605000Y-113921000D03*
X120875000Y-113921000D03*
X122145000Y-113921000D03*
X123415000Y-113921000D03*
X124685000Y-113921000D03*
X125955000Y-113921000D03*
X127225000Y-113921000D03*
X128495000Y-113921000D03*
X129765000Y-113921000D03*
X131035000Y-113921000D03*
X132305000Y-113921000D03*
X133575000Y-113921000D03*
X134845000Y-113921000D03*
X136115000Y-113921000D03*
X137385000Y-113921000D03*
X138655000Y-113921000D03*
X139925000Y-113921000D03*
X141195000Y-113921000D03*
X142465000Y-113921000D03*
X143735000Y-113921000D03*
X145005000Y-113921000D03*
X146275000Y-113921000D03*
X147545000Y-113921000D03*
X148815000Y-113921000D03*
X150085000Y-113921000D03*
X151355000Y-113921000D03*
X152625000Y-113921000D03*
D11*
X115160000Y-95290500D03*
X115160000Y-92165500D03*
D12*
X89760000Y-101300000D03*
X89760000Y-100800000D03*
X89760000Y-100300000D03*
X89760000Y-99800000D03*
X89760000Y-99300000D03*
X89760000Y-98800000D03*
X89760000Y-98300000D03*
X89760000Y-97800000D03*
X89760000Y-97300000D03*
X89760000Y-96800000D03*
X89760000Y-96300000D03*
X89760000Y-95800000D03*
X89760000Y-95300000D03*
X89760000Y-94800000D03*
X89760000Y-94300000D03*
X89760000Y-93800000D03*
X89760000Y-93300000D03*
X89760000Y-92800000D03*
X89760000Y-92300000D03*
X89760000Y-91800000D03*
X89760000Y-91300000D03*
X89760000Y-90800000D03*
X89760000Y-90300000D03*
X89760000Y-89800000D03*
X70060000Y-89800000D03*
X70060000Y-90300000D03*
X70060000Y-90800000D03*
X70060000Y-91300000D03*
X70060000Y-91800000D03*
X70060000Y-92300000D03*
X70060000Y-92800000D03*
X70060000Y-93300000D03*
X70060000Y-93800000D03*
X70060000Y-94300000D03*
X70060000Y-94800000D03*
X70060000Y-95300000D03*
X70060000Y-95800000D03*
X70060000Y-96300000D03*
X70060000Y-96800000D03*
X70060000Y-97300000D03*
X70060000Y-97800000D03*
X70060000Y-98300000D03*
X70060000Y-98800000D03*
X70060000Y-99300000D03*
X70060000Y-99800000D03*
X70060000Y-100300000D03*
X70060000Y-100800000D03*
X70060000Y-101300000D03*
D11*
X146148000Y-95798500D03*
X146148000Y-92673500D03*
X64360000Y-95290500D03*
X64360000Y-92165500D03*
D12*
X140250000Y-101300000D03*
X140250000Y-100800000D03*
X140250000Y-100300000D03*
X140250000Y-99800000D03*
X140250000Y-99300000D03*
X140250000Y-98800000D03*
X140250000Y-98300000D03*
X140250000Y-97800000D03*
X140250000Y-97300000D03*
X140250000Y-96800000D03*
X140250000Y-96300000D03*
X140250000Y-95800000D03*
X140250000Y-95300000D03*
X140250000Y-94800000D03*
X140250000Y-94300000D03*
X140250000Y-93800000D03*
X140250000Y-93300000D03*
X140250000Y-92800000D03*
X140250000Y-92300000D03*
X140250000Y-91800000D03*
X140250000Y-91300000D03*
X140250000Y-90800000D03*
X140250000Y-90300000D03*
X140250000Y-89800000D03*
X120550000Y-89800000D03*
X120550000Y-90300000D03*
X120550000Y-90800000D03*
X120550000Y-91300000D03*
X120550000Y-91800000D03*
X120550000Y-92300000D03*
X120550000Y-92800000D03*
X120550000Y-93300000D03*
X120550000Y-93800000D03*
X120550000Y-94300000D03*
X120550000Y-94800000D03*
X120550000Y-95300000D03*
X120550000Y-95800000D03*
X120550000Y-96300000D03*
X120550000Y-96800000D03*
X120550000Y-97300000D03*
X120550000Y-97800000D03*
X120550000Y-98300000D03*
X120550000Y-98800000D03*
X120550000Y-99300000D03*
X120550000Y-99800000D03*
X120550000Y-100300000D03*
X120550000Y-100800000D03*
X120550000Y-101300000D03*
D11*
X95602000Y-96306500D03*
X95602000Y-93181500D03*
M02*
