G04 #@! TF.GenerationSoftware,KiCad,Pcbnew,7.0.9*
G04 #@! TF.CreationDate,2024-01-22T22:29:06+01:00*
G04 #@! TF.ProjectId,simm72_ram_8M10,73696d6d-3732-45f7-9261-6d5f384d3130,A*
G04 #@! TF.SameCoordinates,Original*
G04 #@! TF.FileFunction,Copper,L4,Bot*
G04 #@! TF.FilePolarity,Positive*
%FSLAX46Y46*%
G04 Gerber Fmt 4.6, Leading zero omitted, Abs format (unit mm)*
G04 Created by KiCad (PCBNEW 7.0.9) date 2024-01-22 22:29:06*
%MOMM*%
%LPD*%
G01*
G04 APERTURE LIST*
G04 #@! TA.AperFunction,SMDPad,CuDef*
%ADD10R,1.040000X2.540000*%
G04 #@! TD*
G04 #@! TA.AperFunction,ViaPad*
%ADD11C,0.800000*%
G04 #@! TD*
G04 #@! TA.AperFunction,Conductor*
%ADD12C,0.609600*%
G04 #@! TD*
G04 #@! TA.AperFunction,Conductor*
%ADD13C,0.250000*%
G04 #@! TD*
G04 APERTURE END LIST*
D10*
X57375000Y-113921000D03*
X58645000Y-113921000D03*
X59915000Y-113921000D03*
X61185000Y-113921000D03*
X62455000Y-113921000D03*
X63725000Y-113921000D03*
X64995000Y-113921000D03*
X66265000Y-113921000D03*
X67535000Y-113921000D03*
X68805000Y-113921000D03*
X70075000Y-113921000D03*
X71345000Y-113921000D03*
X72615000Y-113921000D03*
X73885000Y-113921000D03*
X75155000Y-113921000D03*
X76425000Y-113921000D03*
X77695000Y-113921000D03*
X78965000Y-113921000D03*
X80235000Y-113921000D03*
X81505000Y-113921000D03*
X82775000Y-113921000D03*
X84045000Y-113921000D03*
X85315000Y-113921000D03*
X86585000Y-113921000D03*
X87855000Y-113921000D03*
X89125000Y-113921000D03*
X90395000Y-113921000D03*
X91665000Y-113921000D03*
X92935000Y-113921000D03*
X94205000Y-113921000D03*
X95475000Y-113921000D03*
X96745000Y-113921000D03*
X98015000Y-113921000D03*
X99285000Y-113921000D03*
X100555000Y-113921000D03*
X101825000Y-113921000D03*
X108175000Y-113921000D03*
X109445000Y-113921000D03*
X110715000Y-113921000D03*
X111985000Y-113921000D03*
X113255000Y-113921000D03*
X114525000Y-113921000D03*
X115795000Y-113921000D03*
X117065000Y-113921000D03*
X118335000Y-113921000D03*
X119605000Y-113921000D03*
X120875000Y-113921000D03*
X122145000Y-113921000D03*
X123415000Y-113921000D03*
X124685000Y-113921000D03*
X125955000Y-113921000D03*
X127225000Y-113921000D03*
X128495000Y-113921000D03*
X129765000Y-113921000D03*
X131035000Y-113921000D03*
X132305000Y-113921000D03*
X133575000Y-113921000D03*
X134845000Y-113921000D03*
X136115000Y-113921000D03*
X137385000Y-113921000D03*
X138655000Y-113921000D03*
X139925000Y-113921000D03*
X141195000Y-113921000D03*
X142465000Y-113921000D03*
X143735000Y-113921000D03*
X145005000Y-113921000D03*
X146275000Y-113921000D03*
X147545000Y-113921000D03*
X148815000Y-113921000D03*
X150085000Y-113921000D03*
X151355000Y-113921000D03*
X152625000Y-113921000D03*
D11*
X146275000Y-112905000D03*
X150085000Y-112905000D03*
X151355000Y-112905000D03*
X146148000Y-94744000D03*
X152625000Y-112905000D03*
X117192000Y-95252000D03*
X141903500Y-94744000D03*
X64360000Y-96395000D03*
X57375000Y-112905000D03*
X113636000Y-104830500D03*
X134972000Y-90524500D03*
X58645000Y-112905000D03*
X59915000Y-112905000D03*
X61185000Y-112905000D03*
X62455000Y-112905000D03*
X63725000Y-112905000D03*
X64995000Y-112905000D03*
X65122000Y-102364000D03*
X66265000Y-112905000D03*
X66170987Y-101602000D03*
X67535000Y-112905000D03*
X67154000Y-100586000D03*
X138655000Y-112905000D03*
X129258651Y-96389463D03*
X137385000Y-112905000D03*
X127381284Y-93884284D03*
X126336000Y-93093000D03*
X136115000Y-112905000D03*
X68551000Y-111381000D03*
X109699000Y-91188000D03*
X80235000Y-112905000D03*
X88498992Y-98300000D03*
X64233000Y-103507000D03*
X91538000Y-94744000D03*
X127860000Y-92585000D03*
X97126000Y-102491000D03*
X139925000Y-111381000D03*
X94078000Y-93220000D03*
X91665000Y-110873000D03*
X83537000Y-88521000D03*
X95221000Y-98427000D03*
X106905000Y-94109000D03*
X89379000Y-103253000D03*
X80235000Y-111381000D03*
X91665000Y-112905000D03*
X130654000Y-90426000D03*
X68424000Y-96522000D03*
X124558000Y-100713000D03*
X83499500Y-98046000D03*
X78584000Y-91696000D03*
X141903500Y-98554000D03*
X128495000Y-112905000D03*
X65757000Y-100332000D03*
X112239000Y-98427000D03*
X110461000Y-107190000D03*
X70456000Y-106047000D03*
X146148000Y-91569000D03*
X64360000Y-91061000D03*
X108302000Y-92585000D03*
X120621000Y-111455500D03*
X113636000Y-92165500D03*
X108175000Y-112905000D03*
X87601000Y-92331000D03*
X68805000Y-112905000D03*
X119605000Y-112905000D03*
X125955000Y-90553000D03*
X105381000Y-95506000D03*
X139925000Y-112905000D03*
X138744500Y-95575500D03*
X122272000Y-96268000D03*
X102587000Y-91315000D03*
X72742000Y-102999000D03*
X75536000Y-88775000D03*
X132051000Y-94109000D03*
X103603000Y-108460000D03*
X70075000Y-112905000D03*
X74266000Y-97575500D03*
X71345000Y-112905000D03*
X75409000Y-97411000D03*
X76293701Y-96771701D03*
X72615000Y-112905000D03*
X73885000Y-112905000D03*
X77055701Y-96009701D03*
X75155000Y-112905000D03*
X77817701Y-95247701D03*
X76425000Y-112905000D03*
X78706701Y-94358701D03*
X79415636Y-93474000D03*
X77695000Y-112905000D03*
X80339201Y-92726201D03*
X78965000Y-112905000D03*
X85891497Y-94177497D03*
X81505000Y-112905000D03*
X82775000Y-112905000D03*
X85061000Y-95887000D03*
X85785500Y-97157000D03*
X84045000Y-112905000D03*
X87361647Y-95393647D03*
X85315000Y-112905000D03*
X86585000Y-112905000D03*
X87235000Y-98427000D03*
X91665000Y-96903000D03*
X87855000Y-112905000D03*
X89125000Y-112905000D03*
X92554000Y-97792000D03*
X90395000Y-112905000D03*
X93659500Y-98554000D03*
X105829788Y-97030000D03*
X92935000Y-112905000D03*
X94205000Y-112905000D03*
X106778000Y-96268000D03*
X107540000Y-95506000D03*
X95475000Y-112905000D03*
X96745000Y-112905000D03*
X108302000Y-94744000D03*
X98015000Y-112905000D03*
X109064000Y-93982000D03*
X99285000Y-112905000D03*
X109826000Y-93220000D03*
X110588000Y-92458000D03*
X100555000Y-112905000D03*
X101825000Y-112905000D03*
X111350000Y-91442000D03*
X112874000Y-107952000D03*
X109445000Y-112905000D03*
X114271000Y-107952000D03*
X110715000Y-112905000D03*
X111985000Y-112905000D03*
X115668000Y-107952000D03*
X117065000Y-107952000D03*
X113255000Y-112905000D03*
X118335000Y-107952000D03*
X114525000Y-112905000D03*
X119605000Y-107952000D03*
X115795000Y-112905000D03*
X120875000Y-108079000D03*
X117065000Y-112905000D03*
X118335000Y-112905000D03*
X122526000Y-108206000D03*
X122272000Y-93601000D03*
X122145000Y-112905000D03*
X123415000Y-112905000D03*
X124685000Y-112905000D03*
X125955000Y-112905000D03*
X127225000Y-112905000D03*
X129765000Y-112905000D03*
X131035000Y-112905000D03*
X132305000Y-112905000D03*
X123542000Y-90172000D03*
X124558000Y-91315000D03*
X133575000Y-112905000D03*
X134845000Y-112905000D03*
X125574000Y-92077000D03*
X83405701Y-91945701D03*
X141195000Y-112905000D03*
X142465000Y-112905000D03*
X81886000Y-92204000D03*
X143735000Y-112905000D03*
X132935701Y-92453701D03*
X145005000Y-112905000D03*
X132935701Y-91192299D03*
X147545000Y-112905000D03*
X134595299Y-91818701D03*
X148815000Y-112905000D03*
X138546873Y-92575500D03*
X120875000Y-112905000D03*
D12*
X64360000Y-96395000D02*
X64360000Y-100740000D01*
X64360000Y-100740000D02*
X57375000Y-107725000D01*
X57375000Y-107725000D02*
X57375000Y-112905000D01*
X141903500Y-94744000D02*
X146148000Y-94744000D01*
X146148000Y-102872000D02*
X152625000Y-109349000D01*
D13*
X141903500Y-94563500D02*
X141903500Y-94744000D01*
D12*
X146148000Y-94744000D02*
X146148000Y-102872000D01*
X113636000Y-104830500D02*
X117192000Y-101274500D01*
D13*
X134972000Y-90524500D02*
X137864500Y-90524500D01*
X137864500Y-90524500D02*
X141903500Y-94563500D01*
D12*
X117192000Y-101274500D02*
X117192000Y-95252000D01*
X152625000Y-109349000D02*
X152625000Y-112905000D01*
D13*
X65122000Y-102364000D02*
X64995000Y-102491000D01*
X64995000Y-102491000D02*
X64995000Y-113921000D01*
X66265000Y-101696013D02*
X66265000Y-113921000D01*
X66170987Y-101602000D02*
X66265000Y-101696013D01*
X67535000Y-112270000D02*
X67535000Y-113921000D01*
X67154000Y-100586000D02*
X67154000Y-111889000D01*
X67154000Y-111889000D02*
X67535000Y-112270000D01*
X129258651Y-96389463D02*
X129259358Y-96389463D01*
X138655000Y-105785105D02*
X138655000Y-112905000D01*
X129259358Y-96389463D02*
X138655000Y-105785105D01*
X137385000Y-105540410D02*
X137385000Y-112905000D01*
X127381284Y-95536694D02*
X137385000Y-105540410D01*
X127381284Y-93884284D02*
X127381284Y-95536694D01*
X126336000Y-93093000D02*
X126336000Y-96268000D01*
X126336000Y-96268000D02*
X136115000Y-106047000D01*
X136115000Y-106047000D02*
X136115000Y-112905000D01*
X68551000Y-111381000D02*
X68551000Y-112651000D01*
X80235000Y-111381000D02*
X80235000Y-112905000D01*
X139925000Y-111381000D02*
X139925000Y-112905000D01*
X91665000Y-110873000D02*
X91665000Y-112905000D01*
X119605000Y-112905000D02*
X119605000Y-112471500D01*
X119605000Y-112471500D02*
X120621000Y-111455500D01*
X68551000Y-112651000D02*
X68805000Y-112905000D01*
X74266000Y-97575500D02*
X74266000Y-104142000D01*
X70075000Y-108333000D02*
X70075000Y-112905000D01*
X74266000Y-104142000D02*
X70075000Y-108333000D01*
X75790000Y-97792000D02*
X75790000Y-103507000D01*
X71345000Y-107952000D02*
X71345000Y-112905000D01*
X75790000Y-103507000D02*
X71345000Y-107952000D01*
X75409000Y-97411000D02*
X75790000Y-97792000D01*
X76293701Y-96771701D02*
X76933000Y-97411000D01*
X76933000Y-103253000D02*
X72615000Y-107571000D01*
X72615000Y-107571000D02*
X72615000Y-112905000D01*
X76933000Y-97411000D02*
X76933000Y-103253000D01*
X73885000Y-107190000D02*
X73885000Y-112905000D01*
X77055701Y-96009701D02*
X78076000Y-97030000D01*
X78076000Y-97030000D02*
X78076000Y-102999000D01*
X78076000Y-102999000D02*
X73885000Y-107190000D01*
X78965000Y-103126000D02*
X75155000Y-106936000D01*
X78965000Y-96395000D02*
X78965000Y-103126000D01*
X75155000Y-106936000D02*
X75155000Y-112905000D01*
X77817701Y-95247701D02*
X78965000Y-96395000D01*
X80235000Y-103126000D02*
X76425000Y-106936000D01*
X76425000Y-106936000D02*
X76425000Y-112905000D01*
X78706701Y-94358701D02*
X80235000Y-95887000D01*
X80235000Y-95887000D02*
X80235000Y-103126000D01*
X79415636Y-93474000D02*
X81505000Y-95563364D01*
X77695000Y-106809000D02*
X77695000Y-112905000D01*
X81505000Y-95563364D02*
X81505000Y-102999000D01*
X81505000Y-102999000D02*
X77695000Y-106809000D01*
X78965000Y-106555000D02*
X78965000Y-112905000D01*
X82775000Y-102745000D02*
X78965000Y-106555000D01*
X80339201Y-92726201D02*
X81147506Y-92726201D01*
X81147506Y-92726201D02*
X82775000Y-94353695D01*
X82775000Y-94353695D02*
X82775000Y-102745000D01*
X81505000Y-105158000D02*
X81505000Y-112905000D01*
X85891497Y-94177497D02*
X85500503Y-94177497D01*
X85500503Y-94177497D02*
X84299000Y-95379000D01*
X84299000Y-95379000D02*
X84299000Y-102364000D01*
X84299000Y-102364000D02*
X81505000Y-105158000D01*
X85061000Y-95887000D02*
X85061000Y-102745000D01*
X82775000Y-105031000D02*
X82775000Y-112905000D01*
X85061000Y-102745000D02*
X82775000Y-105031000D01*
X85823000Y-102999000D02*
X84045000Y-104777000D01*
X84045000Y-104777000D02*
X84045000Y-112905000D01*
X85785500Y-97157000D02*
X85823000Y-97194500D01*
X85823000Y-97194500D02*
X85823000Y-102999000D01*
X86510500Y-96088500D02*
X86510500Y-103200500D01*
X86510500Y-103200500D02*
X85315000Y-104396000D01*
X87205353Y-95393647D02*
X86510500Y-96088500D01*
X85315000Y-104396000D02*
X85315000Y-112905000D01*
X87361647Y-95393647D02*
X87205353Y-95393647D01*
X87235000Y-98427000D02*
X87093000Y-98569000D01*
X87093000Y-98569000D02*
X87093000Y-103507000D01*
X87093000Y-103507000D02*
X86585000Y-104015000D01*
X86585000Y-104015000D02*
X86585000Y-112905000D01*
X87855000Y-103507000D02*
X87855000Y-112905000D01*
X91665000Y-96903000D02*
X91665000Y-99697000D01*
X91665000Y-99697000D02*
X87855000Y-103507000D01*
X92935000Y-101094000D02*
X92935000Y-98173000D01*
X89125000Y-112905000D02*
X89125000Y-104904000D01*
X89125000Y-104904000D02*
X92935000Y-101094000D01*
X92935000Y-98173000D02*
X92554000Y-97792000D01*
X94205000Y-99099500D02*
X93659500Y-98554000D01*
X90395000Y-112905000D02*
X90395000Y-105158000D01*
X90395000Y-105158000D02*
X94205000Y-101348000D01*
X94205000Y-101348000D02*
X94205000Y-99099500D01*
X105829788Y-97030000D02*
X105762000Y-97030000D01*
X92935000Y-109857000D02*
X92935000Y-112905000D01*
X105762000Y-97030000D02*
X92935000Y-109857000D01*
X106778000Y-96268000D02*
X106778000Y-97284000D01*
X106778000Y-97284000D02*
X94205000Y-109857000D01*
X94205000Y-109857000D02*
X94205000Y-112905000D01*
X107540000Y-95506000D02*
X107540000Y-97538000D01*
X107540000Y-97538000D02*
X95475000Y-109603000D01*
X95475000Y-109603000D02*
X95475000Y-112905000D01*
X108302000Y-94744000D02*
X108302000Y-97917604D01*
X96745000Y-109474604D02*
X96745000Y-112905000D01*
X108302000Y-97917604D02*
X96745000Y-109474604D01*
X98015000Y-109095000D02*
X98015000Y-112905000D01*
X109064000Y-98046000D02*
X98015000Y-109095000D01*
X109064000Y-93982000D02*
X109064000Y-98046000D01*
X109826000Y-93220000D02*
X109826000Y-98300000D01*
X109826000Y-98300000D02*
X99285000Y-108841000D01*
X99285000Y-108841000D02*
X99285000Y-112905000D01*
X100555000Y-108587000D02*
X100555000Y-112905000D01*
X110588000Y-98554000D02*
X100555000Y-108587000D01*
X110588000Y-92458000D02*
X110588000Y-98554000D01*
X111350000Y-98554000D02*
X101825000Y-108079000D01*
X111350000Y-91442000D02*
X111350000Y-98554000D01*
X101825000Y-108079000D02*
X101825000Y-112905000D01*
X112874000Y-107952000D02*
X109445000Y-111381000D01*
X109445000Y-111381000D02*
X109445000Y-112905000D01*
X110715000Y-111508000D02*
X110715000Y-112905000D01*
X114271000Y-107952000D02*
X110715000Y-111508000D01*
X115668000Y-107952000D02*
X111985000Y-111635000D01*
X111985000Y-111635000D02*
X111985000Y-112905000D01*
X116938000Y-107952000D02*
X113255000Y-111635000D01*
X113255000Y-111635000D02*
X113255000Y-112905000D01*
X117065000Y-107952000D02*
X116938000Y-107952000D01*
X118335000Y-107952000D02*
X114525000Y-111762000D01*
X114525000Y-111762000D02*
X114525000Y-112905000D01*
X115795000Y-111762000D02*
X115795000Y-112905000D01*
X119605000Y-107952000D02*
X115795000Y-111762000D01*
X117065000Y-111889000D02*
X117065000Y-112905000D01*
X120875000Y-108079000D02*
X117065000Y-111889000D01*
X118335000Y-112397000D02*
X118335000Y-112905000D01*
X122526000Y-108206000D02*
X118335000Y-112397000D01*
X123034000Y-107688695D02*
X123251000Y-107905695D01*
X123251000Y-111799000D02*
X122145000Y-112905000D01*
X123251000Y-107905695D02*
X123251000Y-111799000D01*
X122272000Y-93601000D02*
X123034000Y-94363000D01*
X123034000Y-94363000D02*
X123034000Y-107688695D01*
X123542000Y-97284000D02*
X132305000Y-106047000D01*
X123542000Y-90172000D02*
X123542000Y-97284000D01*
X132305000Y-106047000D02*
X132305000Y-112905000D01*
X133575000Y-106047000D02*
X133575000Y-112905000D01*
X124558000Y-91315000D02*
X124431000Y-91442000D01*
X124431000Y-96903000D02*
X133575000Y-106047000D01*
X124431000Y-91442000D02*
X124431000Y-96903000D01*
X134845000Y-106301000D02*
X134845000Y-112905000D01*
X125574000Y-92077000D02*
X125574000Y-97030000D01*
X125574000Y-97030000D02*
X134845000Y-106301000D01*
X141195000Y-107571000D02*
X141195000Y-113921000D01*
X83405701Y-91945701D02*
X86703402Y-88648000D01*
X126599305Y-88648000D02*
X130527000Y-92575695D01*
X130527000Y-92575695D02*
X130527000Y-96903000D01*
X130527000Y-96903000D02*
X141195000Y-107571000D01*
X86703402Y-88648000D02*
X126599305Y-88648000D01*
X131162000Y-92574299D02*
X131162000Y-96522000D01*
X126727701Y-88140000D02*
X131162000Y-92574299D01*
X85950000Y-88140000D02*
X126727701Y-88140000D01*
X131162000Y-96522000D02*
X142465000Y-107825000D01*
X142465000Y-107825000D02*
X142465000Y-113921000D01*
X81886000Y-92204000D02*
X85950000Y-88140000D01*
X132935701Y-96771701D02*
X143735000Y-107571000D01*
X143735000Y-107571000D02*
X143735000Y-113921000D01*
X132935701Y-92453701D02*
X132935701Y-96771701D01*
X134294994Y-92543701D02*
X134294994Y-96606994D01*
X133870299Y-92119006D02*
X134294994Y-92543701D01*
X134294994Y-96606994D02*
X145005000Y-107317000D01*
X145005000Y-107317000D02*
X145005000Y-113921000D01*
X132935701Y-91192299D02*
X133198299Y-91192299D01*
X133198299Y-91192299D02*
X133870299Y-91864299D01*
X133870299Y-91864299D02*
X133870299Y-92119006D01*
X134595299Y-91818701D02*
X134744994Y-91968396D01*
X134744994Y-91968396D02*
X134744994Y-95786994D01*
X134744994Y-95786994D02*
X147545000Y-108587000D01*
X147545000Y-108587000D02*
X147545000Y-113921000D01*
X138546873Y-92575500D02*
X138156500Y-92575500D01*
X138020000Y-97792000D02*
X148815000Y-108587000D01*
X148815000Y-108587000D02*
X148815000Y-113921000D01*
X138020000Y-92712000D02*
X138020000Y-97792000D01*
X138156500Y-92575500D02*
X138020000Y-92712000D01*
M02*
