M48
; DRILL file {KiCad 7.0.9} date Monday, January 22, 2024 at 10:29:11 PM
; FORMAT={-:-/ absolute / metric / decimal}
; #@! TF.CreationDate,2024-01-22T22:29:11+01:00
; #@! TF.GenerationSoftware,Kicad,Pcbnew,7.0.9
; #@! TF.FileFunction,Plated,1,4,PTH
FMAT,2
METRIC
; #@! TA.AperFunction,Plated,PTH,ViaDrill
T1C0.400
%
G90
G05
T1
X57.375Y-112.905
X58.645Y-112.905
X59.915Y-112.905
X61.185Y-112.905
X62.455Y-112.905
X63.725Y-112.905
X64.233Y-103.507
X64.36Y-91.061
X64.36Y-96.395
X64.995Y-112.905
X65.122Y-102.364
X65.757Y-100.332
X66.171Y-101.602
X66.265Y-112.905
X67.154Y-100.586
X67.535Y-112.905
X68.424Y-96.522
X68.551Y-111.381
X68.805Y-112.905
X70.075Y-112.905
X70.456Y-106.047
X71.345Y-112.905
X72.615Y-112.905
X72.742Y-102.999
X73.885Y-112.905
X74.266Y-97.575
X75.155Y-112.905
X75.409Y-97.411
X75.536Y-88.775
X76.294Y-96.772
X76.425Y-112.905
X77.056Y-96.01
X77.695Y-112.905
X77.818Y-95.248
X78.584Y-91.696
X78.707Y-94.359
X78.965Y-112.905
X79.416Y-93.474
X80.235Y-111.381
X80.235Y-112.905
X80.339Y-92.726
X81.505Y-112.905
X81.886Y-92.204
X82.775Y-112.905
X83.406Y-91.946
X83.499Y-98.046
X83.537Y-88.521
X84.045Y-112.905
X85.061Y-95.887
X85.315Y-112.905
X85.785Y-97.157
X85.891Y-94.177
X86.585Y-112.905
X87.235Y-98.427
X87.362Y-95.394
X87.601Y-92.331
X87.855Y-112.905
X88.499Y-98.3
X89.125Y-112.905
X89.379Y-103.253
X90.395Y-112.905
X91.538Y-94.744
X91.665Y-96.903
X91.665Y-110.873
X91.665Y-112.905
X92.554Y-97.792
X92.935Y-112.905
X93.659Y-98.554
X94.078Y-93.22
X94.205Y-112.905
X95.221Y-98.427
X95.475Y-112.905
X96.745Y-112.905
X97.126Y-102.491
X98.015Y-112.905
X99.285Y-112.905
X100.555Y-112.905
X101.825Y-112.905
X102.587Y-91.315
X103.603Y-108.46
X105.381Y-95.506
X105.83Y-97.03
X106.778Y-96.268
X106.905Y-94.109
X107.54Y-95.506
X108.175Y-112.905
X108.302Y-92.585
X108.302Y-94.744
X109.064Y-93.982
X109.445Y-112.905
X109.699Y-91.188
X109.826Y-93.22
X110.461Y-107.19
X110.588Y-92.458
X110.715Y-112.905
X111.35Y-91.442
X111.985Y-112.905
X112.239Y-98.427
X112.874Y-107.952
X113.255Y-112.905
X113.636Y-92.165
X113.636Y-104.831
X114.271Y-107.952
X114.525Y-112.905
X115.668Y-107.952
X115.795Y-112.905
X117.065Y-107.952
X117.065Y-112.905
X117.192Y-95.252
X118.335Y-107.952
X118.335Y-112.905
X119.605Y-107.952
X119.605Y-112.905
X120.621Y-111.456
X120.875Y-108.079
X120.875Y-112.905
X122.145Y-112.905
X122.272Y-93.601
X122.272Y-96.268
X122.526Y-108.206
X123.415Y-112.905
X123.542Y-90.172
X124.558Y-91.315
X124.558Y-100.713
X124.685Y-112.905
X125.574Y-92.077
X125.955Y-90.553
X125.955Y-112.905
X126.336Y-93.093
X127.225Y-112.905
X127.381Y-93.884
X127.86Y-92.585
X128.495Y-112.905
X129.259Y-96.389
X129.765Y-112.905
X130.654Y-90.426
X131.035Y-112.905
X132.051Y-94.109
X132.305Y-112.905
X132.936Y-91.192
X132.936Y-92.454
X133.575Y-112.905
X134.595Y-91.819
X134.845Y-112.905
X134.972Y-90.524
X136.115Y-112.905
X137.385Y-112.905
X138.547Y-92.575
X138.655Y-112.905
X138.744Y-95.575
X139.925Y-111.381
X139.925Y-112.905
X141.195Y-112.905
X141.903Y-94.744
X141.903Y-98.554
X142.465Y-112.905
X143.735Y-112.905
X145.005Y-112.905
X146.148Y-91.569
X146.148Y-94.744
X146.275Y-112.905
X147.545Y-112.905
X148.815Y-112.905
X150.085Y-112.905
X151.355Y-112.905
X152.625Y-112.905
T0
M30
