G04 #@! TF.GenerationSoftware,KiCad,Pcbnew,7.0.9*
G04 #@! TF.CreationDate,2024-01-22T22:29:06+01:00*
G04 #@! TF.ProjectId,simm72_ram_8M10,73696d6d-3732-45f7-9261-6d5f384d3130,A*
G04 #@! TF.SameCoordinates,Original*
G04 #@! TF.FileFunction,Legend,Top*
G04 #@! TF.FilePolarity,Positive*
%FSLAX46Y46*%
G04 Gerber Fmt 4.6, Leading zero omitted, Abs format (unit mm)*
G04 Created by KiCad (PCBNEW 7.0.9) date 2024-01-22 22:29:06*
%MOMM*%
%LPD*%
G01*
G04 APERTURE LIST*
G04 Aperture macros list*
%AMRoundRect*
0 Rectangle with rounded corners*
0 $1 Rounding radius*
0 $2 $3 $4 $5 $6 $7 $8 $9 X,Y pos of 4 corners*
0 Add a 4 corners polygon primitive as box body*
4,1,4,$2,$3,$4,$5,$6,$7,$8,$9,$2,$3,0*
0 Add four circle primitives for the rounded corners*
1,1,$1+$1,$2,$3*
1,1,$1+$1,$4,$5*
1,1,$1+$1,$6,$7*
1,1,$1+$1,$8,$9*
0 Add four rect primitives between the rounded corners*
20,1,$1+$1,$2,$3,$4,$5,0*
20,1,$1+$1,$4,$5,$6,$7,0*
20,1,$1+$1,$6,$7,$8,$9,0*
20,1,$1+$1,$8,$9,$2,$3,0*%
G04 Aperture macros list end*
%ADD10C,0.150000*%
%ADD11C,0.120000*%
%ADD12C,0.200000*%
%ADD13R,1.040000X2.540000*%
%ADD14RoundRect,0.250000X0.650000X-0.412500X0.650000X0.412500X-0.650000X0.412500X-0.650000X-0.412500X0*%
%ADD15R,1.300000X0.300000*%
G04 APERTURE END LIST*
D10*
X71836779Y-100169819D02*
X71836779Y-99169819D01*
X72265350Y-100122200D02*
X72408207Y-100169819D01*
X72408207Y-100169819D02*
X72646302Y-100169819D01*
X72646302Y-100169819D02*
X72741540Y-100122200D01*
X72741540Y-100122200D02*
X72789159Y-100074580D01*
X72789159Y-100074580D02*
X72836778Y-99979342D01*
X72836778Y-99979342D02*
X72836778Y-99884104D01*
X72836778Y-99884104D02*
X72789159Y-99788866D01*
X72789159Y-99788866D02*
X72741540Y-99741247D01*
X72741540Y-99741247D02*
X72646302Y-99693628D01*
X72646302Y-99693628D02*
X72455826Y-99646009D01*
X72455826Y-99646009D02*
X72360588Y-99598390D01*
X72360588Y-99598390D02*
X72312969Y-99550771D01*
X72312969Y-99550771D02*
X72265350Y-99455533D01*
X72265350Y-99455533D02*
X72265350Y-99360295D01*
X72265350Y-99360295D02*
X72312969Y-99265057D01*
X72312969Y-99265057D02*
X72360588Y-99217438D01*
X72360588Y-99217438D02*
X72455826Y-99169819D01*
X72455826Y-99169819D02*
X72693921Y-99169819D01*
X72693921Y-99169819D02*
X72836778Y-99217438D01*
X73693921Y-99169819D02*
X73503445Y-99169819D01*
X73503445Y-99169819D02*
X73408207Y-99217438D01*
X73408207Y-99217438D02*
X73360588Y-99265057D01*
X73360588Y-99265057D02*
X73265350Y-99407914D01*
X73265350Y-99407914D02*
X73217731Y-99598390D01*
X73217731Y-99598390D02*
X73217731Y-99979342D01*
X73217731Y-99979342D02*
X73265350Y-100074580D01*
X73265350Y-100074580D02*
X73312969Y-100122200D01*
X73312969Y-100122200D02*
X73408207Y-100169819D01*
X73408207Y-100169819D02*
X73598683Y-100169819D01*
X73598683Y-100169819D02*
X73693921Y-100122200D01*
X73693921Y-100122200D02*
X73741540Y-100074580D01*
X73741540Y-100074580D02*
X73789159Y-99979342D01*
X73789159Y-99979342D02*
X73789159Y-99741247D01*
X73789159Y-99741247D02*
X73741540Y-99646009D01*
X73741540Y-99646009D02*
X73693921Y-99598390D01*
X73693921Y-99598390D02*
X73598683Y-99550771D01*
X73598683Y-99550771D02*
X73408207Y-99550771D01*
X73408207Y-99550771D02*
X73312969Y-99598390D01*
X73312969Y-99598390D02*
X73265350Y-99646009D01*
X73265350Y-99646009D02*
X73217731Y-99741247D01*
X74741540Y-100169819D02*
X74170112Y-100169819D01*
X74455826Y-100169819D02*
X74455826Y-99169819D01*
X74455826Y-99169819D02*
X74360588Y-99312676D01*
X74360588Y-99312676D02*
X74265350Y-99407914D01*
X74265350Y-99407914D02*
X74170112Y-99455533D01*
X75074874Y-99169819D02*
X75312969Y-100169819D01*
X75312969Y-100169819D02*
X75503445Y-99455533D01*
X75503445Y-99455533D02*
X75693921Y-100169819D01*
X75693921Y-100169819D02*
X75932017Y-99169819D01*
X76170112Y-99169819D02*
X76503445Y-100169819D01*
X76503445Y-100169819D02*
X76836778Y-99169819D01*
X77122493Y-99265057D02*
X77170112Y-99217438D01*
X77170112Y-99217438D02*
X77265350Y-99169819D01*
X77265350Y-99169819D02*
X77503445Y-99169819D01*
X77503445Y-99169819D02*
X77598683Y-99217438D01*
X77598683Y-99217438D02*
X77646302Y-99265057D01*
X77646302Y-99265057D02*
X77693921Y-99360295D01*
X77693921Y-99360295D02*
X77693921Y-99455533D01*
X77693921Y-99455533D02*
X77646302Y-99598390D01*
X77646302Y-99598390D02*
X77074874Y-100169819D01*
X77074874Y-100169819D02*
X77693921Y-100169819D01*
X78312969Y-99169819D02*
X78408207Y-99169819D01*
X78408207Y-99169819D02*
X78503445Y-99217438D01*
X78503445Y-99217438D02*
X78551064Y-99265057D01*
X78551064Y-99265057D02*
X78598683Y-99360295D01*
X78598683Y-99360295D02*
X78646302Y-99550771D01*
X78646302Y-99550771D02*
X78646302Y-99788866D01*
X78646302Y-99788866D02*
X78598683Y-99979342D01*
X78598683Y-99979342D02*
X78551064Y-100074580D01*
X78551064Y-100074580D02*
X78503445Y-100122200D01*
X78503445Y-100122200D02*
X78408207Y-100169819D01*
X78408207Y-100169819D02*
X78312969Y-100169819D01*
X78312969Y-100169819D02*
X78217731Y-100122200D01*
X78217731Y-100122200D02*
X78170112Y-100074580D01*
X78170112Y-100074580D02*
X78122493Y-99979342D01*
X78122493Y-99979342D02*
X78074874Y-99788866D01*
X78074874Y-99788866D02*
X78074874Y-99550771D01*
X78074874Y-99550771D02*
X78122493Y-99360295D01*
X78122493Y-99360295D02*
X78170112Y-99265057D01*
X78170112Y-99265057D02*
X78217731Y-99217438D01*
X78217731Y-99217438D02*
X78312969Y-99169819D01*
X79503445Y-99503152D02*
X79503445Y-100169819D01*
X79265350Y-99122200D02*
X79027255Y-99836485D01*
X79027255Y-99836485D02*
X79646302Y-99836485D01*
X80170112Y-99598390D02*
X80074874Y-99550771D01*
X80074874Y-99550771D02*
X80027255Y-99503152D01*
X80027255Y-99503152D02*
X79979636Y-99407914D01*
X79979636Y-99407914D02*
X79979636Y-99360295D01*
X79979636Y-99360295D02*
X80027255Y-99265057D01*
X80027255Y-99265057D02*
X80074874Y-99217438D01*
X80074874Y-99217438D02*
X80170112Y-99169819D01*
X80170112Y-99169819D02*
X80360588Y-99169819D01*
X80360588Y-99169819D02*
X80455826Y-99217438D01*
X80455826Y-99217438D02*
X80503445Y-99265057D01*
X80503445Y-99265057D02*
X80551064Y-99360295D01*
X80551064Y-99360295D02*
X80551064Y-99407914D01*
X80551064Y-99407914D02*
X80503445Y-99503152D01*
X80503445Y-99503152D02*
X80455826Y-99550771D01*
X80455826Y-99550771D02*
X80360588Y-99598390D01*
X80360588Y-99598390D02*
X80170112Y-99598390D01*
X80170112Y-99598390D02*
X80074874Y-99646009D01*
X80074874Y-99646009D02*
X80027255Y-99693628D01*
X80027255Y-99693628D02*
X79979636Y-99788866D01*
X79979636Y-99788866D02*
X79979636Y-99979342D01*
X79979636Y-99979342D02*
X80027255Y-100074580D01*
X80027255Y-100074580D02*
X80074874Y-100122200D01*
X80074874Y-100122200D02*
X80170112Y-100169819D01*
X80170112Y-100169819D02*
X80360588Y-100169819D01*
X80360588Y-100169819D02*
X80455826Y-100122200D01*
X80455826Y-100122200D02*
X80503445Y-100074580D01*
X80503445Y-100074580D02*
X80551064Y-99979342D01*
X80551064Y-99979342D02*
X80551064Y-99788866D01*
X80551064Y-99788866D02*
X80503445Y-99693628D01*
X80503445Y-99693628D02*
X80455826Y-99646009D01*
X80455826Y-99646009D02*
X80360588Y-99598390D01*
X81503445Y-100169819D02*
X80932017Y-100169819D01*
X81217731Y-100169819D02*
X81217731Y-99169819D01*
X81217731Y-99169819D02*
X81122493Y-99312676D01*
X81122493Y-99312676D02*
X81027255Y-99407914D01*
X81027255Y-99407914D02*
X80932017Y-99455533D01*
X82360588Y-99169819D02*
X82170112Y-99169819D01*
X82170112Y-99169819D02*
X82074874Y-99217438D01*
X82074874Y-99217438D02*
X82027255Y-99265057D01*
X82027255Y-99265057D02*
X81932017Y-99407914D01*
X81932017Y-99407914D02*
X81884398Y-99598390D01*
X81884398Y-99598390D02*
X81884398Y-99979342D01*
X81884398Y-99979342D02*
X81932017Y-100074580D01*
X81932017Y-100074580D02*
X81979636Y-100122200D01*
X81979636Y-100122200D02*
X82074874Y-100169819D01*
X82074874Y-100169819D02*
X82265350Y-100169819D01*
X82265350Y-100169819D02*
X82360588Y-100122200D01*
X82360588Y-100122200D02*
X82408207Y-100074580D01*
X82408207Y-100074580D02*
X82455826Y-99979342D01*
X82455826Y-99979342D02*
X82455826Y-99741247D01*
X82455826Y-99741247D02*
X82408207Y-99646009D01*
X82408207Y-99646009D02*
X82360588Y-99598390D01*
X82360588Y-99598390D02*
X82265350Y-99550771D01*
X82265350Y-99550771D02*
X82074874Y-99550771D01*
X82074874Y-99550771D02*
X81979636Y-99598390D01*
X81979636Y-99598390D02*
X81932017Y-99646009D01*
X81932017Y-99646009D02*
X81884398Y-99741247D01*
X83217731Y-99646009D02*
X83360588Y-99693628D01*
X83360588Y-99693628D02*
X83408207Y-99741247D01*
X83408207Y-99741247D02*
X83455826Y-99836485D01*
X83455826Y-99836485D02*
X83455826Y-99979342D01*
X83455826Y-99979342D02*
X83408207Y-100074580D01*
X83408207Y-100074580D02*
X83360588Y-100122200D01*
X83360588Y-100122200D02*
X83265350Y-100169819D01*
X83265350Y-100169819D02*
X82884398Y-100169819D01*
X82884398Y-100169819D02*
X82884398Y-99169819D01*
X82884398Y-99169819D02*
X83217731Y-99169819D01*
X83217731Y-99169819D02*
X83312969Y-99217438D01*
X83312969Y-99217438D02*
X83360588Y-99265057D01*
X83360588Y-99265057D02*
X83408207Y-99360295D01*
X83408207Y-99360295D02*
X83408207Y-99455533D01*
X83408207Y-99455533D02*
X83360588Y-99550771D01*
X83360588Y-99550771D02*
X83312969Y-99598390D01*
X83312969Y-99598390D02*
X83217731Y-99646009D01*
X83217731Y-99646009D02*
X82884398Y-99646009D01*
X84360588Y-100169819D02*
X83884398Y-100169819D01*
X83884398Y-100169819D02*
X83884398Y-99169819D01*
X85170112Y-100169819D02*
X84693922Y-100169819D01*
X84693922Y-100169819D02*
X84693922Y-99169819D01*
X85503446Y-99788866D02*
X86265351Y-99788866D01*
X87265350Y-100169819D02*
X86693922Y-100169819D01*
X86979636Y-100169819D02*
X86979636Y-99169819D01*
X86979636Y-99169819D02*
X86884398Y-99312676D01*
X86884398Y-99312676D02*
X86789160Y-99407914D01*
X86789160Y-99407914D02*
X86693922Y-99455533D01*
X87884398Y-99169819D02*
X87979636Y-99169819D01*
X87979636Y-99169819D02*
X88074874Y-99217438D01*
X88074874Y-99217438D02*
X88122493Y-99265057D01*
X88122493Y-99265057D02*
X88170112Y-99360295D01*
X88170112Y-99360295D02*
X88217731Y-99550771D01*
X88217731Y-99550771D02*
X88217731Y-99788866D01*
X88217731Y-99788866D02*
X88170112Y-99979342D01*
X88170112Y-99979342D02*
X88122493Y-100074580D01*
X88122493Y-100074580D02*
X88074874Y-100122200D01*
X88074874Y-100122200D02*
X87979636Y-100169819D01*
X87979636Y-100169819D02*
X87884398Y-100169819D01*
X87884398Y-100169819D02*
X87789160Y-100122200D01*
X87789160Y-100122200D02*
X87741541Y-100074580D01*
X87741541Y-100074580D02*
X87693922Y-99979342D01*
X87693922Y-99979342D02*
X87646303Y-99788866D01*
X87646303Y-99788866D02*
X87646303Y-99550771D01*
X87646303Y-99550771D02*
X87693922Y-99360295D01*
X87693922Y-99360295D02*
X87741541Y-99265057D01*
X87741541Y-99265057D02*
X87789160Y-99217438D01*
X87789160Y-99217438D02*
X87884398Y-99169819D01*
G36*
X149700154Y-84842808D02*
G01*
X149532360Y-84955159D01*
X149700154Y-85067511D01*
X149700154Y-85768000D01*
X148527789Y-85768000D01*
X148527789Y-85459765D01*
X149031173Y-85459765D01*
X149196037Y-85459765D01*
X149196037Y-85207706D01*
X149113239Y-85151531D01*
X149031173Y-85207706D01*
X149031173Y-85459765D01*
X148527789Y-85459765D01*
X148527789Y-85067511D01*
X148695584Y-84955159D01*
X148527789Y-84842808D01*
X148527789Y-84450554D01*
X149031173Y-84450554D01*
X149031173Y-84758788D01*
X149113972Y-84814964D01*
X149196037Y-84758788D01*
X149196037Y-84450554D01*
X149031173Y-84450554D01*
X148527789Y-84450554D01*
X148527789Y-84142319D01*
X149700154Y-84142319D01*
X149700154Y-84842808D01*
G37*
G36*
X149870147Y-86186632D02*
G01*
X149870147Y-84142319D01*
X151710762Y-84142319D01*
X151710762Y-85766534D01*
X151206644Y-85934573D01*
X151206644Y-84450554D01*
X151042513Y-84450554D01*
X151042513Y-85766534D01*
X150538396Y-85934573D01*
X150538396Y-84450554D01*
X150373532Y-84450554D01*
X150373532Y-85990749D01*
X149870147Y-86186632D01*
G37*
G36*
X153056051Y-84842808D02*
G01*
X152762227Y-84955159D01*
X153056051Y-85067511D01*
X153056051Y-85768000D01*
X151883685Y-85768000D01*
X151883685Y-85095355D01*
X152387070Y-85095355D01*
X152387070Y-85459765D01*
X152551934Y-85459765D01*
X152551934Y-85151531D01*
X152387070Y-85095355D01*
X151883685Y-85095355D01*
X151883685Y-84450554D01*
X152387070Y-84450554D01*
X152387070Y-84814964D01*
X152551934Y-84758788D01*
X152551934Y-84450554D01*
X152387070Y-84450554D01*
X151883685Y-84450554D01*
X151883685Y-84142319D01*
X153056051Y-84142319D01*
X153056051Y-84842808D01*
G37*
G36*
X154268717Y-86046436D02*
G01*
X154268717Y-84450554D01*
X154059157Y-84450554D01*
X154059157Y-84142319D01*
X154814600Y-84142319D01*
X154814600Y-85850554D01*
X154268717Y-86046436D01*
G37*
G36*
X156159889Y-85768000D02*
G01*
X154987524Y-85768000D01*
X154987524Y-84450554D01*
X155490908Y-84450554D01*
X155490908Y-85459765D01*
X155655772Y-85459765D01*
X155655772Y-84450554D01*
X155490908Y-84450554D01*
X154987524Y-84450554D01*
X154987524Y-84142319D01*
X156159889Y-84142319D01*
X156159889Y-85768000D01*
G37*
G36*
X157502248Y-85766534D02*
G01*
X156998131Y-85766534D01*
X156998131Y-84450554D01*
X156833267Y-84450554D01*
X156833267Y-85766534D01*
X156329882Y-85766534D01*
X156329882Y-84142319D01*
X157502248Y-84142319D01*
X157502248Y-85766534D01*
G37*
G36*
X158175625Y-84450554D02*
G01*
X158175625Y-84646925D01*
X158427684Y-84814964D01*
X158427684Y-85768000D01*
X157662715Y-85768000D01*
X157662715Y-85459765D01*
X157881801Y-85459765D01*
X157881801Y-84898983D01*
X157672241Y-84758788D01*
X157672241Y-84142319D01*
X158427684Y-84142319D01*
X158427684Y-84450554D01*
X158175625Y-84450554D01*
G37*
X122336779Y-100169819D02*
X122336779Y-99169819D01*
X122765350Y-100122200D02*
X122908207Y-100169819D01*
X122908207Y-100169819D02*
X123146302Y-100169819D01*
X123146302Y-100169819D02*
X123241540Y-100122200D01*
X123241540Y-100122200D02*
X123289159Y-100074580D01*
X123289159Y-100074580D02*
X123336778Y-99979342D01*
X123336778Y-99979342D02*
X123336778Y-99884104D01*
X123336778Y-99884104D02*
X123289159Y-99788866D01*
X123289159Y-99788866D02*
X123241540Y-99741247D01*
X123241540Y-99741247D02*
X123146302Y-99693628D01*
X123146302Y-99693628D02*
X122955826Y-99646009D01*
X122955826Y-99646009D02*
X122860588Y-99598390D01*
X122860588Y-99598390D02*
X122812969Y-99550771D01*
X122812969Y-99550771D02*
X122765350Y-99455533D01*
X122765350Y-99455533D02*
X122765350Y-99360295D01*
X122765350Y-99360295D02*
X122812969Y-99265057D01*
X122812969Y-99265057D02*
X122860588Y-99217438D01*
X122860588Y-99217438D02*
X122955826Y-99169819D01*
X122955826Y-99169819D02*
X123193921Y-99169819D01*
X123193921Y-99169819D02*
X123336778Y-99217438D01*
X124193921Y-99169819D02*
X124003445Y-99169819D01*
X124003445Y-99169819D02*
X123908207Y-99217438D01*
X123908207Y-99217438D02*
X123860588Y-99265057D01*
X123860588Y-99265057D02*
X123765350Y-99407914D01*
X123765350Y-99407914D02*
X123717731Y-99598390D01*
X123717731Y-99598390D02*
X123717731Y-99979342D01*
X123717731Y-99979342D02*
X123765350Y-100074580D01*
X123765350Y-100074580D02*
X123812969Y-100122200D01*
X123812969Y-100122200D02*
X123908207Y-100169819D01*
X123908207Y-100169819D02*
X124098683Y-100169819D01*
X124098683Y-100169819D02*
X124193921Y-100122200D01*
X124193921Y-100122200D02*
X124241540Y-100074580D01*
X124241540Y-100074580D02*
X124289159Y-99979342D01*
X124289159Y-99979342D02*
X124289159Y-99741247D01*
X124289159Y-99741247D02*
X124241540Y-99646009D01*
X124241540Y-99646009D02*
X124193921Y-99598390D01*
X124193921Y-99598390D02*
X124098683Y-99550771D01*
X124098683Y-99550771D02*
X123908207Y-99550771D01*
X123908207Y-99550771D02*
X123812969Y-99598390D01*
X123812969Y-99598390D02*
X123765350Y-99646009D01*
X123765350Y-99646009D02*
X123717731Y-99741247D01*
X125241540Y-100169819D02*
X124670112Y-100169819D01*
X124955826Y-100169819D02*
X124955826Y-99169819D01*
X124955826Y-99169819D02*
X124860588Y-99312676D01*
X124860588Y-99312676D02*
X124765350Y-99407914D01*
X124765350Y-99407914D02*
X124670112Y-99455533D01*
X125574874Y-99169819D02*
X125812969Y-100169819D01*
X125812969Y-100169819D02*
X126003445Y-99455533D01*
X126003445Y-99455533D02*
X126193921Y-100169819D01*
X126193921Y-100169819D02*
X126432017Y-99169819D01*
X126670112Y-99169819D02*
X127003445Y-100169819D01*
X127003445Y-100169819D02*
X127336778Y-99169819D01*
X127622493Y-99265057D02*
X127670112Y-99217438D01*
X127670112Y-99217438D02*
X127765350Y-99169819D01*
X127765350Y-99169819D02*
X128003445Y-99169819D01*
X128003445Y-99169819D02*
X128098683Y-99217438D01*
X128098683Y-99217438D02*
X128146302Y-99265057D01*
X128146302Y-99265057D02*
X128193921Y-99360295D01*
X128193921Y-99360295D02*
X128193921Y-99455533D01*
X128193921Y-99455533D02*
X128146302Y-99598390D01*
X128146302Y-99598390D02*
X127574874Y-100169819D01*
X127574874Y-100169819D02*
X128193921Y-100169819D01*
X128812969Y-99169819D02*
X128908207Y-99169819D01*
X128908207Y-99169819D02*
X129003445Y-99217438D01*
X129003445Y-99217438D02*
X129051064Y-99265057D01*
X129051064Y-99265057D02*
X129098683Y-99360295D01*
X129098683Y-99360295D02*
X129146302Y-99550771D01*
X129146302Y-99550771D02*
X129146302Y-99788866D01*
X129146302Y-99788866D02*
X129098683Y-99979342D01*
X129098683Y-99979342D02*
X129051064Y-100074580D01*
X129051064Y-100074580D02*
X129003445Y-100122200D01*
X129003445Y-100122200D02*
X128908207Y-100169819D01*
X128908207Y-100169819D02*
X128812969Y-100169819D01*
X128812969Y-100169819D02*
X128717731Y-100122200D01*
X128717731Y-100122200D02*
X128670112Y-100074580D01*
X128670112Y-100074580D02*
X128622493Y-99979342D01*
X128622493Y-99979342D02*
X128574874Y-99788866D01*
X128574874Y-99788866D02*
X128574874Y-99550771D01*
X128574874Y-99550771D02*
X128622493Y-99360295D01*
X128622493Y-99360295D02*
X128670112Y-99265057D01*
X128670112Y-99265057D02*
X128717731Y-99217438D01*
X128717731Y-99217438D02*
X128812969Y-99169819D01*
X130003445Y-99503152D02*
X130003445Y-100169819D01*
X129765350Y-99122200D02*
X129527255Y-99836485D01*
X129527255Y-99836485D02*
X130146302Y-99836485D01*
X130670112Y-99598390D02*
X130574874Y-99550771D01*
X130574874Y-99550771D02*
X130527255Y-99503152D01*
X130527255Y-99503152D02*
X130479636Y-99407914D01*
X130479636Y-99407914D02*
X130479636Y-99360295D01*
X130479636Y-99360295D02*
X130527255Y-99265057D01*
X130527255Y-99265057D02*
X130574874Y-99217438D01*
X130574874Y-99217438D02*
X130670112Y-99169819D01*
X130670112Y-99169819D02*
X130860588Y-99169819D01*
X130860588Y-99169819D02*
X130955826Y-99217438D01*
X130955826Y-99217438D02*
X131003445Y-99265057D01*
X131003445Y-99265057D02*
X131051064Y-99360295D01*
X131051064Y-99360295D02*
X131051064Y-99407914D01*
X131051064Y-99407914D02*
X131003445Y-99503152D01*
X131003445Y-99503152D02*
X130955826Y-99550771D01*
X130955826Y-99550771D02*
X130860588Y-99598390D01*
X130860588Y-99598390D02*
X130670112Y-99598390D01*
X130670112Y-99598390D02*
X130574874Y-99646009D01*
X130574874Y-99646009D02*
X130527255Y-99693628D01*
X130527255Y-99693628D02*
X130479636Y-99788866D01*
X130479636Y-99788866D02*
X130479636Y-99979342D01*
X130479636Y-99979342D02*
X130527255Y-100074580D01*
X130527255Y-100074580D02*
X130574874Y-100122200D01*
X130574874Y-100122200D02*
X130670112Y-100169819D01*
X130670112Y-100169819D02*
X130860588Y-100169819D01*
X130860588Y-100169819D02*
X130955826Y-100122200D01*
X130955826Y-100122200D02*
X131003445Y-100074580D01*
X131003445Y-100074580D02*
X131051064Y-99979342D01*
X131051064Y-99979342D02*
X131051064Y-99788866D01*
X131051064Y-99788866D02*
X131003445Y-99693628D01*
X131003445Y-99693628D02*
X130955826Y-99646009D01*
X130955826Y-99646009D02*
X130860588Y-99598390D01*
X132003445Y-100169819D02*
X131432017Y-100169819D01*
X131717731Y-100169819D02*
X131717731Y-99169819D01*
X131717731Y-99169819D02*
X131622493Y-99312676D01*
X131622493Y-99312676D02*
X131527255Y-99407914D01*
X131527255Y-99407914D02*
X131432017Y-99455533D01*
X132860588Y-99169819D02*
X132670112Y-99169819D01*
X132670112Y-99169819D02*
X132574874Y-99217438D01*
X132574874Y-99217438D02*
X132527255Y-99265057D01*
X132527255Y-99265057D02*
X132432017Y-99407914D01*
X132432017Y-99407914D02*
X132384398Y-99598390D01*
X132384398Y-99598390D02*
X132384398Y-99979342D01*
X132384398Y-99979342D02*
X132432017Y-100074580D01*
X132432017Y-100074580D02*
X132479636Y-100122200D01*
X132479636Y-100122200D02*
X132574874Y-100169819D01*
X132574874Y-100169819D02*
X132765350Y-100169819D01*
X132765350Y-100169819D02*
X132860588Y-100122200D01*
X132860588Y-100122200D02*
X132908207Y-100074580D01*
X132908207Y-100074580D02*
X132955826Y-99979342D01*
X132955826Y-99979342D02*
X132955826Y-99741247D01*
X132955826Y-99741247D02*
X132908207Y-99646009D01*
X132908207Y-99646009D02*
X132860588Y-99598390D01*
X132860588Y-99598390D02*
X132765350Y-99550771D01*
X132765350Y-99550771D02*
X132574874Y-99550771D01*
X132574874Y-99550771D02*
X132479636Y-99598390D01*
X132479636Y-99598390D02*
X132432017Y-99646009D01*
X132432017Y-99646009D02*
X132384398Y-99741247D01*
X133717731Y-99646009D02*
X133860588Y-99693628D01*
X133860588Y-99693628D02*
X133908207Y-99741247D01*
X133908207Y-99741247D02*
X133955826Y-99836485D01*
X133955826Y-99836485D02*
X133955826Y-99979342D01*
X133955826Y-99979342D02*
X133908207Y-100074580D01*
X133908207Y-100074580D02*
X133860588Y-100122200D01*
X133860588Y-100122200D02*
X133765350Y-100169819D01*
X133765350Y-100169819D02*
X133384398Y-100169819D01*
X133384398Y-100169819D02*
X133384398Y-99169819D01*
X133384398Y-99169819D02*
X133717731Y-99169819D01*
X133717731Y-99169819D02*
X133812969Y-99217438D01*
X133812969Y-99217438D02*
X133860588Y-99265057D01*
X133860588Y-99265057D02*
X133908207Y-99360295D01*
X133908207Y-99360295D02*
X133908207Y-99455533D01*
X133908207Y-99455533D02*
X133860588Y-99550771D01*
X133860588Y-99550771D02*
X133812969Y-99598390D01*
X133812969Y-99598390D02*
X133717731Y-99646009D01*
X133717731Y-99646009D02*
X133384398Y-99646009D01*
X134860588Y-100169819D02*
X134384398Y-100169819D01*
X134384398Y-100169819D02*
X134384398Y-99169819D01*
X135670112Y-100169819D02*
X135193922Y-100169819D01*
X135193922Y-100169819D02*
X135193922Y-99169819D01*
X136003446Y-99788866D02*
X136765351Y-99788866D01*
X137765350Y-100169819D02*
X137193922Y-100169819D01*
X137479636Y-100169819D02*
X137479636Y-99169819D01*
X137479636Y-99169819D02*
X137384398Y-99312676D01*
X137384398Y-99312676D02*
X137289160Y-99407914D01*
X137289160Y-99407914D02*
X137193922Y-99455533D01*
X138384398Y-99169819D02*
X138479636Y-99169819D01*
X138479636Y-99169819D02*
X138574874Y-99217438D01*
X138574874Y-99217438D02*
X138622493Y-99265057D01*
X138622493Y-99265057D02*
X138670112Y-99360295D01*
X138670112Y-99360295D02*
X138717731Y-99550771D01*
X138717731Y-99550771D02*
X138717731Y-99788866D01*
X138717731Y-99788866D02*
X138670112Y-99979342D01*
X138670112Y-99979342D02*
X138622493Y-100074580D01*
X138622493Y-100074580D02*
X138574874Y-100122200D01*
X138574874Y-100122200D02*
X138479636Y-100169819D01*
X138479636Y-100169819D02*
X138384398Y-100169819D01*
X138384398Y-100169819D02*
X138289160Y-100122200D01*
X138289160Y-100122200D02*
X138241541Y-100074580D01*
X138241541Y-100074580D02*
X138193922Y-99979342D01*
X138193922Y-99979342D02*
X138146303Y-99788866D01*
X138146303Y-99788866D02*
X138146303Y-99550771D01*
X138146303Y-99550771D02*
X138193922Y-99360295D01*
X138193922Y-99360295D02*
X138241541Y-99265057D01*
X138241541Y-99265057D02*
X138289160Y-99217438D01*
X138289160Y-99217438D02*
X138384398Y-99169819D01*
G36*
X52799154Y-85025495D02*
G01*
X52505330Y-85137358D01*
X52799154Y-85249710D01*
X52799154Y-85893534D01*
X52295037Y-86061573D01*
X52295037Y-85389417D01*
X52130173Y-85333729D01*
X52130173Y-86117749D01*
X51626789Y-86313632D01*
X51626789Y-84577554D01*
X52130173Y-84577554D01*
X52130173Y-84941475D01*
X52295037Y-84885300D01*
X52295037Y-84577554D01*
X52130173Y-84577554D01*
X51626789Y-84577554D01*
X51626789Y-84269319D01*
X52799154Y-84269319D01*
X52799154Y-85025495D01*
G37*
G36*
X52969147Y-84885788D02*
G01*
X53472532Y-84689905D01*
X53472532Y-85586765D01*
X53637396Y-85586765D01*
X53637396Y-84577554D01*
X52965484Y-84577554D01*
X52965484Y-84269319D01*
X54141513Y-84269319D01*
X54141513Y-85895000D01*
X52969147Y-85895000D01*
X52969147Y-84885788D01*
G37*
G36*
X54311506Y-84270785D02*
G01*
X54814891Y-84270785D01*
X54814891Y-85642941D01*
X54979755Y-85586765D01*
X54979755Y-84270785D01*
X55483872Y-84270785D01*
X55483872Y-85754804D01*
X54311506Y-86174902D01*
X54311506Y-84270785D01*
G37*
G36*
X56826230Y-85278531D02*
G01*
X56322113Y-85502745D01*
X56322113Y-84577554D01*
X56157249Y-84577554D01*
X56157249Y-85586765D01*
X56829894Y-85586765D01*
X56829894Y-85895000D01*
X55653865Y-85895000D01*
X55653865Y-84269319D01*
X56826230Y-84269319D01*
X56826230Y-85278531D01*
G37*
G36*
X58168589Y-85893534D02*
G01*
X57664472Y-85893534D01*
X57664472Y-84577554D01*
X57499608Y-84577554D01*
X57499608Y-85893534D01*
X56996224Y-85893534D01*
X56996224Y-84269319D01*
X58168589Y-84269319D01*
X58168589Y-85893534D01*
G37*
D11*
X114250000Y-94439252D02*
X114250000Y-93016748D01*
X116070000Y-94439252D02*
X116070000Y-93016748D01*
D12*
X90410000Y-101800000D02*
X89110000Y-101800000D01*
X88760000Y-101550000D02*
X71060000Y-101550000D01*
X88760000Y-89550000D02*
X88760000Y-101550000D01*
X71060000Y-101550000D02*
X71060000Y-89550000D01*
X71060000Y-89550000D02*
X88760000Y-89550000D01*
D11*
X145238000Y-94947252D02*
X145238000Y-93524748D01*
X147058000Y-94947252D02*
X147058000Y-93524748D01*
X63450000Y-94439252D02*
X63450000Y-93016748D01*
X65270000Y-94439252D02*
X65270000Y-93016748D01*
D12*
X140900000Y-101800000D02*
X139600000Y-101800000D01*
X139250000Y-101550000D02*
X121550000Y-101550000D01*
X139250000Y-89550000D02*
X139250000Y-101550000D01*
X121550000Y-101550000D02*
X121550000Y-89550000D01*
X121550000Y-89550000D02*
X139250000Y-89550000D01*
D11*
X94692000Y-95455252D02*
X94692000Y-94032748D01*
X96512000Y-95455252D02*
X96512000Y-94032748D01*
%LPC*%
D13*
X57375000Y-113921000D03*
X58645000Y-113921000D03*
X59915000Y-113921000D03*
X61185000Y-113921000D03*
X62455000Y-113921000D03*
X63725000Y-113921000D03*
X64995000Y-113921000D03*
X66265000Y-113921000D03*
X67535000Y-113921000D03*
X68805000Y-113921000D03*
X70075000Y-113921000D03*
X71345000Y-113921000D03*
X72615000Y-113921000D03*
X73885000Y-113921000D03*
X75155000Y-113921000D03*
X76425000Y-113921000D03*
X77695000Y-113921000D03*
X78965000Y-113921000D03*
X80235000Y-113921000D03*
X81505000Y-113921000D03*
X82775000Y-113921000D03*
X84045000Y-113921000D03*
X85315000Y-113921000D03*
X86585000Y-113921000D03*
X87855000Y-113921000D03*
X89125000Y-113921000D03*
X90395000Y-113921000D03*
X91665000Y-113921000D03*
X92935000Y-113921000D03*
X94205000Y-113921000D03*
X95475000Y-113921000D03*
X96745000Y-113921000D03*
X98015000Y-113921000D03*
X99285000Y-113921000D03*
X100555000Y-113921000D03*
X101825000Y-113921000D03*
X108175000Y-113921000D03*
X109445000Y-113921000D03*
X110715000Y-113921000D03*
X111985000Y-113921000D03*
X113255000Y-113921000D03*
X114525000Y-113921000D03*
X115795000Y-113921000D03*
X117065000Y-113921000D03*
X118335000Y-113921000D03*
X119605000Y-113921000D03*
X120875000Y-113921000D03*
X122145000Y-113921000D03*
X123415000Y-113921000D03*
X124685000Y-113921000D03*
X125955000Y-113921000D03*
X127225000Y-113921000D03*
X128495000Y-113921000D03*
X129765000Y-113921000D03*
X131035000Y-113921000D03*
X132305000Y-113921000D03*
X133575000Y-113921000D03*
X134845000Y-113921000D03*
X136115000Y-113921000D03*
X137385000Y-113921000D03*
X138655000Y-113921000D03*
X139925000Y-113921000D03*
X141195000Y-113921000D03*
X142465000Y-113921000D03*
X143735000Y-113921000D03*
X145005000Y-113921000D03*
X146275000Y-113921000D03*
X147545000Y-113921000D03*
X148815000Y-113921000D03*
X150085000Y-113921000D03*
X151355000Y-113921000D03*
X152625000Y-113921000D03*
D14*
X115160000Y-95290500D03*
X115160000Y-92165500D03*
D15*
X89760000Y-101300000D03*
X89760000Y-100800000D03*
X89760000Y-100300000D03*
X89760000Y-99800000D03*
X89760000Y-99300000D03*
X89760000Y-98800000D03*
X89760000Y-98300000D03*
X89760000Y-97800000D03*
X89760000Y-97300000D03*
X89760000Y-96800000D03*
X89760000Y-96300000D03*
X89760000Y-95800000D03*
X89760000Y-95300000D03*
X89760000Y-94800000D03*
X89760000Y-94300000D03*
X89760000Y-93800000D03*
X89760000Y-93300000D03*
X89760000Y-92800000D03*
X89760000Y-92300000D03*
X89760000Y-91800000D03*
X89760000Y-91300000D03*
X89760000Y-90800000D03*
X89760000Y-90300000D03*
X89760000Y-89800000D03*
X70060000Y-89800000D03*
X70060000Y-90300000D03*
X70060000Y-90800000D03*
X70060000Y-91300000D03*
X70060000Y-91800000D03*
X70060000Y-92300000D03*
X70060000Y-92800000D03*
X70060000Y-93300000D03*
X70060000Y-93800000D03*
X70060000Y-94300000D03*
X70060000Y-94800000D03*
X70060000Y-95300000D03*
X70060000Y-95800000D03*
X70060000Y-96300000D03*
X70060000Y-96800000D03*
X70060000Y-97300000D03*
X70060000Y-97800000D03*
X70060000Y-98300000D03*
X70060000Y-98800000D03*
X70060000Y-99300000D03*
X70060000Y-99800000D03*
X70060000Y-100300000D03*
X70060000Y-100800000D03*
X70060000Y-101300000D03*
D14*
X146148000Y-95798500D03*
X146148000Y-92673500D03*
X64360000Y-95290500D03*
X64360000Y-92165500D03*
D15*
X140250000Y-101300000D03*
X140250000Y-100800000D03*
X140250000Y-100300000D03*
X140250000Y-99800000D03*
X140250000Y-99300000D03*
X140250000Y-98800000D03*
X140250000Y-98300000D03*
X140250000Y-97800000D03*
X140250000Y-97300000D03*
X140250000Y-96800000D03*
X140250000Y-96300000D03*
X140250000Y-95800000D03*
X140250000Y-95300000D03*
X140250000Y-94800000D03*
X140250000Y-94300000D03*
X140250000Y-93800000D03*
X140250000Y-93300000D03*
X140250000Y-92800000D03*
X140250000Y-92300000D03*
X140250000Y-91800000D03*
X140250000Y-91300000D03*
X140250000Y-90800000D03*
X140250000Y-90300000D03*
X140250000Y-89800000D03*
X120550000Y-89800000D03*
X120550000Y-90300000D03*
X120550000Y-90800000D03*
X120550000Y-91300000D03*
X120550000Y-91800000D03*
X120550000Y-92300000D03*
X120550000Y-92800000D03*
X120550000Y-93300000D03*
X120550000Y-93800000D03*
X120550000Y-94300000D03*
X120550000Y-94800000D03*
X120550000Y-95300000D03*
X120550000Y-95800000D03*
X120550000Y-96300000D03*
X120550000Y-96800000D03*
X120550000Y-97300000D03*
X120550000Y-97800000D03*
X120550000Y-98300000D03*
X120550000Y-98800000D03*
X120550000Y-99300000D03*
X120550000Y-99800000D03*
X120550000Y-100300000D03*
X120550000Y-100800000D03*
X120550000Y-101300000D03*
D14*
X95602000Y-96306500D03*
X95602000Y-93181500D03*
G36*
X102530039Y-112391285D02*
G01*
X102575794Y-112444089D01*
X102587000Y-112495600D01*
X102587000Y-115321000D01*
X102567315Y-115388039D01*
X102514511Y-115433794D01*
X102463000Y-115445000D01*
X56737000Y-115445000D01*
X56669961Y-115425315D01*
X56624206Y-115372511D01*
X56613000Y-115321000D01*
X56613000Y-112495600D01*
X56632685Y-112428561D01*
X56685489Y-112382806D01*
X56737000Y-112371600D01*
X102463000Y-112371600D01*
X102530039Y-112391285D01*
G37*
G36*
X153330039Y-112391285D02*
G01*
X153375794Y-112444089D01*
X153387000Y-112495600D01*
X153387000Y-115321000D01*
X153367315Y-115388039D01*
X153314511Y-115433794D01*
X153263000Y-115445000D01*
X107537000Y-115445000D01*
X107469961Y-115425315D01*
X107424206Y-115372511D01*
X107413000Y-115321000D01*
X107413000Y-112495600D01*
X107432685Y-112428561D01*
X107485489Y-112382806D01*
X107537000Y-112371600D01*
X153263000Y-112371600D01*
X153330039Y-112391285D01*
G37*
%LPD*%
M02*
