G04 #@! TF.GenerationSoftware,KiCad,Pcbnew,7.0.9*
G04 #@! TF.CreationDate,2024-06-30T23:03:44+02:00*
G04 #@! TF.ProjectId,simm72_rom_2M55,73696d6d-3732-45f7-926f-6d5f324d3535,A0*
G04 #@! TF.SameCoordinates,Original*
G04 #@! TF.FileFunction,Copper,L1,Top*
G04 #@! TF.FilePolarity,Positive*
%FSLAX46Y46*%
G04 Gerber Fmt 4.6, Leading zero omitted, Abs format (unit mm)*
G04 Created by KiCad (PCBNEW 7.0.9) date 2024-06-30 23:03:44*
%MOMM*%
%LPD*%
G01*
G04 APERTURE LIST*
G04 #@! TA.AperFunction,SMDPad,CuDef*
%ADD10R,1.040000X2.540000*%
G04 #@! TD*
G04 #@! TA.AperFunction,ComponentPad*
%ADD11R,1.422400X1.422400*%
G04 #@! TD*
G04 #@! TA.AperFunction,ComponentPad*
%ADD12C,1.422400*%
G04 #@! TD*
G04 #@! TA.AperFunction,ViaPad*
%ADD13C,0.800000*%
G04 #@! TD*
G04 #@! TA.AperFunction,Conductor*
%ADD14C,0.152400*%
G04 #@! TD*
G04 #@! TA.AperFunction,Conductor*
%ADD15C,0.508000*%
G04 #@! TD*
G04 #@! TA.AperFunction,Conductor*
%ADD16C,0.203200*%
G04 #@! TD*
G04 APERTURE END LIST*
D10*
X57375000Y-113921000D03*
X58645000Y-113921000D03*
X59915000Y-113921000D03*
X61185000Y-113921000D03*
X62455000Y-113921000D03*
X63725000Y-113921000D03*
X64995000Y-113921000D03*
X66265000Y-113921000D03*
X67535000Y-113921000D03*
X68805000Y-113921000D03*
X70075000Y-113921000D03*
X71345000Y-113921000D03*
X72615000Y-113921000D03*
X73885000Y-113921000D03*
X75155000Y-113921000D03*
X76425000Y-113921000D03*
X77695000Y-113921000D03*
X78965000Y-113921000D03*
X80235000Y-113921000D03*
X81505000Y-113921000D03*
X82775000Y-113921000D03*
X84045000Y-113921000D03*
X85315000Y-113921000D03*
X86585000Y-113921000D03*
X87855000Y-113921000D03*
X89125000Y-113921000D03*
X90395000Y-113921000D03*
X91665000Y-113921000D03*
X92935000Y-113921000D03*
X94205000Y-113921000D03*
X95475000Y-113921000D03*
X96745000Y-113921000D03*
X98015000Y-113921000D03*
X99285000Y-113921000D03*
X100555000Y-113921000D03*
X101825000Y-113921000D03*
X108175000Y-113921000D03*
X109445000Y-113921000D03*
X110715000Y-113921000D03*
X111985000Y-113921000D03*
X113255000Y-113921000D03*
X114525000Y-113921000D03*
X115795000Y-113921000D03*
X117065000Y-113921000D03*
X118335000Y-113921000D03*
X119605000Y-113921000D03*
X120875000Y-113921000D03*
X122145000Y-113921000D03*
X123415000Y-113921000D03*
X124685000Y-113921000D03*
X125955000Y-113921000D03*
X127225000Y-113921000D03*
X128495000Y-113921000D03*
X129765000Y-113921000D03*
X131035000Y-113921000D03*
X132305000Y-113921000D03*
X133575000Y-113921000D03*
X134845000Y-113921000D03*
X136115000Y-113921000D03*
X137385000Y-113921000D03*
X138655000Y-113921000D03*
X139925000Y-113921000D03*
X141195000Y-113921000D03*
X142465000Y-113921000D03*
X143735000Y-113921000D03*
X145005000Y-113921000D03*
X146275000Y-113921000D03*
X147545000Y-113921000D03*
X148815000Y-113921000D03*
X150085000Y-113921000D03*
X151355000Y-113921000D03*
X152625000Y-113921000D03*
D11*
X92730000Y-101080000D03*
D12*
X95270000Y-103620000D03*
X95270000Y-101080000D03*
X97810000Y-103620000D03*
X100350000Y-101080000D03*
X97810000Y-101080000D03*
X100350000Y-98540000D03*
X97810000Y-98540000D03*
X100350000Y-96000000D03*
X97810000Y-96000000D03*
X100350000Y-93460000D03*
X97810000Y-93460000D03*
X100350000Y-90920000D03*
X97810000Y-88380000D03*
X97810000Y-90920000D03*
X95270000Y-88380000D03*
X95270000Y-90920000D03*
X92730000Y-88380000D03*
X92730000Y-90920000D03*
X90190000Y-88380000D03*
X87650000Y-90920000D03*
X90190000Y-90920000D03*
X87650000Y-93460000D03*
X90190000Y-93460000D03*
X87650000Y-96000000D03*
X90190000Y-96000000D03*
X87650000Y-98540000D03*
X90190000Y-98540000D03*
X87650000Y-101080000D03*
X90190000Y-103620000D03*
X90190000Y-101080000D03*
X92730000Y-103620000D03*
D11*
X136730000Y-101080000D03*
D12*
X139270000Y-103620000D03*
X139270000Y-101080000D03*
X141810000Y-103620000D03*
X144350000Y-101080000D03*
X141810000Y-101080000D03*
X144350000Y-98540000D03*
X141810000Y-98540000D03*
X144350000Y-96000000D03*
X141810000Y-96000000D03*
X144350000Y-93460000D03*
X141810000Y-93460000D03*
X144350000Y-90920000D03*
X141810000Y-88380000D03*
X141810000Y-90920000D03*
X139270000Y-88380000D03*
X139270000Y-90920000D03*
X136730000Y-88380000D03*
X136730000Y-90920000D03*
X134190000Y-88380000D03*
X131650000Y-90920000D03*
X134190000Y-90920000D03*
X131650000Y-93460000D03*
X134190000Y-93460000D03*
X131650000Y-96000000D03*
X134190000Y-96000000D03*
X131650000Y-98540000D03*
X134190000Y-98540000D03*
X131650000Y-101080000D03*
X134190000Y-103620000D03*
X134190000Y-101080000D03*
X136730000Y-103620000D03*
D11*
X70730000Y-101080000D03*
D12*
X73270000Y-103620000D03*
X73270000Y-101080000D03*
X75810000Y-103620000D03*
X78350000Y-101080000D03*
X75810000Y-101080000D03*
X78350000Y-98540000D03*
X75810000Y-98540000D03*
X78350000Y-96000000D03*
X75810000Y-96000000D03*
X78350000Y-93460000D03*
X75810000Y-93460000D03*
X78350000Y-90920000D03*
X75810000Y-88380000D03*
X75810000Y-90920000D03*
X73270000Y-88380000D03*
X73270000Y-90920000D03*
X70730000Y-88380000D03*
X70730000Y-90920000D03*
X68190000Y-88380000D03*
X65650000Y-90920000D03*
X68190000Y-90920000D03*
X65650000Y-93460000D03*
X68190000Y-93460000D03*
X65650000Y-96000000D03*
X68190000Y-96000000D03*
X65650000Y-98540000D03*
X68190000Y-98540000D03*
X65650000Y-101080000D03*
X68190000Y-103620000D03*
X68190000Y-101080000D03*
X70730000Y-103620000D03*
D11*
X114920000Y-101080000D03*
D12*
X117460000Y-103620000D03*
X117460000Y-101080000D03*
X120000000Y-103620000D03*
X122540000Y-101080000D03*
X120000000Y-101080000D03*
X122540000Y-98540000D03*
X120000000Y-98540000D03*
X122540000Y-96000000D03*
X120000000Y-96000000D03*
X122540000Y-93460000D03*
X120000000Y-93460000D03*
X122540000Y-90920000D03*
X120000000Y-88380000D03*
X120000000Y-90920000D03*
X117460000Y-88380000D03*
X117460000Y-90920000D03*
X114920000Y-88380000D03*
X114920000Y-90920000D03*
X112380000Y-88380000D03*
X109840000Y-90920000D03*
X112380000Y-90920000D03*
X109840000Y-93460000D03*
X112380000Y-93460000D03*
X109840000Y-96000000D03*
X112380000Y-96000000D03*
X109840000Y-98540000D03*
X112380000Y-98540000D03*
X109840000Y-101080000D03*
X112380000Y-103620000D03*
X112380000Y-101080000D03*
X114920000Y-103620000D03*
D13*
X146275000Y-112854200D03*
X150085000Y-112854200D03*
X151355000Y-112854200D03*
X57375000Y-112854200D03*
X152625000Y-112854200D03*
X61474500Y-102074500D03*
X127276600Y-101753600D03*
X128495000Y-112854200D03*
X86400000Y-88800000D03*
X68805000Y-112854200D03*
X83396900Y-101969900D03*
X65300000Y-103300000D03*
X63200000Y-96500000D03*
X60300000Y-95600000D03*
X151000000Y-110400000D03*
X102000000Y-88400000D03*
X149500000Y-94200000D03*
X91665000Y-112854200D03*
X80235000Y-111127000D03*
X65600000Y-107900000D03*
X79400000Y-88700000D03*
X63200000Y-98000000D03*
X61200000Y-100500000D03*
X108175000Y-112854200D03*
X132000000Y-109600000D03*
X139800000Y-97900000D03*
X110100000Y-88900000D03*
X108683000Y-111254000D03*
X139925000Y-112854200D03*
X149500000Y-99100000D03*
X130000000Y-88000000D03*
X142000000Y-109600000D03*
X124600000Y-90900000D03*
X105337100Y-101588900D03*
X144100000Y-88700000D03*
X64000000Y-88800000D03*
X148300000Y-89100000D03*
X119605000Y-112854200D03*
X80235000Y-112854200D03*
X68805000Y-111254000D03*
X92681000Y-111254000D03*
X139925000Y-111127000D03*
X61883500Y-95442500D03*
X58645000Y-112854200D03*
X61566000Y-96776000D03*
X59915000Y-112854200D03*
X61185000Y-112854200D03*
X60296000Y-99316000D03*
X61820000Y-98935000D03*
X62455000Y-112854200D03*
X63725000Y-112854200D03*
X62518512Y-100141512D03*
X63979000Y-100459000D03*
X64995000Y-112854200D03*
X97075200Y-107393200D03*
X118512800Y-107393200D03*
X76806000Y-107476300D03*
X66265000Y-112854200D03*
X143227000Y-106047000D03*
X67535000Y-112854200D03*
X143862000Y-107444000D03*
X98573800Y-108079000D03*
X121395334Y-108142134D03*
X78380800Y-108104400D03*
X138655000Y-112854200D03*
X124304000Y-109603000D03*
X137385000Y-112854200D03*
X81549450Y-94826550D03*
X82013000Y-109603000D03*
X84070400Y-92432600D03*
X83156000Y-110746000D03*
X136115000Y-112854200D03*
X70075000Y-112854200D03*
X71345000Y-112854200D03*
X72615000Y-112854200D03*
X73885000Y-112854200D03*
X75155000Y-112854200D03*
X76425000Y-112854200D03*
X77695000Y-112854200D03*
X78965000Y-112854200D03*
X81505000Y-112854200D03*
X82775000Y-112854200D03*
X84045000Y-112854200D03*
X85315000Y-112854200D03*
X86585000Y-112854200D03*
X87855000Y-112854200D03*
X89125000Y-112854200D03*
X90395000Y-112854200D03*
X92935000Y-112854200D03*
X94205000Y-112854200D03*
X95475000Y-112854200D03*
X96745000Y-112854200D03*
X98015000Y-112854200D03*
X99285000Y-112854200D03*
X100555000Y-112854200D03*
X101825000Y-112854200D03*
X109445000Y-112854200D03*
X110715000Y-112854200D03*
X111985000Y-112854200D03*
X113255000Y-112854200D03*
X114525000Y-112854200D03*
X115795000Y-112854200D03*
X117065000Y-112854200D03*
X118335000Y-112854200D03*
X120875000Y-112854200D03*
X122145000Y-112854200D03*
X123415000Y-112854200D03*
X128495000Y-106605800D03*
X90547400Y-106605800D03*
X113458200Y-106605800D03*
X124685000Y-112854200D03*
X70303600Y-105996200D03*
X135302200Y-106605800D03*
X125955000Y-112854200D03*
X131263600Y-104116600D03*
X73885000Y-108732500D03*
X129002634Y-108840634D03*
X116658600Y-108841000D03*
X90598200Y-108841000D03*
X138782000Y-108841000D03*
X127225000Y-112854200D03*
X132305000Y-103227600D03*
X129765000Y-112854200D03*
X131035000Y-112854200D03*
X132305000Y-112854200D03*
X137232600Y-98528600D03*
X141372800Y-105843800D03*
X97236850Y-105802250D03*
X138477200Y-105793000D03*
X76145600Y-105716800D03*
X120011400Y-105793000D03*
X133575000Y-112854200D03*
X134845000Y-112854200D03*
X138401000Y-96083100D03*
X141195000Y-112854200D03*
X110359400Y-86387400D03*
X142465000Y-112854200D03*
X134006800Y-85422200D03*
X143735000Y-112854200D03*
X145005000Y-112854200D03*
X147900600Y-90426000D03*
X147545000Y-112854200D03*
X148604900Y-92915200D03*
X149424600Y-100484400D03*
X148815000Y-112854200D03*
D14*
X61883500Y-95442500D02*
X58645000Y-98681000D01*
X58645000Y-98681000D02*
X58645000Y-112854200D01*
X59280000Y-109603000D02*
X59915000Y-110238000D01*
X59280000Y-98998500D02*
X59280000Y-109603000D01*
X61566000Y-96776000D02*
X61502500Y-96776000D01*
X59915000Y-110238000D02*
X59915000Y-112854200D01*
X61502500Y-96776000D02*
X59280000Y-98998500D01*
X59915000Y-109222000D02*
X61185000Y-110492000D01*
X61185000Y-110492000D02*
X61185000Y-112854200D01*
X59915000Y-99697000D02*
X59915000Y-109222000D01*
X60296000Y-99316000D02*
X59915000Y-99697000D01*
X60550000Y-108841000D02*
X62455000Y-110746000D01*
X60550000Y-100205000D02*
X60550000Y-108841000D01*
X61820000Y-98935000D02*
X60550000Y-100205000D01*
X62455000Y-110746000D02*
X62455000Y-112854200D01*
X62201000Y-109476000D02*
X63725000Y-111000000D01*
X62518512Y-100141512D02*
X62201000Y-100459025D01*
X62201000Y-100459025D02*
X62201000Y-109476000D01*
X63725000Y-111000000D02*
X63725000Y-112854200D01*
X63598000Y-109730000D02*
X64995000Y-111127000D01*
X63979000Y-100459000D02*
X63598000Y-100840000D01*
X64995000Y-111127000D02*
X64995000Y-112854200D01*
X63598000Y-100840000D02*
X63598000Y-109730000D01*
X118512800Y-102567200D02*
X120000000Y-101080000D01*
X97075200Y-107393200D02*
X98749800Y-105718600D01*
X76806000Y-107476300D02*
X76831400Y-107450900D01*
X76831400Y-102101400D02*
X75810000Y-101080000D01*
X143125400Y-105945400D02*
X143125400Y-102395400D01*
X76831400Y-107450900D02*
X76831400Y-102101400D01*
X143227000Y-106047000D02*
X143125400Y-105945400D01*
X98749800Y-105718600D02*
X98749800Y-102019800D01*
X143125400Y-102395400D02*
X141810000Y-101080000D01*
X98749800Y-102019800D02*
X97810000Y-101080000D01*
X118512800Y-107393200D02*
X118512800Y-102567200D01*
X121395334Y-108142134D02*
X122540000Y-106997468D01*
X100350000Y-106302800D02*
X98573800Y-108079000D01*
X78350000Y-108073600D02*
X78350000Y-101080000D01*
X144350000Y-106956000D02*
X144350000Y-101080000D01*
X122540000Y-106997468D02*
X122540000Y-101080000D01*
X100350000Y-101080000D02*
X100350000Y-106302800D01*
X143862000Y-107444000D02*
X144350000Y-106956000D01*
X78380800Y-108104400D02*
X78350000Y-108073600D01*
X124304000Y-109603000D02*
X124304000Y-109158500D01*
X124304000Y-109158500D02*
X126520200Y-106942300D01*
X126520200Y-103669800D02*
X131650000Y-98540000D01*
X126520200Y-106942300D02*
X126520200Y-103669800D01*
X82013000Y-109603000D02*
X81505000Y-109095000D01*
X81505000Y-94871000D02*
X81549450Y-94826550D01*
X81505000Y-109095000D02*
X81505000Y-94871000D01*
X82768300Y-110358300D02*
X82768300Y-93734700D01*
X82768300Y-93734700D02*
X84070400Y-92432600D01*
X83156000Y-110746000D02*
X82768300Y-110358300D01*
X66849200Y-92864400D02*
X66849200Y-106631200D01*
X65650000Y-90920000D02*
X65650000Y-91665200D01*
X66849200Y-106631200D02*
X70075000Y-109857000D01*
X65650000Y-91665200D02*
X66849200Y-92864400D01*
X70075000Y-109857000D02*
X70075000Y-112854200D01*
X69389200Y-90502200D02*
X68190000Y-89303000D01*
X68190000Y-89303000D02*
X68190000Y-88380000D01*
X69389200Y-107901200D02*
X69389200Y-90502200D01*
X71345000Y-109857000D02*
X69389200Y-107901200D01*
X71345000Y-112854200D02*
X71345000Y-109857000D01*
X72615000Y-112854200D02*
X72615000Y-109857000D01*
X71853000Y-109095000D02*
X71853000Y-92915200D01*
X72615000Y-109857000D02*
X71853000Y-109095000D01*
X70730000Y-91792200D02*
X70730000Y-90920000D01*
X71853000Y-92915200D02*
X70730000Y-91792200D01*
X70730000Y-89074400D02*
X70730000Y-88380000D01*
X72234000Y-90578400D02*
X70730000Y-89074400D01*
X73885000Y-110111000D02*
X72234000Y-108460000D01*
X72234000Y-108460000D02*
X72234000Y-90578400D01*
X73885000Y-112854200D02*
X73885000Y-110111000D01*
X74393000Y-92043000D02*
X73270000Y-90920000D01*
X74393000Y-107825000D02*
X74393000Y-92043000D01*
X75155000Y-108587000D02*
X74393000Y-107825000D01*
X75155000Y-112854200D02*
X75155000Y-108587000D01*
X76425000Y-108841000D02*
X74697800Y-107113800D01*
X75810000Y-91701400D02*
X75810000Y-90920000D01*
X76425000Y-112854200D02*
X76425000Y-108841000D01*
X74697800Y-107113800D02*
X74697800Y-92813600D01*
X74697800Y-92813600D02*
X75810000Y-91701400D01*
X77339400Y-90705400D02*
X77339400Y-106224800D01*
X77339400Y-106224800D02*
X77618800Y-106504200D01*
X75810000Y-89176000D02*
X77339400Y-90705400D01*
X77618800Y-112778000D02*
X77695000Y-112854200D01*
X77618800Y-106504200D02*
X77618800Y-112778000D01*
X75810000Y-88380000D02*
X75810000Y-89176000D01*
X79701600Y-108358400D02*
X79701600Y-93118400D01*
X78965000Y-109095000D02*
X79701600Y-108358400D01*
X78350000Y-91766800D02*
X78350000Y-90920000D01*
X78965000Y-112854200D02*
X78965000Y-109095000D01*
X79701600Y-93118400D02*
X78350000Y-91766800D01*
X88693200Y-106224800D02*
X83029000Y-111889000D01*
X87650000Y-91745000D02*
X88693200Y-92788200D01*
X82470200Y-111889000D02*
X81505000Y-112854200D01*
X83029000Y-111889000D02*
X82470200Y-111889000D01*
X87650000Y-90920000D02*
X87650000Y-91745000D01*
X88693200Y-92788200D02*
X88693200Y-106224800D01*
X89125000Y-106428000D02*
X89125000Y-90197400D01*
X89125000Y-90197400D02*
X90190000Y-89132400D01*
X90190000Y-89132400D02*
X90190000Y-88380000D01*
X82775000Y-112778000D02*
X89125000Y-106428000D01*
X82775000Y-112854200D02*
X82775000Y-112778000D01*
X84045000Y-112143000D02*
X91233200Y-104954800D01*
X84045000Y-112854200D02*
X84045000Y-112143000D01*
X91233200Y-104954800D02*
X91233200Y-93321600D01*
D15*
X84019600Y-112828800D02*
X84045000Y-112854200D01*
D14*
X91233200Y-93321600D02*
X92730000Y-91824800D01*
X92730000Y-91824800D02*
X92730000Y-90920000D01*
X89887000Y-107825000D02*
X90806901Y-107825000D01*
X92730000Y-89179600D02*
X92730000Y-88380000D01*
X94027200Y-90476800D02*
X92730000Y-89179600D01*
X85315000Y-112397000D02*
X89887000Y-107825000D01*
X94027200Y-104604701D02*
X94027200Y-90476800D01*
X85315000Y-112854200D02*
X85315000Y-112397000D01*
X90806901Y-107825000D02*
X94027200Y-104604701D01*
X90522000Y-109984000D02*
X96287800Y-104218200D01*
X86585000Y-112397000D02*
X88998000Y-109984000D01*
X96287800Y-91937800D02*
X95270000Y-90920000D01*
X96287800Y-104218200D02*
X96287800Y-91937800D01*
X88998000Y-109984000D02*
X90522000Y-109984000D01*
X86585000Y-112854200D02*
X86585000Y-112397000D01*
X89760000Y-110492000D02*
X90776000Y-110492000D01*
X96719600Y-104548400D02*
X96719600Y-92839000D01*
X87855000Y-112854200D02*
X87855000Y-112397000D01*
X96719600Y-92839000D02*
X97810000Y-91748600D01*
X87855000Y-112397000D02*
X89760000Y-110492000D01*
X90776000Y-110492000D02*
X96719600Y-104548400D01*
X97810000Y-91748600D02*
X97810000Y-90920000D01*
X89125000Y-112854200D02*
X89125000Y-112524000D01*
X90649000Y-111000000D02*
X91030000Y-111000000D01*
X91030000Y-111000000D02*
X93824000Y-108206000D01*
X93824000Y-108206000D02*
X97329187Y-108206000D01*
X97329187Y-108206000D02*
X99259600Y-106275587D01*
X89125000Y-112524000D02*
X90649000Y-111000000D01*
X99259600Y-89829600D02*
X97810000Y-88380000D01*
X99259600Y-106275587D02*
X99259600Y-89829600D01*
X100350000Y-91795800D02*
X100350000Y-90920000D01*
X90395000Y-112270000D02*
X91360200Y-111304800D01*
X91360200Y-111304800D02*
X91614200Y-111304800D01*
X101393200Y-92839000D02*
X100350000Y-91795800D01*
X101393200Y-106504200D02*
X101393200Y-92839000D01*
X93951000Y-108968000D02*
X98929400Y-108968000D01*
X98929400Y-108968000D02*
X101393200Y-106504200D01*
X91614200Y-111304800D02*
X93951000Y-108968000D01*
X90395000Y-112854200D02*
X90395000Y-112270000D01*
X95932200Y-109272800D02*
X99107200Y-109272800D01*
X92935000Y-112270000D02*
X95932200Y-109272800D01*
X102256800Y-106123200D02*
X102256800Y-93677200D01*
X105014000Y-90920000D02*
X109840000Y-90920000D01*
X99107200Y-109272800D02*
X102256800Y-106123200D01*
X92935000Y-112854200D02*
X92935000Y-112270000D01*
X102256800Y-93677200D02*
X105014000Y-90920000D01*
X111223000Y-89537000D02*
X112380000Y-88380000D01*
X105101600Y-91950000D02*
X110334000Y-91950000D01*
X97024400Y-109577600D02*
X99310400Y-109577600D01*
X103069600Y-105818400D02*
X103069600Y-93982000D01*
X110334000Y-91950000D02*
X111223000Y-91061000D01*
X94205000Y-112854200D02*
X94205000Y-112397000D01*
X94205000Y-112397000D02*
X97024400Y-109577600D01*
X103069600Y-93982000D02*
X105101600Y-91950000D01*
X111223000Y-91061000D02*
X111223000Y-89537000D01*
X99310400Y-109577600D02*
X103069600Y-105818400D01*
X95475000Y-112854200D02*
X95475000Y-112397000D01*
X113458200Y-92381800D02*
X114920000Y-90920000D01*
X99539000Y-109984000D02*
X105965200Y-103557800D01*
X97888000Y-109984000D02*
X99539000Y-109984000D01*
X105965200Y-94871000D02*
X108454400Y-92381800D01*
X105965200Y-103557800D02*
X105965200Y-94871000D01*
X95475000Y-112397000D02*
X97888000Y-109984000D01*
X108454400Y-92381800D02*
X113458200Y-92381800D01*
X116074400Y-91492800D02*
X116074400Y-89573800D01*
X114920000Y-88419400D02*
X114920000Y-88380000D01*
X107717800Y-94515400D02*
X113051800Y-94515400D01*
X116074400Y-89573800D02*
X114920000Y-88419400D01*
X96745000Y-112854200D02*
X96745000Y-112270000D01*
X106778000Y-95455200D02*
X107717800Y-94515400D01*
X113051800Y-94515400D02*
X116074400Y-91492800D01*
X106778000Y-103176052D02*
X106778000Y-95455200D01*
X96745000Y-112270000D02*
X98523000Y-110492000D01*
X99462052Y-110492000D02*
X106778000Y-103176052D01*
X98523000Y-110492000D02*
X99462052Y-110492000D01*
X98015000Y-112435100D02*
X107489200Y-102960900D01*
X107489200Y-95887000D02*
X108378200Y-94998000D01*
X113382000Y-94998000D02*
X117460000Y-90920000D01*
X98015000Y-112854200D02*
X98015000Y-112435100D01*
X108378200Y-94998000D02*
X113382000Y-94998000D01*
X107489200Y-102960900D02*
X107489200Y-95887000D01*
X99285000Y-112854200D02*
X99285000Y-111635000D01*
X108175000Y-98300000D02*
X109394200Y-97080800D01*
X119263400Y-90920000D02*
X120000000Y-90920000D01*
X99285000Y-111635000D02*
X108175000Y-102745000D01*
X113102600Y-97080800D02*
X119263400Y-90920000D01*
X108175000Y-102745000D02*
X108175000Y-98300000D01*
X109394200Y-97080800D02*
X113102600Y-97080800D01*
X120341600Y-92356400D02*
X121205200Y-91492800D01*
X111858000Y-97487200D02*
X113788400Y-97487200D01*
X111096000Y-101475000D02*
X111096000Y-98249200D01*
X100555000Y-111000000D02*
X108683000Y-102872000D01*
X108683000Y-102872000D02*
X109699000Y-102872000D01*
X109699000Y-102872000D02*
X111096000Y-101475000D01*
X111096000Y-98249200D02*
X111858000Y-97487200D01*
X121205200Y-91492800D02*
X121205200Y-89585200D01*
X118919200Y-92356400D02*
X120341600Y-92356400D01*
X100555000Y-112854200D02*
X100555000Y-111000000D01*
X121205200Y-89585200D02*
X120000000Y-88380000D01*
X113788400Y-97487200D02*
X118919200Y-92356400D01*
X121281400Y-93855000D02*
X121281400Y-92178600D01*
X113610600Y-101525800D02*
X113610600Y-98960400D01*
X111781800Y-102211600D02*
X112924800Y-102211600D01*
X118004800Y-94566200D02*
X120570200Y-94566200D01*
X101825000Y-112854200D02*
X101825000Y-110619000D01*
X113610600Y-98960400D02*
X118004800Y-94566200D01*
X121281400Y-92178600D02*
X122540000Y-90920000D01*
X110715000Y-103278400D02*
X111781800Y-102211600D01*
X101825000Y-110619000D02*
X109165600Y-103278400D01*
X120570200Y-94566200D02*
X121281400Y-93855000D01*
X112924800Y-102211600D02*
X113610600Y-101525800D01*
X109165600Y-103278400D02*
X110715000Y-103278400D01*
X126832600Y-90920000D02*
X131650000Y-90920000D01*
X121129000Y-94972600D02*
X121535400Y-94566200D01*
X116049000Y-106174000D02*
X116049000Y-97868200D01*
X118944600Y-94972600D02*
X121129000Y-94972600D01*
X123186400Y-94566200D02*
X126832600Y-90920000D01*
X109445000Y-112778000D02*
X116049000Y-106174000D01*
X121535400Y-94566200D02*
X123186400Y-94566200D01*
X116049000Y-97868200D02*
X118944600Y-94972600D01*
X109445000Y-112854200D02*
X109445000Y-112778000D01*
X132940000Y-91289600D02*
X132940000Y-89630000D01*
X113559800Y-109933200D02*
X117446000Y-109933200D01*
X121967200Y-94998000D02*
X123897600Y-94998000D01*
X117446000Y-109933200D02*
X121027400Y-106351800D01*
X123897600Y-94998000D02*
X126894800Y-92000800D01*
X132228800Y-92000800D02*
X132940000Y-91289600D01*
X121027400Y-95937800D02*
X121967200Y-94998000D01*
X110715000Y-112854200D02*
X110715000Y-112778000D01*
X121027400Y-106351800D02*
X121027400Y-95937800D01*
X110715000Y-112778000D02*
X113559800Y-109933200D01*
X132940000Y-89630000D02*
X134190000Y-88380000D01*
X126894800Y-92000800D02*
X132228800Y-92000800D01*
X121459200Y-98046000D02*
X122170400Y-97334800D01*
X123262600Y-97334800D02*
X128190200Y-92407200D01*
X122170400Y-97334800D02*
X123262600Y-97334800D01*
X111985000Y-112854200D02*
X111985000Y-112778000D01*
X121459200Y-106859800D02*
X121459200Y-98046000D01*
X118081000Y-110238000D02*
X121459200Y-106859800D01*
X114525000Y-110238000D02*
X118081000Y-110238000D01*
X111985000Y-112778000D02*
X114525000Y-110238000D01*
X135242800Y-92407200D02*
X136730000Y-90920000D01*
X128190200Y-92407200D02*
X135242800Y-92407200D01*
X137969200Y-89619200D02*
X136730000Y-88380000D01*
X113255000Y-112854200D02*
X113255000Y-112778000D01*
X113255000Y-112778000D02*
X115414000Y-110619000D01*
X123872200Y-98808000D02*
X128190200Y-94490000D01*
X137969200Y-91594400D02*
X137969200Y-89619200D01*
X135073600Y-94490000D02*
X137969200Y-91594400D01*
X120024100Y-110619000D02*
X123872200Y-106770900D01*
X123872200Y-106770900D02*
X123872200Y-98808000D01*
X115414000Y-110619000D02*
X120024100Y-110619000D01*
X128190200Y-94490000D02*
X135073600Y-94490000D01*
X124456400Y-106910600D02*
X124456400Y-99112800D01*
X120417800Y-110949200D02*
X124456400Y-106910600D01*
X135480000Y-94947200D02*
X139270000Y-91157200D01*
X114525000Y-112854200D02*
X114525000Y-112778000D01*
X139270000Y-91157200D02*
X139270000Y-90920000D01*
X128622000Y-94947200D02*
X135480000Y-94947200D01*
X114525000Y-112778000D02*
X116353800Y-110949200D01*
X116353800Y-110949200D02*
X120417800Y-110949200D01*
X124456400Y-99112800D02*
X128622000Y-94947200D01*
X127606000Y-97080800D02*
X134819600Y-97080800D01*
X125142200Y-106859800D02*
X125142200Y-99544600D01*
X115795000Y-112854200D02*
X115845800Y-112854200D01*
X120748000Y-111254000D02*
X125142200Y-106859800D01*
X115845800Y-112854200D02*
X117446000Y-111254000D01*
X117446000Y-111254000D02*
X120748000Y-111254000D01*
X125142200Y-99544600D02*
X127606000Y-97080800D01*
X134819600Y-97080800D02*
X140980400Y-90920000D01*
X140980400Y-90920000D02*
X141810000Y-90920000D01*
X142222400Y-88380000D02*
X141810000Y-88380000D01*
X142922200Y-91391200D02*
X142922200Y-89079800D01*
X125878800Y-99697000D02*
X128063200Y-97512600D01*
X125878800Y-106758200D02*
X125878800Y-99697000D01*
X121052800Y-111584200D02*
X125878800Y-106758200D01*
X118258800Y-111584200D02*
X121052800Y-111584200D01*
X140585400Y-92178600D02*
X142134800Y-92178600D01*
X117065000Y-112778000D02*
X118258800Y-111584200D01*
X142134800Y-92178600D02*
X142922200Y-91391200D01*
X128063200Y-97512600D02*
X135251400Y-97512600D01*
X135251400Y-97512600D02*
X140585400Y-92178600D01*
X142922200Y-89079800D02*
X142222400Y-88380000D01*
X117065000Y-112854200D02*
X117065000Y-112778000D01*
X134641800Y-99747800D02*
X135530800Y-98858800D01*
X142592000Y-94540800D02*
X143074600Y-94058200D01*
X127733000Y-107444000D02*
X127733000Y-103507000D01*
X119300200Y-111889000D02*
X123288000Y-111889000D01*
X143074600Y-92195400D02*
X144350000Y-90920000D01*
X123288000Y-111889000D02*
X127733000Y-107444000D01*
X135530800Y-98858800D02*
X135530800Y-98020600D01*
X118335000Y-112854200D02*
X119300200Y-111889000D01*
X127733000Y-103507000D02*
X131492200Y-99747800D01*
X135530800Y-98020600D02*
X139010600Y-94540800D01*
X143074600Y-94058200D02*
X143074600Y-92195400D01*
X131492200Y-99747800D02*
X134641800Y-99747800D01*
X139010600Y-94540800D02*
X142592000Y-94540800D01*
X113559800Y-102440200D02*
X114920000Y-101080000D01*
X124685000Y-111508000D02*
X128495000Y-107698000D01*
X70303600Y-105996200D02*
X69790200Y-105482800D01*
X128495000Y-107698000D02*
X128495000Y-106605800D01*
X113458200Y-106605800D02*
X113559800Y-106504200D01*
X92730000Y-101730800D02*
X92730000Y-101080000D01*
X135302200Y-106605800D02*
X135302200Y-102507800D01*
X91639600Y-105742200D02*
X91639600Y-102821200D01*
X69790200Y-105482800D02*
X69790200Y-102019800D01*
X90547400Y-106605800D02*
X90776000Y-106605800D01*
X91639600Y-102821200D02*
X92730000Y-101730800D01*
X135302200Y-102507800D02*
X136730000Y-101080000D01*
X124685000Y-112854200D02*
X124685000Y-111508000D01*
X113559800Y-106504200D02*
X113559800Y-102440200D01*
X90776000Y-106605800D02*
X91639600Y-105742200D01*
X69790200Y-102019800D02*
X70730000Y-101080000D01*
X131390600Y-105564400D02*
X125955000Y-111000000D01*
X131263600Y-104116600D02*
X131390600Y-104243600D01*
X125955000Y-111000000D02*
X125955000Y-112854200D01*
X131390600Y-104243600D02*
X131390600Y-105564400D01*
X129002634Y-109603366D02*
X127225000Y-111381000D01*
X116658600Y-108841000D02*
X116658600Y-104421400D01*
X73270000Y-108117500D02*
X73270000Y-103620000D01*
X90598200Y-108841000D02*
X90598200Y-108764800D01*
X95270000Y-104093000D02*
X95270000Y-103620000D01*
X90598200Y-108764800D02*
X95270000Y-104093000D01*
X139270000Y-108353000D02*
X139270000Y-103620000D01*
X127225000Y-111381000D02*
X127225000Y-112854200D01*
X73885000Y-108732500D02*
X73270000Y-108117500D01*
X129002634Y-108840634D02*
X129002634Y-109603366D01*
X116658600Y-104421400D02*
X117460000Y-103620000D01*
X138782000Y-108841000D02*
X139270000Y-108353000D01*
X132279600Y-103253000D02*
X132279600Y-105691400D01*
X129765000Y-108206000D02*
X129765000Y-112854200D01*
X132305000Y-103227600D02*
X132279600Y-103253000D01*
X132279600Y-105691400D02*
X129765000Y-108206000D01*
X133092400Y-105894600D02*
X133092400Y-102237000D01*
X131935400Y-101080000D02*
X131650000Y-101080000D01*
X131035000Y-112854200D02*
X131035000Y-107952000D01*
X133092400Y-102237000D02*
X131935400Y-101080000D01*
X131035000Y-107952000D02*
X133092400Y-105894600D01*
X136115000Y-106936000D02*
X136115000Y-105564078D01*
X136115000Y-105564078D02*
X137669800Y-104009278D01*
X137669800Y-98965800D02*
X137232600Y-98528600D01*
X132305000Y-112854200D02*
X132305000Y-110746000D01*
X137669800Y-104009278D02*
X137669800Y-98965800D01*
X132305000Y-110746000D02*
X136115000Y-106936000D01*
X141372800Y-105843800D02*
X141810000Y-105406600D01*
X138477200Y-106478800D02*
X138477200Y-105793000D01*
X75810000Y-105381200D02*
X75810000Y-103620000D01*
X76145600Y-105716800D02*
X75810000Y-105381200D01*
X97810000Y-105326598D02*
X97810000Y-103620000D01*
X97236850Y-105802250D02*
X97334348Y-105802250D01*
X120011400Y-105793000D02*
X120000000Y-105781600D01*
X133575000Y-112854200D02*
X133575000Y-111381000D01*
X133575000Y-111381000D02*
X138477200Y-106478800D01*
X141810000Y-105406600D02*
X141810000Y-103620000D01*
X120000000Y-105781600D02*
X120000000Y-103620000D01*
X97334348Y-105802250D02*
X97810000Y-105326598D01*
X140306000Y-100332000D02*
X140306000Y-109095000D01*
X139417000Y-109984000D02*
X136750000Y-109984000D01*
X136750000Y-109984000D02*
X134845000Y-111889000D01*
X138401000Y-96083100D02*
X138909000Y-96591100D01*
X134845000Y-111889000D02*
X134845000Y-112854200D01*
X138909000Y-98935000D02*
X140306000Y-100332000D01*
X138909000Y-96591100D02*
X138909000Y-98935000D01*
X140306000Y-109095000D02*
X139417000Y-109984000D01*
D16*
X67636600Y-87073200D02*
X144065200Y-87073200D01*
X68190000Y-90920000D02*
X68054400Y-90920000D01*
X145640000Y-88648000D02*
X145640000Y-108079000D01*
X144065200Y-87073200D02*
X145640000Y-88648000D01*
X68054400Y-90920000D02*
X66925400Y-89791000D01*
X66925400Y-89791000D02*
X66925400Y-87784400D01*
X145640000Y-108079000D02*
X141195000Y-112524000D01*
X141195000Y-112524000D02*
X141195000Y-112854200D01*
X66925400Y-87784400D02*
X67636600Y-87073200D01*
X144776400Y-86158800D02*
X146249600Y-87632000D01*
X110359400Y-86387400D02*
X110588000Y-86158800D01*
X142465000Y-112524000D02*
X142465000Y-112854200D01*
X146249600Y-87632000D02*
X146249600Y-108739400D01*
X146249600Y-108739400D02*
X142465000Y-112524000D01*
X110588000Y-86158800D02*
X144776400Y-86158800D01*
X134260800Y-85168200D02*
X144827200Y-85168200D01*
X134006800Y-85422200D02*
X134260800Y-85168200D01*
X144827200Y-85168200D02*
X146833800Y-87174800D01*
X146833800Y-87174800D02*
X146833800Y-109425200D01*
X146833800Y-109425200D02*
X143735000Y-112524000D01*
X143735000Y-112524000D02*
X143735000Y-112854200D01*
X147951400Y-109577600D02*
X145005000Y-112524000D01*
X147900600Y-90426000D02*
X147951400Y-90476800D01*
X147951400Y-90476800D02*
X147951400Y-109577600D01*
X145005000Y-112524000D02*
X145005000Y-112854200D01*
D14*
X148662600Y-111152400D02*
X147545000Y-112270000D01*
X147545000Y-112270000D02*
X147545000Y-112854200D01*
X148604900Y-92915200D02*
X148662600Y-92972900D01*
X148662600Y-92972900D02*
X148662600Y-111152400D01*
X149424600Y-100484400D02*
X149831000Y-100890800D01*
X149831000Y-111381000D02*
X148815000Y-112397000D01*
X148815000Y-112397000D02*
X148815000Y-112854200D01*
X149831000Y-100890800D02*
X149831000Y-111381000D01*
M02*
