M48
; DRILL file {KiCad 7.0.9} date Sunday, June 30, 2024 at 11:04:07 PM
; FORMAT={-:-/ absolute / metric / decimal}
; #@! TF.CreationDate,2024-06-30T23:04:07+02:00
; #@! TF.GenerationSoftware,Kicad,Pcbnew,7.0.9
; #@! TF.FileFunction,Plated,1,4,PTH
FMAT,2
METRIC
; #@! TA.AperFunction,Plated,PTH,ViaDrill
T1C0.400
; #@! TA.AperFunction,Plated,PTH,ComponentDrill
T2C0.800
%
G90
G05
T1
X57.375Y-112.854
X58.645Y-112.854
X59.915Y-112.854
X60.296Y-99.316
X60.3Y-95.6
X61.185Y-112.854
X61.2Y-100.5
X61.474Y-102.075
X61.566Y-96.776
X61.82Y-98.935
X61.883Y-95.442
X62.455Y-112.854
X62.519Y-100.142
X63.2Y-96.5
X63.2Y-98.0
X63.725Y-112.854
X63.979Y-100.459
X64.0Y-88.8
X64.995Y-112.854
X65.3Y-103.3
X65.6Y-107.9
X66.265Y-112.854
X67.535Y-112.854
X68.805Y-111.254
X68.805Y-112.854
X70.075Y-112.854
X70.304Y-105.996
X71.345Y-112.854
X72.615Y-112.854
X73.885Y-108.733
X73.885Y-112.854
X75.155Y-112.854
X76.146Y-105.717
X76.425Y-112.854
X76.806Y-107.476
X77.695Y-112.854
X78.381Y-108.104
X78.965Y-112.854
X79.4Y-88.7
X80.235Y-111.127
X80.235Y-112.854
X81.505Y-112.854
X81.549Y-94.827
X82.013Y-109.603
X82.775Y-112.854
X83.156Y-110.746
X83.397Y-101.97
X84.045Y-112.854
X84.07Y-92.433
X85.315Y-112.854
X86.4Y-88.8
X86.585Y-112.854
X87.855Y-112.854
X89.125Y-112.854
X90.395Y-112.854
X90.547Y-106.606
X90.598Y-108.841
X91.665Y-112.854
X92.681Y-111.254
X92.935Y-112.854
X94.205Y-112.854
X95.475Y-112.854
X96.745Y-112.854
X97.075Y-107.393
X97.237Y-105.802
X98.015Y-112.854
X98.574Y-108.079
X99.285Y-112.854
X100.555Y-112.854
X101.825Y-112.854
X102.0Y-88.4
X105.337Y-101.589
X108.175Y-112.854
X108.683Y-111.254
X109.445Y-112.854
X110.1Y-88.9
X110.359Y-86.387
X110.715Y-112.854
X111.985Y-112.854
X113.255Y-112.854
X113.458Y-106.606
X114.525Y-112.854
X115.795Y-112.854
X116.659Y-108.841
X117.065Y-112.854
X118.335Y-112.854
X118.513Y-107.393
X119.605Y-112.854
X120.011Y-105.793
X120.875Y-112.854
X121.395Y-108.142
X122.145Y-112.854
X123.415Y-112.854
X124.304Y-109.603
X124.6Y-90.9
X124.685Y-112.854
X125.955Y-112.854
X127.225Y-112.854
X127.277Y-101.754
X128.495Y-106.606
X128.495Y-112.854
X129.003Y-108.841
X129.765Y-112.854
X130.0Y-88.0
X131.035Y-112.854
X131.264Y-104.117
X132.0Y-109.6
X132.305Y-103.228
X132.305Y-112.854
X133.575Y-112.854
X134.007Y-85.422
X134.845Y-112.854
X135.302Y-106.606
X136.115Y-112.854
X137.233Y-98.529
X137.385Y-112.854
X138.401Y-96.083
X138.477Y-105.793
X138.655Y-112.854
X138.782Y-108.841
X139.8Y-97.9
X139.925Y-111.127
X139.925Y-112.854
X141.195Y-112.854
X141.373Y-105.844
X142.0Y-109.6
X142.465Y-112.854
X143.227Y-106.047
X143.735Y-112.854
X143.862Y-107.444
X144.1Y-88.7
X145.005Y-112.854
X146.275Y-112.854
X147.545Y-112.854
X147.901Y-90.426
X148.3Y-89.1
X148.605Y-92.915
X148.815Y-112.854
X149.425Y-100.484
X149.5Y-94.2
X149.5Y-99.1
X150.085Y-112.854
X151.0Y-110.4
X151.355Y-112.854
X152.625Y-112.854
T2
X65.65Y-90.92
X65.65Y-93.46
X65.65Y-96.0
X65.65Y-98.54
X65.65Y-101.08
X68.19Y-88.38
X68.19Y-90.92
X68.19Y-93.46
X68.19Y-96.0
X68.19Y-98.54
X68.19Y-101.08
X68.19Y-103.62
X70.73Y-88.38
X70.73Y-90.92
X70.73Y-101.08
X70.73Y-103.62
X73.27Y-88.38
X73.27Y-90.92
X73.27Y-101.08
X73.27Y-103.62
X75.81Y-88.38
X75.81Y-90.92
X75.81Y-93.46
X75.81Y-96.0
X75.81Y-98.54
X75.81Y-101.08
X75.81Y-103.62
X78.35Y-90.92
X78.35Y-93.46
X78.35Y-96.0
X78.35Y-98.54
X78.35Y-101.08
X87.65Y-90.92
X87.65Y-93.46
X87.65Y-96.0
X87.65Y-98.54
X87.65Y-101.08
X90.19Y-88.38
X90.19Y-90.92
X90.19Y-93.46
X90.19Y-96.0
X90.19Y-98.54
X90.19Y-101.08
X90.19Y-103.62
X92.73Y-88.38
X92.73Y-90.92
X92.73Y-101.08
X92.73Y-103.62
X95.27Y-88.38
X95.27Y-90.92
X95.27Y-101.08
X95.27Y-103.62
X97.81Y-88.38
X97.81Y-90.92
X97.81Y-93.46
X97.81Y-96.0
X97.81Y-98.54
X97.81Y-101.08
X97.81Y-103.62
X100.35Y-90.92
X100.35Y-93.46
X100.35Y-96.0
X100.35Y-98.54
X100.35Y-101.08
X109.84Y-90.92
X109.84Y-93.46
X109.84Y-96.0
X109.84Y-98.54
X109.84Y-101.08
X112.38Y-88.38
X112.38Y-90.92
X112.38Y-93.46
X112.38Y-96.0
X112.38Y-98.54
X112.38Y-101.08
X112.38Y-103.62
X114.92Y-88.38
X114.92Y-90.92
X114.92Y-101.08
X114.92Y-103.62
X117.46Y-88.38
X117.46Y-90.92
X117.46Y-101.08
X117.46Y-103.62
X120.0Y-88.38
X120.0Y-90.92
X120.0Y-93.46
X120.0Y-96.0
X120.0Y-98.54
X120.0Y-101.08
X120.0Y-103.62
X122.54Y-90.92
X122.54Y-93.46
X122.54Y-96.0
X122.54Y-98.54
X122.54Y-101.08
X131.65Y-90.92
X131.65Y-93.46
X131.65Y-96.0
X131.65Y-98.54
X131.65Y-101.08
X134.19Y-88.38
X134.19Y-90.92
X134.19Y-93.46
X134.19Y-96.0
X134.19Y-98.54
X134.19Y-101.08
X134.19Y-103.62
X136.73Y-88.38
X136.73Y-90.92
X136.73Y-101.08
X136.73Y-103.62
X139.27Y-88.38
X139.27Y-90.92
X139.27Y-101.08
X139.27Y-103.62
X141.81Y-88.38
X141.81Y-90.92
X141.81Y-93.46
X141.81Y-96.0
X141.81Y-98.54
X141.81Y-101.08
X141.81Y-103.62
X144.35Y-90.92
X144.35Y-93.46
X144.35Y-96.0
X144.35Y-98.54
X144.35Y-101.08
T0
M30
