G04 #@! TF.GenerationSoftware,KiCad,Pcbnew,7.0.9*
G04 #@! TF.CreationDate,2024-06-30T23:03:44+02:00*
G04 #@! TF.ProjectId,simm72_rom_2M55,73696d6d-3732-45f7-926f-6d5f324d3535,A0*
G04 #@! TF.SameCoordinates,Original*
G04 #@! TF.FileFunction,Copper,L4,Bot*
G04 #@! TF.FilePolarity,Positive*
%FSLAX46Y46*%
G04 Gerber Fmt 4.6, Leading zero omitted, Abs format (unit mm)*
G04 Created by KiCad (PCBNEW 7.0.9) date 2024-06-30 23:03:44*
%MOMM*%
%LPD*%
G01*
G04 APERTURE LIST*
G04 Aperture macros list*
%AMRoundRect*
0 Rectangle with rounded corners*
0 $1 Rounding radius*
0 $2 $3 $4 $5 $6 $7 $8 $9 X,Y pos of 4 corners*
0 Add a 4 corners polygon primitive as box body*
4,1,4,$2,$3,$4,$5,$6,$7,$8,$9,$2,$3,0*
0 Add four circle primitives for the rounded corners*
1,1,$1+$1,$2,$3*
1,1,$1+$1,$4,$5*
1,1,$1+$1,$6,$7*
1,1,$1+$1,$8,$9*
0 Add four rect primitives between the rounded corners*
20,1,$1+$1,$2,$3,$4,$5,0*
20,1,$1+$1,$4,$5,$6,$7,0*
20,1,$1+$1,$6,$7,$8,$9,0*
20,1,$1+$1,$8,$9,$2,$3,0*%
G04 Aperture macros list end*
G04 #@! TA.AperFunction,SMDPad,CuDef*
%ADD10R,1.040000X2.540000*%
G04 #@! TD*
G04 #@! TA.AperFunction,ComponentPad*
%ADD11R,1.422400X1.422400*%
G04 #@! TD*
G04 #@! TA.AperFunction,ComponentPad*
%ADD12C,1.422400*%
G04 #@! TD*
G04 #@! TA.AperFunction,SMDPad,CuDef*
%ADD13RoundRect,0.250000X0.650000X-0.412500X0.650000X0.412500X-0.650000X0.412500X-0.650000X-0.412500X0*%
G04 #@! TD*
G04 #@! TA.AperFunction,ViaPad*
%ADD14C,0.800000*%
G04 #@! TD*
G04 #@! TA.AperFunction,Conductor*
%ADD15C,0.508000*%
G04 #@! TD*
G04 #@! TA.AperFunction,Conductor*
%ADD16C,0.609600*%
G04 #@! TD*
G04 #@! TA.AperFunction,Conductor*
%ADD17C,0.254000*%
G04 #@! TD*
G04 #@! TA.AperFunction,Conductor*
%ADD18C,0.152400*%
G04 #@! TD*
G04 #@! TA.AperFunction,Conductor*
%ADD19C,0.203200*%
G04 #@! TD*
G04 APERTURE END LIST*
D10*
X57375000Y-113921000D03*
X58645000Y-113921000D03*
X59915000Y-113921000D03*
X61185000Y-113921000D03*
X62455000Y-113921000D03*
X63725000Y-113921000D03*
X64995000Y-113921000D03*
X66265000Y-113921000D03*
X67535000Y-113921000D03*
X68805000Y-113921000D03*
X70075000Y-113921000D03*
X71345000Y-113921000D03*
X72615000Y-113921000D03*
X73885000Y-113921000D03*
X75155000Y-113921000D03*
X76425000Y-113921000D03*
X77695000Y-113921000D03*
X78965000Y-113921000D03*
X80235000Y-113921000D03*
X81505000Y-113921000D03*
X82775000Y-113921000D03*
X84045000Y-113921000D03*
X85315000Y-113921000D03*
X86585000Y-113921000D03*
X87855000Y-113921000D03*
X89125000Y-113921000D03*
X90395000Y-113921000D03*
X91665000Y-113921000D03*
X92935000Y-113921000D03*
X94205000Y-113921000D03*
X95475000Y-113921000D03*
X96745000Y-113921000D03*
X98015000Y-113921000D03*
X99285000Y-113921000D03*
X100555000Y-113921000D03*
X101825000Y-113921000D03*
X108175000Y-113921000D03*
X109445000Y-113921000D03*
X110715000Y-113921000D03*
X111985000Y-113921000D03*
X113255000Y-113921000D03*
X114525000Y-113921000D03*
X115795000Y-113921000D03*
X117065000Y-113921000D03*
X118335000Y-113921000D03*
X119605000Y-113921000D03*
X120875000Y-113921000D03*
X122145000Y-113921000D03*
X123415000Y-113921000D03*
X124685000Y-113921000D03*
X125955000Y-113921000D03*
X127225000Y-113921000D03*
X128495000Y-113921000D03*
X129765000Y-113921000D03*
X131035000Y-113921000D03*
X132305000Y-113921000D03*
X133575000Y-113921000D03*
X134845000Y-113921000D03*
X136115000Y-113921000D03*
X137385000Y-113921000D03*
X138655000Y-113921000D03*
X139925000Y-113921000D03*
X141195000Y-113921000D03*
X142465000Y-113921000D03*
X143735000Y-113921000D03*
X145005000Y-113921000D03*
X146275000Y-113921000D03*
X147545000Y-113921000D03*
X148815000Y-113921000D03*
X150085000Y-113921000D03*
X151355000Y-113921000D03*
X152625000Y-113921000D03*
D11*
X92730000Y-101080000D03*
D12*
X95270000Y-103620000D03*
X95270000Y-101080000D03*
X97810000Y-103620000D03*
X100350000Y-101080000D03*
X97810000Y-101080000D03*
X100350000Y-98540000D03*
X97810000Y-98540000D03*
X100350000Y-96000000D03*
X97810000Y-96000000D03*
X100350000Y-93460000D03*
X97810000Y-93460000D03*
X100350000Y-90920000D03*
X97810000Y-88380000D03*
X97810000Y-90920000D03*
X95270000Y-88380000D03*
X95270000Y-90920000D03*
X92730000Y-88380000D03*
X92730000Y-90920000D03*
X90190000Y-88380000D03*
X87650000Y-90920000D03*
X90190000Y-90920000D03*
X87650000Y-93460000D03*
X90190000Y-93460000D03*
X87650000Y-96000000D03*
X90190000Y-96000000D03*
X87650000Y-98540000D03*
X90190000Y-98540000D03*
X87650000Y-101080000D03*
X90190000Y-103620000D03*
X90190000Y-101080000D03*
X92730000Y-103620000D03*
D11*
X136730000Y-101080000D03*
D12*
X139270000Y-103620000D03*
X139270000Y-101080000D03*
X141810000Y-103620000D03*
X144350000Y-101080000D03*
X141810000Y-101080000D03*
X144350000Y-98540000D03*
X141810000Y-98540000D03*
X144350000Y-96000000D03*
X141810000Y-96000000D03*
X144350000Y-93460000D03*
X141810000Y-93460000D03*
X144350000Y-90920000D03*
X141810000Y-88380000D03*
X141810000Y-90920000D03*
X139270000Y-88380000D03*
X139270000Y-90920000D03*
X136730000Y-88380000D03*
X136730000Y-90920000D03*
X134190000Y-88380000D03*
X131650000Y-90920000D03*
X134190000Y-90920000D03*
X131650000Y-93460000D03*
X134190000Y-93460000D03*
X131650000Y-96000000D03*
X134190000Y-96000000D03*
X131650000Y-98540000D03*
X134190000Y-98540000D03*
X131650000Y-101080000D03*
X134190000Y-103620000D03*
X134190000Y-101080000D03*
X136730000Y-103620000D03*
D11*
X70730000Y-101080000D03*
D12*
X73270000Y-103620000D03*
X73270000Y-101080000D03*
X75810000Y-103620000D03*
X78350000Y-101080000D03*
X75810000Y-101080000D03*
X78350000Y-98540000D03*
X75810000Y-98540000D03*
X78350000Y-96000000D03*
X75810000Y-96000000D03*
X78350000Y-93460000D03*
X75810000Y-93460000D03*
X78350000Y-90920000D03*
X75810000Y-88380000D03*
X75810000Y-90920000D03*
X73270000Y-88380000D03*
X73270000Y-90920000D03*
X70730000Y-88380000D03*
X70730000Y-90920000D03*
X68190000Y-88380000D03*
X65650000Y-90920000D03*
X68190000Y-90920000D03*
X65650000Y-93460000D03*
X68190000Y-93460000D03*
X65650000Y-96000000D03*
X68190000Y-96000000D03*
X65650000Y-98540000D03*
X68190000Y-98540000D03*
X65650000Y-101080000D03*
X68190000Y-103620000D03*
X68190000Y-101080000D03*
X70730000Y-103620000D03*
D11*
X114920000Y-101080000D03*
D12*
X117460000Y-103620000D03*
X117460000Y-101080000D03*
X120000000Y-103620000D03*
X122540000Y-101080000D03*
X120000000Y-101080000D03*
X122540000Y-98540000D03*
X120000000Y-98540000D03*
X122540000Y-96000000D03*
X120000000Y-96000000D03*
X122540000Y-93460000D03*
X120000000Y-93460000D03*
X122540000Y-90920000D03*
X120000000Y-88380000D03*
X120000000Y-90920000D03*
X117460000Y-88380000D03*
X117460000Y-90920000D03*
X114920000Y-88380000D03*
X114920000Y-90920000D03*
X112380000Y-88380000D03*
X109840000Y-90920000D03*
X112380000Y-90920000D03*
X109840000Y-93460000D03*
X112380000Y-93460000D03*
X109840000Y-96000000D03*
X112380000Y-96000000D03*
X109840000Y-98540000D03*
X112380000Y-98540000D03*
X109840000Y-101080000D03*
X112380000Y-103620000D03*
X112380000Y-101080000D03*
X114920000Y-103620000D03*
D13*
X107133600Y-104713900D03*
X107133600Y-101588900D03*
X84984800Y-104942500D03*
X84984800Y-101817500D03*
X128876000Y-104878600D03*
X128876000Y-101753600D03*
X62836000Y-104981000D03*
X62836000Y-101856000D03*
D14*
X146275000Y-112854200D03*
X150085000Y-112854200D03*
X151355000Y-112854200D03*
X57375000Y-112854200D03*
X152625000Y-112854200D03*
X61474500Y-102074500D03*
X127276600Y-101753600D03*
X128495000Y-112854200D03*
X86400000Y-88800000D03*
X68805000Y-112854200D03*
X83396900Y-101969900D03*
X65300000Y-103300000D03*
X63200000Y-96500000D03*
X60300000Y-95600000D03*
X151000000Y-110400000D03*
X102000000Y-88400000D03*
X149500000Y-94200000D03*
X91665000Y-112854200D03*
X80235000Y-111127000D03*
X65600000Y-107900000D03*
X79400000Y-88700000D03*
X63200000Y-98000000D03*
X61200000Y-100500000D03*
X108175000Y-112854200D03*
X132000000Y-109600000D03*
X139800000Y-97900000D03*
X110100000Y-88900000D03*
X108683000Y-111254000D03*
X139925000Y-112854200D03*
X149500000Y-99100000D03*
X130000000Y-88000000D03*
X142000000Y-109600000D03*
X124600000Y-90900000D03*
X105337100Y-101588900D03*
X144100000Y-88700000D03*
X64000000Y-88800000D03*
X148300000Y-89100000D03*
X119605000Y-112854200D03*
X80235000Y-112854200D03*
X68805000Y-111254000D03*
X92681000Y-111254000D03*
X139925000Y-111127000D03*
X61883500Y-95442500D03*
X58645000Y-112854200D03*
X61566000Y-96776000D03*
X59915000Y-112854200D03*
X61185000Y-112854200D03*
X60296000Y-99316000D03*
X61820000Y-98935000D03*
X62455000Y-112854200D03*
X63725000Y-112854200D03*
X62518512Y-100141512D03*
X63979000Y-100459000D03*
X64995000Y-112854200D03*
X97075200Y-107393200D03*
X118512800Y-107393200D03*
X76806000Y-107476300D03*
X66265000Y-112854200D03*
X143227000Y-106047000D03*
X67535000Y-112854200D03*
X143862000Y-107444000D03*
X98573800Y-108079000D03*
X121395334Y-108142134D03*
X78380800Y-108104400D03*
X138655000Y-112854200D03*
X124304000Y-109603000D03*
X137385000Y-112854200D03*
X81549450Y-94826550D03*
X82013000Y-109603000D03*
X84070400Y-92432600D03*
X83156000Y-110746000D03*
X136115000Y-112854200D03*
X70075000Y-112854200D03*
X71345000Y-112854200D03*
X72615000Y-112854200D03*
X73885000Y-112854200D03*
X75155000Y-112854200D03*
X76425000Y-112854200D03*
X77695000Y-112854200D03*
X78965000Y-112854200D03*
X81505000Y-112854200D03*
X82775000Y-112854200D03*
X84045000Y-112854200D03*
X85315000Y-112854200D03*
X86585000Y-112854200D03*
X87855000Y-112854200D03*
X89125000Y-112854200D03*
X90395000Y-112854200D03*
X92935000Y-112854200D03*
X94205000Y-112854200D03*
X95475000Y-112854200D03*
X96745000Y-112854200D03*
X98015000Y-112854200D03*
X99285000Y-112854200D03*
X100555000Y-112854200D03*
X101825000Y-112854200D03*
X109445000Y-112854200D03*
X110715000Y-112854200D03*
X111985000Y-112854200D03*
X113255000Y-112854200D03*
X114525000Y-112854200D03*
X115795000Y-112854200D03*
X117065000Y-112854200D03*
X118335000Y-112854200D03*
X120875000Y-112854200D03*
X122145000Y-112854200D03*
X123415000Y-112854200D03*
X128495000Y-106605800D03*
X90547400Y-106605800D03*
X113458200Y-106605800D03*
X124685000Y-112854200D03*
X70303600Y-105996200D03*
X135302200Y-106605800D03*
X125955000Y-112854200D03*
X131263600Y-104116600D03*
X73885000Y-108732500D03*
X129002634Y-108840634D03*
X116658600Y-108841000D03*
X90598200Y-108841000D03*
X138782000Y-108841000D03*
X127225000Y-112854200D03*
X132305000Y-103227600D03*
X129765000Y-112854200D03*
X131035000Y-112854200D03*
X132305000Y-112854200D03*
X137232600Y-98528600D03*
X141372800Y-105843800D03*
X97236850Y-105802250D03*
X138477200Y-105793000D03*
X76145600Y-105716800D03*
X120011400Y-105793000D03*
X133575000Y-112854200D03*
X134845000Y-112854200D03*
X138401000Y-96083100D03*
X141195000Y-112854200D03*
X110359400Y-86387400D03*
X142465000Y-112854200D03*
X134006800Y-85422200D03*
X143735000Y-112854200D03*
X145005000Y-112854200D03*
X147900600Y-90426000D03*
X147545000Y-112854200D03*
X148604900Y-92915200D03*
X149424600Y-100484400D03*
X148815000Y-112854200D03*
D15*
X84984800Y-104993300D02*
X91356700Y-104993300D01*
X116286600Y-104986600D02*
X114920000Y-103620000D01*
X93988600Y-104878600D02*
X106968900Y-104878600D01*
X135363400Y-104986600D02*
X116286600Y-104986600D01*
X136730000Y-103620000D02*
X137937800Y-104827800D01*
X113661400Y-104878600D02*
X107298300Y-104878600D01*
X136730000Y-103620000D02*
X135363400Y-104986600D01*
X147849800Y-104827800D02*
X152625000Y-109603000D01*
X91356700Y-104993300D02*
X92730000Y-103620000D01*
X57375000Y-109603000D02*
X57375000Y-112854200D01*
X114920000Y-103620000D02*
X113661400Y-104878600D01*
X69522200Y-104827800D02*
X62150200Y-104827800D01*
X152625000Y-109603000D02*
X152625000Y-112854200D01*
X70730000Y-103620000D02*
X69522200Y-104827800D01*
X92730000Y-103620000D02*
X93988600Y-104878600D01*
X71988600Y-104878600D02*
X84870100Y-104878600D01*
X107298300Y-104878600D02*
X107133600Y-104713900D01*
X84870100Y-104878600D02*
X84984800Y-104993300D01*
X106968900Y-104878600D02*
X107133600Y-104713900D01*
X137937800Y-104827800D02*
X147849800Y-104827800D01*
X70730000Y-103620000D02*
X71988600Y-104878600D01*
X62150200Y-104827800D02*
X57375000Y-109603000D01*
D16*
X91665000Y-112854200D02*
X91665000Y-112270000D01*
X80235000Y-112854200D02*
X80235000Y-111127000D01*
X108175000Y-112854200D02*
X108175000Y-111762000D01*
X118554000Y-111254000D02*
X119605000Y-112305000D01*
X91665000Y-112270000D02*
X92681000Y-111254000D01*
D17*
X120468600Y-111990600D02*
X119605000Y-112854200D01*
D16*
X61474500Y-102074500D02*
X61693000Y-101856000D01*
X128876000Y-101753600D02*
X127276600Y-101753600D01*
D17*
X128495000Y-112854200D02*
X127631400Y-111990600D01*
D16*
X83396900Y-101969900D02*
X84984800Y-101969900D01*
D17*
X127631400Y-111990600D02*
X120468600Y-111990600D01*
D16*
X105337100Y-101588900D02*
X107133600Y-101588900D01*
X139925000Y-112854200D02*
X139925000Y-111127000D01*
X68805000Y-112854200D02*
X68805000Y-111254000D01*
X119605000Y-112305000D02*
X119605000Y-112854200D01*
X108683000Y-111254000D02*
X118554000Y-111254000D01*
X61693000Y-101856000D02*
X62836000Y-101856000D01*
X108175000Y-111762000D02*
X108683000Y-111254000D01*
D18*
X88845600Y-94413800D02*
X88540800Y-94718600D01*
X113065800Y-94399800D02*
X111059200Y-94399800D01*
X107399000Y-94704600D02*
X105203200Y-92508800D01*
X84426000Y-94718600D02*
X82227600Y-92520200D01*
X141810000Y-93460000D02*
X136154400Y-93460000D01*
X69123800Y-94450600D02*
X70114400Y-93460000D01*
X136154400Y-93460000D02*
X135214600Y-94399800D01*
X120939800Y-92520200D02*
X120000000Y-93460000D01*
X97810000Y-93460000D02*
X91907600Y-93460000D01*
X135214600Y-94399800D02*
X132930096Y-94399800D01*
X114005600Y-93460000D02*
X113065800Y-94399800D01*
X76749800Y-92520200D02*
X75810000Y-93460000D01*
X62875400Y-94450600D02*
X69123800Y-94450600D01*
X90953800Y-94413800D02*
X88845600Y-94413800D01*
X130120600Y-94718600D02*
X127922200Y-92520200D01*
X132930096Y-94399800D02*
X132611296Y-94718600D01*
X132611296Y-94718600D02*
X130120600Y-94718600D01*
X91907600Y-93460000D02*
X90953800Y-94413800D01*
X70114400Y-93460000D02*
X75810000Y-93460000D01*
X82227600Y-92520200D02*
X76749800Y-92520200D01*
X61883500Y-95442500D02*
X62875400Y-94450600D01*
X110754400Y-94704600D02*
X107399000Y-94704600D01*
X111059200Y-94399800D02*
X110754400Y-94704600D01*
X120000000Y-93460000D02*
X114005600Y-93460000D01*
X88540800Y-94718600D02*
X84426000Y-94718600D01*
X98761200Y-92508800D02*
X97810000Y-93460000D01*
X105203200Y-92508800D02*
X98761200Y-92508800D01*
X127922200Y-92520200D02*
X120939800Y-92520200D01*
X83816400Y-95023400D02*
X88845600Y-95023400D01*
X127871400Y-93460000D02*
X129471600Y-95060200D01*
X111313200Y-94704600D02*
X113370600Y-94704600D01*
X133258800Y-94755400D02*
X143054600Y-94755400D01*
X132954000Y-95060200D02*
X133258800Y-94755400D01*
X143054600Y-94755400D02*
X144350000Y-93460000D01*
X77480400Y-93460000D02*
X78350000Y-93460000D01*
X105163800Y-93460000D02*
X106713200Y-95009400D01*
X121600200Y-93460000D02*
X122540000Y-93460000D01*
X76540600Y-94399800D02*
X77480400Y-93460000D01*
X69987400Y-94399800D02*
X76540600Y-94399800D01*
X99502200Y-93460000D02*
X100350000Y-93460000D01*
X113675400Y-94399800D02*
X120660400Y-94399800D01*
X100350000Y-93460000D02*
X105163800Y-93460000D01*
X89150400Y-94718600D02*
X91183148Y-94718600D01*
X122540000Y-93460000D02*
X127871400Y-93460000D01*
X98562400Y-94399800D02*
X99502200Y-93460000D01*
X111008400Y-95009400D02*
X111313200Y-94704600D01*
X120660400Y-94399800D02*
X121600200Y-93460000D01*
X113370600Y-94704600D02*
X113675400Y-94399800D01*
X61566000Y-96776000D02*
X63586600Y-94755400D01*
X82253000Y-93460000D02*
X83816400Y-95023400D01*
X78350000Y-93460000D02*
X82253000Y-93460000D01*
X106713200Y-95009400D02*
X111008400Y-95009400D01*
X63586600Y-94755400D02*
X69631800Y-94755400D01*
X69631800Y-94755400D02*
X69987400Y-94399800D01*
X88845600Y-95023400D02*
X89150400Y-94718600D01*
X91501948Y-94399800D02*
X98562400Y-94399800D01*
X129471600Y-95060200D02*
X132954000Y-95060200D01*
X91183148Y-94718600D02*
X91501948Y-94399800D01*
X121005788Y-96000000D02*
X120000000Y-96000000D01*
X99781600Y-95060200D02*
X98841800Y-96000000D01*
X80551200Y-95060200D02*
X82735600Y-97244600D01*
X128608000Y-97295400D02*
X126372800Y-95060200D01*
X77755588Y-95060200D02*
X80551200Y-95060200D01*
X135316200Y-96711200D02*
X134732000Y-97295400D01*
X115312400Y-96979200D02*
X111400800Y-96979200D01*
X111135400Y-97244600D02*
X106205200Y-97244600D01*
X96804212Y-96000000D02*
X97810000Y-96000000D01*
X88845600Y-96979200D02*
X90979200Y-96979200D01*
X121945588Y-95060200D02*
X121005788Y-96000000D01*
X111400800Y-96979200D02*
X111135400Y-97244600D01*
X91272600Y-96685800D02*
X96118412Y-96685800D01*
X97810000Y-95990400D02*
X97810000Y-96000000D01*
X88580200Y-97244600D02*
X88845600Y-96979200D01*
X62316600Y-97295400D02*
X66406000Y-97295400D01*
X126372800Y-95060200D02*
X121945588Y-95060200D01*
X69750522Y-96389278D02*
X75420722Y-96389278D01*
X60296000Y-99316000D02*
X62316600Y-97295400D01*
X76815788Y-96000000D02*
X77755588Y-95060200D01*
X104020800Y-95060200D02*
X99781600Y-95060200D01*
X75420722Y-96389278D02*
X75810000Y-96000000D01*
X141098800Y-96711200D02*
X135316200Y-96711200D01*
X66761600Y-96939800D02*
X69200000Y-96939800D01*
X116291600Y-96000000D02*
X115312400Y-96979200D01*
X75810000Y-96000000D02*
X76815788Y-96000000D01*
X141810000Y-96000000D02*
X141098800Y-96711200D01*
X134732000Y-97295400D02*
X128608000Y-97295400D01*
X98841800Y-96000000D02*
X97810000Y-96000000D01*
X106205200Y-97244600D02*
X104020800Y-95060200D01*
X90979200Y-96979200D02*
X91272600Y-96685800D01*
X82735600Y-97244600D02*
X88580200Y-97244600D01*
X120000000Y-96000000D02*
X116291600Y-96000000D01*
X96118412Y-96685800D02*
X96804212Y-96000000D01*
X66406000Y-97295400D02*
X66761600Y-96939800D01*
X69200000Y-96939800D02*
X69750522Y-96389278D01*
X89164400Y-97295400D02*
X91221800Y-97295400D01*
X98353612Y-96990600D02*
X99344212Y-96000000D01*
X91221800Y-97295400D02*
X91526600Y-96990600D01*
X116480800Y-97284000D02*
X116811000Y-96953800D01*
X143723600Y-96000000D02*
X144350000Y-96000000D01*
X100350000Y-96000000D02*
X103741400Y-96000000D01*
X82456200Y-97549400D02*
X88910400Y-97549400D01*
X80906800Y-96000000D02*
X82456200Y-97549400D01*
X116811000Y-96953800D02*
X120798800Y-96953800D01*
X111680948Y-97284000D02*
X116480800Y-97284000D01*
X120798800Y-96953800D02*
X121752600Y-96000000D01*
X64805800Y-97600200D02*
X66812400Y-97600200D01*
X91526600Y-96990600D02*
X98353612Y-96990600D01*
X103741400Y-96000000D02*
X105330200Y-97588800D01*
X61820000Y-98935000D02*
X61947000Y-98808000D01*
X66812400Y-97600200D02*
X67168000Y-97244600D01*
X69631800Y-97244600D02*
X69936600Y-96939800D01*
X136673800Y-97055400D02*
X142668200Y-97055400D01*
X99344212Y-96000000D02*
X100350000Y-96000000D01*
X63598000Y-98808000D02*
X64805800Y-97600200D01*
X69936600Y-96939800D02*
X76616800Y-96939800D01*
X78209000Y-96141000D02*
X78350000Y-96000000D01*
X126195000Y-96000000D02*
X127795200Y-97600200D01*
X78350000Y-96000000D02*
X80906800Y-96000000D01*
X121752600Y-96000000D02*
X122540000Y-96000000D01*
X61947000Y-98808000D02*
X63598000Y-98808000D01*
X127795200Y-97600200D02*
X136129000Y-97600200D01*
X111376148Y-97588800D02*
X111680948Y-97284000D01*
X122540000Y-96000000D02*
X126195000Y-96000000D01*
X88910400Y-97549400D02*
X89164400Y-97295400D01*
X105330200Y-97588800D02*
X111376148Y-97588800D01*
X136129000Y-97600200D02*
X136673800Y-97055400D01*
X67168000Y-97244600D02*
X69631800Y-97244600D01*
X76616800Y-96939800D02*
X77415600Y-96141000D01*
X142668200Y-97055400D02*
X143723600Y-96000000D01*
X77415600Y-96141000D02*
X78209000Y-96141000D01*
X97567400Y-98782600D02*
X97810000Y-98540000D01*
X68717400Y-99479800D02*
X69236800Y-98960400D01*
X75810000Y-98540000D02*
X76845400Y-98540000D01*
X76845400Y-98540000D02*
X77836000Y-97549400D01*
X82888748Y-99784600D02*
X88656400Y-99784600D01*
X88961200Y-99479800D02*
X90840800Y-99479800D01*
X66620600Y-99479800D02*
X68717400Y-99479800D01*
X122006600Y-97600200D02*
X121066800Y-98540000D01*
X80653548Y-97549400D02*
X82888748Y-99784600D01*
X112989600Y-99479800D02*
X111135400Y-99479800D01*
X63013824Y-99646200D02*
X66454200Y-99646200D01*
X103552948Y-99824000D02*
X101329148Y-97600200D01*
X135134800Y-99254800D02*
X134554200Y-99835400D01*
X90840800Y-99479800D02*
X91538000Y-98782600D01*
X111135400Y-99479800D02*
X110791200Y-99824000D01*
X121066800Y-98540000D02*
X120000000Y-98540000D01*
X118755400Y-98540000D02*
X118120400Y-99175000D01*
X91538000Y-98782600D02*
X97567400Y-98782600D01*
X69236800Y-98960400D02*
X75389600Y-98960400D01*
X101329148Y-97600200D02*
X99755588Y-97600200D01*
X66454200Y-99646200D02*
X66620600Y-99479800D01*
X120000000Y-98540000D02*
X118755400Y-98540000D01*
X141095200Y-99254800D02*
X135134800Y-99254800D01*
X99755588Y-97600200D02*
X98815788Y-98540000D01*
X98815788Y-98540000D02*
X97810000Y-98540000D01*
X113294400Y-99175000D02*
X112989600Y-99479800D01*
X118120400Y-99175000D02*
X113294400Y-99175000D01*
X75389600Y-98960400D02*
X75810000Y-98540000D01*
X62518512Y-100141512D02*
X63013824Y-99646200D01*
X77836000Y-97549400D02*
X80653548Y-97549400D01*
X126753800Y-99835400D02*
X124518600Y-97600200D01*
X141810000Y-98540000D02*
X141095200Y-99254800D01*
X124518600Y-97600200D02*
X122006600Y-97600200D01*
X134554200Y-99835400D02*
X126753800Y-99835400D01*
X88656400Y-99784600D02*
X88961200Y-99479800D01*
X110791200Y-99824000D02*
X103552948Y-99824000D01*
X111019800Y-100128800D02*
X111364000Y-99784600D01*
X134960600Y-100140200D02*
X135454600Y-99646200D01*
X91360200Y-99519200D02*
X98726200Y-99519200D01*
X76845400Y-99530600D02*
X77836000Y-98540000D01*
X77836000Y-98540000D02*
X78350000Y-98540000D01*
X66888600Y-100089400D02*
X67193400Y-99784600D01*
X68869800Y-99784600D02*
X69123800Y-99530600D01*
X135454600Y-99646200D02*
X142465000Y-99646200D01*
X79713000Y-98540000D02*
X81262400Y-100089400D01*
X64348600Y-100089400D02*
X66888600Y-100089400D01*
X89291400Y-99784600D02*
X91094800Y-99784600D01*
X91094800Y-99784600D02*
X91360200Y-99519200D01*
X142465000Y-99646200D02*
X143571200Y-98540000D01*
X88986600Y-100089400D02*
X89291400Y-99784600D01*
X67193400Y-99784600D02*
X68869800Y-99784600D01*
X69123800Y-99530600D02*
X76845400Y-99530600D01*
X111364000Y-99784600D02*
X113192800Y-99784600D01*
X120990600Y-99479800D02*
X121930400Y-98540000D01*
X81262400Y-100089400D02*
X88986600Y-100089400D01*
X124366200Y-98540000D02*
X125966400Y-100140200D01*
X78350000Y-98540000D02*
X79713000Y-98540000D01*
X125966400Y-100140200D02*
X134960600Y-100140200D01*
X98726200Y-99519200D02*
X99705400Y-98540000D01*
X143571200Y-98540000D02*
X144350000Y-98540000D01*
X121930400Y-98540000D02*
X122540000Y-98540000D01*
X102917200Y-100128800D02*
X111019800Y-100128800D01*
X99705400Y-98540000D02*
X100350000Y-98540000D01*
X100350000Y-98540000D02*
X101328400Y-98540000D01*
X101328400Y-98540000D02*
X102917200Y-100128800D01*
X113192800Y-99784600D02*
X113497600Y-99479800D01*
X63979000Y-100459000D02*
X64348600Y-100089400D01*
X113497600Y-99479800D02*
X120990600Y-99479800D01*
X122540000Y-98540000D02*
X124366200Y-98540000D01*
X76806000Y-107476300D02*
X76889100Y-107393200D01*
X66265000Y-110619000D02*
X66265000Y-112854200D01*
X76889100Y-107393200D02*
X97075200Y-107393200D01*
X97075200Y-107393200D02*
X118512800Y-107393200D01*
X143227000Y-106047000D02*
X141880800Y-107393200D01*
X76799100Y-107469400D02*
X69414600Y-107469400D01*
X69414600Y-107469400D02*
X66265000Y-110619000D01*
X76806000Y-107476300D02*
X76799100Y-107469400D01*
X141880800Y-107393200D02*
X118512800Y-107393200D01*
X78380800Y-108104400D02*
X98548400Y-108104400D01*
X121332200Y-108079000D02*
X98573800Y-108079000D01*
X98548400Y-108104400D02*
X98573800Y-108079000D01*
X143862000Y-107444000D02*
X143201600Y-108104400D01*
X121395334Y-108142134D02*
X121332200Y-108079000D01*
X69922600Y-108104400D02*
X67535000Y-110492000D01*
X67535000Y-110492000D02*
X67535000Y-112854200D01*
X143201600Y-108104400D02*
X121433068Y-108104400D01*
X121433068Y-108104400D02*
X121395334Y-108142134D01*
X78380800Y-108104400D02*
X69922600Y-108104400D01*
X124304000Y-110111000D02*
X124304000Y-109603000D01*
X66736200Y-98235200D02*
X67422000Y-97549400D01*
X127693600Y-98540000D02*
X131650000Y-98540000D01*
X124685000Y-110492000D02*
X124304000Y-110111000D01*
X99273600Y-96939800D02*
X98918000Y-97295400D01*
X91526600Y-97600200D02*
X89545400Y-97600200D01*
X88605600Y-98540000D02*
X87650000Y-98540000D01*
X126144200Y-96990600D02*
X127693600Y-98540000D01*
X89545400Y-97600200D02*
X88605600Y-98540000D01*
X98918000Y-97295400D02*
X91831400Y-97295400D01*
X117979400Y-97295400D02*
X121193800Y-97295400D01*
X136292800Y-110492000D02*
X124685000Y-110492000D01*
X121193800Y-97295400D02*
X121498600Y-96990600D01*
X110881400Y-98540000D02*
X111821200Y-97600200D01*
X102547600Y-96939800D02*
X99273600Y-96939800D01*
X138655000Y-112854200D02*
X136292800Y-110492000D01*
X91831400Y-97295400D02*
X91526600Y-97600200D01*
X81239600Y-96939800D02*
X82839800Y-98540000D01*
X109840000Y-98540000D02*
X110881400Y-98540000D01*
X74305400Y-97549400D02*
X74610200Y-97244600D01*
X109840000Y-98540000D02*
X104147800Y-98540000D01*
X82839800Y-98540000D02*
X87650000Y-98540000D01*
X76972400Y-97244600D02*
X77277200Y-96939800D01*
X104147800Y-98540000D02*
X102547600Y-96939800D01*
X65650000Y-98540000D02*
X65954800Y-98235200D01*
X111821200Y-97600200D02*
X117674600Y-97600200D01*
X117674600Y-97600200D02*
X117979400Y-97295400D01*
X74610200Y-97244600D02*
X76972400Y-97244600D01*
X65954800Y-98235200D02*
X66736200Y-98235200D01*
X67422000Y-97549400D02*
X74305400Y-97549400D01*
X77277200Y-96939800D02*
X81239600Y-96939800D01*
X121498600Y-96990600D02*
X126144200Y-96990600D01*
X82013000Y-109603000D02*
X82394000Y-109984000D01*
X133589000Y-96000000D02*
X132598400Y-96990600D01*
X81478300Y-94755400D02*
X77531200Y-94755400D01*
X77277200Y-95009400D02*
X75118200Y-95009400D01*
X97140000Y-95009400D02*
X99172000Y-95009400D01*
X81549450Y-94826550D02*
X81478300Y-94755400D01*
X83662700Y-96939800D02*
X88300800Y-96939800D01*
X129268400Y-96990600D02*
X127033200Y-94755400D01*
X88300800Y-96939800D02*
X89240600Y-96000000D01*
X74127600Y-96000000D02*
X68190000Y-96000000D01*
X99426000Y-94755400D02*
X104630400Y-94755400D01*
X96149400Y-96000000D02*
X97140000Y-95009400D01*
X106814800Y-96939800D02*
X110553444Y-96939800D01*
X114843800Y-96000000D02*
X112380000Y-96000000D01*
X82394000Y-109984000D02*
X123161000Y-109984000D01*
X121473200Y-94755400D02*
X121179800Y-95048800D01*
X123161000Y-109984000D02*
X124304000Y-111127000D01*
X111493244Y-96000000D02*
X112380000Y-96000000D01*
X110553444Y-96939800D02*
X111493244Y-96000000D01*
X81549450Y-94826550D02*
X83662700Y-96939800D01*
X135657800Y-111127000D02*
X137385000Y-112854200D01*
X75118200Y-95009400D02*
X74127600Y-96000000D01*
X90190000Y-96000000D02*
X96149400Y-96000000D01*
X115795000Y-95048800D02*
X114843800Y-96000000D01*
X77531200Y-94755400D02*
X77277200Y-95009400D01*
X99172000Y-95009400D02*
X99426000Y-94755400D01*
X132598400Y-96990600D02*
X129268400Y-96990600D01*
X121179800Y-95048800D02*
X115795000Y-95048800D01*
X124304000Y-111127000D02*
X135657800Y-111127000D01*
X127033200Y-94755400D02*
X121473200Y-94755400D01*
X134190000Y-96000000D02*
X133589000Y-96000000D01*
X89240600Y-96000000D02*
X90190000Y-96000000D01*
X104630400Y-94755400D02*
X106814800Y-96939800D01*
X109840000Y-93104400D02*
X109840000Y-93460000D01*
X122780000Y-110492000D02*
X123923000Y-111635000D01*
X88998000Y-110492000D02*
X122780000Y-110492000D01*
X87650000Y-93460000D02*
X89250200Y-91859800D01*
X134895800Y-111635000D02*
X136115000Y-112854200D01*
X89250200Y-91859800D02*
X107068800Y-91859800D01*
X88236000Y-111254000D02*
X88998000Y-110492000D01*
X108669000Y-93460000D02*
X109840000Y-93460000D01*
X85097800Y-93460000D02*
X87650000Y-93460000D01*
X123923000Y-111635000D02*
X134895800Y-111635000D01*
X84070400Y-92432600D02*
X85097800Y-93460000D01*
X111084600Y-91859800D02*
X109840000Y-93104400D01*
X83664000Y-111254000D02*
X88236000Y-111254000D01*
X65650000Y-93460000D02*
X67250200Y-91859800D01*
X83156000Y-110746000D02*
X83664000Y-111254000D01*
X83497600Y-91859800D02*
X84070400Y-92432600D01*
X67250200Y-91859800D02*
X83497600Y-91859800D01*
X130049800Y-91859800D02*
X111084600Y-91859800D01*
X131650000Y-93460000D02*
X130049800Y-91859800D01*
X107068800Y-91859800D02*
X108669000Y-93460000D01*
X113458200Y-106605800D02*
X135302200Y-106605800D01*
X90547400Y-106605800D02*
X113458200Y-106605800D01*
X70938600Y-106631200D02*
X70303600Y-105996200D01*
X90522000Y-106631200D02*
X70938600Y-106631200D01*
X90547400Y-106605800D02*
X90522000Y-106631200D01*
X122145000Y-103837200D02*
X120951200Y-102643400D01*
X120951200Y-102643400D02*
X113356600Y-102643400D01*
X112340600Y-103659400D02*
X112380000Y-103620000D01*
X98585200Y-102680200D02*
X99564400Y-103659400D01*
X99564400Y-103659400D02*
X112340600Y-103659400D01*
X77999800Y-103888000D02*
X89922000Y-103888000D01*
X90190000Y-103620000D02*
X91129800Y-102680200D01*
X113356600Y-102643400D02*
X112380000Y-103620000D01*
X69129800Y-102680200D02*
X76792000Y-102680200D01*
X76792000Y-102680200D02*
X77999800Y-103888000D01*
X130984200Y-103837200D02*
X122145000Y-103837200D01*
X131263600Y-104116600D02*
X133693400Y-104116600D01*
X89922000Y-103888000D02*
X90190000Y-103620000D01*
X133693400Y-104116600D02*
X134190000Y-103620000D01*
X68190000Y-103620000D02*
X69129800Y-102680200D01*
X131263600Y-104116600D02*
X130984200Y-103837200D01*
X91129800Y-102680200D02*
X98585200Y-102680200D01*
X73993500Y-108841000D02*
X73885000Y-108732500D01*
X90598200Y-108841000D02*
X73993500Y-108841000D01*
X90598200Y-108841000D02*
X116658600Y-108841000D01*
X116658600Y-108841000D02*
X128749000Y-108841000D01*
X129002634Y-108840634D02*
X129002268Y-108841000D01*
X129002268Y-108841000D02*
X128749000Y-108841000D01*
X138782000Y-108841000D02*
X128749000Y-108841000D01*
X118704600Y-102324600D02*
X117460000Y-101080000D01*
X95270000Y-101080000D02*
X94025400Y-102324600D01*
X95270000Y-101080000D02*
X96514600Y-102324600D01*
X98915400Y-102324600D02*
X99767600Y-103176800D01*
X138025400Y-102324600D02*
X139270000Y-101080000D01*
X132305000Y-103227600D02*
X133208000Y-102324600D01*
X110969000Y-103176800D02*
X111821200Y-102324600D01*
X99767600Y-103176800D02*
X110969000Y-103176800D01*
X94025400Y-102324600D02*
X89723200Y-102324600D01*
X78228400Y-103430800D02*
X77122200Y-102324600D01*
X132305000Y-103227600D02*
X132254200Y-103278400D01*
X88617000Y-103430800D02*
X78228400Y-103430800D01*
X122602200Y-103278400D02*
X121648400Y-102324600D01*
X74514600Y-102324600D02*
X73270000Y-101080000D01*
X132254200Y-103278400D02*
X122602200Y-103278400D01*
X133208000Y-102324600D02*
X138025400Y-102324600D01*
X77122200Y-102324600D02*
X74514600Y-102324600D01*
X89723200Y-102324600D02*
X88617000Y-103430800D01*
X116215400Y-102324600D02*
X117460000Y-101080000D01*
X111821200Y-102324600D02*
X116215400Y-102324600D01*
X121648400Y-102324600D02*
X118704600Y-102324600D01*
X96514600Y-102324600D02*
X98915400Y-102324600D01*
X91602800Y-99835400D02*
X101760200Y-99835400D01*
X66507600Y-101080000D02*
X67484200Y-100103400D01*
X101760200Y-99835400D02*
X102409200Y-100484400D01*
X113458200Y-100128800D02*
X111680200Y-100128800D01*
X69352400Y-99835400D02*
X80068600Y-99835400D01*
X125091400Y-100509800D02*
X124366200Y-99784600D01*
X131079800Y-100509800D02*
X125091400Y-100509800D01*
X80692200Y-100459000D02*
X87029000Y-100459000D01*
X88655788Y-101080000D02*
X89646388Y-100089400D01*
X131650000Y-101080000D02*
X131079800Y-100509800D01*
X87650000Y-101080000D02*
X88655788Y-101080000D01*
X109244400Y-100484400D02*
X109840000Y-101080000D01*
X69084400Y-100103400D02*
X69352400Y-99835400D01*
X124366200Y-99784600D02*
X113802400Y-99784600D01*
X87029000Y-100459000D02*
X87650000Y-101080000D01*
X113802400Y-99784600D02*
X113458200Y-100128800D01*
X80068600Y-99835400D02*
X80692200Y-100459000D01*
X67484200Y-100103400D02*
X69084400Y-100103400D01*
X111680200Y-100128800D02*
X110729000Y-101080000D01*
X110729000Y-101080000D02*
X109840000Y-101080000D01*
X91348800Y-100089400D02*
X91602800Y-99835400D01*
X89646388Y-100089400D02*
X91348800Y-100089400D01*
X65650000Y-101080000D02*
X66507600Y-101080000D01*
X102409200Y-100484400D02*
X109244400Y-100484400D01*
X101811000Y-97295400D02*
X104034800Y-99519200D01*
X132344400Y-99530600D02*
X127566600Y-99530600D01*
X134190000Y-98540000D02*
X137246600Y-98540000D01*
X121778000Y-97295400D02*
X121473200Y-97600200D01*
X99248200Y-97600200D02*
X99553000Y-97295400D01*
X125331400Y-97295400D02*
X121778000Y-97295400D01*
X133335000Y-98540000D02*
X132344400Y-99530600D01*
X77632800Y-97244600D02*
X80779800Y-97244600D01*
X96516400Y-98122200D02*
X97038400Y-97600200D01*
X118704600Y-97600200D02*
X117764800Y-98540000D01*
X90190000Y-98540000D02*
X91195788Y-98540000D01*
X75042000Y-97549400D02*
X77328000Y-97549400D01*
X104034800Y-99519200D02*
X110537200Y-99519200D01*
X117764800Y-98540000D02*
X112380000Y-98540000D01*
X77328000Y-97549400D02*
X77632800Y-97244600D01*
X99553000Y-97295400D02*
X101811000Y-97295400D01*
X97038400Y-97600200D02*
X99248200Y-97600200D01*
X134190000Y-98540000D02*
X133335000Y-98540000D01*
X68190000Y-98540000D02*
X68494800Y-98235200D01*
X89342200Y-98540000D02*
X90190000Y-98540000D01*
X127566600Y-99530600D02*
X125331400Y-97295400D01*
X68494800Y-98235200D02*
X74356200Y-98235200D01*
X121473200Y-97600200D02*
X118704600Y-97600200D01*
X91195788Y-98540000D02*
X91613588Y-98122200D01*
X74356200Y-98235200D02*
X75042000Y-97549400D01*
X110537200Y-99519200D02*
X111516400Y-98540000D01*
X111516400Y-98540000D02*
X112380000Y-98540000D01*
X80779800Y-97244600D02*
X83015000Y-99479800D01*
X83015000Y-99479800D02*
X88402400Y-99479800D01*
X91613588Y-98122200D02*
X96516400Y-98122200D01*
X88402400Y-99479800D02*
X89342200Y-98540000D01*
X76298000Y-105869200D02*
X97169900Y-105869200D01*
X97169900Y-105869200D02*
X97236850Y-105802250D01*
X76145600Y-105716800D02*
X76298000Y-105869200D01*
X97236850Y-105802250D02*
X120002150Y-105802250D01*
X141372800Y-105843800D02*
X141322000Y-105793000D01*
X120002150Y-105802250D02*
X120011400Y-105793000D01*
X141322000Y-105793000D02*
X120011400Y-105793000D01*
X132700000Y-96000000D02*
X131650000Y-96000000D01*
X105240000Y-94450600D02*
X99172000Y-94450600D01*
X138401000Y-96083100D02*
X137849300Y-95531400D01*
X84031000Y-96000000D02*
X82140000Y-94109000D01*
X133639800Y-95060200D02*
X132700000Y-96000000D01*
X87650000Y-96000000D02*
X84031000Y-96000000D01*
X66589800Y-95060200D02*
X65650000Y-96000000D01*
X96352600Y-95060200D02*
X89595588Y-95060200D01*
X121205200Y-94413800D02*
X127656800Y-94413800D01*
X82140000Y-94109000D02*
X79823039Y-94109000D01*
X74610200Y-94704600D02*
X74254600Y-95060200D01*
X114423400Y-95048800D02*
X114767600Y-94704600D01*
X96708200Y-94704600D02*
X96352600Y-95060200D01*
X89595588Y-95060200D02*
X88655788Y-96000000D01*
X120914400Y-94704600D02*
X121205200Y-94413800D01*
X98918000Y-94704600D02*
X96708200Y-94704600D01*
X111781800Y-95048800D02*
X114423400Y-95048800D01*
X109840000Y-96000000D02*
X110830600Y-96000000D01*
X129243000Y-96000000D02*
X131650000Y-96000000D01*
X88655788Y-96000000D02*
X87650000Y-96000000D01*
X77201000Y-94399800D02*
X76896200Y-94704600D01*
X99172000Y-94450600D02*
X98918000Y-94704600D01*
X127656800Y-94413800D02*
X129243000Y-96000000D01*
X137849300Y-95531400D02*
X135632400Y-95531400D01*
X110830600Y-96000000D02*
X111781800Y-95048800D01*
X109840000Y-96000000D02*
X106789400Y-96000000D01*
X79823039Y-94109000D02*
X79532239Y-94399800D01*
X135632400Y-95531400D02*
X135161200Y-95060200D01*
X135161200Y-95060200D02*
X133639800Y-95060200D01*
X79532239Y-94399800D02*
X77201000Y-94399800D01*
X114767600Y-94704600D02*
X120914400Y-94704600D01*
X76896200Y-94704600D02*
X74610200Y-94704600D01*
X106789400Y-96000000D02*
X105240000Y-94450600D01*
X74254600Y-95060200D02*
X66589800Y-95060200D01*
D19*
X110359400Y-86387400D02*
X107032000Y-89714800D01*
X91395200Y-89714800D02*
X90190000Y-90920000D01*
X107032000Y-89714800D02*
X91395200Y-89714800D01*
X129790400Y-89664000D02*
X113636000Y-89664000D01*
X134006800Y-85447600D02*
X129790400Y-89664000D01*
X113636000Y-89664000D02*
X112380000Y-90920000D01*
X134006800Y-85422200D02*
X134006800Y-85447600D01*
X135420600Y-89689400D02*
X134190000Y-90920000D01*
X147900600Y-90426000D02*
X147164000Y-89689400D01*
X147164000Y-89689400D02*
X135420600Y-89689400D01*
D18*
X89125000Y-93448600D02*
X90178600Y-93448600D01*
X119554200Y-92204000D02*
X128596600Y-92204000D01*
X132244412Y-94399800D02*
X133184212Y-93460000D01*
X85073700Y-94413800D02*
X88159800Y-94413800D01*
X91446000Y-92204000D02*
X106143000Y-92204000D01*
X148198500Y-92508800D02*
X135141200Y-92508800D01*
X128596600Y-92204000D02*
X130792400Y-94399800D01*
X148604900Y-92915200D02*
X148198500Y-92508800D01*
X111465600Y-93460000D02*
X112380000Y-93460000D01*
X119122400Y-92635800D02*
X119554200Y-92204000D01*
X106143000Y-92204000D02*
X108338800Y-94399800D01*
X112380000Y-93460000D02*
X113167400Y-93460000D01*
X90190000Y-93460000D02*
X91446000Y-92204000D01*
X110525800Y-94399800D02*
X111465600Y-93460000D01*
X133184212Y-93460000D02*
X134190000Y-93460000D01*
X108338800Y-94399800D02*
X110525800Y-94399800D01*
X69434600Y-92215400D02*
X82875300Y-92215400D01*
X90178600Y-93448600D02*
X90190000Y-93460000D01*
X113991600Y-92635800D02*
X119122400Y-92635800D01*
X135141200Y-92508800D02*
X134190000Y-93460000D01*
X113167400Y-93460000D02*
X113991600Y-92635800D01*
X130792400Y-94399800D02*
X132244412Y-94399800D01*
X88159800Y-94413800D02*
X89125000Y-93448600D01*
X82875300Y-92215400D02*
X85073700Y-94413800D01*
X68190000Y-93460000D02*
X69434600Y-92215400D01*
X123172400Y-100140200D02*
X125904200Y-102872000D01*
X89570800Y-101080000D02*
X87778800Y-102872000D01*
X81809800Y-102872000D02*
X79078000Y-100140200D01*
X69606400Y-100140200D02*
X69236800Y-100509800D01*
X91881452Y-100140200D02*
X101201400Y-100140200D01*
X113040400Y-101080000D02*
X113980200Y-100140200D01*
X110029200Y-102719600D02*
X111668800Y-101080000D01*
X90190000Y-101080000D02*
X89570800Y-101080000D01*
X125904200Y-102872000D02*
X131187078Y-102872000D01*
X149424600Y-100484400D02*
X148992800Y-100052600D01*
X90190000Y-101080000D02*
X90941652Y-101080000D01*
X132979078Y-101080000D02*
X134190000Y-101080000D01*
X134757400Y-101080000D02*
X134190000Y-101080000D01*
X111668800Y-101080000D02*
X112380000Y-101080000D01*
X112380000Y-101080000D02*
X113040400Y-101080000D01*
X69236800Y-100509800D02*
X68760200Y-100509800D01*
X101201400Y-100140200D02*
X103780800Y-102719600D01*
X68760200Y-100509800D02*
X68190000Y-101080000D01*
X87778800Y-102872000D02*
X81809800Y-102872000D01*
X148992800Y-100052600D02*
X135784800Y-100052600D01*
X79078000Y-100140200D02*
X69606400Y-100140200D01*
X131187078Y-102872000D02*
X132979078Y-101080000D01*
X113980200Y-100140200D02*
X123172400Y-100140200D01*
X135784800Y-100052600D02*
X134757400Y-101080000D01*
X103780800Y-102719600D02*
X110029200Y-102719600D01*
X90941652Y-101080000D02*
X91881452Y-100140200D01*
M02*
