%TF.GenerationSoftware,KiCad,Pcbnew,7.0.9*%
%TF.CreationDate,2024-06-30T23:04:08+02:00*%
%TF.ProjectId,simm72_rom_2M55,73696d6d-3732-45f7-926f-6d5f324d3535,A0*%
%TF.SameCoordinates,Original*%
%TF.FileFunction,Drillmap*%
%TF.FilePolarity,Positive*%
%FSLAX45Y45*%
G04 Gerber Fmt 4.5, Leading zero omitted, Abs format (unit mm)*
G04 Created by KiCad (PCBNEW 7.0.9) date 2024-06-30 23:04:08*
%MOMM*%
%LPD*%
G01*
G04 APERTURE LIST*
%ADD10C,0.050000*%
%ADD11C,0.200000*%
G04 APERTURE END LIST*
D10*
X5153300Y-8366960D02*
G75*
G03*
X5102500Y-8417760I0J-50800D01*
G01*
X15897500Y-8417760D02*
G75*
G03*
X15846700Y-8366960I-50800J0D01*
G01*
X15897500Y-8417760D02*
X15897580Y-10274500D01*
X5102500Y-8417760D02*
X5102580Y-10274500D01*
X15846700Y-8366960D02*
X5153300Y-8366960D01*
D11*
X5360777Y-11858484D02*
X5360777Y-11658484D01*
X5360777Y-11658484D02*
X5408396Y-11658484D01*
X5408396Y-11658484D02*
X5436967Y-11668008D01*
X5436967Y-11668008D02*
X5456015Y-11687055D01*
X5456015Y-11687055D02*
X5465539Y-11706103D01*
X5465539Y-11706103D02*
X5475063Y-11744198D01*
X5475063Y-11744198D02*
X5475063Y-11772769D01*
X5475063Y-11772769D02*
X5465539Y-11810865D01*
X5465539Y-11810865D02*
X5456015Y-11829912D01*
X5456015Y-11829912D02*
X5436967Y-11848960D01*
X5436967Y-11848960D02*
X5408396Y-11858484D01*
X5408396Y-11858484D02*
X5360777Y-11858484D01*
X5560777Y-11858484D02*
X5560777Y-11725150D01*
X5560777Y-11763246D02*
X5570301Y-11744198D01*
X5570301Y-11744198D02*
X5579824Y-11734674D01*
X5579824Y-11734674D02*
X5598872Y-11725150D01*
X5598872Y-11725150D02*
X5617920Y-11725150D01*
X5684586Y-11858484D02*
X5684586Y-11725150D01*
X5684586Y-11658484D02*
X5675062Y-11668008D01*
X5675062Y-11668008D02*
X5684586Y-11677531D01*
X5684586Y-11677531D02*
X5694110Y-11668008D01*
X5694110Y-11668008D02*
X5684586Y-11658484D01*
X5684586Y-11658484D02*
X5684586Y-11677531D01*
X5808396Y-11858484D02*
X5789348Y-11848960D01*
X5789348Y-11848960D02*
X5779824Y-11829912D01*
X5779824Y-11829912D02*
X5779824Y-11658484D01*
X5913158Y-11858484D02*
X5894110Y-11848960D01*
X5894110Y-11848960D02*
X5884586Y-11829912D01*
X5884586Y-11829912D02*
X5884586Y-11658484D01*
X6141729Y-11858484D02*
X6141729Y-11658484D01*
X6141729Y-11658484D02*
X6208396Y-11801341D01*
X6208396Y-11801341D02*
X6275062Y-11658484D01*
X6275062Y-11658484D02*
X6275062Y-11858484D01*
X6456015Y-11858484D02*
X6456015Y-11753722D01*
X6456015Y-11753722D02*
X6446491Y-11734674D01*
X6446491Y-11734674D02*
X6427443Y-11725150D01*
X6427443Y-11725150D02*
X6389348Y-11725150D01*
X6389348Y-11725150D02*
X6370301Y-11734674D01*
X6456015Y-11848960D02*
X6436967Y-11858484D01*
X6436967Y-11858484D02*
X6389348Y-11858484D01*
X6389348Y-11858484D02*
X6370301Y-11848960D01*
X6370301Y-11848960D02*
X6360777Y-11829912D01*
X6360777Y-11829912D02*
X6360777Y-11810865D01*
X6360777Y-11810865D02*
X6370301Y-11791817D01*
X6370301Y-11791817D02*
X6389348Y-11782293D01*
X6389348Y-11782293D02*
X6436967Y-11782293D01*
X6436967Y-11782293D02*
X6456015Y-11772769D01*
X6551253Y-11725150D02*
X6551253Y-11925150D01*
X6551253Y-11734674D02*
X6570301Y-11725150D01*
X6570301Y-11725150D02*
X6608396Y-11725150D01*
X6608396Y-11725150D02*
X6627443Y-11734674D01*
X6627443Y-11734674D02*
X6636967Y-11744198D01*
X6636967Y-11744198D02*
X6646491Y-11763246D01*
X6646491Y-11763246D02*
X6646491Y-11820388D01*
X6646491Y-11820388D02*
X6636967Y-11839436D01*
X6636967Y-11839436D02*
X6627443Y-11848960D01*
X6627443Y-11848960D02*
X6608396Y-11858484D01*
X6608396Y-11858484D02*
X6570301Y-11858484D01*
X6570301Y-11858484D02*
X6551253Y-11848960D01*
X6732205Y-11839436D02*
X6741729Y-11848960D01*
X6741729Y-11848960D02*
X6732205Y-11858484D01*
X6732205Y-11858484D02*
X6722682Y-11848960D01*
X6722682Y-11848960D02*
X6732205Y-11839436D01*
X6732205Y-11839436D02*
X6732205Y-11858484D01*
X6732205Y-11734674D02*
X6741729Y-11744198D01*
X6741729Y-11744198D02*
X6732205Y-11753722D01*
X6732205Y-11753722D02*
X6722682Y-11744198D01*
X6722682Y-11744198D02*
X6732205Y-11734674D01*
X6732205Y-11734674D02*
X6732205Y-11753722D01*
M02*
