M48
; DRILL file {KiCad 7.0.9} date Monday, January 22, 2024 at 10:06:58 PM
; FORMAT={-:-/ absolute / metric / decimal}
; #@! TF.CreationDate,2024-01-22T22:06:58+01:00
; #@! TF.GenerationSoftware,Kicad,Pcbnew,7.0.9
; #@! TF.FileFunction,Plated,1,2,PTH
FMAT,2
METRIC
; #@! TA.AperFunction,Plated,PTH,ViaDrill
T1C0.400
; #@! TA.AperFunction,Plated,PTH,ComponentDrill
T2C0.800
; #@! TA.AperFunction,Plated,PTH,ComponentDrill
T3C1.020
; #@! TA.AperFunction,Plated,PTH,ComponentDrill
T4C1.100
%
G90
G05
T1
X107.188Y-68.961
X107.823Y-91.186
X112.014Y-76.073
X118.491Y-82.931
X118.618Y-67.691
X125.476Y-91.44
X128.143Y-88.011
X128.288Y-69.995
X130.302Y-78.575
X132.08Y-74.37
X133.096Y-77.851
X133.858Y-75.094
X135.069Y-76.141
X135.191Y-74.993
X135.89Y-73.025
X140.843Y-67.056
X142.113Y-66.167
X143.383Y-65.405
X144.653Y-64.478
X145.923Y-63.754
X147.193Y-62.865
X148.463Y-62.103
X157.353Y-48.387
X158.115Y-99.06
X158.623Y-49.403
X159.893Y-50.419
X161.036Y-51.435
X162.433Y-52.451
X162.56Y-95.504
X163.703Y-53.721
X164.973Y-54.61
X168.101Y-84.201
X169.799Y-83.147
X171.704Y-82.423
X175.26Y-104.648
X176.594Y-100.266
X177.546Y-97.79
X177.8Y-89.789
X180.086Y-95.885
X184.023Y-92.456
X185.166Y-76.708
X185.928Y-93.345
X188.087Y-88.9
X190.119Y-89.027
X191.77Y-86.614
X201.041Y-85.09
T2
X107.841Y-72.662
X107.841Y-80.282
X107.841Y-83.457
X110.381Y-72.662
X110.381Y-80.282
X112.841Y-83.457
X112.921Y-72.662
X112.921Y-80.282
X115.461Y-72.662
X115.461Y-80.282
X118.001Y-72.662
X118.001Y-80.282
X120.541Y-72.662
X120.541Y-80.282
X123.081Y-72.662
X123.081Y-80.282
X125.621Y-72.662
X125.621Y-80.282
X128.161Y-72.662
X128.161Y-80.282
X130.701Y-72.662
X130.701Y-80.282
X140.861Y-72.662
X140.861Y-80.282
X140.861Y-83.457
X143.401Y-72.662
X143.401Y-80.282
X145.861Y-83.457
X145.941Y-72.662
X145.941Y-80.282
X148.481Y-72.662
X148.481Y-80.282
X151.021Y-72.662
X151.021Y-80.282
X153.561Y-72.662
X153.561Y-80.282
X156.101Y-72.662
X156.101Y-80.282
X158.641Y-72.662
X158.641Y-80.282
X160.02Y-96.52
X160.02Y-99.06
X160.02Y-101.6
X160.02Y-104.14
X160.02Y-106.68
X160.02Y-109.22
X160.02Y-111.76
X160.02Y-114.3
X160.02Y-116.84
X161.181Y-72.662
X161.181Y-80.282
X163.721Y-72.662
X163.721Y-80.282
X173.881Y-72.662
X173.881Y-80.282
X173.881Y-83.584
X176.421Y-72.662
X176.421Y-80.282
X178.881Y-83.584
X178.961Y-72.662
X178.961Y-80.282
X181.501Y-72.662
X181.501Y-80.282
X184.041Y-72.662
X184.041Y-80.282
X186.581Y-72.662
X186.581Y-80.282
X189.121Y-72.662
X189.121Y-80.282
X191.661Y-72.662
X191.661Y-80.282
X194.201Y-72.662
X194.201Y-80.282
X196.741Y-72.662
X196.741Y-80.282
T3
X105.301Y-98.062
X105.301Y-115.842
X107.841Y-98.062
X107.841Y-115.842
X110.381Y-98.062
X110.381Y-115.842
X112.921Y-98.062
X112.921Y-115.842
X115.461Y-98.062
X115.461Y-115.842
X118.001Y-98.062
X118.001Y-115.842
X120.541Y-98.062
X120.541Y-115.842
X123.081Y-98.062
X123.081Y-115.842
X125.621Y-98.062
X125.621Y-115.842
X128.161Y-98.062
X128.161Y-115.842
X130.701Y-98.062
X130.701Y-115.842
X133.241Y-98.062
X133.241Y-115.842
X135.781Y-98.062
X135.781Y-115.842
X138.321Y-98.062
X138.321Y-115.842
X140.861Y-98.062
X140.861Y-115.842
X143.401Y-98.062
X143.401Y-115.842
X145.941Y-98.062
X145.941Y-115.842
X148.481Y-98.062
X148.481Y-115.842
X151.021Y-98.062
X151.021Y-115.842
X153.331Y-104.412
X153.331Y-106.952
X153.331Y-109.492
X153.561Y-98.062
X153.561Y-115.842
T4
X105.301Y-57.422
X106.571Y-59.962
X107.841Y-57.422
X109.111Y-59.962
X110.381Y-57.422
X111.651Y-59.962
X112.921Y-57.422
X114.191Y-59.962
X115.461Y-57.422
X116.731Y-59.962
X118.001Y-57.422
X119.271Y-59.962
X120.541Y-57.422
X121.811Y-59.962
X123.081Y-57.422
X124.351Y-59.962
X125.621Y-57.422
X126.891Y-59.962
X128.161Y-57.422
X129.431Y-59.962
X130.701Y-57.422
X131.971Y-59.962
X133.241Y-57.422
X134.511Y-59.962
X135.781Y-57.422
X137.051Y-59.962
X138.321Y-57.422
X139.591Y-59.962
X140.861Y-57.422
X142.131Y-59.962
X143.401Y-57.422
X144.671Y-59.962
X145.941Y-57.422
X147.211Y-59.962
X148.481Y-57.422
X149.751Y-59.962
X156.101Y-57.422
X157.371Y-59.962
X158.641Y-57.422
X159.911Y-59.962
X161.181Y-57.422
X162.451Y-59.962
X163.721Y-57.422
X164.991Y-59.962
X166.261Y-57.422
X167.531Y-59.962
X168.801Y-57.422
X170.071Y-59.962
X171.341Y-57.422
X172.611Y-59.962
X173.881Y-57.422
X175.151Y-59.962
X176.421Y-57.422
X177.691Y-59.962
X178.961Y-57.422
X180.231Y-59.962
X181.501Y-57.422
X182.771Y-59.962
X184.041Y-57.422
X185.311Y-59.962
X186.581Y-57.422
X187.851Y-59.962
X189.121Y-57.422
X190.391Y-59.962
X191.661Y-57.422
X191.77Y-110.49
X191.77Y-114.99
X192.931Y-59.962
X194.201Y-57.422
X195.471Y-59.962
X196.741Y-57.422
X198.011Y-59.962
X198.27Y-110.49
X198.27Y-114.99
X199.281Y-57.422
X200.551Y-59.962
T0
M30
