G04 #@! TF.GenerationSoftware,KiCad,Pcbnew,7.0.9*
G04 #@! TF.CreationDate,2024-01-22T22:06:56+01:00*
G04 #@! TF.ProjectId,programmer,70726f67-7261-46d6-9d65-722e6b696361,A0*
G04 #@! TF.SameCoordinates,Original*
G04 #@! TF.FileFunction,Soldermask,Top*
G04 #@! TF.FilePolarity,Negative*
%FSLAX46Y46*%
G04 Gerber Fmt 4.6, Leading zero omitted, Abs format (unit mm)*
G04 Created by KiCad (PCBNEW 7.0.9) date 2024-01-22 22:06:56*
%MOMM*%
%LPD*%
G01*
G04 APERTURE LIST*
%ADD10R,1.600000X1.600000*%
%ADD11O,1.600000X1.600000*%
%ADD12C,1.600000*%
%ADD13C,2.000000*%
%ADD14C,2.060000*%
%ADD15C,2.470000*%
%ADD16R,1.650000X1.650000*%
%ADD17C,1.650000*%
%ADD18O,1.800000X1.800000*%
%ADD19O,1.500000X1.500000*%
%ADD20O,1.700000X1.700000*%
%ADD21R,1.700000X3.500000*%
%ADD22R,1.700000X1.700000*%
%ADD23R,3.500000X1.700000*%
G04 APERTURE END LIST*
D10*
X160020000Y-116840000D03*
D11*
X160020000Y-114300000D03*
X160020000Y-111760000D03*
X160020000Y-109220000D03*
X160020000Y-106680000D03*
X160020000Y-104140000D03*
X160020000Y-101600000D03*
X160020000Y-99060000D03*
X160020000Y-96520000D03*
D10*
X140861051Y-80282051D03*
D11*
X143401051Y-80282051D03*
X145941051Y-80282051D03*
X148481051Y-80282051D03*
X151021051Y-80282051D03*
X153561051Y-80282051D03*
X156101051Y-80282051D03*
X158641051Y-80282051D03*
X161181051Y-80282051D03*
X163721051Y-80282051D03*
X163721051Y-72662051D03*
X161181051Y-72662051D03*
X158641051Y-72662051D03*
X156101051Y-72662051D03*
X153561051Y-72662051D03*
X151021051Y-72662051D03*
X148481051Y-72662051D03*
X145941051Y-72662051D03*
X143401051Y-72662051D03*
X140861051Y-72662051D03*
D10*
X107841051Y-80282051D03*
D11*
X110381051Y-80282051D03*
X112921051Y-80282051D03*
X115461051Y-80282051D03*
X118001051Y-80282051D03*
X120541051Y-80282051D03*
X123081051Y-80282051D03*
X125621051Y-80282051D03*
X128161051Y-80282051D03*
X130701051Y-80282051D03*
X130701051Y-72662051D03*
X128161051Y-72662051D03*
X125621051Y-72662051D03*
X123081051Y-72662051D03*
X120541051Y-72662051D03*
X118001051Y-72662051D03*
X115461051Y-72662051D03*
X112921051Y-72662051D03*
X110381051Y-72662051D03*
X107841051Y-72662051D03*
D12*
X107841051Y-83457051D03*
X112841051Y-83457051D03*
X140861051Y-83457051D03*
X145861051Y-83457051D03*
D13*
X191770000Y-110490000D03*
X198270000Y-110490000D03*
X191770000Y-114990000D03*
X198270000Y-114990000D03*
D10*
X173881051Y-80282051D03*
D11*
X176421051Y-80282051D03*
X178961051Y-80282051D03*
X181501051Y-80282051D03*
X184041051Y-80282051D03*
X186581051Y-80282051D03*
X189121051Y-80282051D03*
X191661051Y-80282051D03*
X194201051Y-80282051D03*
X196741051Y-80282051D03*
X196741051Y-72662051D03*
X194201051Y-72662051D03*
X191661051Y-72662051D03*
X189121051Y-72662051D03*
X186581051Y-72662051D03*
X184041051Y-72662051D03*
X181501051Y-72662051D03*
X178961051Y-72662051D03*
X176421051Y-72662051D03*
X173881051Y-72662051D03*
D12*
X173881051Y-83584051D03*
X178881051Y-83584051D03*
D14*
X97041051Y-58692051D03*
D15*
X152921051Y-58692051D03*
X208801051Y-58692051D03*
D16*
X105301051Y-57422051D03*
D17*
X106571051Y-59962051D03*
X107841051Y-57422051D03*
X109111051Y-59962051D03*
X110381051Y-57422051D03*
X111651051Y-59962051D03*
X112921051Y-57422051D03*
X114191051Y-59962051D03*
X115461051Y-57422051D03*
X116731051Y-59962051D03*
X118001051Y-57422051D03*
X119271051Y-59962051D03*
X120541051Y-57422051D03*
X121811051Y-59962051D03*
X123081051Y-57422051D03*
X124351051Y-59962051D03*
X125621051Y-57422051D03*
X126891051Y-59962051D03*
X128161051Y-57422051D03*
X129431051Y-59962051D03*
X130701051Y-57422051D03*
X131971051Y-59962051D03*
X133241051Y-57422051D03*
X134511051Y-59962051D03*
X135781051Y-57422051D03*
X137051051Y-59962051D03*
X138321051Y-57422051D03*
X139591051Y-59962051D03*
X140861051Y-57422051D03*
X142131051Y-59962051D03*
X143401051Y-57422051D03*
X144671051Y-59962051D03*
X145941051Y-57422051D03*
X147211051Y-59962051D03*
X148481051Y-57422051D03*
X149751051Y-59962051D03*
X156101051Y-57422051D03*
X157371051Y-59962051D03*
X158641051Y-57422051D03*
X159911051Y-59962051D03*
X161181051Y-57422051D03*
X162451051Y-59962051D03*
X163721051Y-57422051D03*
X164991051Y-59962051D03*
X166261051Y-57422051D03*
X167531051Y-59962051D03*
X168801051Y-57422051D03*
X170071051Y-59962051D03*
X171341051Y-57422051D03*
X172611051Y-59962051D03*
X173881051Y-57422051D03*
X175151051Y-59962051D03*
X176421051Y-57422051D03*
X177691051Y-59962051D03*
X178961051Y-57422051D03*
X180231051Y-59962051D03*
X181501051Y-57422051D03*
X182771051Y-59962051D03*
X184041051Y-57422051D03*
X185311051Y-59962051D03*
X186581051Y-57422051D03*
X187851051Y-59962051D03*
X189121051Y-57422051D03*
X190391051Y-59962051D03*
X191661051Y-57422051D03*
X192931051Y-59962051D03*
X194201051Y-57422051D03*
X195471051Y-59962051D03*
X196741051Y-57422051D03*
X198011051Y-59962051D03*
X199281051Y-57422051D03*
X200551051Y-59962051D03*
D18*
X105431051Y-109677051D03*
D19*
X108461051Y-109377051D03*
X108461051Y-104527051D03*
D18*
X105431051Y-104227051D03*
D20*
X105301051Y-115842051D03*
D21*
X105301051Y-116742051D03*
D20*
X107841051Y-115842051D03*
D21*
X107841051Y-116742051D03*
D22*
X110381051Y-115842051D03*
D21*
X110381051Y-116742051D03*
D20*
X112921051Y-115842051D03*
D21*
X112921051Y-116742051D03*
D20*
X115461051Y-115842051D03*
D21*
X115461051Y-116742051D03*
D20*
X118001051Y-115842051D03*
D21*
X118001051Y-116742051D03*
D20*
X120541051Y-115842051D03*
D21*
X120541051Y-116742051D03*
D22*
X123081051Y-115842051D03*
D21*
X123081051Y-116742051D03*
D20*
X125621051Y-115842051D03*
D21*
X125621051Y-116742051D03*
D20*
X128161051Y-115842051D03*
D21*
X128161051Y-116742051D03*
D20*
X130701051Y-115842051D03*
D21*
X130701051Y-116742051D03*
D20*
X133241051Y-115842051D03*
D21*
X133241051Y-116742051D03*
D22*
X135781051Y-115842051D03*
D21*
X135781051Y-116742051D03*
D20*
X138321051Y-115842051D03*
D21*
X138321051Y-116742051D03*
D20*
X140861051Y-115842051D03*
D21*
X140861051Y-116742051D03*
D20*
X143401051Y-115842051D03*
D21*
X143401051Y-116742051D03*
D20*
X145941051Y-115842051D03*
D21*
X145941051Y-116742051D03*
D22*
X148481051Y-115842051D03*
D21*
X148481051Y-116742051D03*
D20*
X151021051Y-115842051D03*
D21*
X151021051Y-116742051D03*
D20*
X153561051Y-115842051D03*
D21*
X153561051Y-116742051D03*
D20*
X153561051Y-98062051D03*
D21*
X153561051Y-97162051D03*
D20*
X151021051Y-98062051D03*
D21*
X151021051Y-97162051D03*
D22*
X148481051Y-98062051D03*
D21*
X148481051Y-97162051D03*
D20*
X145941051Y-98062051D03*
D21*
X145941051Y-97162051D03*
D20*
X143401051Y-98062051D03*
D21*
X143401051Y-97162051D03*
D20*
X140861051Y-98062051D03*
D21*
X140861051Y-97162051D03*
D20*
X138321051Y-98062051D03*
D21*
X138321051Y-97162051D03*
D22*
X135781051Y-98062051D03*
D21*
X135781051Y-97162051D03*
D20*
X133241051Y-98062051D03*
D21*
X133241051Y-97162051D03*
D20*
X130701051Y-98062051D03*
D21*
X130701051Y-97162051D03*
D20*
X128161051Y-98062051D03*
D21*
X128161051Y-97162051D03*
D20*
X125621051Y-98062051D03*
D21*
X125621051Y-97162051D03*
D22*
X123081051Y-98062051D03*
D21*
X123081051Y-97162051D03*
D20*
X120541051Y-98062051D03*
D21*
X120541051Y-97162051D03*
D20*
X118001051Y-98062051D03*
D21*
X118001051Y-97162051D03*
D20*
X115461051Y-98062051D03*
D21*
X115461051Y-97162051D03*
D20*
X112921051Y-98062051D03*
D21*
X112921051Y-97162051D03*
D22*
X110381051Y-98062051D03*
D21*
X110381051Y-97162051D03*
D20*
X107841051Y-98062051D03*
D21*
X107841051Y-97162051D03*
D20*
X105301051Y-98062051D03*
D21*
X105301051Y-97162051D03*
D20*
X153331051Y-109492051D03*
D23*
X154231051Y-109492051D03*
D22*
X153331051Y-106952051D03*
D23*
X154231051Y-106952051D03*
D20*
X153331051Y-104412051D03*
D23*
X154231051Y-104412051D03*
M02*
