%TF.GenerationSoftware,KiCad,Pcbnew,7.0.9*%
%TF.CreationDate,2024-01-22T22:06:58+01:00*%
%TF.ProjectId,programmer,70726f67-7261-46d6-9d65-722e6b696361,A0*%
%TF.SameCoordinates,Original*%
%TF.FileFunction,Drillmap*%
%TF.FilePolarity,Positive*%
%FSLAX45Y45*%
G04 Gerber Fmt 4.5, Leading zero omitted, Abs format (unit mm)*
G04 Created by KiCad (PCBNEW 7.0.9) date 2024-01-22 22:06:58*
%MOMM*%
%LPD*%
G01*
G04 APERTURE LIST*
%ADD10C,0.100000*%
%ADD11C,0.200000*%
%ADD12C,0.102000*%
%ADD13C,0.110000*%
G04 APERTURE END LIST*
D10*
X10339605Y-5005605D02*
X10339605Y-12104905D01*
X19991605Y-4751605D02*
X10593605Y-4751605D01*
X20245615Y-5005605D02*
G75*
G03*
X19991605Y-4751605I-254005J-5D01*
G01*
X10339615Y-12104905D02*
G75*
G03*
X10593605Y-12358905I253995J-5D01*
G01*
X10593605Y-4751605D02*
G75*
G03*
X10339605Y-5005605I5J-254005D01*
G01*
X20245605Y-12104905D02*
X20245605Y-5005605D01*
X10593605Y-12358905D02*
X19991605Y-12358905D01*
X19991605Y-12358905D02*
G75*
G03*
X20245605Y-12104905I5J253995D01*
G01*
D11*
D10*
X10698800Y-6876100D02*
X10738800Y-6916100D01*
X10738800Y-6876100D02*
X10698800Y-6916100D01*
X10762300Y-9098600D02*
X10802300Y-9138600D01*
X10802300Y-9098600D02*
X10762300Y-9138600D01*
X11181400Y-7587300D02*
X11221400Y-7627300D01*
X11221400Y-7587300D02*
X11181400Y-7627300D01*
X11829100Y-8273100D02*
X11869100Y-8313100D01*
X11869100Y-8273100D02*
X11829100Y-8313100D01*
X11841800Y-6749100D02*
X11881800Y-6789100D01*
X11881800Y-6749100D02*
X11841800Y-6789100D01*
X12527600Y-9124000D02*
X12567600Y-9164000D01*
X12567600Y-9124000D02*
X12527600Y-9164000D01*
X12794300Y-8781100D02*
X12834300Y-8821100D01*
X12834300Y-8781100D02*
X12794300Y-8821100D01*
X12808805Y-6979505D02*
X12848805Y-7019505D01*
X12848805Y-6979505D02*
X12808805Y-7019505D01*
X13010200Y-7837550D02*
X13050200Y-7877550D01*
X13050200Y-7837550D02*
X13010200Y-7877550D01*
X13188000Y-7417000D02*
X13228000Y-7457000D01*
X13228000Y-7417000D02*
X13188000Y-7457000D01*
X13289600Y-7765100D02*
X13329600Y-7805100D01*
X13329600Y-7765100D02*
X13289600Y-7805100D01*
X13365800Y-7489450D02*
X13405800Y-7529450D01*
X13405800Y-7489450D02*
X13365800Y-7529450D01*
X13486880Y-7594080D02*
X13526880Y-7634080D01*
X13526880Y-7594080D02*
X13486880Y-7634080D01*
X13499150Y-7479350D02*
X13539150Y-7519350D01*
X13539150Y-7479350D02*
X13499150Y-7519350D01*
X13569000Y-7282500D02*
X13609000Y-7322500D01*
X13609000Y-7282500D02*
X13569000Y-7322500D01*
X14064300Y-6685600D02*
X14104300Y-6725600D01*
X14104300Y-6685600D02*
X14064300Y-6725600D01*
X14191300Y-6596700D02*
X14231300Y-6636700D01*
X14231300Y-6596700D02*
X14191300Y-6636700D01*
X14318300Y-6520500D02*
X14358300Y-6560500D01*
X14358300Y-6520500D02*
X14318300Y-6560500D01*
X14445300Y-6427850D02*
X14485300Y-6467850D01*
X14485300Y-6427850D02*
X14445300Y-6467850D01*
X14572300Y-6355400D02*
X14612300Y-6395400D01*
X14612300Y-6355400D02*
X14572300Y-6395400D01*
X14699300Y-6266500D02*
X14739300Y-6306500D01*
X14739300Y-6266500D02*
X14699300Y-6306500D01*
X14826300Y-6190300D02*
X14866300Y-6230300D01*
X14866300Y-6190300D02*
X14826300Y-6230300D01*
X15715300Y-4818700D02*
X15755300Y-4858700D01*
X15755300Y-4818700D02*
X15715300Y-4858700D01*
X15791500Y-9886000D02*
X15831500Y-9926000D01*
X15831500Y-9886000D02*
X15791500Y-9926000D01*
X15842300Y-4920300D02*
X15882300Y-4960300D01*
X15882300Y-4920300D02*
X15842300Y-4960300D01*
X15969300Y-5021900D02*
X16009300Y-5061900D01*
X16009300Y-5021900D02*
X15969300Y-5061900D01*
X16083600Y-5123500D02*
X16123600Y-5163500D01*
X16123600Y-5123500D02*
X16083600Y-5163500D01*
X16223300Y-5225100D02*
X16263300Y-5265100D01*
X16263300Y-5225100D02*
X16223300Y-5265100D01*
X16236000Y-9530400D02*
X16276000Y-9570400D01*
X16276000Y-9530400D02*
X16236000Y-9570400D01*
X16350300Y-5352100D02*
X16390300Y-5392100D01*
X16390300Y-5352100D02*
X16350300Y-5392100D01*
X16477300Y-5441000D02*
X16517300Y-5481000D01*
X16517300Y-5441000D02*
X16477300Y-5481000D01*
X16790100Y-8400100D02*
X16830100Y-8440100D01*
X16830100Y-8400100D02*
X16790100Y-8440100D01*
X16959900Y-8294750D02*
X16999900Y-8334750D01*
X16999900Y-8294750D02*
X16959900Y-8334750D01*
X17150400Y-8222300D02*
X17190400Y-8262300D01*
X17190400Y-8222300D02*
X17150400Y-8262300D01*
X17506000Y-10444800D02*
X17546000Y-10484800D01*
X17546000Y-10444800D02*
X17506000Y-10484800D01*
X17639350Y-10006650D02*
X17679350Y-10046650D01*
X17679350Y-10006650D02*
X17639350Y-10046650D01*
X17734600Y-9759000D02*
X17774600Y-9799000D01*
X17774600Y-9759000D02*
X17734600Y-9799000D01*
X17760000Y-8958900D02*
X17800000Y-8998900D01*
X17800000Y-8958900D02*
X17760000Y-8998900D01*
X17988600Y-9568500D02*
X18028600Y-9608500D01*
X18028600Y-9568500D02*
X17988600Y-9608500D01*
X18382300Y-9225600D02*
X18422300Y-9265600D01*
X18422300Y-9225600D02*
X18382300Y-9265600D01*
X18496600Y-7650800D02*
X18536600Y-7690800D01*
X18536600Y-7650800D02*
X18496600Y-7690800D01*
X18572800Y-9314500D02*
X18612800Y-9354500D01*
X18612800Y-9314500D02*
X18572800Y-9354500D01*
X18788700Y-8870000D02*
X18828700Y-8910000D01*
X18828700Y-8870000D02*
X18788700Y-8910000D01*
X18991900Y-8882700D02*
X19031900Y-8922700D01*
X19031900Y-8882700D02*
X18991900Y-8922700D01*
X19157000Y-8641400D02*
X19197000Y-8681400D01*
X19197000Y-8641400D02*
X19157000Y-8681400D01*
X20084100Y-8489000D02*
X20124100Y-8529000D01*
X20124100Y-8489000D02*
X20084100Y-8529000D01*
X10824105Y-7266205D02*
G75*
G03*
X10824105Y-7266205I-40000J0D01*
G01*
X10824105Y-8028205D02*
G75*
G03*
X10824105Y-8028205I-40000J0D01*
G01*
X10824105Y-8345705D02*
G75*
G03*
X10824105Y-8345705I-40000J0D01*
G01*
X11078105Y-7266205D02*
G75*
G03*
X11078105Y-7266205I-40000J0D01*
G01*
X11078105Y-8028205D02*
G75*
G03*
X11078105Y-8028205I-40000J0D01*
G01*
X11324105Y-8345705D02*
G75*
G03*
X11324105Y-8345705I-40000J0D01*
G01*
X11332105Y-7266205D02*
G75*
G03*
X11332105Y-7266205I-40000J0D01*
G01*
X11332105Y-8028205D02*
G75*
G03*
X11332105Y-8028205I-40000J0D01*
G01*
X11586105Y-7266205D02*
G75*
G03*
X11586105Y-7266205I-40000J0D01*
G01*
X11586105Y-8028205D02*
G75*
G03*
X11586105Y-8028205I-40000J0D01*
G01*
X11840105Y-7266205D02*
G75*
G03*
X11840105Y-7266205I-40000J0D01*
G01*
X11840105Y-8028205D02*
G75*
G03*
X11840105Y-8028205I-40000J0D01*
G01*
X12094105Y-7266205D02*
G75*
G03*
X12094105Y-7266205I-40000J0D01*
G01*
X12094105Y-8028205D02*
G75*
G03*
X12094105Y-8028205I-40000J0D01*
G01*
X12348105Y-7266205D02*
G75*
G03*
X12348105Y-7266205I-40000J0D01*
G01*
X12348105Y-8028205D02*
G75*
G03*
X12348105Y-8028205I-40000J0D01*
G01*
X12602105Y-7266205D02*
G75*
G03*
X12602105Y-7266205I-40000J0D01*
G01*
X12602105Y-8028205D02*
G75*
G03*
X12602105Y-8028205I-40000J0D01*
G01*
X12856105Y-7266205D02*
G75*
G03*
X12856105Y-7266205I-40000J0D01*
G01*
X12856105Y-8028205D02*
G75*
G03*
X12856105Y-8028205I-40000J0D01*
G01*
X13110105Y-7266205D02*
G75*
G03*
X13110105Y-7266205I-40000J0D01*
G01*
X13110105Y-8028205D02*
G75*
G03*
X13110105Y-8028205I-40000J0D01*
G01*
X14126105Y-7266205D02*
G75*
G03*
X14126105Y-7266205I-40000J0D01*
G01*
X14126105Y-8028205D02*
G75*
G03*
X14126105Y-8028205I-40000J0D01*
G01*
X14126105Y-8345705D02*
G75*
G03*
X14126105Y-8345705I-40000J0D01*
G01*
X14380105Y-7266205D02*
G75*
G03*
X14380105Y-7266205I-40000J0D01*
G01*
X14380105Y-8028205D02*
G75*
G03*
X14380105Y-8028205I-40000J0D01*
G01*
X14626105Y-8345705D02*
G75*
G03*
X14626105Y-8345705I-40000J0D01*
G01*
X14634105Y-7266205D02*
G75*
G03*
X14634105Y-7266205I-40000J0D01*
G01*
X14634105Y-8028205D02*
G75*
G03*
X14634105Y-8028205I-40000J0D01*
G01*
X14888105Y-7266205D02*
G75*
G03*
X14888105Y-7266205I-40000J0D01*
G01*
X14888105Y-8028205D02*
G75*
G03*
X14888105Y-8028205I-40000J0D01*
G01*
X15142105Y-7266205D02*
G75*
G03*
X15142105Y-7266205I-40000J0D01*
G01*
X15142105Y-8028205D02*
G75*
G03*
X15142105Y-8028205I-40000J0D01*
G01*
X15396105Y-7266205D02*
G75*
G03*
X15396105Y-7266205I-40000J0D01*
G01*
X15396105Y-8028205D02*
G75*
G03*
X15396105Y-8028205I-40000J0D01*
G01*
X15650105Y-7266205D02*
G75*
G03*
X15650105Y-7266205I-40000J0D01*
G01*
X15650105Y-8028205D02*
G75*
G03*
X15650105Y-8028205I-40000J0D01*
G01*
X15904105Y-7266205D02*
G75*
G03*
X15904105Y-7266205I-40000J0D01*
G01*
X15904105Y-8028205D02*
G75*
G03*
X15904105Y-8028205I-40000J0D01*
G01*
X16042000Y-9652000D02*
G75*
G03*
X16042000Y-9652000I-40000J0D01*
G01*
X16042000Y-9906000D02*
G75*
G03*
X16042000Y-9906000I-40000J0D01*
G01*
X16042000Y-10160000D02*
G75*
G03*
X16042000Y-10160000I-40000J0D01*
G01*
X16042000Y-10414000D02*
G75*
G03*
X16042000Y-10414000I-40000J0D01*
G01*
X16042000Y-10668000D02*
G75*
G03*
X16042000Y-10668000I-40000J0D01*
G01*
X16042000Y-10922000D02*
G75*
G03*
X16042000Y-10922000I-40000J0D01*
G01*
X16042000Y-11176000D02*
G75*
G03*
X16042000Y-11176000I-40000J0D01*
G01*
X16042000Y-11430000D02*
G75*
G03*
X16042000Y-11430000I-40000J0D01*
G01*
X16042000Y-11684000D02*
G75*
G03*
X16042000Y-11684000I-40000J0D01*
G01*
X16158105Y-7266205D02*
G75*
G03*
X16158105Y-7266205I-40000J0D01*
G01*
X16158105Y-8028205D02*
G75*
G03*
X16158105Y-8028205I-40000J0D01*
G01*
X16412105Y-7266205D02*
G75*
G03*
X16412105Y-7266205I-40000J0D01*
G01*
X16412105Y-8028205D02*
G75*
G03*
X16412105Y-8028205I-40000J0D01*
G01*
X17428105Y-7266205D02*
G75*
G03*
X17428105Y-7266205I-40000J0D01*
G01*
X17428105Y-8028205D02*
G75*
G03*
X17428105Y-8028205I-40000J0D01*
G01*
X17428105Y-8358405D02*
G75*
G03*
X17428105Y-8358405I-40000J0D01*
G01*
X17682105Y-7266205D02*
G75*
G03*
X17682105Y-7266205I-40000J0D01*
G01*
X17682105Y-8028205D02*
G75*
G03*
X17682105Y-8028205I-40000J0D01*
G01*
X17928105Y-8358405D02*
G75*
G03*
X17928105Y-8358405I-40000J0D01*
G01*
X17936105Y-7266205D02*
G75*
G03*
X17936105Y-7266205I-40000J0D01*
G01*
X17936105Y-8028205D02*
G75*
G03*
X17936105Y-8028205I-40000J0D01*
G01*
X18190105Y-7266205D02*
G75*
G03*
X18190105Y-7266205I-40000J0D01*
G01*
X18190105Y-8028205D02*
G75*
G03*
X18190105Y-8028205I-40000J0D01*
G01*
X18444105Y-7266205D02*
G75*
G03*
X18444105Y-7266205I-40000J0D01*
G01*
X18444105Y-8028205D02*
G75*
G03*
X18444105Y-8028205I-40000J0D01*
G01*
X18698105Y-7266205D02*
G75*
G03*
X18698105Y-7266205I-40000J0D01*
G01*
X18698105Y-8028205D02*
G75*
G03*
X18698105Y-8028205I-40000J0D01*
G01*
X18952105Y-7266205D02*
G75*
G03*
X18952105Y-7266205I-40000J0D01*
G01*
X18952105Y-8028205D02*
G75*
G03*
X18952105Y-8028205I-40000J0D01*
G01*
X19206105Y-7266205D02*
G75*
G03*
X19206105Y-7266205I-40000J0D01*
G01*
X19206105Y-8028205D02*
G75*
G03*
X19206105Y-8028205I-40000J0D01*
G01*
X19460105Y-7266205D02*
G75*
G03*
X19460105Y-7266205I-40000J0D01*
G01*
X19460105Y-8028205D02*
G75*
G03*
X19460105Y-8028205I-40000J0D01*
G01*
X19714105Y-7266205D02*
G75*
G03*
X19714105Y-7266205I-40000J0D01*
G01*
X19714105Y-8028205D02*
G75*
G03*
X19714105Y-8028205I-40000J0D01*
G01*
D12*
X10530105Y-9755205D02*
X10530105Y-9857205D01*
X10479105Y-9806205D02*
X10581105Y-9806205D01*
X10530105Y-11533205D02*
X10530105Y-11635205D01*
X10479105Y-11584205D02*
X10581105Y-11584205D01*
X10784105Y-9755205D02*
X10784105Y-9857205D01*
X10733105Y-9806205D02*
X10835105Y-9806205D01*
X10784105Y-11533205D02*
X10784105Y-11635205D01*
X10733105Y-11584205D02*
X10835105Y-11584205D01*
X11038105Y-9755205D02*
X11038105Y-9857205D01*
X10987105Y-9806205D02*
X11089105Y-9806205D01*
X11038105Y-11533205D02*
X11038105Y-11635205D01*
X10987105Y-11584205D02*
X11089105Y-11584205D01*
X11292105Y-9755205D02*
X11292105Y-9857205D01*
X11241105Y-9806205D02*
X11343105Y-9806205D01*
X11292105Y-11533205D02*
X11292105Y-11635205D01*
X11241105Y-11584205D02*
X11343105Y-11584205D01*
X11546105Y-9755205D02*
X11546105Y-9857205D01*
X11495105Y-9806205D02*
X11597105Y-9806205D01*
X11546105Y-11533205D02*
X11546105Y-11635205D01*
X11495105Y-11584205D02*
X11597105Y-11584205D01*
X11800105Y-9755205D02*
X11800105Y-9857205D01*
X11749105Y-9806205D02*
X11851105Y-9806205D01*
X11800105Y-11533205D02*
X11800105Y-11635205D01*
X11749105Y-11584205D02*
X11851105Y-11584205D01*
X12054105Y-9755205D02*
X12054105Y-9857205D01*
X12003105Y-9806205D02*
X12105105Y-9806205D01*
X12054105Y-11533205D02*
X12054105Y-11635205D01*
X12003105Y-11584205D02*
X12105105Y-11584205D01*
X12308105Y-9755205D02*
X12308105Y-9857205D01*
X12257105Y-9806205D02*
X12359105Y-9806205D01*
X12308105Y-11533205D02*
X12308105Y-11635205D01*
X12257105Y-11584205D02*
X12359105Y-11584205D01*
X12562105Y-9755205D02*
X12562105Y-9857205D01*
X12511105Y-9806205D02*
X12613105Y-9806205D01*
X12562105Y-11533205D02*
X12562105Y-11635205D01*
X12511105Y-11584205D02*
X12613105Y-11584205D01*
X12816105Y-9755205D02*
X12816105Y-9857205D01*
X12765105Y-9806205D02*
X12867105Y-9806205D01*
X12816105Y-11533205D02*
X12816105Y-11635205D01*
X12765105Y-11584205D02*
X12867105Y-11584205D01*
X13070105Y-9755205D02*
X13070105Y-9857205D01*
X13019105Y-9806205D02*
X13121105Y-9806205D01*
X13070105Y-11533205D02*
X13070105Y-11635205D01*
X13019105Y-11584205D02*
X13121105Y-11584205D01*
X13324105Y-9755205D02*
X13324105Y-9857205D01*
X13273105Y-9806205D02*
X13375105Y-9806205D01*
X13324105Y-11533205D02*
X13324105Y-11635205D01*
X13273105Y-11584205D02*
X13375105Y-11584205D01*
X13578105Y-9755205D02*
X13578105Y-9857205D01*
X13527105Y-9806205D02*
X13629105Y-9806205D01*
X13578105Y-11533205D02*
X13578105Y-11635205D01*
X13527105Y-11584205D02*
X13629105Y-11584205D01*
X13832105Y-9755205D02*
X13832105Y-9857205D01*
X13781105Y-9806205D02*
X13883105Y-9806205D01*
X13832105Y-11533205D02*
X13832105Y-11635205D01*
X13781105Y-11584205D02*
X13883105Y-11584205D01*
X14086105Y-9755205D02*
X14086105Y-9857205D01*
X14035105Y-9806205D02*
X14137105Y-9806205D01*
X14086105Y-11533205D02*
X14086105Y-11635205D01*
X14035105Y-11584205D02*
X14137105Y-11584205D01*
X14340105Y-9755205D02*
X14340105Y-9857205D01*
X14289105Y-9806205D02*
X14391105Y-9806205D01*
X14340105Y-11533205D02*
X14340105Y-11635205D01*
X14289105Y-11584205D02*
X14391105Y-11584205D01*
X14594105Y-9755205D02*
X14594105Y-9857205D01*
X14543105Y-9806205D02*
X14645105Y-9806205D01*
X14594105Y-11533205D02*
X14594105Y-11635205D01*
X14543105Y-11584205D02*
X14645105Y-11584205D01*
X14848105Y-9755205D02*
X14848105Y-9857205D01*
X14797105Y-9806205D02*
X14899105Y-9806205D01*
X14848105Y-11533205D02*
X14848105Y-11635205D01*
X14797105Y-11584205D02*
X14899105Y-11584205D01*
X15102105Y-9755205D02*
X15102105Y-9857205D01*
X15051105Y-9806205D02*
X15153105Y-9806205D01*
X15102105Y-11533205D02*
X15102105Y-11635205D01*
X15051105Y-11584205D02*
X15153105Y-11584205D01*
X15333105Y-10390205D02*
X15333105Y-10492205D01*
X15282105Y-10441205D02*
X15384105Y-10441205D01*
X15333105Y-10644205D02*
X15333105Y-10746205D01*
X15282105Y-10695205D02*
X15384105Y-10695205D01*
X15333105Y-10898205D02*
X15333105Y-11000205D01*
X15282105Y-10949205D02*
X15384105Y-10949205D01*
X15356105Y-9755205D02*
X15356105Y-9857205D01*
X15305105Y-9806205D02*
X15407105Y-9806205D01*
X15356105Y-11533205D02*
X15356105Y-11635205D01*
X15305105Y-11584205D02*
X15407105Y-11584205D01*
D13*
X10568996Y-5781096D02*
X10568996Y-5703314D01*
X10491214Y-5703314D01*
X10491214Y-5781096D01*
X10568996Y-5781096D01*
X10695996Y-6035096D02*
X10695996Y-5957314D01*
X10618214Y-5957314D01*
X10618214Y-6035096D01*
X10695996Y-6035096D01*
X10822996Y-5781096D02*
X10822996Y-5703314D01*
X10745214Y-5703314D01*
X10745214Y-5781096D01*
X10822996Y-5781096D01*
X10949996Y-6035096D02*
X10949996Y-5957314D01*
X10872214Y-5957314D01*
X10872214Y-6035096D01*
X10949996Y-6035096D01*
X11076996Y-5781096D02*
X11076996Y-5703314D01*
X10999214Y-5703314D01*
X10999214Y-5781096D01*
X11076996Y-5781096D01*
X11203996Y-6035096D02*
X11203996Y-5957314D01*
X11126214Y-5957314D01*
X11126214Y-6035096D01*
X11203996Y-6035096D01*
X11330996Y-5781096D02*
X11330996Y-5703314D01*
X11253214Y-5703314D01*
X11253214Y-5781096D01*
X11330996Y-5781096D01*
X11457996Y-6035096D02*
X11457996Y-5957314D01*
X11380214Y-5957314D01*
X11380214Y-6035096D01*
X11457996Y-6035096D01*
X11584996Y-5781096D02*
X11584996Y-5703314D01*
X11507214Y-5703314D01*
X11507214Y-5781096D01*
X11584996Y-5781096D01*
X11711996Y-6035096D02*
X11711996Y-5957314D01*
X11634214Y-5957314D01*
X11634214Y-6035096D01*
X11711996Y-6035096D01*
X11838996Y-5781096D02*
X11838996Y-5703314D01*
X11761214Y-5703314D01*
X11761214Y-5781096D01*
X11838996Y-5781096D01*
X11965996Y-6035096D02*
X11965996Y-5957314D01*
X11888214Y-5957314D01*
X11888214Y-6035096D01*
X11965996Y-6035096D01*
X12092996Y-5781096D02*
X12092996Y-5703314D01*
X12015214Y-5703314D01*
X12015214Y-5781096D01*
X12092996Y-5781096D01*
X12219996Y-6035096D02*
X12219996Y-5957314D01*
X12142214Y-5957314D01*
X12142214Y-6035096D01*
X12219996Y-6035096D01*
X12346996Y-5781096D02*
X12346996Y-5703314D01*
X12269214Y-5703314D01*
X12269214Y-5781096D01*
X12346996Y-5781096D01*
X12473996Y-6035096D02*
X12473996Y-5957314D01*
X12396214Y-5957314D01*
X12396214Y-6035096D01*
X12473996Y-6035096D01*
X12600996Y-5781096D02*
X12600996Y-5703314D01*
X12523214Y-5703314D01*
X12523214Y-5781096D01*
X12600996Y-5781096D01*
X12727996Y-6035096D02*
X12727996Y-5957314D01*
X12650214Y-5957314D01*
X12650214Y-6035096D01*
X12727996Y-6035096D01*
X12854996Y-5781096D02*
X12854996Y-5703314D01*
X12777214Y-5703314D01*
X12777214Y-5781096D01*
X12854996Y-5781096D01*
X12981996Y-6035096D02*
X12981996Y-5957314D01*
X12904214Y-5957314D01*
X12904214Y-6035096D01*
X12981996Y-6035096D01*
X13108996Y-5781096D02*
X13108996Y-5703314D01*
X13031214Y-5703314D01*
X13031214Y-5781096D01*
X13108996Y-5781096D01*
X13235996Y-6035096D02*
X13235996Y-5957314D01*
X13158214Y-5957314D01*
X13158214Y-6035096D01*
X13235996Y-6035096D01*
X13362996Y-5781096D02*
X13362996Y-5703314D01*
X13285214Y-5703314D01*
X13285214Y-5781096D01*
X13362996Y-5781096D01*
X13489996Y-6035096D02*
X13489996Y-5957314D01*
X13412214Y-5957314D01*
X13412214Y-6035096D01*
X13489996Y-6035096D01*
X13616996Y-5781096D02*
X13616996Y-5703314D01*
X13539214Y-5703314D01*
X13539214Y-5781096D01*
X13616996Y-5781096D01*
X13743996Y-6035096D02*
X13743996Y-5957314D01*
X13666214Y-5957314D01*
X13666214Y-6035096D01*
X13743996Y-6035096D01*
X13870996Y-5781096D02*
X13870996Y-5703314D01*
X13793214Y-5703314D01*
X13793214Y-5781096D01*
X13870996Y-5781096D01*
X13997996Y-6035096D02*
X13997996Y-5957314D01*
X13920214Y-5957314D01*
X13920214Y-6035096D01*
X13997996Y-6035096D01*
X14124996Y-5781096D02*
X14124996Y-5703314D01*
X14047214Y-5703314D01*
X14047214Y-5781096D01*
X14124996Y-5781096D01*
X14251996Y-6035096D02*
X14251996Y-5957314D01*
X14174214Y-5957314D01*
X14174214Y-6035096D01*
X14251996Y-6035096D01*
X14378996Y-5781096D02*
X14378996Y-5703314D01*
X14301214Y-5703314D01*
X14301214Y-5781096D01*
X14378996Y-5781096D01*
X14505996Y-6035096D02*
X14505996Y-5957314D01*
X14428214Y-5957314D01*
X14428214Y-6035096D01*
X14505996Y-6035096D01*
X14632996Y-5781096D02*
X14632996Y-5703314D01*
X14555214Y-5703314D01*
X14555214Y-5781096D01*
X14632996Y-5781096D01*
X14759996Y-6035096D02*
X14759996Y-5957314D01*
X14682214Y-5957314D01*
X14682214Y-6035096D01*
X14759996Y-6035096D01*
X14886996Y-5781096D02*
X14886996Y-5703314D01*
X14809214Y-5703314D01*
X14809214Y-5781096D01*
X14886996Y-5781096D01*
X15013996Y-6035096D02*
X15013996Y-5957314D01*
X14936214Y-5957314D01*
X14936214Y-6035096D01*
X15013996Y-6035096D01*
X15648996Y-5781096D02*
X15648996Y-5703314D01*
X15571214Y-5703314D01*
X15571214Y-5781096D01*
X15648996Y-5781096D01*
X15775996Y-6035096D02*
X15775996Y-5957314D01*
X15698214Y-5957314D01*
X15698214Y-6035096D01*
X15775996Y-6035096D01*
X15902996Y-5781096D02*
X15902996Y-5703314D01*
X15825214Y-5703314D01*
X15825214Y-5781096D01*
X15902996Y-5781096D01*
X16029996Y-6035096D02*
X16029996Y-5957314D01*
X15952214Y-5957314D01*
X15952214Y-6035096D01*
X16029996Y-6035096D01*
X16156996Y-5781096D02*
X16156996Y-5703314D01*
X16079214Y-5703314D01*
X16079214Y-5781096D01*
X16156996Y-5781096D01*
X16283996Y-6035096D02*
X16283996Y-5957314D01*
X16206214Y-5957314D01*
X16206214Y-6035096D01*
X16283996Y-6035096D01*
X16410996Y-5781096D02*
X16410996Y-5703314D01*
X16333214Y-5703314D01*
X16333214Y-5781096D01*
X16410996Y-5781096D01*
X16537996Y-6035096D02*
X16537996Y-5957314D01*
X16460214Y-5957314D01*
X16460214Y-6035096D01*
X16537996Y-6035096D01*
X16664996Y-5781096D02*
X16664996Y-5703314D01*
X16587214Y-5703314D01*
X16587214Y-5781096D01*
X16664996Y-5781096D01*
X16791996Y-6035096D02*
X16791996Y-5957314D01*
X16714214Y-5957314D01*
X16714214Y-6035096D01*
X16791996Y-6035096D01*
X16918996Y-5781096D02*
X16918996Y-5703314D01*
X16841214Y-5703314D01*
X16841214Y-5781096D01*
X16918996Y-5781096D01*
X17045996Y-6035096D02*
X17045996Y-5957314D01*
X16968214Y-5957314D01*
X16968214Y-6035096D01*
X17045996Y-6035096D01*
X17172996Y-5781096D02*
X17172996Y-5703314D01*
X17095214Y-5703314D01*
X17095214Y-5781096D01*
X17172996Y-5781096D01*
X17299996Y-6035096D02*
X17299996Y-5957314D01*
X17222214Y-5957314D01*
X17222214Y-6035096D01*
X17299996Y-6035096D01*
X17426996Y-5781096D02*
X17426996Y-5703314D01*
X17349214Y-5703314D01*
X17349214Y-5781096D01*
X17426996Y-5781096D01*
X17553996Y-6035096D02*
X17553996Y-5957314D01*
X17476214Y-5957314D01*
X17476214Y-6035096D01*
X17553996Y-6035096D01*
X17680996Y-5781096D02*
X17680996Y-5703314D01*
X17603214Y-5703314D01*
X17603214Y-5781096D01*
X17680996Y-5781096D01*
X17807996Y-6035096D02*
X17807996Y-5957314D01*
X17730214Y-5957314D01*
X17730214Y-6035096D01*
X17807996Y-6035096D01*
X17934996Y-5781096D02*
X17934996Y-5703314D01*
X17857214Y-5703314D01*
X17857214Y-5781096D01*
X17934996Y-5781096D01*
X18061996Y-6035096D02*
X18061996Y-5957314D01*
X17984214Y-5957314D01*
X17984214Y-6035096D01*
X18061996Y-6035096D01*
X18188996Y-5781096D02*
X18188996Y-5703314D01*
X18111214Y-5703314D01*
X18111214Y-5781096D01*
X18188996Y-5781096D01*
X18315996Y-6035096D02*
X18315996Y-5957314D01*
X18238214Y-5957314D01*
X18238214Y-6035096D01*
X18315996Y-6035096D01*
X18442996Y-5781096D02*
X18442996Y-5703314D01*
X18365214Y-5703314D01*
X18365214Y-5781096D01*
X18442996Y-5781096D01*
X18569996Y-6035096D02*
X18569996Y-5957314D01*
X18492214Y-5957314D01*
X18492214Y-6035096D01*
X18569996Y-6035096D01*
X18696996Y-5781096D02*
X18696996Y-5703314D01*
X18619214Y-5703314D01*
X18619214Y-5781096D01*
X18696996Y-5781096D01*
X18823996Y-6035096D02*
X18823996Y-5957314D01*
X18746214Y-5957314D01*
X18746214Y-6035096D01*
X18823996Y-6035096D01*
X18950996Y-5781096D02*
X18950996Y-5703314D01*
X18873214Y-5703314D01*
X18873214Y-5781096D01*
X18950996Y-5781096D01*
X19077996Y-6035096D02*
X19077996Y-5957314D01*
X19000214Y-5957314D01*
X19000214Y-6035096D01*
X19077996Y-6035096D01*
X19204996Y-5781096D02*
X19204996Y-5703314D01*
X19127214Y-5703314D01*
X19127214Y-5781096D01*
X19204996Y-5781096D01*
X19215891Y-11087891D02*
X19215891Y-11010109D01*
X19138109Y-11010109D01*
X19138109Y-11087891D01*
X19215891Y-11087891D01*
X19215891Y-11537891D02*
X19215891Y-11460109D01*
X19138109Y-11460109D01*
X19138109Y-11537891D01*
X19215891Y-11537891D01*
X19331996Y-6035096D02*
X19331996Y-5957314D01*
X19254214Y-5957314D01*
X19254214Y-6035096D01*
X19331996Y-6035096D01*
X19458996Y-5781096D02*
X19458996Y-5703314D01*
X19381214Y-5703314D01*
X19381214Y-5781096D01*
X19458996Y-5781096D01*
X19585996Y-6035096D02*
X19585996Y-5957314D01*
X19508214Y-5957314D01*
X19508214Y-6035096D01*
X19585996Y-6035096D01*
X19712996Y-5781096D02*
X19712996Y-5703314D01*
X19635214Y-5703314D01*
X19635214Y-5781096D01*
X19712996Y-5781096D01*
X19839996Y-6035096D02*
X19839996Y-5957314D01*
X19762214Y-5957314D01*
X19762214Y-6035096D01*
X19839996Y-6035096D01*
X19865891Y-11087891D02*
X19865891Y-11010109D01*
X19788109Y-11010109D01*
X19788109Y-11087891D01*
X19865891Y-11087891D01*
X19865891Y-11537891D02*
X19865891Y-11460109D01*
X19788109Y-11460109D01*
X19788109Y-11537891D01*
X19865891Y-11537891D01*
X19966996Y-5781096D02*
X19966996Y-5703314D01*
X19889214Y-5703314D01*
X19889214Y-5781096D01*
X19966996Y-5781096D01*
X20093996Y-6035096D02*
X20093996Y-5957314D01*
X20016214Y-5957314D01*
X20016214Y-6035096D01*
X20093996Y-6035096D01*
D11*
X10595382Y-12675389D02*
X10595382Y-12475389D01*
X10595382Y-12475389D02*
X10643001Y-12475389D01*
X10643001Y-12475389D02*
X10671572Y-12484913D01*
X10671572Y-12484913D02*
X10690620Y-12503960D01*
X10690620Y-12503960D02*
X10700144Y-12523008D01*
X10700144Y-12523008D02*
X10709668Y-12561103D01*
X10709668Y-12561103D02*
X10709668Y-12589675D01*
X10709668Y-12589675D02*
X10700144Y-12627770D01*
X10700144Y-12627770D02*
X10690620Y-12646817D01*
X10690620Y-12646817D02*
X10671572Y-12665865D01*
X10671572Y-12665865D02*
X10643001Y-12675389D01*
X10643001Y-12675389D02*
X10595382Y-12675389D01*
X10795382Y-12675389D02*
X10795382Y-12542055D01*
X10795382Y-12580151D02*
X10804906Y-12561103D01*
X10804906Y-12561103D02*
X10814430Y-12551579D01*
X10814430Y-12551579D02*
X10833477Y-12542055D01*
X10833477Y-12542055D02*
X10852525Y-12542055D01*
X10919191Y-12675389D02*
X10919191Y-12542055D01*
X10919191Y-12475389D02*
X10909668Y-12484913D01*
X10909668Y-12484913D02*
X10919191Y-12494436D01*
X10919191Y-12494436D02*
X10928715Y-12484913D01*
X10928715Y-12484913D02*
X10919191Y-12475389D01*
X10919191Y-12475389D02*
X10919191Y-12494436D01*
X11043001Y-12675389D02*
X11023953Y-12665865D01*
X11023953Y-12665865D02*
X11014430Y-12646817D01*
X11014430Y-12646817D02*
X11014430Y-12475389D01*
X11147763Y-12675389D02*
X11128715Y-12665865D01*
X11128715Y-12665865D02*
X11119191Y-12646817D01*
X11119191Y-12646817D02*
X11119191Y-12475389D01*
X11376334Y-12675389D02*
X11376334Y-12475389D01*
X11376334Y-12475389D02*
X11443001Y-12618246D01*
X11443001Y-12618246D02*
X11509668Y-12475389D01*
X11509668Y-12475389D02*
X11509668Y-12675389D01*
X11690620Y-12675389D02*
X11690620Y-12570627D01*
X11690620Y-12570627D02*
X11681096Y-12551579D01*
X11681096Y-12551579D02*
X11662049Y-12542055D01*
X11662049Y-12542055D02*
X11623953Y-12542055D01*
X11623953Y-12542055D02*
X11604906Y-12551579D01*
X11690620Y-12665865D02*
X11671572Y-12675389D01*
X11671572Y-12675389D02*
X11623953Y-12675389D01*
X11623953Y-12675389D02*
X11604906Y-12665865D01*
X11604906Y-12665865D02*
X11595382Y-12646817D01*
X11595382Y-12646817D02*
X11595382Y-12627770D01*
X11595382Y-12627770D02*
X11604906Y-12608722D01*
X11604906Y-12608722D02*
X11623953Y-12599198D01*
X11623953Y-12599198D02*
X11671572Y-12599198D01*
X11671572Y-12599198D02*
X11690620Y-12589675D01*
X11785858Y-12542055D02*
X11785858Y-12742055D01*
X11785858Y-12551579D02*
X11804906Y-12542055D01*
X11804906Y-12542055D02*
X11843001Y-12542055D01*
X11843001Y-12542055D02*
X11862049Y-12551579D01*
X11862049Y-12551579D02*
X11871572Y-12561103D01*
X11871572Y-12561103D02*
X11881096Y-12580151D01*
X11881096Y-12580151D02*
X11881096Y-12637294D01*
X11881096Y-12637294D02*
X11871572Y-12656341D01*
X11871572Y-12656341D02*
X11862049Y-12665865D01*
X11862049Y-12665865D02*
X11843001Y-12675389D01*
X11843001Y-12675389D02*
X11804906Y-12675389D01*
X11804906Y-12675389D02*
X11785858Y-12665865D01*
X11966810Y-12656341D02*
X11976334Y-12665865D01*
X11976334Y-12665865D02*
X11966810Y-12675389D01*
X11966810Y-12675389D02*
X11957287Y-12665865D01*
X11957287Y-12665865D02*
X11966810Y-12656341D01*
X11966810Y-12656341D02*
X11966810Y-12675389D01*
X11966810Y-12551579D02*
X11976334Y-12561103D01*
X11976334Y-12561103D02*
X11966810Y-12570627D01*
X11966810Y-12570627D02*
X11957287Y-12561103D01*
X11957287Y-12561103D02*
X11966810Y-12551579D01*
X11966810Y-12551579D02*
X11966810Y-12570627D01*
D10*
X10294605Y-12983905D02*
X10334605Y-13023905D01*
X10334605Y-12983905D02*
X10294605Y-13023905D01*
D11*
X10633477Y-12895389D02*
X10652525Y-12895389D01*
X10652525Y-12895389D02*
X10671572Y-12904913D01*
X10671572Y-12904913D02*
X10681096Y-12914436D01*
X10681096Y-12914436D02*
X10690620Y-12933484D01*
X10690620Y-12933484D02*
X10700144Y-12971579D01*
X10700144Y-12971579D02*
X10700144Y-13019198D01*
X10700144Y-13019198D02*
X10690620Y-13057294D01*
X10690620Y-13057294D02*
X10681096Y-13076341D01*
X10681096Y-13076341D02*
X10671572Y-13085865D01*
X10671572Y-13085865D02*
X10652525Y-13095389D01*
X10652525Y-13095389D02*
X10633477Y-13095389D01*
X10633477Y-13095389D02*
X10614430Y-13085865D01*
X10614430Y-13085865D02*
X10604906Y-13076341D01*
X10604906Y-13076341D02*
X10595382Y-13057294D01*
X10595382Y-13057294D02*
X10585858Y-13019198D01*
X10585858Y-13019198D02*
X10585858Y-12971579D01*
X10585858Y-12971579D02*
X10595382Y-12933484D01*
X10595382Y-12933484D02*
X10604906Y-12914436D01*
X10604906Y-12914436D02*
X10614430Y-12904913D01*
X10614430Y-12904913D02*
X10633477Y-12895389D01*
X10785858Y-13076341D02*
X10795382Y-13085865D01*
X10795382Y-13085865D02*
X10785858Y-13095389D01*
X10785858Y-13095389D02*
X10776334Y-13085865D01*
X10776334Y-13085865D02*
X10785858Y-13076341D01*
X10785858Y-13076341D02*
X10785858Y-13095389D01*
X10966811Y-12962055D02*
X10966811Y-13095389D01*
X10919191Y-12885865D02*
X10871572Y-13028722D01*
X10871572Y-13028722D02*
X10995382Y-13028722D01*
X11109668Y-12895389D02*
X11128715Y-12895389D01*
X11128715Y-12895389D02*
X11147763Y-12904913D01*
X11147763Y-12904913D02*
X11157287Y-12914436D01*
X11157287Y-12914436D02*
X11166811Y-12933484D01*
X11166811Y-12933484D02*
X11176334Y-12971579D01*
X11176334Y-12971579D02*
X11176334Y-13019198D01*
X11176334Y-13019198D02*
X11166811Y-13057294D01*
X11166811Y-13057294D02*
X11157287Y-13076341D01*
X11157287Y-13076341D02*
X11147763Y-13085865D01*
X11147763Y-13085865D02*
X11128715Y-13095389D01*
X11128715Y-13095389D02*
X11109668Y-13095389D01*
X11109668Y-13095389D02*
X11090620Y-13085865D01*
X11090620Y-13085865D02*
X11081096Y-13076341D01*
X11081096Y-13076341D02*
X11071572Y-13057294D01*
X11071572Y-13057294D02*
X11062049Y-13019198D01*
X11062049Y-13019198D02*
X11062049Y-12971579D01*
X11062049Y-12971579D02*
X11071572Y-12933484D01*
X11071572Y-12933484D02*
X11081096Y-12914436D01*
X11081096Y-12914436D02*
X11090620Y-12904913D01*
X11090620Y-12904913D02*
X11109668Y-12895389D01*
X11300144Y-12895389D02*
X11319191Y-12895389D01*
X11319191Y-12895389D02*
X11338239Y-12904913D01*
X11338239Y-12904913D02*
X11347763Y-12914436D01*
X11347763Y-12914436D02*
X11357287Y-12933484D01*
X11357287Y-12933484D02*
X11366810Y-12971579D01*
X11366810Y-12971579D02*
X11366810Y-13019198D01*
X11366810Y-13019198D02*
X11357287Y-13057294D01*
X11357287Y-13057294D02*
X11347763Y-13076341D01*
X11347763Y-13076341D02*
X11338239Y-13085865D01*
X11338239Y-13085865D02*
X11319191Y-13095389D01*
X11319191Y-13095389D02*
X11300144Y-13095389D01*
X11300144Y-13095389D02*
X11281096Y-13085865D01*
X11281096Y-13085865D02*
X11271572Y-13076341D01*
X11271572Y-13076341D02*
X11262049Y-13057294D01*
X11262049Y-13057294D02*
X11252525Y-13019198D01*
X11252525Y-13019198D02*
X11252525Y-12971579D01*
X11252525Y-12971579D02*
X11262049Y-12933484D01*
X11262049Y-12933484D02*
X11271572Y-12914436D01*
X11271572Y-12914436D02*
X11281096Y-12904913D01*
X11281096Y-12904913D02*
X11300144Y-12895389D01*
X11452525Y-13095389D02*
X11452525Y-12962055D01*
X11452525Y-12981103D02*
X11462049Y-12971579D01*
X11462049Y-12971579D02*
X11481096Y-12962055D01*
X11481096Y-12962055D02*
X11509668Y-12962055D01*
X11509668Y-12962055D02*
X11528715Y-12971579D01*
X11528715Y-12971579D02*
X11538239Y-12990627D01*
X11538239Y-12990627D02*
X11538239Y-13095389D01*
X11538239Y-12990627D02*
X11547763Y-12971579D01*
X11547763Y-12971579D02*
X11566810Y-12962055D01*
X11566810Y-12962055D02*
X11595382Y-12962055D01*
X11595382Y-12962055D02*
X11614430Y-12971579D01*
X11614430Y-12971579D02*
X11623953Y-12990627D01*
X11623953Y-12990627D02*
X11623953Y-13095389D01*
X11719191Y-13095389D02*
X11719191Y-12962055D01*
X11719191Y-12981103D02*
X11728715Y-12971579D01*
X11728715Y-12971579D02*
X11747763Y-12962055D01*
X11747763Y-12962055D02*
X11776334Y-12962055D01*
X11776334Y-12962055D02*
X11795382Y-12971579D01*
X11795382Y-12971579D02*
X11804906Y-12990627D01*
X11804906Y-12990627D02*
X11804906Y-13095389D01*
X11804906Y-12990627D02*
X11814430Y-12971579D01*
X11814430Y-12971579D02*
X11833477Y-12962055D01*
X11833477Y-12962055D02*
X11862049Y-12962055D01*
X11862049Y-12962055D02*
X11881096Y-12971579D01*
X11881096Y-12971579D02*
X11890620Y-12990627D01*
X11890620Y-12990627D02*
X11890620Y-13095389D01*
X12281096Y-12885865D02*
X12109668Y-13143008D01*
X12538239Y-12895389D02*
X12557287Y-12895389D01*
X12557287Y-12895389D02*
X12576334Y-12904913D01*
X12576334Y-12904913D02*
X12585858Y-12914436D01*
X12585858Y-12914436D02*
X12595382Y-12933484D01*
X12595382Y-12933484D02*
X12604906Y-12971579D01*
X12604906Y-12971579D02*
X12604906Y-13019198D01*
X12604906Y-13019198D02*
X12595382Y-13057294D01*
X12595382Y-13057294D02*
X12585858Y-13076341D01*
X12585858Y-13076341D02*
X12576334Y-13085865D01*
X12576334Y-13085865D02*
X12557287Y-13095389D01*
X12557287Y-13095389D02*
X12538239Y-13095389D01*
X12538239Y-13095389D02*
X12519192Y-13085865D01*
X12519192Y-13085865D02*
X12509668Y-13076341D01*
X12509668Y-13076341D02*
X12500144Y-13057294D01*
X12500144Y-13057294D02*
X12490620Y-13019198D01*
X12490620Y-13019198D02*
X12490620Y-12971579D01*
X12490620Y-12971579D02*
X12500144Y-12933484D01*
X12500144Y-12933484D02*
X12509668Y-12914436D01*
X12509668Y-12914436D02*
X12519192Y-12904913D01*
X12519192Y-12904913D02*
X12538239Y-12895389D01*
X12690620Y-13076341D02*
X12700144Y-13085865D01*
X12700144Y-13085865D02*
X12690620Y-13095389D01*
X12690620Y-13095389D02*
X12681096Y-13085865D01*
X12681096Y-13085865D02*
X12690620Y-13076341D01*
X12690620Y-13076341D02*
X12690620Y-13095389D01*
X12823953Y-12895389D02*
X12843001Y-12895389D01*
X12843001Y-12895389D02*
X12862049Y-12904913D01*
X12862049Y-12904913D02*
X12871573Y-12914436D01*
X12871573Y-12914436D02*
X12881096Y-12933484D01*
X12881096Y-12933484D02*
X12890620Y-12971579D01*
X12890620Y-12971579D02*
X12890620Y-13019198D01*
X12890620Y-13019198D02*
X12881096Y-13057294D01*
X12881096Y-13057294D02*
X12871573Y-13076341D01*
X12871573Y-13076341D02*
X12862049Y-13085865D01*
X12862049Y-13085865D02*
X12843001Y-13095389D01*
X12843001Y-13095389D02*
X12823953Y-13095389D01*
X12823953Y-13095389D02*
X12804906Y-13085865D01*
X12804906Y-13085865D02*
X12795382Y-13076341D01*
X12795382Y-13076341D02*
X12785858Y-13057294D01*
X12785858Y-13057294D02*
X12776334Y-13019198D01*
X12776334Y-13019198D02*
X12776334Y-12971579D01*
X12776334Y-12971579D02*
X12785858Y-12933484D01*
X12785858Y-12933484D02*
X12795382Y-12914436D01*
X12795382Y-12914436D02*
X12804906Y-12904913D01*
X12804906Y-12904913D02*
X12823953Y-12895389D01*
X13081096Y-13095389D02*
X12966811Y-13095389D01*
X13023953Y-13095389D02*
X13023953Y-12895389D01*
X13023953Y-12895389D02*
X13004906Y-12923960D01*
X13004906Y-12923960D02*
X12985858Y-12943008D01*
X12985858Y-12943008D02*
X12966811Y-12952532D01*
X13262049Y-12895389D02*
X13166811Y-12895389D01*
X13166811Y-12895389D02*
X13157287Y-12990627D01*
X13157287Y-12990627D02*
X13166811Y-12981103D01*
X13166811Y-12981103D02*
X13185858Y-12971579D01*
X13185858Y-12971579D02*
X13233477Y-12971579D01*
X13233477Y-12971579D02*
X13252525Y-12981103D01*
X13252525Y-12981103D02*
X13262049Y-12990627D01*
X13262049Y-12990627D02*
X13271573Y-13009675D01*
X13271573Y-13009675D02*
X13271573Y-13057294D01*
X13271573Y-13057294D02*
X13262049Y-13076341D01*
X13262049Y-13076341D02*
X13252525Y-13085865D01*
X13252525Y-13085865D02*
X13233477Y-13095389D01*
X13233477Y-13095389D02*
X13185858Y-13095389D01*
X13185858Y-13095389D02*
X13166811Y-13085865D01*
X13166811Y-13085865D02*
X13157287Y-13076341D01*
X13338239Y-12895389D02*
X13471573Y-12895389D01*
X13471573Y-12895389D02*
X13385858Y-13095389D01*
X13538239Y-12895389D02*
X13538239Y-12933484D01*
X13614430Y-12895389D02*
X13614430Y-12933484D01*
X13909668Y-13171579D02*
X13900144Y-13162055D01*
X13900144Y-13162055D02*
X13881096Y-13133484D01*
X13881096Y-13133484D02*
X13871573Y-13114436D01*
X13871573Y-13114436D02*
X13862049Y-13085865D01*
X13862049Y-13085865D02*
X13852525Y-13038246D01*
X13852525Y-13038246D02*
X13852525Y-13000151D01*
X13852525Y-13000151D02*
X13862049Y-12952532D01*
X13862049Y-12952532D02*
X13871573Y-12923960D01*
X13871573Y-12923960D02*
X13881096Y-12904913D01*
X13881096Y-12904913D02*
X13900144Y-12876341D01*
X13900144Y-12876341D02*
X13909668Y-12866817D01*
X14071573Y-12962055D02*
X14071573Y-13095389D01*
X14023954Y-12885865D02*
X13976335Y-13028722D01*
X13976335Y-13028722D02*
X14100144Y-13028722D01*
X14262049Y-12895389D02*
X14223954Y-12895389D01*
X14223954Y-12895389D02*
X14204906Y-12904913D01*
X14204906Y-12904913D02*
X14195382Y-12914436D01*
X14195382Y-12914436D02*
X14176335Y-12943008D01*
X14176335Y-12943008D02*
X14166811Y-12981103D01*
X14166811Y-12981103D02*
X14166811Y-13057294D01*
X14166811Y-13057294D02*
X14176335Y-13076341D01*
X14176335Y-13076341D02*
X14185858Y-13085865D01*
X14185858Y-13085865D02*
X14204906Y-13095389D01*
X14204906Y-13095389D02*
X14243001Y-13095389D01*
X14243001Y-13095389D02*
X14262049Y-13085865D01*
X14262049Y-13085865D02*
X14271573Y-13076341D01*
X14271573Y-13076341D02*
X14281096Y-13057294D01*
X14281096Y-13057294D02*
X14281096Y-13009675D01*
X14281096Y-13009675D02*
X14271573Y-12990627D01*
X14271573Y-12990627D02*
X14262049Y-12981103D01*
X14262049Y-12981103D02*
X14243001Y-12971579D01*
X14243001Y-12971579D02*
X14204906Y-12971579D01*
X14204906Y-12971579D02*
X14185858Y-12981103D01*
X14185858Y-12981103D02*
X14176335Y-12990627D01*
X14176335Y-12990627D02*
X14166811Y-13009675D01*
X14519192Y-13095389D02*
X14519192Y-12895389D01*
X14604906Y-13095389D02*
X14604906Y-12990627D01*
X14604906Y-12990627D02*
X14595382Y-12971579D01*
X14595382Y-12971579D02*
X14576335Y-12962055D01*
X14576335Y-12962055D02*
X14547763Y-12962055D01*
X14547763Y-12962055D02*
X14528716Y-12971579D01*
X14528716Y-12971579D02*
X14519192Y-12981103D01*
X14728716Y-13095389D02*
X14709668Y-13085865D01*
X14709668Y-13085865D02*
X14700144Y-13076341D01*
X14700144Y-13076341D02*
X14690620Y-13057294D01*
X14690620Y-13057294D02*
X14690620Y-13000151D01*
X14690620Y-13000151D02*
X14700144Y-12981103D01*
X14700144Y-12981103D02*
X14709668Y-12971579D01*
X14709668Y-12971579D02*
X14728716Y-12962055D01*
X14728716Y-12962055D02*
X14757287Y-12962055D01*
X14757287Y-12962055D02*
X14776335Y-12971579D01*
X14776335Y-12971579D02*
X14785858Y-12981103D01*
X14785858Y-12981103D02*
X14795382Y-13000151D01*
X14795382Y-13000151D02*
X14795382Y-13057294D01*
X14795382Y-13057294D02*
X14785858Y-13076341D01*
X14785858Y-13076341D02*
X14776335Y-13085865D01*
X14776335Y-13085865D02*
X14757287Y-13095389D01*
X14757287Y-13095389D02*
X14728716Y-13095389D01*
X14909668Y-13095389D02*
X14890620Y-13085865D01*
X14890620Y-13085865D02*
X14881097Y-13066817D01*
X14881097Y-13066817D02*
X14881097Y-12895389D01*
X15062049Y-13085865D02*
X15043001Y-13095389D01*
X15043001Y-13095389D02*
X15004906Y-13095389D01*
X15004906Y-13095389D02*
X14985858Y-13085865D01*
X14985858Y-13085865D02*
X14976335Y-13066817D01*
X14976335Y-13066817D02*
X14976335Y-12990627D01*
X14976335Y-12990627D02*
X14985858Y-12971579D01*
X14985858Y-12971579D02*
X15004906Y-12962055D01*
X15004906Y-12962055D02*
X15043001Y-12962055D01*
X15043001Y-12962055D02*
X15062049Y-12971579D01*
X15062049Y-12971579D02*
X15071573Y-12990627D01*
X15071573Y-12990627D02*
X15071573Y-13009675D01*
X15071573Y-13009675D02*
X14976335Y-13028722D01*
X15147763Y-13085865D02*
X15166811Y-13095389D01*
X15166811Y-13095389D02*
X15204906Y-13095389D01*
X15204906Y-13095389D02*
X15223954Y-13085865D01*
X15223954Y-13085865D02*
X15233478Y-13066817D01*
X15233478Y-13066817D02*
X15233478Y-13057294D01*
X15233478Y-13057294D02*
X15223954Y-13038246D01*
X15223954Y-13038246D02*
X15204906Y-13028722D01*
X15204906Y-13028722D02*
X15176335Y-13028722D01*
X15176335Y-13028722D02*
X15157287Y-13019198D01*
X15157287Y-13019198D02*
X15147763Y-13000151D01*
X15147763Y-13000151D02*
X15147763Y-12990627D01*
X15147763Y-12990627D02*
X15157287Y-12971579D01*
X15157287Y-12971579D02*
X15176335Y-12962055D01*
X15176335Y-12962055D02*
X15204906Y-12962055D01*
X15204906Y-12962055D02*
X15223954Y-12971579D01*
X15300144Y-13171579D02*
X15309668Y-13162055D01*
X15309668Y-13162055D02*
X15328716Y-13133484D01*
X15328716Y-13133484D02*
X15338239Y-13114436D01*
X15338239Y-13114436D02*
X15347763Y-13085865D01*
X15347763Y-13085865D02*
X15357287Y-13038246D01*
X15357287Y-13038246D02*
X15357287Y-13000151D01*
X15357287Y-13000151D02*
X15347763Y-12952532D01*
X15347763Y-12952532D02*
X15338239Y-12923960D01*
X15338239Y-12923960D02*
X15328716Y-12904913D01*
X15328716Y-12904913D02*
X15309668Y-12876341D01*
X15309668Y-12876341D02*
X15300144Y-12866817D01*
D10*
X10334605Y-13267905D02*
G75*
G03*
X10334605Y-13267905I-40000J0D01*
G01*
D11*
X10633477Y-13159389D02*
X10652525Y-13159389D01*
X10652525Y-13159389D02*
X10671572Y-13168913D01*
X10671572Y-13168913D02*
X10681096Y-13178436D01*
X10681096Y-13178436D02*
X10690620Y-13197484D01*
X10690620Y-13197484D02*
X10700144Y-13235579D01*
X10700144Y-13235579D02*
X10700144Y-13283198D01*
X10700144Y-13283198D02*
X10690620Y-13321294D01*
X10690620Y-13321294D02*
X10681096Y-13340341D01*
X10681096Y-13340341D02*
X10671572Y-13349865D01*
X10671572Y-13349865D02*
X10652525Y-13359389D01*
X10652525Y-13359389D02*
X10633477Y-13359389D01*
X10633477Y-13359389D02*
X10614430Y-13349865D01*
X10614430Y-13349865D02*
X10604906Y-13340341D01*
X10604906Y-13340341D02*
X10595382Y-13321294D01*
X10595382Y-13321294D02*
X10585858Y-13283198D01*
X10585858Y-13283198D02*
X10585858Y-13235579D01*
X10585858Y-13235579D02*
X10595382Y-13197484D01*
X10595382Y-13197484D02*
X10604906Y-13178436D01*
X10604906Y-13178436D02*
X10614430Y-13168913D01*
X10614430Y-13168913D02*
X10633477Y-13159389D01*
X10785858Y-13340341D02*
X10795382Y-13349865D01*
X10795382Y-13349865D02*
X10785858Y-13359389D01*
X10785858Y-13359389D02*
X10776334Y-13349865D01*
X10776334Y-13349865D02*
X10785858Y-13340341D01*
X10785858Y-13340341D02*
X10785858Y-13359389D01*
X10909668Y-13245103D02*
X10890620Y-13235579D01*
X10890620Y-13235579D02*
X10881096Y-13226055D01*
X10881096Y-13226055D02*
X10871572Y-13207008D01*
X10871572Y-13207008D02*
X10871572Y-13197484D01*
X10871572Y-13197484D02*
X10881096Y-13178436D01*
X10881096Y-13178436D02*
X10890620Y-13168913D01*
X10890620Y-13168913D02*
X10909668Y-13159389D01*
X10909668Y-13159389D02*
X10947763Y-13159389D01*
X10947763Y-13159389D02*
X10966811Y-13168913D01*
X10966811Y-13168913D02*
X10976334Y-13178436D01*
X10976334Y-13178436D02*
X10985858Y-13197484D01*
X10985858Y-13197484D02*
X10985858Y-13207008D01*
X10985858Y-13207008D02*
X10976334Y-13226055D01*
X10976334Y-13226055D02*
X10966811Y-13235579D01*
X10966811Y-13235579D02*
X10947763Y-13245103D01*
X10947763Y-13245103D02*
X10909668Y-13245103D01*
X10909668Y-13245103D02*
X10890620Y-13254627D01*
X10890620Y-13254627D02*
X10881096Y-13264151D01*
X10881096Y-13264151D02*
X10871572Y-13283198D01*
X10871572Y-13283198D02*
X10871572Y-13321294D01*
X10871572Y-13321294D02*
X10881096Y-13340341D01*
X10881096Y-13340341D02*
X10890620Y-13349865D01*
X10890620Y-13349865D02*
X10909668Y-13359389D01*
X10909668Y-13359389D02*
X10947763Y-13359389D01*
X10947763Y-13359389D02*
X10966811Y-13349865D01*
X10966811Y-13349865D02*
X10976334Y-13340341D01*
X10976334Y-13340341D02*
X10985858Y-13321294D01*
X10985858Y-13321294D02*
X10985858Y-13283198D01*
X10985858Y-13283198D02*
X10976334Y-13264151D01*
X10976334Y-13264151D02*
X10966811Y-13254627D01*
X10966811Y-13254627D02*
X10947763Y-13245103D01*
X11109668Y-13159389D02*
X11128715Y-13159389D01*
X11128715Y-13159389D02*
X11147763Y-13168913D01*
X11147763Y-13168913D02*
X11157287Y-13178436D01*
X11157287Y-13178436D02*
X11166811Y-13197484D01*
X11166811Y-13197484D02*
X11176334Y-13235579D01*
X11176334Y-13235579D02*
X11176334Y-13283198D01*
X11176334Y-13283198D02*
X11166811Y-13321294D01*
X11166811Y-13321294D02*
X11157287Y-13340341D01*
X11157287Y-13340341D02*
X11147763Y-13349865D01*
X11147763Y-13349865D02*
X11128715Y-13359389D01*
X11128715Y-13359389D02*
X11109668Y-13359389D01*
X11109668Y-13359389D02*
X11090620Y-13349865D01*
X11090620Y-13349865D02*
X11081096Y-13340341D01*
X11081096Y-13340341D02*
X11071572Y-13321294D01*
X11071572Y-13321294D02*
X11062049Y-13283198D01*
X11062049Y-13283198D02*
X11062049Y-13235579D01*
X11062049Y-13235579D02*
X11071572Y-13197484D01*
X11071572Y-13197484D02*
X11081096Y-13178436D01*
X11081096Y-13178436D02*
X11090620Y-13168913D01*
X11090620Y-13168913D02*
X11109668Y-13159389D01*
X11300144Y-13159389D02*
X11319191Y-13159389D01*
X11319191Y-13159389D02*
X11338239Y-13168913D01*
X11338239Y-13168913D02*
X11347763Y-13178436D01*
X11347763Y-13178436D02*
X11357287Y-13197484D01*
X11357287Y-13197484D02*
X11366810Y-13235579D01*
X11366810Y-13235579D02*
X11366810Y-13283198D01*
X11366810Y-13283198D02*
X11357287Y-13321294D01*
X11357287Y-13321294D02*
X11347763Y-13340341D01*
X11347763Y-13340341D02*
X11338239Y-13349865D01*
X11338239Y-13349865D02*
X11319191Y-13359389D01*
X11319191Y-13359389D02*
X11300144Y-13359389D01*
X11300144Y-13359389D02*
X11281096Y-13349865D01*
X11281096Y-13349865D02*
X11271572Y-13340341D01*
X11271572Y-13340341D02*
X11262049Y-13321294D01*
X11262049Y-13321294D02*
X11252525Y-13283198D01*
X11252525Y-13283198D02*
X11252525Y-13235579D01*
X11252525Y-13235579D02*
X11262049Y-13197484D01*
X11262049Y-13197484D02*
X11271572Y-13178436D01*
X11271572Y-13178436D02*
X11281096Y-13168913D01*
X11281096Y-13168913D02*
X11300144Y-13159389D01*
X11452525Y-13359389D02*
X11452525Y-13226055D01*
X11452525Y-13245103D02*
X11462049Y-13235579D01*
X11462049Y-13235579D02*
X11481096Y-13226055D01*
X11481096Y-13226055D02*
X11509668Y-13226055D01*
X11509668Y-13226055D02*
X11528715Y-13235579D01*
X11528715Y-13235579D02*
X11538239Y-13254627D01*
X11538239Y-13254627D02*
X11538239Y-13359389D01*
X11538239Y-13254627D02*
X11547763Y-13235579D01*
X11547763Y-13235579D02*
X11566810Y-13226055D01*
X11566810Y-13226055D02*
X11595382Y-13226055D01*
X11595382Y-13226055D02*
X11614430Y-13235579D01*
X11614430Y-13235579D02*
X11623953Y-13254627D01*
X11623953Y-13254627D02*
X11623953Y-13359389D01*
X11719191Y-13359389D02*
X11719191Y-13226055D01*
X11719191Y-13245103D02*
X11728715Y-13235579D01*
X11728715Y-13235579D02*
X11747763Y-13226055D01*
X11747763Y-13226055D02*
X11776334Y-13226055D01*
X11776334Y-13226055D02*
X11795382Y-13235579D01*
X11795382Y-13235579D02*
X11804906Y-13254627D01*
X11804906Y-13254627D02*
X11804906Y-13359389D01*
X11804906Y-13254627D02*
X11814430Y-13235579D01*
X11814430Y-13235579D02*
X11833477Y-13226055D01*
X11833477Y-13226055D02*
X11862049Y-13226055D01*
X11862049Y-13226055D02*
X11881096Y-13235579D01*
X11881096Y-13235579D02*
X11890620Y-13254627D01*
X11890620Y-13254627D02*
X11890620Y-13359389D01*
X12281096Y-13149865D02*
X12109668Y-13407008D01*
X12538239Y-13159389D02*
X12557287Y-13159389D01*
X12557287Y-13159389D02*
X12576334Y-13168913D01*
X12576334Y-13168913D02*
X12585858Y-13178436D01*
X12585858Y-13178436D02*
X12595382Y-13197484D01*
X12595382Y-13197484D02*
X12604906Y-13235579D01*
X12604906Y-13235579D02*
X12604906Y-13283198D01*
X12604906Y-13283198D02*
X12595382Y-13321294D01*
X12595382Y-13321294D02*
X12585858Y-13340341D01*
X12585858Y-13340341D02*
X12576334Y-13349865D01*
X12576334Y-13349865D02*
X12557287Y-13359389D01*
X12557287Y-13359389D02*
X12538239Y-13359389D01*
X12538239Y-13359389D02*
X12519192Y-13349865D01*
X12519192Y-13349865D02*
X12509668Y-13340341D01*
X12509668Y-13340341D02*
X12500144Y-13321294D01*
X12500144Y-13321294D02*
X12490620Y-13283198D01*
X12490620Y-13283198D02*
X12490620Y-13235579D01*
X12490620Y-13235579D02*
X12500144Y-13197484D01*
X12500144Y-13197484D02*
X12509668Y-13178436D01*
X12509668Y-13178436D02*
X12519192Y-13168913D01*
X12519192Y-13168913D02*
X12538239Y-13159389D01*
X12690620Y-13340341D02*
X12700144Y-13349865D01*
X12700144Y-13349865D02*
X12690620Y-13359389D01*
X12690620Y-13359389D02*
X12681096Y-13349865D01*
X12681096Y-13349865D02*
X12690620Y-13340341D01*
X12690620Y-13340341D02*
X12690620Y-13359389D01*
X12823953Y-13159389D02*
X12843001Y-13159389D01*
X12843001Y-13159389D02*
X12862049Y-13168913D01*
X12862049Y-13168913D02*
X12871573Y-13178436D01*
X12871573Y-13178436D02*
X12881096Y-13197484D01*
X12881096Y-13197484D02*
X12890620Y-13235579D01*
X12890620Y-13235579D02*
X12890620Y-13283198D01*
X12890620Y-13283198D02*
X12881096Y-13321294D01*
X12881096Y-13321294D02*
X12871573Y-13340341D01*
X12871573Y-13340341D02*
X12862049Y-13349865D01*
X12862049Y-13349865D02*
X12843001Y-13359389D01*
X12843001Y-13359389D02*
X12823953Y-13359389D01*
X12823953Y-13359389D02*
X12804906Y-13349865D01*
X12804906Y-13349865D02*
X12795382Y-13340341D01*
X12795382Y-13340341D02*
X12785858Y-13321294D01*
X12785858Y-13321294D02*
X12776334Y-13283198D01*
X12776334Y-13283198D02*
X12776334Y-13235579D01*
X12776334Y-13235579D02*
X12785858Y-13197484D01*
X12785858Y-13197484D02*
X12795382Y-13178436D01*
X12795382Y-13178436D02*
X12804906Y-13168913D01*
X12804906Y-13168913D02*
X12823953Y-13159389D01*
X12957287Y-13159389D02*
X13081096Y-13159389D01*
X13081096Y-13159389D02*
X13014430Y-13235579D01*
X13014430Y-13235579D02*
X13043001Y-13235579D01*
X13043001Y-13235579D02*
X13062049Y-13245103D01*
X13062049Y-13245103D02*
X13071573Y-13254627D01*
X13071573Y-13254627D02*
X13081096Y-13273675D01*
X13081096Y-13273675D02*
X13081096Y-13321294D01*
X13081096Y-13321294D02*
X13071573Y-13340341D01*
X13071573Y-13340341D02*
X13062049Y-13349865D01*
X13062049Y-13349865D02*
X13043001Y-13359389D01*
X13043001Y-13359389D02*
X12985858Y-13359389D01*
X12985858Y-13359389D02*
X12966811Y-13349865D01*
X12966811Y-13349865D02*
X12957287Y-13340341D01*
X13271573Y-13359389D02*
X13157287Y-13359389D01*
X13214430Y-13359389D02*
X13214430Y-13159389D01*
X13214430Y-13159389D02*
X13195382Y-13187960D01*
X13195382Y-13187960D02*
X13176334Y-13207008D01*
X13176334Y-13207008D02*
X13157287Y-13216532D01*
X13452525Y-13159389D02*
X13357287Y-13159389D01*
X13357287Y-13159389D02*
X13347763Y-13254627D01*
X13347763Y-13254627D02*
X13357287Y-13245103D01*
X13357287Y-13245103D02*
X13376334Y-13235579D01*
X13376334Y-13235579D02*
X13423954Y-13235579D01*
X13423954Y-13235579D02*
X13443001Y-13245103D01*
X13443001Y-13245103D02*
X13452525Y-13254627D01*
X13452525Y-13254627D02*
X13462049Y-13273675D01*
X13462049Y-13273675D02*
X13462049Y-13321294D01*
X13462049Y-13321294D02*
X13452525Y-13340341D01*
X13452525Y-13340341D02*
X13443001Y-13349865D01*
X13443001Y-13349865D02*
X13423954Y-13359389D01*
X13423954Y-13359389D02*
X13376334Y-13359389D01*
X13376334Y-13359389D02*
X13357287Y-13349865D01*
X13357287Y-13349865D02*
X13347763Y-13340341D01*
X13538239Y-13159389D02*
X13538239Y-13197484D01*
X13614430Y-13159389D02*
X13614430Y-13197484D01*
X13909668Y-13435579D02*
X13900144Y-13426055D01*
X13900144Y-13426055D02*
X13881096Y-13397484D01*
X13881096Y-13397484D02*
X13871573Y-13378436D01*
X13871573Y-13378436D02*
X13862049Y-13349865D01*
X13862049Y-13349865D02*
X13852525Y-13302246D01*
X13852525Y-13302246D02*
X13852525Y-13264151D01*
X13852525Y-13264151D02*
X13862049Y-13216532D01*
X13862049Y-13216532D02*
X13871573Y-13187960D01*
X13871573Y-13187960D02*
X13881096Y-13168913D01*
X13881096Y-13168913D02*
X13900144Y-13140341D01*
X13900144Y-13140341D02*
X13909668Y-13130817D01*
X13966811Y-13159389D02*
X14100144Y-13159389D01*
X14100144Y-13159389D02*
X14014430Y-13359389D01*
X14271573Y-13159389D02*
X14176335Y-13159389D01*
X14176335Y-13159389D02*
X14166811Y-13254627D01*
X14166811Y-13254627D02*
X14176335Y-13245103D01*
X14176335Y-13245103D02*
X14195382Y-13235579D01*
X14195382Y-13235579D02*
X14243001Y-13235579D01*
X14243001Y-13235579D02*
X14262049Y-13245103D01*
X14262049Y-13245103D02*
X14271573Y-13254627D01*
X14271573Y-13254627D02*
X14281096Y-13273675D01*
X14281096Y-13273675D02*
X14281096Y-13321294D01*
X14281096Y-13321294D02*
X14271573Y-13340341D01*
X14271573Y-13340341D02*
X14262049Y-13349865D01*
X14262049Y-13349865D02*
X14243001Y-13359389D01*
X14243001Y-13359389D02*
X14195382Y-13359389D01*
X14195382Y-13359389D02*
X14176335Y-13349865D01*
X14176335Y-13349865D02*
X14166811Y-13340341D01*
X14519192Y-13359389D02*
X14519192Y-13159389D01*
X14604906Y-13359389D02*
X14604906Y-13254627D01*
X14604906Y-13254627D02*
X14595382Y-13235579D01*
X14595382Y-13235579D02*
X14576335Y-13226055D01*
X14576335Y-13226055D02*
X14547763Y-13226055D01*
X14547763Y-13226055D02*
X14528716Y-13235579D01*
X14528716Y-13235579D02*
X14519192Y-13245103D01*
X14728716Y-13359389D02*
X14709668Y-13349865D01*
X14709668Y-13349865D02*
X14700144Y-13340341D01*
X14700144Y-13340341D02*
X14690620Y-13321294D01*
X14690620Y-13321294D02*
X14690620Y-13264151D01*
X14690620Y-13264151D02*
X14700144Y-13245103D01*
X14700144Y-13245103D02*
X14709668Y-13235579D01*
X14709668Y-13235579D02*
X14728716Y-13226055D01*
X14728716Y-13226055D02*
X14757287Y-13226055D01*
X14757287Y-13226055D02*
X14776335Y-13235579D01*
X14776335Y-13235579D02*
X14785858Y-13245103D01*
X14785858Y-13245103D02*
X14795382Y-13264151D01*
X14795382Y-13264151D02*
X14795382Y-13321294D01*
X14795382Y-13321294D02*
X14785858Y-13340341D01*
X14785858Y-13340341D02*
X14776335Y-13349865D01*
X14776335Y-13349865D02*
X14757287Y-13359389D01*
X14757287Y-13359389D02*
X14728716Y-13359389D01*
X14909668Y-13359389D02*
X14890620Y-13349865D01*
X14890620Y-13349865D02*
X14881097Y-13330817D01*
X14881097Y-13330817D02*
X14881097Y-13159389D01*
X15062049Y-13349865D02*
X15043001Y-13359389D01*
X15043001Y-13359389D02*
X15004906Y-13359389D01*
X15004906Y-13359389D02*
X14985858Y-13349865D01*
X14985858Y-13349865D02*
X14976335Y-13330817D01*
X14976335Y-13330817D02*
X14976335Y-13254627D01*
X14976335Y-13254627D02*
X14985858Y-13235579D01*
X14985858Y-13235579D02*
X15004906Y-13226055D01*
X15004906Y-13226055D02*
X15043001Y-13226055D01*
X15043001Y-13226055D02*
X15062049Y-13235579D01*
X15062049Y-13235579D02*
X15071573Y-13254627D01*
X15071573Y-13254627D02*
X15071573Y-13273675D01*
X15071573Y-13273675D02*
X14976335Y-13292722D01*
X15147763Y-13349865D02*
X15166811Y-13359389D01*
X15166811Y-13359389D02*
X15204906Y-13359389D01*
X15204906Y-13359389D02*
X15223954Y-13349865D01*
X15223954Y-13349865D02*
X15233478Y-13330817D01*
X15233478Y-13330817D02*
X15233478Y-13321294D01*
X15233478Y-13321294D02*
X15223954Y-13302246D01*
X15223954Y-13302246D02*
X15204906Y-13292722D01*
X15204906Y-13292722D02*
X15176335Y-13292722D01*
X15176335Y-13292722D02*
X15157287Y-13283198D01*
X15157287Y-13283198D02*
X15147763Y-13264151D01*
X15147763Y-13264151D02*
X15147763Y-13254627D01*
X15147763Y-13254627D02*
X15157287Y-13235579D01*
X15157287Y-13235579D02*
X15176335Y-13226055D01*
X15176335Y-13226055D02*
X15204906Y-13226055D01*
X15204906Y-13226055D02*
X15223954Y-13235579D01*
X15300144Y-13435579D02*
X15309668Y-13426055D01*
X15309668Y-13426055D02*
X15328716Y-13397484D01*
X15328716Y-13397484D02*
X15338239Y-13378436D01*
X15338239Y-13378436D02*
X15347763Y-13349865D01*
X15347763Y-13349865D02*
X15357287Y-13302246D01*
X15357287Y-13302246D02*
X15357287Y-13264151D01*
X15357287Y-13264151D02*
X15347763Y-13216532D01*
X15347763Y-13216532D02*
X15338239Y-13187960D01*
X15338239Y-13187960D02*
X15328716Y-13168913D01*
X15328716Y-13168913D02*
X15309668Y-13140341D01*
X15309668Y-13140341D02*
X15300144Y-13130817D01*
D12*
X10283605Y-13480905D02*
X10283605Y-13582905D01*
X10232605Y-13531905D02*
X10334605Y-13531905D01*
D11*
X10700144Y-13623389D02*
X10585858Y-13623389D01*
X10643001Y-13623389D02*
X10643001Y-13423389D01*
X10643001Y-13423389D02*
X10623953Y-13451960D01*
X10623953Y-13451960D02*
X10604906Y-13471008D01*
X10604906Y-13471008D02*
X10585858Y-13480532D01*
X10785858Y-13604341D02*
X10795382Y-13613865D01*
X10795382Y-13613865D02*
X10785858Y-13623389D01*
X10785858Y-13623389D02*
X10776334Y-13613865D01*
X10776334Y-13613865D02*
X10785858Y-13604341D01*
X10785858Y-13604341D02*
X10785858Y-13623389D01*
X10919191Y-13423389D02*
X10938239Y-13423389D01*
X10938239Y-13423389D02*
X10957287Y-13432913D01*
X10957287Y-13432913D02*
X10966811Y-13442436D01*
X10966811Y-13442436D02*
X10976334Y-13461484D01*
X10976334Y-13461484D02*
X10985858Y-13499579D01*
X10985858Y-13499579D02*
X10985858Y-13547198D01*
X10985858Y-13547198D02*
X10976334Y-13585294D01*
X10976334Y-13585294D02*
X10966811Y-13604341D01*
X10966811Y-13604341D02*
X10957287Y-13613865D01*
X10957287Y-13613865D02*
X10938239Y-13623389D01*
X10938239Y-13623389D02*
X10919191Y-13623389D01*
X10919191Y-13623389D02*
X10900144Y-13613865D01*
X10900144Y-13613865D02*
X10890620Y-13604341D01*
X10890620Y-13604341D02*
X10881096Y-13585294D01*
X10881096Y-13585294D02*
X10871572Y-13547198D01*
X10871572Y-13547198D02*
X10871572Y-13499579D01*
X10871572Y-13499579D02*
X10881096Y-13461484D01*
X10881096Y-13461484D02*
X10890620Y-13442436D01*
X10890620Y-13442436D02*
X10900144Y-13432913D01*
X10900144Y-13432913D02*
X10919191Y-13423389D01*
X11062049Y-13442436D02*
X11071572Y-13432913D01*
X11071572Y-13432913D02*
X11090620Y-13423389D01*
X11090620Y-13423389D02*
X11138239Y-13423389D01*
X11138239Y-13423389D02*
X11157287Y-13432913D01*
X11157287Y-13432913D02*
X11166811Y-13442436D01*
X11166811Y-13442436D02*
X11176334Y-13461484D01*
X11176334Y-13461484D02*
X11176334Y-13480532D01*
X11176334Y-13480532D02*
X11166811Y-13509103D01*
X11166811Y-13509103D02*
X11052525Y-13623389D01*
X11052525Y-13623389D02*
X11176334Y-13623389D01*
X11300144Y-13423389D02*
X11319191Y-13423389D01*
X11319191Y-13423389D02*
X11338239Y-13432913D01*
X11338239Y-13432913D02*
X11347763Y-13442436D01*
X11347763Y-13442436D02*
X11357287Y-13461484D01*
X11357287Y-13461484D02*
X11366810Y-13499579D01*
X11366810Y-13499579D02*
X11366810Y-13547198D01*
X11366810Y-13547198D02*
X11357287Y-13585294D01*
X11357287Y-13585294D02*
X11347763Y-13604341D01*
X11347763Y-13604341D02*
X11338239Y-13613865D01*
X11338239Y-13613865D02*
X11319191Y-13623389D01*
X11319191Y-13623389D02*
X11300144Y-13623389D01*
X11300144Y-13623389D02*
X11281096Y-13613865D01*
X11281096Y-13613865D02*
X11271572Y-13604341D01*
X11271572Y-13604341D02*
X11262049Y-13585294D01*
X11262049Y-13585294D02*
X11252525Y-13547198D01*
X11252525Y-13547198D02*
X11252525Y-13499579D01*
X11252525Y-13499579D02*
X11262049Y-13461484D01*
X11262049Y-13461484D02*
X11271572Y-13442436D01*
X11271572Y-13442436D02*
X11281096Y-13432913D01*
X11281096Y-13432913D02*
X11300144Y-13423389D01*
X11452525Y-13623389D02*
X11452525Y-13490055D01*
X11452525Y-13509103D02*
X11462049Y-13499579D01*
X11462049Y-13499579D02*
X11481096Y-13490055D01*
X11481096Y-13490055D02*
X11509668Y-13490055D01*
X11509668Y-13490055D02*
X11528715Y-13499579D01*
X11528715Y-13499579D02*
X11538239Y-13518627D01*
X11538239Y-13518627D02*
X11538239Y-13623389D01*
X11538239Y-13518627D02*
X11547763Y-13499579D01*
X11547763Y-13499579D02*
X11566810Y-13490055D01*
X11566810Y-13490055D02*
X11595382Y-13490055D01*
X11595382Y-13490055D02*
X11614430Y-13499579D01*
X11614430Y-13499579D02*
X11623953Y-13518627D01*
X11623953Y-13518627D02*
X11623953Y-13623389D01*
X11719191Y-13623389D02*
X11719191Y-13490055D01*
X11719191Y-13509103D02*
X11728715Y-13499579D01*
X11728715Y-13499579D02*
X11747763Y-13490055D01*
X11747763Y-13490055D02*
X11776334Y-13490055D01*
X11776334Y-13490055D02*
X11795382Y-13499579D01*
X11795382Y-13499579D02*
X11804906Y-13518627D01*
X11804906Y-13518627D02*
X11804906Y-13623389D01*
X11804906Y-13518627D02*
X11814430Y-13499579D01*
X11814430Y-13499579D02*
X11833477Y-13490055D01*
X11833477Y-13490055D02*
X11862049Y-13490055D01*
X11862049Y-13490055D02*
X11881096Y-13499579D01*
X11881096Y-13499579D02*
X11890620Y-13518627D01*
X11890620Y-13518627D02*
X11890620Y-13623389D01*
X12281096Y-13413865D02*
X12109668Y-13671008D01*
X12538239Y-13423389D02*
X12557287Y-13423389D01*
X12557287Y-13423389D02*
X12576334Y-13432913D01*
X12576334Y-13432913D02*
X12585858Y-13442436D01*
X12585858Y-13442436D02*
X12595382Y-13461484D01*
X12595382Y-13461484D02*
X12604906Y-13499579D01*
X12604906Y-13499579D02*
X12604906Y-13547198D01*
X12604906Y-13547198D02*
X12595382Y-13585294D01*
X12595382Y-13585294D02*
X12585858Y-13604341D01*
X12585858Y-13604341D02*
X12576334Y-13613865D01*
X12576334Y-13613865D02*
X12557287Y-13623389D01*
X12557287Y-13623389D02*
X12538239Y-13623389D01*
X12538239Y-13623389D02*
X12519192Y-13613865D01*
X12519192Y-13613865D02*
X12509668Y-13604341D01*
X12509668Y-13604341D02*
X12500144Y-13585294D01*
X12500144Y-13585294D02*
X12490620Y-13547198D01*
X12490620Y-13547198D02*
X12490620Y-13499579D01*
X12490620Y-13499579D02*
X12500144Y-13461484D01*
X12500144Y-13461484D02*
X12509668Y-13442436D01*
X12509668Y-13442436D02*
X12519192Y-13432913D01*
X12519192Y-13432913D02*
X12538239Y-13423389D01*
X12690620Y-13604341D02*
X12700144Y-13613865D01*
X12700144Y-13613865D02*
X12690620Y-13623389D01*
X12690620Y-13623389D02*
X12681096Y-13613865D01*
X12681096Y-13613865D02*
X12690620Y-13604341D01*
X12690620Y-13604341D02*
X12690620Y-13623389D01*
X12823953Y-13423389D02*
X12843001Y-13423389D01*
X12843001Y-13423389D02*
X12862049Y-13432913D01*
X12862049Y-13432913D02*
X12871573Y-13442436D01*
X12871573Y-13442436D02*
X12881096Y-13461484D01*
X12881096Y-13461484D02*
X12890620Y-13499579D01*
X12890620Y-13499579D02*
X12890620Y-13547198D01*
X12890620Y-13547198D02*
X12881096Y-13585294D01*
X12881096Y-13585294D02*
X12871573Y-13604341D01*
X12871573Y-13604341D02*
X12862049Y-13613865D01*
X12862049Y-13613865D02*
X12843001Y-13623389D01*
X12843001Y-13623389D02*
X12823953Y-13623389D01*
X12823953Y-13623389D02*
X12804906Y-13613865D01*
X12804906Y-13613865D02*
X12795382Y-13604341D01*
X12795382Y-13604341D02*
X12785858Y-13585294D01*
X12785858Y-13585294D02*
X12776334Y-13547198D01*
X12776334Y-13547198D02*
X12776334Y-13499579D01*
X12776334Y-13499579D02*
X12785858Y-13461484D01*
X12785858Y-13461484D02*
X12795382Y-13442436D01*
X12795382Y-13442436D02*
X12804906Y-13432913D01*
X12804906Y-13432913D02*
X12823953Y-13423389D01*
X13062049Y-13490055D02*
X13062049Y-13623389D01*
X13014430Y-13413865D02*
X12966811Y-13556722D01*
X12966811Y-13556722D02*
X13090620Y-13556722D01*
X13204906Y-13423389D02*
X13223954Y-13423389D01*
X13223954Y-13423389D02*
X13243001Y-13432913D01*
X13243001Y-13432913D02*
X13252525Y-13442436D01*
X13252525Y-13442436D02*
X13262049Y-13461484D01*
X13262049Y-13461484D02*
X13271573Y-13499579D01*
X13271573Y-13499579D02*
X13271573Y-13547198D01*
X13271573Y-13547198D02*
X13262049Y-13585294D01*
X13262049Y-13585294D02*
X13252525Y-13604341D01*
X13252525Y-13604341D02*
X13243001Y-13613865D01*
X13243001Y-13613865D02*
X13223954Y-13623389D01*
X13223954Y-13623389D02*
X13204906Y-13623389D01*
X13204906Y-13623389D02*
X13185858Y-13613865D01*
X13185858Y-13613865D02*
X13176334Y-13604341D01*
X13176334Y-13604341D02*
X13166811Y-13585294D01*
X13166811Y-13585294D02*
X13157287Y-13547198D01*
X13157287Y-13547198D02*
X13157287Y-13499579D01*
X13157287Y-13499579D02*
X13166811Y-13461484D01*
X13166811Y-13461484D02*
X13176334Y-13442436D01*
X13176334Y-13442436D02*
X13185858Y-13432913D01*
X13185858Y-13432913D02*
X13204906Y-13423389D01*
X13347763Y-13442436D02*
X13357287Y-13432913D01*
X13357287Y-13432913D02*
X13376334Y-13423389D01*
X13376334Y-13423389D02*
X13423954Y-13423389D01*
X13423954Y-13423389D02*
X13443001Y-13432913D01*
X13443001Y-13432913D02*
X13452525Y-13442436D01*
X13452525Y-13442436D02*
X13462049Y-13461484D01*
X13462049Y-13461484D02*
X13462049Y-13480532D01*
X13462049Y-13480532D02*
X13452525Y-13509103D01*
X13452525Y-13509103D02*
X13338239Y-13623389D01*
X13338239Y-13623389D02*
X13462049Y-13623389D01*
X13538239Y-13423389D02*
X13538239Y-13461484D01*
X13614430Y-13423389D02*
X13614430Y-13461484D01*
X13909668Y-13699579D02*
X13900144Y-13690055D01*
X13900144Y-13690055D02*
X13881096Y-13661484D01*
X13881096Y-13661484D02*
X13871573Y-13642436D01*
X13871573Y-13642436D02*
X13862049Y-13613865D01*
X13862049Y-13613865D02*
X13852525Y-13566246D01*
X13852525Y-13566246D02*
X13852525Y-13528151D01*
X13852525Y-13528151D02*
X13862049Y-13480532D01*
X13862049Y-13480532D02*
X13871573Y-13451960D01*
X13871573Y-13451960D02*
X13881096Y-13432913D01*
X13881096Y-13432913D02*
X13900144Y-13404341D01*
X13900144Y-13404341D02*
X13909668Y-13394817D01*
X14071573Y-13490055D02*
X14071573Y-13623389D01*
X14023954Y-13413865D02*
X13976335Y-13556722D01*
X13976335Y-13556722D02*
X14100144Y-13556722D01*
X14157287Y-13423389D02*
X14281096Y-13423389D01*
X14281096Y-13423389D02*
X14214430Y-13499579D01*
X14214430Y-13499579D02*
X14243001Y-13499579D01*
X14243001Y-13499579D02*
X14262049Y-13509103D01*
X14262049Y-13509103D02*
X14271573Y-13518627D01*
X14271573Y-13518627D02*
X14281096Y-13537675D01*
X14281096Y-13537675D02*
X14281096Y-13585294D01*
X14281096Y-13585294D02*
X14271573Y-13604341D01*
X14271573Y-13604341D02*
X14262049Y-13613865D01*
X14262049Y-13613865D02*
X14243001Y-13623389D01*
X14243001Y-13623389D02*
X14185858Y-13623389D01*
X14185858Y-13623389D02*
X14166811Y-13613865D01*
X14166811Y-13613865D02*
X14157287Y-13604341D01*
X14519192Y-13623389D02*
X14519192Y-13423389D01*
X14604906Y-13623389D02*
X14604906Y-13518627D01*
X14604906Y-13518627D02*
X14595382Y-13499579D01*
X14595382Y-13499579D02*
X14576335Y-13490055D01*
X14576335Y-13490055D02*
X14547763Y-13490055D01*
X14547763Y-13490055D02*
X14528716Y-13499579D01*
X14528716Y-13499579D02*
X14519192Y-13509103D01*
X14728716Y-13623389D02*
X14709668Y-13613865D01*
X14709668Y-13613865D02*
X14700144Y-13604341D01*
X14700144Y-13604341D02*
X14690620Y-13585294D01*
X14690620Y-13585294D02*
X14690620Y-13528151D01*
X14690620Y-13528151D02*
X14700144Y-13509103D01*
X14700144Y-13509103D02*
X14709668Y-13499579D01*
X14709668Y-13499579D02*
X14728716Y-13490055D01*
X14728716Y-13490055D02*
X14757287Y-13490055D01*
X14757287Y-13490055D02*
X14776335Y-13499579D01*
X14776335Y-13499579D02*
X14785858Y-13509103D01*
X14785858Y-13509103D02*
X14795382Y-13528151D01*
X14795382Y-13528151D02*
X14795382Y-13585294D01*
X14795382Y-13585294D02*
X14785858Y-13604341D01*
X14785858Y-13604341D02*
X14776335Y-13613865D01*
X14776335Y-13613865D02*
X14757287Y-13623389D01*
X14757287Y-13623389D02*
X14728716Y-13623389D01*
X14909668Y-13623389D02*
X14890620Y-13613865D01*
X14890620Y-13613865D02*
X14881097Y-13594817D01*
X14881097Y-13594817D02*
X14881097Y-13423389D01*
X15062049Y-13613865D02*
X15043001Y-13623389D01*
X15043001Y-13623389D02*
X15004906Y-13623389D01*
X15004906Y-13623389D02*
X14985858Y-13613865D01*
X14985858Y-13613865D02*
X14976335Y-13594817D01*
X14976335Y-13594817D02*
X14976335Y-13518627D01*
X14976335Y-13518627D02*
X14985858Y-13499579D01*
X14985858Y-13499579D02*
X15004906Y-13490055D01*
X15004906Y-13490055D02*
X15043001Y-13490055D01*
X15043001Y-13490055D02*
X15062049Y-13499579D01*
X15062049Y-13499579D02*
X15071573Y-13518627D01*
X15071573Y-13518627D02*
X15071573Y-13537675D01*
X15071573Y-13537675D02*
X14976335Y-13556722D01*
X15147763Y-13613865D02*
X15166811Y-13623389D01*
X15166811Y-13623389D02*
X15204906Y-13623389D01*
X15204906Y-13623389D02*
X15223954Y-13613865D01*
X15223954Y-13613865D02*
X15233478Y-13594817D01*
X15233478Y-13594817D02*
X15233478Y-13585294D01*
X15233478Y-13585294D02*
X15223954Y-13566246D01*
X15223954Y-13566246D02*
X15204906Y-13556722D01*
X15204906Y-13556722D02*
X15176335Y-13556722D01*
X15176335Y-13556722D02*
X15157287Y-13547198D01*
X15157287Y-13547198D02*
X15147763Y-13528151D01*
X15147763Y-13528151D02*
X15147763Y-13518627D01*
X15147763Y-13518627D02*
X15157287Y-13499579D01*
X15157287Y-13499579D02*
X15176335Y-13490055D01*
X15176335Y-13490055D02*
X15204906Y-13490055D01*
X15204906Y-13490055D02*
X15223954Y-13499579D01*
X15300144Y-13699579D02*
X15309668Y-13690055D01*
X15309668Y-13690055D02*
X15328716Y-13661484D01*
X15328716Y-13661484D02*
X15338239Y-13642436D01*
X15338239Y-13642436D02*
X15347763Y-13613865D01*
X15347763Y-13613865D02*
X15357287Y-13566246D01*
X15357287Y-13566246D02*
X15357287Y-13528151D01*
X15357287Y-13528151D02*
X15347763Y-13480532D01*
X15347763Y-13480532D02*
X15338239Y-13451960D01*
X15338239Y-13451960D02*
X15328716Y-13432913D01*
X15328716Y-13432913D02*
X15309668Y-13404341D01*
X15309668Y-13404341D02*
X15300144Y-13394817D01*
D13*
X10318496Y-13834796D02*
X10318496Y-13757014D01*
X10240714Y-13757014D01*
X10240714Y-13834796D01*
X10318496Y-13834796D01*
D11*
X10700144Y-13887389D02*
X10585858Y-13887389D01*
X10643001Y-13887389D02*
X10643001Y-13687389D01*
X10643001Y-13687389D02*
X10623953Y-13715960D01*
X10623953Y-13715960D02*
X10604906Y-13735008D01*
X10604906Y-13735008D02*
X10585858Y-13744532D01*
X10785858Y-13868341D02*
X10795382Y-13877865D01*
X10795382Y-13877865D02*
X10785858Y-13887389D01*
X10785858Y-13887389D02*
X10776334Y-13877865D01*
X10776334Y-13877865D02*
X10785858Y-13868341D01*
X10785858Y-13868341D02*
X10785858Y-13887389D01*
X10985858Y-13887389D02*
X10871572Y-13887389D01*
X10928715Y-13887389D02*
X10928715Y-13687389D01*
X10928715Y-13687389D02*
X10909668Y-13715960D01*
X10909668Y-13715960D02*
X10890620Y-13735008D01*
X10890620Y-13735008D02*
X10871572Y-13744532D01*
X11109668Y-13687389D02*
X11128715Y-13687389D01*
X11128715Y-13687389D02*
X11147763Y-13696913D01*
X11147763Y-13696913D02*
X11157287Y-13706436D01*
X11157287Y-13706436D02*
X11166811Y-13725484D01*
X11166811Y-13725484D02*
X11176334Y-13763579D01*
X11176334Y-13763579D02*
X11176334Y-13811198D01*
X11176334Y-13811198D02*
X11166811Y-13849294D01*
X11166811Y-13849294D02*
X11157287Y-13868341D01*
X11157287Y-13868341D02*
X11147763Y-13877865D01*
X11147763Y-13877865D02*
X11128715Y-13887389D01*
X11128715Y-13887389D02*
X11109668Y-13887389D01*
X11109668Y-13887389D02*
X11090620Y-13877865D01*
X11090620Y-13877865D02*
X11081096Y-13868341D01*
X11081096Y-13868341D02*
X11071572Y-13849294D01*
X11071572Y-13849294D02*
X11062049Y-13811198D01*
X11062049Y-13811198D02*
X11062049Y-13763579D01*
X11062049Y-13763579D02*
X11071572Y-13725484D01*
X11071572Y-13725484D02*
X11081096Y-13706436D01*
X11081096Y-13706436D02*
X11090620Y-13696913D01*
X11090620Y-13696913D02*
X11109668Y-13687389D01*
X11300144Y-13687389D02*
X11319191Y-13687389D01*
X11319191Y-13687389D02*
X11338239Y-13696913D01*
X11338239Y-13696913D02*
X11347763Y-13706436D01*
X11347763Y-13706436D02*
X11357287Y-13725484D01*
X11357287Y-13725484D02*
X11366810Y-13763579D01*
X11366810Y-13763579D02*
X11366810Y-13811198D01*
X11366810Y-13811198D02*
X11357287Y-13849294D01*
X11357287Y-13849294D02*
X11347763Y-13868341D01*
X11347763Y-13868341D02*
X11338239Y-13877865D01*
X11338239Y-13877865D02*
X11319191Y-13887389D01*
X11319191Y-13887389D02*
X11300144Y-13887389D01*
X11300144Y-13887389D02*
X11281096Y-13877865D01*
X11281096Y-13877865D02*
X11271572Y-13868341D01*
X11271572Y-13868341D02*
X11262049Y-13849294D01*
X11262049Y-13849294D02*
X11252525Y-13811198D01*
X11252525Y-13811198D02*
X11252525Y-13763579D01*
X11252525Y-13763579D02*
X11262049Y-13725484D01*
X11262049Y-13725484D02*
X11271572Y-13706436D01*
X11271572Y-13706436D02*
X11281096Y-13696913D01*
X11281096Y-13696913D02*
X11300144Y-13687389D01*
X11452525Y-13887389D02*
X11452525Y-13754055D01*
X11452525Y-13773103D02*
X11462049Y-13763579D01*
X11462049Y-13763579D02*
X11481096Y-13754055D01*
X11481096Y-13754055D02*
X11509668Y-13754055D01*
X11509668Y-13754055D02*
X11528715Y-13763579D01*
X11528715Y-13763579D02*
X11538239Y-13782627D01*
X11538239Y-13782627D02*
X11538239Y-13887389D01*
X11538239Y-13782627D02*
X11547763Y-13763579D01*
X11547763Y-13763579D02*
X11566810Y-13754055D01*
X11566810Y-13754055D02*
X11595382Y-13754055D01*
X11595382Y-13754055D02*
X11614430Y-13763579D01*
X11614430Y-13763579D02*
X11623953Y-13782627D01*
X11623953Y-13782627D02*
X11623953Y-13887389D01*
X11719191Y-13887389D02*
X11719191Y-13754055D01*
X11719191Y-13773103D02*
X11728715Y-13763579D01*
X11728715Y-13763579D02*
X11747763Y-13754055D01*
X11747763Y-13754055D02*
X11776334Y-13754055D01*
X11776334Y-13754055D02*
X11795382Y-13763579D01*
X11795382Y-13763579D02*
X11804906Y-13782627D01*
X11804906Y-13782627D02*
X11804906Y-13887389D01*
X11804906Y-13782627D02*
X11814430Y-13763579D01*
X11814430Y-13763579D02*
X11833477Y-13754055D01*
X11833477Y-13754055D02*
X11862049Y-13754055D01*
X11862049Y-13754055D02*
X11881096Y-13763579D01*
X11881096Y-13763579D02*
X11890620Y-13782627D01*
X11890620Y-13782627D02*
X11890620Y-13887389D01*
X12281096Y-13677865D02*
X12109668Y-13935008D01*
X12538239Y-13687389D02*
X12557287Y-13687389D01*
X12557287Y-13687389D02*
X12576334Y-13696913D01*
X12576334Y-13696913D02*
X12585858Y-13706436D01*
X12585858Y-13706436D02*
X12595382Y-13725484D01*
X12595382Y-13725484D02*
X12604906Y-13763579D01*
X12604906Y-13763579D02*
X12604906Y-13811198D01*
X12604906Y-13811198D02*
X12595382Y-13849294D01*
X12595382Y-13849294D02*
X12585858Y-13868341D01*
X12585858Y-13868341D02*
X12576334Y-13877865D01*
X12576334Y-13877865D02*
X12557287Y-13887389D01*
X12557287Y-13887389D02*
X12538239Y-13887389D01*
X12538239Y-13887389D02*
X12519192Y-13877865D01*
X12519192Y-13877865D02*
X12509668Y-13868341D01*
X12509668Y-13868341D02*
X12500144Y-13849294D01*
X12500144Y-13849294D02*
X12490620Y-13811198D01*
X12490620Y-13811198D02*
X12490620Y-13763579D01*
X12490620Y-13763579D02*
X12500144Y-13725484D01*
X12500144Y-13725484D02*
X12509668Y-13706436D01*
X12509668Y-13706436D02*
X12519192Y-13696913D01*
X12519192Y-13696913D02*
X12538239Y-13687389D01*
X12690620Y-13868341D02*
X12700144Y-13877865D01*
X12700144Y-13877865D02*
X12690620Y-13887389D01*
X12690620Y-13887389D02*
X12681096Y-13877865D01*
X12681096Y-13877865D02*
X12690620Y-13868341D01*
X12690620Y-13868341D02*
X12690620Y-13887389D01*
X12823953Y-13687389D02*
X12843001Y-13687389D01*
X12843001Y-13687389D02*
X12862049Y-13696913D01*
X12862049Y-13696913D02*
X12871573Y-13706436D01*
X12871573Y-13706436D02*
X12881096Y-13725484D01*
X12881096Y-13725484D02*
X12890620Y-13763579D01*
X12890620Y-13763579D02*
X12890620Y-13811198D01*
X12890620Y-13811198D02*
X12881096Y-13849294D01*
X12881096Y-13849294D02*
X12871573Y-13868341D01*
X12871573Y-13868341D02*
X12862049Y-13877865D01*
X12862049Y-13877865D02*
X12843001Y-13887389D01*
X12843001Y-13887389D02*
X12823953Y-13887389D01*
X12823953Y-13887389D02*
X12804906Y-13877865D01*
X12804906Y-13877865D02*
X12795382Y-13868341D01*
X12795382Y-13868341D02*
X12785858Y-13849294D01*
X12785858Y-13849294D02*
X12776334Y-13811198D01*
X12776334Y-13811198D02*
X12776334Y-13763579D01*
X12776334Y-13763579D02*
X12785858Y-13725484D01*
X12785858Y-13725484D02*
X12795382Y-13706436D01*
X12795382Y-13706436D02*
X12804906Y-13696913D01*
X12804906Y-13696913D02*
X12823953Y-13687389D01*
X13062049Y-13754055D02*
X13062049Y-13887389D01*
X13014430Y-13677865D02*
X12966811Y-13820722D01*
X12966811Y-13820722D02*
X13090620Y-13820722D01*
X13147763Y-13687389D02*
X13271573Y-13687389D01*
X13271573Y-13687389D02*
X13204906Y-13763579D01*
X13204906Y-13763579D02*
X13233477Y-13763579D01*
X13233477Y-13763579D02*
X13252525Y-13773103D01*
X13252525Y-13773103D02*
X13262049Y-13782627D01*
X13262049Y-13782627D02*
X13271573Y-13801675D01*
X13271573Y-13801675D02*
X13271573Y-13849294D01*
X13271573Y-13849294D02*
X13262049Y-13868341D01*
X13262049Y-13868341D02*
X13252525Y-13877865D01*
X13252525Y-13877865D02*
X13233477Y-13887389D01*
X13233477Y-13887389D02*
X13176334Y-13887389D01*
X13176334Y-13887389D02*
X13157287Y-13877865D01*
X13157287Y-13877865D02*
X13147763Y-13868341D01*
X13338239Y-13687389D02*
X13462049Y-13687389D01*
X13462049Y-13687389D02*
X13395382Y-13763579D01*
X13395382Y-13763579D02*
X13423954Y-13763579D01*
X13423954Y-13763579D02*
X13443001Y-13773103D01*
X13443001Y-13773103D02*
X13452525Y-13782627D01*
X13452525Y-13782627D02*
X13462049Y-13801675D01*
X13462049Y-13801675D02*
X13462049Y-13849294D01*
X13462049Y-13849294D02*
X13452525Y-13868341D01*
X13452525Y-13868341D02*
X13443001Y-13877865D01*
X13443001Y-13877865D02*
X13423954Y-13887389D01*
X13423954Y-13887389D02*
X13366811Y-13887389D01*
X13366811Y-13887389D02*
X13347763Y-13877865D01*
X13347763Y-13877865D02*
X13338239Y-13868341D01*
X13538239Y-13687389D02*
X13538239Y-13725484D01*
X13614430Y-13687389D02*
X13614430Y-13725484D01*
X13909668Y-13963579D02*
X13900144Y-13954055D01*
X13900144Y-13954055D02*
X13881096Y-13925484D01*
X13881096Y-13925484D02*
X13871573Y-13906436D01*
X13871573Y-13906436D02*
X13862049Y-13877865D01*
X13862049Y-13877865D02*
X13852525Y-13830246D01*
X13852525Y-13830246D02*
X13852525Y-13792151D01*
X13852525Y-13792151D02*
X13862049Y-13744532D01*
X13862049Y-13744532D02*
X13871573Y-13715960D01*
X13871573Y-13715960D02*
X13881096Y-13696913D01*
X13881096Y-13696913D02*
X13900144Y-13668341D01*
X13900144Y-13668341D02*
X13909668Y-13658817D01*
X13966811Y-13687389D02*
X14100144Y-13687389D01*
X14100144Y-13687389D02*
X14014430Y-13887389D01*
X14262049Y-13687389D02*
X14223954Y-13687389D01*
X14223954Y-13687389D02*
X14204906Y-13696913D01*
X14204906Y-13696913D02*
X14195382Y-13706436D01*
X14195382Y-13706436D02*
X14176335Y-13735008D01*
X14176335Y-13735008D02*
X14166811Y-13773103D01*
X14166811Y-13773103D02*
X14166811Y-13849294D01*
X14166811Y-13849294D02*
X14176335Y-13868341D01*
X14176335Y-13868341D02*
X14185858Y-13877865D01*
X14185858Y-13877865D02*
X14204906Y-13887389D01*
X14204906Y-13887389D02*
X14243001Y-13887389D01*
X14243001Y-13887389D02*
X14262049Y-13877865D01*
X14262049Y-13877865D02*
X14271573Y-13868341D01*
X14271573Y-13868341D02*
X14281096Y-13849294D01*
X14281096Y-13849294D02*
X14281096Y-13801675D01*
X14281096Y-13801675D02*
X14271573Y-13782627D01*
X14271573Y-13782627D02*
X14262049Y-13773103D01*
X14262049Y-13773103D02*
X14243001Y-13763579D01*
X14243001Y-13763579D02*
X14204906Y-13763579D01*
X14204906Y-13763579D02*
X14185858Y-13773103D01*
X14185858Y-13773103D02*
X14176335Y-13782627D01*
X14176335Y-13782627D02*
X14166811Y-13801675D01*
X14519192Y-13887389D02*
X14519192Y-13687389D01*
X14604906Y-13887389D02*
X14604906Y-13782627D01*
X14604906Y-13782627D02*
X14595382Y-13763579D01*
X14595382Y-13763579D02*
X14576335Y-13754055D01*
X14576335Y-13754055D02*
X14547763Y-13754055D01*
X14547763Y-13754055D02*
X14528716Y-13763579D01*
X14528716Y-13763579D02*
X14519192Y-13773103D01*
X14728716Y-13887389D02*
X14709668Y-13877865D01*
X14709668Y-13877865D02*
X14700144Y-13868341D01*
X14700144Y-13868341D02*
X14690620Y-13849294D01*
X14690620Y-13849294D02*
X14690620Y-13792151D01*
X14690620Y-13792151D02*
X14700144Y-13773103D01*
X14700144Y-13773103D02*
X14709668Y-13763579D01*
X14709668Y-13763579D02*
X14728716Y-13754055D01*
X14728716Y-13754055D02*
X14757287Y-13754055D01*
X14757287Y-13754055D02*
X14776335Y-13763579D01*
X14776335Y-13763579D02*
X14785858Y-13773103D01*
X14785858Y-13773103D02*
X14795382Y-13792151D01*
X14795382Y-13792151D02*
X14795382Y-13849294D01*
X14795382Y-13849294D02*
X14785858Y-13868341D01*
X14785858Y-13868341D02*
X14776335Y-13877865D01*
X14776335Y-13877865D02*
X14757287Y-13887389D01*
X14757287Y-13887389D02*
X14728716Y-13887389D01*
X14909668Y-13887389D02*
X14890620Y-13877865D01*
X14890620Y-13877865D02*
X14881097Y-13858817D01*
X14881097Y-13858817D02*
X14881097Y-13687389D01*
X15062049Y-13877865D02*
X15043001Y-13887389D01*
X15043001Y-13887389D02*
X15004906Y-13887389D01*
X15004906Y-13887389D02*
X14985858Y-13877865D01*
X14985858Y-13877865D02*
X14976335Y-13858817D01*
X14976335Y-13858817D02*
X14976335Y-13782627D01*
X14976335Y-13782627D02*
X14985858Y-13763579D01*
X14985858Y-13763579D02*
X15004906Y-13754055D01*
X15004906Y-13754055D02*
X15043001Y-13754055D01*
X15043001Y-13754055D02*
X15062049Y-13763579D01*
X15062049Y-13763579D02*
X15071573Y-13782627D01*
X15071573Y-13782627D02*
X15071573Y-13801675D01*
X15071573Y-13801675D02*
X14976335Y-13820722D01*
X15147763Y-13877865D02*
X15166811Y-13887389D01*
X15166811Y-13887389D02*
X15204906Y-13887389D01*
X15204906Y-13887389D02*
X15223954Y-13877865D01*
X15223954Y-13877865D02*
X15233478Y-13858817D01*
X15233478Y-13858817D02*
X15233478Y-13849294D01*
X15233478Y-13849294D02*
X15223954Y-13830246D01*
X15223954Y-13830246D02*
X15204906Y-13820722D01*
X15204906Y-13820722D02*
X15176335Y-13820722D01*
X15176335Y-13820722D02*
X15157287Y-13811198D01*
X15157287Y-13811198D02*
X15147763Y-13792151D01*
X15147763Y-13792151D02*
X15147763Y-13782627D01*
X15147763Y-13782627D02*
X15157287Y-13763579D01*
X15157287Y-13763579D02*
X15176335Y-13754055D01*
X15176335Y-13754055D02*
X15204906Y-13754055D01*
X15204906Y-13754055D02*
X15223954Y-13763579D01*
X15300144Y-13963579D02*
X15309668Y-13954055D01*
X15309668Y-13954055D02*
X15328716Y-13925484D01*
X15328716Y-13925484D02*
X15338239Y-13906436D01*
X15338239Y-13906436D02*
X15347763Y-13877865D01*
X15347763Y-13877865D02*
X15357287Y-13830246D01*
X15357287Y-13830246D02*
X15357287Y-13792151D01*
X15357287Y-13792151D02*
X15347763Y-13744532D01*
X15347763Y-13744532D02*
X15338239Y-13715960D01*
X15338239Y-13715960D02*
X15328716Y-13696913D01*
X15328716Y-13696913D02*
X15309668Y-13668341D01*
X15309668Y-13668341D02*
X15300144Y-13658817D01*
M02*
