G04 #@! TF.GenerationSoftware,KiCad,Pcbnew,7.0.9*
G04 #@! TF.CreationDate,2024-01-22T22:06:56+01:00*
G04 #@! TF.ProjectId,programmer,70726f67-7261-46d6-9d65-722e6b696361,A0*
G04 #@! TF.SameCoordinates,Original*
G04 #@! TF.FileFunction,Legend,Top*
G04 #@! TF.FilePolarity,Positive*
%FSLAX46Y46*%
G04 Gerber Fmt 4.6, Leading zero omitted, Abs format (unit mm)*
G04 Created by KiCad (PCBNEW 7.0.9) date 2024-01-22 22:06:56*
%MOMM*%
%LPD*%
G01*
G04 APERTURE LIST*
%ADD10C,0.150000*%
%ADD11C,0.254000*%
%ADD12C,0.120000*%
%ADD13C,0.100000*%
%ADD14R,1.600000X1.600000*%
%ADD15O,1.600000X1.600000*%
%ADD16C,1.600000*%
%ADD17C,2.000000*%
%ADD18C,2.060000*%
%ADD19C,2.470000*%
%ADD20R,1.650000X1.650000*%
%ADD21C,1.650000*%
%ADD22O,1.800000X1.800000*%
%ADD23O,1.500000X1.500000*%
%ADD24O,1.700000X1.700000*%
%ADD25R,1.700000X3.500000*%
%ADD26R,1.700000X1.700000*%
%ADD27R,3.500000X1.700000*%
G04 APERTURE END LIST*
D10*
X104031051Y-52596051D02*
X106571051Y-52596051D01*
X106571051Y-54501051D01*
X104031051Y-54501051D01*
X104031051Y-52596051D01*
G36*
X104031051Y-52596051D02*
G01*
X106571051Y-52596051D01*
X106571051Y-54501051D01*
X104031051Y-54501051D01*
X104031051Y-52596051D01*
G37*
X182484031Y-119435870D02*
X182150698Y-118959679D01*
X181912603Y-119435870D02*
X181912603Y-118435870D01*
X181912603Y-118435870D02*
X182293555Y-118435870D01*
X182293555Y-118435870D02*
X182388793Y-118483489D01*
X182388793Y-118483489D02*
X182436412Y-118531108D01*
X182436412Y-118531108D02*
X182484031Y-118626346D01*
X182484031Y-118626346D02*
X182484031Y-118769203D01*
X182484031Y-118769203D02*
X182436412Y-118864441D01*
X182436412Y-118864441D02*
X182388793Y-118912060D01*
X182388793Y-118912060D02*
X182293555Y-118959679D01*
X182293555Y-118959679D02*
X181912603Y-118959679D01*
X183341174Y-119435870D02*
X183341174Y-118912060D01*
X183341174Y-118912060D02*
X183293555Y-118816822D01*
X183293555Y-118816822D02*
X183198317Y-118769203D01*
X183198317Y-118769203D02*
X183007841Y-118769203D01*
X183007841Y-118769203D02*
X182912603Y-118816822D01*
X183341174Y-119388251D02*
X183245936Y-119435870D01*
X183245936Y-119435870D02*
X183007841Y-119435870D01*
X183007841Y-119435870D02*
X182912603Y-119388251D01*
X182912603Y-119388251D02*
X182864984Y-119293012D01*
X182864984Y-119293012D02*
X182864984Y-119197774D01*
X182864984Y-119197774D02*
X182912603Y-119102536D01*
X182912603Y-119102536D02*
X183007841Y-119054917D01*
X183007841Y-119054917D02*
X183245936Y-119054917D01*
X183245936Y-119054917D02*
X183341174Y-119007298D01*
X183722127Y-118769203D02*
X183960222Y-119435870D01*
X183960222Y-119435870D02*
X184198317Y-118769203D01*
X184960222Y-119388251D02*
X184864984Y-119435870D01*
X184864984Y-119435870D02*
X184674508Y-119435870D01*
X184674508Y-119435870D02*
X184579270Y-119388251D01*
X184579270Y-119388251D02*
X184531651Y-119293012D01*
X184531651Y-119293012D02*
X184531651Y-118912060D01*
X184531651Y-118912060D02*
X184579270Y-118816822D01*
X184579270Y-118816822D02*
X184674508Y-118769203D01*
X184674508Y-118769203D02*
X184864984Y-118769203D01*
X184864984Y-118769203D02*
X184960222Y-118816822D01*
X184960222Y-118816822D02*
X185007841Y-118912060D01*
X185007841Y-118912060D02*
X185007841Y-119007298D01*
X185007841Y-119007298D02*
X184531651Y-119102536D01*
X185436413Y-118769203D02*
X185436413Y-119435870D01*
X185436413Y-118864441D02*
X185484032Y-118816822D01*
X185484032Y-118816822D02*
X185579270Y-118769203D01*
X185579270Y-118769203D02*
X185722127Y-118769203D01*
X185722127Y-118769203D02*
X185817365Y-118816822D01*
X185817365Y-118816822D02*
X185864984Y-118912060D01*
X185864984Y-118912060D02*
X185864984Y-119435870D01*
X187674508Y-119435870D02*
X187341175Y-118959679D01*
X187103080Y-119435870D02*
X187103080Y-118435870D01*
X187103080Y-118435870D02*
X187484032Y-118435870D01*
X187484032Y-118435870D02*
X187579270Y-118483489D01*
X187579270Y-118483489D02*
X187626889Y-118531108D01*
X187626889Y-118531108D02*
X187674508Y-118626346D01*
X187674508Y-118626346D02*
X187674508Y-118769203D01*
X187674508Y-118769203D02*
X187626889Y-118864441D01*
X187626889Y-118864441D02*
X187579270Y-118912060D01*
X187579270Y-118912060D02*
X187484032Y-118959679D01*
X187484032Y-118959679D02*
X187103080Y-118959679D01*
X188293556Y-118435870D02*
X188484032Y-118435870D01*
X188484032Y-118435870D02*
X188579270Y-118483489D01*
X188579270Y-118483489D02*
X188674508Y-118578727D01*
X188674508Y-118578727D02*
X188722127Y-118769203D01*
X188722127Y-118769203D02*
X188722127Y-119102536D01*
X188722127Y-119102536D02*
X188674508Y-119293012D01*
X188674508Y-119293012D02*
X188579270Y-119388251D01*
X188579270Y-119388251D02*
X188484032Y-119435870D01*
X188484032Y-119435870D02*
X188293556Y-119435870D01*
X188293556Y-119435870D02*
X188198318Y-119388251D01*
X188198318Y-119388251D02*
X188103080Y-119293012D01*
X188103080Y-119293012D02*
X188055461Y-119102536D01*
X188055461Y-119102536D02*
X188055461Y-118769203D01*
X188055461Y-118769203D02*
X188103080Y-118578727D01*
X188103080Y-118578727D02*
X188198318Y-118483489D01*
X188198318Y-118483489D02*
X188293556Y-118435870D01*
X189150699Y-119435870D02*
X189150699Y-118435870D01*
X189150699Y-118435870D02*
X189484032Y-119150155D01*
X189484032Y-119150155D02*
X189817365Y-118435870D01*
X189817365Y-118435870D02*
X189817365Y-119435870D01*
X191055461Y-118769203D02*
X191055461Y-119769203D01*
X191055461Y-118816822D02*
X191150699Y-118769203D01*
X191150699Y-118769203D02*
X191341175Y-118769203D01*
X191341175Y-118769203D02*
X191436413Y-118816822D01*
X191436413Y-118816822D02*
X191484032Y-118864441D01*
X191484032Y-118864441D02*
X191531651Y-118959679D01*
X191531651Y-118959679D02*
X191531651Y-119245393D01*
X191531651Y-119245393D02*
X191484032Y-119340631D01*
X191484032Y-119340631D02*
X191436413Y-119388251D01*
X191436413Y-119388251D02*
X191341175Y-119435870D01*
X191341175Y-119435870D02*
X191150699Y-119435870D01*
X191150699Y-119435870D02*
X191055461Y-119388251D01*
X191960223Y-119435870D02*
X191960223Y-118769203D01*
X191960223Y-118959679D02*
X192007842Y-118864441D01*
X192007842Y-118864441D02*
X192055461Y-118816822D01*
X192055461Y-118816822D02*
X192150699Y-118769203D01*
X192150699Y-118769203D02*
X192245937Y-118769203D01*
X192722128Y-119435870D02*
X192626890Y-119388251D01*
X192626890Y-119388251D02*
X192579271Y-119340631D01*
X192579271Y-119340631D02*
X192531652Y-119245393D01*
X192531652Y-119245393D02*
X192531652Y-118959679D01*
X192531652Y-118959679D02*
X192579271Y-118864441D01*
X192579271Y-118864441D02*
X192626890Y-118816822D01*
X192626890Y-118816822D02*
X192722128Y-118769203D01*
X192722128Y-118769203D02*
X192864985Y-118769203D01*
X192864985Y-118769203D02*
X192960223Y-118816822D01*
X192960223Y-118816822D02*
X193007842Y-118864441D01*
X193007842Y-118864441D02*
X193055461Y-118959679D01*
X193055461Y-118959679D02*
X193055461Y-119245393D01*
X193055461Y-119245393D02*
X193007842Y-119340631D01*
X193007842Y-119340631D02*
X192960223Y-119388251D01*
X192960223Y-119388251D02*
X192864985Y-119435870D01*
X192864985Y-119435870D02*
X192722128Y-119435870D01*
X193912604Y-118769203D02*
X193912604Y-119578727D01*
X193912604Y-119578727D02*
X193864985Y-119673965D01*
X193864985Y-119673965D02*
X193817366Y-119721584D01*
X193817366Y-119721584D02*
X193722128Y-119769203D01*
X193722128Y-119769203D02*
X193579271Y-119769203D01*
X193579271Y-119769203D02*
X193484033Y-119721584D01*
X193912604Y-119388251D02*
X193817366Y-119435870D01*
X193817366Y-119435870D02*
X193626890Y-119435870D01*
X193626890Y-119435870D02*
X193531652Y-119388251D01*
X193531652Y-119388251D02*
X193484033Y-119340631D01*
X193484033Y-119340631D02*
X193436414Y-119245393D01*
X193436414Y-119245393D02*
X193436414Y-118959679D01*
X193436414Y-118959679D02*
X193484033Y-118864441D01*
X193484033Y-118864441D02*
X193531652Y-118816822D01*
X193531652Y-118816822D02*
X193626890Y-118769203D01*
X193626890Y-118769203D02*
X193817366Y-118769203D01*
X193817366Y-118769203D02*
X193912604Y-118816822D01*
X194388795Y-119435870D02*
X194388795Y-118769203D01*
X194388795Y-118959679D02*
X194436414Y-118864441D01*
X194436414Y-118864441D02*
X194484033Y-118816822D01*
X194484033Y-118816822D02*
X194579271Y-118769203D01*
X194579271Y-118769203D02*
X194674509Y-118769203D01*
X195436414Y-119435870D02*
X195436414Y-118912060D01*
X195436414Y-118912060D02*
X195388795Y-118816822D01*
X195388795Y-118816822D02*
X195293557Y-118769203D01*
X195293557Y-118769203D02*
X195103081Y-118769203D01*
X195103081Y-118769203D02*
X195007843Y-118816822D01*
X195436414Y-119388251D02*
X195341176Y-119435870D01*
X195341176Y-119435870D02*
X195103081Y-119435870D01*
X195103081Y-119435870D02*
X195007843Y-119388251D01*
X195007843Y-119388251D02*
X194960224Y-119293012D01*
X194960224Y-119293012D02*
X194960224Y-119197774D01*
X194960224Y-119197774D02*
X195007843Y-119102536D01*
X195007843Y-119102536D02*
X195103081Y-119054917D01*
X195103081Y-119054917D02*
X195341176Y-119054917D01*
X195341176Y-119054917D02*
X195436414Y-119007298D01*
X195912605Y-119435870D02*
X195912605Y-118769203D01*
X195912605Y-118864441D02*
X195960224Y-118816822D01*
X195960224Y-118816822D02*
X196055462Y-118769203D01*
X196055462Y-118769203D02*
X196198319Y-118769203D01*
X196198319Y-118769203D02*
X196293557Y-118816822D01*
X196293557Y-118816822D02*
X196341176Y-118912060D01*
X196341176Y-118912060D02*
X196341176Y-119435870D01*
X196341176Y-118912060D02*
X196388795Y-118816822D01*
X196388795Y-118816822D02*
X196484033Y-118769203D01*
X196484033Y-118769203D02*
X196626890Y-118769203D01*
X196626890Y-118769203D02*
X196722129Y-118816822D01*
X196722129Y-118816822D02*
X196769748Y-118912060D01*
X196769748Y-118912060D02*
X196769748Y-119435870D01*
X197245938Y-119435870D02*
X197245938Y-118769203D01*
X197245938Y-118864441D02*
X197293557Y-118816822D01*
X197293557Y-118816822D02*
X197388795Y-118769203D01*
X197388795Y-118769203D02*
X197531652Y-118769203D01*
X197531652Y-118769203D02*
X197626890Y-118816822D01*
X197626890Y-118816822D02*
X197674509Y-118912060D01*
X197674509Y-118912060D02*
X197674509Y-119435870D01*
X197674509Y-118912060D02*
X197722128Y-118816822D01*
X197722128Y-118816822D02*
X197817366Y-118769203D01*
X197817366Y-118769203D02*
X197960223Y-118769203D01*
X197960223Y-118769203D02*
X198055462Y-118816822D01*
X198055462Y-118816822D02*
X198103081Y-118912060D01*
X198103081Y-118912060D02*
X198103081Y-119435870D01*
X198960223Y-119388251D02*
X198864985Y-119435870D01*
X198864985Y-119435870D02*
X198674509Y-119435870D01*
X198674509Y-119435870D02*
X198579271Y-119388251D01*
X198579271Y-119388251D02*
X198531652Y-119293012D01*
X198531652Y-119293012D02*
X198531652Y-118912060D01*
X198531652Y-118912060D02*
X198579271Y-118816822D01*
X198579271Y-118816822D02*
X198674509Y-118769203D01*
X198674509Y-118769203D02*
X198864985Y-118769203D01*
X198864985Y-118769203D02*
X198960223Y-118816822D01*
X198960223Y-118816822D02*
X199007842Y-118912060D01*
X199007842Y-118912060D02*
X199007842Y-119007298D01*
X199007842Y-119007298D02*
X198531652Y-119102536D01*
X199436414Y-119435870D02*
X199436414Y-118769203D01*
X199436414Y-118959679D02*
X199484033Y-118864441D01*
X199484033Y-118864441D02*
X199531652Y-118816822D01*
X199531652Y-118816822D02*
X199626890Y-118769203D01*
X199626890Y-118769203D02*
X199722128Y-118769203D01*
X191436414Y-121045870D02*
X191103081Y-120569679D01*
X190864986Y-121045870D02*
X190864986Y-120045870D01*
X190864986Y-120045870D02*
X191245938Y-120045870D01*
X191245938Y-120045870D02*
X191341176Y-120093489D01*
X191341176Y-120093489D02*
X191388795Y-120141108D01*
X191388795Y-120141108D02*
X191436414Y-120236346D01*
X191436414Y-120236346D02*
X191436414Y-120379203D01*
X191436414Y-120379203D02*
X191388795Y-120474441D01*
X191388795Y-120474441D02*
X191341176Y-120522060D01*
X191341176Y-120522060D02*
X191245938Y-120569679D01*
X191245938Y-120569679D02*
X190864986Y-120569679D01*
X192245938Y-120998251D02*
X192150700Y-121045870D01*
X192150700Y-121045870D02*
X191960224Y-121045870D01*
X191960224Y-121045870D02*
X191864986Y-120998251D01*
X191864986Y-120998251D02*
X191817367Y-120903012D01*
X191817367Y-120903012D02*
X191817367Y-120522060D01*
X191817367Y-120522060D02*
X191864986Y-120426822D01*
X191864986Y-120426822D02*
X191960224Y-120379203D01*
X191960224Y-120379203D02*
X192150700Y-120379203D01*
X192150700Y-120379203D02*
X192245938Y-120426822D01*
X192245938Y-120426822D02*
X192293557Y-120522060D01*
X192293557Y-120522060D02*
X192293557Y-120617298D01*
X192293557Y-120617298D02*
X191817367Y-120712536D01*
X192626891Y-120379203D02*
X192864986Y-121045870D01*
X192864986Y-121045870D02*
X193103081Y-120379203D01*
X193484034Y-120950631D02*
X193531653Y-120998251D01*
X193531653Y-120998251D02*
X193484034Y-121045870D01*
X193484034Y-121045870D02*
X193436415Y-120998251D01*
X193436415Y-120998251D02*
X193484034Y-120950631D01*
X193484034Y-120950631D02*
X193484034Y-121045870D01*
X193912605Y-120760155D02*
X194388795Y-120760155D01*
X193817367Y-121045870D02*
X194150700Y-120045870D01*
X194150700Y-120045870D02*
X194484033Y-121045870D01*
X195007843Y-120045870D02*
X195103081Y-120045870D01*
X195103081Y-120045870D02*
X195198319Y-120093489D01*
X195198319Y-120093489D02*
X195245938Y-120141108D01*
X195245938Y-120141108D02*
X195293557Y-120236346D01*
X195293557Y-120236346D02*
X195341176Y-120426822D01*
X195341176Y-120426822D02*
X195341176Y-120664917D01*
X195341176Y-120664917D02*
X195293557Y-120855393D01*
X195293557Y-120855393D02*
X195245938Y-120950631D01*
X195245938Y-120950631D02*
X195198319Y-120998251D01*
X195198319Y-120998251D02*
X195103081Y-121045870D01*
X195103081Y-121045870D02*
X195007843Y-121045870D01*
X195007843Y-121045870D02*
X194912605Y-120998251D01*
X194912605Y-120998251D02*
X194864986Y-120950631D01*
X194864986Y-120950631D02*
X194817367Y-120855393D01*
X194817367Y-120855393D02*
X194769748Y-120664917D01*
X194769748Y-120664917D02*
X194769748Y-120426822D01*
X194769748Y-120426822D02*
X194817367Y-120236346D01*
X194817367Y-120236346D02*
X194864986Y-120141108D01*
X194864986Y-120141108D02*
X194912605Y-120093489D01*
X194912605Y-120093489D02*
X195007843Y-120045870D01*
X195769748Y-120950631D02*
X195817367Y-120998251D01*
X195817367Y-120998251D02*
X195769748Y-121045870D01*
X195769748Y-121045870D02*
X195722129Y-120998251D01*
X195722129Y-120998251D02*
X195769748Y-120950631D01*
X195769748Y-120950631D02*
X195769748Y-121045870D01*
X196198319Y-120141108D02*
X196245938Y-120093489D01*
X196245938Y-120093489D02*
X196341176Y-120045870D01*
X196341176Y-120045870D02*
X196579271Y-120045870D01*
X196579271Y-120045870D02*
X196674509Y-120093489D01*
X196674509Y-120093489D02*
X196722128Y-120141108D01*
X196722128Y-120141108D02*
X196769747Y-120236346D01*
X196769747Y-120236346D02*
X196769747Y-120331584D01*
X196769747Y-120331584D02*
X196722128Y-120474441D01*
X196722128Y-120474441D02*
X196150700Y-121045870D01*
X196150700Y-121045870D02*
X196769747Y-121045870D01*
X197388795Y-120045870D02*
X197484033Y-120045870D01*
X197484033Y-120045870D02*
X197579271Y-120093489D01*
X197579271Y-120093489D02*
X197626890Y-120141108D01*
X197626890Y-120141108D02*
X197674509Y-120236346D01*
X197674509Y-120236346D02*
X197722128Y-120426822D01*
X197722128Y-120426822D02*
X197722128Y-120664917D01*
X197722128Y-120664917D02*
X197674509Y-120855393D01*
X197674509Y-120855393D02*
X197626890Y-120950631D01*
X197626890Y-120950631D02*
X197579271Y-120998251D01*
X197579271Y-120998251D02*
X197484033Y-121045870D01*
X197484033Y-121045870D02*
X197388795Y-121045870D01*
X197388795Y-121045870D02*
X197293557Y-120998251D01*
X197293557Y-120998251D02*
X197245938Y-120950631D01*
X197245938Y-120950631D02*
X197198319Y-120855393D01*
X197198319Y-120855393D02*
X197150700Y-120664917D01*
X197150700Y-120664917D02*
X197150700Y-120426822D01*
X197150700Y-120426822D02*
X197198319Y-120236346D01*
X197198319Y-120236346D02*
X197245938Y-120141108D01*
X197245938Y-120141108D02*
X197293557Y-120093489D01*
X197293557Y-120093489D02*
X197388795Y-120045870D01*
X198103081Y-120141108D02*
X198150700Y-120093489D01*
X198150700Y-120093489D02*
X198245938Y-120045870D01*
X198245938Y-120045870D02*
X198484033Y-120045870D01*
X198484033Y-120045870D02*
X198579271Y-120093489D01*
X198579271Y-120093489D02*
X198626890Y-120141108D01*
X198626890Y-120141108D02*
X198674509Y-120236346D01*
X198674509Y-120236346D02*
X198674509Y-120331584D01*
X198674509Y-120331584D02*
X198626890Y-120474441D01*
X198626890Y-120474441D02*
X198055462Y-121045870D01*
X198055462Y-121045870D02*
X198674509Y-121045870D01*
X199531652Y-120379203D02*
X199531652Y-121045870D01*
X199293557Y-119998251D02*
X199055462Y-120712536D01*
X199055462Y-120712536D02*
X199674509Y-120712536D01*
X159329523Y-94434819D02*
X158996190Y-93958628D01*
X158758095Y-94434819D02*
X158758095Y-93434819D01*
X158758095Y-93434819D02*
X159139047Y-93434819D01*
X159139047Y-93434819D02*
X159234285Y-93482438D01*
X159234285Y-93482438D02*
X159281904Y-93530057D01*
X159281904Y-93530057D02*
X159329523Y-93625295D01*
X159329523Y-93625295D02*
X159329523Y-93768152D01*
X159329523Y-93768152D02*
X159281904Y-93863390D01*
X159281904Y-93863390D02*
X159234285Y-93911009D01*
X159234285Y-93911009D02*
X159139047Y-93958628D01*
X159139047Y-93958628D02*
X158758095Y-93958628D01*
X159758095Y-94434819D02*
X159758095Y-93434819D01*
X159758095Y-93434819D02*
X160329523Y-94434819D01*
X160329523Y-94434819D02*
X160329523Y-93434819D01*
X161329523Y-94434819D02*
X160758095Y-94434819D01*
X161043809Y-94434819D02*
X161043809Y-93434819D01*
X161043809Y-93434819D02*
X160948571Y-93577676D01*
X160948571Y-93577676D02*
X160853333Y-93672914D01*
X160853333Y-93672914D02*
X160758095Y-93720533D01*
X137985870Y-77233955D02*
X138795393Y-77233955D01*
X138795393Y-77233955D02*
X138890631Y-77186336D01*
X138890631Y-77186336D02*
X138938251Y-77138717D01*
X138938251Y-77138717D02*
X138985870Y-77043479D01*
X138985870Y-77043479D02*
X138985870Y-76853003D01*
X138985870Y-76853003D02*
X138938251Y-76757765D01*
X138938251Y-76757765D02*
X138890631Y-76710146D01*
X138890631Y-76710146D02*
X138795393Y-76662527D01*
X138795393Y-76662527D02*
X137985870Y-76662527D01*
X137985870Y-75710146D02*
X137985870Y-76186336D01*
X137985870Y-76186336D02*
X138462060Y-76233955D01*
X138462060Y-76233955D02*
X138414441Y-76186336D01*
X138414441Y-76186336D02*
X138366822Y-76091098D01*
X138366822Y-76091098D02*
X138366822Y-75853003D01*
X138366822Y-75853003D02*
X138414441Y-75757765D01*
X138414441Y-75757765D02*
X138462060Y-75710146D01*
X138462060Y-75710146D02*
X138557298Y-75662527D01*
X138557298Y-75662527D02*
X138795393Y-75662527D01*
X138795393Y-75662527D02*
X138890631Y-75710146D01*
X138890631Y-75710146D02*
X138938251Y-75757765D01*
X138938251Y-75757765D02*
X138985870Y-75853003D01*
X138985870Y-75853003D02*
X138985870Y-76091098D01*
X138985870Y-76091098D02*
X138938251Y-76186336D01*
X138938251Y-76186336D02*
X138890631Y-76233955D01*
X165505870Y-79591098D02*
X165505870Y-78924432D01*
X165505870Y-78924432D02*
X166505870Y-79353003D01*
X165839203Y-78114908D02*
X166505870Y-78114908D01*
X165458251Y-78353003D02*
X166172536Y-78591098D01*
X166172536Y-78591098D02*
X166172536Y-77972051D01*
X166505870Y-77114908D02*
X166505870Y-77591098D01*
X166505870Y-77591098D02*
X165505870Y-77591098D01*
X166458251Y-76829193D02*
X166505870Y-76686336D01*
X166505870Y-76686336D02*
X166505870Y-76448241D01*
X166505870Y-76448241D02*
X166458251Y-76353003D01*
X166458251Y-76353003D02*
X166410631Y-76305384D01*
X166410631Y-76305384D02*
X166315393Y-76257765D01*
X166315393Y-76257765D02*
X166220155Y-76257765D01*
X166220155Y-76257765D02*
X166124917Y-76305384D01*
X166124917Y-76305384D02*
X166077298Y-76353003D01*
X166077298Y-76353003D02*
X166029679Y-76448241D01*
X166029679Y-76448241D02*
X165982060Y-76638717D01*
X165982060Y-76638717D02*
X165934441Y-76733955D01*
X165934441Y-76733955D02*
X165886822Y-76781574D01*
X165886822Y-76781574D02*
X165791584Y-76829193D01*
X165791584Y-76829193D02*
X165696346Y-76829193D01*
X165696346Y-76829193D02*
X165601108Y-76781574D01*
X165601108Y-76781574D02*
X165553489Y-76733955D01*
X165553489Y-76733955D02*
X165505870Y-76638717D01*
X165505870Y-76638717D02*
X165505870Y-76400622D01*
X165505870Y-76400622D02*
X165553489Y-76257765D01*
X165601108Y-75876812D02*
X165553489Y-75829193D01*
X165553489Y-75829193D02*
X165505870Y-75733955D01*
X165505870Y-75733955D02*
X165505870Y-75495860D01*
X165505870Y-75495860D02*
X165553489Y-75400622D01*
X165553489Y-75400622D02*
X165601108Y-75353003D01*
X165601108Y-75353003D02*
X165696346Y-75305384D01*
X165696346Y-75305384D02*
X165791584Y-75305384D01*
X165791584Y-75305384D02*
X165934441Y-75353003D01*
X165934441Y-75353003D02*
X166505870Y-75924431D01*
X166505870Y-75924431D02*
X166505870Y-75305384D01*
X165505870Y-74972050D02*
X165505870Y-74305384D01*
X165505870Y-74305384D02*
X166505870Y-74733955D01*
X165505870Y-74019669D02*
X165505870Y-73400622D01*
X165505870Y-73400622D02*
X165886822Y-73733955D01*
X165886822Y-73733955D02*
X165886822Y-73591098D01*
X165886822Y-73591098D02*
X165934441Y-73495860D01*
X165934441Y-73495860D02*
X165982060Y-73448241D01*
X165982060Y-73448241D02*
X166077298Y-73400622D01*
X166077298Y-73400622D02*
X166315393Y-73400622D01*
X166315393Y-73400622D02*
X166410631Y-73448241D01*
X166410631Y-73448241D02*
X166458251Y-73495860D01*
X166458251Y-73495860D02*
X166505870Y-73591098D01*
X166505870Y-73591098D02*
X166505870Y-73876812D01*
X166505870Y-73876812D02*
X166458251Y-73972050D01*
X166458251Y-73972050D02*
X166410631Y-74019669D01*
X104965870Y-77233955D02*
X105775393Y-77233955D01*
X105775393Y-77233955D02*
X105870631Y-77186336D01*
X105870631Y-77186336D02*
X105918251Y-77138717D01*
X105918251Y-77138717D02*
X105965870Y-77043479D01*
X105965870Y-77043479D02*
X105965870Y-76853003D01*
X105965870Y-76853003D02*
X105918251Y-76757765D01*
X105918251Y-76757765D02*
X105870631Y-76710146D01*
X105870631Y-76710146D02*
X105775393Y-76662527D01*
X105775393Y-76662527D02*
X104965870Y-76662527D01*
X105061108Y-76233955D02*
X105013489Y-76186336D01*
X105013489Y-76186336D02*
X104965870Y-76091098D01*
X104965870Y-76091098D02*
X104965870Y-75853003D01*
X104965870Y-75853003D02*
X105013489Y-75757765D01*
X105013489Y-75757765D02*
X105061108Y-75710146D01*
X105061108Y-75710146D02*
X105156346Y-75662527D01*
X105156346Y-75662527D02*
X105251584Y-75662527D01*
X105251584Y-75662527D02*
X105394441Y-75710146D01*
X105394441Y-75710146D02*
X105965870Y-76281574D01*
X105965870Y-76281574D02*
X105965870Y-75662527D01*
X132485870Y-79591098D02*
X132485870Y-78924432D01*
X132485870Y-78924432D02*
X133485870Y-79353003D01*
X132819203Y-78114908D02*
X133485870Y-78114908D01*
X132438251Y-78353003D02*
X133152536Y-78591098D01*
X133152536Y-78591098D02*
X133152536Y-77972051D01*
X133485870Y-77114908D02*
X133485870Y-77591098D01*
X133485870Y-77591098D02*
X132485870Y-77591098D01*
X133438251Y-76829193D02*
X133485870Y-76686336D01*
X133485870Y-76686336D02*
X133485870Y-76448241D01*
X133485870Y-76448241D02*
X133438251Y-76353003D01*
X133438251Y-76353003D02*
X133390631Y-76305384D01*
X133390631Y-76305384D02*
X133295393Y-76257765D01*
X133295393Y-76257765D02*
X133200155Y-76257765D01*
X133200155Y-76257765D02*
X133104917Y-76305384D01*
X133104917Y-76305384D02*
X133057298Y-76353003D01*
X133057298Y-76353003D02*
X133009679Y-76448241D01*
X133009679Y-76448241D02*
X132962060Y-76638717D01*
X132962060Y-76638717D02*
X132914441Y-76733955D01*
X132914441Y-76733955D02*
X132866822Y-76781574D01*
X132866822Y-76781574D02*
X132771584Y-76829193D01*
X132771584Y-76829193D02*
X132676346Y-76829193D01*
X132676346Y-76829193D02*
X132581108Y-76781574D01*
X132581108Y-76781574D02*
X132533489Y-76733955D01*
X132533489Y-76733955D02*
X132485870Y-76638717D01*
X132485870Y-76638717D02*
X132485870Y-76400622D01*
X132485870Y-76400622D02*
X132533489Y-76257765D01*
X132581108Y-75876812D02*
X132533489Y-75829193D01*
X132533489Y-75829193D02*
X132485870Y-75733955D01*
X132485870Y-75733955D02*
X132485870Y-75495860D01*
X132485870Y-75495860D02*
X132533489Y-75400622D01*
X132533489Y-75400622D02*
X132581108Y-75353003D01*
X132581108Y-75353003D02*
X132676346Y-75305384D01*
X132676346Y-75305384D02*
X132771584Y-75305384D01*
X132771584Y-75305384D02*
X132914441Y-75353003D01*
X132914441Y-75353003D02*
X133485870Y-75924431D01*
X133485870Y-75924431D02*
X133485870Y-75305384D01*
X132485870Y-74972050D02*
X132485870Y-74305384D01*
X132485870Y-74305384D02*
X133485870Y-74733955D01*
X132485870Y-74019669D02*
X132485870Y-73400622D01*
X132485870Y-73400622D02*
X132866822Y-73733955D01*
X132866822Y-73733955D02*
X132866822Y-73591098D01*
X132866822Y-73591098D02*
X132914441Y-73495860D01*
X132914441Y-73495860D02*
X132962060Y-73448241D01*
X132962060Y-73448241D02*
X133057298Y-73400622D01*
X133057298Y-73400622D02*
X133295393Y-73400622D01*
X133295393Y-73400622D02*
X133390631Y-73448241D01*
X133390631Y-73448241D02*
X133438251Y-73495860D01*
X133438251Y-73495860D02*
X133485870Y-73591098D01*
X133485870Y-73591098D02*
X133485870Y-73876812D01*
X133485870Y-73876812D02*
X133438251Y-73972050D01*
X133438251Y-73972050D02*
X133390631Y-74019669D01*
X106422631Y-83623717D02*
X106470251Y-83671336D01*
X106470251Y-83671336D02*
X106517870Y-83814193D01*
X106517870Y-83814193D02*
X106517870Y-83909431D01*
X106517870Y-83909431D02*
X106470251Y-84052288D01*
X106470251Y-84052288D02*
X106375012Y-84147526D01*
X106375012Y-84147526D02*
X106279774Y-84195145D01*
X106279774Y-84195145D02*
X106089298Y-84242764D01*
X106089298Y-84242764D02*
X105946441Y-84242764D01*
X105946441Y-84242764D02*
X105755965Y-84195145D01*
X105755965Y-84195145D02*
X105660727Y-84147526D01*
X105660727Y-84147526D02*
X105565489Y-84052288D01*
X105565489Y-84052288D02*
X105517870Y-83909431D01*
X105517870Y-83909431D02*
X105517870Y-83814193D01*
X105517870Y-83814193D02*
X105565489Y-83671336D01*
X105565489Y-83671336D02*
X105613108Y-83623717D01*
X106517870Y-82671336D02*
X106517870Y-83242764D01*
X106517870Y-82957050D02*
X105517870Y-82957050D01*
X105517870Y-82957050D02*
X105660727Y-83052288D01*
X105660727Y-83052288D02*
X105755965Y-83147526D01*
X105755965Y-83147526D02*
X105803584Y-83242764D01*
X139442631Y-83623717D02*
X139490251Y-83671336D01*
X139490251Y-83671336D02*
X139537870Y-83814193D01*
X139537870Y-83814193D02*
X139537870Y-83909431D01*
X139537870Y-83909431D02*
X139490251Y-84052288D01*
X139490251Y-84052288D02*
X139395012Y-84147526D01*
X139395012Y-84147526D02*
X139299774Y-84195145D01*
X139299774Y-84195145D02*
X139109298Y-84242764D01*
X139109298Y-84242764D02*
X138966441Y-84242764D01*
X138966441Y-84242764D02*
X138775965Y-84195145D01*
X138775965Y-84195145D02*
X138680727Y-84147526D01*
X138680727Y-84147526D02*
X138585489Y-84052288D01*
X138585489Y-84052288D02*
X138537870Y-83909431D01*
X138537870Y-83909431D02*
X138537870Y-83814193D01*
X138537870Y-83814193D02*
X138585489Y-83671336D01*
X138585489Y-83671336D02*
X138633108Y-83623717D01*
X138633108Y-83242764D02*
X138585489Y-83195145D01*
X138585489Y-83195145D02*
X138537870Y-83099907D01*
X138537870Y-83099907D02*
X138537870Y-82861812D01*
X138537870Y-82861812D02*
X138585489Y-82766574D01*
X138585489Y-82766574D02*
X138633108Y-82718955D01*
X138633108Y-82718955D02*
X138728346Y-82671336D01*
X138728346Y-82671336D02*
X138823584Y-82671336D01*
X138823584Y-82671336D02*
X138966441Y-82718955D01*
X138966441Y-82718955D02*
X139537870Y-83290383D01*
X139537870Y-83290383D02*
X139537870Y-82671336D01*
X193738667Y-113310200D02*
X193881524Y-113357819D01*
X193881524Y-113357819D02*
X194119619Y-113357819D01*
X194119619Y-113357819D02*
X194214857Y-113310200D01*
X194214857Y-113310200D02*
X194262476Y-113262580D01*
X194262476Y-113262580D02*
X194310095Y-113167342D01*
X194310095Y-113167342D02*
X194310095Y-113072104D01*
X194310095Y-113072104D02*
X194262476Y-112976866D01*
X194262476Y-112976866D02*
X194214857Y-112929247D01*
X194214857Y-112929247D02*
X194119619Y-112881628D01*
X194119619Y-112881628D02*
X193929143Y-112834009D01*
X193929143Y-112834009D02*
X193833905Y-112786390D01*
X193833905Y-112786390D02*
X193786286Y-112738771D01*
X193786286Y-112738771D02*
X193738667Y-112643533D01*
X193738667Y-112643533D02*
X193738667Y-112548295D01*
X193738667Y-112548295D02*
X193786286Y-112453057D01*
X193786286Y-112453057D02*
X193833905Y-112405438D01*
X193833905Y-112405438D02*
X193929143Y-112357819D01*
X193929143Y-112357819D02*
X194167238Y-112357819D01*
X194167238Y-112357819D02*
X194310095Y-112405438D01*
X194643429Y-112357819D02*
X194881524Y-113357819D01*
X194881524Y-113357819D02*
X195072000Y-112643533D01*
X195072000Y-112643533D02*
X195262476Y-113357819D01*
X195262476Y-113357819D02*
X195500572Y-112357819D01*
X196405333Y-113357819D02*
X195833905Y-113357819D01*
X196119619Y-113357819D02*
X196119619Y-112357819D01*
X196119619Y-112357819D02*
X196024381Y-112500676D01*
X196024381Y-112500676D02*
X195929143Y-112595914D01*
X195929143Y-112595914D02*
X195833905Y-112643533D01*
X171005870Y-77233955D02*
X171815393Y-77233955D01*
X171815393Y-77233955D02*
X171910631Y-77186336D01*
X171910631Y-77186336D02*
X171958251Y-77138717D01*
X171958251Y-77138717D02*
X172005870Y-77043479D01*
X172005870Y-77043479D02*
X172005870Y-76853003D01*
X172005870Y-76853003D02*
X171958251Y-76757765D01*
X171958251Y-76757765D02*
X171910631Y-76710146D01*
X171910631Y-76710146D02*
X171815393Y-76662527D01*
X171815393Y-76662527D02*
X171005870Y-76662527D01*
X171005870Y-75757765D02*
X171005870Y-75948241D01*
X171005870Y-75948241D02*
X171053489Y-76043479D01*
X171053489Y-76043479D02*
X171101108Y-76091098D01*
X171101108Y-76091098D02*
X171243965Y-76186336D01*
X171243965Y-76186336D02*
X171434441Y-76233955D01*
X171434441Y-76233955D02*
X171815393Y-76233955D01*
X171815393Y-76233955D02*
X171910631Y-76186336D01*
X171910631Y-76186336D02*
X171958251Y-76138717D01*
X171958251Y-76138717D02*
X172005870Y-76043479D01*
X172005870Y-76043479D02*
X172005870Y-75853003D01*
X172005870Y-75853003D02*
X171958251Y-75757765D01*
X171958251Y-75757765D02*
X171910631Y-75710146D01*
X171910631Y-75710146D02*
X171815393Y-75662527D01*
X171815393Y-75662527D02*
X171577298Y-75662527D01*
X171577298Y-75662527D02*
X171482060Y-75710146D01*
X171482060Y-75710146D02*
X171434441Y-75757765D01*
X171434441Y-75757765D02*
X171386822Y-75853003D01*
X171386822Y-75853003D02*
X171386822Y-76043479D01*
X171386822Y-76043479D02*
X171434441Y-76138717D01*
X171434441Y-76138717D02*
X171482060Y-76186336D01*
X171482060Y-76186336D02*
X171577298Y-76233955D01*
X198525870Y-79591098D02*
X198525870Y-78924432D01*
X198525870Y-78924432D02*
X199525870Y-79353003D01*
X198859203Y-78114908D02*
X199525870Y-78114908D01*
X198478251Y-78353003D02*
X199192536Y-78591098D01*
X199192536Y-78591098D02*
X199192536Y-77972051D01*
X199525870Y-77114908D02*
X199525870Y-77591098D01*
X199525870Y-77591098D02*
X198525870Y-77591098D01*
X199478251Y-76829193D02*
X199525870Y-76686336D01*
X199525870Y-76686336D02*
X199525870Y-76448241D01*
X199525870Y-76448241D02*
X199478251Y-76353003D01*
X199478251Y-76353003D02*
X199430631Y-76305384D01*
X199430631Y-76305384D02*
X199335393Y-76257765D01*
X199335393Y-76257765D02*
X199240155Y-76257765D01*
X199240155Y-76257765D02*
X199144917Y-76305384D01*
X199144917Y-76305384D02*
X199097298Y-76353003D01*
X199097298Y-76353003D02*
X199049679Y-76448241D01*
X199049679Y-76448241D02*
X199002060Y-76638717D01*
X199002060Y-76638717D02*
X198954441Y-76733955D01*
X198954441Y-76733955D02*
X198906822Y-76781574D01*
X198906822Y-76781574D02*
X198811584Y-76829193D01*
X198811584Y-76829193D02*
X198716346Y-76829193D01*
X198716346Y-76829193D02*
X198621108Y-76781574D01*
X198621108Y-76781574D02*
X198573489Y-76733955D01*
X198573489Y-76733955D02*
X198525870Y-76638717D01*
X198525870Y-76638717D02*
X198525870Y-76400622D01*
X198525870Y-76400622D02*
X198573489Y-76257765D01*
X198621108Y-75876812D02*
X198573489Y-75829193D01*
X198573489Y-75829193D02*
X198525870Y-75733955D01*
X198525870Y-75733955D02*
X198525870Y-75495860D01*
X198525870Y-75495860D02*
X198573489Y-75400622D01*
X198573489Y-75400622D02*
X198621108Y-75353003D01*
X198621108Y-75353003D02*
X198716346Y-75305384D01*
X198716346Y-75305384D02*
X198811584Y-75305384D01*
X198811584Y-75305384D02*
X198954441Y-75353003D01*
X198954441Y-75353003D02*
X199525870Y-75924431D01*
X199525870Y-75924431D02*
X199525870Y-75305384D01*
X198525870Y-74972050D02*
X198525870Y-74305384D01*
X198525870Y-74305384D02*
X199525870Y-74733955D01*
X198525870Y-74019669D02*
X198525870Y-73400622D01*
X198525870Y-73400622D02*
X198906822Y-73733955D01*
X198906822Y-73733955D02*
X198906822Y-73591098D01*
X198906822Y-73591098D02*
X198954441Y-73495860D01*
X198954441Y-73495860D02*
X199002060Y-73448241D01*
X199002060Y-73448241D02*
X199097298Y-73400622D01*
X199097298Y-73400622D02*
X199335393Y-73400622D01*
X199335393Y-73400622D02*
X199430631Y-73448241D01*
X199430631Y-73448241D02*
X199478251Y-73495860D01*
X199478251Y-73495860D02*
X199525870Y-73591098D01*
X199525870Y-73591098D02*
X199525870Y-73876812D01*
X199525870Y-73876812D02*
X199478251Y-73972050D01*
X199478251Y-73972050D02*
X199430631Y-74019669D01*
X172462631Y-83750717D02*
X172510251Y-83798336D01*
X172510251Y-83798336D02*
X172557870Y-83941193D01*
X172557870Y-83941193D02*
X172557870Y-84036431D01*
X172557870Y-84036431D02*
X172510251Y-84179288D01*
X172510251Y-84179288D02*
X172415012Y-84274526D01*
X172415012Y-84274526D02*
X172319774Y-84322145D01*
X172319774Y-84322145D02*
X172129298Y-84369764D01*
X172129298Y-84369764D02*
X171986441Y-84369764D01*
X171986441Y-84369764D02*
X171795965Y-84322145D01*
X171795965Y-84322145D02*
X171700727Y-84274526D01*
X171700727Y-84274526D02*
X171605489Y-84179288D01*
X171605489Y-84179288D02*
X171557870Y-84036431D01*
X171557870Y-84036431D02*
X171557870Y-83941193D01*
X171557870Y-83941193D02*
X171605489Y-83798336D01*
X171605489Y-83798336D02*
X171653108Y-83750717D01*
X171557870Y-83417383D02*
X171557870Y-82798336D01*
X171557870Y-82798336D02*
X171938822Y-83131669D01*
X171938822Y-83131669D02*
X171938822Y-82988812D01*
X171938822Y-82988812D02*
X171986441Y-82893574D01*
X171986441Y-82893574D02*
X172034060Y-82845955D01*
X172034060Y-82845955D02*
X172129298Y-82798336D01*
X172129298Y-82798336D02*
X172367393Y-82798336D01*
X172367393Y-82798336D02*
X172462631Y-82845955D01*
X172462631Y-82845955D02*
X172510251Y-82893574D01*
X172510251Y-82893574D02*
X172557870Y-82988812D01*
X172557870Y-82988812D02*
X172557870Y-83274526D01*
X172557870Y-83274526D02*
X172510251Y-83369764D01*
X172510251Y-83369764D02*
X172462631Y-83417383D01*
D11*
X104986667Y-50358318D02*
X104986667Y-51265461D01*
X104986667Y-51265461D02*
X104926190Y-51446889D01*
X104926190Y-51446889D02*
X104805238Y-51567842D01*
X104805238Y-51567842D02*
X104623809Y-51628318D01*
X104623809Y-51628318D02*
X104502857Y-51628318D01*
X106256667Y-51628318D02*
X105530952Y-51628318D01*
X105893809Y-51628318D02*
X105893809Y-50358318D01*
X105893809Y-50358318D02*
X105772857Y-50539746D01*
X105772857Y-50539746D02*
X105651905Y-50660699D01*
X105651905Y-50660699D02*
X105530952Y-50721175D01*
D10*
X104990870Y-101617955D02*
X105800393Y-101617955D01*
X105800393Y-101617955D02*
X105895631Y-101570336D01*
X105895631Y-101570336D02*
X105943251Y-101522717D01*
X105943251Y-101522717D02*
X105990870Y-101427479D01*
X105990870Y-101427479D02*
X105990870Y-101237003D01*
X105990870Y-101237003D02*
X105943251Y-101141765D01*
X105943251Y-101141765D02*
X105895631Y-101094146D01*
X105895631Y-101094146D02*
X105800393Y-101046527D01*
X105800393Y-101046527D02*
X104990870Y-101046527D01*
X105990870Y-100046527D02*
X105990870Y-100617955D01*
X105990870Y-100332241D02*
X104990870Y-100332241D01*
X104990870Y-100332241D02*
X105133727Y-100427479D01*
X105133727Y-100427479D02*
X105228965Y-100522717D01*
X105228965Y-100522717D02*
X105276584Y-100617955D01*
X125240182Y-92942049D02*
X125213245Y-92861236D01*
X125213245Y-92861236D02*
X125132432Y-92780424D01*
X125132432Y-92780424D02*
X125024683Y-92726549D01*
X125024683Y-92726549D02*
X124916933Y-92726549D01*
X124916933Y-92726549D02*
X124836121Y-92753487D01*
X124836121Y-92753487D02*
X124701434Y-92834299D01*
X124701434Y-92834299D02*
X124620622Y-92915111D01*
X124620622Y-92915111D02*
X124539809Y-93049798D01*
X124539809Y-93049798D02*
X124512872Y-93130611D01*
X124512872Y-93130611D02*
X124512872Y-93238360D01*
X124512872Y-93238360D02*
X124566747Y-93346110D01*
X124566747Y-93346110D02*
X124620622Y-93399985D01*
X124620622Y-93399985D02*
X124728371Y-93453859D01*
X124728371Y-93453859D02*
X124782246Y-93453859D01*
X124782246Y-93453859D02*
X124970808Y-93265298D01*
X124970808Y-93265298D02*
X124863058Y-93157548D01*
X124970808Y-93750171D02*
X125536493Y-93184485D01*
X125536493Y-93184485D02*
X125751993Y-93399985D01*
X125751993Y-93399985D02*
X125778930Y-93480797D01*
X125778930Y-93480797D02*
X125778930Y-93534672D01*
X125778930Y-93534672D02*
X125751993Y-93615484D01*
X125751993Y-93615484D02*
X125671180Y-93696296D01*
X125671180Y-93696296D02*
X125590368Y-93723233D01*
X125590368Y-93723233D02*
X125536493Y-93723233D01*
X125536493Y-93723233D02*
X125455681Y-93696296D01*
X125455681Y-93696296D02*
X125240182Y-93480797D01*
X126021367Y-93777108D02*
X126075241Y-93777108D01*
X126075241Y-93777108D02*
X126156054Y-93804046D01*
X126156054Y-93804046D02*
X126290741Y-93938733D01*
X126290741Y-93938733D02*
X126317678Y-94019545D01*
X126317678Y-94019545D02*
X126317678Y-94073420D01*
X126317678Y-94073420D02*
X126290741Y-94154232D01*
X126290741Y-94154232D02*
X126236866Y-94208107D01*
X126236866Y-94208107D02*
X126129116Y-94261981D01*
X126129116Y-94261981D02*
X125482619Y-94261981D01*
X125482619Y-94261981D02*
X125832805Y-94612168D01*
X126587052Y-94235044D02*
X126964176Y-94612168D01*
X126964176Y-94612168D02*
X126156054Y-94935417D01*
X145550182Y-92942049D02*
X145523245Y-92861236D01*
X145523245Y-92861236D02*
X145442432Y-92780424D01*
X145442432Y-92780424D02*
X145334683Y-92726549D01*
X145334683Y-92726549D02*
X145226933Y-92726549D01*
X145226933Y-92726549D02*
X145146121Y-92753487D01*
X145146121Y-92753487D02*
X145011434Y-92834299D01*
X145011434Y-92834299D02*
X144930622Y-92915111D01*
X144930622Y-92915111D02*
X144849809Y-93049798D01*
X144849809Y-93049798D02*
X144822872Y-93130611D01*
X144822872Y-93130611D02*
X144822872Y-93238360D01*
X144822872Y-93238360D02*
X144876747Y-93346110D01*
X144876747Y-93346110D02*
X144930622Y-93399985D01*
X144930622Y-93399985D02*
X145038371Y-93453859D01*
X145038371Y-93453859D02*
X145092246Y-93453859D01*
X145092246Y-93453859D02*
X145280808Y-93265298D01*
X145280808Y-93265298D02*
X145173058Y-93157548D01*
X145280808Y-93750171D02*
X145846493Y-93184485D01*
X145846493Y-93184485D02*
X146061993Y-93399985D01*
X146061993Y-93399985D02*
X146088930Y-93480797D01*
X146088930Y-93480797D02*
X146088930Y-93534672D01*
X146088930Y-93534672D02*
X146061993Y-93615484D01*
X146061993Y-93615484D02*
X145981180Y-93696296D01*
X145981180Y-93696296D02*
X145900368Y-93723233D01*
X145900368Y-93723233D02*
X145846493Y-93723233D01*
X145846493Y-93723233D02*
X145765681Y-93696296D01*
X145765681Y-93696296D02*
X145550182Y-93480797D01*
X146142805Y-94612168D02*
X145819556Y-94288919D01*
X145981180Y-94450543D02*
X146546866Y-93884858D01*
X146546866Y-93884858D02*
X146412179Y-93911795D01*
X146412179Y-93911795D02*
X146304429Y-93911795D01*
X146304429Y-93911795D02*
X146223617Y-93884858D01*
X146789303Y-94612168D02*
X146762365Y-94531356D01*
X146762365Y-94531356D02*
X146762365Y-94477481D01*
X146762365Y-94477481D02*
X146789303Y-94396669D01*
X146789303Y-94396669D02*
X146816240Y-94369731D01*
X146816240Y-94369731D02*
X146897052Y-94342794D01*
X146897052Y-94342794D02*
X146950927Y-94342794D01*
X146950927Y-94342794D02*
X147031739Y-94369731D01*
X147031739Y-94369731D02*
X147139489Y-94477481D01*
X147139489Y-94477481D02*
X147166426Y-94558293D01*
X147166426Y-94558293D02*
X147166426Y-94612168D01*
X147166426Y-94612168D02*
X147139489Y-94692980D01*
X147139489Y-94692980D02*
X147112551Y-94719917D01*
X147112551Y-94719917D02*
X147031739Y-94746855D01*
X147031739Y-94746855D02*
X146977864Y-94746855D01*
X146977864Y-94746855D02*
X146897052Y-94719917D01*
X146897052Y-94719917D02*
X146789303Y-94612168D01*
X146789303Y-94612168D02*
X146708490Y-94585230D01*
X146708490Y-94585230D02*
X146654616Y-94585230D01*
X146654616Y-94585230D02*
X146573803Y-94612168D01*
X146573803Y-94612168D02*
X146466054Y-94719917D01*
X146466054Y-94719917D02*
X146439116Y-94800730D01*
X146439116Y-94800730D02*
X146439116Y-94854604D01*
X146439116Y-94854604D02*
X146466054Y-94935417D01*
X146466054Y-94935417D02*
X146573803Y-95043166D01*
X146573803Y-95043166D02*
X146654616Y-95070104D01*
X146654616Y-95070104D02*
X146708490Y-95070104D01*
X146708490Y-95070104D02*
X146789303Y-95043166D01*
X146789303Y-95043166D02*
X146897052Y-94935417D01*
X146897052Y-94935417D02*
X146923990Y-94854604D01*
X146923990Y-94854604D02*
X146923990Y-94800730D01*
X146923990Y-94800730D02*
X146897052Y-94719917D01*
X111072466Y-91474458D02*
X111422652Y-91824644D01*
X111422652Y-91824644D02*
X111018591Y-91851582D01*
X111018591Y-91851582D02*
X111099404Y-91932394D01*
X111099404Y-91932394D02*
X111126341Y-92013206D01*
X111126341Y-92013206D02*
X111126341Y-92067081D01*
X111126341Y-92067081D02*
X111099404Y-92147893D01*
X111099404Y-92147893D02*
X110964717Y-92282580D01*
X110964717Y-92282580D02*
X110883904Y-92309518D01*
X110883904Y-92309518D02*
X110830030Y-92309518D01*
X110830030Y-92309518D02*
X110749217Y-92282580D01*
X110749217Y-92282580D02*
X110587593Y-92120956D01*
X110587593Y-92120956D02*
X110560656Y-92040144D01*
X110560656Y-92040144D02*
X110560656Y-91986269D01*
X111584277Y-91986269D02*
X111207153Y-92740516D01*
X111207153Y-92740516D02*
X111961401Y-92363393D01*
X112096087Y-92498079D02*
X112446274Y-92848266D01*
X112446274Y-92848266D02*
X112042213Y-92875203D01*
X112042213Y-92875203D02*
X112123025Y-92956015D01*
X112123025Y-92956015D02*
X112149962Y-93036827D01*
X112149962Y-93036827D02*
X112149962Y-93090702D01*
X112149962Y-93090702D02*
X112123025Y-93171515D01*
X112123025Y-93171515D02*
X111988338Y-93306202D01*
X111988338Y-93306202D02*
X111907526Y-93333139D01*
X111907526Y-93333139D02*
X111853651Y-93333139D01*
X111853651Y-93333139D02*
X111772839Y-93306202D01*
X111772839Y-93306202D02*
X111611214Y-93144577D01*
X111611214Y-93144577D02*
X111584277Y-93063765D01*
X111584277Y-93063765D02*
X111584277Y-93009890D01*
X111934463Y-93575576D02*
X112365462Y-94006574D01*
X112850335Y-93791075D02*
X113038897Y-93979637D01*
X112823398Y-94356760D02*
X112554024Y-94087386D01*
X112554024Y-94087386D02*
X113119709Y-93521701D01*
X113119709Y-93521701D02*
X113389083Y-93791075D01*
X113065835Y-94599197D02*
X113631520Y-94033512D01*
X113631520Y-94033512D02*
X113389083Y-94922446D01*
X113389083Y-94922446D02*
X113954769Y-94356761D01*
X153170182Y-92942049D02*
X153143245Y-92861236D01*
X153143245Y-92861236D02*
X153062432Y-92780424D01*
X153062432Y-92780424D02*
X152954683Y-92726549D01*
X152954683Y-92726549D02*
X152846933Y-92726549D01*
X152846933Y-92726549D02*
X152766121Y-92753487D01*
X152766121Y-92753487D02*
X152631434Y-92834299D01*
X152631434Y-92834299D02*
X152550622Y-92915111D01*
X152550622Y-92915111D02*
X152469809Y-93049798D01*
X152469809Y-93049798D02*
X152442872Y-93130611D01*
X152442872Y-93130611D02*
X152442872Y-93238360D01*
X152442872Y-93238360D02*
X152496747Y-93346110D01*
X152496747Y-93346110D02*
X152550622Y-93399985D01*
X152550622Y-93399985D02*
X152658371Y-93453859D01*
X152658371Y-93453859D02*
X152712246Y-93453859D01*
X152712246Y-93453859D02*
X152900808Y-93265298D01*
X152900808Y-93265298D02*
X152793058Y-93157548D01*
X152900808Y-93750171D02*
X153466493Y-93184485D01*
X153466493Y-93184485D02*
X153681993Y-93399985D01*
X153681993Y-93399985D02*
X153708930Y-93480797D01*
X153708930Y-93480797D02*
X153708930Y-93534672D01*
X153708930Y-93534672D02*
X153681993Y-93615484D01*
X153681993Y-93615484D02*
X153601180Y-93696296D01*
X153601180Y-93696296D02*
X153520368Y-93723233D01*
X153520368Y-93723233D02*
X153466493Y-93723233D01*
X153466493Y-93723233D02*
X153385681Y-93696296D01*
X153385681Y-93696296D02*
X153170182Y-93480797D01*
X153762805Y-94612168D02*
X153439556Y-94288919D01*
X153601180Y-94450543D02*
X154166866Y-93884858D01*
X154166866Y-93884858D02*
X154032179Y-93911795D01*
X154032179Y-93911795D02*
X153924429Y-93911795D01*
X153924429Y-93911795D02*
X153843617Y-93884858D01*
X154813364Y-94531356D02*
X154705614Y-94423606D01*
X154705614Y-94423606D02*
X154624802Y-94396669D01*
X154624802Y-94396669D02*
X154570927Y-94396669D01*
X154570927Y-94396669D02*
X154436240Y-94423606D01*
X154436240Y-94423606D02*
X154301553Y-94504418D01*
X154301553Y-94504418D02*
X154086054Y-94719917D01*
X154086054Y-94719917D02*
X154059116Y-94800730D01*
X154059116Y-94800730D02*
X154059116Y-94854604D01*
X154059116Y-94854604D02*
X154086054Y-94935417D01*
X154086054Y-94935417D02*
X154193803Y-95043166D01*
X154193803Y-95043166D02*
X154274616Y-95070104D01*
X154274616Y-95070104D02*
X154328490Y-95070104D01*
X154328490Y-95070104D02*
X154409303Y-95043166D01*
X154409303Y-95043166D02*
X154543990Y-94908479D01*
X154543990Y-94908479D02*
X154570927Y-94827667D01*
X154570927Y-94827667D02*
X154570927Y-94773792D01*
X154570927Y-94773792D02*
X154543990Y-94692980D01*
X154543990Y-94692980D02*
X154436240Y-94585230D01*
X154436240Y-94585230D02*
X154355428Y-94558293D01*
X154355428Y-94558293D02*
X154301553Y-94558293D01*
X154301553Y-94558293D02*
X154220741Y-94585230D01*
X155955251Y-103047289D02*
X155993346Y-102933003D01*
X155993346Y-102933003D02*
X155993346Y-102742527D01*
X155993346Y-102742527D02*
X155955251Y-102666336D01*
X155955251Y-102666336D02*
X155917155Y-102628241D01*
X155917155Y-102628241D02*
X155840965Y-102590146D01*
X155840965Y-102590146D02*
X155764774Y-102590146D01*
X155764774Y-102590146D02*
X155688584Y-102628241D01*
X155688584Y-102628241D02*
X155650489Y-102666336D01*
X155650489Y-102666336D02*
X155612393Y-102742527D01*
X155612393Y-102742527D02*
X155574298Y-102894908D01*
X155574298Y-102894908D02*
X155536203Y-102971098D01*
X155536203Y-102971098D02*
X155498108Y-103009193D01*
X155498108Y-103009193D02*
X155421917Y-103047289D01*
X155421917Y-103047289D02*
X155345727Y-103047289D01*
X155345727Y-103047289D02*
X155269536Y-103009193D01*
X155269536Y-103009193D02*
X155231441Y-102971098D01*
X155231441Y-102971098D02*
X155193346Y-102894908D01*
X155193346Y-102894908D02*
X155193346Y-102704431D01*
X155193346Y-102704431D02*
X155231441Y-102590146D01*
X155193346Y-102323479D02*
X155993346Y-102133003D01*
X155993346Y-102133003D02*
X155421917Y-101980622D01*
X155421917Y-101980622D02*
X155993346Y-101828241D01*
X155993346Y-101828241D02*
X155193346Y-101637765D01*
X155993346Y-101333002D02*
X155193346Y-101333002D01*
X155193346Y-101333002D02*
X155193346Y-101142526D01*
X155193346Y-101142526D02*
X155231441Y-101028240D01*
X155231441Y-101028240D02*
X155307631Y-100952050D01*
X155307631Y-100952050D02*
X155383822Y-100913955D01*
X155383822Y-100913955D02*
X155536203Y-100875859D01*
X155536203Y-100875859D02*
X155650489Y-100875859D01*
X155650489Y-100875859D02*
X155802870Y-100913955D01*
X155802870Y-100913955D02*
X155879060Y-100952050D01*
X155879060Y-100952050D02*
X155955251Y-101028240D01*
X155955251Y-101028240D02*
X155993346Y-101142526D01*
X155993346Y-101142526D02*
X155993346Y-101333002D01*
X155993346Y-100533002D02*
X155193346Y-100533002D01*
X155193346Y-99999669D02*
X155193346Y-99847288D01*
X155193346Y-99847288D02*
X155231441Y-99771098D01*
X155231441Y-99771098D02*
X155307631Y-99694907D01*
X155307631Y-99694907D02*
X155460012Y-99656812D01*
X155460012Y-99656812D02*
X155726679Y-99656812D01*
X155726679Y-99656812D02*
X155879060Y-99694907D01*
X155879060Y-99694907D02*
X155955251Y-99771098D01*
X155955251Y-99771098D02*
X155993346Y-99847288D01*
X155993346Y-99847288D02*
X155993346Y-99999669D01*
X155993346Y-99999669D02*
X155955251Y-100075860D01*
X155955251Y-100075860D02*
X155879060Y-100152050D01*
X155879060Y-100152050D02*
X155726679Y-100190146D01*
X155726679Y-100190146D02*
X155460012Y-100190146D01*
X155460012Y-100190146D02*
X155307631Y-100152050D01*
X155307631Y-100152050D02*
X155231441Y-100075860D01*
X155231441Y-100075860D02*
X155193346Y-99999669D01*
X130027340Y-93790702D02*
X130108152Y-93332767D01*
X129704091Y-93467454D02*
X130269776Y-92901768D01*
X130269776Y-92901768D02*
X130485275Y-93117267D01*
X130485275Y-93117267D02*
X130512213Y-93198080D01*
X130512213Y-93198080D02*
X130512213Y-93251954D01*
X130512213Y-93251954D02*
X130485275Y-93332767D01*
X130485275Y-93332767D02*
X130404463Y-93413579D01*
X130404463Y-93413579D02*
X130323651Y-93440516D01*
X130323651Y-93440516D02*
X130269776Y-93440516D01*
X130269776Y-93440516D02*
X130188964Y-93413579D01*
X130188964Y-93413579D02*
X129973465Y-93198080D01*
X130835462Y-93467454D02*
X130377526Y-93925389D01*
X130377526Y-93925389D02*
X130350588Y-94006202D01*
X130350588Y-94006202D02*
X130350588Y-94060076D01*
X130350588Y-94060076D02*
X130377526Y-94140889D01*
X130377526Y-94140889D02*
X130485275Y-94248638D01*
X130485275Y-94248638D02*
X130566088Y-94275576D01*
X130566088Y-94275576D02*
X130619962Y-94275576D01*
X130619962Y-94275576D02*
X130700775Y-94248638D01*
X130700775Y-94248638D02*
X131158710Y-93790702D01*
X130862399Y-94625762D02*
X131428084Y-94060076D01*
X131428084Y-94060076D02*
X131185648Y-94949010D01*
X131185648Y-94949010D02*
X131751333Y-94383325D01*
X148332619Y-119038486D02*
X148305682Y-118957674D01*
X148305682Y-118957674D02*
X148224870Y-118876862D01*
X148224870Y-118876862D02*
X148117120Y-118822987D01*
X148117120Y-118822987D02*
X148009370Y-118822987D01*
X148009370Y-118822987D02*
X147928558Y-118849924D01*
X147928558Y-118849924D02*
X147793871Y-118930736D01*
X147793871Y-118930736D02*
X147713059Y-119011549D01*
X147713059Y-119011549D02*
X147632247Y-119146236D01*
X147632247Y-119146236D02*
X147605309Y-119227048D01*
X147605309Y-119227048D02*
X147605309Y-119334797D01*
X147605309Y-119334797D02*
X147659184Y-119442547D01*
X147659184Y-119442547D02*
X147713059Y-119496422D01*
X147713059Y-119496422D02*
X147820809Y-119550297D01*
X147820809Y-119550297D02*
X147874683Y-119550297D01*
X147874683Y-119550297D02*
X148063245Y-119361735D01*
X148063245Y-119361735D02*
X147955496Y-119253985D01*
X148063245Y-119846608D02*
X148628931Y-119280923D01*
X148628931Y-119280923D02*
X148386494Y-120169857D01*
X148386494Y-120169857D02*
X148952179Y-119604171D01*
X148655868Y-120439231D02*
X149221553Y-119873545D01*
X149221553Y-119873545D02*
X149356240Y-120008232D01*
X149356240Y-120008232D02*
X149410115Y-120115982D01*
X149410115Y-120115982D02*
X149410115Y-120223731D01*
X149410115Y-120223731D02*
X149383178Y-120304544D01*
X149383178Y-120304544D02*
X149302365Y-120439231D01*
X149302365Y-120439231D02*
X149221553Y-120520043D01*
X149221553Y-120520043D02*
X149086866Y-120600855D01*
X149086866Y-120600855D02*
X149006054Y-120627792D01*
X149006054Y-120627792D02*
X148898304Y-120627792D01*
X148898304Y-120627792D02*
X148790555Y-120573918D01*
X148790555Y-120573918D02*
X148655868Y-120439231D01*
X150630182Y-92942049D02*
X150603245Y-92861236D01*
X150603245Y-92861236D02*
X150522432Y-92780424D01*
X150522432Y-92780424D02*
X150414683Y-92726549D01*
X150414683Y-92726549D02*
X150306933Y-92726549D01*
X150306933Y-92726549D02*
X150226121Y-92753487D01*
X150226121Y-92753487D02*
X150091434Y-92834299D01*
X150091434Y-92834299D02*
X150010622Y-92915111D01*
X150010622Y-92915111D02*
X149929809Y-93049798D01*
X149929809Y-93049798D02*
X149902872Y-93130611D01*
X149902872Y-93130611D02*
X149902872Y-93238360D01*
X149902872Y-93238360D02*
X149956747Y-93346110D01*
X149956747Y-93346110D02*
X150010622Y-93399985D01*
X150010622Y-93399985D02*
X150118371Y-93453859D01*
X150118371Y-93453859D02*
X150172246Y-93453859D01*
X150172246Y-93453859D02*
X150360808Y-93265298D01*
X150360808Y-93265298D02*
X150253058Y-93157548D01*
X150360808Y-93750171D02*
X150926493Y-93184485D01*
X150926493Y-93184485D02*
X151141993Y-93399985D01*
X151141993Y-93399985D02*
X151168930Y-93480797D01*
X151168930Y-93480797D02*
X151168930Y-93534672D01*
X151168930Y-93534672D02*
X151141993Y-93615484D01*
X151141993Y-93615484D02*
X151061180Y-93696296D01*
X151061180Y-93696296D02*
X150980368Y-93723233D01*
X150980368Y-93723233D02*
X150926493Y-93723233D01*
X150926493Y-93723233D02*
X150845681Y-93696296D01*
X150845681Y-93696296D02*
X150630182Y-93480797D01*
X151222805Y-94612168D02*
X150899556Y-94288919D01*
X151061180Y-94450543D02*
X151626866Y-93884858D01*
X151626866Y-93884858D02*
X151492179Y-93911795D01*
X151492179Y-93911795D02*
X151384429Y-93911795D01*
X151384429Y-93911795D02*
X151303617Y-93884858D01*
X151977052Y-94235044D02*
X152354176Y-94612168D01*
X152354176Y-94612168D02*
X151546054Y-94935417D01*
X132850182Y-92942049D02*
X132823245Y-92861236D01*
X132823245Y-92861236D02*
X132742432Y-92780424D01*
X132742432Y-92780424D02*
X132634683Y-92726549D01*
X132634683Y-92726549D02*
X132526933Y-92726549D01*
X132526933Y-92726549D02*
X132446121Y-92753487D01*
X132446121Y-92753487D02*
X132311434Y-92834299D01*
X132311434Y-92834299D02*
X132230622Y-92915111D01*
X132230622Y-92915111D02*
X132149809Y-93049798D01*
X132149809Y-93049798D02*
X132122872Y-93130611D01*
X132122872Y-93130611D02*
X132122872Y-93238360D01*
X132122872Y-93238360D02*
X132176747Y-93346110D01*
X132176747Y-93346110D02*
X132230622Y-93399985D01*
X132230622Y-93399985D02*
X132338371Y-93453859D01*
X132338371Y-93453859D02*
X132392246Y-93453859D01*
X132392246Y-93453859D02*
X132580808Y-93265298D01*
X132580808Y-93265298D02*
X132473058Y-93157548D01*
X132580808Y-93750171D02*
X133146493Y-93184485D01*
X133146493Y-93184485D02*
X133361993Y-93399985D01*
X133361993Y-93399985D02*
X133388930Y-93480797D01*
X133388930Y-93480797D02*
X133388930Y-93534672D01*
X133388930Y-93534672D02*
X133361993Y-93615484D01*
X133361993Y-93615484D02*
X133281180Y-93696296D01*
X133281180Y-93696296D02*
X133200368Y-93723233D01*
X133200368Y-93723233D02*
X133146493Y-93723233D01*
X133146493Y-93723233D02*
X133065681Y-93696296D01*
X133065681Y-93696296D02*
X132850182Y-93480797D01*
X133631367Y-93777108D02*
X133685241Y-93777108D01*
X133685241Y-93777108D02*
X133766054Y-93804046D01*
X133766054Y-93804046D02*
X133900741Y-93938733D01*
X133900741Y-93938733D02*
X133927678Y-94019545D01*
X133927678Y-94019545D02*
X133927678Y-94073420D01*
X133927678Y-94073420D02*
X133900741Y-94154232D01*
X133900741Y-94154232D02*
X133846866Y-94208107D01*
X133846866Y-94208107D02*
X133739116Y-94261981D01*
X133739116Y-94261981D02*
X133092619Y-94261981D01*
X133092619Y-94261981D02*
X133442805Y-94612168D01*
X134170115Y-94315856D02*
X134223990Y-94315856D01*
X134223990Y-94315856D02*
X134304802Y-94342794D01*
X134304802Y-94342794D02*
X134439489Y-94477481D01*
X134439489Y-94477481D02*
X134466426Y-94558293D01*
X134466426Y-94558293D02*
X134466426Y-94612168D01*
X134466426Y-94612168D02*
X134439489Y-94692980D01*
X134439489Y-94692980D02*
X134385614Y-94746855D01*
X134385614Y-94746855D02*
X134277864Y-94800730D01*
X134277864Y-94800730D02*
X133631367Y-94800730D01*
X133631367Y-94800730D02*
X133981553Y-95150916D01*
X105179556Y-119065423D02*
X105152619Y-118984611D01*
X105152619Y-118984611D02*
X105071807Y-118903799D01*
X105071807Y-118903799D02*
X104964057Y-118849924D01*
X104964057Y-118849924D02*
X104856308Y-118849924D01*
X104856308Y-118849924D02*
X104775495Y-118876861D01*
X104775495Y-118876861D02*
X104640808Y-118957674D01*
X104640808Y-118957674D02*
X104559996Y-119038486D01*
X104559996Y-119038486D02*
X104479184Y-119173173D01*
X104479184Y-119173173D02*
X104452247Y-119253985D01*
X104452247Y-119253985D02*
X104452247Y-119361735D01*
X104452247Y-119361735D02*
X104506121Y-119469484D01*
X104506121Y-119469484D02*
X104559996Y-119523359D01*
X104559996Y-119523359D02*
X104667746Y-119577234D01*
X104667746Y-119577234D02*
X104721621Y-119577234D01*
X104721621Y-119577234D02*
X104910182Y-119388672D01*
X104910182Y-119388672D02*
X104802433Y-119280922D01*
X104910182Y-119873545D02*
X105475868Y-119307860D01*
X105475868Y-119307860D02*
X105691367Y-119523359D01*
X105691367Y-119523359D02*
X105718304Y-119604171D01*
X105718304Y-119604171D02*
X105718304Y-119658046D01*
X105718304Y-119658046D02*
X105691367Y-119738858D01*
X105691367Y-119738858D02*
X105610555Y-119819670D01*
X105610555Y-119819670D02*
X105529743Y-119846608D01*
X105529743Y-119846608D02*
X105475868Y-119846608D01*
X105475868Y-119846608D02*
X105395056Y-119819670D01*
X105395056Y-119819670D02*
X105179556Y-119604171D01*
X106149303Y-119981295D02*
X106203178Y-120035170D01*
X106203178Y-120035170D02*
X106230115Y-120115982D01*
X106230115Y-120115982D02*
X106230115Y-120169857D01*
X106230115Y-120169857D02*
X106203178Y-120250669D01*
X106203178Y-120250669D02*
X106122365Y-120385356D01*
X106122365Y-120385356D02*
X105987678Y-120520043D01*
X105987678Y-120520043D02*
X105852991Y-120600855D01*
X105852991Y-120600855D02*
X105772179Y-120627792D01*
X105772179Y-120627792D02*
X105718304Y-120627792D01*
X105718304Y-120627792D02*
X105637492Y-120600855D01*
X105637492Y-120600855D02*
X105583617Y-120546980D01*
X105583617Y-120546980D02*
X105556680Y-120466168D01*
X105556680Y-120466168D02*
X105556680Y-120412293D01*
X105556680Y-120412293D02*
X105583617Y-120331481D01*
X105583617Y-120331481D02*
X105664430Y-120196794D01*
X105664430Y-120196794D02*
X105799117Y-120062107D01*
X105799117Y-120062107D02*
X105933804Y-119981295D01*
X105933804Y-119981295D02*
X106014616Y-119954357D01*
X106014616Y-119954357D02*
X106068491Y-119954357D01*
X106068491Y-119954357D02*
X106149303Y-119981295D01*
X143010182Y-119196049D02*
X142983245Y-119115236D01*
X142983245Y-119115236D02*
X142902432Y-119034424D01*
X142902432Y-119034424D02*
X142794683Y-118980549D01*
X142794683Y-118980549D02*
X142686933Y-118980549D01*
X142686933Y-118980549D02*
X142606121Y-119007487D01*
X142606121Y-119007487D02*
X142471434Y-119088299D01*
X142471434Y-119088299D02*
X142390622Y-119169111D01*
X142390622Y-119169111D02*
X142309809Y-119303798D01*
X142309809Y-119303798D02*
X142282872Y-119384611D01*
X142282872Y-119384611D02*
X142282872Y-119492360D01*
X142282872Y-119492360D02*
X142336747Y-119600110D01*
X142336747Y-119600110D02*
X142390622Y-119653985D01*
X142390622Y-119653985D02*
X142498371Y-119707859D01*
X142498371Y-119707859D02*
X142552246Y-119707859D01*
X142552246Y-119707859D02*
X142740808Y-119519298D01*
X142740808Y-119519298D02*
X142633058Y-119411548D01*
X142740808Y-120004171D02*
X143306493Y-119438485D01*
X143306493Y-119438485D02*
X143521993Y-119653985D01*
X143521993Y-119653985D02*
X143548930Y-119734797D01*
X143548930Y-119734797D02*
X143548930Y-119788672D01*
X143548930Y-119788672D02*
X143521993Y-119869484D01*
X143521993Y-119869484D02*
X143441180Y-119950296D01*
X143441180Y-119950296D02*
X143360368Y-119977233D01*
X143360368Y-119977233D02*
X143306493Y-119977233D01*
X143306493Y-119977233D02*
X143225681Y-119950296D01*
X143225681Y-119950296D02*
X143010182Y-119734797D01*
X143602805Y-120866168D02*
X143279556Y-120542919D01*
X143441180Y-120704543D02*
X144006866Y-120138858D01*
X144006866Y-120138858D02*
X143872179Y-120165795D01*
X143872179Y-120165795D02*
X143764429Y-120165795D01*
X143764429Y-120165795D02*
X143683617Y-120138858D01*
X144330115Y-120569856D02*
X144383990Y-120569856D01*
X144383990Y-120569856D02*
X144464802Y-120596794D01*
X144464802Y-120596794D02*
X144599489Y-120731481D01*
X144599489Y-120731481D02*
X144626426Y-120812293D01*
X144626426Y-120812293D02*
X144626426Y-120866168D01*
X144626426Y-120866168D02*
X144599489Y-120946980D01*
X144599489Y-120946980D02*
X144545614Y-121000855D01*
X144545614Y-121000855D02*
X144437864Y-121054730D01*
X144437864Y-121054730D02*
X143791367Y-121054730D01*
X143791367Y-121054730D02*
X144141553Y-121404916D01*
X137930182Y-119050049D02*
X137903245Y-118969236D01*
X137903245Y-118969236D02*
X137822432Y-118888424D01*
X137822432Y-118888424D02*
X137714683Y-118834549D01*
X137714683Y-118834549D02*
X137606933Y-118834549D01*
X137606933Y-118834549D02*
X137526121Y-118861487D01*
X137526121Y-118861487D02*
X137391434Y-118942299D01*
X137391434Y-118942299D02*
X137310622Y-119023111D01*
X137310622Y-119023111D02*
X137229809Y-119157798D01*
X137229809Y-119157798D02*
X137202872Y-119238611D01*
X137202872Y-119238611D02*
X137202872Y-119346360D01*
X137202872Y-119346360D02*
X137256747Y-119454110D01*
X137256747Y-119454110D02*
X137310622Y-119507985D01*
X137310622Y-119507985D02*
X137418371Y-119561859D01*
X137418371Y-119561859D02*
X137472246Y-119561859D01*
X137472246Y-119561859D02*
X137660808Y-119373298D01*
X137660808Y-119373298D02*
X137553058Y-119265548D01*
X137660808Y-119858171D02*
X138226493Y-119292485D01*
X138226493Y-119292485D02*
X138441993Y-119507985D01*
X138441993Y-119507985D02*
X138468930Y-119588797D01*
X138468930Y-119588797D02*
X138468930Y-119642672D01*
X138468930Y-119642672D02*
X138441993Y-119723484D01*
X138441993Y-119723484D02*
X138361180Y-119804296D01*
X138361180Y-119804296D02*
X138280368Y-119831233D01*
X138280368Y-119831233D02*
X138226493Y-119831233D01*
X138226493Y-119831233D02*
X138145681Y-119804296D01*
X138145681Y-119804296D02*
X137930182Y-119588797D01*
X138522805Y-120720168D02*
X138199556Y-120396919D01*
X138361180Y-120558543D02*
X138926866Y-119992858D01*
X138926866Y-119992858D02*
X138792179Y-120019795D01*
X138792179Y-120019795D02*
X138684429Y-120019795D01*
X138684429Y-120019795D02*
X138603617Y-119992858D01*
X139438677Y-120504669D02*
X139492551Y-120558543D01*
X139492551Y-120558543D02*
X139519489Y-120639356D01*
X139519489Y-120639356D02*
X139519489Y-120693230D01*
X139519489Y-120693230D02*
X139492551Y-120774043D01*
X139492551Y-120774043D02*
X139411739Y-120908730D01*
X139411739Y-120908730D02*
X139277052Y-121043417D01*
X139277052Y-121043417D02*
X139142365Y-121124229D01*
X139142365Y-121124229D02*
X139061553Y-121151166D01*
X139061553Y-121151166D02*
X139007678Y-121151166D01*
X139007678Y-121151166D02*
X138926866Y-121124229D01*
X138926866Y-121124229D02*
X138872991Y-121070354D01*
X138872991Y-121070354D02*
X138846054Y-120989542D01*
X138846054Y-120989542D02*
X138846054Y-120935667D01*
X138846054Y-120935667D02*
X138872991Y-120854855D01*
X138872991Y-120854855D02*
X138953803Y-120720168D01*
X138953803Y-120720168D02*
X139088490Y-120585481D01*
X139088490Y-120585481D02*
X139223177Y-120504669D01*
X139223177Y-120504669D02*
X139303990Y-120477731D01*
X139303990Y-120477731D02*
X139357864Y-120477731D01*
X139357864Y-120477731D02*
X139438677Y-120504669D01*
X121989810Y-92995924D02*
X122259184Y-93265298D01*
X121774311Y-93103674D02*
X122528558Y-92726550D01*
X122528558Y-92726550D02*
X122151435Y-93480797D01*
X123175056Y-93426922D02*
X123148118Y-93346110D01*
X123148118Y-93346110D02*
X123067306Y-93265298D01*
X123067306Y-93265298D02*
X122959556Y-93211423D01*
X122959556Y-93211423D02*
X122851807Y-93211423D01*
X122851807Y-93211423D02*
X122770995Y-93238361D01*
X122770995Y-93238361D02*
X122636308Y-93319173D01*
X122636308Y-93319173D02*
X122555495Y-93399985D01*
X122555495Y-93399985D02*
X122474683Y-93534672D01*
X122474683Y-93534672D02*
X122447746Y-93615484D01*
X122447746Y-93615484D02*
X122447746Y-93723234D01*
X122447746Y-93723234D02*
X122501621Y-93830983D01*
X122501621Y-93830983D02*
X122555495Y-93884858D01*
X122555495Y-93884858D02*
X122663245Y-93938733D01*
X122663245Y-93938733D02*
X122717120Y-93938733D01*
X122717120Y-93938733D02*
X122905682Y-93750171D01*
X122905682Y-93750171D02*
X122797932Y-93642422D01*
X122905682Y-94235044D02*
X123471367Y-93669359D01*
X123471367Y-93669359D02*
X123228930Y-94558293D01*
X123228930Y-94558293D02*
X123794616Y-93992608D01*
X123498304Y-94827667D02*
X124063990Y-94261982D01*
X124063990Y-94261982D02*
X124198677Y-94396669D01*
X124198677Y-94396669D02*
X124252552Y-94504418D01*
X124252552Y-94504418D02*
X124252552Y-94612168D01*
X124252552Y-94612168D02*
X124225614Y-94692980D01*
X124225614Y-94692980D02*
X124144802Y-94827667D01*
X124144802Y-94827667D02*
X124063990Y-94908479D01*
X124063990Y-94908479D02*
X123929303Y-94989292D01*
X123929303Y-94989292D02*
X123848490Y-95016229D01*
X123848490Y-95016229D02*
X123740741Y-95016229D01*
X123740741Y-95016229D02*
X123632991Y-94962354D01*
X123632991Y-94962354D02*
X123498304Y-94827667D01*
X119896182Y-92942049D02*
X119869245Y-92861236D01*
X119869245Y-92861236D02*
X119788432Y-92780424D01*
X119788432Y-92780424D02*
X119680683Y-92726549D01*
X119680683Y-92726549D02*
X119572933Y-92726549D01*
X119572933Y-92726549D02*
X119492121Y-92753487D01*
X119492121Y-92753487D02*
X119357434Y-92834299D01*
X119357434Y-92834299D02*
X119276622Y-92915111D01*
X119276622Y-92915111D02*
X119195809Y-93049798D01*
X119195809Y-93049798D02*
X119168872Y-93130611D01*
X119168872Y-93130611D02*
X119168872Y-93238360D01*
X119168872Y-93238360D02*
X119222747Y-93346110D01*
X119222747Y-93346110D02*
X119276622Y-93399985D01*
X119276622Y-93399985D02*
X119384371Y-93453859D01*
X119384371Y-93453859D02*
X119438246Y-93453859D01*
X119438246Y-93453859D02*
X119626808Y-93265298D01*
X119626808Y-93265298D02*
X119519058Y-93157548D01*
X119626808Y-93750171D02*
X120192493Y-93184485D01*
X120192493Y-93184485D02*
X120407993Y-93399985D01*
X120407993Y-93399985D02*
X120434930Y-93480797D01*
X120434930Y-93480797D02*
X120434930Y-93534672D01*
X120434930Y-93534672D02*
X120407993Y-93615484D01*
X120407993Y-93615484D02*
X120327180Y-93696296D01*
X120327180Y-93696296D02*
X120246368Y-93723233D01*
X120246368Y-93723233D02*
X120192493Y-93723233D01*
X120192493Y-93723233D02*
X120111681Y-93696296D01*
X120111681Y-93696296D02*
X119896182Y-93480797D01*
X120677367Y-93777108D02*
X120731241Y-93777108D01*
X120731241Y-93777108D02*
X120812054Y-93804046D01*
X120812054Y-93804046D02*
X120946741Y-93938733D01*
X120946741Y-93938733D02*
X120973678Y-94019545D01*
X120973678Y-94019545D02*
X120973678Y-94073420D01*
X120973678Y-94073420D02*
X120946741Y-94154232D01*
X120946741Y-94154232D02*
X120892866Y-94208107D01*
X120892866Y-94208107D02*
X120785116Y-94261981D01*
X120785116Y-94261981D02*
X120138619Y-94261981D01*
X120138619Y-94261981D02*
X120488805Y-94612168D01*
X121135303Y-94612168D02*
X121108365Y-94531356D01*
X121108365Y-94531356D02*
X121108365Y-94477481D01*
X121108365Y-94477481D02*
X121135303Y-94396669D01*
X121135303Y-94396669D02*
X121162240Y-94369731D01*
X121162240Y-94369731D02*
X121243052Y-94342794D01*
X121243052Y-94342794D02*
X121296927Y-94342794D01*
X121296927Y-94342794D02*
X121377739Y-94369731D01*
X121377739Y-94369731D02*
X121485489Y-94477481D01*
X121485489Y-94477481D02*
X121512426Y-94558293D01*
X121512426Y-94558293D02*
X121512426Y-94612168D01*
X121512426Y-94612168D02*
X121485489Y-94692980D01*
X121485489Y-94692980D02*
X121458551Y-94719917D01*
X121458551Y-94719917D02*
X121377739Y-94746855D01*
X121377739Y-94746855D02*
X121323864Y-94746855D01*
X121323864Y-94746855D02*
X121243052Y-94719917D01*
X121243052Y-94719917D02*
X121135303Y-94612168D01*
X121135303Y-94612168D02*
X121054490Y-94585230D01*
X121054490Y-94585230D02*
X121000616Y-94585230D01*
X121000616Y-94585230D02*
X120919803Y-94612168D01*
X120919803Y-94612168D02*
X120812054Y-94719917D01*
X120812054Y-94719917D02*
X120785116Y-94800730D01*
X120785116Y-94800730D02*
X120785116Y-94854604D01*
X120785116Y-94854604D02*
X120812054Y-94935417D01*
X120812054Y-94935417D02*
X120919803Y-95043166D01*
X120919803Y-95043166D02*
X121000616Y-95070104D01*
X121000616Y-95070104D02*
X121054490Y-95070104D01*
X121054490Y-95070104D02*
X121135303Y-95043166D01*
X121135303Y-95043166D02*
X121243052Y-94935417D01*
X121243052Y-94935417D02*
X121269990Y-94854604D01*
X121269990Y-94854604D02*
X121269990Y-94800730D01*
X121269990Y-94800730D02*
X121243052Y-94719917D01*
X135632619Y-93438486D02*
X135605682Y-93357674D01*
X135605682Y-93357674D02*
X135524870Y-93276862D01*
X135524870Y-93276862D02*
X135417120Y-93222987D01*
X135417120Y-93222987D02*
X135309370Y-93222987D01*
X135309370Y-93222987D02*
X135228558Y-93249924D01*
X135228558Y-93249924D02*
X135093871Y-93330736D01*
X135093871Y-93330736D02*
X135013059Y-93411549D01*
X135013059Y-93411549D02*
X134932247Y-93546236D01*
X134932247Y-93546236D02*
X134905309Y-93627048D01*
X134905309Y-93627048D02*
X134905309Y-93734797D01*
X134905309Y-93734797D02*
X134959184Y-93842547D01*
X134959184Y-93842547D02*
X135013059Y-93896422D01*
X135013059Y-93896422D02*
X135120809Y-93950297D01*
X135120809Y-93950297D02*
X135174683Y-93950297D01*
X135174683Y-93950297D02*
X135363245Y-93761735D01*
X135363245Y-93761735D02*
X135255496Y-93653985D01*
X135363245Y-94246608D02*
X135928931Y-93680923D01*
X135928931Y-93680923D02*
X135686494Y-94569857D01*
X135686494Y-94569857D02*
X136252179Y-94004171D01*
X135955868Y-94839231D02*
X136521553Y-94273545D01*
X136521553Y-94273545D02*
X136656240Y-94408232D01*
X136656240Y-94408232D02*
X136710115Y-94515982D01*
X136710115Y-94515982D02*
X136710115Y-94623731D01*
X136710115Y-94623731D02*
X136683178Y-94704544D01*
X136683178Y-94704544D02*
X136602365Y-94839231D01*
X136602365Y-94839231D02*
X136521553Y-94920043D01*
X136521553Y-94920043D02*
X136386866Y-95000855D01*
X136386866Y-95000855D02*
X136306054Y-95027792D01*
X136306054Y-95027792D02*
X136198304Y-95027792D01*
X136198304Y-95027792D02*
X136090555Y-94973918D01*
X136090555Y-94973918D02*
X135955868Y-94839231D01*
X145550182Y-119050049D02*
X145523245Y-118969236D01*
X145523245Y-118969236D02*
X145442432Y-118888424D01*
X145442432Y-118888424D02*
X145334683Y-118834549D01*
X145334683Y-118834549D02*
X145226933Y-118834549D01*
X145226933Y-118834549D02*
X145146121Y-118861487D01*
X145146121Y-118861487D02*
X145011434Y-118942299D01*
X145011434Y-118942299D02*
X144930622Y-119023111D01*
X144930622Y-119023111D02*
X144849809Y-119157798D01*
X144849809Y-119157798D02*
X144822872Y-119238611D01*
X144822872Y-119238611D02*
X144822872Y-119346360D01*
X144822872Y-119346360D02*
X144876747Y-119454110D01*
X144876747Y-119454110D02*
X144930622Y-119507985D01*
X144930622Y-119507985D02*
X145038371Y-119561859D01*
X145038371Y-119561859D02*
X145092246Y-119561859D01*
X145092246Y-119561859D02*
X145280808Y-119373298D01*
X145280808Y-119373298D02*
X145173058Y-119265548D01*
X145280808Y-119858171D02*
X145846493Y-119292485D01*
X145846493Y-119292485D02*
X146061993Y-119507985D01*
X146061993Y-119507985D02*
X146088930Y-119588797D01*
X146088930Y-119588797D02*
X146088930Y-119642672D01*
X146088930Y-119642672D02*
X146061993Y-119723484D01*
X146061993Y-119723484D02*
X145981180Y-119804296D01*
X145981180Y-119804296D02*
X145900368Y-119831233D01*
X145900368Y-119831233D02*
X145846493Y-119831233D01*
X145846493Y-119831233D02*
X145765681Y-119804296D01*
X145765681Y-119804296D02*
X145550182Y-119588797D01*
X146142805Y-120720168D02*
X145819556Y-120396919D01*
X145981180Y-120558543D02*
X146546866Y-119992858D01*
X146546866Y-119992858D02*
X146412179Y-120019795D01*
X146412179Y-120019795D02*
X146304429Y-120019795D01*
X146304429Y-120019795D02*
X146223617Y-119992858D01*
X146897052Y-120343044D02*
X147247238Y-120693230D01*
X147247238Y-120693230D02*
X146843177Y-120720168D01*
X146843177Y-120720168D02*
X146923990Y-120800980D01*
X146923990Y-120800980D02*
X146950927Y-120881792D01*
X146950927Y-120881792D02*
X146950927Y-120935667D01*
X146950927Y-120935667D02*
X146923990Y-121016479D01*
X146923990Y-121016479D02*
X146789303Y-121151166D01*
X146789303Y-121151166D02*
X146708490Y-121178104D01*
X146708490Y-121178104D02*
X146654616Y-121178104D01*
X146654616Y-121178104D02*
X146573803Y-121151166D01*
X146573803Y-121151166D02*
X146412179Y-120989542D01*
X146412179Y-120989542D02*
X146385242Y-120908730D01*
X146385242Y-120908730D02*
X146385242Y-120854855D01*
X148332619Y-93438486D02*
X148305682Y-93357674D01*
X148305682Y-93357674D02*
X148224870Y-93276862D01*
X148224870Y-93276862D02*
X148117120Y-93222987D01*
X148117120Y-93222987D02*
X148009370Y-93222987D01*
X148009370Y-93222987D02*
X147928558Y-93249924D01*
X147928558Y-93249924D02*
X147793871Y-93330736D01*
X147793871Y-93330736D02*
X147713059Y-93411549D01*
X147713059Y-93411549D02*
X147632247Y-93546236D01*
X147632247Y-93546236D02*
X147605309Y-93627048D01*
X147605309Y-93627048D02*
X147605309Y-93734797D01*
X147605309Y-93734797D02*
X147659184Y-93842547D01*
X147659184Y-93842547D02*
X147713059Y-93896422D01*
X147713059Y-93896422D02*
X147820809Y-93950297D01*
X147820809Y-93950297D02*
X147874683Y-93950297D01*
X147874683Y-93950297D02*
X148063245Y-93761735D01*
X148063245Y-93761735D02*
X147955496Y-93653985D01*
X148063245Y-94246608D02*
X148628931Y-93680923D01*
X148628931Y-93680923D02*
X148386494Y-94569857D01*
X148386494Y-94569857D02*
X148952179Y-94004171D01*
X148655868Y-94839231D02*
X149221553Y-94273545D01*
X149221553Y-94273545D02*
X149356240Y-94408232D01*
X149356240Y-94408232D02*
X149410115Y-94515982D01*
X149410115Y-94515982D02*
X149410115Y-94623731D01*
X149410115Y-94623731D02*
X149383178Y-94704544D01*
X149383178Y-94704544D02*
X149302365Y-94839231D01*
X149302365Y-94839231D02*
X149221553Y-94920043D01*
X149221553Y-94920043D02*
X149086866Y-95000855D01*
X149086866Y-95000855D02*
X149006054Y-95027792D01*
X149006054Y-95027792D02*
X148898304Y-95027792D01*
X148898304Y-95027792D02*
X148790555Y-94973918D01*
X148790555Y-94973918D02*
X148655868Y-94839231D01*
X153170182Y-119050049D02*
X153143245Y-118969236D01*
X153143245Y-118969236D02*
X153062432Y-118888424D01*
X153062432Y-118888424D02*
X152954683Y-118834549D01*
X152954683Y-118834549D02*
X152846933Y-118834549D01*
X152846933Y-118834549D02*
X152766121Y-118861487D01*
X152766121Y-118861487D02*
X152631434Y-118942299D01*
X152631434Y-118942299D02*
X152550622Y-119023111D01*
X152550622Y-119023111D02*
X152469809Y-119157798D01*
X152469809Y-119157798D02*
X152442872Y-119238611D01*
X152442872Y-119238611D02*
X152442872Y-119346360D01*
X152442872Y-119346360D02*
X152496747Y-119454110D01*
X152496747Y-119454110D02*
X152550622Y-119507985D01*
X152550622Y-119507985D02*
X152658371Y-119561859D01*
X152658371Y-119561859D02*
X152712246Y-119561859D01*
X152712246Y-119561859D02*
X152900808Y-119373298D01*
X152900808Y-119373298D02*
X152793058Y-119265548D01*
X152900808Y-119858171D02*
X153466493Y-119292485D01*
X153466493Y-119292485D02*
X153681993Y-119507985D01*
X153681993Y-119507985D02*
X153708930Y-119588797D01*
X153708930Y-119588797D02*
X153708930Y-119642672D01*
X153708930Y-119642672D02*
X153681993Y-119723484D01*
X153681993Y-119723484D02*
X153601180Y-119804296D01*
X153601180Y-119804296D02*
X153520368Y-119831233D01*
X153520368Y-119831233D02*
X153466493Y-119831233D01*
X153466493Y-119831233D02*
X153385681Y-119804296D01*
X153385681Y-119804296D02*
X153170182Y-119588797D01*
X153762805Y-120720168D02*
X153439556Y-120396919D01*
X153601180Y-120558543D02*
X154166866Y-119992858D01*
X154166866Y-119992858D02*
X154032179Y-120019795D01*
X154032179Y-120019795D02*
X153924429Y-120019795D01*
X153924429Y-120019795D02*
X153843617Y-119992858D01*
X154840301Y-120666293D02*
X154570927Y-120396919D01*
X154570927Y-120396919D02*
X154274616Y-120639356D01*
X154274616Y-120639356D02*
X154328490Y-120639356D01*
X154328490Y-120639356D02*
X154409303Y-120666293D01*
X154409303Y-120666293D02*
X154543990Y-120800980D01*
X154543990Y-120800980D02*
X154570927Y-120881792D01*
X154570927Y-120881792D02*
X154570927Y-120935667D01*
X154570927Y-120935667D02*
X154543990Y-121016479D01*
X154543990Y-121016479D02*
X154409303Y-121151166D01*
X154409303Y-121151166D02*
X154328490Y-121178104D01*
X154328490Y-121178104D02*
X154274616Y-121178104D01*
X154274616Y-121178104D02*
X154193803Y-121151166D01*
X154193803Y-121151166D02*
X154059116Y-121016479D01*
X154059116Y-121016479D02*
X154032179Y-120935667D01*
X154032179Y-120935667D02*
X154032179Y-120881792D01*
X130579556Y-119065423D02*
X130552619Y-118984611D01*
X130552619Y-118984611D02*
X130471807Y-118903799D01*
X130471807Y-118903799D02*
X130364057Y-118849924D01*
X130364057Y-118849924D02*
X130256308Y-118849924D01*
X130256308Y-118849924D02*
X130175495Y-118876861D01*
X130175495Y-118876861D02*
X130040808Y-118957674D01*
X130040808Y-118957674D02*
X129959996Y-119038486D01*
X129959996Y-119038486D02*
X129879184Y-119173173D01*
X129879184Y-119173173D02*
X129852247Y-119253985D01*
X129852247Y-119253985D02*
X129852247Y-119361735D01*
X129852247Y-119361735D02*
X129906121Y-119469484D01*
X129906121Y-119469484D02*
X129959996Y-119523359D01*
X129959996Y-119523359D02*
X130067746Y-119577234D01*
X130067746Y-119577234D02*
X130121621Y-119577234D01*
X130121621Y-119577234D02*
X130310182Y-119388672D01*
X130310182Y-119388672D02*
X130202433Y-119280922D01*
X130310182Y-119873545D02*
X130875868Y-119307860D01*
X130875868Y-119307860D02*
X131091367Y-119523359D01*
X131091367Y-119523359D02*
X131118304Y-119604171D01*
X131118304Y-119604171D02*
X131118304Y-119658046D01*
X131118304Y-119658046D02*
X131091367Y-119738858D01*
X131091367Y-119738858D02*
X131010555Y-119819670D01*
X131010555Y-119819670D02*
X130929743Y-119846608D01*
X130929743Y-119846608D02*
X130875868Y-119846608D01*
X130875868Y-119846608D02*
X130795056Y-119819670D01*
X130795056Y-119819670D02*
X130579556Y-119604171D01*
X131279929Y-120196794D02*
X131252991Y-120115982D01*
X131252991Y-120115982D02*
X131252991Y-120062107D01*
X131252991Y-120062107D02*
X131279929Y-119981295D01*
X131279929Y-119981295D02*
X131306866Y-119954357D01*
X131306866Y-119954357D02*
X131387678Y-119927420D01*
X131387678Y-119927420D02*
X131441553Y-119927420D01*
X131441553Y-119927420D02*
X131522365Y-119954357D01*
X131522365Y-119954357D02*
X131630115Y-120062107D01*
X131630115Y-120062107D02*
X131657052Y-120142919D01*
X131657052Y-120142919D02*
X131657052Y-120196794D01*
X131657052Y-120196794D02*
X131630115Y-120277606D01*
X131630115Y-120277606D02*
X131603178Y-120304544D01*
X131603178Y-120304544D02*
X131522365Y-120331481D01*
X131522365Y-120331481D02*
X131468491Y-120331481D01*
X131468491Y-120331481D02*
X131387678Y-120304544D01*
X131387678Y-120304544D02*
X131279929Y-120196794D01*
X131279929Y-120196794D02*
X131199117Y-120169857D01*
X131199117Y-120169857D02*
X131145242Y-120169857D01*
X131145242Y-120169857D02*
X131064430Y-120196794D01*
X131064430Y-120196794D02*
X130956680Y-120304544D01*
X130956680Y-120304544D02*
X130929743Y-120385356D01*
X130929743Y-120385356D02*
X130929743Y-120439231D01*
X130929743Y-120439231D02*
X130956680Y-120520043D01*
X130956680Y-120520043D02*
X131064430Y-120627792D01*
X131064430Y-120627792D02*
X131145242Y-120654730D01*
X131145242Y-120654730D02*
X131199117Y-120654730D01*
X131199117Y-120654730D02*
X131279929Y-120627792D01*
X131279929Y-120627792D02*
X131387678Y-120520043D01*
X131387678Y-120520043D02*
X131414616Y-120439231D01*
X131414616Y-120439231D02*
X131414616Y-120385356D01*
X131414616Y-120385356D02*
X131387678Y-120304544D01*
X107180808Y-92472800D02*
X106803684Y-93227047D01*
X106803684Y-93227047D02*
X107557932Y-92849924D01*
X107180808Y-93550296D02*
X107234683Y-93658046D01*
X107234683Y-93658046D02*
X107369370Y-93792733D01*
X107369370Y-93792733D02*
X107450182Y-93819670D01*
X107450182Y-93819670D02*
X107504057Y-93819670D01*
X107504057Y-93819670D02*
X107584869Y-93792733D01*
X107584869Y-93792733D02*
X107638744Y-93738858D01*
X107638744Y-93738858D02*
X107665681Y-93658046D01*
X107665681Y-93658046D02*
X107665681Y-93604171D01*
X107665681Y-93604171D02*
X107638744Y-93523359D01*
X107638744Y-93523359D02*
X107557932Y-93388672D01*
X107557932Y-93388672D02*
X107530994Y-93307859D01*
X107530994Y-93307859D02*
X107530994Y-93253985D01*
X107530994Y-93253985D02*
X107557932Y-93173172D01*
X107557932Y-93173172D02*
X107611806Y-93119298D01*
X107611806Y-93119298D02*
X107692619Y-93092360D01*
X107692619Y-93092360D02*
X107746493Y-93092360D01*
X107746493Y-93092360D02*
X107827306Y-93119298D01*
X107827306Y-93119298D02*
X107961993Y-93253985D01*
X107961993Y-93253985D02*
X108015867Y-93361734D01*
X108096680Y-93981295D02*
X107827306Y-94250669D01*
X108204429Y-93496421D02*
X108096680Y-93981295D01*
X108096680Y-93981295D02*
X108581553Y-93873545D01*
X108204429Y-94573917D02*
X108258304Y-94681667D01*
X108258304Y-94681667D02*
X108392991Y-94816354D01*
X108392991Y-94816354D02*
X108473803Y-94843291D01*
X108473803Y-94843291D02*
X108527678Y-94843291D01*
X108527678Y-94843291D02*
X108608490Y-94816354D01*
X108608490Y-94816354D02*
X108662365Y-94762479D01*
X108662365Y-94762479D02*
X108689302Y-94681667D01*
X108689302Y-94681667D02*
X108689302Y-94627792D01*
X108689302Y-94627792D02*
X108662365Y-94546980D01*
X108662365Y-94546980D02*
X108581553Y-94412293D01*
X108581553Y-94412293D02*
X108554615Y-94331481D01*
X108554615Y-94331481D02*
X108554615Y-94277606D01*
X108554615Y-94277606D02*
X108581553Y-94196794D01*
X108581553Y-94196794D02*
X108635428Y-94142919D01*
X108635428Y-94142919D02*
X108716240Y-94115981D01*
X108716240Y-94115981D02*
X108770115Y-94115981D01*
X108770115Y-94115981D02*
X108850927Y-94142919D01*
X108850927Y-94142919D02*
X108985614Y-94277606D01*
X108985614Y-94277606D02*
X109039489Y-94385355D01*
X122932619Y-119038486D02*
X122905682Y-118957674D01*
X122905682Y-118957674D02*
X122824870Y-118876862D01*
X122824870Y-118876862D02*
X122717120Y-118822987D01*
X122717120Y-118822987D02*
X122609370Y-118822987D01*
X122609370Y-118822987D02*
X122528558Y-118849924D01*
X122528558Y-118849924D02*
X122393871Y-118930736D01*
X122393871Y-118930736D02*
X122313059Y-119011549D01*
X122313059Y-119011549D02*
X122232247Y-119146236D01*
X122232247Y-119146236D02*
X122205309Y-119227048D01*
X122205309Y-119227048D02*
X122205309Y-119334797D01*
X122205309Y-119334797D02*
X122259184Y-119442547D01*
X122259184Y-119442547D02*
X122313059Y-119496422D01*
X122313059Y-119496422D02*
X122420809Y-119550297D01*
X122420809Y-119550297D02*
X122474683Y-119550297D01*
X122474683Y-119550297D02*
X122663245Y-119361735D01*
X122663245Y-119361735D02*
X122555496Y-119253985D01*
X122663245Y-119846608D02*
X123228931Y-119280923D01*
X123228931Y-119280923D02*
X122986494Y-120169857D01*
X122986494Y-120169857D02*
X123552179Y-119604171D01*
X123255868Y-120439231D02*
X123821553Y-119873545D01*
X123821553Y-119873545D02*
X123956240Y-120008232D01*
X123956240Y-120008232D02*
X124010115Y-120115982D01*
X124010115Y-120115982D02*
X124010115Y-120223731D01*
X124010115Y-120223731D02*
X123983178Y-120304544D01*
X123983178Y-120304544D02*
X123902365Y-120439231D01*
X123902365Y-120439231D02*
X123821553Y-120520043D01*
X123821553Y-120520043D02*
X123686866Y-120600855D01*
X123686866Y-120600855D02*
X123606054Y-120627792D01*
X123606054Y-120627792D02*
X123498304Y-120627792D01*
X123498304Y-120627792D02*
X123390555Y-120573918D01*
X123390555Y-120573918D02*
X123255868Y-120439231D01*
X117879556Y-119065423D02*
X117852619Y-118984611D01*
X117852619Y-118984611D02*
X117771807Y-118903799D01*
X117771807Y-118903799D02*
X117664057Y-118849924D01*
X117664057Y-118849924D02*
X117556308Y-118849924D01*
X117556308Y-118849924D02*
X117475495Y-118876861D01*
X117475495Y-118876861D02*
X117340808Y-118957674D01*
X117340808Y-118957674D02*
X117259996Y-119038486D01*
X117259996Y-119038486D02*
X117179184Y-119173173D01*
X117179184Y-119173173D02*
X117152247Y-119253985D01*
X117152247Y-119253985D02*
X117152247Y-119361735D01*
X117152247Y-119361735D02*
X117206121Y-119469484D01*
X117206121Y-119469484D02*
X117259996Y-119523359D01*
X117259996Y-119523359D02*
X117367746Y-119577234D01*
X117367746Y-119577234D02*
X117421621Y-119577234D01*
X117421621Y-119577234D02*
X117610182Y-119388672D01*
X117610182Y-119388672D02*
X117502433Y-119280922D01*
X117610182Y-119873545D02*
X118175868Y-119307860D01*
X118175868Y-119307860D02*
X118391367Y-119523359D01*
X118391367Y-119523359D02*
X118418304Y-119604171D01*
X118418304Y-119604171D02*
X118418304Y-119658046D01*
X118418304Y-119658046D02*
X118391367Y-119738858D01*
X118391367Y-119738858D02*
X118310555Y-119819670D01*
X118310555Y-119819670D02*
X118229743Y-119846608D01*
X118229743Y-119846608D02*
X118175868Y-119846608D01*
X118175868Y-119846608D02*
X118095056Y-119819670D01*
X118095056Y-119819670D02*
X117879556Y-119604171D01*
X118795428Y-120304544D02*
X118418304Y-120681667D01*
X118876240Y-119954357D02*
X118337492Y-120223731D01*
X118337492Y-120223731D02*
X118687678Y-120573918D01*
X150630182Y-119096049D02*
X150603245Y-119015236D01*
X150603245Y-119015236D02*
X150522432Y-118934424D01*
X150522432Y-118934424D02*
X150414683Y-118880549D01*
X150414683Y-118880549D02*
X150306933Y-118880549D01*
X150306933Y-118880549D02*
X150226121Y-118907487D01*
X150226121Y-118907487D02*
X150091434Y-118988299D01*
X150091434Y-118988299D02*
X150010622Y-119069111D01*
X150010622Y-119069111D02*
X149929809Y-119203798D01*
X149929809Y-119203798D02*
X149902872Y-119284611D01*
X149902872Y-119284611D02*
X149902872Y-119392360D01*
X149902872Y-119392360D02*
X149956747Y-119500110D01*
X149956747Y-119500110D02*
X150010622Y-119553985D01*
X150010622Y-119553985D02*
X150118371Y-119607859D01*
X150118371Y-119607859D02*
X150172246Y-119607859D01*
X150172246Y-119607859D02*
X150360808Y-119419298D01*
X150360808Y-119419298D02*
X150253058Y-119311548D01*
X150360808Y-119904171D02*
X150926493Y-119338485D01*
X150926493Y-119338485D02*
X151141993Y-119553985D01*
X151141993Y-119553985D02*
X151168930Y-119634797D01*
X151168930Y-119634797D02*
X151168930Y-119688672D01*
X151168930Y-119688672D02*
X151141993Y-119769484D01*
X151141993Y-119769484D02*
X151061180Y-119850296D01*
X151061180Y-119850296D02*
X150980368Y-119877233D01*
X150980368Y-119877233D02*
X150926493Y-119877233D01*
X150926493Y-119877233D02*
X150845681Y-119850296D01*
X150845681Y-119850296D02*
X150630182Y-119634797D01*
X151222805Y-120766168D02*
X150899556Y-120442919D01*
X151061180Y-120604543D02*
X151626866Y-120038858D01*
X151626866Y-120038858D02*
X151492179Y-120065795D01*
X151492179Y-120065795D02*
X151384429Y-120065795D01*
X151384429Y-120065795D02*
X151303617Y-120038858D01*
X152084802Y-120873917D02*
X151707678Y-121251041D01*
X152165614Y-120523731D02*
X151626866Y-120793105D01*
X151626866Y-120793105D02*
X151977052Y-121143291D01*
X143010182Y-92942049D02*
X142983245Y-92861236D01*
X142983245Y-92861236D02*
X142902432Y-92780424D01*
X142902432Y-92780424D02*
X142794683Y-92726549D01*
X142794683Y-92726549D02*
X142686933Y-92726549D01*
X142686933Y-92726549D02*
X142606121Y-92753487D01*
X142606121Y-92753487D02*
X142471434Y-92834299D01*
X142471434Y-92834299D02*
X142390622Y-92915111D01*
X142390622Y-92915111D02*
X142309809Y-93049798D01*
X142309809Y-93049798D02*
X142282872Y-93130611D01*
X142282872Y-93130611D02*
X142282872Y-93238360D01*
X142282872Y-93238360D02*
X142336747Y-93346110D01*
X142336747Y-93346110D02*
X142390622Y-93399985D01*
X142390622Y-93399985D02*
X142498371Y-93453859D01*
X142498371Y-93453859D02*
X142552246Y-93453859D01*
X142552246Y-93453859D02*
X142740808Y-93265298D01*
X142740808Y-93265298D02*
X142633058Y-93157548D01*
X142740808Y-93750171D02*
X143306493Y-93184485D01*
X143306493Y-93184485D02*
X143521993Y-93399985D01*
X143521993Y-93399985D02*
X143548930Y-93480797D01*
X143548930Y-93480797D02*
X143548930Y-93534672D01*
X143548930Y-93534672D02*
X143521993Y-93615484D01*
X143521993Y-93615484D02*
X143441180Y-93696296D01*
X143441180Y-93696296D02*
X143360368Y-93723233D01*
X143360368Y-93723233D02*
X143306493Y-93723233D01*
X143306493Y-93723233D02*
X143225681Y-93696296D01*
X143225681Y-93696296D02*
X143010182Y-93480797D01*
X143602805Y-94612168D02*
X143279556Y-94288919D01*
X143441180Y-94450543D02*
X144006866Y-93884858D01*
X144006866Y-93884858D02*
X143872179Y-93911795D01*
X143872179Y-93911795D02*
X143764429Y-93911795D01*
X143764429Y-93911795D02*
X143683617Y-93884858D01*
X143872179Y-94881542D02*
X143979929Y-94989291D01*
X143979929Y-94989291D02*
X144060741Y-95016229D01*
X144060741Y-95016229D02*
X144114616Y-95016229D01*
X144114616Y-95016229D02*
X144249303Y-94989291D01*
X144249303Y-94989291D02*
X144383990Y-94908479D01*
X144383990Y-94908479D02*
X144599489Y-94692980D01*
X144599489Y-94692980D02*
X144626426Y-94612168D01*
X144626426Y-94612168D02*
X144626426Y-94558293D01*
X144626426Y-94558293D02*
X144599489Y-94477481D01*
X144599489Y-94477481D02*
X144491739Y-94369731D01*
X144491739Y-94369731D02*
X144410927Y-94342794D01*
X144410927Y-94342794D02*
X144357052Y-94342794D01*
X144357052Y-94342794D02*
X144276240Y-94369731D01*
X144276240Y-94369731D02*
X144141553Y-94504418D01*
X144141553Y-94504418D02*
X144114616Y-94585230D01*
X144114616Y-94585230D02*
X144114616Y-94639105D01*
X144114616Y-94639105D02*
X144141553Y-94719917D01*
X144141553Y-94719917D02*
X144249303Y-94827667D01*
X144249303Y-94827667D02*
X144330115Y-94854604D01*
X144330115Y-94854604D02*
X144383990Y-94854604D01*
X144383990Y-94854604D02*
X144464802Y-94827667D01*
X140470182Y-119196049D02*
X140443245Y-119115236D01*
X140443245Y-119115236D02*
X140362432Y-119034424D01*
X140362432Y-119034424D02*
X140254683Y-118980549D01*
X140254683Y-118980549D02*
X140146933Y-118980549D01*
X140146933Y-118980549D02*
X140066121Y-119007487D01*
X140066121Y-119007487D02*
X139931434Y-119088299D01*
X139931434Y-119088299D02*
X139850622Y-119169111D01*
X139850622Y-119169111D02*
X139769809Y-119303798D01*
X139769809Y-119303798D02*
X139742872Y-119384611D01*
X139742872Y-119384611D02*
X139742872Y-119492360D01*
X139742872Y-119492360D02*
X139796747Y-119600110D01*
X139796747Y-119600110D02*
X139850622Y-119653985D01*
X139850622Y-119653985D02*
X139958371Y-119707859D01*
X139958371Y-119707859D02*
X140012246Y-119707859D01*
X140012246Y-119707859D02*
X140200808Y-119519298D01*
X140200808Y-119519298D02*
X140093058Y-119411548D01*
X140200808Y-120004171D02*
X140766493Y-119438485D01*
X140766493Y-119438485D02*
X140981993Y-119653985D01*
X140981993Y-119653985D02*
X141008930Y-119734797D01*
X141008930Y-119734797D02*
X141008930Y-119788672D01*
X141008930Y-119788672D02*
X140981993Y-119869484D01*
X140981993Y-119869484D02*
X140901180Y-119950296D01*
X140901180Y-119950296D02*
X140820368Y-119977233D01*
X140820368Y-119977233D02*
X140766493Y-119977233D01*
X140766493Y-119977233D02*
X140685681Y-119950296D01*
X140685681Y-119950296D02*
X140470182Y-119734797D01*
X141062805Y-120866168D02*
X140739556Y-120542919D01*
X140901180Y-120704543D02*
X141466866Y-120138858D01*
X141466866Y-120138858D02*
X141332179Y-120165795D01*
X141332179Y-120165795D02*
X141224429Y-120165795D01*
X141224429Y-120165795D02*
X141143617Y-120138858D01*
X141601553Y-121404916D02*
X141278304Y-121081667D01*
X141439929Y-121243291D02*
X142005614Y-120677606D01*
X142005614Y-120677606D02*
X141870927Y-120704543D01*
X141870927Y-120704543D02*
X141763177Y-120704543D01*
X141763177Y-120704543D02*
X141682365Y-120677606D01*
X137940182Y-92942049D02*
X137913245Y-92861236D01*
X137913245Y-92861236D02*
X137832432Y-92780424D01*
X137832432Y-92780424D02*
X137724683Y-92726549D01*
X137724683Y-92726549D02*
X137616933Y-92726549D01*
X137616933Y-92726549D02*
X137536121Y-92753487D01*
X137536121Y-92753487D02*
X137401434Y-92834299D01*
X137401434Y-92834299D02*
X137320622Y-92915111D01*
X137320622Y-92915111D02*
X137239809Y-93049798D01*
X137239809Y-93049798D02*
X137212872Y-93130611D01*
X137212872Y-93130611D02*
X137212872Y-93238360D01*
X137212872Y-93238360D02*
X137266747Y-93346110D01*
X137266747Y-93346110D02*
X137320622Y-93399985D01*
X137320622Y-93399985D02*
X137428371Y-93453859D01*
X137428371Y-93453859D02*
X137482246Y-93453859D01*
X137482246Y-93453859D02*
X137670808Y-93265298D01*
X137670808Y-93265298D02*
X137563058Y-93157548D01*
X137670808Y-93750171D02*
X138236493Y-93184485D01*
X138236493Y-93184485D02*
X138451993Y-93399985D01*
X138451993Y-93399985D02*
X138478930Y-93480797D01*
X138478930Y-93480797D02*
X138478930Y-93534672D01*
X138478930Y-93534672D02*
X138451993Y-93615484D01*
X138451993Y-93615484D02*
X138371180Y-93696296D01*
X138371180Y-93696296D02*
X138290368Y-93723233D01*
X138290368Y-93723233D02*
X138236493Y-93723233D01*
X138236493Y-93723233D02*
X138155681Y-93696296D01*
X138155681Y-93696296D02*
X137940182Y-93480797D01*
X138721367Y-93777108D02*
X138775241Y-93777108D01*
X138775241Y-93777108D02*
X138856054Y-93804046D01*
X138856054Y-93804046D02*
X138990741Y-93938733D01*
X138990741Y-93938733D02*
X139017678Y-94019545D01*
X139017678Y-94019545D02*
X139017678Y-94073420D01*
X139017678Y-94073420D02*
X138990741Y-94154232D01*
X138990741Y-94154232D02*
X138936866Y-94208107D01*
X138936866Y-94208107D02*
X138829116Y-94261981D01*
X138829116Y-94261981D02*
X138182619Y-94261981D01*
X138182619Y-94261981D02*
X138532805Y-94612168D01*
X139071553Y-95150916D02*
X138748304Y-94827667D01*
X138909929Y-94989291D02*
X139475614Y-94423606D01*
X139475614Y-94423606D02*
X139340927Y-94450543D01*
X139340927Y-94450543D02*
X139233177Y-94450543D01*
X139233177Y-94450543D02*
X139152365Y-94423606D01*
X140470182Y-92942049D02*
X140443245Y-92861236D01*
X140443245Y-92861236D02*
X140362432Y-92780424D01*
X140362432Y-92780424D02*
X140254683Y-92726549D01*
X140254683Y-92726549D02*
X140146933Y-92726549D01*
X140146933Y-92726549D02*
X140066121Y-92753487D01*
X140066121Y-92753487D02*
X139931434Y-92834299D01*
X139931434Y-92834299D02*
X139850622Y-92915111D01*
X139850622Y-92915111D02*
X139769809Y-93049798D01*
X139769809Y-93049798D02*
X139742872Y-93130611D01*
X139742872Y-93130611D02*
X139742872Y-93238360D01*
X139742872Y-93238360D02*
X139796747Y-93346110D01*
X139796747Y-93346110D02*
X139850622Y-93399985D01*
X139850622Y-93399985D02*
X139958371Y-93453859D01*
X139958371Y-93453859D02*
X140012246Y-93453859D01*
X140012246Y-93453859D02*
X140200808Y-93265298D01*
X140200808Y-93265298D02*
X140093058Y-93157548D01*
X140200808Y-93750171D02*
X140766493Y-93184485D01*
X140766493Y-93184485D02*
X140981993Y-93399985D01*
X140981993Y-93399985D02*
X141008930Y-93480797D01*
X141008930Y-93480797D02*
X141008930Y-93534672D01*
X141008930Y-93534672D02*
X140981993Y-93615484D01*
X140981993Y-93615484D02*
X140901180Y-93696296D01*
X140901180Y-93696296D02*
X140820368Y-93723233D01*
X140820368Y-93723233D02*
X140766493Y-93723233D01*
X140766493Y-93723233D02*
X140685681Y-93696296D01*
X140685681Y-93696296D02*
X140470182Y-93480797D01*
X141251367Y-93777108D02*
X141305241Y-93777108D01*
X141305241Y-93777108D02*
X141386054Y-93804046D01*
X141386054Y-93804046D02*
X141520741Y-93938733D01*
X141520741Y-93938733D02*
X141547678Y-94019545D01*
X141547678Y-94019545D02*
X141547678Y-94073420D01*
X141547678Y-94073420D02*
X141520741Y-94154232D01*
X141520741Y-94154232D02*
X141466866Y-94208107D01*
X141466866Y-94208107D02*
X141359116Y-94261981D01*
X141359116Y-94261981D02*
X140712619Y-94261981D01*
X140712619Y-94261981D02*
X141062805Y-94612168D01*
X141978677Y-94396669D02*
X142032551Y-94450543D01*
X142032551Y-94450543D02*
X142059489Y-94531356D01*
X142059489Y-94531356D02*
X142059489Y-94585230D01*
X142059489Y-94585230D02*
X142032551Y-94666043D01*
X142032551Y-94666043D02*
X141951739Y-94800730D01*
X141951739Y-94800730D02*
X141817052Y-94935417D01*
X141817052Y-94935417D02*
X141682365Y-95016229D01*
X141682365Y-95016229D02*
X141601553Y-95043166D01*
X141601553Y-95043166D02*
X141547678Y-95043166D01*
X141547678Y-95043166D02*
X141466866Y-95016229D01*
X141466866Y-95016229D02*
X141412991Y-94962354D01*
X141412991Y-94962354D02*
X141386054Y-94881542D01*
X141386054Y-94881542D02*
X141386054Y-94827667D01*
X141386054Y-94827667D02*
X141412991Y-94746855D01*
X141412991Y-94746855D02*
X141493803Y-94612168D01*
X141493803Y-94612168D02*
X141628490Y-94477481D01*
X141628490Y-94477481D02*
X141763177Y-94396669D01*
X141763177Y-94396669D02*
X141843990Y-94369731D01*
X141843990Y-94369731D02*
X141897864Y-94369731D01*
X141897864Y-94369731D02*
X141978677Y-94396669D01*
X128009556Y-118965423D02*
X127982619Y-118884611D01*
X127982619Y-118884611D02*
X127901807Y-118803799D01*
X127901807Y-118803799D02*
X127794057Y-118749924D01*
X127794057Y-118749924D02*
X127686308Y-118749924D01*
X127686308Y-118749924D02*
X127605495Y-118776861D01*
X127605495Y-118776861D02*
X127470808Y-118857674D01*
X127470808Y-118857674D02*
X127389996Y-118938486D01*
X127389996Y-118938486D02*
X127309184Y-119073173D01*
X127309184Y-119073173D02*
X127282247Y-119153985D01*
X127282247Y-119153985D02*
X127282247Y-119261735D01*
X127282247Y-119261735D02*
X127336121Y-119369484D01*
X127336121Y-119369484D02*
X127389996Y-119423359D01*
X127389996Y-119423359D02*
X127497746Y-119477234D01*
X127497746Y-119477234D02*
X127551621Y-119477234D01*
X127551621Y-119477234D02*
X127740182Y-119288672D01*
X127740182Y-119288672D02*
X127632433Y-119180922D01*
X127740182Y-119773545D02*
X128305868Y-119207860D01*
X128305868Y-119207860D02*
X128521367Y-119423359D01*
X128521367Y-119423359D02*
X128548304Y-119504171D01*
X128548304Y-119504171D02*
X128548304Y-119558046D01*
X128548304Y-119558046D02*
X128521367Y-119638858D01*
X128521367Y-119638858D02*
X128440555Y-119719670D01*
X128440555Y-119719670D02*
X128359743Y-119746608D01*
X128359743Y-119746608D02*
X128305868Y-119746608D01*
X128305868Y-119746608D02*
X128225056Y-119719670D01*
X128225056Y-119719670D02*
X128009556Y-119504171D01*
X128817678Y-119719670D02*
X129194802Y-120096794D01*
X129194802Y-120096794D02*
X128386680Y-120420043D01*
X112799556Y-119165423D02*
X112772619Y-119084611D01*
X112772619Y-119084611D02*
X112691807Y-119003799D01*
X112691807Y-119003799D02*
X112584057Y-118949924D01*
X112584057Y-118949924D02*
X112476308Y-118949924D01*
X112476308Y-118949924D02*
X112395495Y-118976861D01*
X112395495Y-118976861D02*
X112260808Y-119057674D01*
X112260808Y-119057674D02*
X112179996Y-119138486D01*
X112179996Y-119138486D02*
X112099184Y-119273173D01*
X112099184Y-119273173D02*
X112072247Y-119353985D01*
X112072247Y-119353985D02*
X112072247Y-119461735D01*
X112072247Y-119461735D02*
X112126121Y-119569484D01*
X112126121Y-119569484D02*
X112179996Y-119623359D01*
X112179996Y-119623359D02*
X112287746Y-119677234D01*
X112287746Y-119677234D02*
X112341621Y-119677234D01*
X112341621Y-119677234D02*
X112530182Y-119488672D01*
X112530182Y-119488672D02*
X112422433Y-119380922D01*
X112530182Y-119973545D02*
X113095868Y-119407860D01*
X113095868Y-119407860D02*
X113311367Y-119623359D01*
X113311367Y-119623359D02*
X113338304Y-119704171D01*
X113338304Y-119704171D02*
X113338304Y-119758046D01*
X113338304Y-119758046D02*
X113311367Y-119838858D01*
X113311367Y-119838858D02*
X113230555Y-119919670D01*
X113230555Y-119919670D02*
X113149743Y-119946608D01*
X113149743Y-119946608D02*
X113095868Y-119946608D01*
X113095868Y-119946608D02*
X113015056Y-119919670D01*
X113015056Y-119919670D02*
X112799556Y-119704171D01*
X113580741Y-120000483D02*
X113634616Y-120000483D01*
X113634616Y-120000483D02*
X113715428Y-120027420D01*
X113715428Y-120027420D02*
X113850115Y-120162107D01*
X113850115Y-120162107D02*
X113877052Y-120242919D01*
X113877052Y-120242919D02*
X113877052Y-120296794D01*
X113877052Y-120296794D02*
X113850115Y-120377606D01*
X113850115Y-120377606D02*
X113796240Y-120431481D01*
X113796240Y-120431481D02*
X113688491Y-120485356D01*
X113688491Y-120485356D02*
X113041993Y-120485356D01*
X113041993Y-120485356D02*
X113392179Y-120835542D01*
X120419556Y-119065423D02*
X120392619Y-118984611D01*
X120392619Y-118984611D02*
X120311807Y-118903799D01*
X120311807Y-118903799D02*
X120204057Y-118849924D01*
X120204057Y-118849924D02*
X120096308Y-118849924D01*
X120096308Y-118849924D02*
X120015495Y-118876861D01*
X120015495Y-118876861D02*
X119880808Y-118957674D01*
X119880808Y-118957674D02*
X119799996Y-119038486D01*
X119799996Y-119038486D02*
X119719184Y-119173173D01*
X119719184Y-119173173D02*
X119692247Y-119253985D01*
X119692247Y-119253985D02*
X119692247Y-119361735D01*
X119692247Y-119361735D02*
X119746121Y-119469484D01*
X119746121Y-119469484D02*
X119799996Y-119523359D01*
X119799996Y-119523359D02*
X119907746Y-119577234D01*
X119907746Y-119577234D02*
X119961621Y-119577234D01*
X119961621Y-119577234D02*
X120150182Y-119388672D01*
X120150182Y-119388672D02*
X120042433Y-119280922D01*
X120150182Y-119873545D02*
X120715868Y-119307860D01*
X120715868Y-119307860D02*
X120931367Y-119523359D01*
X120931367Y-119523359D02*
X120958304Y-119604171D01*
X120958304Y-119604171D02*
X120958304Y-119658046D01*
X120958304Y-119658046D02*
X120931367Y-119738858D01*
X120931367Y-119738858D02*
X120850555Y-119819670D01*
X120850555Y-119819670D02*
X120769743Y-119846608D01*
X120769743Y-119846608D02*
X120715868Y-119846608D01*
X120715868Y-119846608D02*
X120635056Y-119819670D01*
X120635056Y-119819670D02*
X120419556Y-119604171D01*
X121550927Y-120142919D02*
X121281553Y-119873545D01*
X121281553Y-119873545D02*
X120985242Y-120115982D01*
X120985242Y-120115982D02*
X121039117Y-120115982D01*
X121039117Y-120115982D02*
X121119929Y-120142919D01*
X121119929Y-120142919D02*
X121254616Y-120277606D01*
X121254616Y-120277606D02*
X121281553Y-120358418D01*
X121281553Y-120358418D02*
X121281553Y-120412293D01*
X121281553Y-120412293D02*
X121254616Y-120493105D01*
X121254616Y-120493105D02*
X121119929Y-120627792D01*
X121119929Y-120627792D02*
X121039117Y-120654730D01*
X121039117Y-120654730D02*
X120985242Y-120654730D01*
X120985242Y-120654730D02*
X120904430Y-120627792D01*
X120904430Y-120627792D02*
X120769743Y-120493105D01*
X120769743Y-120493105D02*
X120742805Y-120412293D01*
X120742805Y-120412293D02*
X120742805Y-120358418D01*
X110232619Y-119038486D02*
X110205682Y-118957674D01*
X110205682Y-118957674D02*
X110124870Y-118876862D01*
X110124870Y-118876862D02*
X110017120Y-118822987D01*
X110017120Y-118822987D02*
X109909370Y-118822987D01*
X109909370Y-118822987D02*
X109828558Y-118849924D01*
X109828558Y-118849924D02*
X109693871Y-118930736D01*
X109693871Y-118930736D02*
X109613059Y-119011549D01*
X109613059Y-119011549D02*
X109532247Y-119146236D01*
X109532247Y-119146236D02*
X109505309Y-119227048D01*
X109505309Y-119227048D02*
X109505309Y-119334797D01*
X109505309Y-119334797D02*
X109559184Y-119442547D01*
X109559184Y-119442547D02*
X109613059Y-119496422D01*
X109613059Y-119496422D02*
X109720809Y-119550297D01*
X109720809Y-119550297D02*
X109774683Y-119550297D01*
X109774683Y-119550297D02*
X109963245Y-119361735D01*
X109963245Y-119361735D02*
X109855496Y-119253985D01*
X109963245Y-119846608D02*
X110528931Y-119280923D01*
X110528931Y-119280923D02*
X110286494Y-120169857D01*
X110286494Y-120169857D02*
X110852179Y-119604171D01*
X110555868Y-120439231D02*
X111121553Y-119873545D01*
X111121553Y-119873545D02*
X111256240Y-120008232D01*
X111256240Y-120008232D02*
X111310115Y-120115982D01*
X111310115Y-120115982D02*
X111310115Y-120223731D01*
X111310115Y-120223731D02*
X111283178Y-120304544D01*
X111283178Y-120304544D02*
X111202365Y-120439231D01*
X111202365Y-120439231D02*
X111121553Y-120520043D01*
X111121553Y-120520043D02*
X110986866Y-120600855D01*
X110986866Y-120600855D02*
X110906054Y-120627792D01*
X110906054Y-120627792D02*
X110798304Y-120627792D01*
X110798304Y-120627792D02*
X110690555Y-120573918D01*
X110690555Y-120573918D02*
X110555868Y-120439231D01*
X127770182Y-92942049D02*
X127743245Y-92861236D01*
X127743245Y-92861236D02*
X127662432Y-92780424D01*
X127662432Y-92780424D02*
X127554683Y-92726549D01*
X127554683Y-92726549D02*
X127446933Y-92726549D01*
X127446933Y-92726549D02*
X127366121Y-92753487D01*
X127366121Y-92753487D02*
X127231434Y-92834299D01*
X127231434Y-92834299D02*
X127150622Y-92915111D01*
X127150622Y-92915111D02*
X127069809Y-93049798D01*
X127069809Y-93049798D02*
X127042872Y-93130611D01*
X127042872Y-93130611D02*
X127042872Y-93238360D01*
X127042872Y-93238360D02*
X127096747Y-93346110D01*
X127096747Y-93346110D02*
X127150622Y-93399985D01*
X127150622Y-93399985D02*
X127258371Y-93453859D01*
X127258371Y-93453859D02*
X127312246Y-93453859D01*
X127312246Y-93453859D02*
X127500808Y-93265298D01*
X127500808Y-93265298D02*
X127393058Y-93157548D01*
X127500808Y-93750171D02*
X128066493Y-93184485D01*
X128066493Y-93184485D02*
X128281993Y-93399985D01*
X128281993Y-93399985D02*
X128308930Y-93480797D01*
X128308930Y-93480797D02*
X128308930Y-93534672D01*
X128308930Y-93534672D02*
X128281993Y-93615484D01*
X128281993Y-93615484D02*
X128201180Y-93696296D01*
X128201180Y-93696296D02*
X128120368Y-93723233D01*
X128120368Y-93723233D02*
X128066493Y-93723233D01*
X128066493Y-93723233D02*
X127985681Y-93696296D01*
X127985681Y-93696296D02*
X127770182Y-93480797D01*
X128551367Y-93777108D02*
X128605241Y-93777108D01*
X128605241Y-93777108D02*
X128686054Y-93804046D01*
X128686054Y-93804046D02*
X128820741Y-93938733D01*
X128820741Y-93938733D02*
X128847678Y-94019545D01*
X128847678Y-94019545D02*
X128847678Y-94073420D01*
X128847678Y-94073420D02*
X128820741Y-94154232D01*
X128820741Y-94154232D02*
X128766866Y-94208107D01*
X128766866Y-94208107D02*
X128659116Y-94261981D01*
X128659116Y-94261981D02*
X128012619Y-94261981D01*
X128012619Y-94261981D02*
X128362805Y-94612168D01*
X129413364Y-94531356D02*
X129305614Y-94423606D01*
X129305614Y-94423606D02*
X129224802Y-94396669D01*
X129224802Y-94396669D02*
X129170927Y-94396669D01*
X129170927Y-94396669D02*
X129036240Y-94423606D01*
X129036240Y-94423606D02*
X128901553Y-94504418D01*
X128901553Y-94504418D02*
X128686054Y-94719917D01*
X128686054Y-94719917D02*
X128659116Y-94800730D01*
X128659116Y-94800730D02*
X128659116Y-94854604D01*
X128659116Y-94854604D02*
X128686054Y-94935417D01*
X128686054Y-94935417D02*
X128793803Y-95043166D01*
X128793803Y-95043166D02*
X128874616Y-95070104D01*
X128874616Y-95070104D02*
X128928490Y-95070104D01*
X128928490Y-95070104D02*
X129009303Y-95043166D01*
X129009303Y-95043166D02*
X129143990Y-94908479D01*
X129143990Y-94908479D02*
X129170927Y-94827667D01*
X129170927Y-94827667D02*
X129170927Y-94773792D01*
X129170927Y-94773792D02*
X129143990Y-94692980D01*
X129143990Y-94692980D02*
X129036240Y-94585230D01*
X129036240Y-94585230D02*
X128955428Y-94558293D01*
X128955428Y-94558293D02*
X128901553Y-94558293D01*
X128901553Y-94558293D02*
X128820741Y-94585230D01*
X125499556Y-119065423D02*
X125472619Y-118984611D01*
X125472619Y-118984611D02*
X125391807Y-118903799D01*
X125391807Y-118903799D02*
X125284057Y-118849924D01*
X125284057Y-118849924D02*
X125176308Y-118849924D01*
X125176308Y-118849924D02*
X125095495Y-118876861D01*
X125095495Y-118876861D02*
X124960808Y-118957674D01*
X124960808Y-118957674D02*
X124879996Y-119038486D01*
X124879996Y-119038486D02*
X124799184Y-119173173D01*
X124799184Y-119173173D02*
X124772247Y-119253985D01*
X124772247Y-119253985D02*
X124772247Y-119361735D01*
X124772247Y-119361735D02*
X124826121Y-119469484D01*
X124826121Y-119469484D02*
X124879996Y-119523359D01*
X124879996Y-119523359D02*
X124987746Y-119577234D01*
X124987746Y-119577234D02*
X125041621Y-119577234D01*
X125041621Y-119577234D02*
X125230182Y-119388672D01*
X125230182Y-119388672D02*
X125122433Y-119280922D01*
X125230182Y-119873545D02*
X125795868Y-119307860D01*
X125795868Y-119307860D02*
X126011367Y-119523359D01*
X126011367Y-119523359D02*
X126038304Y-119604171D01*
X126038304Y-119604171D02*
X126038304Y-119658046D01*
X126038304Y-119658046D02*
X126011367Y-119738858D01*
X126011367Y-119738858D02*
X125930555Y-119819670D01*
X125930555Y-119819670D02*
X125849743Y-119846608D01*
X125849743Y-119846608D02*
X125795868Y-119846608D01*
X125795868Y-119846608D02*
X125715056Y-119819670D01*
X125715056Y-119819670D02*
X125499556Y-119604171D01*
X126603990Y-120115982D02*
X126496240Y-120008232D01*
X126496240Y-120008232D02*
X126415428Y-119981295D01*
X126415428Y-119981295D02*
X126361553Y-119981295D01*
X126361553Y-119981295D02*
X126226866Y-120008232D01*
X126226866Y-120008232D02*
X126092179Y-120089044D01*
X126092179Y-120089044D02*
X125876680Y-120304544D01*
X125876680Y-120304544D02*
X125849743Y-120385356D01*
X125849743Y-120385356D02*
X125849743Y-120439231D01*
X125849743Y-120439231D02*
X125876680Y-120520043D01*
X125876680Y-120520043D02*
X125984430Y-120627792D01*
X125984430Y-120627792D02*
X126065242Y-120654730D01*
X126065242Y-120654730D02*
X126119117Y-120654730D01*
X126119117Y-120654730D02*
X126199929Y-120627792D01*
X126199929Y-120627792D02*
X126334616Y-120493105D01*
X126334616Y-120493105D02*
X126361553Y-120412293D01*
X126361553Y-120412293D02*
X126361553Y-120358418D01*
X126361553Y-120358418D02*
X126334616Y-120277606D01*
X126334616Y-120277606D02*
X126226866Y-120169857D01*
X126226866Y-120169857D02*
X126146054Y-120142919D01*
X126146054Y-120142919D02*
X126092179Y-120142919D01*
X126092179Y-120142919D02*
X126011367Y-120169857D01*
X135632619Y-119038486D02*
X135605682Y-118957674D01*
X135605682Y-118957674D02*
X135524870Y-118876862D01*
X135524870Y-118876862D02*
X135417120Y-118822987D01*
X135417120Y-118822987D02*
X135309370Y-118822987D01*
X135309370Y-118822987D02*
X135228558Y-118849924D01*
X135228558Y-118849924D02*
X135093871Y-118930736D01*
X135093871Y-118930736D02*
X135013059Y-119011549D01*
X135013059Y-119011549D02*
X134932247Y-119146236D01*
X134932247Y-119146236D02*
X134905309Y-119227048D01*
X134905309Y-119227048D02*
X134905309Y-119334797D01*
X134905309Y-119334797D02*
X134959184Y-119442547D01*
X134959184Y-119442547D02*
X135013059Y-119496422D01*
X135013059Y-119496422D02*
X135120809Y-119550297D01*
X135120809Y-119550297D02*
X135174683Y-119550297D01*
X135174683Y-119550297D02*
X135363245Y-119361735D01*
X135363245Y-119361735D02*
X135255496Y-119253985D01*
X135363245Y-119846608D02*
X135928931Y-119280923D01*
X135928931Y-119280923D02*
X135686494Y-120169857D01*
X135686494Y-120169857D02*
X136252179Y-119604171D01*
X135955868Y-120439231D02*
X136521553Y-119873545D01*
X136521553Y-119873545D02*
X136656240Y-120008232D01*
X136656240Y-120008232D02*
X136710115Y-120115982D01*
X136710115Y-120115982D02*
X136710115Y-120223731D01*
X136710115Y-120223731D02*
X136683178Y-120304544D01*
X136683178Y-120304544D02*
X136602365Y-120439231D01*
X136602365Y-120439231D02*
X136521553Y-120520043D01*
X136521553Y-120520043D02*
X136386866Y-120600855D01*
X136386866Y-120600855D02*
X136306054Y-120627792D01*
X136306054Y-120627792D02*
X136198304Y-120627792D01*
X136198304Y-120627792D02*
X136090555Y-120573918D01*
X136090555Y-120573918D02*
X135955868Y-120439231D01*
X115339556Y-119065423D02*
X115312619Y-118984611D01*
X115312619Y-118984611D02*
X115231807Y-118903799D01*
X115231807Y-118903799D02*
X115124057Y-118849924D01*
X115124057Y-118849924D02*
X115016308Y-118849924D01*
X115016308Y-118849924D02*
X114935495Y-118876861D01*
X114935495Y-118876861D02*
X114800808Y-118957674D01*
X114800808Y-118957674D02*
X114719996Y-119038486D01*
X114719996Y-119038486D02*
X114639184Y-119173173D01*
X114639184Y-119173173D02*
X114612247Y-119253985D01*
X114612247Y-119253985D02*
X114612247Y-119361735D01*
X114612247Y-119361735D02*
X114666121Y-119469484D01*
X114666121Y-119469484D02*
X114719996Y-119523359D01*
X114719996Y-119523359D02*
X114827746Y-119577234D01*
X114827746Y-119577234D02*
X114881621Y-119577234D01*
X114881621Y-119577234D02*
X115070182Y-119388672D01*
X115070182Y-119388672D02*
X114962433Y-119280922D01*
X115070182Y-119873545D02*
X115635868Y-119307860D01*
X115635868Y-119307860D02*
X115851367Y-119523359D01*
X115851367Y-119523359D02*
X115878304Y-119604171D01*
X115878304Y-119604171D02*
X115878304Y-119658046D01*
X115878304Y-119658046D02*
X115851367Y-119738858D01*
X115851367Y-119738858D02*
X115770555Y-119819670D01*
X115770555Y-119819670D02*
X115689743Y-119846608D01*
X115689743Y-119846608D02*
X115635868Y-119846608D01*
X115635868Y-119846608D02*
X115555056Y-119819670D01*
X115555056Y-119819670D02*
X115339556Y-119604171D01*
X116147678Y-119819670D02*
X116497865Y-120169857D01*
X116497865Y-120169857D02*
X116093804Y-120196794D01*
X116093804Y-120196794D02*
X116174616Y-120277606D01*
X116174616Y-120277606D02*
X116201553Y-120358418D01*
X116201553Y-120358418D02*
X116201553Y-120412293D01*
X116201553Y-120412293D02*
X116174616Y-120493105D01*
X116174616Y-120493105D02*
X116039929Y-120627792D01*
X116039929Y-120627792D02*
X115959117Y-120654730D01*
X115959117Y-120654730D02*
X115905242Y-120654730D01*
X115905242Y-120654730D02*
X115824430Y-120627792D01*
X115824430Y-120627792D02*
X115662805Y-120466168D01*
X115662805Y-120466168D02*
X115635868Y-120385356D01*
X115635868Y-120385356D02*
X115635868Y-120331481D01*
X133119556Y-119065423D02*
X133092619Y-118984611D01*
X133092619Y-118984611D02*
X133011807Y-118903799D01*
X133011807Y-118903799D02*
X132904057Y-118849924D01*
X132904057Y-118849924D02*
X132796308Y-118849924D01*
X132796308Y-118849924D02*
X132715495Y-118876861D01*
X132715495Y-118876861D02*
X132580808Y-118957674D01*
X132580808Y-118957674D02*
X132499996Y-119038486D01*
X132499996Y-119038486D02*
X132419184Y-119173173D01*
X132419184Y-119173173D02*
X132392247Y-119253985D01*
X132392247Y-119253985D02*
X132392247Y-119361735D01*
X132392247Y-119361735D02*
X132446121Y-119469484D01*
X132446121Y-119469484D02*
X132499996Y-119523359D01*
X132499996Y-119523359D02*
X132607746Y-119577234D01*
X132607746Y-119577234D02*
X132661621Y-119577234D01*
X132661621Y-119577234D02*
X132850182Y-119388672D01*
X132850182Y-119388672D02*
X132742433Y-119280922D01*
X132850182Y-119873545D02*
X133415868Y-119307860D01*
X133415868Y-119307860D02*
X133631367Y-119523359D01*
X133631367Y-119523359D02*
X133658304Y-119604171D01*
X133658304Y-119604171D02*
X133658304Y-119658046D01*
X133658304Y-119658046D02*
X133631367Y-119738858D01*
X133631367Y-119738858D02*
X133550555Y-119819670D01*
X133550555Y-119819670D02*
X133469743Y-119846608D01*
X133469743Y-119846608D02*
X133415868Y-119846608D01*
X133415868Y-119846608D02*
X133335056Y-119819670D01*
X133335056Y-119819670D02*
X133119556Y-119604171D01*
X133442805Y-120466168D02*
X133550555Y-120573918D01*
X133550555Y-120573918D02*
X133631367Y-120600855D01*
X133631367Y-120600855D02*
X133685242Y-120600855D01*
X133685242Y-120600855D02*
X133819929Y-120573918D01*
X133819929Y-120573918D02*
X133954616Y-120493105D01*
X133954616Y-120493105D02*
X134170115Y-120277606D01*
X134170115Y-120277606D02*
X134197052Y-120196794D01*
X134197052Y-120196794D02*
X134197052Y-120142919D01*
X134197052Y-120142919D02*
X134170115Y-120062107D01*
X134170115Y-120062107D02*
X134062365Y-119954357D01*
X134062365Y-119954357D02*
X133981553Y-119927420D01*
X133981553Y-119927420D02*
X133927678Y-119927420D01*
X133927678Y-119927420D02*
X133846866Y-119954357D01*
X133846866Y-119954357D02*
X133712179Y-120089044D01*
X133712179Y-120089044D02*
X133685242Y-120169857D01*
X133685242Y-120169857D02*
X133685242Y-120223731D01*
X133685242Y-120223731D02*
X133712179Y-120304544D01*
X133712179Y-120304544D02*
X133819929Y-120412293D01*
X133819929Y-120412293D02*
X133900741Y-120439231D01*
X133900741Y-120439231D02*
X133954616Y-120439231D01*
X133954616Y-120439231D02*
X134035428Y-120412293D01*
X115140182Y-93042174D02*
X115490368Y-93392360D01*
X115490368Y-93392360D02*
X115086307Y-93419298D01*
X115086307Y-93419298D02*
X115167119Y-93500110D01*
X115167119Y-93500110D02*
X115194057Y-93580922D01*
X115194057Y-93580922D02*
X115194057Y-93634797D01*
X115194057Y-93634797D02*
X115167119Y-93715609D01*
X115167119Y-93715609D02*
X115032432Y-93850296D01*
X115032432Y-93850296D02*
X114951620Y-93877233D01*
X114951620Y-93877233D02*
X114897745Y-93877233D01*
X114897745Y-93877233D02*
X114816933Y-93850296D01*
X114816933Y-93850296D02*
X114655309Y-93688672D01*
X114655309Y-93688672D02*
X114628371Y-93607859D01*
X114628371Y-93607859D02*
X114628371Y-93553985D01*
X115651993Y-93553985D02*
X115274869Y-94308232D01*
X115274869Y-94308232D02*
X116029116Y-93931108D01*
X116163803Y-94065795D02*
X116513989Y-94415981D01*
X116513989Y-94415981D02*
X116109928Y-94442919D01*
X116109928Y-94442919D02*
X116190741Y-94523731D01*
X116190741Y-94523731D02*
X116217678Y-94604543D01*
X116217678Y-94604543D02*
X116217678Y-94658418D01*
X116217678Y-94658418D02*
X116190741Y-94739230D01*
X116190741Y-94739230D02*
X116056054Y-94873917D01*
X116056054Y-94873917D02*
X115975241Y-94900855D01*
X115975241Y-94900855D02*
X115921367Y-94900855D01*
X115921367Y-94900855D02*
X115840554Y-94873917D01*
X115840554Y-94873917D02*
X115678930Y-94712293D01*
X115678930Y-94712293D02*
X115651993Y-94631481D01*
X115651993Y-94631481D02*
X115651993Y-94577606D01*
X114897001Y-91107115D02*
X115166375Y-91376489D01*
X114681501Y-91214864D02*
X115435749Y-90837741D01*
X115435749Y-90837741D02*
X115058625Y-91591988D01*
X115247187Y-91780550D02*
X115812872Y-91214864D01*
X115812872Y-91214864D02*
X115947559Y-91349551D01*
X115947559Y-91349551D02*
X116001434Y-91457301D01*
X116001434Y-91457301D02*
X116001434Y-91565050D01*
X116001434Y-91565050D02*
X115974497Y-91645863D01*
X115974497Y-91645863D02*
X115893684Y-91780550D01*
X115893684Y-91780550D02*
X115812872Y-91861362D01*
X115812872Y-91861362D02*
X115678185Y-91942174D01*
X115678185Y-91942174D02*
X115597373Y-91969111D01*
X115597373Y-91969111D02*
X115489623Y-91969111D01*
X115489623Y-91969111D02*
X115381874Y-91915237D01*
X115381874Y-91915237D02*
X115247187Y-91780550D01*
X116189996Y-92615609D02*
X116136121Y-92615609D01*
X116136121Y-92615609D02*
X116028371Y-92561734D01*
X116028371Y-92561734D02*
X115974497Y-92507859D01*
X115974497Y-92507859D02*
X115920622Y-92400110D01*
X115920622Y-92400110D02*
X115920622Y-92292360D01*
X115920622Y-92292360D02*
X115947559Y-92211548D01*
X115947559Y-92211548D02*
X116028371Y-92076861D01*
X116028371Y-92076861D02*
X116109184Y-91996049D01*
X116109184Y-91996049D02*
X116243871Y-91915237D01*
X116243871Y-91915237D02*
X116324683Y-91888299D01*
X116324683Y-91888299D02*
X116432432Y-91888299D01*
X116432432Y-91888299D02*
X116540182Y-91942174D01*
X116540182Y-91942174D02*
X116594057Y-91996049D01*
X116594057Y-91996049D02*
X116647932Y-92103798D01*
X116647932Y-92103798D02*
X116647932Y-92157673D01*
X116189996Y-92831108D02*
X116620994Y-93262107D01*
X117294429Y-92696421D02*
X116917306Y-93450669D01*
X116917306Y-93450669D02*
X117671553Y-93073545D01*
X117617678Y-94151041D02*
X117698490Y-93693105D01*
X117294429Y-93827792D02*
X117860115Y-93262107D01*
X117860115Y-93262107D02*
X118075614Y-93477606D01*
X118075614Y-93477606D02*
X118102551Y-93558418D01*
X118102551Y-93558418D02*
X118102551Y-93612293D01*
X118102551Y-93612293D02*
X118075614Y-93693105D01*
X118075614Y-93693105D02*
X117994802Y-93773917D01*
X117994802Y-93773917D02*
X117913989Y-93800855D01*
X117913989Y-93800855D02*
X117860115Y-93800855D01*
X117860115Y-93800855D02*
X117779302Y-93773917D01*
X117779302Y-93773917D02*
X117563803Y-93558418D01*
X118156426Y-94097166D02*
X118344988Y-94285728D01*
X118129489Y-94662851D02*
X117860115Y-94393477D01*
X117860115Y-94393477D02*
X118425800Y-93827792D01*
X118425800Y-93827792D02*
X118695174Y-94097166D01*
X118856799Y-94797539D02*
X118668237Y-94608977D01*
X118371925Y-94905288D02*
X118937611Y-94339603D01*
X118937611Y-94339603D02*
X119206985Y-94608977D01*
X107709556Y-119165423D02*
X107682619Y-119084611D01*
X107682619Y-119084611D02*
X107601807Y-119003799D01*
X107601807Y-119003799D02*
X107494057Y-118949924D01*
X107494057Y-118949924D02*
X107386308Y-118949924D01*
X107386308Y-118949924D02*
X107305495Y-118976861D01*
X107305495Y-118976861D02*
X107170808Y-119057674D01*
X107170808Y-119057674D02*
X107089996Y-119138486D01*
X107089996Y-119138486D02*
X107009184Y-119273173D01*
X107009184Y-119273173D02*
X106982247Y-119353985D01*
X106982247Y-119353985D02*
X106982247Y-119461735D01*
X106982247Y-119461735D02*
X107036121Y-119569484D01*
X107036121Y-119569484D02*
X107089996Y-119623359D01*
X107089996Y-119623359D02*
X107197746Y-119677234D01*
X107197746Y-119677234D02*
X107251621Y-119677234D01*
X107251621Y-119677234D02*
X107440182Y-119488672D01*
X107440182Y-119488672D02*
X107332433Y-119380922D01*
X107440182Y-119973545D02*
X108005868Y-119407860D01*
X108005868Y-119407860D02*
X108221367Y-119623359D01*
X108221367Y-119623359D02*
X108248304Y-119704171D01*
X108248304Y-119704171D02*
X108248304Y-119758046D01*
X108248304Y-119758046D02*
X108221367Y-119838858D01*
X108221367Y-119838858D02*
X108140555Y-119919670D01*
X108140555Y-119919670D02*
X108059743Y-119946608D01*
X108059743Y-119946608D02*
X108005868Y-119946608D01*
X108005868Y-119946608D02*
X107925056Y-119919670D01*
X107925056Y-119919670D02*
X107709556Y-119704171D01*
X108302179Y-120835542D02*
X107978930Y-120512293D01*
X108140555Y-120673918D02*
X108706240Y-120108232D01*
X108706240Y-120108232D02*
X108571553Y-120135170D01*
X108571553Y-120135170D02*
X108463804Y-120135170D01*
X108463804Y-120135170D02*
X108382991Y-120108232D01*
X110232619Y-93438486D02*
X110205682Y-93357674D01*
X110205682Y-93357674D02*
X110124870Y-93276862D01*
X110124870Y-93276862D02*
X110017120Y-93222987D01*
X110017120Y-93222987D02*
X109909370Y-93222987D01*
X109909370Y-93222987D02*
X109828558Y-93249924D01*
X109828558Y-93249924D02*
X109693871Y-93330736D01*
X109693871Y-93330736D02*
X109613059Y-93411549D01*
X109613059Y-93411549D02*
X109532247Y-93546236D01*
X109532247Y-93546236D02*
X109505309Y-93627048D01*
X109505309Y-93627048D02*
X109505309Y-93734797D01*
X109505309Y-93734797D02*
X109559184Y-93842547D01*
X109559184Y-93842547D02*
X109613059Y-93896422D01*
X109613059Y-93896422D02*
X109720809Y-93950297D01*
X109720809Y-93950297D02*
X109774683Y-93950297D01*
X109774683Y-93950297D02*
X109963245Y-93761735D01*
X109963245Y-93761735D02*
X109855496Y-93653985D01*
X109963245Y-94246608D02*
X110528931Y-93680923D01*
X110528931Y-93680923D02*
X110286494Y-94569857D01*
X110286494Y-94569857D02*
X110852179Y-94004171D01*
X110555868Y-94839231D02*
X111121553Y-94273545D01*
X111121553Y-94273545D02*
X111256240Y-94408232D01*
X111256240Y-94408232D02*
X111310115Y-94515982D01*
X111310115Y-94515982D02*
X111310115Y-94623731D01*
X111310115Y-94623731D02*
X111283178Y-94704544D01*
X111283178Y-94704544D02*
X111202365Y-94839231D01*
X111202365Y-94839231D02*
X111121553Y-94920043D01*
X111121553Y-94920043D02*
X110986866Y-95000855D01*
X110986866Y-95000855D02*
X110906054Y-95027792D01*
X110906054Y-95027792D02*
X110798304Y-95027792D01*
X110798304Y-95027792D02*
X110690555Y-94973918D01*
X110690555Y-94973918D02*
X110555868Y-94839231D01*
X104503465Y-92305457D02*
X104126341Y-93059704D01*
X104126341Y-93059704D02*
X104880588Y-92682580D01*
X104988338Y-93329078D02*
X105042212Y-93436827D01*
X105042212Y-93436827D02*
X105042212Y-93490702D01*
X105042212Y-93490702D02*
X105015275Y-93571514D01*
X105015275Y-93571514D02*
X104934463Y-93652327D01*
X104934463Y-93652327D02*
X104853651Y-93679264D01*
X104853651Y-93679264D02*
X104799776Y-93679264D01*
X104799776Y-93679264D02*
X104718964Y-93652327D01*
X104718964Y-93652327D02*
X104503464Y-93436827D01*
X104503464Y-93436827D02*
X105069150Y-92871142D01*
X105069150Y-92871142D02*
X105257712Y-93059704D01*
X105257712Y-93059704D02*
X105284649Y-93140516D01*
X105284649Y-93140516D02*
X105284649Y-93194391D01*
X105284649Y-93194391D02*
X105257712Y-93275203D01*
X105257712Y-93275203D02*
X105203837Y-93329078D01*
X105203837Y-93329078D02*
X105123025Y-93356015D01*
X105123025Y-93356015D02*
X105069150Y-93356015D01*
X105069150Y-93356015D02*
X104988338Y-93329078D01*
X104988338Y-93329078D02*
X104799776Y-93140516D01*
X105634835Y-93436827D02*
X105176899Y-93894763D01*
X105176899Y-93894763D02*
X105149962Y-93975575D01*
X105149962Y-93975575D02*
X105149962Y-94029450D01*
X105149962Y-94029450D02*
X105176899Y-94110262D01*
X105176899Y-94110262D02*
X105284649Y-94218012D01*
X105284649Y-94218012D02*
X105365461Y-94244949D01*
X105365461Y-94244949D02*
X105419336Y-94244949D01*
X105419336Y-94244949D02*
X105500148Y-94218012D01*
X105500148Y-94218012D02*
X105958084Y-93760076D01*
X105661773Y-94541261D02*
X105715647Y-94649010D01*
X105715647Y-94649010D02*
X105850334Y-94783697D01*
X105850334Y-94783697D02*
X105931147Y-94810635D01*
X105931147Y-94810635D02*
X105985021Y-94810635D01*
X105985021Y-94810635D02*
X106065834Y-94783697D01*
X106065834Y-94783697D02*
X106119708Y-94729822D01*
X106119708Y-94729822D02*
X106146646Y-94649010D01*
X106146646Y-94649010D02*
X106146646Y-94595135D01*
X106146646Y-94595135D02*
X106119708Y-94514323D01*
X106119708Y-94514323D02*
X106038896Y-94379636D01*
X106038896Y-94379636D02*
X106011959Y-94298824D01*
X106011959Y-94298824D02*
X106011959Y-94244949D01*
X106011959Y-94244949D02*
X106038896Y-94164137D01*
X106038896Y-94164137D02*
X106092771Y-94110262D01*
X106092771Y-94110262D02*
X106173583Y-94083325D01*
X106173583Y-94083325D02*
X106227458Y-94083325D01*
X106227458Y-94083325D02*
X106308270Y-94110262D01*
X106308270Y-94110262D02*
X106442957Y-94244949D01*
X106442957Y-94244949D02*
X106496832Y-94352699D01*
X155955251Y-114461575D02*
X155993346Y-114347289D01*
X155993346Y-114347289D02*
X155993346Y-114156813D01*
X155993346Y-114156813D02*
X155955251Y-114080622D01*
X155955251Y-114080622D02*
X155917155Y-114042527D01*
X155917155Y-114042527D02*
X155840965Y-114004432D01*
X155840965Y-114004432D02*
X155764774Y-114004432D01*
X155764774Y-114004432D02*
X155688584Y-114042527D01*
X155688584Y-114042527D02*
X155650489Y-114080622D01*
X155650489Y-114080622D02*
X155612393Y-114156813D01*
X155612393Y-114156813D02*
X155574298Y-114309194D01*
X155574298Y-114309194D02*
X155536203Y-114385384D01*
X155536203Y-114385384D02*
X155498108Y-114423479D01*
X155498108Y-114423479D02*
X155421917Y-114461575D01*
X155421917Y-114461575D02*
X155345727Y-114461575D01*
X155345727Y-114461575D02*
X155269536Y-114423479D01*
X155269536Y-114423479D02*
X155231441Y-114385384D01*
X155231441Y-114385384D02*
X155193346Y-114309194D01*
X155193346Y-114309194D02*
X155193346Y-114118717D01*
X155193346Y-114118717D02*
X155231441Y-114004432D01*
X155193346Y-113737765D02*
X155993346Y-113547289D01*
X155993346Y-113547289D02*
X155421917Y-113394908D01*
X155421917Y-113394908D02*
X155993346Y-113242527D01*
X155993346Y-113242527D02*
X155193346Y-113052051D01*
X155917155Y-112290145D02*
X155955251Y-112328241D01*
X155955251Y-112328241D02*
X155993346Y-112442526D01*
X155993346Y-112442526D02*
X155993346Y-112518717D01*
X155993346Y-112518717D02*
X155955251Y-112633003D01*
X155955251Y-112633003D02*
X155879060Y-112709193D01*
X155879060Y-112709193D02*
X155802870Y-112747288D01*
X155802870Y-112747288D02*
X155650489Y-112785384D01*
X155650489Y-112785384D02*
X155536203Y-112785384D01*
X155536203Y-112785384D02*
X155383822Y-112747288D01*
X155383822Y-112747288D02*
X155307631Y-112709193D01*
X155307631Y-112709193D02*
X155231441Y-112633003D01*
X155231441Y-112633003D02*
X155193346Y-112518717D01*
X155193346Y-112518717D02*
X155193346Y-112442526D01*
X155193346Y-112442526D02*
X155231441Y-112328241D01*
X155231441Y-112328241D02*
X155269536Y-112290145D01*
X155993346Y-111566336D02*
X155993346Y-111947288D01*
X155993346Y-111947288D02*
X155193346Y-111947288D01*
X155993346Y-111299669D02*
X155193346Y-111299669D01*
X155993346Y-110842526D02*
X155536203Y-111185384D01*
X155193346Y-110842526D02*
X155650489Y-111299669D01*
D12*
X158620000Y-118280000D02*
X161420000Y-118280000D01*
X161420000Y-118280000D02*
X161420000Y-95080000D01*
X158620000Y-115570000D02*
X161420000Y-115570000D01*
X158620000Y-95080000D02*
X158620000Y-118280000D01*
X161420000Y-95080000D02*
X158620000Y-95080000D01*
X139471051Y-81612051D02*
X165111051Y-81612051D01*
X165111051Y-81612051D02*
X165111051Y-71332051D01*
X139531051Y-79122051D02*
X165051051Y-79122051D01*
X165051051Y-79122051D02*
X165051051Y-73822051D01*
X139531051Y-77472051D02*
X139531051Y-79122051D01*
X139531051Y-73822051D02*
X139531051Y-75472051D01*
X165051051Y-73822051D02*
X139531051Y-73822051D01*
X139471051Y-71332051D02*
X139471051Y-81612051D01*
X165111051Y-71332051D02*
X139471051Y-71332051D01*
X139531051Y-77472051D02*
G75*
G03*
X139531051Y-75472051I0J1000000D01*
G01*
X106451051Y-81612051D02*
X132091051Y-81612051D01*
X132091051Y-81612051D02*
X132091051Y-71332051D01*
X106511051Y-79122051D02*
X132031051Y-79122051D01*
X132031051Y-79122051D02*
X132031051Y-73822051D01*
X106511051Y-77472051D02*
X106511051Y-79122051D01*
X106511051Y-73822051D02*
X106511051Y-75472051D01*
X132031051Y-73822051D02*
X106511051Y-73822051D01*
X106451051Y-71332051D02*
X106451051Y-81612051D01*
X132091051Y-71332051D02*
X106451051Y-71332051D01*
X106511051Y-77472051D02*
G75*
G03*
X106511051Y-75472051I0J1000000D01*
G01*
X107721051Y-82087051D02*
X107721051Y-82402051D01*
X107721051Y-82087051D02*
X112961051Y-82087051D01*
X107721051Y-84512051D02*
X107721051Y-84827051D01*
X107721051Y-84827051D02*
X112961051Y-84827051D01*
X112961051Y-82087051D02*
X112961051Y-82402051D01*
X112961051Y-84512051D02*
X112961051Y-84827051D01*
X140741051Y-82087051D02*
X140741051Y-82402051D01*
X140741051Y-82087051D02*
X145981051Y-82087051D01*
X140741051Y-84512051D02*
X140741051Y-84827051D01*
X140741051Y-84827051D02*
X145981051Y-84827051D01*
X145981051Y-82087051D02*
X145981051Y-82402051D01*
X145981051Y-84512051D02*
X145981051Y-84827051D01*
X191520000Y-111990000D02*
X191520000Y-113490000D01*
X192770000Y-115990000D02*
X197270000Y-115990000D01*
X197270000Y-109490000D02*
X192770000Y-109490000D01*
X198520000Y-113490000D02*
X198520000Y-111990000D01*
X172491051Y-81612051D02*
X198131051Y-81612051D01*
X198131051Y-81612051D02*
X198131051Y-71332051D01*
X172551051Y-79122051D02*
X198071051Y-79122051D01*
X198071051Y-79122051D02*
X198071051Y-73822051D01*
X172551051Y-77472051D02*
X172551051Y-79122051D01*
X172551051Y-73822051D02*
X172551051Y-75472051D01*
X198071051Y-73822051D02*
X172551051Y-73822051D01*
X172491051Y-71332051D02*
X172491051Y-81612051D01*
X198131051Y-71332051D02*
X172491051Y-71332051D01*
X172551051Y-77472051D02*
G75*
G03*
X172551051Y-75472051I0J1000000D01*
G01*
X173761051Y-82214051D02*
X173761051Y-82529051D01*
X173761051Y-82214051D02*
X179001051Y-82214051D01*
X173761051Y-84639051D02*
X173761051Y-84954051D01*
X173761051Y-84954051D02*
X179001051Y-84954051D01*
X179001051Y-82214051D02*
X179001051Y-82529051D01*
X179001051Y-84639051D02*
X179001051Y-84954051D01*
D13*
X95136051Y-54502051D02*
X210706051Y-54502051D01*
X95136051Y-61872051D02*
X95136051Y-54502051D01*
X210706051Y-54502051D02*
X210706051Y-61872051D01*
X210706051Y-61872051D02*
X95136051Y-61872051D01*
D12*
X103931051Y-117452051D02*
X104231051Y-117452051D01*
X103931051Y-117452051D02*
X103931051Y-96452051D01*
X106331051Y-117452051D02*
X106731051Y-117452051D01*
X106598051Y-117452051D02*
X106598051Y-114445051D01*
X108931051Y-117452051D02*
X109331051Y-117452051D01*
X111431051Y-117452051D02*
X111831051Y-117452051D01*
X114031051Y-117452051D02*
X114431051Y-117452051D01*
X116531051Y-117452051D02*
X116931051Y-117452051D01*
X119031051Y-117452051D02*
X119431051Y-117452051D01*
X121631051Y-117452051D02*
X122031051Y-117452051D01*
X124131051Y-117452051D02*
X124531051Y-117452051D01*
X126731051Y-117452051D02*
X127131051Y-117452051D01*
X129231051Y-117452051D02*
X129631051Y-117452051D01*
X131731051Y-117452051D02*
X132131051Y-117452051D01*
X134331051Y-117452051D02*
X134731051Y-117452051D01*
X136831051Y-117452051D02*
X137231051Y-117452051D01*
X139431051Y-117452051D02*
X139831051Y-117452051D01*
X141931051Y-117452051D02*
X142331051Y-117452051D01*
X144531051Y-117452051D02*
X144931051Y-117452051D01*
X147031051Y-117452051D02*
X147431051Y-117452051D01*
X149531051Y-117452051D02*
X149931051Y-117452051D01*
X152131051Y-117452051D02*
X152531051Y-117452051D01*
X106598051Y-114445051D02*
X103931051Y-114445051D01*
X154931051Y-110652051D02*
X154931051Y-117452051D01*
X154931051Y-108452051D02*
X154931051Y-108052051D01*
X154931051Y-105852051D02*
X154931051Y-105452051D01*
X103931051Y-96452051D02*
X104231051Y-96452051D01*
X106331051Y-96452051D02*
X106731051Y-96452051D01*
X108931051Y-96452051D02*
X109331051Y-96452051D01*
X111431051Y-96452051D02*
X111831051Y-96452051D01*
X114031051Y-96452051D02*
X114431051Y-96452051D01*
X116531051Y-96452051D02*
X116931051Y-96452051D01*
X119031051Y-96452051D02*
X119431051Y-96452051D01*
X121631051Y-96452051D02*
X122031051Y-96452051D01*
X124131051Y-96452051D02*
X124531051Y-96452051D01*
X126731051Y-96452051D02*
X127131051Y-96452051D01*
X129231051Y-96452051D02*
X129631051Y-96452051D01*
X131731051Y-96452051D02*
X132131051Y-96452051D01*
X134331051Y-96452051D02*
X134731051Y-96452051D01*
X136831051Y-96452051D02*
X137231051Y-96452051D01*
X139431051Y-96452051D02*
X139831051Y-96452051D01*
X141931051Y-96452051D02*
X142331051Y-96452051D01*
X144531051Y-96452051D02*
X144931051Y-96452051D01*
X147031051Y-96452051D02*
X147431051Y-96452051D01*
X149531051Y-96452051D02*
X149931051Y-96452051D01*
X152131051Y-96452051D02*
X152531051Y-96452051D01*
X154931051Y-96452051D02*
X154931051Y-103252051D01*
%LPC*%
D14*
X160020000Y-116840000D03*
D15*
X160020000Y-114300000D03*
X160020000Y-111760000D03*
X160020000Y-109220000D03*
X160020000Y-106680000D03*
X160020000Y-104140000D03*
X160020000Y-101600000D03*
X160020000Y-99060000D03*
X160020000Y-96520000D03*
D14*
X140861051Y-80282051D03*
D15*
X143401051Y-80282051D03*
X145941051Y-80282051D03*
X148481051Y-80282051D03*
X151021051Y-80282051D03*
X153561051Y-80282051D03*
X156101051Y-80282051D03*
X158641051Y-80282051D03*
X161181051Y-80282051D03*
X163721051Y-80282051D03*
X163721051Y-72662051D03*
X161181051Y-72662051D03*
X158641051Y-72662051D03*
X156101051Y-72662051D03*
X153561051Y-72662051D03*
X151021051Y-72662051D03*
X148481051Y-72662051D03*
X145941051Y-72662051D03*
X143401051Y-72662051D03*
X140861051Y-72662051D03*
D14*
X107841051Y-80282051D03*
D15*
X110381051Y-80282051D03*
X112921051Y-80282051D03*
X115461051Y-80282051D03*
X118001051Y-80282051D03*
X120541051Y-80282051D03*
X123081051Y-80282051D03*
X125621051Y-80282051D03*
X128161051Y-80282051D03*
X130701051Y-80282051D03*
X130701051Y-72662051D03*
X128161051Y-72662051D03*
X125621051Y-72662051D03*
X123081051Y-72662051D03*
X120541051Y-72662051D03*
X118001051Y-72662051D03*
X115461051Y-72662051D03*
X112921051Y-72662051D03*
X110381051Y-72662051D03*
X107841051Y-72662051D03*
D16*
X107841051Y-83457051D03*
X112841051Y-83457051D03*
X140861051Y-83457051D03*
X145861051Y-83457051D03*
D17*
X191770000Y-110490000D03*
X198270000Y-110490000D03*
X191770000Y-114990000D03*
X198270000Y-114990000D03*
D14*
X173881051Y-80282051D03*
D15*
X176421051Y-80282051D03*
X178961051Y-80282051D03*
X181501051Y-80282051D03*
X184041051Y-80282051D03*
X186581051Y-80282051D03*
X189121051Y-80282051D03*
X191661051Y-80282051D03*
X194201051Y-80282051D03*
X196741051Y-80282051D03*
X196741051Y-72662051D03*
X194201051Y-72662051D03*
X191661051Y-72662051D03*
X189121051Y-72662051D03*
X186581051Y-72662051D03*
X184041051Y-72662051D03*
X181501051Y-72662051D03*
X178961051Y-72662051D03*
X176421051Y-72662051D03*
X173881051Y-72662051D03*
D16*
X173881051Y-83584051D03*
X178881051Y-83584051D03*
D18*
X97041051Y-58692051D03*
D19*
X152921051Y-58692051D03*
X208801051Y-58692051D03*
D20*
X105301051Y-57422051D03*
D21*
X106571051Y-59962051D03*
X107841051Y-57422051D03*
X109111051Y-59962051D03*
X110381051Y-57422051D03*
X111651051Y-59962051D03*
X112921051Y-57422051D03*
X114191051Y-59962051D03*
X115461051Y-57422051D03*
X116731051Y-59962051D03*
X118001051Y-57422051D03*
X119271051Y-59962051D03*
X120541051Y-57422051D03*
X121811051Y-59962051D03*
X123081051Y-57422051D03*
X124351051Y-59962051D03*
X125621051Y-57422051D03*
X126891051Y-59962051D03*
X128161051Y-57422051D03*
X129431051Y-59962051D03*
X130701051Y-57422051D03*
X131971051Y-59962051D03*
X133241051Y-57422051D03*
X134511051Y-59962051D03*
X135781051Y-57422051D03*
X137051051Y-59962051D03*
X138321051Y-57422051D03*
X139591051Y-59962051D03*
X140861051Y-57422051D03*
X142131051Y-59962051D03*
X143401051Y-57422051D03*
X144671051Y-59962051D03*
X145941051Y-57422051D03*
X147211051Y-59962051D03*
X148481051Y-57422051D03*
X149751051Y-59962051D03*
X156101051Y-57422051D03*
X157371051Y-59962051D03*
X158641051Y-57422051D03*
X159911051Y-59962051D03*
X161181051Y-57422051D03*
X162451051Y-59962051D03*
X163721051Y-57422051D03*
X164991051Y-59962051D03*
X166261051Y-57422051D03*
X167531051Y-59962051D03*
X168801051Y-57422051D03*
X170071051Y-59962051D03*
X171341051Y-57422051D03*
X172611051Y-59962051D03*
X173881051Y-57422051D03*
X175151051Y-59962051D03*
X176421051Y-57422051D03*
X177691051Y-59962051D03*
X178961051Y-57422051D03*
X180231051Y-59962051D03*
X181501051Y-57422051D03*
X182771051Y-59962051D03*
X184041051Y-57422051D03*
X185311051Y-59962051D03*
X186581051Y-57422051D03*
X187851051Y-59962051D03*
X189121051Y-57422051D03*
X190391051Y-59962051D03*
X191661051Y-57422051D03*
X192931051Y-59962051D03*
X194201051Y-57422051D03*
X195471051Y-59962051D03*
X196741051Y-57422051D03*
X198011051Y-59962051D03*
X199281051Y-57422051D03*
X200551051Y-59962051D03*
D22*
X105431051Y-109677051D03*
D23*
X108461051Y-109377051D03*
X108461051Y-104527051D03*
D22*
X105431051Y-104227051D03*
D24*
X105301051Y-115842051D03*
D25*
X105301051Y-116742051D03*
D24*
X107841051Y-115842051D03*
D25*
X107841051Y-116742051D03*
D26*
X110381051Y-115842051D03*
D25*
X110381051Y-116742051D03*
D24*
X112921051Y-115842051D03*
D25*
X112921051Y-116742051D03*
D24*
X115461051Y-115842051D03*
D25*
X115461051Y-116742051D03*
D24*
X118001051Y-115842051D03*
D25*
X118001051Y-116742051D03*
D24*
X120541051Y-115842051D03*
D25*
X120541051Y-116742051D03*
D26*
X123081051Y-115842051D03*
D25*
X123081051Y-116742051D03*
D24*
X125621051Y-115842051D03*
D25*
X125621051Y-116742051D03*
D24*
X128161051Y-115842051D03*
D25*
X128161051Y-116742051D03*
D24*
X130701051Y-115842051D03*
D25*
X130701051Y-116742051D03*
D24*
X133241051Y-115842051D03*
D25*
X133241051Y-116742051D03*
D26*
X135781051Y-115842051D03*
D25*
X135781051Y-116742051D03*
D24*
X138321051Y-115842051D03*
D25*
X138321051Y-116742051D03*
D24*
X140861051Y-115842051D03*
D25*
X140861051Y-116742051D03*
D24*
X143401051Y-115842051D03*
D25*
X143401051Y-116742051D03*
D24*
X145941051Y-115842051D03*
D25*
X145941051Y-116742051D03*
D26*
X148481051Y-115842051D03*
D25*
X148481051Y-116742051D03*
D24*
X151021051Y-115842051D03*
D25*
X151021051Y-116742051D03*
D24*
X153561051Y-115842051D03*
D25*
X153561051Y-116742051D03*
D24*
X153561051Y-98062051D03*
D25*
X153561051Y-97162051D03*
D24*
X151021051Y-98062051D03*
D25*
X151021051Y-97162051D03*
D26*
X148481051Y-98062051D03*
D25*
X148481051Y-97162051D03*
D24*
X145941051Y-98062051D03*
D25*
X145941051Y-97162051D03*
D24*
X143401051Y-98062051D03*
D25*
X143401051Y-97162051D03*
D24*
X140861051Y-98062051D03*
D25*
X140861051Y-97162051D03*
D24*
X138321051Y-98062051D03*
D25*
X138321051Y-97162051D03*
D26*
X135781051Y-98062051D03*
D25*
X135781051Y-97162051D03*
D24*
X133241051Y-98062051D03*
D25*
X133241051Y-97162051D03*
D24*
X130701051Y-98062051D03*
D25*
X130701051Y-97162051D03*
D24*
X128161051Y-98062051D03*
D25*
X128161051Y-97162051D03*
D24*
X125621051Y-98062051D03*
D25*
X125621051Y-97162051D03*
D26*
X123081051Y-98062051D03*
D25*
X123081051Y-97162051D03*
D24*
X120541051Y-98062051D03*
D25*
X120541051Y-97162051D03*
D24*
X118001051Y-98062051D03*
D25*
X118001051Y-97162051D03*
D24*
X115461051Y-98062051D03*
D25*
X115461051Y-97162051D03*
D24*
X112921051Y-98062051D03*
D25*
X112921051Y-97162051D03*
D26*
X110381051Y-98062051D03*
D25*
X110381051Y-97162051D03*
D24*
X107841051Y-98062051D03*
D25*
X107841051Y-97162051D03*
D24*
X105301051Y-98062051D03*
D25*
X105301051Y-97162051D03*
D24*
X153331051Y-109492051D03*
D27*
X154231051Y-109492051D03*
D26*
X153331051Y-106952051D03*
D27*
X154231051Y-106952051D03*
D24*
X153331051Y-104412051D03*
D27*
X154231051Y-104412051D03*
%LPD*%
M02*
