%TF.GenerationSoftware,KiCad,Pcbnew,9.0.0*%
%TF.CreationDate,2025-05-26T23:54:58+02:00*%
%TF.ProjectId,ckbd,636b6264-2e6b-4696-9361-645f70636258,c*%
%TF.SameCoordinates,Original*%
%TF.FileFunction,Drillmap*%
%TF.FilePolarity,Positive*%
%FSLAX45Y45*%
G04 Gerber Fmt 4.5, Leading zero omitted, Abs format (unit mm)*
G04 Created by KiCad (PCBNEW 9.0.0) date 2025-05-26 23:54:58*
%MOMM*%
%LPD*%
G01*
G04 APERTURE LIST*
%ADD10C,0.050000*%
%ADD11C,0.200000*%
%ADD12C,0.100000*%
G04 APERTURE END LIST*
D10*
X13896340Y-4808220D02*
G75*
G02*
X14023340Y-4935220I0J-127000D01*
G01*
X10467340Y-4008120D02*
G75*
G02*
X10594340Y-3881120I127000J0D01*
G01*
X11991340Y-4808220D02*
G75*
G02*
X11864340Y-4681220I0J127000D01*
G01*
X14023340Y-7691120D02*
G75*
G02*
X13896340Y-7818120I-127000J0D01*
G01*
X10467340Y-4008120D02*
X10467340Y-7691120D01*
X11737340Y-3881120D02*
X10594340Y-3881120D01*
X10594340Y-7818120D02*
X13896340Y-7818120D01*
X13896340Y-4808220D02*
X11991340Y-4808220D01*
X10594340Y-7818120D02*
G75*
G02*
X10467340Y-7691120I0J127000D01*
G01*
X11864340Y-4008120D02*
X11864340Y-4681220D01*
X11737340Y-3881120D02*
G75*
G02*
X11864340Y-4008120I0J-127000D01*
G01*
X14023340Y-7691120D02*
X14023340Y-4935220D01*
D11*
D12*
X10992340Y-6399520D02*
X11022340Y-6429520D01*
X11022340Y-6399520D02*
X10992340Y-6429520D01*
X10993360Y-5903200D02*
X11023360Y-5933200D01*
X11023360Y-5903200D02*
X10993360Y-5933200D01*
X11087340Y-4318240D02*
X11117340Y-4348240D01*
X11117340Y-4318240D02*
X11087340Y-4348240D01*
X11087340Y-6799820D02*
X11117340Y-6829820D01*
X11117340Y-6799820D02*
X11087340Y-6829820D01*
X11087340Y-7257020D02*
X11117340Y-7287020D01*
X11117340Y-7257020D02*
X11087340Y-7287020D01*
X11087340Y-7574520D02*
X11117340Y-7604520D01*
X11117340Y-7574520D02*
X11087340Y-7604520D01*
X11182340Y-6400020D02*
X11212340Y-6430020D01*
X11212340Y-6400020D02*
X11182340Y-6430020D01*
X11722340Y-6533120D02*
X11752340Y-6563120D01*
X11752340Y-6533120D02*
X11722340Y-6563120D01*
X11812200Y-6279120D02*
X11842200Y-6309120D01*
X11842200Y-6279120D02*
X11812200Y-6309120D01*
X11950940Y-6482320D02*
X11980940Y-6512320D01*
X11980940Y-6482320D02*
X11950940Y-6512320D01*
X12014440Y-6710920D02*
X12044440Y-6740920D01*
X12044440Y-6710920D02*
X12014440Y-6740920D01*
X12103340Y-6152120D02*
X12133340Y-6182120D01*
X12133340Y-6152120D02*
X12103340Y-6182120D01*
X12268440Y-6710920D02*
X12298440Y-6740920D01*
X12298440Y-6710920D02*
X12268440Y-6740920D01*
X12420840Y-5910820D02*
X12450840Y-5940820D01*
X12450840Y-5910820D02*
X12420840Y-5940820D01*
X12459126Y-6152120D02*
X12489126Y-6182120D01*
X12489126Y-6152120D02*
X12459126Y-6182120D01*
X12497040Y-5961620D02*
X12527040Y-5991620D01*
X12527040Y-5961620D02*
X12497040Y-5991620D01*
X12535140Y-6101320D02*
X12565140Y-6131320D01*
X12565140Y-6101320D02*
X12535140Y-6131320D01*
X12624040Y-6152120D02*
X12654040Y-6182120D01*
X12654040Y-6152120D02*
X12624040Y-6182120D01*
X12662540Y-5555220D02*
X12692540Y-5585220D01*
X12692540Y-5555220D02*
X12662540Y-5585220D01*
X12682460Y-5400650D02*
X12712460Y-5430650D01*
X12712460Y-5400650D02*
X12682460Y-5430650D01*
X12700240Y-6060680D02*
X12730240Y-6090680D01*
X12730240Y-6060680D02*
X12700240Y-6090680D01*
X12812000Y-6380720D02*
X12842000Y-6410720D01*
X12842000Y-6380720D02*
X12812000Y-6410720D01*
X12852640Y-6182600D02*
X12882640Y-6212600D01*
X12882640Y-6182600D02*
X12852640Y-6212600D01*
X12966940Y-5400280D02*
X12996940Y-5430280D01*
X12996940Y-5400280D02*
X12966940Y-5430280D01*
X13198080Y-5496800D02*
X13228080Y-5526800D01*
X13228080Y-5496800D02*
X13198080Y-5526800D01*
X13540365Y-5977475D02*
X13570365Y-6007475D01*
X13570365Y-5977475D02*
X13540365Y-6007475D01*
X13641965Y-5977475D02*
X13671965Y-6007475D01*
X13671965Y-5977475D02*
X13641965Y-6007475D01*
X13641965Y-6104475D02*
X13671965Y-6134475D01*
X13671965Y-6104475D02*
X13641965Y-6134475D01*
X13741640Y-5593320D02*
X13771640Y-5623320D01*
X13771640Y-5593320D02*
X13741640Y-5623320D01*
X13741640Y-7168120D02*
X13771640Y-7198120D01*
X13771640Y-7168120D02*
X13741640Y-7198120D01*
X13741640Y-7427200D02*
X13771640Y-7457200D01*
X13771640Y-7427200D02*
X13741640Y-7457200D01*
X13743565Y-6358475D02*
X13773565Y-6388475D01*
X13773565Y-6358475D02*
X13743565Y-6388475D01*
X13849015Y-5981325D02*
X13879015Y-6011325D01*
X13879015Y-5981325D02*
X13849015Y-6011325D01*
X10771340Y-4135120D02*
G75*
G02*
X10671340Y-4135120I-50000J0D01*
G01*
X10671340Y-4135120D02*
G75*
G02*
X10771340Y-4135120I50000J0D01*
G01*
X10771340Y-4389120D02*
G75*
G02*
X10671340Y-4389120I-50000J0D01*
G01*
X10671340Y-4389120D02*
G75*
G02*
X10771340Y-4389120I50000J0D01*
G01*
X10771340Y-4643120D02*
G75*
G02*
X10671340Y-4643120I-50000J0D01*
G01*
X10671340Y-4643120D02*
G75*
G02*
X10771340Y-4643120I50000J0D01*
G01*
X10771340Y-4897120D02*
G75*
G02*
X10671340Y-4897120I-50000J0D01*
G01*
X10671340Y-4897120D02*
G75*
G02*
X10771340Y-4897120I50000J0D01*
G01*
X10771340Y-5151120D02*
G75*
G02*
X10671340Y-5151120I-50000J0D01*
G01*
X10671340Y-5151120D02*
G75*
G02*
X10771340Y-5151120I50000J0D01*
G01*
X10771340Y-5405120D02*
G75*
G02*
X10671340Y-5405120I-50000J0D01*
G01*
X10671340Y-5405120D02*
G75*
G02*
X10771340Y-5405120I50000J0D01*
G01*
X10771340Y-5659120D02*
G75*
G02*
X10671340Y-5659120I-50000J0D01*
G01*
X10671340Y-5659120D02*
G75*
G02*
X10771340Y-5659120I50000J0D01*
G01*
X10771340Y-5913120D02*
G75*
G02*
X10671340Y-5913120I-50000J0D01*
G01*
X10671340Y-5913120D02*
G75*
G02*
X10771340Y-5913120I50000J0D01*
G01*
X10771340Y-6167120D02*
G75*
G02*
X10671340Y-6167120I-50000J0D01*
G01*
X10671340Y-6167120D02*
G75*
G02*
X10771340Y-6167120I50000J0D01*
G01*
X10771340Y-6421120D02*
G75*
G02*
X10671340Y-6421120I-50000J0D01*
G01*
X10671340Y-6421120D02*
G75*
G02*
X10771340Y-6421120I50000J0D01*
G01*
X10771340Y-6675120D02*
G75*
G02*
X10671340Y-6675120I-50000J0D01*
G01*
X10671340Y-6675120D02*
G75*
G02*
X10771340Y-6675120I50000J0D01*
G01*
X10771340Y-6929120D02*
G75*
G02*
X10671340Y-6929120I-50000J0D01*
G01*
X10671340Y-6929120D02*
G75*
G02*
X10771340Y-6929120I50000J0D01*
G01*
X10771340Y-7183120D02*
G75*
G02*
X10671340Y-7183120I-50000J0D01*
G01*
X10671340Y-7183120D02*
G75*
G02*
X10771340Y-7183120I50000J0D01*
G01*
X10771340Y-7437120D02*
G75*
G02*
X10671340Y-7437120I-50000J0D01*
G01*
X10671340Y-7437120D02*
G75*
G02*
X10771340Y-7437120I50000J0D01*
G01*
X11147260Y-4897120D02*
G75*
G02*
X11047260Y-4897120I-50000J0D01*
G01*
X11047260Y-4897120D02*
G75*
G02*
X11147260Y-4897120I50000J0D01*
G01*
X11147260Y-5151120D02*
G75*
G02*
X11047260Y-5151120I-50000J0D01*
G01*
X11047260Y-5151120D02*
G75*
G02*
X11147260Y-5151120I50000J0D01*
G01*
X11147260Y-5405120D02*
G75*
G02*
X11047260Y-5405120I-50000J0D01*
G01*
X11047260Y-5405120D02*
G75*
G02*
X11147260Y-5405120I50000J0D01*
G01*
X11147260Y-5659120D02*
G75*
G02*
X11047260Y-5659120I-50000J0D01*
G01*
X11047260Y-5659120D02*
G75*
G02*
X11147260Y-5659120I50000J0D01*
G01*
X11533340Y-4135120D02*
G75*
G02*
X11433340Y-4135120I-50000J0D01*
G01*
X11433340Y-4135120D02*
G75*
G02*
X11533340Y-4135120I50000J0D01*
G01*
X11533340Y-4389120D02*
G75*
G02*
X11433340Y-4389120I-50000J0D01*
G01*
X11433340Y-4389120D02*
G75*
G02*
X11533340Y-4389120I50000J0D01*
G01*
X11533340Y-4643120D02*
G75*
G02*
X11433340Y-4643120I-50000J0D01*
G01*
X11433340Y-4643120D02*
G75*
G02*
X11533340Y-4643120I50000J0D01*
G01*
X11533340Y-4897120D02*
G75*
G02*
X11433340Y-4897120I-50000J0D01*
G01*
X11433340Y-4897120D02*
G75*
G02*
X11533340Y-4897120I50000J0D01*
G01*
X11533340Y-5151120D02*
G75*
G02*
X11433340Y-5151120I-50000J0D01*
G01*
X11433340Y-5151120D02*
G75*
G02*
X11533340Y-5151120I50000J0D01*
G01*
X11533340Y-5405120D02*
G75*
G02*
X11433340Y-5405120I-50000J0D01*
G01*
X11433340Y-5405120D02*
G75*
G02*
X11533340Y-5405120I50000J0D01*
G01*
X11533340Y-5659120D02*
G75*
G02*
X11433340Y-5659120I-50000J0D01*
G01*
X11433340Y-5659120D02*
G75*
G02*
X11533340Y-5659120I50000J0D01*
G01*
X11533340Y-5913120D02*
G75*
G02*
X11433340Y-5913120I-50000J0D01*
G01*
X11433340Y-5913120D02*
G75*
G02*
X11533340Y-5913120I50000J0D01*
G01*
X11533340Y-6167120D02*
G75*
G02*
X11433340Y-6167120I-50000J0D01*
G01*
X11433340Y-6167120D02*
G75*
G02*
X11533340Y-6167120I50000J0D01*
G01*
X11533340Y-6421120D02*
G75*
G02*
X11433340Y-6421120I-50000J0D01*
G01*
X11433340Y-6421120D02*
G75*
G02*
X11533340Y-6421120I50000J0D01*
G01*
X11533340Y-6675120D02*
G75*
G02*
X11433340Y-6675120I-50000J0D01*
G01*
X11433340Y-6675120D02*
G75*
G02*
X11533340Y-6675120I50000J0D01*
G01*
X11533340Y-6929120D02*
G75*
G02*
X11433340Y-6929120I-50000J0D01*
G01*
X11433340Y-6929120D02*
G75*
G02*
X11533340Y-6929120I50000J0D01*
G01*
X11533340Y-7183120D02*
G75*
G02*
X11433340Y-7183120I-50000J0D01*
G01*
X11433340Y-7183120D02*
G75*
G02*
X11533340Y-7183120I50000J0D01*
G01*
X11533340Y-7437120D02*
G75*
G02*
X11433340Y-7437120I-50000J0D01*
G01*
X11433340Y-7437120D02*
G75*
G02*
X11533340Y-7437120I50000J0D01*
G01*
X12295340Y-7183120D02*
G75*
G02*
X12195340Y-7183120I-50000J0D01*
G01*
X12195340Y-7183120D02*
G75*
G02*
X12295340Y-7183120I50000J0D01*
G01*
X12295340Y-7437120D02*
G75*
G02*
X12195340Y-7437120I-50000J0D01*
G01*
X12195340Y-7437120D02*
G75*
G02*
X12295340Y-7437120I50000J0D01*
G01*
X12549340Y-7183120D02*
G75*
G02*
X12449340Y-7183120I-50000J0D01*
G01*
X12449340Y-7183120D02*
G75*
G02*
X12549340Y-7183120I50000J0D01*
G01*
X12549340Y-7437120D02*
G75*
G02*
X12449340Y-7437120I-50000J0D01*
G01*
X12449340Y-7437120D02*
G75*
G02*
X12549340Y-7437120I50000J0D01*
G01*
X12803340Y-7183120D02*
G75*
G02*
X12703340Y-7183120I-50000J0D01*
G01*
X12703340Y-7183120D02*
G75*
G02*
X12803340Y-7183120I50000J0D01*
G01*
X12803340Y-7437120D02*
G75*
G02*
X12703340Y-7437120I-50000J0D01*
G01*
X12703340Y-7437120D02*
G75*
G02*
X12803340Y-7437120I50000J0D01*
G01*
X13057340Y-7183120D02*
G75*
G02*
X12957340Y-7183120I-50000J0D01*
G01*
X12957340Y-7183120D02*
G75*
G02*
X13057340Y-7183120I50000J0D01*
G01*
X13057340Y-7437120D02*
G75*
G02*
X12957340Y-7437120I-50000J0D01*
G01*
X12957340Y-7437120D02*
G75*
G02*
X13057340Y-7437120I50000J0D01*
G01*
X13311340Y-7183120D02*
G75*
G02*
X13211340Y-7183120I-50000J0D01*
G01*
X13211340Y-7183120D02*
G75*
G02*
X13311340Y-7183120I50000J0D01*
G01*
X13311340Y-7437120D02*
G75*
G02*
X13211340Y-7437120I-50000J0D01*
G01*
X13211340Y-7437120D02*
G75*
G02*
X13311340Y-7437120I50000J0D01*
G01*
D11*
X10725617Y-8132104D02*
X10725617Y-7932104D01*
X10725617Y-7932104D02*
X10773236Y-7932104D01*
X10773236Y-7932104D02*
X10801807Y-7941628D01*
X10801807Y-7941628D02*
X10820855Y-7960675D01*
X10820855Y-7960675D02*
X10830379Y-7979723D01*
X10830379Y-7979723D02*
X10839903Y-8017818D01*
X10839903Y-8017818D02*
X10839903Y-8046389D01*
X10839903Y-8046389D02*
X10830379Y-8084485D01*
X10830379Y-8084485D02*
X10820855Y-8103532D01*
X10820855Y-8103532D02*
X10801807Y-8122580D01*
X10801807Y-8122580D02*
X10773236Y-8132104D01*
X10773236Y-8132104D02*
X10725617Y-8132104D01*
X10925617Y-8132104D02*
X10925617Y-7998770D01*
X10925617Y-8036866D02*
X10935141Y-8017818D01*
X10935141Y-8017818D02*
X10944664Y-8008294D01*
X10944664Y-8008294D02*
X10963712Y-7998770D01*
X10963712Y-7998770D02*
X10982760Y-7998770D01*
X11049426Y-8132104D02*
X11049426Y-7998770D01*
X11049426Y-7932104D02*
X11039903Y-7941628D01*
X11039903Y-7941628D02*
X11049426Y-7951151D01*
X11049426Y-7951151D02*
X11058950Y-7941628D01*
X11058950Y-7941628D02*
X11049426Y-7932104D01*
X11049426Y-7932104D02*
X11049426Y-7951151D01*
X11173236Y-8132104D02*
X11154188Y-8122580D01*
X11154188Y-8122580D02*
X11144664Y-8103532D01*
X11144664Y-8103532D02*
X11144664Y-7932104D01*
X11277998Y-8132104D02*
X11258950Y-8122580D01*
X11258950Y-8122580D02*
X11249426Y-8103532D01*
X11249426Y-8103532D02*
X11249426Y-7932104D01*
X11506569Y-8132104D02*
X11506569Y-7932104D01*
X11506569Y-7932104D02*
X11573236Y-8074961D01*
X11573236Y-8074961D02*
X11639902Y-7932104D01*
X11639902Y-7932104D02*
X11639902Y-8132104D01*
X11820855Y-8132104D02*
X11820855Y-8027342D01*
X11820855Y-8027342D02*
X11811331Y-8008294D01*
X11811331Y-8008294D02*
X11792283Y-7998770D01*
X11792283Y-7998770D02*
X11754188Y-7998770D01*
X11754188Y-7998770D02*
X11735141Y-8008294D01*
X11820855Y-8122580D02*
X11801807Y-8132104D01*
X11801807Y-8132104D02*
X11754188Y-8132104D01*
X11754188Y-8132104D02*
X11735141Y-8122580D01*
X11735141Y-8122580D02*
X11725617Y-8103532D01*
X11725617Y-8103532D02*
X11725617Y-8084485D01*
X11725617Y-8084485D02*
X11735141Y-8065437D01*
X11735141Y-8065437D02*
X11754188Y-8055913D01*
X11754188Y-8055913D02*
X11801807Y-8055913D01*
X11801807Y-8055913D02*
X11820855Y-8046389D01*
X11916093Y-7998770D02*
X11916093Y-8198770D01*
X11916093Y-8008294D02*
X11935141Y-7998770D01*
X11935141Y-7998770D02*
X11973236Y-7998770D01*
X11973236Y-7998770D02*
X11992283Y-8008294D01*
X11992283Y-8008294D02*
X12001807Y-8017818D01*
X12001807Y-8017818D02*
X12011331Y-8036866D01*
X12011331Y-8036866D02*
X12011331Y-8094008D01*
X12011331Y-8094008D02*
X12001807Y-8113056D01*
X12001807Y-8113056D02*
X11992283Y-8122580D01*
X11992283Y-8122580D02*
X11973236Y-8132104D01*
X11973236Y-8132104D02*
X11935141Y-8132104D01*
X11935141Y-8132104D02*
X11916093Y-8122580D01*
X12097045Y-8113056D02*
X12106569Y-8122580D01*
X12106569Y-8122580D02*
X12097045Y-8132104D01*
X12097045Y-8132104D02*
X12087522Y-8122580D01*
X12087522Y-8122580D02*
X12097045Y-8113056D01*
X12097045Y-8113056D02*
X12097045Y-8132104D01*
X12097045Y-8008294D02*
X12106569Y-8017818D01*
X12106569Y-8017818D02*
X12097045Y-8027342D01*
X12097045Y-8027342D02*
X12087522Y-8017818D01*
X12087522Y-8017818D02*
X12097045Y-8008294D01*
X12097045Y-8008294D02*
X12097045Y-8027342D01*
D12*
X10434840Y-8445620D02*
X10464840Y-8475620D01*
X10464840Y-8445620D02*
X10434840Y-8475620D01*
D11*
X10763712Y-8352104D02*
X10782760Y-8352104D01*
X10782760Y-8352104D02*
X10801807Y-8361628D01*
X10801807Y-8361628D02*
X10811331Y-8371151D01*
X10811331Y-8371151D02*
X10820855Y-8390199D01*
X10820855Y-8390199D02*
X10830379Y-8428294D01*
X10830379Y-8428294D02*
X10830379Y-8475913D01*
X10830379Y-8475913D02*
X10820855Y-8514009D01*
X10820855Y-8514009D02*
X10811331Y-8533056D01*
X10811331Y-8533056D02*
X10801807Y-8542580D01*
X10801807Y-8542580D02*
X10782760Y-8552104D01*
X10782760Y-8552104D02*
X10763712Y-8552104D01*
X10763712Y-8552104D02*
X10744664Y-8542580D01*
X10744664Y-8542580D02*
X10735141Y-8533056D01*
X10735141Y-8533056D02*
X10725617Y-8514009D01*
X10725617Y-8514009D02*
X10716093Y-8475913D01*
X10716093Y-8475913D02*
X10716093Y-8428294D01*
X10716093Y-8428294D02*
X10725617Y-8390199D01*
X10725617Y-8390199D02*
X10735141Y-8371151D01*
X10735141Y-8371151D02*
X10744664Y-8361628D01*
X10744664Y-8361628D02*
X10763712Y-8352104D01*
X10916093Y-8533056D02*
X10925617Y-8542580D01*
X10925617Y-8542580D02*
X10916093Y-8552104D01*
X10916093Y-8552104D02*
X10906569Y-8542580D01*
X10906569Y-8542580D02*
X10916093Y-8533056D01*
X10916093Y-8533056D02*
X10916093Y-8552104D01*
X10992284Y-8352104D02*
X11116093Y-8352104D01*
X11116093Y-8352104D02*
X11049426Y-8428294D01*
X11049426Y-8428294D02*
X11077998Y-8428294D01*
X11077998Y-8428294D02*
X11097045Y-8437818D01*
X11097045Y-8437818D02*
X11106569Y-8447342D01*
X11106569Y-8447342D02*
X11116093Y-8466390D01*
X11116093Y-8466390D02*
X11116093Y-8514009D01*
X11116093Y-8514009D02*
X11106569Y-8533056D01*
X11106569Y-8533056D02*
X11097045Y-8542580D01*
X11097045Y-8542580D02*
X11077998Y-8552104D01*
X11077998Y-8552104D02*
X11020855Y-8552104D01*
X11020855Y-8552104D02*
X11001807Y-8542580D01*
X11001807Y-8542580D02*
X10992284Y-8533056D01*
X11239902Y-8352104D02*
X11258950Y-8352104D01*
X11258950Y-8352104D02*
X11277998Y-8361628D01*
X11277998Y-8361628D02*
X11287522Y-8371151D01*
X11287522Y-8371151D02*
X11297045Y-8390199D01*
X11297045Y-8390199D02*
X11306569Y-8428294D01*
X11306569Y-8428294D02*
X11306569Y-8475913D01*
X11306569Y-8475913D02*
X11297045Y-8514009D01*
X11297045Y-8514009D02*
X11287522Y-8533056D01*
X11287522Y-8533056D02*
X11277998Y-8542580D01*
X11277998Y-8542580D02*
X11258950Y-8552104D01*
X11258950Y-8552104D02*
X11239902Y-8552104D01*
X11239902Y-8552104D02*
X11220855Y-8542580D01*
X11220855Y-8542580D02*
X11211331Y-8533056D01*
X11211331Y-8533056D02*
X11201807Y-8514009D01*
X11201807Y-8514009D02*
X11192283Y-8475913D01*
X11192283Y-8475913D02*
X11192283Y-8428294D01*
X11192283Y-8428294D02*
X11201807Y-8390199D01*
X11201807Y-8390199D02*
X11211331Y-8371151D01*
X11211331Y-8371151D02*
X11220855Y-8361628D01*
X11220855Y-8361628D02*
X11239902Y-8352104D01*
X11430379Y-8352104D02*
X11449426Y-8352104D01*
X11449426Y-8352104D02*
X11468474Y-8361628D01*
X11468474Y-8361628D02*
X11477998Y-8371151D01*
X11477998Y-8371151D02*
X11487522Y-8390199D01*
X11487522Y-8390199D02*
X11497045Y-8428294D01*
X11497045Y-8428294D02*
X11497045Y-8475913D01*
X11497045Y-8475913D02*
X11487522Y-8514009D01*
X11487522Y-8514009D02*
X11477998Y-8533056D01*
X11477998Y-8533056D02*
X11468474Y-8542580D01*
X11468474Y-8542580D02*
X11449426Y-8552104D01*
X11449426Y-8552104D02*
X11430379Y-8552104D01*
X11430379Y-8552104D02*
X11411331Y-8542580D01*
X11411331Y-8542580D02*
X11401807Y-8533056D01*
X11401807Y-8533056D02*
X11392283Y-8514009D01*
X11392283Y-8514009D02*
X11382760Y-8475913D01*
X11382760Y-8475913D02*
X11382760Y-8428294D01*
X11382760Y-8428294D02*
X11392283Y-8390199D01*
X11392283Y-8390199D02*
X11401807Y-8371151D01*
X11401807Y-8371151D02*
X11411331Y-8361628D01*
X11411331Y-8361628D02*
X11430379Y-8352104D01*
X11582760Y-8552104D02*
X11582760Y-8418770D01*
X11582760Y-8437818D02*
X11592283Y-8428294D01*
X11592283Y-8428294D02*
X11611331Y-8418770D01*
X11611331Y-8418770D02*
X11639903Y-8418770D01*
X11639903Y-8418770D02*
X11658950Y-8428294D01*
X11658950Y-8428294D02*
X11668474Y-8447342D01*
X11668474Y-8447342D02*
X11668474Y-8552104D01*
X11668474Y-8447342D02*
X11677998Y-8428294D01*
X11677998Y-8428294D02*
X11697045Y-8418770D01*
X11697045Y-8418770D02*
X11725617Y-8418770D01*
X11725617Y-8418770D02*
X11744664Y-8428294D01*
X11744664Y-8428294D02*
X11754188Y-8447342D01*
X11754188Y-8447342D02*
X11754188Y-8552104D01*
X11849426Y-8552104D02*
X11849426Y-8418770D01*
X11849426Y-8437818D02*
X11858950Y-8428294D01*
X11858950Y-8428294D02*
X11877998Y-8418770D01*
X11877998Y-8418770D02*
X11906569Y-8418770D01*
X11906569Y-8418770D02*
X11925617Y-8428294D01*
X11925617Y-8428294D02*
X11935141Y-8447342D01*
X11935141Y-8447342D02*
X11935141Y-8552104D01*
X11935141Y-8447342D02*
X11944664Y-8428294D01*
X11944664Y-8428294D02*
X11963712Y-8418770D01*
X11963712Y-8418770D02*
X11992283Y-8418770D01*
X11992283Y-8418770D02*
X12011331Y-8428294D01*
X12011331Y-8428294D02*
X12020855Y-8447342D01*
X12020855Y-8447342D02*
X12020855Y-8552104D01*
X12411331Y-8342580D02*
X12239903Y-8599723D01*
X12668474Y-8352104D02*
X12687522Y-8352104D01*
X12687522Y-8352104D02*
X12706569Y-8361628D01*
X12706569Y-8361628D02*
X12716093Y-8371151D01*
X12716093Y-8371151D02*
X12725617Y-8390199D01*
X12725617Y-8390199D02*
X12735141Y-8428294D01*
X12735141Y-8428294D02*
X12735141Y-8475913D01*
X12735141Y-8475913D02*
X12725617Y-8514009D01*
X12725617Y-8514009D02*
X12716093Y-8533056D01*
X12716093Y-8533056D02*
X12706569Y-8542580D01*
X12706569Y-8542580D02*
X12687522Y-8552104D01*
X12687522Y-8552104D02*
X12668474Y-8552104D01*
X12668474Y-8552104D02*
X12649426Y-8542580D01*
X12649426Y-8542580D02*
X12639903Y-8533056D01*
X12639903Y-8533056D02*
X12630379Y-8514009D01*
X12630379Y-8514009D02*
X12620855Y-8475913D01*
X12620855Y-8475913D02*
X12620855Y-8428294D01*
X12620855Y-8428294D02*
X12630379Y-8390199D01*
X12630379Y-8390199D02*
X12639903Y-8371151D01*
X12639903Y-8371151D02*
X12649426Y-8361628D01*
X12649426Y-8361628D02*
X12668474Y-8352104D01*
X12820855Y-8533056D02*
X12830379Y-8542580D01*
X12830379Y-8542580D02*
X12820855Y-8552104D01*
X12820855Y-8552104D02*
X12811331Y-8542580D01*
X12811331Y-8542580D02*
X12820855Y-8533056D01*
X12820855Y-8533056D02*
X12820855Y-8552104D01*
X12954188Y-8352104D02*
X12973236Y-8352104D01*
X12973236Y-8352104D02*
X12992284Y-8361628D01*
X12992284Y-8361628D02*
X13001807Y-8371151D01*
X13001807Y-8371151D02*
X13011331Y-8390199D01*
X13011331Y-8390199D02*
X13020855Y-8428294D01*
X13020855Y-8428294D02*
X13020855Y-8475913D01*
X13020855Y-8475913D02*
X13011331Y-8514009D01*
X13011331Y-8514009D02*
X13001807Y-8533056D01*
X13001807Y-8533056D02*
X12992284Y-8542580D01*
X12992284Y-8542580D02*
X12973236Y-8552104D01*
X12973236Y-8552104D02*
X12954188Y-8552104D01*
X12954188Y-8552104D02*
X12935141Y-8542580D01*
X12935141Y-8542580D02*
X12925617Y-8533056D01*
X12925617Y-8533056D02*
X12916093Y-8514009D01*
X12916093Y-8514009D02*
X12906569Y-8475913D01*
X12906569Y-8475913D02*
X12906569Y-8428294D01*
X12906569Y-8428294D02*
X12916093Y-8390199D01*
X12916093Y-8390199D02*
X12925617Y-8371151D01*
X12925617Y-8371151D02*
X12935141Y-8361628D01*
X12935141Y-8361628D02*
X12954188Y-8352104D01*
X13211331Y-8552104D02*
X13097046Y-8552104D01*
X13154188Y-8552104D02*
X13154188Y-8352104D01*
X13154188Y-8352104D02*
X13135141Y-8380675D01*
X13135141Y-8380675D02*
X13116093Y-8399723D01*
X13116093Y-8399723D02*
X13097046Y-8409247D01*
X13401807Y-8552104D02*
X13287522Y-8552104D01*
X13344665Y-8552104D02*
X13344665Y-8352104D01*
X13344665Y-8352104D02*
X13325617Y-8380675D01*
X13325617Y-8380675D02*
X13306569Y-8399723D01*
X13306569Y-8399723D02*
X13287522Y-8409247D01*
X13516093Y-8437818D02*
X13497046Y-8428294D01*
X13497046Y-8428294D02*
X13487522Y-8418770D01*
X13487522Y-8418770D02*
X13477998Y-8399723D01*
X13477998Y-8399723D02*
X13477998Y-8390199D01*
X13477998Y-8390199D02*
X13487522Y-8371151D01*
X13487522Y-8371151D02*
X13497046Y-8361628D01*
X13497046Y-8361628D02*
X13516093Y-8352104D01*
X13516093Y-8352104D02*
X13554188Y-8352104D01*
X13554188Y-8352104D02*
X13573236Y-8361628D01*
X13573236Y-8361628D02*
X13582760Y-8371151D01*
X13582760Y-8371151D02*
X13592284Y-8390199D01*
X13592284Y-8390199D02*
X13592284Y-8399723D01*
X13592284Y-8399723D02*
X13582760Y-8418770D01*
X13582760Y-8418770D02*
X13573236Y-8428294D01*
X13573236Y-8428294D02*
X13554188Y-8437818D01*
X13554188Y-8437818D02*
X13516093Y-8437818D01*
X13516093Y-8437818D02*
X13497046Y-8447342D01*
X13497046Y-8447342D02*
X13487522Y-8456866D01*
X13487522Y-8456866D02*
X13477998Y-8475913D01*
X13477998Y-8475913D02*
X13477998Y-8514009D01*
X13477998Y-8514009D02*
X13487522Y-8533056D01*
X13487522Y-8533056D02*
X13497046Y-8542580D01*
X13497046Y-8542580D02*
X13516093Y-8552104D01*
X13516093Y-8552104D02*
X13554188Y-8552104D01*
X13554188Y-8552104D02*
X13573236Y-8542580D01*
X13573236Y-8542580D02*
X13582760Y-8533056D01*
X13582760Y-8533056D02*
X13592284Y-8514009D01*
X13592284Y-8514009D02*
X13592284Y-8475913D01*
X13592284Y-8475913D02*
X13582760Y-8456866D01*
X13582760Y-8456866D02*
X13573236Y-8447342D01*
X13573236Y-8447342D02*
X13554188Y-8437818D01*
X13668474Y-8352104D02*
X13668474Y-8390199D01*
X13744665Y-8352104D02*
X13744665Y-8390199D01*
X14039903Y-8628294D02*
X14030379Y-8618770D01*
X14030379Y-8618770D02*
X14011331Y-8590199D01*
X14011331Y-8590199D02*
X14001808Y-8571151D01*
X14001808Y-8571151D02*
X13992284Y-8542580D01*
X13992284Y-8542580D02*
X13982760Y-8494961D01*
X13982760Y-8494961D02*
X13982760Y-8456866D01*
X13982760Y-8456866D02*
X13992284Y-8409247D01*
X13992284Y-8409247D02*
X14001808Y-8380675D01*
X14001808Y-8380675D02*
X14011331Y-8361628D01*
X14011331Y-8361628D02*
X14030379Y-8333056D01*
X14030379Y-8333056D02*
X14039903Y-8323532D01*
X14097046Y-8352104D02*
X14220855Y-8352104D01*
X14220855Y-8352104D02*
X14154188Y-8428294D01*
X14154188Y-8428294D02*
X14182760Y-8428294D01*
X14182760Y-8428294D02*
X14201808Y-8437818D01*
X14201808Y-8437818D02*
X14211331Y-8447342D01*
X14211331Y-8447342D02*
X14220855Y-8466390D01*
X14220855Y-8466390D02*
X14220855Y-8514009D01*
X14220855Y-8514009D02*
X14211331Y-8533056D01*
X14211331Y-8533056D02*
X14201808Y-8542580D01*
X14201808Y-8542580D02*
X14182760Y-8552104D01*
X14182760Y-8552104D02*
X14125617Y-8552104D01*
X14125617Y-8552104D02*
X14106569Y-8542580D01*
X14106569Y-8542580D02*
X14097046Y-8533056D01*
X14287522Y-8352104D02*
X14411331Y-8352104D01*
X14411331Y-8352104D02*
X14344665Y-8428294D01*
X14344665Y-8428294D02*
X14373236Y-8428294D01*
X14373236Y-8428294D02*
X14392284Y-8437818D01*
X14392284Y-8437818D02*
X14401808Y-8447342D01*
X14401808Y-8447342D02*
X14411331Y-8466390D01*
X14411331Y-8466390D02*
X14411331Y-8514009D01*
X14411331Y-8514009D02*
X14401808Y-8533056D01*
X14401808Y-8533056D02*
X14392284Y-8542580D01*
X14392284Y-8542580D02*
X14373236Y-8552104D01*
X14373236Y-8552104D02*
X14316093Y-8552104D01*
X14316093Y-8552104D02*
X14297046Y-8542580D01*
X14297046Y-8542580D02*
X14287522Y-8533056D01*
X14649427Y-8552104D02*
X14649427Y-8352104D01*
X14735141Y-8552104D02*
X14735141Y-8447342D01*
X14735141Y-8447342D02*
X14725617Y-8428294D01*
X14725617Y-8428294D02*
X14706570Y-8418770D01*
X14706570Y-8418770D02*
X14677998Y-8418770D01*
X14677998Y-8418770D02*
X14658950Y-8428294D01*
X14658950Y-8428294D02*
X14649427Y-8437818D01*
X14858950Y-8552104D02*
X14839903Y-8542580D01*
X14839903Y-8542580D02*
X14830379Y-8533056D01*
X14830379Y-8533056D02*
X14820855Y-8514009D01*
X14820855Y-8514009D02*
X14820855Y-8456866D01*
X14820855Y-8456866D02*
X14830379Y-8437818D01*
X14830379Y-8437818D02*
X14839903Y-8428294D01*
X14839903Y-8428294D02*
X14858950Y-8418770D01*
X14858950Y-8418770D02*
X14887522Y-8418770D01*
X14887522Y-8418770D02*
X14906570Y-8428294D01*
X14906570Y-8428294D02*
X14916093Y-8437818D01*
X14916093Y-8437818D02*
X14925617Y-8456866D01*
X14925617Y-8456866D02*
X14925617Y-8514009D01*
X14925617Y-8514009D02*
X14916093Y-8533056D01*
X14916093Y-8533056D02*
X14906570Y-8542580D01*
X14906570Y-8542580D02*
X14887522Y-8552104D01*
X14887522Y-8552104D02*
X14858950Y-8552104D01*
X15039903Y-8552104D02*
X15020855Y-8542580D01*
X15020855Y-8542580D02*
X15011331Y-8523532D01*
X15011331Y-8523532D02*
X15011331Y-8352104D01*
X15192284Y-8542580D02*
X15173236Y-8552104D01*
X15173236Y-8552104D02*
X15135141Y-8552104D01*
X15135141Y-8552104D02*
X15116093Y-8542580D01*
X15116093Y-8542580D02*
X15106570Y-8523532D01*
X15106570Y-8523532D02*
X15106570Y-8447342D01*
X15106570Y-8447342D02*
X15116093Y-8428294D01*
X15116093Y-8428294D02*
X15135141Y-8418770D01*
X15135141Y-8418770D02*
X15173236Y-8418770D01*
X15173236Y-8418770D02*
X15192284Y-8428294D01*
X15192284Y-8428294D02*
X15201808Y-8447342D01*
X15201808Y-8447342D02*
X15201808Y-8466390D01*
X15201808Y-8466390D02*
X15106570Y-8485437D01*
X15277998Y-8542580D02*
X15297046Y-8552104D01*
X15297046Y-8552104D02*
X15335141Y-8552104D01*
X15335141Y-8552104D02*
X15354189Y-8542580D01*
X15354189Y-8542580D02*
X15363712Y-8523532D01*
X15363712Y-8523532D02*
X15363712Y-8514009D01*
X15363712Y-8514009D02*
X15354189Y-8494961D01*
X15354189Y-8494961D02*
X15335141Y-8485437D01*
X15335141Y-8485437D02*
X15306570Y-8485437D01*
X15306570Y-8485437D02*
X15287522Y-8475913D01*
X15287522Y-8475913D02*
X15277998Y-8456866D01*
X15277998Y-8456866D02*
X15277998Y-8447342D01*
X15277998Y-8447342D02*
X15287522Y-8428294D01*
X15287522Y-8428294D02*
X15306570Y-8418770D01*
X15306570Y-8418770D02*
X15335141Y-8418770D01*
X15335141Y-8418770D02*
X15354189Y-8428294D01*
X15430379Y-8628294D02*
X15439903Y-8618770D01*
X15439903Y-8618770D02*
X15458951Y-8590199D01*
X15458951Y-8590199D02*
X15468474Y-8571151D01*
X15468474Y-8571151D02*
X15477998Y-8542580D01*
X15477998Y-8542580D02*
X15487522Y-8494961D01*
X15487522Y-8494961D02*
X15487522Y-8456866D01*
X15487522Y-8456866D02*
X15477998Y-8409247D01*
X15477998Y-8409247D02*
X15468474Y-8380675D01*
X15468474Y-8380675D02*
X15458951Y-8361628D01*
X15458951Y-8361628D02*
X15439903Y-8333056D01*
X15439903Y-8333056D02*
X15430379Y-8323532D01*
D12*
X10464840Y-8724620D02*
G75*
G02*
X10364840Y-8724620I-50000J0D01*
G01*
X10364840Y-8724620D02*
G75*
G02*
X10464840Y-8724620I50000J0D01*
G01*
D11*
X10830379Y-8816104D02*
X10716093Y-8816104D01*
X10773236Y-8816104D02*
X10773236Y-8616104D01*
X10773236Y-8616104D02*
X10754188Y-8644675D01*
X10754188Y-8644675D02*
X10735141Y-8663723D01*
X10735141Y-8663723D02*
X10716093Y-8673247D01*
X10916093Y-8797056D02*
X10925617Y-8806580D01*
X10925617Y-8806580D02*
X10916093Y-8816104D01*
X10916093Y-8816104D02*
X10906569Y-8806580D01*
X10906569Y-8806580D02*
X10916093Y-8797056D01*
X10916093Y-8797056D02*
X10916093Y-8816104D01*
X11049426Y-8616104D02*
X11068474Y-8616104D01*
X11068474Y-8616104D02*
X11087522Y-8625628D01*
X11087522Y-8625628D02*
X11097045Y-8635151D01*
X11097045Y-8635151D02*
X11106569Y-8654199D01*
X11106569Y-8654199D02*
X11116093Y-8692294D01*
X11116093Y-8692294D02*
X11116093Y-8739913D01*
X11116093Y-8739913D02*
X11106569Y-8778009D01*
X11106569Y-8778009D02*
X11097045Y-8797056D01*
X11097045Y-8797056D02*
X11087522Y-8806580D01*
X11087522Y-8806580D02*
X11068474Y-8816104D01*
X11068474Y-8816104D02*
X11049426Y-8816104D01*
X11049426Y-8816104D02*
X11030379Y-8806580D01*
X11030379Y-8806580D02*
X11020855Y-8797056D01*
X11020855Y-8797056D02*
X11011331Y-8778009D01*
X11011331Y-8778009D02*
X11001807Y-8739913D01*
X11001807Y-8739913D02*
X11001807Y-8692294D01*
X11001807Y-8692294D02*
X11011331Y-8654199D01*
X11011331Y-8654199D02*
X11020855Y-8635151D01*
X11020855Y-8635151D02*
X11030379Y-8625628D01*
X11030379Y-8625628D02*
X11049426Y-8616104D01*
X11239902Y-8616104D02*
X11258950Y-8616104D01*
X11258950Y-8616104D02*
X11277998Y-8625628D01*
X11277998Y-8625628D02*
X11287522Y-8635151D01*
X11287522Y-8635151D02*
X11297045Y-8654199D01*
X11297045Y-8654199D02*
X11306569Y-8692294D01*
X11306569Y-8692294D02*
X11306569Y-8739913D01*
X11306569Y-8739913D02*
X11297045Y-8778009D01*
X11297045Y-8778009D02*
X11287522Y-8797056D01*
X11287522Y-8797056D02*
X11277998Y-8806580D01*
X11277998Y-8806580D02*
X11258950Y-8816104D01*
X11258950Y-8816104D02*
X11239902Y-8816104D01*
X11239902Y-8816104D02*
X11220855Y-8806580D01*
X11220855Y-8806580D02*
X11211331Y-8797056D01*
X11211331Y-8797056D02*
X11201807Y-8778009D01*
X11201807Y-8778009D02*
X11192283Y-8739913D01*
X11192283Y-8739913D02*
X11192283Y-8692294D01*
X11192283Y-8692294D02*
X11201807Y-8654199D01*
X11201807Y-8654199D02*
X11211331Y-8635151D01*
X11211331Y-8635151D02*
X11220855Y-8625628D01*
X11220855Y-8625628D02*
X11239902Y-8616104D01*
X11430379Y-8616104D02*
X11449426Y-8616104D01*
X11449426Y-8616104D02*
X11468474Y-8625628D01*
X11468474Y-8625628D02*
X11477998Y-8635151D01*
X11477998Y-8635151D02*
X11487522Y-8654199D01*
X11487522Y-8654199D02*
X11497045Y-8692294D01*
X11497045Y-8692294D02*
X11497045Y-8739913D01*
X11497045Y-8739913D02*
X11487522Y-8778009D01*
X11487522Y-8778009D02*
X11477998Y-8797056D01*
X11477998Y-8797056D02*
X11468474Y-8806580D01*
X11468474Y-8806580D02*
X11449426Y-8816104D01*
X11449426Y-8816104D02*
X11430379Y-8816104D01*
X11430379Y-8816104D02*
X11411331Y-8806580D01*
X11411331Y-8806580D02*
X11401807Y-8797056D01*
X11401807Y-8797056D02*
X11392283Y-8778009D01*
X11392283Y-8778009D02*
X11382760Y-8739913D01*
X11382760Y-8739913D02*
X11382760Y-8692294D01*
X11382760Y-8692294D02*
X11392283Y-8654199D01*
X11392283Y-8654199D02*
X11401807Y-8635151D01*
X11401807Y-8635151D02*
X11411331Y-8625628D01*
X11411331Y-8625628D02*
X11430379Y-8616104D01*
X11582760Y-8816104D02*
X11582760Y-8682770D01*
X11582760Y-8701818D02*
X11592283Y-8692294D01*
X11592283Y-8692294D02*
X11611331Y-8682770D01*
X11611331Y-8682770D02*
X11639903Y-8682770D01*
X11639903Y-8682770D02*
X11658950Y-8692294D01*
X11658950Y-8692294D02*
X11668474Y-8711342D01*
X11668474Y-8711342D02*
X11668474Y-8816104D01*
X11668474Y-8711342D02*
X11677998Y-8692294D01*
X11677998Y-8692294D02*
X11697045Y-8682770D01*
X11697045Y-8682770D02*
X11725617Y-8682770D01*
X11725617Y-8682770D02*
X11744664Y-8692294D01*
X11744664Y-8692294D02*
X11754188Y-8711342D01*
X11754188Y-8711342D02*
X11754188Y-8816104D01*
X11849426Y-8816104D02*
X11849426Y-8682770D01*
X11849426Y-8701818D02*
X11858950Y-8692294D01*
X11858950Y-8692294D02*
X11877998Y-8682770D01*
X11877998Y-8682770D02*
X11906569Y-8682770D01*
X11906569Y-8682770D02*
X11925617Y-8692294D01*
X11925617Y-8692294D02*
X11935141Y-8711342D01*
X11935141Y-8711342D02*
X11935141Y-8816104D01*
X11935141Y-8711342D02*
X11944664Y-8692294D01*
X11944664Y-8692294D02*
X11963712Y-8682770D01*
X11963712Y-8682770D02*
X11992283Y-8682770D01*
X11992283Y-8682770D02*
X12011331Y-8692294D01*
X12011331Y-8692294D02*
X12020855Y-8711342D01*
X12020855Y-8711342D02*
X12020855Y-8816104D01*
X12411331Y-8606580D02*
X12239903Y-8863723D01*
X12668474Y-8616104D02*
X12687522Y-8616104D01*
X12687522Y-8616104D02*
X12706569Y-8625628D01*
X12706569Y-8625628D02*
X12716093Y-8635151D01*
X12716093Y-8635151D02*
X12725617Y-8654199D01*
X12725617Y-8654199D02*
X12735141Y-8692294D01*
X12735141Y-8692294D02*
X12735141Y-8739913D01*
X12735141Y-8739913D02*
X12725617Y-8778009D01*
X12725617Y-8778009D02*
X12716093Y-8797056D01*
X12716093Y-8797056D02*
X12706569Y-8806580D01*
X12706569Y-8806580D02*
X12687522Y-8816104D01*
X12687522Y-8816104D02*
X12668474Y-8816104D01*
X12668474Y-8816104D02*
X12649426Y-8806580D01*
X12649426Y-8806580D02*
X12639903Y-8797056D01*
X12639903Y-8797056D02*
X12630379Y-8778009D01*
X12630379Y-8778009D02*
X12620855Y-8739913D01*
X12620855Y-8739913D02*
X12620855Y-8692294D01*
X12620855Y-8692294D02*
X12630379Y-8654199D01*
X12630379Y-8654199D02*
X12639903Y-8635151D01*
X12639903Y-8635151D02*
X12649426Y-8625628D01*
X12649426Y-8625628D02*
X12668474Y-8616104D01*
X12820855Y-8797056D02*
X12830379Y-8806580D01*
X12830379Y-8806580D02*
X12820855Y-8816104D01*
X12820855Y-8816104D02*
X12811331Y-8806580D01*
X12811331Y-8806580D02*
X12820855Y-8797056D01*
X12820855Y-8797056D02*
X12820855Y-8816104D01*
X12954188Y-8616104D02*
X12973236Y-8616104D01*
X12973236Y-8616104D02*
X12992284Y-8625628D01*
X12992284Y-8625628D02*
X13001807Y-8635151D01*
X13001807Y-8635151D02*
X13011331Y-8654199D01*
X13011331Y-8654199D02*
X13020855Y-8692294D01*
X13020855Y-8692294D02*
X13020855Y-8739913D01*
X13020855Y-8739913D02*
X13011331Y-8778009D01*
X13011331Y-8778009D02*
X13001807Y-8797056D01*
X13001807Y-8797056D02*
X12992284Y-8806580D01*
X12992284Y-8806580D02*
X12973236Y-8816104D01*
X12973236Y-8816104D02*
X12954188Y-8816104D01*
X12954188Y-8816104D02*
X12935141Y-8806580D01*
X12935141Y-8806580D02*
X12925617Y-8797056D01*
X12925617Y-8797056D02*
X12916093Y-8778009D01*
X12916093Y-8778009D02*
X12906569Y-8739913D01*
X12906569Y-8739913D02*
X12906569Y-8692294D01*
X12906569Y-8692294D02*
X12916093Y-8654199D01*
X12916093Y-8654199D02*
X12925617Y-8635151D01*
X12925617Y-8635151D02*
X12935141Y-8625628D01*
X12935141Y-8625628D02*
X12954188Y-8616104D01*
X13087522Y-8616104D02*
X13211331Y-8616104D01*
X13211331Y-8616104D02*
X13144665Y-8692294D01*
X13144665Y-8692294D02*
X13173236Y-8692294D01*
X13173236Y-8692294D02*
X13192284Y-8701818D01*
X13192284Y-8701818D02*
X13201807Y-8711342D01*
X13201807Y-8711342D02*
X13211331Y-8730390D01*
X13211331Y-8730390D02*
X13211331Y-8778009D01*
X13211331Y-8778009D02*
X13201807Y-8797056D01*
X13201807Y-8797056D02*
X13192284Y-8806580D01*
X13192284Y-8806580D02*
X13173236Y-8816104D01*
X13173236Y-8816104D02*
X13116093Y-8816104D01*
X13116093Y-8816104D02*
X13097046Y-8806580D01*
X13097046Y-8806580D02*
X13087522Y-8797056D01*
X13306569Y-8816104D02*
X13344665Y-8816104D01*
X13344665Y-8816104D02*
X13363712Y-8806580D01*
X13363712Y-8806580D02*
X13373236Y-8797056D01*
X13373236Y-8797056D02*
X13392284Y-8768485D01*
X13392284Y-8768485D02*
X13401807Y-8730390D01*
X13401807Y-8730390D02*
X13401807Y-8654199D01*
X13401807Y-8654199D02*
X13392284Y-8635151D01*
X13392284Y-8635151D02*
X13382760Y-8625628D01*
X13382760Y-8625628D02*
X13363712Y-8616104D01*
X13363712Y-8616104D02*
X13325617Y-8616104D01*
X13325617Y-8616104D02*
X13306569Y-8625628D01*
X13306569Y-8625628D02*
X13297046Y-8635151D01*
X13297046Y-8635151D02*
X13287522Y-8654199D01*
X13287522Y-8654199D02*
X13287522Y-8701818D01*
X13287522Y-8701818D02*
X13297046Y-8720866D01*
X13297046Y-8720866D02*
X13306569Y-8730390D01*
X13306569Y-8730390D02*
X13325617Y-8739913D01*
X13325617Y-8739913D02*
X13363712Y-8739913D01*
X13363712Y-8739913D02*
X13382760Y-8730390D01*
X13382760Y-8730390D02*
X13392284Y-8720866D01*
X13392284Y-8720866D02*
X13401807Y-8701818D01*
X13573236Y-8682770D02*
X13573236Y-8816104D01*
X13525617Y-8606580D02*
X13477998Y-8749437D01*
X13477998Y-8749437D02*
X13601807Y-8749437D01*
X13668474Y-8616104D02*
X13668474Y-8654199D01*
X13744665Y-8616104D02*
X13744665Y-8654199D01*
X14039903Y-8892294D02*
X14030379Y-8882770D01*
X14030379Y-8882770D02*
X14011331Y-8854199D01*
X14011331Y-8854199D02*
X14001808Y-8835151D01*
X14001808Y-8835151D02*
X13992284Y-8806580D01*
X13992284Y-8806580D02*
X13982760Y-8758961D01*
X13982760Y-8758961D02*
X13982760Y-8720866D01*
X13982760Y-8720866D02*
X13992284Y-8673247D01*
X13992284Y-8673247D02*
X14001808Y-8644675D01*
X14001808Y-8644675D02*
X14011331Y-8625628D01*
X14011331Y-8625628D02*
X14030379Y-8597056D01*
X14030379Y-8597056D02*
X14039903Y-8587532D01*
X14201808Y-8682770D02*
X14201808Y-8816104D01*
X14154188Y-8606580D02*
X14106569Y-8749437D01*
X14106569Y-8749437D02*
X14230379Y-8749437D01*
X14297046Y-8635151D02*
X14306569Y-8625628D01*
X14306569Y-8625628D02*
X14325617Y-8616104D01*
X14325617Y-8616104D02*
X14373236Y-8616104D01*
X14373236Y-8616104D02*
X14392284Y-8625628D01*
X14392284Y-8625628D02*
X14401808Y-8635151D01*
X14401808Y-8635151D02*
X14411331Y-8654199D01*
X14411331Y-8654199D02*
X14411331Y-8673247D01*
X14411331Y-8673247D02*
X14401808Y-8701818D01*
X14401808Y-8701818D02*
X14287522Y-8816104D01*
X14287522Y-8816104D02*
X14411331Y-8816104D01*
X14649427Y-8816104D02*
X14649427Y-8616104D01*
X14735141Y-8816104D02*
X14735141Y-8711342D01*
X14735141Y-8711342D02*
X14725617Y-8692294D01*
X14725617Y-8692294D02*
X14706570Y-8682770D01*
X14706570Y-8682770D02*
X14677998Y-8682770D01*
X14677998Y-8682770D02*
X14658950Y-8692294D01*
X14658950Y-8692294D02*
X14649427Y-8701818D01*
X14858950Y-8816104D02*
X14839903Y-8806580D01*
X14839903Y-8806580D02*
X14830379Y-8797056D01*
X14830379Y-8797056D02*
X14820855Y-8778009D01*
X14820855Y-8778009D02*
X14820855Y-8720866D01*
X14820855Y-8720866D02*
X14830379Y-8701818D01*
X14830379Y-8701818D02*
X14839903Y-8692294D01*
X14839903Y-8692294D02*
X14858950Y-8682770D01*
X14858950Y-8682770D02*
X14887522Y-8682770D01*
X14887522Y-8682770D02*
X14906570Y-8692294D01*
X14906570Y-8692294D02*
X14916093Y-8701818D01*
X14916093Y-8701818D02*
X14925617Y-8720866D01*
X14925617Y-8720866D02*
X14925617Y-8778009D01*
X14925617Y-8778009D02*
X14916093Y-8797056D01*
X14916093Y-8797056D02*
X14906570Y-8806580D01*
X14906570Y-8806580D02*
X14887522Y-8816104D01*
X14887522Y-8816104D02*
X14858950Y-8816104D01*
X15039903Y-8816104D02*
X15020855Y-8806580D01*
X15020855Y-8806580D02*
X15011331Y-8787532D01*
X15011331Y-8787532D02*
X15011331Y-8616104D01*
X15192284Y-8806580D02*
X15173236Y-8816104D01*
X15173236Y-8816104D02*
X15135141Y-8816104D01*
X15135141Y-8816104D02*
X15116093Y-8806580D01*
X15116093Y-8806580D02*
X15106570Y-8787532D01*
X15106570Y-8787532D02*
X15106570Y-8711342D01*
X15106570Y-8711342D02*
X15116093Y-8692294D01*
X15116093Y-8692294D02*
X15135141Y-8682770D01*
X15135141Y-8682770D02*
X15173236Y-8682770D01*
X15173236Y-8682770D02*
X15192284Y-8692294D01*
X15192284Y-8692294D02*
X15201808Y-8711342D01*
X15201808Y-8711342D02*
X15201808Y-8730390D01*
X15201808Y-8730390D02*
X15106570Y-8749437D01*
X15277998Y-8806580D02*
X15297046Y-8816104D01*
X15297046Y-8816104D02*
X15335141Y-8816104D01*
X15335141Y-8816104D02*
X15354189Y-8806580D01*
X15354189Y-8806580D02*
X15363712Y-8787532D01*
X15363712Y-8787532D02*
X15363712Y-8778009D01*
X15363712Y-8778009D02*
X15354189Y-8758961D01*
X15354189Y-8758961D02*
X15335141Y-8749437D01*
X15335141Y-8749437D02*
X15306570Y-8749437D01*
X15306570Y-8749437D02*
X15287522Y-8739913D01*
X15287522Y-8739913D02*
X15277998Y-8720866D01*
X15277998Y-8720866D02*
X15277998Y-8711342D01*
X15277998Y-8711342D02*
X15287522Y-8692294D01*
X15287522Y-8692294D02*
X15306570Y-8682770D01*
X15306570Y-8682770D02*
X15335141Y-8682770D01*
X15335141Y-8682770D02*
X15354189Y-8692294D01*
X15430379Y-8892294D02*
X15439903Y-8882770D01*
X15439903Y-8882770D02*
X15458951Y-8854199D01*
X15458951Y-8854199D02*
X15468474Y-8835151D01*
X15468474Y-8835151D02*
X15477998Y-8806580D01*
X15477998Y-8806580D02*
X15487522Y-8758961D01*
X15487522Y-8758961D02*
X15487522Y-8720866D01*
X15487522Y-8720866D02*
X15477998Y-8673247D01*
X15477998Y-8673247D02*
X15468474Y-8644675D01*
X15468474Y-8644675D02*
X15458951Y-8625628D01*
X15458951Y-8625628D02*
X15439903Y-8597056D01*
X15439903Y-8597056D02*
X15430379Y-8587532D01*
M02*
