G04 #@! TF.GenerationSoftware,KiCad,Pcbnew,9.0.0*
G04 #@! TF.CreationDate,2025-07-06T15:54:39+02:00*
G04 #@! TF.ProjectId,ckbd,636b6264-2e6b-4696-9361-645f70636258,d*
G04 #@! TF.SameCoordinates,Original*
G04 #@! TF.FileFunction,Legend,Top*
G04 #@! TF.FilePolarity,Positive*
%FSLAX46Y46*%
G04 Gerber Fmt 4.6, Leading zero omitted, Abs format (unit mm)*
G04 Created by KiCad (PCBNEW 9.0.0) date 2025-07-06 15:54:39*
%MOMM*%
%LPD*%
G01*
G04 APERTURE LIST*
G04 Aperture macros list*
%AMRoundRect*
0 Rectangle with rounded corners*
0 $1 Rounding radius*
0 $2 $3 $4 $5 $6 $7 $8 $9 X,Y pos of 4 corners*
0 Add a 4 corners polygon primitive as box body*
4,1,4,$2,$3,$4,$5,$6,$7,$8,$9,$2,$3,0*
0 Add four circle primitives for the rounded corners*
1,1,$1+$1,$2,$3*
1,1,$1+$1,$4,$5*
1,1,$1+$1,$6,$7*
1,1,$1+$1,$8,$9*
0 Add four rect primitives between the rounded corners*
20,1,$1+$1,$2,$3,$4,$5,0*
20,1,$1+$1,$4,$5,$6,$7,0*
20,1,$1+$1,$6,$7,$8,$9,0*
20,1,$1+$1,$8,$9,$2,$3,0*%
G04 Aperture macros list end*
%ADD10C,0.200000*%
%ADD11C,0.100000*%
%ADD12C,0.120000*%
%ADD13R,1.700000X1.700000*%
%ADD14O,1.700000X1.700000*%
%ADD15RoundRect,0.250000X0.625000X-0.400000X0.625000X0.400000X-0.625000X0.400000X-0.625000X-0.400000X0*%
%ADD16RoundRect,0.250000X0.412500X0.650000X-0.412500X0.650000X-0.412500X-0.650000X0.412500X-0.650000X0*%
%ADD17RoundRect,0.250000X-0.412500X-0.650000X0.412500X-0.650000X0.412500X0.650000X-0.412500X0.650000X0*%
%ADD18RoundRect,0.075000X-0.075000X0.662500X-0.075000X-0.662500X0.075000X-0.662500X0.075000X0.662500X0*%
%ADD19RoundRect,0.075000X-0.662500X0.075000X-0.662500X-0.075000X0.662500X-0.075000X0.662500X0.075000X0*%
%ADD20RoundRect,0.250000X-0.625000X0.400000X-0.625000X-0.400000X0.625000X-0.400000X0.625000X0.400000X0*%
G04 APERTURE END LIST*
D10*
X105943400Y-40081200D02*
X105943400Y-40843200D01*
D11*
X133096000Y-77089000D02*
X131978400Y-77089000D01*
X132588000Y-76250800D01*
X133096000Y-77089000D01*
G36*
X133096000Y-77089000D02*
G01*
X131978400Y-77089000D01*
X132588000Y-76250800D01*
X133096000Y-77089000D01*
G37*
D10*
X106705400Y-40081200D02*
X105943400Y-40081200D01*
D12*
X133943400Y-70501200D02*
X123723400Y-70510400D01*
X133943400Y-70501200D02*
X133943400Y-75701200D01*
X123723400Y-70510400D02*
X123723400Y-73101200D01*
X123723400Y-73101200D02*
X121123400Y-73101200D01*
X121123400Y-73101200D02*
X121123400Y-75701200D01*
X133943400Y-75701200D02*
X121123400Y-75701200D01*
X110088000Y-74107664D02*
X110088000Y-72653536D01*
X111908000Y-74107664D02*
X111908000Y-72653536D01*
X137808152Y-70921200D02*
X136385648Y-70921200D01*
X137808152Y-72741200D02*
X136385648Y-72741200D01*
X136385648Y-73512000D02*
X137808152Y-73512000D01*
X136385648Y-75332000D02*
X137808152Y-75332000D01*
X126115400Y-52365264D02*
X126115400Y-50911136D01*
X127935400Y-52365264D02*
X127935400Y-50911136D01*
X123415400Y-58315200D02*
X123865400Y-58315200D01*
X123415400Y-58765200D02*
X123415400Y-58315200D01*
X123415400Y-65085200D02*
X123415400Y-65535200D01*
X123415400Y-65535200D02*
X123865400Y-65535200D01*
X130635400Y-58315200D02*
X130185400Y-58315200D01*
X130635400Y-58765200D02*
X130635400Y-58315200D01*
X130635400Y-65085200D02*
X130635400Y-65535200D01*
X130635400Y-65535200D02*
X130185400Y-65535200D01*
X130655400Y-58065200D02*
X130185400Y-57725200D01*
X130655400Y-57385200D01*
X130655400Y-58065200D01*
G36*
X130655400Y-58065200D02*
G01*
X130185400Y-57725200D01*
X130655400Y-57385200D01*
X130655400Y-58065200D01*
G37*
X137769652Y-55173200D02*
X136347148Y-55173200D01*
X137769652Y-56993200D02*
X136347148Y-56993200D01*
X110088000Y-68164064D02*
X110088000Y-66709936D01*
X111908000Y-68164064D02*
X111908000Y-66709936D01*
X137788902Y-60284750D02*
X136366398Y-60284750D01*
X137788902Y-62104750D02*
X136366398Y-62104750D01*
X128909400Y-50911136D02*
X128909400Y-52365264D01*
X130729400Y-50911136D02*
X130729400Y-52365264D01*
X137788902Y-62824750D02*
X136366398Y-62824750D01*
X137788902Y-64644750D02*
X136366398Y-64644750D01*
X123321400Y-52365264D02*
X123321400Y-50911136D01*
X125141400Y-52365264D02*
X125141400Y-50911136D01*
X111933400Y-60740936D02*
X111933400Y-62195064D01*
X110113400Y-60740936D02*
X110113400Y-62195064D01*
X110113400Y-43188936D02*
X110113400Y-44643064D01*
X111933400Y-43188936D02*
X111933400Y-44643064D01*
%LPC*%
D13*
X132613400Y-71831200D03*
D14*
X132613400Y-74371200D03*
X130073400Y-71831200D03*
X130073400Y-74371200D03*
X127533400Y-71831200D03*
X127533400Y-74371200D03*
X124993400Y-71831200D03*
X124993400Y-74371200D03*
X122453400Y-74371200D03*
D15*
X110998000Y-74930600D03*
X110998000Y-71830600D03*
D16*
X138659400Y-71831200D03*
X135534400Y-71831200D03*
D17*
X135534400Y-74422000D03*
X138659400Y-74422000D03*
D15*
X127025400Y-53188200D03*
X127025400Y-50088200D03*
D13*
X114833400Y-41351200D03*
D14*
X114833400Y-43891200D03*
X114833400Y-46431200D03*
X114833400Y-48971200D03*
X114833400Y-51511200D03*
X114833400Y-54051200D03*
X114833400Y-56591200D03*
X114833400Y-59131200D03*
X114833400Y-61671200D03*
X114833400Y-64211200D03*
X114833400Y-66751200D03*
X114833400Y-69291200D03*
X114833400Y-71831200D03*
X114833400Y-74371200D03*
D18*
X129775400Y-57762700D03*
X129275400Y-57762700D03*
X128775400Y-57762700D03*
X128275400Y-57762700D03*
X127775400Y-57762700D03*
X127275400Y-57762700D03*
X126775400Y-57762700D03*
X126275400Y-57762700D03*
X125775400Y-57762700D03*
X125275400Y-57762700D03*
X124775400Y-57762700D03*
X124275400Y-57762700D03*
D19*
X122862900Y-59175200D03*
X122862900Y-59675200D03*
X122862900Y-60175200D03*
X122862900Y-60675200D03*
X122862900Y-61175200D03*
X122862900Y-61675200D03*
X122862900Y-62175200D03*
X122862900Y-62675200D03*
X122862900Y-63175200D03*
X122862900Y-63675200D03*
X122862900Y-64175200D03*
X122862900Y-64675200D03*
D18*
X124275400Y-66087700D03*
X124775400Y-66087700D03*
X125275400Y-66087700D03*
X125775400Y-66087700D03*
X126275400Y-66087700D03*
X126775400Y-66087700D03*
X127275400Y-66087700D03*
X127775400Y-66087700D03*
X128275400Y-66087700D03*
X128775400Y-66087700D03*
X129275400Y-66087700D03*
X129775400Y-66087700D03*
D19*
X131187900Y-64675200D03*
X131187900Y-64175200D03*
X131187900Y-63675200D03*
X131187900Y-63175200D03*
X131187900Y-62675200D03*
X131187900Y-62175200D03*
X131187900Y-61675200D03*
X131187900Y-61175200D03*
X131187900Y-60675200D03*
X131187900Y-60175200D03*
X131187900Y-59675200D03*
X131187900Y-59175200D03*
D16*
X138620900Y-56083200D03*
X135495900Y-56083200D03*
D15*
X110998000Y-68987000D03*
X110998000Y-65887000D03*
D13*
X110972600Y-48971200D03*
D14*
X110972600Y-51511200D03*
X110972600Y-54051200D03*
X110972600Y-56591200D03*
D16*
X138640150Y-61194750D03*
X135515150Y-61194750D03*
D20*
X129819400Y-50088200D03*
X129819400Y-53188200D03*
D16*
X138640150Y-63734750D03*
X135515150Y-63734750D03*
D13*
X107213400Y-41351200D03*
D14*
X107213400Y-43891200D03*
X107213400Y-46431200D03*
X107213400Y-48971200D03*
X107213400Y-51511200D03*
X107213400Y-54051200D03*
X107213400Y-56591200D03*
X107213400Y-59131200D03*
X107213400Y-61671200D03*
X107213400Y-64211200D03*
X107213400Y-66751200D03*
X107213400Y-69291200D03*
X107213400Y-71831200D03*
X107213400Y-74371200D03*
D15*
X124231400Y-53188200D03*
X124231400Y-50088200D03*
D20*
X111023400Y-63018000D03*
X111023400Y-59918000D03*
X111023400Y-42366000D03*
X111023400Y-45466000D03*
%LPD*%
M02*
