G04 #@! TF.GenerationSoftware,KiCad,Pcbnew,9.0.0*
G04 #@! TF.CreationDate,2025-07-06T15:54:39+02:00*
G04 #@! TF.ProjectId,ckbd,636b6264-2e6b-4696-9361-645f70636258,d*
G04 #@! TF.SameCoordinates,Original*
G04 #@! TF.FileFunction,Copper,L4,Bot*
G04 #@! TF.FilePolarity,Positive*
%FSLAX46Y46*%
G04 Gerber Fmt 4.6, Leading zero omitted, Abs format (unit mm)*
G04 Created by KiCad (PCBNEW 9.0.0) date 2025-07-06 15:54:39*
%MOMM*%
%LPD*%
G01*
G04 APERTURE LIST*
G04 Aperture macros list*
%AMRoundRect*
0 Rectangle with rounded corners*
0 $1 Rounding radius*
0 $2 $3 $4 $5 $6 $7 $8 $9 X,Y pos of 4 corners*
0 Add a 4 corners polygon primitive as box body*
4,1,4,$2,$3,$4,$5,$6,$7,$8,$9,$2,$3,0*
0 Add four circle primitives for the rounded corners*
1,1,$1+$1,$2,$3*
1,1,$1+$1,$4,$5*
1,1,$1+$1,$6,$7*
1,1,$1+$1,$8,$9*
0 Add four rect primitives between the rounded corners*
20,1,$1+$1,$2,$3,$4,$5,0*
20,1,$1+$1,$4,$5,$6,$7,0*
20,1,$1+$1,$6,$7,$8,$9,0*
20,1,$1+$1,$8,$9,$2,$3,0*%
G04 Aperture macros list end*
G04 #@! TA.AperFunction,ComponentPad*
%ADD10R,1.700000X1.700000*%
G04 #@! TD*
G04 #@! TA.AperFunction,ComponentPad*
%ADD11O,1.700000X1.700000*%
G04 #@! TD*
G04 #@! TA.AperFunction,SMDPad,CuDef*
%ADD12RoundRect,0.250000X-0.625000X0.312500X-0.625000X-0.312500X0.625000X-0.312500X0.625000X0.312500X0*%
G04 #@! TD*
G04 #@! TA.AperFunction,ViaPad*
%ADD13C,0.600000*%
G04 #@! TD*
G04 #@! TA.AperFunction,Conductor*
%ADD14C,0.203200*%
G04 #@! TD*
G04 #@! TA.AperFunction,Conductor*
%ADD15C,0.200000*%
G04 #@! TD*
G04 APERTURE END LIST*
D10*
X132613400Y-71831200D03*
D11*
X132613400Y-74371200D03*
X130073400Y-71831200D03*
X130073400Y-74371200D03*
X127533400Y-71831200D03*
X127533400Y-74371200D03*
X124993400Y-71831200D03*
X124993400Y-74371200D03*
X122453400Y-74371200D03*
D10*
X114833400Y-41351200D03*
D11*
X114833400Y-43891200D03*
X114833400Y-46431200D03*
X114833400Y-48971200D03*
X114833400Y-51511200D03*
X114833400Y-54051200D03*
X114833400Y-56591200D03*
X114833400Y-59131200D03*
X114833400Y-61671200D03*
X114833400Y-64211200D03*
X114833400Y-66751200D03*
X114833400Y-69291200D03*
X114833400Y-71831200D03*
X114833400Y-74371200D03*
D10*
X110972600Y-48971200D03*
D11*
X110972600Y-51511200D03*
X110972600Y-54051200D03*
X110972600Y-56591200D03*
D10*
X107213400Y-41351200D03*
D11*
X107213400Y-43891200D03*
X107213400Y-46431200D03*
X107213400Y-48971200D03*
X107213400Y-51511200D03*
X107213400Y-54051200D03*
X107213400Y-56591200D03*
X107213400Y-59131200D03*
X107213400Y-61671200D03*
X107213400Y-64211200D03*
X107213400Y-66751200D03*
X107213400Y-69291200D03*
X107213400Y-71831200D03*
X107213400Y-74371200D03*
D12*
X129794000Y-56246300D03*
X129794000Y-59171300D03*
X132130800Y-56246300D03*
X132130800Y-59171300D03*
D13*
X110998000Y-67945000D03*
X120294400Y-67259200D03*
X124358400Y-59258200D03*
X118272000Y-62941200D03*
X119659400Y-64973200D03*
X117373400Y-65481200D03*
X125120400Y-59766200D03*
X127152400Y-60756800D03*
X136569650Y-61194750D03*
X126974600Y-54156500D03*
X136569650Y-59924750D03*
X135553650Y-59924750D03*
X126390400Y-61671200D03*
X132130800Y-55118000D03*
X137566400Y-74422000D03*
X121183400Y-61671200D03*
X137566400Y-71831200D03*
X111023400Y-43332400D03*
X138640150Y-59963250D03*
X137585650Y-63734750D03*
X137566400Y-56083200D03*
X129819400Y-54152800D03*
X125501400Y-61163200D03*
X122834400Y-67259200D03*
X124741257Y-61671200D03*
X128270000Y-63957200D03*
X126775400Y-55702200D03*
X128676400Y-61976000D03*
D14*
X120294400Y-67259200D02*
X120294400Y-68741864D01*
X113444368Y-73220232D02*
X112412432Y-74252168D01*
X112125064Y-74371200D02*
X107213400Y-74371200D01*
X115935064Y-73101200D02*
X113731736Y-73101200D01*
X120175368Y-69029232D02*
X116222432Y-72982168D01*
X120175368Y-69029232D02*
G75*
G03*
X120294374Y-68741864I-287368J287332D01*
G01*
X112125064Y-74371200D02*
G75*
G03*
X112412450Y-74252186I36J406400D01*
G01*
X113731736Y-73101200D02*
G75*
G03*
X113444350Y-73220214I-36J-406400D01*
G01*
X116222432Y-72982168D02*
G75*
G02*
X115935064Y-73101174I-287332J287368D01*
G01*
X109143800Y-57184864D02*
X109143800Y-56149936D01*
X123809064Y-57861200D02*
X109820136Y-57861200D01*
X109532768Y-57742168D02*
X109262832Y-57472232D01*
X109024768Y-55862568D02*
X107213400Y-54051200D01*
X124239368Y-58123168D02*
X124096432Y-57980232D01*
X124358400Y-59258200D02*
X124358400Y-58410536D01*
X109262832Y-57472232D02*
G75*
G02*
X109143826Y-57184864I287368J287332D01*
G01*
X124096432Y-57980232D02*
G75*
G03*
X123809064Y-57861226I-287332J-287368D01*
G01*
X109532768Y-57742168D02*
G75*
G03*
X109820136Y-57861174I287332J287368D01*
G01*
X124358400Y-58410536D02*
G75*
G03*
X124239386Y-58123150I-406400J36D01*
G01*
X109024768Y-55862568D02*
G75*
G02*
X109143774Y-56149936I-287368J-287332D01*
G01*
X109761368Y-63060232D02*
X108983432Y-63838168D01*
X118272000Y-62941200D02*
X110048736Y-62941200D01*
X108061064Y-66751200D02*
X107213400Y-66751200D01*
X108864400Y-64125536D02*
X108864400Y-65947864D01*
X108745368Y-66235232D02*
X108348432Y-66632168D01*
X108745368Y-66235232D02*
G75*
G03*
X108864374Y-65947864I-287368J287332D01*
G01*
X110048736Y-62941200D02*
G75*
G03*
X109761350Y-63060214I-36J-406400D01*
G01*
X108864400Y-64125536D02*
G75*
G02*
X108983414Y-63838150I406400J36D01*
G01*
X108348432Y-66632168D02*
G75*
G02*
X108061064Y-66751174I-287332J287368D01*
G01*
X108247145Y-71831200D02*
X107213400Y-71831200D01*
X116443064Y-68021200D02*
X112393817Y-68021200D01*
X112106449Y-68140232D02*
X108534513Y-71712168D01*
X119659400Y-64973200D02*
X116730432Y-67902168D01*
X116730432Y-67902168D02*
G75*
G02*
X116443064Y-68021174I-287332J287368D01*
G01*
X112106449Y-68140232D02*
G75*
G02*
X112393817Y-68021212I287351J-287368D01*
G01*
X108534513Y-71712168D02*
G75*
G02*
X108247145Y-71831232I-287413J287368D01*
G01*
X117373400Y-65481200D02*
X111191736Y-65481200D01*
X110904368Y-65600232D02*
X107213400Y-69291200D01*
X110904368Y-65600232D02*
G75*
G02*
X111191736Y-65481226I287332J-287368D01*
G01*
X110429736Y-55321200D02*
X116493864Y-55321200D01*
X107213400Y-51511200D02*
X109024768Y-53322568D01*
X109143800Y-53609936D02*
X109143800Y-54035264D01*
X109262832Y-54322632D02*
X110142368Y-55202168D01*
X125120400Y-58156536D02*
X125120400Y-59766200D01*
X117973536Y-56464200D02*
X123428064Y-56464200D01*
X123715432Y-56583232D02*
X125001368Y-57869168D01*
X116781232Y-55440232D02*
X117686168Y-56345168D01*
X123715432Y-56583232D02*
G75*
G03*
X123428064Y-56464226I-287332J-287368D01*
G01*
X117686168Y-56345168D02*
G75*
G03*
X117973536Y-56464174I287332J287368D01*
G01*
X110429736Y-55321200D02*
G75*
G02*
X110142350Y-55202186I-36J406400D01*
G01*
X116781232Y-55440232D02*
G75*
G03*
X116493864Y-55321226I-287332J-287368D01*
G01*
X109024768Y-53322568D02*
G75*
G02*
X109143774Y-53609936I-287368J-287332D01*
G01*
X125001368Y-57869168D02*
G75*
G02*
X125120374Y-58156536I-287368J-287332D01*
G01*
X109262832Y-54322632D02*
G75*
G02*
X109143826Y-54035264I287368J287332D01*
G01*
D15*
X123682064Y-54940200D02*
X121529536Y-54940200D01*
X116493864Y-50241200D02*
X110023336Y-50241200D01*
X121242168Y-54821168D02*
X116781232Y-50360232D01*
X127152400Y-60756800D02*
X127152400Y-58410536D01*
X109024768Y-48242568D02*
X107213400Y-46431200D01*
X109143800Y-49361664D02*
X109143800Y-48529936D01*
X127033368Y-58123168D02*
X123969432Y-55059232D01*
X109735968Y-50122168D02*
X109262832Y-49649032D01*
X110023336Y-50241200D02*
G75*
G02*
X109735950Y-50122186I-36J406400D01*
G01*
X127152400Y-58410536D02*
G75*
G03*
X127033386Y-58123150I-406400J36D01*
G01*
X109262832Y-49649032D02*
G75*
G02*
X109143826Y-49361664I287368J287332D01*
G01*
X123969432Y-55059232D02*
G75*
G03*
X123682064Y-54940226I-287332J-287368D01*
G01*
X121529536Y-54940200D02*
G75*
G02*
X121242150Y-54821186I-36J406400D01*
G01*
X109143800Y-48529936D02*
G75*
G03*
X109024786Y-48242550I-406400J36D01*
G01*
X116781232Y-50360232D02*
G75*
G03*
X116493864Y-50241226I-287332J-287368D01*
G01*
D14*
X107213400Y-48971200D02*
X109075568Y-50833368D01*
X123715432Y-55694232D02*
X126271368Y-58250168D01*
X109194600Y-51120736D02*
X109194600Y-51596864D01*
X109313632Y-51884232D02*
X110040768Y-52611368D01*
X110328136Y-52730400D02*
X116392264Y-52730400D01*
X116679632Y-52849432D02*
X119286368Y-55456168D01*
X126390400Y-58537536D02*
X126390400Y-61671200D01*
X119573736Y-55575200D02*
X123428064Y-55575200D01*
X116679632Y-52849432D02*
G75*
G03*
X116392264Y-52730426I-287332J-287368D01*
G01*
X126390400Y-58537536D02*
G75*
G03*
X126271386Y-58250150I-406400J36D01*
G01*
X123428064Y-55575200D02*
G75*
G02*
X123715450Y-55694214I36J-406400D01*
G01*
X119573736Y-55575200D02*
G75*
G02*
X119286350Y-55456186I-36J406400D01*
G01*
X110328136Y-52730400D02*
G75*
G02*
X110040750Y-52611386I-36J406400D01*
G01*
X109313632Y-51884232D02*
G75*
G02*
X109194626Y-51596864I287368J287332D01*
G01*
X109194600Y-51120736D02*
G75*
G03*
X109075586Y-50833350I-406400J36D01*
G01*
D15*
X132130800Y-56246300D02*
X129794000Y-56246300D01*
X132130800Y-56246300D02*
X132130800Y-55118000D01*
X129844800Y-54178200D02*
X129819400Y-54152800D01*
X129844800Y-56195500D02*
X129844800Y-54178200D01*
X129794000Y-56246300D02*
X129844800Y-56195500D01*
D14*
X125501400Y-61163200D02*
X125441136Y-61163200D01*
X107213400Y-56819800D02*
X107213400Y-56591200D01*
X125153768Y-61044168D02*
X124579032Y-60469432D01*
X108966000Y-59267664D02*
X108966000Y-58512136D01*
X108846968Y-58224768D02*
X107213400Y-56591200D01*
X124291664Y-60350400D02*
X110048736Y-60350400D01*
X109761368Y-60231368D02*
X109085032Y-59555032D01*
X108966000Y-58512136D02*
G75*
G03*
X108846986Y-58224750I-406400J36D01*
G01*
X124579032Y-60469432D02*
G75*
G03*
X124291664Y-60350426I-287332J-287368D01*
G01*
X110048736Y-60350400D02*
G75*
G02*
X109761350Y-60231386I-36J406400D01*
G01*
X125441136Y-61163200D02*
G75*
G02*
X125153750Y-61044186I-36J406400D01*
G01*
X109085032Y-59555032D02*
G75*
G02*
X108966026Y-59267664I287368J287332D01*
G01*
X116316064Y-74371200D02*
X114833400Y-74371200D01*
X122461368Y-68394232D02*
X116603432Y-74252168D01*
X122834400Y-67259200D02*
X122699432Y-67394168D01*
X122580400Y-67681536D02*
X122580400Y-68106864D01*
X122699432Y-67394168D02*
G75*
G03*
X122580426Y-67681536I287368J-287332D01*
G01*
X122461368Y-68394232D02*
G75*
G03*
X122580374Y-68106864I-287368J287332D01*
G01*
X116316064Y-74371200D02*
G75*
G03*
X116603450Y-74252186I36J406400D01*
G01*
X117000368Y-70934232D02*
X116222432Y-71712168D01*
X124290168Y-61790232D02*
X117238432Y-68841968D01*
X124741257Y-61671200D02*
X124577536Y-61671200D01*
X117119400Y-69129336D02*
X117119400Y-70646864D01*
X115935064Y-71831200D02*
X114833400Y-71831200D01*
X115935064Y-71831200D02*
G75*
G03*
X116222450Y-71712186I36J406400D01*
G01*
X117238432Y-68841968D02*
G75*
G03*
X117119426Y-69129336I287368J-287332D01*
G01*
X117119400Y-70646864D02*
G75*
G02*
X117000386Y-70934250I-406400J-36D01*
G01*
X124577536Y-61671200D02*
G75*
G03*
X124290150Y-61790214I-36J-406400D01*
G01*
D15*
X131284632Y-62669768D02*
X132011768Y-61942632D01*
X132130800Y-61655264D02*
X132130800Y-59171300D01*
X128270000Y-63957200D02*
X128270000Y-63411946D01*
X128389032Y-63124578D02*
X128605778Y-62907832D01*
X128893146Y-62788800D02*
X130997264Y-62788800D01*
X130997264Y-62788800D02*
G75*
G03*
X131284650Y-62669786I36J406400D01*
G01*
X128605778Y-62907832D02*
G75*
G02*
X128893146Y-62788833I287322J-287368D01*
G01*
X132011768Y-61942632D02*
G75*
G03*
X132130774Y-61655264I-287368J287332D01*
G01*
X128270000Y-63411946D02*
G75*
G02*
X128389009Y-63124555I406400J46D01*
G01*
X112461736Y-47701200D02*
X116316064Y-47701200D01*
X126775400Y-55341136D02*
X126775400Y-55702200D01*
X121732736Y-52781200D02*
X124215464Y-52781200D01*
X111023400Y-48971200D02*
X112174368Y-47820232D01*
X124502832Y-52900232D02*
X126656368Y-55053768D01*
X116603432Y-47820232D02*
X121445368Y-52662168D01*
X112174368Y-47820232D02*
G75*
G02*
X112461736Y-47701226I287332J-287368D01*
G01*
X116603432Y-47820232D02*
G75*
G03*
X116316064Y-47701226I-287332J-287368D01*
G01*
X121445368Y-52662168D02*
G75*
G03*
X121732736Y-52781174I287332J287368D01*
G01*
X126656368Y-55053768D02*
G75*
G02*
X126775374Y-55341136I-287368J-287332D01*
G01*
X124502832Y-52900232D02*
G75*
G03*
X124215464Y-52781226I-287332J-287368D01*
G01*
X129709832Y-60688568D02*
X129794000Y-60604400D01*
X128676400Y-61976000D02*
X128676400Y-61331536D01*
X129794000Y-60604400D02*
X129794000Y-59171300D01*
X129200336Y-60807600D02*
X129422464Y-60807600D01*
X128795432Y-61044168D02*
X128912968Y-60926632D01*
X128912968Y-60926632D02*
G75*
G02*
X129200336Y-60807626I287332J-287368D01*
G01*
X128676400Y-61331536D02*
G75*
G02*
X128795414Y-61044150I406400J36D01*
G01*
X129422464Y-60807600D02*
G75*
G03*
X129709850Y-60688586I36J406400D01*
G01*
M02*
