G04 #@! TF.GenerationSoftware,KiCad,Pcbnew,9.0.0*
G04 #@! TF.CreationDate,2025-05-26T23:55:01+02:00*
G04 #@! TF.ProjectId,ckbd,636b6264-2e6b-4696-9361-645f70636258,c*
G04 #@! TF.SameCoordinates,Original*
G04 #@! TF.FileFunction,Legend,Bot*
G04 #@! TF.FilePolarity,Positive*
%FSLAX46Y46*%
G04 Gerber Fmt 4.6, Leading zero omitted, Abs format (unit mm)*
G04 Created by KiCad (PCBNEW 9.0.0) date 2025-05-26 23:55:01*
%MOMM*%
%LPD*%
G01*
G04 APERTURE LIST*
G04 Aperture macros list*
%AMRoundRect*
0 Rectangle with rounded corners*
0 $1 Rounding radius*
0 $2 $3 $4 $5 $6 $7 $8 $9 X,Y pos of 4 corners*
0 Add a 4 corners polygon primitive as box body*
4,1,4,$2,$3,$4,$5,$6,$7,$8,$9,$2,$3,0*
0 Add four circle primitives for the rounded corners*
1,1,$1+$1,$2,$3*
1,1,$1+$1,$4,$5*
1,1,$1+$1,$6,$7*
1,1,$1+$1,$8,$9*
0 Add four rect primitives between the rounded corners*
20,1,$1+$1,$2,$3,$4,$5,0*
20,1,$1+$1,$4,$5,$6,$7,0*
20,1,$1+$1,$6,$7,$8,$9,0*
20,1,$1+$1,$8,$9,$2,$3,0*%
G04 Aperture macros list end*
%ADD10C,0.100000*%
%ADD11C,0.150000*%
%ADD12C,0.200000*%
%ADD13C,0.120000*%
%ADD14R,1.700000X1.700000*%
%ADD15O,1.700000X1.700000*%
%ADD16RoundRect,0.250000X-0.625000X0.312500X-0.625000X-0.312500X0.625000X-0.312500X0.625000X0.312500X0*%
G04 APERTURE END LIST*
D10*
X110972600Y-47548800D02*
X112293400Y-47548800D01*
X112293400Y-57861200D02*
X110972600Y-57861200D01*
X112057714Y-41457161D02*
X110025714Y-41457161D01*
X111041714Y-39806161D01*
X112057714Y-41457161D01*
G36*
X112057714Y-41457161D02*
G01*
X110025714Y-41457161D01*
X111041714Y-39806161D01*
X112057714Y-41457161D01*
G37*
X134518400Y-49225200D02*
G75*
G02*
X134874000Y-48869600I355600J0D01*
G01*
X134874000Y-52324000D02*
G75*
G02*
X134518400Y-51968400I0J355600D01*
G01*
X123672600Y-70510400D02*
X123672600Y-73050400D01*
X112293400Y-52705000D02*
X116205000Y-52730400D01*
X139039600Y-48869600D02*
G75*
G02*
X139395200Y-49225200I0J-355600D01*
G01*
X139039600Y-48869600D02*
X134874000Y-48869600D01*
X139395200Y-51968400D02*
G75*
G02*
X139039600Y-52324000I-355600J0D01*
G01*
X121132600Y-75692000D02*
X133934200Y-75692000D01*
X134874000Y-52324000D02*
X139039600Y-52324000D01*
X133934200Y-75692000D02*
X133934200Y-70510400D01*
X134518400Y-49225200D02*
X134518400Y-51968400D01*
X133934200Y-70510400D02*
X123672600Y-70510400D01*
X121132600Y-73050400D02*
X121132600Y-75692000D01*
X139395200Y-51968400D02*
X139395200Y-49225200D01*
X116255800Y-49530000D02*
X122656600Y-49530000D01*
X122656600Y-59232800D01*
X116255800Y-59232800D01*
X116255800Y-49530000D01*
X112293400Y-47548800D02*
X112293400Y-57861200D01*
X123672600Y-73050400D02*
X121132600Y-73050400D01*
D11*
X120516420Y-71286019D02*
X120516420Y-72095542D01*
X120516420Y-72095542D02*
X120468801Y-72190780D01*
X120468801Y-72190780D02*
X120421182Y-72238400D01*
X120421182Y-72238400D02*
X120325944Y-72286019D01*
X120325944Y-72286019D02*
X120135468Y-72286019D01*
X120135468Y-72286019D02*
X120040230Y-72238400D01*
X120040230Y-72238400D02*
X119992611Y-72190780D01*
X119992611Y-72190780D02*
X119944992Y-72095542D01*
X119944992Y-72095542D02*
X119944992Y-71286019D01*
X119516420Y-72238400D02*
X119373563Y-72286019D01*
X119373563Y-72286019D02*
X119135468Y-72286019D01*
X119135468Y-72286019D02*
X119040230Y-72238400D01*
X119040230Y-72238400D02*
X118992611Y-72190780D01*
X118992611Y-72190780D02*
X118944992Y-72095542D01*
X118944992Y-72095542D02*
X118944992Y-72000304D01*
X118944992Y-72000304D02*
X118992611Y-71905066D01*
X118992611Y-71905066D02*
X119040230Y-71857447D01*
X119040230Y-71857447D02*
X119135468Y-71809828D01*
X119135468Y-71809828D02*
X119325944Y-71762209D01*
X119325944Y-71762209D02*
X119421182Y-71714590D01*
X119421182Y-71714590D02*
X119468801Y-71666971D01*
X119468801Y-71666971D02*
X119516420Y-71571733D01*
X119516420Y-71571733D02*
X119516420Y-71476495D01*
X119516420Y-71476495D02*
X119468801Y-71381257D01*
X119468801Y-71381257D02*
X119421182Y-71333638D01*
X119421182Y-71333638D02*
X119325944Y-71286019D01*
X119325944Y-71286019D02*
X119087849Y-71286019D01*
X119087849Y-71286019D02*
X118944992Y-71333638D01*
X118183087Y-71762209D02*
X118040230Y-71809828D01*
X118040230Y-71809828D02*
X117992611Y-71857447D01*
X117992611Y-71857447D02*
X117944992Y-71952685D01*
X117944992Y-71952685D02*
X117944992Y-72095542D01*
X117944992Y-72095542D02*
X117992611Y-72190780D01*
X117992611Y-72190780D02*
X118040230Y-72238400D01*
X118040230Y-72238400D02*
X118135468Y-72286019D01*
X118135468Y-72286019D02*
X118516420Y-72286019D01*
X118516420Y-72286019D02*
X118516420Y-71286019D01*
X118516420Y-71286019D02*
X118183087Y-71286019D01*
X118183087Y-71286019D02*
X118087849Y-71333638D01*
X118087849Y-71333638D02*
X118040230Y-71381257D01*
X118040230Y-71381257D02*
X117992611Y-71476495D01*
X117992611Y-71476495D02*
X117992611Y-71571733D01*
X117992611Y-71571733D02*
X118040230Y-71666971D01*
X118040230Y-71666971D02*
X118087849Y-71714590D01*
X118087849Y-71714590D02*
X118183087Y-71762209D01*
X118183087Y-71762209D02*
X118516420Y-71762209D01*
X117325944Y-71286019D02*
X117230706Y-71286019D01*
X117230706Y-71286019D02*
X117135468Y-71333638D01*
X117135468Y-71333638D02*
X117087849Y-71381257D01*
X117087849Y-71381257D02*
X117040230Y-71476495D01*
X117040230Y-71476495D02*
X116992611Y-71666971D01*
X116992611Y-71666971D02*
X116992611Y-71905066D01*
X116992611Y-71905066D02*
X117040230Y-72095542D01*
X117040230Y-72095542D02*
X117087849Y-72190780D01*
X117087849Y-72190780D02*
X117135468Y-72238400D01*
X117135468Y-72238400D02*
X117230706Y-72286019D01*
X117230706Y-72286019D02*
X117325944Y-72286019D01*
X117325944Y-72286019D02*
X117421182Y-72238400D01*
X117421182Y-72238400D02*
X117468801Y-72190780D01*
X117468801Y-72190780D02*
X117516420Y-72095542D01*
X117516420Y-72095542D02*
X117564039Y-71905066D01*
X117564039Y-71905066D02*
X117564039Y-71666971D01*
X117564039Y-71666971D02*
X117516420Y-71476495D01*
X117516420Y-71476495D02*
X117468801Y-71381257D01*
X117468801Y-71381257D02*
X117421182Y-71333638D01*
X117421182Y-71333638D02*
X117325944Y-71286019D01*
X125363961Y-69319611D02*
X125411580Y-69414849D01*
X125411580Y-69414849D02*
X125411580Y-69557706D01*
X125411580Y-69557706D02*
X125363961Y-69700563D01*
X125363961Y-69700563D02*
X125268723Y-69795801D01*
X125268723Y-69795801D02*
X125173485Y-69843420D01*
X125173485Y-69843420D02*
X124983009Y-69891039D01*
X124983009Y-69891039D02*
X124840152Y-69891039D01*
X124840152Y-69891039D02*
X124649676Y-69843420D01*
X124649676Y-69843420D02*
X124554438Y-69795801D01*
X124554438Y-69795801D02*
X124459200Y-69700563D01*
X124459200Y-69700563D02*
X124411580Y-69557706D01*
X124411580Y-69557706D02*
X124411580Y-69462468D01*
X124411580Y-69462468D02*
X124459200Y-69319611D01*
X124459200Y-69319611D02*
X124506819Y-69271992D01*
X124506819Y-69271992D02*
X124840152Y-69271992D01*
X124840152Y-69271992D02*
X124840152Y-69462468D01*
X124411580Y-68843420D02*
X125411580Y-68843420D01*
X125411580Y-68843420D02*
X124411580Y-68271992D01*
X124411580Y-68271992D02*
X125411580Y-68271992D01*
X124411580Y-67795801D02*
X125411580Y-67795801D01*
X125411580Y-67795801D02*
X125411580Y-67557706D01*
X125411580Y-67557706D02*
X125363961Y-67414849D01*
X125363961Y-67414849D02*
X125268723Y-67319611D01*
X125268723Y-67319611D02*
X125173485Y-67271992D01*
X125173485Y-67271992D02*
X124983009Y-67224373D01*
X124983009Y-67224373D02*
X124840152Y-67224373D01*
X124840152Y-67224373D02*
X124649676Y-67271992D01*
X124649676Y-67271992D02*
X124554438Y-67319611D01*
X124554438Y-67319611D02*
X124459200Y-67414849D01*
X124459200Y-67414849D02*
X124411580Y-67557706D01*
X124411580Y-67557706D02*
X124411580Y-67795801D01*
D12*
G36*
X117048000Y-49956130D02*
G01*
X116899501Y-49956130D01*
X116899501Y-50381051D01*
X117048000Y-50381051D01*
X117048000Y-49956130D01*
G37*
G36*
X117048000Y-50725006D02*
G01*
X116899501Y-50725006D01*
X116899501Y-51149928D01*
X117048000Y-51149928D01*
X117048000Y-50725006D01*
G37*
G36*
X117048000Y-51493883D02*
G01*
X116899501Y-51493883D01*
X116899501Y-51918804D01*
X117048000Y-51918804D01*
X117048000Y-51493883D01*
G37*
G36*
X117048000Y-52262759D02*
G01*
X116899501Y-52262759D01*
X116899501Y-52687681D01*
X117048000Y-52687681D01*
X117048000Y-52262759D01*
G37*
G36*
X116458276Y-54131827D02*
G01*
X116480319Y-54129743D01*
X116500774Y-54123584D01*
X116519464Y-54113725D01*
X116535457Y-54100687D01*
X116548588Y-54084820D01*
X116558782Y-54066187D01*
X116565154Y-54045742D01*
X116567330Y-54023200D01*
X116565163Y-54000607D01*
X116558782Y-53979847D01*
X116548573Y-53960947D01*
X116535457Y-53944982D01*
X116519470Y-53931978D01*
X116500774Y-53922084D01*
X116480322Y-53915972D01*
X116458276Y-53913902D01*
X116436177Y-53915973D01*
X116415717Y-53922084D01*
X116396965Y-53931964D01*
X116380729Y-53944982D01*
X116367335Y-53960976D01*
X116357098Y-53979847D01*
X116350671Y-54000610D01*
X116348489Y-54023200D01*
X116350679Y-54045739D01*
X116357098Y-54066187D01*
X116367319Y-54084791D01*
X116380729Y-54100687D01*
X116396972Y-54113739D01*
X116415717Y-54123584D01*
X116436180Y-54129741D01*
X116458276Y-54131827D01*
G37*
G36*
X116778356Y-53947424D02*
G01*
X116778356Y-53751358D01*
X116649396Y-53751358D01*
X116649396Y-54118150D01*
X117216039Y-54118150D01*
X117216039Y-54318307D01*
X117345000Y-54318307D01*
X117345000Y-53727422D01*
X117216039Y-53727422D01*
X117216039Y-53947424D01*
X116778356Y-53947424D01*
G37*
G36*
X117345000Y-54906199D02*
G01*
X116895654Y-54906199D01*
X116850164Y-54901867D01*
X116819267Y-54890631D01*
X116798905Y-54873968D01*
X116786663Y-54851586D01*
X116782264Y-54821508D01*
X116785827Y-54794451D01*
X116796785Y-54767699D01*
X116816214Y-54740542D01*
X116854180Y-54702693D01*
X116908538Y-54658904D01*
X117345000Y-54658904D01*
X117345000Y-54492208D01*
X116649396Y-54492208D01*
X116649396Y-54636372D01*
X116752100Y-54640463D01*
X116704900Y-54684488D01*
X116668630Y-54734008D01*
X116655429Y-54761577D01*
X116645671Y-54791405D01*
X116639767Y-54823229D01*
X116637672Y-54860404D01*
X116642257Y-54911504D01*
X116655075Y-54953277D01*
X116676135Y-54989833D01*
X116704106Y-55019528D01*
X116738482Y-55042579D01*
X116780432Y-55059523D01*
X116826638Y-55069362D01*
X116880266Y-55072834D01*
X117345000Y-55072834D01*
X117345000Y-54906199D01*
G37*
G36*
X117337184Y-55833528D02*
G01*
X117354220Y-55742670D01*
X117360631Y-55655903D01*
X117356757Y-55590108D01*
X117346221Y-55538056D01*
X117327595Y-55491969D01*
X117302318Y-55456051D01*
X117269231Y-55428165D01*
X117227213Y-55408241D01*
X117179143Y-55397021D01*
X117118525Y-55392914D01*
X116778356Y-55392914D01*
X116778356Y-55206435D01*
X116649396Y-55206435D01*
X116649396Y-55392914D01*
X116471221Y-55392914D01*
X116426646Y-55563701D01*
X116649396Y-55563701D01*
X116649396Y-55833528D01*
X116778356Y-55833528D01*
X116778356Y-55563701D01*
X117106802Y-55563701D01*
X117145776Y-55567182D01*
X117175162Y-55576583D01*
X117197172Y-55590995D01*
X117213152Y-55611415D01*
X117223745Y-55640872D01*
X117227763Y-55682586D01*
X117220680Y-55762454D01*
X117204316Y-55833528D01*
X117337184Y-55833528D01*
G37*
G36*
X117090987Y-56315481D02*
G01*
X117093704Y-56343367D01*
X117101673Y-56368726D01*
X117114280Y-56391809D01*
X117130554Y-56411407D01*
X117150286Y-56427498D01*
X117173541Y-56439800D01*
X117198973Y-56447461D01*
X117226481Y-56450058D01*
X117253363Y-56447470D01*
X117278443Y-56439800D01*
X117301401Y-56427523D01*
X117321125Y-56411407D01*
X117337351Y-56391814D01*
X117349945Y-56368726D01*
X117357914Y-56343367D01*
X117360631Y-56315481D01*
X117357933Y-56288900D01*
X117349945Y-56264251D01*
X117337377Y-56241783D01*
X117321125Y-56222546D01*
X117301431Y-56206770D01*
X117278443Y-56194580D01*
X117253363Y-56186911D01*
X117226481Y-56184322D01*
X117198973Y-56186920D01*
X117173541Y-56194580D01*
X117150255Y-56206795D01*
X117130554Y-56222546D01*
X117114253Y-56241787D01*
X117101673Y-56264251D01*
X117093685Y-56288900D01*
X117090987Y-56315481D01*
G37*
G36*
X117088942Y-56759076D02*
G01*
X117159314Y-56775634D01*
X117221770Y-56803692D01*
X117271055Y-56840542D01*
X117309904Y-56887184D01*
X117338161Y-56943673D01*
X117354765Y-57007072D01*
X117360631Y-57081670D01*
X117353712Y-57160001D01*
X117334070Y-57226445D01*
X117301806Y-57285410D01*
X117259148Y-57333729D01*
X117206554Y-57371935D01*
X117142950Y-57400652D01*
X117072844Y-57417909D01*
X116993351Y-57423916D01*
X116909196Y-57418043D01*
X116839722Y-57401690D01*
X116777798Y-57373970D01*
X116728347Y-57337148D01*
X116689096Y-57290526D01*
X116660509Y-57234017D01*
X116643644Y-57170519D01*
X116637672Y-57095348D01*
X116638157Y-57089853D01*
X116782264Y-57089853D01*
X116788709Y-57140011D01*
X116806741Y-57179068D01*
X116836242Y-57209715D01*
X116874483Y-57230883D01*
X116926814Y-57245056D01*
X116997442Y-57250381D01*
X117042689Y-57247916D01*
X117083660Y-57240795D01*
X117121767Y-57228577D01*
X117153269Y-57212096D01*
X117179567Y-57190056D01*
X117199431Y-57162210D01*
X117211702Y-57129562D01*
X117216039Y-57089853D01*
X117209700Y-57041921D01*
X117191593Y-57002775D01*
X117161390Y-56970296D01*
X117122471Y-56947428D01*
X117069654Y-56932251D01*
X116998785Y-56926576D01*
X116954845Y-56928939D01*
X116914644Y-56935796D01*
X116877179Y-56947892D01*
X116845767Y-56964800D01*
X116819318Y-56987406D01*
X116799239Y-57015359D01*
X116786746Y-57048342D01*
X116782264Y-57089853D01*
X116638157Y-57089853D01*
X116644484Y-57018171D01*
X116663928Y-56951855D01*
X116695762Y-56892843D01*
X116737873Y-56844266D01*
X116789827Y-56805756D01*
X116853033Y-56776672D01*
X116922863Y-56759207D01*
X117002876Y-56753103D01*
X117088942Y-56759076D01*
G37*
G36*
X117141240Y-58140158D02*
G01*
X117197332Y-58133275D01*
X117242418Y-58113841D01*
X117280289Y-58083406D01*
X117310561Y-58044170D01*
X117332937Y-57998538D01*
X117348663Y-57945802D01*
X117357625Y-57890373D01*
X117360631Y-57833450D01*
X117358519Y-57758782D01*
X117352632Y-57695453D01*
X117342686Y-57635025D01*
X117329368Y-57579315D01*
X117180868Y-57579315D01*
X117204095Y-57643992D01*
X117219642Y-57707421D01*
X117228768Y-57770546D01*
X117231671Y-57827954D01*
X117225832Y-57888719D01*
X117211338Y-57925957D01*
X117195739Y-57944561D01*
X117178325Y-57954969D01*
X117158276Y-57958441D01*
X117129638Y-57951602D01*
X117117640Y-57942470D01*
X117104787Y-57925957D01*
X117080301Y-57873017D01*
X117051969Y-57783563D01*
X117036259Y-57734179D01*
X117019607Y-57693743D01*
X116999413Y-57657708D01*
X116977048Y-57629874D01*
X116950499Y-57607722D01*
X116920139Y-57591955D01*
X116886059Y-57582662D01*
X116844118Y-57579315D01*
X116803044Y-57584100D01*
X116764434Y-57598427D01*
X116729716Y-57621867D01*
X116698672Y-57655458D01*
X116674011Y-57696744D01*
X116654036Y-57750102D01*
X116642034Y-57809440D01*
X116637672Y-57882604D01*
X116643778Y-57998741D01*
X116657212Y-58088256D01*
X116793988Y-58088256D01*
X116777236Y-58029411D01*
X116766755Y-57976576D01*
X116760786Y-57924372D01*
X116758817Y-57873078D01*
X116763948Y-57825055D01*
X116777623Y-57790769D01*
X116792186Y-57773152D01*
X116809280Y-57763107D01*
X116829830Y-57759689D01*
X116857796Y-57765795D01*
X116869145Y-57774226D01*
X116881610Y-57790036D01*
X116905851Y-57840594D01*
X116933389Y-57926384D01*
X116951788Y-57983806D01*
X116969842Y-58027440D01*
X116991282Y-58065500D01*
X117013806Y-58093324D01*
X117040232Y-58114906D01*
X117069677Y-58129228D01*
X117102356Y-58137290D01*
X117141240Y-58140158D01*
G37*
G36*
X117317644Y-58898105D02*
G01*
X117334955Y-58848134D01*
X117347137Y-58796316D01*
X117354284Y-58743019D01*
X117356723Y-58686346D01*
X117350853Y-58606301D01*
X117334253Y-58538091D01*
X117305986Y-58476880D01*
X117267513Y-58426716D01*
X117218578Y-58386748D01*
X117157848Y-58356740D01*
X117089339Y-58338882D01*
X117006662Y-58332499D01*
X116926189Y-58339291D01*
X116856147Y-58358755D01*
X116793141Y-58390766D01*
X116741048Y-58432883D01*
X116699097Y-58485144D01*
X116667470Y-58547982D01*
X116648274Y-58617847D01*
X116641580Y-58697948D01*
X116643710Y-58762937D01*
X116649335Y-58811704D01*
X116668935Y-58894685D01*
X116829159Y-58894685D01*
X116811109Y-58850947D01*
X116797407Y-58802789D01*
X116788886Y-58753754D01*
X116786172Y-58708877D01*
X116790225Y-58664039D01*
X116801803Y-58625530D01*
X116820608Y-58591312D01*
X116845218Y-58563370D01*
X116875528Y-58541340D01*
X116912690Y-58524779D01*
X116953644Y-58514900D01*
X116999823Y-58511468D01*
X117047737Y-58515207D01*
X117088728Y-58525817D01*
X117125485Y-58543384D01*
X117155528Y-58566423D01*
X117179629Y-58595216D01*
X117197538Y-58629621D01*
X117208368Y-58667954D01*
X117212131Y-58711625D01*
X117208956Y-58757726D01*
X117199797Y-58806208D01*
X117186058Y-58854019D01*
X117169145Y-58898105D01*
X117317644Y-58898105D01*
G37*
G36*
X118728000Y-49956130D02*
G01*
X118579501Y-49956130D01*
X118579501Y-50381051D01*
X118728000Y-50381051D01*
X118728000Y-49956130D01*
G37*
G36*
X118728000Y-50725006D02*
G01*
X118579501Y-50725006D01*
X118579501Y-51149928D01*
X118728000Y-51149928D01*
X118728000Y-50725006D01*
G37*
G36*
X118794434Y-51470008D02*
G01*
X119025000Y-51446072D01*
X119025000Y-51579978D01*
X118794434Y-51603181D01*
X118794434Y-51761695D01*
X119025000Y-51737759D01*
X119025000Y-51871665D01*
X118794434Y-51894868D01*
X118794434Y-52025355D01*
X118669382Y-52025355D01*
X118669382Y-51907874D01*
X118473988Y-51927658D01*
X118473988Y-52061564D01*
X118348935Y-52061564D01*
X118348935Y-51939992D01*
X118134002Y-51961852D01*
X118134002Y-51827946D01*
X118348935Y-51806086D01*
X118348935Y-51648305D01*
X118134002Y-51670165D01*
X118134002Y-51635971D01*
X118473988Y-51635971D01*
X118473988Y-51793813D01*
X118669382Y-51773968D01*
X118669382Y-51616187D01*
X118473988Y-51635971D01*
X118134002Y-51635971D01*
X118134002Y-51536259D01*
X118348935Y-51514399D01*
X118348935Y-51385988D01*
X118473988Y-51385988D01*
X118473988Y-51502126D01*
X118669382Y-51482281D01*
X118669382Y-51349779D01*
X118794434Y-51349779D01*
X118794434Y-51470008D01*
G37*
G36*
X118794434Y-52238884D02*
G01*
X119025000Y-52214949D01*
X119025000Y-52348855D01*
X118794434Y-52372058D01*
X118794434Y-52530571D01*
X119025000Y-52506636D01*
X119025000Y-52640542D01*
X118794434Y-52663745D01*
X118794434Y-52794232D01*
X118669382Y-52794232D01*
X118669382Y-52676751D01*
X118473988Y-52696534D01*
X118473988Y-52830441D01*
X118348935Y-52830441D01*
X118348935Y-52708869D01*
X118134002Y-52730728D01*
X118134002Y-52596822D01*
X118348935Y-52574963D01*
X118348935Y-52417182D01*
X118134002Y-52439041D01*
X118134002Y-52404847D01*
X118473988Y-52404847D01*
X118473988Y-52562689D01*
X118669382Y-52542845D01*
X118669382Y-52385064D01*
X118473988Y-52404847D01*
X118134002Y-52404847D01*
X118134002Y-52305135D01*
X118348935Y-52283275D01*
X118348935Y-52154865D01*
X118473988Y-52154865D01*
X118473988Y-52271002D01*
X118669382Y-52251158D01*
X118669382Y-52118656D01*
X118794434Y-52118656D01*
X118794434Y-52238884D01*
G37*
G36*
X118775243Y-53704174D02*
G01*
X118843039Y-53721255D01*
X118903266Y-53750062D01*
X118951727Y-53788239D01*
X118989983Y-53836251D01*
X119018161Y-53894790D01*
X119034768Y-53960194D01*
X119040631Y-54036878D01*
X119038128Y-54101786D01*
X119030739Y-54168036D01*
X119019565Y-54232272D01*
X119005460Y-54290341D01*
X118872592Y-54290341D01*
X118888849Y-54228466D01*
X118899520Y-54170418D01*
X118905778Y-54113495D01*
X118907763Y-54062157D01*
X118904569Y-54019701D01*
X118895429Y-53982595D01*
X118880099Y-53948984D01*
X118859525Y-53921107D01*
X118833349Y-53898597D01*
X118800968Y-53881479D01*
X118764317Y-53871168D01*
X118720184Y-53867496D01*
X118720184Y-54323802D01*
X118669199Y-54326855D01*
X118624991Y-54327893D01*
X118559521Y-54322787D01*
X118501282Y-54308049D01*
X118448323Y-54283400D01*
X118404012Y-54249980D01*
X118368076Y-54207651D01*
X118340448Y-54155031D01*
X118323640Y-54095640D01*
X118317672Y-54024605D01*
X118318001Y-54021185D01*
X118442725Y-54021185D01*
X118445103Y-54049185D01*
X118452067Y-54074797D01*
X118463835Y-54098188D01*
X118480643Y-54118516D01*
X118502037Y-54135060D01*
X118529553Y-54148253D01*
X118560649Y-54156124D01*
X118599040Y-54158511D01*
X118599040Y-53870182D01*
X118551007Y-53879457D01*
X118513214Y-53895583D01*
X118483635Y-53917993D01*
X118461085Y-53947059D01*
X118447468Y-53980974D01*
X118442725Y-54021185D01*
X118318001Y-54021185D01*
X118324602Y-53952637D01*
X118344600Y-53889661D01*
X118377223Y-53833625D01*
X118420926Y-53786834D01*
X118474430Y-53749748D01*
X118539506Y-53721255D01*
X118611061Y-53704069D01*
X118693135Y-53698052D01*
X118775243Y-53704174D01*
G37*
G36*
X119025000Y-54938989D02*
G01*
X118788878Y-54780475D01*
X119025000Y-54621351D01*
X119025000Y-54419790D01*
X118674450Y-54680092D01*
X118329396Y-54433467D01*
X118329396Y-54636372D01*
X118559045Y-54792077D01*
X118329396Y-54945828D01*
X118329396Y-55132979D01*
X118673107Y-54893865D01*
X119025000Y-55145985D01*
X119025000Y-54938989D01*
G37*
G36*
X119017184Y-55833528D02*
G01*
X119034220Y-55742670D01*
X119040631Y-55655903D01*
X119036757Y-55590108D01*
X119026221Y-55538056D01*
X119007595Y-55491969D01*
X118982318Y-55456051D01*
X118949231Y-55428165D01*
X118907213Y-55408241D01*
X118859143Y-55397021D01*
X118798525Y-55392914D01*
X118458356Y-55392914D01*
X118458356Y-55206435D01*
X118329396Y-55206435D01*
X118329396Y-55392914D01*
X118151221Y-55392914D01*
X118106646Y-55563701D01*
X118329396Y-55563701D01*
X118329396Y-55833528D01*
X118458356Y-55833528D01*
X118458356Y-55563701D01*
X118786802Y-55563701D01*
X118825776Y-55567182D01*
X118855162Y-55576583D01*
X118877172Y-55590995D01*
X118893152Y-55611415D01*
X118903745Y-55640872D01*
X118907763Y-55682586D01*
X118900680Y-55762454D01*
X118884316Y-55833528D01*
X119017184Y-55833528D01*
G37*
G36*
X118770987Y-56315481D02*
G01*
X118773704Y-56343367D01*
X118781673Y-56368726D01*
X118794280Y-56391809D01*
X118810554Y-56411407D01*
X118830286Y-56427498D01*
X118853541Y-56439800D01*
X118878973Y-56447461D01*
X118906481Y-56450058D01*
X118933363Y-56447470D01*
X118958443Y-56439800D01*
X118981401Y-56427523D01*
X119001125Y-56411407D01*
X119017351Y-56391814D01*
X119029945Y-56368726D01*
X119037914Y-56343367D01*
X119040631Y-56315481D01*
X119037933Y-56288900D01*
X119029945Y-56264251D01*
X119017377Y-56241783D01*
X119001125Y-56222546D01*
X118981431Y-56206770D01*
X118958443Y-56194580D01*
X118933363Y-56186911D01*
X118906481Y-56184322D01*
X118878973Y-56186920D01*
X118853541Y-56194580D01*
X118830255Y-56206795D01*
X118810554Y-56222546D01*
X118794253Y-56241787D01*
X118781673Y-56264251D01*
X118773685Y-56288900D01*
X118770987Y-56315481D01*
G37*
G36*
X118768942Y-56759076D02*
G01*
X118839314Y-56775634D01*
X118901770Y-56803692D01*
X118951055Y-56840542D01*
X118989904Y-56887184D01*
X119018161Y-56943673D01*
X119034765Y-57007072D01*
X119040631Y-57081670D01*
X119033712Y-57160001D01*
X119014070Y-57226445D01*
X118981806Y-57285410D01*
X118939148Y-57333729D01*
X118886554Y-57371935D01*
X118822950Y-57400652D01*
X118752844Y-57417909D01*
X118673351Y-57423916D01*
X118589196Y-57418043D01*
X118519722Y-57401690D01*
X118457798Y-57373970D01*
X118408347Y-57337148D01*
X118369096Y-57290526D01*
X118340509Y-57234017D01*
X118323644Y-57170519D01*
X118317672Y-57095348D01*
X118318157Y-57089853D01*
X118462264Y-57089853D01*
X118468709Y-57140011D01*
X118486741Y-57179068D01*
X118516242Y-57209715D01*
X118554483Y-57230883D01*
X118606814Y-57245056D01*
X118677442Y-57250381D01*
X118722689Y-57247916D01*
X118763660Y-57240795D01*
X118801767Y-57228577D01*
X118833269Y-57212096D01*
X118859567Y-57190056D01*
X118879431Y-57162210D01*
X118891702Y-57129562D01*
X118896039Y-57089853D01*
X118889700Y-57041921D01*
X118871593Y-57002775D01*
X118841390Y-56970296D01*
X118802471Y-56947428D01*
X118749654Y-56932251D01*
X118678785Y-56926576D01*
X118634845Y-56928939D01*
X118594644Y-56935796D01*
X118557179Y-56947892D01*
X118525767Y-56964800D01*
X118499318Y-56987406D01*
X118479239Y-57015359D01*
X118466746Y-57048342D01*
X118462264Y-57089853D01*
X118318157Y-57089853D01*
X118324484Y-57018171D01*
X118343928Y-56951855D01*
X118375762Y-56892843D01*
X118417873Y-56844266D01*
X118469827Y-56805756D01*
X118533033Y-56776672D01*
X118602863Y-56759207D01*
X118682876Y-56753103D01*
X118768942Y-56759076D01*
G37*
G36*
X118821240Y-58140158D02*
G01*
X118877332Y-58133275D01*
X118922418Y-58113841D01*
X118960289Y-58083406D01*
X118990561Y-58044170D01*
X119012937Y-57998538D01*
X119028663Y-57945802D01*
X119037625Y-57890373D01*
X119040631Y-57833450D01*
X119038519Y-57758782D01*
X119032632Y-57695453D01*
X119022686Y-57635025D01*
X119009368Y-57579315D01*
X118860868Y-57579315D01*
X118884095Y-57643992D01*
X118899642Y-57707421D01*
X118908768Y-57770546D01*
X118911671Y-57827954D01*
X118905832Y-57888719D01*
X118891338Y-57925957D01*
X118875739Y-57944561D01*
X118858325Y-57954969D01*
X118838276Y-57958441D01*
X118809638Y-57951602D01*
X118797640Y-57942470D01*
X118784787Y-57925957D01*
X118760301Y-57873017D01*
X118731969Y-57783563D01*
X118716259Y-57734179D01*
X118699607Y-57693743D01*
X118679413Y-57657708D01*
X118657048Y-57629874D01*
X118630499Y-57607722D01*
X118600139Y-57591955D01*
X118566059Y-57582662D01*
X118524118Y-57579315D01*
X118483044Y-57584100D01*
X118444434Y-57598427D01*
X118409716Y-57621867D01*
X118378672Y-57655458D01*
X118354011Y-57696744D01*
X118334036Y-57750102D01*
X118322034Y-57809440D01*
X118317672Y-57882604D01*
X118323778Y-57998741D01*
X118337212Y-58088256D01*
X118473988Y-58088256D01*
X118457236Y-58029411D01*
X118446755Y-57976576D01*
X118440786Y-57924372D01*
X118438817Y-57873078D01*
X118443948Y-57825055D01*
X118457623Y-57790769D01*
X118472186Y-57773152D01*
X118489280Y-57763107D01*
X118509830Y-57759689D01*
X118537796Y-57765795D01*
X118549145Y-57774226D01*
X118561610Y-57790036D01*
X118585851Y-57840594D01*
X118613389Y-57926384D01*
X118631788Y-57983806D01*
X118649842Y-58027440D01*
X118671282Y-58065500D01*
X118693806Y-58093324D01*
X118720232Y-58114906D01*
X118749677Y-58129228D01*
X118782356Y-58137290D01*
X118821240Y-58140158D01*
G37*
G36*
X118997644Y-58898105D02*
G01*
X119014955Y-58848134D01*
X119027137Y-58796316D01*
X119034284Y-58743019D01*
X119036723Y-58686346D01*
X119030853Y-58606301D01*
X119014253Y-58538091D01*
X118985986Y-58476880D01*
X118947513Y-58426716D01*
X118898578Y-58386748D01*
X118837848Y-58356740D01*
X118769339Y-58338882D01*
X118686662Y-58332499D01*
X118606189Y-58339291D01*
X118536147Y-58358755D01*
X118473141Y-58390766D01*
X118421048Y-58432883D01*
X118379097Y-58485144D01*
X118347470Y-58547982D01*
X118328274Y-58617847D01*
X118321580Y-58697948D01*
X118323710Y-58762937D01*
X118329335Y-58811704D01*
X118348935Y-58894685D01*
X118509159Y-58894685D01*
X118491109Y-58850947D01*
X118477407Y-58802789D01*
X118468886Y-58753754D01*
X118466172Y-58708877D01*
X118470225Y-58664039D01*
X118481803Y-58625530D01*
X118500608Y-58591312D01*
X118525218Y-58563370D01*
X118555528Y-58541340D01*
X118592690Y-58524779D01*
X118633644Y-58514900D01*
X118679823Y-58511468D01*
X118727737Y-58515207D01*
X118768728Y-58525817D01*
X118805485Y-58543384D01*
X118835528Y-58566423D01*
X118859629Y-58595216D01*
X118877538Y-58629621D01*
X118888368Y-58667954D01*
X118892131Y-58711625D01*
X118888956Y-58757726D01*
X118879797Y-58806208D01*
X118866058Y-58854019D01*
X118849145Y-58898105D01*
X118997644Y-58898105D01*
G37*
G36*
X120408000Y-49956130D02*
G01*
X120259501Y-49956130D01*
X120259501Y-50381051D01*
X120408000Y-50381051D01*
X120408000Y-49956130D01*
G37*
G36*
X120474434Y-50701131D02*
G01*
X120705000Y-50677196D01*
X120705000Y-50811102D01*
X120474434Y-50834305D01*
X120474434Y-50992818D01*
X120705000Y-50968883D01*
X120705000Y-51102789D01*
X120474434Y-51125992D01*
X120474434Y-51256479D01*
X120349382Y-51256479D01*
X120349382Y-51138998D01*
X120153988Y-51158781D01*
X120153988Y-51292688D01*
X120028935Y-51292688D01*
X120028935Y-51171116D01*
X119814002Y-51192975D01*
X119814002Y-51059069D01*
X120028935Y-51037210D01*
X120028935Y-50879429D01*
X119814002Y-50901288D01*
X119814002Y-50867094D01*
X120153988Y-50867094D01*
X120153988Y-51024936D01*
X120349382Y-51005092D01*
X120349382Y-50847311D01*
X120153988Y-50867094D01*
X119814002Y-50867094D01*
X119814002Y-50767382D01*
X120028935Y-50745523D01*
X120028935Y-50617112D01*
X120153988Y-50617112D01*
X120153988Y-50733249D01*
X120349382Y-50713405D01*
X120349382Y-50580903D01*
X120474434Y-50580903D01*
X120474434Y-50701131D01*
G37*
G36*
X120474434Y-51470008D02*
G01*
X120705000Y-51446072D01*
X120705000Y-51579978D01*
X120474434Y-51603181D01*
X120474434Y-51761695D01*
X120705000Y-51737759D01*
X120705000Y-51871665D01*
X120474434Y-51894868D01*
X120474434Y-52025355D01*
X120349382Y-52025355D01*
X120349382Y-51907874D01*
X120153988Y-51927658D01*
X120153988Y-52061564D01*
X120028935Y-52061564D01*
X120028935Y-51939992D01*
X119814002Y-51961852D01*
X119814002Y-51827946D01*
X120028935Y-51806086D01*
X120028935Y-51648305D01*
X119814002Y-51670165D01*
X119814002Y-51635971D01*
X120153988Y-51635971D01*
X120153988Y-51793813D01*
X120349382Y-51773968D01*
X120349382Y-51616187D01*
X120153988Y-51635971D01*
X119814002Y-51635971D01*
X119814002Y-51536259D01*
X120028935Y-51514399D01*
X120028935Y-51385988D01*
X120153988Y-51385988D01*
X120153988Y-51502126D01*
X120349382Y-51482281D01*
X120349382Y-51349779D01*
X120474434Y-51349779D01*
X120474434Y-51470008D01*
G37*
G36*
X120408000Y-52262759D02*
G01*
X120259501Y-52262759D01*
X120259501Y-52687681D01*
X120408000Y-52687681D01*
X120408000Y-52262759D01*
G37*
G36*
X120974644Y-53890027D02*
G01*
X120704450Y-53890027D01*
X120713304Y-53937166D01*
X120716723Y-53989068D01*
X120711048Y-54064305D01*
X120694619Y-54131827D01*
X120666350Y-54193318D01*
X120626536Y-54245523D01*
X120575492Y-54287882D01*
X120511132Y-54320688D01*
X120464050Y-54335189D01*
X120409506Y-54344412D01*
X120346329Y-54347677D01*
X120268231Y-54343194D01*
X120201615Y-54330580D01*
X120140809Y-54309125D01*
X120092011Y-54281060D01*
X120051753Y-54244610D01*
X120022219Y-54200826D01*
X120004016Y-54150509D01*
X119997672Y-54091527D01*
X119999767Y-54054352D01*
X120000097Y-54052571D01*
X120142264Y-54052571D01*
X120145309Y-54080058D01*
X120154049Y-54103434D01*
X120168893Y-54123541D01*
X120191479Y-54141048D01*
X120219350Y-54154160D01*
X120256875Y-54164617D01*
X120298736Y-54170569D01*
X120353290Y-54172799D01*
X120405012Y-54169574D01*
X120449338Y-54160465D01*
X120489641Y-54145155D01*
X120521817Y-54125294D01*
X120548207Y-54099940D01*
X120567674Y-54069973D01*
X120579720Y-54036145D01*
X120583855Y-53997921D01*
X120579153Y-53938815D01*
X120567002Y-53890027D01*
X120267683Y-53890027D01*
X120213680Y-53933812D01*
X120175969Y-53971665D01*
X120156686Y-53998805D01*
X120145803Y-54025539D01*
X120142264Y-54052571D01*
X120000097Y-54052571D01*
X120005671Y-54022529D01*
X120015429Y-53992701D01*
X120028630Y-53965132D01*
X120064900Y-53915612D01*
X120112100Y-53871587D01*
X120009396Y-53867496D01*
X120009396Y-53723331D01*
X120974644Y-53723331D01*
X120974644Y-53890027D01*
G37*
G36*
X120279040Y-54938989D02*
G01*
X120242760Y-54938626D01*
X120214987Y-54935203D01*
X120190111Y-54928291D01*
X120171390Y-54918839D01*
X120156352Y-54906055D01*
X120146294Y-54891117D01*
X120140415Y-54873912D01*
X120138356Y-54853626D01*
X120145310Y-54817542D01*
X120168398Y-54777422D01*
X120204773Y-54739170D01*
X120267316Y-54691021D01*
X120705000Y-54691021D01*
X120705000Y-54520235D01*
X120009396Y-54520235D01*
X120009396Y-54671177D01*
X120114909Y-54677344D01*
X120066671Y-54715934D01*
X120029729Y-54763745D01*
X120016155Y-54791220D01*
X120005976Y-54822180D01*
X119999823Y-54855198D01*
X119997672Y-54892522D01*
X120002338Y-54943143D01*
X120015563Y-54985762D01*
X120037739Y-55023151D01*
X120068564Y-55054088D01*
X120106981Y-55077637D01*
X120156613Y-55095060D01*
X120211767Y-55104358D01*
X120279040Y-55106356D01*
X120279040Y-54938989D01*
G37*
G36*
X120448942Y-55221323D02*
G01*
X120519314Y-55237881D01*
X120581770Y-55265939D01*
X120631055Y-55302789D01*
X120669904Y-55349431D01*
X120698161Y-55405920D01*
X120714765Y-55469319D01*
X120720631Y-55543918D01*
X120713712Y-55622248D01*
X120694070Y-55688692D01*
X120661806Y-55747657D01*
X120619148Y-55795976D01*
X120566554Y-55834182D01*
X120502950Y-55862899D01*
X120432844Y-55880156D01*
X120353351Y-55886163D01*
X120269196Y-55880290D01*
X120199722Y-55863937D01*
X120137798Y-55836217D01*
X120088347Y-55799396D01*
X120049096Y-55752773D01*
X120020509Y-55696264D01*
X120003644Y-55632766D01*
X119997672Y-55557595D01*
X119998157Y-55552100D01*
X120142264Y-55552100D01*
X120148709Y-55602258D01*
X120166741Y-55641315D01*
X120196242Y-55671962D01*
X120234483Y-55693130D01*
X120286814Y-55707303D01*
X120357442Y-55712628D01*
X120402689Y-55710163D01*
X120443660Y-55703042D01*
X120481767Y-55690824D01*
X120513269Y-55674343D01*
X120539567Y-55652303D01*
X120559431Y-55624457D01*
X120571702Y-55591809D01*
X120576039Y-55552100D01*
X120569700Y-55504168D01*
X120551593Y-55465022D01*
X120521390Y-55432543D01*
X120482471Y-55409675D01*
X120429654Y-55394498D01*
X120358785Y-55388823D01*
X120314845Y-55391186D01*
X120274644Y-55398043D01*
X120237179Y-55410139D01*
X120205767Y-55427047D01*
X120179318Y-55449653D01*
X120159239Y-55477606D01*
X120146746Y-55510589D01*
X120142264Y-55552100D01*
X119998157Y-55552100D01*
X120004484Y-55480418D01*
X120023928Y-55414102D01*
X120055762Y-55355090D01*
X120097873Y-55306513D01*
X120149827Y-55268003D01*
X120213033Y-55238919D01*
X120282863Y-55221454D01*
X120362876Y-55215350D01*
X120448942Y-55221323D01*
G37*
G36*
X120848897Y-55991572D02*
G01*
X120883236Y-56005353D01*
X120913254Y-56028182D01*
X120939961Y-56062384D01*
X120960374Y-56104431D01*
X120977025Y-56161424D01*
X120986690Y-56224905D01*
X120990275Y-56305955D01*
X120985370Y-56389821D01*
X120971835Y-56458302D01*
X120949396Y-56520083D01*
X120921765Y-56567906D01*
X120886762Y-56606920D01*
X120847210Y-56633851D01*
X120802947Y-56650241D01*
X120755924Y-56655711D01*
X120715402Y-56651211D01*
X120680636Y-56638248D01*
X120650277Y-56617344D01*
X120624460Y-56588727D01*
X120604275Y-56554268D01*
X120588679Y-56511913D01*
X120579005Y-56465625D01*
X120574635Y-56411834D01*
X120568468Y-56247215D01*
X120563813Y-56221936D01*
X120697001Y-56221936D01*
X120699748Y-56368787D01*
X120705427Y-56414887D01*
X120718189Y-56451096D01*
X120739010Y-56475032D01*
X120752533Y-56481344D01*
X120769602Y-56483581D01*
X120789339Y-56481370D01*
X120808558Y-56474666D01*
X120825816Y-56463228D01*
X120841470Y-56445296D01*
X120853778Y-56422877D01*
X120864307Y-56392356D01*
X120870655Y-56358034D01*
X120873039Y-56312794D01*
X120867692Y-56243498D01*
X120854232Y-56198305D01*
X120838766Y-56175110D01*
X120819687Y-56162123D01*
X120795797Y-56157700D01*
X120770212Y-56160081D01*
X120746338Y-56169607D01*
X120722524Y-56189451D01*
X120697001Y-56221936D01*
X120563813Y-56221936D01*
X120562362Y-56214059D01*
X120548501Y-56188780D01*
X120529145Y-56172721D01*
X120507468Y-56167286D01*
X120490588Y-56169379D01*
X120475961Y-56175468D01*
X120450498Y-56195252D01*
X120458889Y-56213067D01*
X120467290Y-56241658D01*
X120472586Y-56273215D01*
X120474434Y-56308642D01*
X120470462Y-56368509D01*
X120459108Y-56421055D01*
X120439726Y-56469011D01*
X120413679Y-56508494D01*
X120380134Y-56540863D01*
X120339185Y-56565219D01*
X120292495Y-56580108D01*
X120236725Y-56585369D01*
X120209038Y-56583400D01*
X120181892Y-56577492D01*
X120155906Y-56566972D01*
X120130540Y-56550503D01*
X120130540Y-56659802D01*
X120009396Y-56659802D01*
X120009396Y-56419345D01*
X120000298Y-56367749D01*
X119997672Y-56308642D01*
X119997767Y-56307299D01*
X120114909Y-56307299D01*
X120118845Y-56344715D01*
X120129780Y-56374293D01*
X120147210Y-56397790D01*
X120170642Y-56415334D01*
X120200102Y-56426323D01*
X120237336Y-56430275D01*
X120284291Y-56422764D01*
X120305452Y-56413322D01*
X120323736Y-56400233D01*
X120338849Y-56383477D01*
X120350908Y-56362314D01*
X120358424Y-56338149D01*
X120361106Y-56308703D01*
X120357171Y-56271286D01*
X120346237Y-56241685D01*
X120328804Y-56218150D01*
X120305434Y-56200517D01*
X120276810Y-56189608D01*
X120241427Y-56185727D01*
X120193128Y-56193237D01*
X120171291Y-56202706D01*
X120152644Y-56215769D01*
X120137239Y-56232553D01*
X120125106Y-56253687D01*
X120117591Y-56277853D01*
X120114909Y-56307299D01*
X119997767Y-56307299D01*
X120001805Y-56250040D01*
X120013731Y-56197633D01*
X120033834Y-56149714D01*
X120060870Y-56109828D01*
X120095372Y-56077087D01*
X120137379Y-56052126D01*
X120184950Y-56036707D01*
X120240816Y-56031304D01*
X120292063Y-56035831D01*
X120330636Y-56048035D01*
X120364219Y-56067211D01*
X120391758Y-56090106D01*
X120425219Y-56062750D01*
X120460757Y-56039853D01*
X120499286Y-56023794D01*
X120542700Y-56017688D01*
X120575743Y-56022020D01*
X120606875Y-56035090D01*
X120633866Y-56056178D01*
X120656029Y-56085953D01*
X120691383Y-56042234D01*
X120727714Y-56011459D01*
X120766732Y-55993019D01*
X120810940Y-55986913D01*
X120848897Y-55991572D01*
G37*
G36*
X120279040Y-57245618D02*
G01*
X120242760Y-57245256D01*
X120214987Y-57241833D01*
X120190111Y-57234921D01*
X120171390Y-57225468D01*
X120156352Y-57212685D01*
X120146294Y-57197747D01*
X120140415Y-57180541D01*
X120138356Y-57160256D01*
X120145310Y-57124171D01*
X120168398Y-57084052D01*
X120204773Y-57045800D01*
X120267316Y-56997651D01*
X120705000Y-56997651D01*
X120705000Y-56826864D01*
X120009396Y-56826864D01*
X120009396Y-56977806D01*
X120114909Y-56983973D01*
X120066671Y-57022564D01*
X120029729Y-57070374D01*
X120016155Y-57097850D01*
X120005976Y-57128809D01*
X119999823Y-57161828D01*
X119997672Y-57199151D01*
X120002338Y-57249773D01*
X120015563Y-57292391D01*
X120037739Y-57329781D01*
X120068564Y-57360718D01*
X120106981Y-57384266D01*
X120156613Y-57401690D01*
X120211767Y-57410988D01*
X120279040Y-57412986D01*
X120279040Y-57245618D01*
G37*
G36*
X120553997Y-57550805D02*
G01*
X120594663Y-57561180D01*
X120631335Y-57578710D01*
X120661707Y-57602518D01*
X120686163Y-57632683D01*
X120705061Y-57670174D01*
X120716529Y-57712472D01*
X120720631Y-57763719D01*
X120718601Y-57803149D01*
X120712815Y-57837846D01*
X120703288Y-57870699D01*
X120690772Y-57900372D01*
X120657128Y-57952946D01*
X120614691Y-57998741D01*
X120705000Y-58002832D01*
X120705000Y-58145653D01*
X120232084Y-58145653D01*
X120175722Y-58141138D01*
X120129563Y-58128556D01*
X120089186Y-58106748D01*
X120056290Y-58075617D01*
X120031240Y-58036115D01*
X120012327Y-57984392D01*
X120001631Y-57926215D01*
X119997672Y-57851890D01*
X120001044Y-57782369D01*
X120010983Y-57716274D01*
X120026505Y-57653289D01*
X120044567Y-57601175D01*
X120177435Y-57601175D01*
X120154375Y-57658141D01*
X120137135Y-57716946D01*
X120126327Y-57777152D01*
X120122725Y-57838213D01*
X120125004Y-57875524D01*
X120131090Y-57903792D01*
X120141449Y-57928562D01*
X120154659Y-57947206D01*
X120171477Y-57961599D01*
X120191723Y-57971447D01*
X120214400Y-57977005D01*
X120240633Y-57978958D01*
X120282948Y-57978958D01*
X120282948Y-57888099D01*
X120283545Y-57877169D01*
X120400184Y-57877169D01*
X120400184Y-57978958D01*
X120491592Y-57978958D01*
X120534310Y-57933795D01*
X120562911Y-57896281D01*
X120581951Y-57858215D01*
X120587763Y-57823863D01*
X120581868Y-57780239D01*
X120565903Y-57749369D01*
X120549570Y-57734489D01*
X120528861Y-57725346D01*
X120502400Y-57722075D01*
X120482063Y-57724226D01*
X120463077Y-57730624D01*
X120445939Y-57741428D01*
X120430471Y-57757613D01*
X120418220Y-57777957D01*
X120408244Y-57805423D01*
X120402379Y-57836483D01*
X120400184Y-57877169D01*
X120283545Y-57877169D01*
X120287492Y-57804962D01*
X120299923Y-57738134D01*
X120320773Y-57677926D01*
X120346634Y-57631522D01*
X120379835Y-57593845D01*
X120417770Y-57568019D01*
X120460680Y-57552470D01*
X120507896Y-57547197D01*
X120553997Y-57550805D01*
G37*
G36*
X120705000Y-58826419D02*
G01*
X120233977Y-58826419D01*
X120188731Y-58825015D01*
X120156430Y-58819580D01*
X120137013Y-58807613D01*
X120132287Y-58798747D01*
X120130540Y-58786119D01*
X120136722Y-58766555D01*
X120159117Y-58744415D01*
X120193269Y-58724703D01*
X120256448Y-58697948D01*
X120705000Y-58697948D01*
X120705000Y-58555188D01*
X120233977Y-58555188D01*
X120188731Y-58553783D01*
X120156430Y-58548349D01*
X120137013Y-58536076D01*
X120132274Y-58526901D01*
X120130540Y-58514216D01*
X120136360Y-58497346D01*
X120159117Y-58474587D01*
X120193346Y-58453757D01*
X120256448Y-58426105D01*
X120705000Y-58426105D01*
X120705000Y-58281941D01*
X120009396Y-58281941D01*
X120009396Y-58405589D01*
X120110696Y-58408337D01*
X120058916Y-58438378D01*
X120023562Y-58470496D01*
X120011608Y-58488346D01*
X120003717Y-58507011D01*
X119997672Y-58551096D01*
X120001413Y-58588667D01*
X120011644Y-58617488D01*
X120027653Y-58639573D01*
X120049344Y-58656437D01*
X120076560Y-58668047D01*
X120110696Y-58674073D01*
X120058916Y-58706496D01*
X120023562Y-58739957D01*
X120011633Y-58758221D01*
X120003717Y-58777571D01*
X119997672Y-58822267D01*
X120004024Y-58870052D01*
X120021697Y-58906460D01*
X120050612Y-58934314D01*
X120087762Y-58953090D01*
X120138654Y-58965753D01*
X120207294Y-58970523D01*
X120705000Y-58970523D01*
X120705000Y-58826419D01*
G37*
G36*
X122154434Y-49932255D02*
G01*
X122385000Y-49908319D01*
X122385000Y-50042225D01*
X122154434Y-50065428D01*
X122154434Y-50223942D01*
X122385000Y-50200006D01*
X122385000Y-50333912D01*
X122154434Y-50357115D01*
X122154434Y-50487602D01*
X122029382Y-50487602D01*
X122029382Y-50370121D01*
X121833988Y-50389905D01*
X121833988Y-50523811D01*
X121708935Y-50523811D01*
X121708935Y-50402239D01*
X121494002Y-50424099D01*
X121494002Y-50290193D01*
X121708935Y-50268333D01*
X121708935Y-50110552D01*
X121494002Y-50132412D01*
X121494002Y-50098218D01*
X121833988Y-50098218D01*
X121833988Y-50256060D01*
X122029382Y-50236215D01*
X122029382Y-50078434D01*
X121833988Y-50098218D01*
X121494002Y-50098218D01*
X121494002Y-49998506D01*
X121708935Y-49976646D01*
X121708935Y-49848235D01*
X121833988Y-49848235D01*
X121833988Y-49964373D01*
X122029382Y-49944528D01*
X122029382Y-49812026D01*
X122154434Y-49812026D01*
X122154434Y-49932255D01*
G37*
G36*
X122088000Y-50725006D02*
G01*
X121939501Y-50725006D01*
X121939501Y-51149928D01*
X122088000Y-51149928D01*
X122088000Y-50725006D01*
G37*
G36*
X122088000Y-51493883D02*
G01*
X121939501Y-51493883D01*
X121939501Y-51918804D01*
X122088000Y-51918804D01*
X122088000Y-51493883D01*
G37*
G36*
X122088000Y-52262759D02*
G01*
X121939501Y-52262759D01*
X121939501Y-52687681D01*
X122088000Y-52687681D01*
X122088000Y-52262759D01*
G37*
G36*
X121689396Y-53888623D02*
G01*
X122141367Y-53888623D01*
X122193678Y-53894579D01*
X122227035Y-53909811D01*
X122242843Y-53925913D01*
X122252550Y-53946788D01*
X122256039Y-53973986D01*
X122252454Y-54000575D01*
X122241370Y-54027096D01*
X122221601Y-54054280D01*
X122183132Y-54092146D01*
X122128361Y-54135919D01*
X121689396Y-54135919D01*
X121689396Y-54302614D01*
X122385000Y-54302614D01*
X122385000Y-54158450D01*
X122282295Y-54154359D01*
X122330900Y-54109968D01*
X122368147Y-54061119D01*
X122381744Y-54033805D01*
X122392083Y-54003722D01*
X122398411Y-53971684D01*
X122400631Y-53935090D01*
X122396043Y-53883990D01*
X122383168Y-53841850D01*
X122361899Y-53805059D01*
X122333525Y-53775233D01*
X122298721Y-53752216D01*
X122256528Y-53735299D01*
X122210133Y-53725461D01*
X122156266Y-53721988D01*
X121689396Y-53721988D01*
X121689396Y-53888623D01*
G37*
G36*
X122233997Y-54475299D02*
G01*
X122274663Y-54485674D01*
X122311335Y-54503204D01*
X122341707Y-54527012D01*
X122366163Y-54557177D01*
X122385061Y-54594668D01*
X122396529Y-54636966D01*
X122400631Y-54688213D01*
X122398601Y-54727643D01*
X122392815Y-54762340D01*
X122383288Y-54795194D01*
X122370772Y-54824867D01*
X122337128Y-54877440D01*
X122294691Y-54923235D01*
X122385000Y-54927326D01*
X122385000Y-55070147D01*
X121912084Y-55070147D01*
X121855722Y-55065632D01*
X121809563Y-55053050D01*
X121769186Y-55031242D01*
X121736290Y-55000111D01*
X121711240Y-54960609D01*
X121692327Y-54908886D01*
X121681631Y-54850709D01*
X121677672Y-54776384D01*
X121681044Y-54706863D01*
X121690983Y-54640769D01*
X121706505Y-54577783D01*
X121724567Y-54525669D01*
X121857435Y-54525669D01*
X121834375Y-54582635D01*
X121817135Y-54641440D01*
X121806327Y-54701646D01*
X121802725Y-54762707D01*
X121805004Y-54800018D01*
X121811090Y-54828286D01*
X121821449Y-54853056D01*
X121834659Y-54871700D01*
X121851477Y-54886093D01*
X121871723Y-54895941D01*
X121894400Y-54901499D01*
X121920633Y-54903452D01*
X121962948Y-54903452D01*
X121962948Y-54812593D01*
X121963545Y-54801663D01*
X122080184Y-54801663D01*
X122080184Y-54903452D01*
X122171592Y-54903452D01*
X122214310Y-54858289D01*
X122242911Y-54820775D01*
X122261951Y-54782709D01*
X122267763Y-54748357D01*
X122261868Y-54704733D01*
X122245903Y-54673863D01*
X122229570Y-54658983D01*
X122208861Y-54649840D01*
X122182400Y-54646569D01*
X122162063Y-54648721D01*
X122143077Y-54655118D01*
X122125939Y-54665922D01*
X122110471Y-54682107D01*
X122098220Y-54702451D01*
X122088244Y-54729917D01*
X122082379Y-54760977D01*
X122080184Y-54801663D01*
X121963545Y-54801663D01*
X121967492Y-54729456D01*
X121979923Y-54662628D01*
X122000773Y-54602420D01*
X122026634Y-54556016D01*
X122059835Y-54518339D01*
X122097770Y-54492513D01*
X122140680Y-54476964D01*
X122187896Y-54471691D01*
X122233997Y-54475299D01*
G37*
G36*
X121959040Y-55707866D02*
G01*
X121922760Y-55707503D01*
X121894987Y-55704080D01*
X121870111Y-55697168D01*
X121851390Y-55687715D01*
X121836352Y-55674932D01*
X121826294Y-55659994D01*
X121820415Y-55642788D01*
X121818356Y-55622503D01*
X121825310Y-55586418D01*
X121848398Y-55546299D01*
X121884773Y-55508047D01*
X121947316Y-55459898D01*
X122385000Y-55459898D01*
X122385000Y-55289111D01*
X121689396Y-55289111D01*
X121689396Y-55440053D01*
X121794909Y-55446220D01*
X121746671Y-55484811D01*
X121709729Y-55532621D01*
X121696155Y-55560097D01*
X121685976Y-55591056D01*
X121679823Y-55624075D01*
X121677672Y-55661398D01*
X121682338Y-55712020D01*
X121695563Y-55754638D01*
X121717739Y-55792028D01*
X121748564Y-55822965D01*
X121786981Y-55846513D01*
X121836613Y-55863937D01*
X121891767Y-55873235D01*
X121959040Y-55875233D01*
X121959040Y-55707866D01*
G37*
G36*
X122377184Y-56602405D02*
G01*
X122394220Y-56511547D01*
X122400631Y-56424779D01*
X122396757Y-56358985D01*
X122386221Y-56306932D01*
X122367595Y-56260845D01*
X122342318Y-56224928D01*
X122309231Y-56197041D01*
X122267213Y-56177117D01*
X122219143Y-56165897D01*
X122158525Y-56161791D01*
X121818356Y-56161791D01*
X121818356Y-55975311D01*
X121689396Y-55975311D01*
X121689396Y-56161791D01*
X121511221Y-56161791D01*
X121466646Y-56332578D01*
X121689396Y-56332578D01*
X121689396Y-56602405D01*
X121818356Y-56602405D01*
X121818356Y-56332578D01*
X122146802Y-56332578D01*
X122185776Y-56336059D01*
X122215162Y-56345460D01*
X122237172Y-56359872D01*
X122253152Y-56380291D01*
X122263745Y-56409749D01*
X122267763Y-56451463D01*
X122260680Y-56531330D01*
X122244316Y-56602405D01*
X122377184Y-56602405D01*
G37*
G36*
X122088000Y-56876018D02*
G01*
X121939501Y-56876018D01*
X121939501Y-57300939D01*
X122088000Y-57300939D01*
X122088000Y-56876018D01*
G37*
G36*
X122377184Y-58140158D02*
G01*
X122394220Y-58049300D01*
X122400631Y-57962532D01*
X122396757Y-57896738D01*
X122386221Y-57844685D01*
X122367595Y-57798598D01*
X122342318Y-57762681D01*
X122309231Y-57734794D01*
X122267213Y-57714870D01*
X122219143Y-57703650D01*
X122158525Y-57699544D01*
X121818356Y-57699544D01*
X121818356Y-57513064D01*
X121689396Y-57513064D01*
X121689396Y-57699544D01*
X121511221Y-57699544D01*
X121466646Y-57870331D01*
X121689396Y-57870331D01*
X121689396Y-58140158D01*
X121818356Y-58140158D01*
X121818356Y-57870331D01*
X122146802Y-57870331D01*
X122185776Y-57873812D01*
X122215162Y-57883213D01*
X122237172Y-57897625D01*
X122253152Y-57918044D01*
X122263745Y-57947502D01*
X122267763Y-57989216D01*
X122260680Y-58069083D01*
X122244316Y-58140158D01*
X122377184Y-58140158D01*
G37*
G36*
X122385000Y-58783371D02*
G01*
X122148878Y-58624858D01*
X122385000Y-58465734D01*
X122385000Y-58264172D01*
X122034450Y-58524474D01*
X121689396Y-58277850D01*
X121689396Y-58480755D01*
X121919045Y-58636459D01*
X121689396Y-58790210D01*
X121689396Y-58977361D01*
X122033107Y-58738248D01*
X122385000Y-58990367D01*
X122385000Y-58783371D01*
G37*
D11*
X131675980Y-62556950D02*
X132675980Y-62556950D01*
X132675980Y-62556950D02*
X132675980Y-62175998D01*
X132675980Y-62175998D02*
X132628361Y-62080760D01*
X132628361Y-62080760D02*
X132580742Y-62033141D01*
X132580742Y-62033141D02*
X132485504Y-61985522D01*
X132485504Y-61985522D02*
X132342647Y-61985522D01*
X132342647Y-61985522D02*
X132247409Y-62033141D01*
X132247409Y-62033141D02*
X132199790Y-62080760D01*
X132199790Y-62080760D02*
X132152171Y-62175998D01*
X132152171Y-62175998D02*
X132152171Y-62556950D01*
X132675980Y-61366474D02*
X132675980Y-61271236D01*
X132675980Y-61271236D02*
X132628361Y-61175998D01*
X132628361Y-61175998D02*
X132580742Y-61128379D01*
X132580742Y-61128379D02*
X132485504Y-61080760D01*
X132485504Y-61080760D02*
X132295028Y-61033141D01*
X132295028Y-61033141D02*
X132056933Y-61033141D01*
X132056933Y-61033141D02*
X131866457Y-61080760D01*
X131866457Y-61080760D02*
X131771219Y-61128379D01*
X131771219Y-61128379D02*
X131723600Y-61175998D01*
X131723600Y-61175998D02*
X131675980Y-61271236D01*
X131675980Y-61271236D02*
X131675980Y-61366474D01*
X131675980Y-61366474D02*
X131723600Y-61461712D01*
X131723600Y-61461712D02*
X131771219Y-61509331D01*
X131771219Y-61509331D02*
X131866457Y-61556950D01*
X131866457Y-61556950D02*
X132056933Y-61604569D01*
X132056933Y-61604569D02*
X132295028Y-61604569D01*
X132295028Y-61604569D02*
X132485504Y-61556950D01*
X132485504Y-61556950D02*
X132580742Y-61509331D01*
X132580742Y-61509331D02*
X132628361Y-61461712D01*
X132628361Y-61461712D02*
X132675980Y-61366474D01*
X132675980Y-60128379D02*
X132675980Y-60604569D01*
X132675980Y-60604569D02*
X132199790Y-60652188D01*
X132199790Y-60652188D02*
X132247409Y-60604569D01*
X132247409Y-60604569D02*
X132295028Y-60509331D01*
X132295028Y-60509331D02*
X132295028Y-60271236D01*
X132295028Y-60271236D02*
X132247409Y-60175998D01*
X132247409Y-60175998D02*
X132199790Y-60128379D01*
X132199790Y-60128379D02*
X132104552Y-60080760D01*
X132104552Y-60080760D02*
X131866457Y-60080760D01*
X131866457Y-60080760D02*
X131771219Y-60128379D01*
X131771219Y-60128379D02*
X131723600Y-60175998D01*
X131723600Y-60175998D02*
X131675980Y-60271236D01*
X131675980Y-60271236D02*
X131675980Y-60509331D01*
X131675980Y-60509331D02*
X131723600Y-60604569D01*
X131723600Y-60604569D02*
X131771219Y-60652188D01*
X127078580Y-69843420D02*
X128078580Y-69843420D01*
X128078580Y-69843420D02*
X128078580Y-69605325D01*
X128078580Y-69605325D02*
X128030961Y-69462468D01*
X128030961Y-69462468D02*
X127935723Y-69367230D01*
X127935723Y-69367230D02*
X127840485Y-69319611D01*
X127840485Y-69319611D02*
X127650009Y-69271992D01*
X127650009Y-69271992D02*
X127507152Y-69271992D01*
X127507152Y-69271992D02*
X127316676Y-69319611D01*
X127316676Y-69319611D02*
X127221438Y-69367230D01*
X127221438Y-69367230D02*
X127126200Y-69462468D01*
X127126200Y-69462468D02*
X127078580Y-69605325D01*
X127078580Y-69605325D02*
X127078580Y-69843420D01*
X127459533Y-68843420D02*
X127459533Y-68081516D01*
X127078580Y-68462468D02*
X127840485Y-68462468D01*
X129618580Y-69843420D02*
X130618580Y-69843420D01*
X130618580Y-69843420D02*
X130618580Y-69605325D01*
X130618580Y-69605325D02*
X130570961Y-69462468D01*
X130570961Y-69462468D02*
X130475723Y-69367230D01*
X130475723Y-69367230D02*
X130380485Y-69319611D01*
X130380485Y-69319611D02*
X130190009Y-69271992D01*
X130190009Y-69271992D02*
X130047152Y-69271992D01*
X130047152Y-69271992D02*
X129856676Y-69319611D01*
X129856676Y-69319611D02*
X129761438Y-69367230D01*
X129761438Y-69367230D02*
X129666200Y-69462468D01*
X129666200Y-69462468D02*
X129618580Y-69605325D01*
X129618580Y-69605325D02*
X129618580Y-69843420D01*
X129999533Y-68843420D02*
X129999533Y-68081516D01*
X120541820Y-73826019D02*
X120541820Y-74635542D01*
X120541820Y-74635542D02*
X120494201Y-74730780D01*
X120494201Y-74730780D02*
X120446582Y-74778400D01*
X120446582Y-74778400D02*
X120351344Y-74826019D01*
X120351344Y-74826019D02*
X120160868Y-74826019D01*
X120160868Y-74826019D02*
X120065630Y-74778400D01*
X120065630Y-74778400D02*
X120018011Y-74730780D01*
X120018011Y-74730780D02*
X119970392Y-74635542D01*
X119970392Y-74635542D02*
X119970392Y-73826019D01*
X119541820Y-74778400D02*
X119398963Y-74826019D01*
X119398963Y-74826019D02*
X119160868Y-74826019D01*
X119160868Y-74826019D02*
X119065630Y-74778400D01*
X119065630Y-74778400D02*
X119018011Y-74730780D01*
X119018011Y-74730780D02*
X118970392Y-74635542D01*
X118970392Y-74635542D02*
X118970392Y-74540304D01*
X118970392Y-74540304D02*
X119018011Y-74445066D01*
X119018011Y-74445066D02*
X119065630Y-74397447D01*
X119065630Y-74397447D02*
X119160868Y-74349828D01*
X119160868Y-74349828D02*
X119351344Y-74302209D01*
X119351344Y-74302209D02*
X119446582Y-74254590D01*
X119446582Y-74254590D02*
X119494201Y-74206971D01*
X119494201Y-74206971D02*
X119541820Y-74111733D01*
X119541820Y-74111733D02*
X119541820Y-74016495D01*
X119541820Y-74016495D02*
X119494201Y-73921257D01*
X119494201Y-73921257D02*
X119446582Y-73873638D01*
X119446582Y-73873638D02*
X119351344Y-73826019D01*
X119351344Y-73826019D02*
X119113249Y-73826019D01*
X119113249Y-73826019D02*
X118970392Y-73873638D01*
X118208487Y-74302209D02*
X118065630Y-74349828D01*
X118065630Y-74349828D02*
X118018011Y-74397447D01*
X118018011Y-74397447D02*
X117970392Y-74492685D01*
X117970392Y-74492685D02*
X117970392Y-74635542D01*
X117970392Y-74635542D02*
X118018011Y-74730780D01*
X118018011Y-74730780D02*
X118065630Y-74778400D01*
X118065630Y-74778400D02*
X118160868Y-74826019D01*
X118160868Y-74826019D02*
X118541820Y-74826019D01*
X118541820Y-74826019D02*
X118541820Y-73826019D01*
X118541820Y-73826019D02*
X118208487Y-73826019D01*
X118208487Y-73826019D02*
X118113249Y-73873638D01*
X118113249Y-73873638D02*
X118065630Y-73921257D01*
X118065630Y-73921257D02*
X118018011Y-74016495D01*
X118018011Y-74016495D02*
X118018011Y-74111733D01*
X118018011Y-74111733D02*
X118065630Y-74206971D01*
X118065630Y-74206971D02*
X118113249Y-74254590D01*
X118113249Y-74254590D02*
X118208487Y-74302209D01*
X118208487Y-74302209D02*
X118541820Y-74302209D01*
X117018011Y-74826019D02*
X117589439Y-74826019D01*
X117303725Y-74826019D02*
X117303725Y-73826019D01*
X117303725Y-73826019D02*
X117398963Y-73968876D01*
X117398963Y-73968876D02*
X117494201Y-74064114D01*
X117494201Y-74064114D02*
X117589439Y-74111733D01*
X133158580Y-69240230D02*
X133158580Y-69716420D01*
X133158580Y-69716420D02*
X132682390Y-69764039D01*
X132682390Y-69764039D02*
X132730009Y-69716420D01*
X132730009Y-69716420D02*
X132777628Y-69621182D01*
X132777628Y-69621182D02*
X132777628Y-69383087D01*
X132777628Y-69383087D02*
X132730009Y-69287849D01*
X132730009Y-69287849D02*
X132682390Y-69240230D01*
X132682390Y-69240230D02*
X132587152Y-69192611D01*
X132587152Y-69192611D02*
X132349057Y-69192611D01*
X132349057Y-69192611D02*
X132253819Y-69240230D01*
X132253819Y-69240230D02*
X132206200Y-69287849D01*
X132206200Y-69287849D02*
X132158580Y-69383087D01*
X132158580Y-69383087D02*
X132158580Y-69621182D01*
X132158580Y-69621182D02*
X132206200Y-69716420D01*
X132206200Y-69716420D02*
X132253819Y-69764039D01*
X133158580Y-68906896D02*
X132158580Y-68573563D01*
X132158580Y-68573563D02*
X133158580Y-68240230D01*
X138131391Y-50169781D02*
X138179010Y-50217401D01*
X138179010Y-50217401D02*
X138321867Y-50265020D01*
X138321867Y-50265020D02*
X138417105Y-50265020D01*
X138417105Y-50265020D02*
X138559962Y-50217401D01*
X138559962Y-50217401D02*
X138655200Y-50122162D01*
X138655200Y-50122162D02*
X138702819Y-50026924D01*
X138702819Y-50026924D02*
X138750438Y-49836448D01*
X138750438Y-49836448D02*
X138750438Y-49693591D01*
X138750438Y-49693591D02*
X138702819Y-49503115D01*
X138702819Y-49503115D02*
X138655200Y-49407877D01*
X138655200Y-49407877D02*
X138559962Y-49312639D01*
X138559962Y-49312639D02*
X138417105Y-49265020D01*
X138417105Y-49265020D02*
X138321867Y-49265020D01*
X138321867Y-49265020D02*
X138179010Y-49312639D01*
X138179010Y-49312639D02*
X138131391Y-49360258D01*
X137702819Y-50265020D02*
X137702819Y-49265020D01*
X137131391Y-50265020D02*
X137559962Y-49693591D01*
X137131391Y-49265020D02*
X137702819Y-49836448D01*
X136369486Y-49741210D02*
X136226629Y-49788829D01*
X136226629Y-49788829D02*
X136179010Y-49836448D01*
X136179010Y-49836448D02*
X136131391Y-49931686D01*
X136131391Y-49931686D02*
X136131391Y-50074543D01*
X136131391Y-50074543D02*
X136179010Y-50169781D01*
X136179010Y-50169781D02*
X136226629Y-50217401D01*
X136226629Y-50217401D02*
X136321867Y-50265020D01*
X136321867Y-50265020D02*
X136702819Y-50265020D01*
X136702819Y-50265020D02*
X136702819Y-49265020D01*
X136702819Y-49265020D02*
X136369486Y-49265020D01*
X136369486Y-49265020D02*
X136274248Y-49312639D01*
X136274248Y-49312639D02*
X136226629Y-49360258D01*
X136226629Y-49360258D02*
X136179010Y-49455496D01*
X136179010Y-49455496D02*
X136179010Y-49550734D01*
X136179010Y-49550734D02*
X136226629Y-49645972D01*
X136226629Y-49645972D02*
X136274248Y-49693591D01*
X136274248Y-49693591D02*
X136369486Y-49741210D01*
X136369486Y-49741210D02*
X136702819Y-49741210D01*
X135702819Y-50265020D02*
X135702819Y-49265020D01*
X135702819Y-49265020D02*
X135464724Y-49265020D01*
X135464724Y-49265020D02*
X135321867Y-49312639D01*
X135321867Y-49312639D02*
X135226629Y-49407877D01*
X135226629Y-49407877D02*
X135179010Y-49503115D01*
X135179010Y-49503115D02*
X135131391Y-49693591D01*
X135131391Y-49693591D02*
X135131391Y-49836448D01*
X135131391Y-49836448D02*
X135179010Y-50026924D01*
X135179010Y-50026924D02*
X135226629Y-50122162D01*
X135226629Y-50122162D02*
X135321867Y-50217401D01*
X135321867Y-50217401D02*
X135464724Y-50265020D01*
X135464724Y-50265020D02*
X135702819Y-50265020D01*
X138702819Y-51874964D02*
X138702819Y-51208297D01*
X138702819Y-51398773D02*
X138655200Y-51303535D01*
X138655200Y-51303535D02*
X138607581Y-51255916D01*
X138607581Y-51255916D02*
X138512343Y-51208297D01*
X138512343Y-51208297D02*
X138417105Y-51208297D01*
X137702819Y-51827345D02*
X137798057Y-51874964D01*
X137798057Y-51874964D02*
X137988533Y-51874964D01*
X137988533Y-51874964D02*
X138083771Y-51827345D01*
X138083771Y-51827345D02*
X138131390Y-51732106D01*
X138131390Y-51732106D02*
X138131390Y-51351154D01*
X138131390Y-51351154D02*
X138083771Y-51255916D01*
X138083771Y-51255916D02*
X137988533Y-51208297D01*
X137988533Y-51208297D02*
X137798057Y-51208297D01*
X137798057Y-51208297D02*
X137702819Y-51255916D01*
X137702819Y-51255916D02*
X137655200Y-51351154D01*
X137655200Y-51351154D02*
X137655200Y-51446392D01*
X137655200Y-51446392D02*
X138131390Y-51541630D01*
X137321866Y-51208297D02*
X137083771Y-51874964D01*
X137083771Y-51874964D02*
X136845676Y-51208297D01*
X136464723Y-51779725D02*
X136417104Y-51827345D01*
X136417104Y-51827345D02*
X136464723Y-51874964D01*
X136464723Y-51874964D02*
X136512342Y-51827345D01*
X136512342Y-51827345D02*
X136464723Y-51779725D01*
X136464723Y-51779725D02*
X136464723Y-51874964D01*
X135559962Y-51827345D02*
X135655200Y-51874964D01*
X135655200Y-51874964D02*
X135845676Y-51874964D01*
X135845676Y-51874964D02*
X135940914Y-51827345D01*
X135940914Y-51827345D02*
X135988533Y-51779725D01*
X135988533Y-51779725D02*
X136036152Y-51684487D01*
X136036152Y-51684487D02*
X136036152Y-51398773D01*
X136036152Y-51398773D02*
X135988533Y-51303535D01*
X135988533Y-51303535D02*
X135940914Y-51255916D01*
X135940914Y-51255916D02*
X135845676Y-51208297D01*
X135845676Y-51208297D02*
X135655200Y-51208297D01*
X135655200Y-51208297D02*
X135559962Y-51255916D01*
X122998580Y-69913258D02*
X121998580Y-69246592D01*
X122998580Y-69246592D02*
X121998580Y-69913258D01*
X129491580Y-62556950D02*
X130491580Y-62556950D01*
X130491580Y-62556950D02*
X130491580Y-62175998D01*
X130491580Y-62175998D02*
X130443961Y-62080760D01*
X130443961Y-62080760D02*
X130396342Y-62033141D01*
X130396342Y-62033141D02*
X130301104Y-61985522D01*
X130301104Y-61985522D02*
X130158247Y-61985522D01*
X130158247Y-61985522D02*
X130063009Y-62033141D01*
X130063009Y-62033141D02*
X130015390Y-62080760D01*
X130015390Y-62080760D02*
X129967771Y-62175998D01*
X129967771Y-62175998D02*
X129967771Y-62556950D01*
X130491580Y-61366474D02*
X130491580Y-61271236D01*
X130491580Y-61271236D02*
X130443961Y-61175998D01*
X130443961Y-61175998D02*
X130396342Y-61128379D01*
X130396342Y-61128379D02*
X130301104Y-61080760D01*
X130301104Y-61080760D02*
X130110628Y-61033141D01*
X130110628Y-61033141D02*
X129872533Y-61033141D01*
X129872533Y-61033141D02*
X129682057Y-61080760D01*
X129682057Y-61080760D02*
X129586819Y-61128379D01*
X129586819Y-61128379D02*
X129539200Y-61175998D01*
X129539200Y-61175998D02*
X129491580Y-61271236D01*
X129491580Y-61271236D02*
X129491580Y-61366474D01*
X129491580Y-61366474D02*
X129539200Y-61461712D01*
X129539200Y-61461712D02*
X129586819Y-61509331D01*
X129586819Y-61509331D02*
X129682057Y-61556950D01*
X129682057Y-61556950D02*
X129872533Y-61604569D01*
X129872533Y-61604569D02*
X130110628Y-61604569D01*
X130110628Y-61604569D02*
X130301104Y-61556950D01*
X130301104Y-61556950D02*
X130396342Y-61509331D01*
X130396342Y-61509331D02*
X130443961Y-61461712D01*
X130443961Y-61461712D02*
X130491580Y-61366474D01*
X130491580Y-60175998D02*
X130491580Y-60366474D01*
X130491580Y-60366474D02*
X130443961Y-60461712D01*
X130443961Y-60461712D02*
X130396342Y-60509331D01*
X130396342Y-60509331D02*
X130253485Y-60604569D01*
X130253485Y-60604569D02*
X130063009Y-60652188D01*
X130063009Y-60652188D02*
X129682057Y-60652188D01*
X129682057Y-60652188D02*
X129586819Y-60604569D01*
X129586819Y-60604569D02*
X129539200Y-60556950D01*
X129539200Y-60556950D02*
X129491580Y-60461712D01*
X129491580Y-60461712D02*
X129491580Y-60271236D01*
X129491580Y-60271236D02*
X129539200Y-60175998D01*
X129539200Y-60175998D02*
X129586819Y-60128379D01*
X129586819Y-60128379D02*
X129682057Y-60080760D01*
X129682057Y-60080760D02*
X129920152Y-60080760D01*
X129920152Y-60080760D02*
X130015390Y-60128379D01*
X130015390Y-60128379D02*
X130063009Y-60175998D01*
X130063009Y-60175998D02*
X130110628Y-60271236D01*
X130110628Y-60271236D02*
X130110628Y-60461712D01*
X130110628Y-60461712D02*
X130063009Y-60556950D01*
X130063009Y-60556950D02*
X130015390Y-60604569D01*
X130015390Y-60604569D02*
X129920152Y-60652188D01*
X138215947Y-72190780D02*
X138263566Y-72238400D01*
X138263566Y-72238400D02*
X138406423Y-72286019D01*
X138406423Y-72286019D02*
X138501661Y-72286019D01*
X138501661Y-72286019D02*
X138644518Y-72238400D01*
X138644518Y-72238400D02*
X138739756Y-72143161D01*
X138739756Y-72143161D02*
X138787375Y-72047923D01*
X138787375Y-72047923D02*
X138834994Y-71857447D01*
X138834994Y-71857447D02*
X138834994Y-71714590D01*
X138834994Y-71714590D02*
X138787375Y-71524114D01*
X138787375Y-71524114D02*
X138739756Y-71428876D01*
X138739756Y-71428876D02*
X138644518Y-71333638D01*
X138644518Y-71333638D02*
X138501661Y-71286019D01*
X138501661Y-71286019D02*
X138406423Y-71286019D01*
X138406423Y-71286019D02*
X138263566Y-71333638D01*
X138263566Y-71333638D02*
X138215947Y-71381257D01*
X137263566Y-72286019D02*
X137834994Y-72286019D01*
X137549280Y-72286019D02*
X137549280Y-71286019D01*
X137549280Y-71286019D02*
X137644518Y-71428876D01*
X137644518Y-71428876D02*
X137739756Y-71524114D01*
X137739756Y-71524114D02*
X137834994Y-71571733D01*
X136644518Y-71286019D02*
X136549280Y-71286019D01*
X136549280Y-71286019D02*
X136454042Y-71333638D01*
X136454042Y-71333638D02*
X136406423Y-71381257D01*
X136406423Y-71381257D02*
X136358804Y-71476495D01*
X136358804Y-71476495D02*
X136311185Y-71666971D01*
X136311185Y-71666971D02*
X136311185Y-71905066D01*
X136311185Y-71905066D02*
X136358804Y-72095542D01*
X136358804Y-72095542D02*
X136406423Y-72190780D01*
X136406423Y-72190780D02*
X136454042Y-72238400D01*
X136454042Y-72238400D02*
X136549280Y-72286019D01*
X136549280Y-72286019D02*
X136644518Y-72286019D01*
X136644518Y-72286019D02*
X136739756Y-72238400D01*
X136739756Y-72238400D02*
X136787375Y-72190780D01*
X136787375Y-72190780D02*
X136834994Y-72095542D01*
X136834994Y-72095542D02*
X136882613Y-71905066D01*
X136882613Y-71905066D02*
X136882613Y-71666971D01*
X136882613Y-71666971D02*
X136834994Y-71476495D01*
X136834994Y-71476495D02*
X136787375Y-71381257D01*
X136787375Y-71381257D02*
X136739756Y-71333638D01*
X136739756Y-71333638D02*
X136644518Y-71286019D01*
X135454042Y-71619352D02*
X135454042Y-72286019D01*
X135692137Y-71238400D02*
X135930232Y-71952685D01*
X135930232Y-71952685D02*
X135311185Y-71952685D01*
X138215947Y-74702580D02*
X138263566Y-74750200D01*
X138263566Y-74750200D02*
X138406423Y-74797819D01*
X138406423Y-74797819D02*
X138501661Y-74797819D01*
X138501661Y-74797819D02*
X138644518Y-74750200D01*
X138644518Y-74750200D02*
X138739756Y-74654961D01*
X138739756Y-74654961D02*
X138787375Y-74559723D01*
X138787375Y-74559723D02*
X138834994Y-74369247D01*
X138834994Y-74369247D02*
X138834994Y-74226390D01*
X138834994Y-74226390D02*
X138787375Y-74035914D01*
X138787375Y-74035914D02*
X138739756Y-73940676D01*
X138739756Y-73940676D02*
X138644518Y-73845438D01*
X138644518Y-73845438D02*
X138501661Y-73797819D01*
X138501661Y-73797819D02*
X138406423Y-73797819D01*
X138406423Y-73797819D02*
X138263566Y-73845438D01*
X138263566Y-73845438D02*
X138215947Y-73893057D01*
X137263566Y-74797819D02*
X137834994Y-74797819D01*
X137549280Y-74797819D02*
X137549280Y-73797819D01*
X137549280Y-73797819D02*
X137644518Y-73940676D01*
X137644518Y-73940676D02*
X137739756Y-74035914D01*
X137739756Y-74035914D02*
X137834994Y-74083533D01*
X136644518Y-73797819D02*
X136549280Y-73797819D01*
X136549280Y-73797819D02*
X136454042Y-73845438D01*
X136454042Y-73845438D02*
X136406423Y-73893057D01*
X136406423Y-73893057D02*
X136358804Y-73988295D01*
X136358804Y-73988295D02*
X136311185Y-74178771D01*
X136311185Y-74178771D02*
X136311185Y-74416866D01*
X136311185Y-74416866D02*
X136358804Y-74607342D01*
X136358804Y-74607342D02*
X136406423Y-74702580D01*
X136406423Y-74702580D02*
X136454042Y-74750200D01*
X136454042Y-74750200D02*
X136549280Y-74797819D01*
X136549280Y-74797819D02*
X136644518Y-74797819D01*
X136644518Y-74797819D02*
X136739756Y-74750200D01*
X136739756Y-74750200D02*
X136787375Y-74702580D01*
X136787375Y-74702580D02*
X136834994Y-74607342D01*
X136834994Y-74607342D02*
X136882613Y-74416866D01*
X136882613Y-74416866D02*
X136882613Y-74178771D01*
X136882613Y-74178771D02*
X136834994Y-73988295D01*
X136834994Y-73988295D02*
X136787375Y-73893057D01*
X136787375Y-73893057D02*
X136739756Y-73845438D01*
X136739756Y-73845438D02*
X136644518Y-73797819D01*
X135977851Y-73797819D02*
X135358804Y-73797819D01*
X135358804Y-73797819D02*
X135692137Y-74178771D01*
X135692137Y-74178771D02*
X135549280Y-74178771D01*
X135549280Y-74178771D02*
X135454042Y-74226390D01*
X135454042Y-74226390D02*
X135406423Y-74274009D01*
X135406423Y-74274009D02*
X135358804Y-74369247D01*
X135358804Y-74369247D02*
X135358804Y-74607342D01*
X135358804Y-74607342D02*
X135406423Y-74702580D01*
X135406423Y-74702580D02*
X135454042Y-74750200D01*
X135454042Y-74750200D02*
X135549280Y-74797819D01*
X135549280Y-74797819D02*
X135834994Y-74797819D01*
X135834994Y-74797819D02*
X135930232Y-74750200D01*
X135930232Y-74750200D02*
X135977851Y-74702580D01*
X126519780Y-52681047D02*
X126995971Y-53014380D01*
X126519780Y-53252475D02*
X127519780Y-53252475D01*
X127519780Y-53252475D02*
X127519780Y-52871523D01*
X127519780Y-52871523D02*
X127472161Y-52776285D01*
X127472161Y-52776285D02*
X127424542Y-52728666D01*
X127424542Y-52728666D02*
X127329304Y-52681047D01*
X127329304Y-52681047D02*
X127186447Y-52681047D01*
X127186447Y-52681047D02*
X127091209Y-52728666D01*
X127091209Y-52728666D02*
X127043590Y-52776285D01*
X127043590Y-52776285D02*
X126995971Y-52871523D01*
X126995971Y-52871523D02*
X126995971Y-53252475D01*
X126519780Y-51728666D02*
X126519780Y-52300094D01*
X126519780Y-52014380D02*
X127519780Y-52014380D01*
X127519780Y-52014380D02*
X127376923Y-52109618D01*
X127376923Y-52109618D02*
X127281685Y-52204856D01*
X127281685Y-52204856D02*
X127234066Y-52300094D01*
X127519780Y-51109618D02*
X127519780Y-51014380D01*
X127519780Y-51014380D02*
X127472161Y-50919142D01*
X127472161Y-50919142D02*
X127424542Y-50871523D01*
X127424542Y-50871523D02*
X127329304Y-50823904D01*
X127329304Y-50823904D02*
X127138828Y-50776285D01*
X127138828Y-50776285D02*
X126900733Y-50776285D01*
X126900733Y-50776285D02*
X126710257Y-50823904D01*
X126710257Y-50823904D02*
X126615019Y-50871523D01*
X126615019Y-50871523D02*
X126567400Y-50919142D01*
X126567400Y-50919142D02*
X126519780Y-51014380D01*
X126519780Y-51014380D02*
X126519780Y-51109618D01*
X126519780Y-51109618D02*
X126567400Y-51204856D01*
X126567400Y-51204856D02*
X126615019Y-51252475D01*
X126615019Y-51252475D02*
X126710257Y-51300094D01*
X126710257Y-51300094D02*
X126900733Y-51347713D01*
X126900733Y-51347713D02*
X127138828Y-51347713D01*
X127138828Y-51347713D02*
X127329304Y-51300094D01*
X127329304Y-51300094D02*
X127424542Y-51252475D01*
X127424542Y-51252475D02*
X127472161Y-51204856D01*
X127472161Y-51204856D02*
X127519780Y-51109618D01*
X127186447Y-49919142D02*
X126519780Y-49919142D01*
X127567400Y-50157237D02*
X126853114Y-50395332D01*
X126853114Y-50395332D02*
X126853114Y-49776285D01*
X127495085Y-62650019D02*
X127495085Y-63459542D01*
X127495085Y-63459542D02*
X127447466Y-63554780D01*
X127447466Y-63554780D02*
X127399847Y-63602400D01*
X127399847Y-63602400D02*
X127304609Y-63650019D01*
X127304609Y-63650019D02*
X127114133Y-63650019D01*
X127114133Y-63650019D02*
X127018895Y-63602400D01*
X127018895Y-63602400D02*
X126971276Y-63554780D01*
X126971276Y-63554780D02*
X126923657Y-63459542D01*
X126923657Y-63459542D02*
X126923657Y-62650019D01*
X125923657Y-63650019D02*
X126495085Y-63650019D01*
X126209371Y-63650019D02*
X126209371Y-62650019D01*
X126209371Y-62650019D02*
X126304609Y-62792876D01*
X126304609Y-62792876D02*
X126399847Y-62888114D01*
X126399847Y-62888114D02*
X126495085Y-62935733D01*
X125304609Y-62650019D02*
X125209371Y-62650019D01*
X125209371Y-62650019D02*
X125114133Y-62697638D01*
X125114133Y-62697638D02*
X125066514Y-62745257D01*
X125066514Y-62745257D02*
X125018895Y-62840495D01*
X125018895Y-62840495D02*
X124971276Y-63030971D01*
X124971276Y-63030971D02*
X124971276Y-63269066D01*
X124971276Y-63269066D02*
X125018895Y-63459542D01*
X125018895Y-63459542D02*
X125066514Y-63554780D01*
X125066514Y-63554780D02*
X125114133Y-63602400D01*
X125114133Y-63602400D02*
X125209371Y-63650019D01*
X125209371Y-63650019D02*
X125304609Y-63650019D01*
X125304609Y-63650019D02*
X125399847Y-63602400D01*
X125399847Y-63602400D02*
X125447466Y-63554780D01*
X125447466Y-63554780D02*
X125495085Y-63459542D01*
X125495085Y-63459542D02*
X125542704Y-63269066D01*
X125542704Y-63269066D02*
X125542704Y-63030971D01*
X125542704Y-63030971D02*
X125495085Y-62840495D01*
X125495085Y-62840495D02*
X125447466Y-62745257D01*
X125447466Y-62745257D02*
X125399847Y-62697638D01*
X125399847Y-62697638D02*
X125304609Y-62650019D01*
X124018895Y-63650019D02*
X124590323Y-63650019D01*
X124304609Y-63650019D02*
X124304609Y-62650019D01*
X124304609Y-62650019D02*
X124399847Y-62792876D01*
X124399847Y-62792876D02*
X124495085Y-62888114D01*
X124495085Y-62888114D02*
X124590323Y-62935733D01*
X111517780Y-63436285D02*
X110708257Y-63436285D01*
X110708257Y-63436285D02*
X110613019Y-63388666D01*
X110613019Y-63388666D02*
X110565400Y-63341047D01*
X110565400Y-63341047D02*
X110517780Y-63245809D01*
X110517780Y-63245809D02*
X110517780Y-63055333D01*
X110517780Y-63055333D02*
X110565400Y-62960095D01*
X110565400Y-62960095D02*
X110613019Y-62912476D01*
X110613019Y-62912476D02*
X110708257Y-62864857D01*
X110708257Y-62864857D02*
X111517780Y-62864857D01*
X110517780Y-61864857D02*
X110517780Y-62436285D01*
X110517780Y-62150571D02*
X111517780Y-62150571D01*
X111517780Y-62150571D02*
X111374923Y-62245809D01*
X111374923Y-62245809D02*
X111279685Y-62341047D01*
X111279685Y-62341047D02*
X111232066Y-62436285D01*
X111517780Y-61245809D02*
X111517780Y-61150571D01*
X111517780Y-61150571D02*
X111470161Y-61055333D01*
X111470161Y-61055333D02*
X111422542Y-61007714D01*
X111422542Y-61007714D02*
X111327304Y-60960095D01*
X111327304Y-60960095D02*
X111136828Y-60912476D01*
X111136828Y-60912476D02*
X110898733Y-60912476D01*
X110898733Y-60912476D02*
X110708257Y-60960095D01*
X110708257Y-60960095D02*
X110613019Y-61007714D01*
X110613019Y-61007714D02*
X110565400Y-61055333D01*
X110565400Y-61055333D02*
X110517780Y-61150571D01*
X110517780Y-61150571D02*
X110517780Y-61245809D01*
X110517780Y-61245809D02*
X110565400Y-61341047D01*
X110565400Y-61341047D02*
X110613019Y-61388666D01*
X110613019Y-61388666D02*
X110708257Y-61436285D01*
X110708257Y-61436285D02*
X110898733Y-61483904D01*
X110898733Y-61483904D02*
X111136828Y-61483904D01*
X111136828Y-61483904D02*
X111327304Y-61436285D01*
X111327304Y-61436285D02*
X111422542Y-61388666D01*
X111422542Y-61388666D02*
X111470161Y-61341047D01*
X111470161Y-61341047D02*
X111517780Y-61245809D01*
X111422542Y-60531523D02*
X111470161Y-60483904D01*
X111470161Y-60483904D02*
X111517780Y-60388666D01*
X111517780Y-60388666D02*
X111517780Y-60150571D01*
X111517780Y-60150571D02*
X111470161Y-60055333D01*
X111470161Y-60055333D02*
X111422542Y-60007714D01*
X111422542Y-60007714D02*
X111327304Y-59960095D01*
X111327304Y-59960095D02*
X111232066Y-59960095D01*
X111232066Y-59960095D02*
X111089209Y-60007714D01*
X111089209Y-60007714D02*
X110517780Y-60579142D01*
X110517780Y-60579142D02*
X110517780Y-59960095D01*
X133670514Y-76061219D02*
X133670514Y-76775504D01*
X133670514Y-76775504D02*
X133718133Y-76918361D01*
X133718133Y-76918361D02*
X133813371Y-77013600D01*
X133813371Y-77013600D02*
X133956228Y-77061219D01*
X133956228Y-77061219D02*
X134051466Y-77061219D01*
X132670514Y-77061219D02*
X133241942Y-77061219D01*
X132956228Y-77061219D02*
X132956228Y-76061219D01*
X132956228Y-76061219D02*
X133051466Y-76204076D01*
X133051466Y-76204076D02*
X133146704Y-76299314D01*
X133146704Y-76299314D02*
X133241942Y-76346933D01*
X132051466Y-76061219D02*
X131956228Y-76061219D01*
X131956228Y-76061219D02*
X131860990Y-76108838D01*
X131860990Y-76108838D02*
X131813371Y-76156457D01*
X131813371Y-76156457D02*
X131765752Y-76251695D01*
X131765752Y-76251695D02*
X131718133Y-76442171D01*
X131718133Y-76442171D02*
X131718133Y-76680266D01*
X131718133Y-76680266D02*
X131765752Y-76870742D01*
X131765752Y-76870742D02*
X131813371Y-76965980D01*
X131813371Y-76965980D02*
X131860990Y-77013600D01*
X131860990Y-77013600D02*
X131956228Y-77061219D01*
X131956228Y-77061219D02*
X132051466Y-77061219D01*
X132051466Y-77061219D02*
X132146704Y-77013600D01*
X132146704Y-77013600D02*
X132194323Y-76965980D01*
X132194323Y-76965980D02*
X132241942Y-76870742D01*
X132241942Y-76870742D02*
X132289561Y-76680266D01*
X132289561Y-76680266D02*
X132289561Y-76442171D01*
X132289561Y-76442171D02*
X132241942Y-76251695D01*
X132241942Y-76251695D02*
X132194323Y-76156457D01*
X132194323Y-76156457D02*
X132146704Y-76108838D01*
X132146704Y-76108838D02*
X132051466Y-76061219D01*
X131384799Y-76061219D02*
X130765752Y-76061219D01*
X130765752Y-76061219D02*
X131099085Y-76442171D01*
X131099085Y-76442171D02*
X130956228Y-76442171D01*
X130956228Y-76442171D02*
X130860990Y-76489790D01*
X130860990Y-76489790D02*
X130813371Y-76537409D01*
X130813371Y-76537409D02*
X130765752Y-76632647D01*
X130765752Y-76632647D02*
X130765752Y-76870742D01*
X130765752Y-76870742D02*
X130813371Y-76965980D01*
X130813371Y-76965980D02*
X130860990Y-77013600D01*
X130860990Y-77013600D02*
X130956228Y-77061219D01*
X130956228Y-77061219D02*
X131241942Y-77061219D01*
X131241942Y-77061219D02*
X131337180Y-77013600D01*
X131337180Y-77013600D02*
X131384799Y-76965980D01*
X138392947Y-56442780D02*
X138440566Y-56490400D01*
X138440566Y-56490400D02*
X138583423Y-56538019D01*
X138583423Y-56538019D02*
X138678661Y-56538019D01*
X138678661Y-56538019D02*
X138821518Y-56490400D01*
X138821518Y-56490400D02*
X138916756Y-56395161D01*
X138916756Y-56395161D02*
X138964375Y-56299923D01*
X138964375Y-56299923D02*
X139011994Y-56109447D01*
X139011994Y-56109447D02*
X139011994Y-55966590D01*
X139011994Y-55966590D02*
X138964375Y-55776114D01*
X138964375Y-55776114D02*
X138916756Y-55680876D01*
X138916756Y-55680876D02*
X138821518Y-55585638D01*
X138821518Y-55585638D02*
X138678661Y-55538019D01*
X138678661Y-55538019D02*
X138583423Y-55538019D01*
X138583423Y-55538019D02*
X138440566Y-55585638D01*
X138440566Y-55585638D02*
X138392947Y-55633257D01*
X137440566Y-56538019D02*
X138011994Y-56538019D01*
X137726280Y-56538019D02*
X137726280Y-55538019D01*
X137726280Y-55538019D02*
X137821518Y-55680876D01*
X137821518Y-55680876D02*
X137916756Y-55776114D01*
X137916756Y-55776114D02*
X138011994Y-55823733D01*
X136821518Y-55538019D02*
X136726280Y-55538019D01*
X136726280Y-55538019D02*
X136631042Y-55585638D01*
X136631042Y-55585638D02*
X136583423Y-55633257D01*
X136583423Y-55633257D02*
X136535804Y-55728495D01*
X136535804Y-55728495D02*
X136488185Y-55918971D01*
X136488185Y-55918971D02*
X136488185Y-56157066D01*
X136488185Y-56157066D02*
X136535804Y-56347542D01*
X136535804Y-56347542D02*
X136583423Y-56442780D01*
X136583423Y-56442780D02*
X136631042Y-56490400D01*
X136631042Y-56490400D02*
X136726280Y-56538019D01*
X136726280Y-56538019D02*
X136821518Y-56538019D01*
X136821518Y-56538019D02*
X136916756Y-56490400D01*
X136916756Y-56490400D02*
X136964375Y-56442780D01*
X136964375Y-56442780D02*
X137011994Y-56347542D01*
X137011994Y-56347542D02*
X137059613Y-56157066D01*
X137059613Y-56157066D02*
X137059613Y-55918971D01*
X137059613Y-55918971D02*
X137011994Y-55728495D01*
X137011994Y-55728495D02*
X136964375Y-55633257D01*
X136964375Y-55633257D02*
X136916756Y-55585638D01*
X136916756Y-55585638D02*
X136821518Y-55538019D01*
X135583423Y-55538019D02*
X136059613Y-55538019D01*
X136059613Y-55538019D02*
X136107232Y-56014209D01*
X136107232Y-56014209D02*
X136059613Y-55966590D01*
X136059613Y-55966590D02*
X135964375Y-55918971D01*
X135964375Y-55918971D02*
X135726280Y-55918971D01*
X135726280Y-55918971D02*
X135631042Y-55966590D01*
X135631042Y-55966590D02*
X135583423Y-56014209D01*
X135583423Y-56014209D02*
X135535804Y-56109447D01*
X135535804Y-56109447D02*
X135535804Y-56347542D01*
X135535804Y-56347542D02*
X135583423Y-56442780D01*
X135583423Y-56442780D02*
X135631042Y-56490400D01*
X135631042Y-56490400D02*
X135726280Y-56538019D01*
X135726280Y-56538019D02*
X135964375Y-56538019D01*
X135964375Y-56538019D02*
X136059613Y-56490400D01*
X136059613Y-56490400D02*
X136107232Y-56442780D01*
X110568580Y-74321247D02*
X111044771Y-74654580D01*
X110568580Y-74892675D02*
X111568580Y-74892675D01*
X111568580Y-74892675D02*
X111568580Y-74511723D01*
X111568580Y-74511723D02*
X111520961Y-74416485D01*
X111520961Y-74416485D02*
X111473342Y-74368866D01*
X111473342Y-74368866D02*
X111378104Y-74321247D01*
X111378104Y-74321247D02*
X111235247Y-74321247D01*
X111235247Y-74321247D02*
X111140009Y-74368866D01*
X111140009Y-74368866D02*
X111092390Y-74416485D01*
X111092390Y-74416485D02*
X111044771Y-74511723D01*
X111044771Y-74511723D02*
X111044771Y-74892675D01*
X110568580Y-73368866D02*
X110568580Y-73940294D01*
X110568580Y-73654580D02*
X111568580Y-73654580D01*
X111568580Y-73654580D02*
X111425723Y-73749818D01*
X111425723Y-73749818D02*
X111330485Y-73845056D01*
X111330485Y-73845056D02*
X111282866Y-73940294D01*
X111568580Y-72749818D02*
X111568580Y-72654580D01*
X111568580Y-72654580D02*
X111520961Y-72559342D01*
X111520961Y-72559342D02*
X111473342Y-72511723D01*
X111473342Y-72511723D02*
X111378104Y-72464104D01*
X111378104Y-72464104D02*
X111187628Y-72416485D01*
X111187628Y-72416485D02*
X110949533Y-72416485D01*
X110949533Y-72416485D02*
X110759057Y-72464104D01*
X110759057Y-72464104D02*
X110663819Y-72511723D01*
X110663819Y-72511723D02*
X110616200Y-72559342D01*
X110616200Y-72559342D02*
X110568580Y-72654580D01*
X110568580Y-72654580D02*
X110568580Y-72749818D01*
X110568580Y-72749818D02*
X110616200Y-72845056D01*
X110616200Y-72845056D02*
X110663819Y-72892675D01*
X110663819Y-72892675D02*
X110759057Y-72940294D01*
X110759057Y-72940294D02*
X110949533Y-72987913D01*
X110949533Y-72987913D02*
X111187628Y-72987913D01*
X111187628Y-72987913D02*
X111378104Y-72940294D01*
X111378104Y-72940294D02*
X111473342Y-72892675D01*
X111473342Y-72892675D02*
X111520961Y-72845056D01*
X111520961Y-72845056D02*
X111568580Y-72749818D01*
X111473342Y-72035532D02*
X111520961Y-71987913D01*
X111520961Y-71987913D02*
X111568580Y-71892675D01*
X111568580Y-71892675D02*
X111568580Y-71654580D01*
X111568580Y-71654580D02*
X111520961Y-71559342D01*
X111520961Y-71559342D02*
X111473342Y-71511723D01*
X111473342Y-71511723D02*
X111378104Y-71464104D01*
X111378104Y-71464104D02*
X111282866Y-71464104D01*
X111282866Y-71464104D02*
X111140009Y-71511723D01*
X111140009Y-71511723D02*
X110568580Y-72083151D01*
X110568580Y-72083151D02*
X110568580Y-71464104D01*
X120564114Y-59449619D02*
X120564114Y-60163904D01*
X120564114Y-60163904D02*
X120611733Y-60306761D01*
X120611733Y-60306761D02*
X120706971Y-60402000D01*
X120706971Y-60402000D02*
X120849828Y-60449619D01*
X120849828Y-60449619D02*
X120945066Y-60449619D01*
X119564114Y-60449619D02*
X120135542Y-60449619D01*
X119849828Y-60449619D02*
X119849828Y-59449619D01*
X119849828Y-59449619D02*
X119945066Y-59592476D01*
X119945066Y-59592476D02*
X120040304Y-59687714D01*
X120040304Y-59687714D02*
X120135542Y-59735333D01*
X118945066Y-59449619D02*
X118849828Y-59449619D01*
X118849828Y-59449619D02*
X118754590Y-59497238D01*
X118754590Y-59497238D02*
X118706971Y-59544857D01*
X118706971Y-59544857D02*
X118659352Y-59640095D01*
X118659352Y-59640095D02*
X118611733Y-59830571D01*
X118611733Y-59830571D02*
X118611733Y-60068666D01*
X118611733Y-60068666D02*
X118659352Y-60259142D01*
X118659352Y-60259142D02*
X118706971Y-60354380D01*
X118706971Y-60354380D02*
X118754590Y-60402000D01*
X118754590Y-60402000D02*
X118849828Y-60449619D01*
X118849828Y-60449619D02*
X118945066Y-60449619D01*
X118945066Y-60449619D02*
X119040304Y-60402000D01*
X119040304Y-60402000D02*
X119087923Y-60354380D01*
X119087923Y-60354380D02*
X119135542Y-60259142D01*
X119135542Y-60259142D02*
X119183161Y-60068666D01*
X119183161Y-60068666D02*
X119183161Y-59830571D01*
X119183161Y-59830571D02*
X119135542Y-59640095D01*
X119135542Y-59640095D02*
X119087923Y-59544857D01*
X119087923Y-59544857D02*
X119040304Y-59497238D01*
X119040304Y-59497238D02*
X118945066Y-59449619D01*
X117754590Y-59782952D02*
X117754590Y-60449619D01*
X117992685Y-59402000D02*
X118230780Y-60116285D01*
X118230780Y-60116285D02*
X117611733Y-60116285D01*
X138183197Y-61681330D02*
X138230816Y-61728950D01*
X138230816Y-61728950D02*
X138373673Y-61776569D01*
X138373673Y-61776569D02*
X138468911Y-61776569D01*
X138468911Y-61776569D02*
X138611768Y-61728950D01*
X138611768Y-61728950D02*
X138707006Y-61633711D01*
X138707006Y-61633711D02*
X138754625Y-61538473D01*
X138754625Y-61538473D02*
X138802244Y-61347997D01*
X138802244Y-61347997D02*
X138802244Y-61205140D01*
X138802244Y-61205140D02*
X138754625Y-61014664D01*
X138754625Y-61014664D02*
X138707006Y-60919426D01*
X138707006Y-60919426D02*
X138611768Y-60824188D01*
X138611768Y-60824188D02*
X138468911Y-60776569D01*
X138468911Y-60776569D02*
X138373673Y-60776569D01*
X138373673Y-60776569D02*
X138230816Y-60824188D01*
X138230816Y-60824188D02*
X138183197Y-60871807D01*
X137230816Y-61776569D02*
X137802244Y-61776569D01*
X137516530Y-61776569D02*
X137516530Y-60776569D01*
X137516530Y-60776569D02*
X137611768Y-60919426D01*
X137611768Y-60919426D02*
X137707006Y-61014664D01*
X137707006Y-61014664D02*
X137802244Y-61062283D01*
X136611768Y-60776569D02*
X136516530Y-60776569D01*
X136516530Y-60776569D02*
X136421292Y-60824188D01*
X136421292Y-60824188D02*
X136373673Y-60871807D01*
X136373673Y-60871807D02*
X136326054Y-60967045D01*
X136326054Y-60967045D02*
X136278435Y-61157521D01*
X136278435Y-61157521D02*
X136278435Y-61395616D01*
X136278435Y-61395616D02*
X136326054Y-61586092D01*
X136326054Y-61586092D02*
X136373673Y-61681330D01*
X136373673Y-61681330D02*
X136421292Y-61728950D01*
X136421292Y-61728950D02*
X136516530Y-61776569D01*
X136516530Y-61776569D02*
X136611768Y-61776569D01*
X136611768Y-61776569D02*
X136707006Y-61728950D01*
X136707006Y-61728950D02*
X136754625Y-61681330D01*
X136754625Y-61681330D02*
X136802244Y-61586092D01*
X136802244Y-61586092D02*
X136849863Y-61395616D01*
X136849863Y-61395616D02*
X136849863Y-61157521D01*
X136849863Y-61157521D02*
X136802244Y-60967045D01*
X136802244Y-60967045D02*
X136754625Y-60871807D01*
X136754625Y-60871807D02*
X136707006Y-60824188D01*
X136707006Y-60824188D02*
X136611768Y-60776569D01*
X135326054Y-61776569D02*
X135897482Y-61776569D01*
X135611768Y-61776569D02*
X135611768Y-60776569D01*
X135611768Y-60776569D02*
X135707006Y-60919426D01*
X135707006Y-60919426D02*
X135802244Y-61014664D01*
X135802244Y-61014664D02*
X135897482Y-61062283D01*
X129313780Y-52681047D02*
X129789971Y-53014380D01*
X129313780Y-53252475D02*
X130313780Y-53252475D01*
X130313780Y-53252475D02*
X130313780Y-52871523D01*
X130313780Y-52871523D02*
X130266161Y-52776285D01*
X130266161Y-52776285D02*
X130218542Y-52728666D01*
X130218542Y-52728666D02*
X130123304Y-52681047D01*
X130123304Y-52681047D02*
X129980447Y-52681047D01*
X129980447Y-52681047D02*
X129885209Y-52728666D01*
X129885209Y-52728666D02*
X129837590Y-52776285D01*
X129837590Y-52776285D02*
X129789971Y-52871523D01*
X129789971Y-52871523D02*
X129789971Y-53252475D01*
X129313780Y-51728666D02*
X129313780Y-52300094D01*
X129313780Y-52014380D02*
X130313780Y-52014380D01*
X130313780Y-52014380D02*
X130170923Y-52109618D01*
X130170923Y-52109618D02*
X130075685Y-52204856D01*
X130075685Y-52204856D02*
X130028066Y-52300094D01*
X130313780Y-51109618D02*
X130313780Y-51014380D01*
X130313780Y-51014380D02*
X130266161Y-50919142D01*
X130266161Y-50919142D02*
X130218542Y-50871523D01*
X130218542Y-50871523D02*
X130123304Y-50823904D01*
X130123304Y-50823904D02*
X129932828Y-50776285D01*
X129932828Y-50776285D02*
X129694733Y-50776285D01*
X129694733Y-50776285D02*
X129504257Y-50823904D01*
X129504257Y-50823904D02*
X129409019Y-50871523D01*
X129409019Y-50871523D02*
X129361400Y-50919142D01*
X129361400Y-50919142D02*
X129313780Y-51014380D01*
X129313780Y-51014380D02*
X129313780Y-51109618D01*
X129313780Y-51109618D02*
X129361400Y-51204856D01*
X129361400Y-51204856D02*
X129409019Y-51252475D01*
X129409019Y-51252475D02*
X129504257Y-51300094D01*
X129504257Y-51300094D02*
X129694733Y-51347713D01*
X129694733Y-51347713D02*
X129932828Y-51347713D01*
X129932828Y-51347713D02*
X130123304Y-51300094D01*
X130123304Y-51300094D02*
X130218542Y-51252475D01*
X130218542Y-51252475D02*
X130266161Y-51204856D01*
X130266161Y-51204856D02*
X130313780Y-51109618D01*
X130313780Y-49871523D02*
X130313780Y-50347713D01*
X130313780Y-50347713D02*
X129837590Y-50395332D01*
X129837590Y-50395332D02*
X129885209Y-50347713D01*
X129885209Y-50347713D02*
X129932828Y-50252475D01*
X129932828Y-50252475D02*
X129932828Y-50014380D01*
X129932828Y-50014380D02*
X129885209Y-49919142D01*
X129885209Y-49919142D02*
X129837590Y-49871523D01*
X129837590Y-49871523D02*
X129742352Y-49823904D01*
X129742352Y-49823904D02*
X129504257Y-49823904D01*
X129504257Y-49823904D02*
X129409019Y-49871523D01*
X129409019Y-49871523D02*
X129361400Y-49919142D01*
X129361400Y-49919142D02*
X129313780Y-50014380D01*
X129313780Y-50014380D02*
X129313780Y-50252475D01*
X129313780Y-50252475D02*
X129361400Y-50347713D01*
X129361400Y-50347713D02*
X129409019Y-50395332D01*
X138183197Y-64221330D02*
X138230816Y-64268950D01*
X138230816Y-64268950D02*
X138373673Y-64316569D01*
X138373673Y-64316569D02*
X138468911Y-64316569D01*
X138468911Y-64316569D02*
X138611768Y-64268950D01*
X138611768Y-64268950D02*
X138707006Y-64173711D01*
X138707006Y-64173711D02*
X138754625Y-64078473D01*
X138754625Y-64078473D02*
X138802244Y-63887997D01*
X138802244Y-63887997D02*
X138802244Y-63745140D01*
X138802244Y-63745140D02*
X138754625Y-63554664D01*
X138754625Y-63554664D02*
X138707006Y-63459426D01*
X138707006Y-63459426D02*
X138611768Y-63364188D01*
X138611768Y-63364188D02*
X138468911Y-63316569D01*
X138468911Y-63316569D02*
X138373673Y-63316569D01*
X138373673Y-63316569D02*
X138230816Y-63364188D01*
X138230816Y-63364188D02*
X138183197Y-63411807D01*
X137230816Y-64316569D02*
X137802244Y-64316569D01*
X137516530Y-64316569D02*
X137516530Y-63316569D01*
X137516530Y-63316569D02*
X137611768Y-63459426D01*
X137611768Y-63459426D02*
X137707006Y-63554664D01*
X137707006Y-63554664D02*
X137802244Y-63602283D01*
X136611768Y-63316569D02*
X136516530Y-63316569D01*
X136516530Y-63316569D02*
X136421292Y-63364188D01*
X136421292Y-63364188D02*
X136373673Y-63411807D01*
X136373673Y-63411807D02*
X136326054Y-63507045D01*
X136326054Y-63507045D02*
X136278435Y-63697521D01*
X136278435Y-63697521D02*
X136278435Y-63935616D01*
X136278435Y-63935616D02*
X136326054Y-64126092D01*
X136326054Y-64126092D02*
X136373673Y-64221330D01*
X136373673Y-64221330D02*
X136421292Y-64268950D01*
X136421292Y-64268950D02*
X136516530Y-64316569D01*
X136516530Y-64316569D02*
X136611768Y-64316569D01*
X136611768Y-64316569D02*
X136707006Y-64268950D01*
X136707006Y-64268950D02*
X136754625Y-64221330D01*
X136754625Y-64221330D02*
X136802244Y-64126092D01*
X136802244Y-64126092D02*
X136849863Y-63935616D01*
X136849863Y-63935616D02*
X136849863Y-63697521D01*
X136849863Y-63697521D02*
X136802244Y-63507045D01*
X136802244Y-63507045D02*
X136754625Y-63411807D01*
X136754625Y-63411807D02*
X136707006Y-63364188D01*
X136707006Y-63364188D02*
X136611768Y-63316569D01*
X135897482Y-63411807D02*
X135849863Y-63364188D01*
X135849863Y-63364188D02*
X135754625Y-63316569D01*
X135754625Y-63316569D02*
X135516530Y-63316569D01*
X135516530Y-63316569D02*
X135421292Y-63364188D01*
X135421292Y-63364188D02*
X135373673Y-63411807D01*
X135373673Y-63411807D02*
X135326054Y-63507045D01*
X135326054Y-63507045D02*
X135326054Y-63602283D01*
X135326054Y-63602283D02*
X135373673Y-63745140D01*
X135373673Y-63745140D02*
X135945101Y-64316569D01*
X135945101Y-64316569D02*
X135326054Y-64316569D01*
X123725780Y-52731847D02*
X124201971Y-53065180D01*
X123725780Y-53303275D02*
X124725780Y-53303275D01*
X124725780Y-53303275D02*
X124725780Y-52922323D01*
X124725780Y-52922323D02*
X124678161Y-52827085D01*
X124678161Y-52827085D02*
X124630542Y-52779466D01*
X124630542Y-52779466D02*
X124535304Y-52731847D01*
X124535304Y-52731847D02*
X124392447Y-52731847D01*
X124392447Y-52731847D02*
X124297209Y-52779466D01*
X124297209Y-52779466D02*
X124249590Y-52827085D01*
X124249590Y-52827085D02*
X124201971Y-52922323D01*
X124201971Y-52922323D02*
X124201971Y-53303275D01*
X123725780Y-51779466D02*
X123725780Y-52350894D01*
X123725780Y-52065180D02*
X124725780Y-52065180D01*
X124725780Y-52065180D02*
X124582923Y-52160418D01*
X124582923Y-52160418D02*
X124487685Y-52255656D01*
X124487685Y-52255656D02*
X124440066Y-52350894D01*
X124725780Y-51160418D02*
X124725780Y-51065180D01*
X124725780Y-51065180D02*
X124678161Y-50969942D01*
X124678161Y-50969942D02*
X124630542Y-50922323D01*
X124630542Y-50922323D02*
X124535304Y-50874704D01*
X124535304Y-50874704D02*
X124344828Y-50827085D01*
X124344828Y-50827085D02*
X124106733Y-50827085D01*
X124106733Y-50827085D02*
X123916257Y-50874704D01*
X123916257Y-50874704D02*
X123821019Y-50922323D01*
X123821019Y-50922323D02*
X123773400Y-50969942D01*
X123773400Y-50969942D02*
X123725780Y-51065180D01*
X123725780Y-51065180D02*
X123725780Y-51160418D01*
X123725780Y-51160418D02*
X123773400Y-51255656D01*
X123773400Y-51255656D02*
X123821019Y-51303275D01*
X123821019Y-51303275D02*
X123916257Y-51350894D01*
X123916257Y-51350894D02*
X124106733Y-51398513D01*
X124106733Y-51398513D02*
X124344828Y-51398513D01*
X124344828Y-51398513D02*
X124535304Y-51350894D01*
X124535304Y-51350894D02*
X124630542Y-51303275D01*
X124630542Y-51303275D02*
X124678161Y-51255656D01*
X124678161Y-51255656D02*
X124725780Y-51160418D01*
X124725780Y-49969942D02*
X124725780Y-50160418D01*
X124725780Y-50160418D02*
X124678161Y-50255656D01*
X124678161Y-50255656D02*
X124630542Y-50303275D01*
X124630542Y-50303275D02*
X124487685Y-50398513D01*
X124487685Y-50398513D02*
X124297209Y-50446132D01*
X124297209Y-50446132D02*
X123916257Y-50446132D01*
X123916257Y-50446132D02*
X123821019Y-50398513D01*
X123821019Y-50398513D02*
X123773400Y-50350894D01*
X123773400Y-50350894D02*
X123725780Y-50255656D01*
X123725780Y-50255656D02*
X123725780Y-50065180D01*
X123725780Y-50065180D02*
X123773400Y-49969942D01*
X123773400Y-49969942D02*
X123821019Y-49922323D01*
X123821019Y-49922323D02*
X123916257Y-49874704D01*
X123916257Y-49874704D02*
X124154352Y-49874704D01*
X124154352Y-49874704D02*
X124249590Y-49922323D01*
X124249590Y-49922323D02*
X124297209Y-49969942D01*
X124297209Y-49969942D02*
X124344828Y-50065180D01*
X124344828Y-50065180D02*
X124344828Y-50255656D01*
X124344828Y-50255656D02*
X124297209Y-50350894D01*
X124297209Y-50350894D02*
X124249590Y-50398513D01*
X124249590Y-50398513D02*
X124154352Y-50446132D01*
X110568580Y-68733247D02*
X111044771Y-69066580D01*
X110568580Y-69304675D02*
X111568580Y-69304675D01*
X111568580Y-69304675D02*
X111568580Y-68923723D01*
X111568580Y-68923723D02*
X111520961Y-68828485D01*
X111520961Y-68828485D02*
X111473342Y-68780866D01*
X111473342Y-68780866D02*
X111378104Y-68733247D01*
X111378104Y-68733247D02*
X111235247Y-68733247D01*
X111235247Y-68733247D02*
X111140009Y-68780866D01*
X111140009Y-68780866D02*
X111092390Y-68828485D01*
X111092390Y-68828485D02*
X111044771Y-68923723D01*
X111044771Y-68923723D02*
X111044771Y-69304675D01*
X110568580Y-67780866D02*
X110568580Y-68352294D01*
X110568580Y-68066580D02*
X111568580Y-68066580D01*
X111568580Y-68066580D02*
X111425723Y-68161818D01*
X111425723Y-68161818D02*
X111330485Y-68257056D01*
X111330485Y-68257056D02*
X111282866Y-68352294D01*
X111568580Y-67161818D02*
X111568580Y-67066580D01*
X111568580Y-67066580D02*
X111520961Y-66971342D01*
X111520961Y-66971342D02*
X111473342Y-66923723D01*
X111473342Y-66923723D02*
X111378104Y-66876104D01*
X111378104Y-66876104D02*
X111187628Y-66828485D01*
X111187628Y-66828485D02*
X110949533Y-66828485D01*
X110949533Y-66828485D02*
X110759057Y-66876104D01*
X110759057Y-66876104D02*
X110663819Y-66923723D01*
X110663819Y-66923723D02*
X110616200Y-66971342D01*
X110616200Y-66971342D02*
X110568580Y-67066580D01*
X110568580Y-67066580D02*
X110568580Y-67161818D01*
X110568580Y-67161818D02*
X110616200Y-67257056D01*
X110616200Y-67257056D02*
X110663819Y-67304675D01*
X110663819Y-67304675D02*
X110759057Y-67352294D01*
X110759057Y-67352294D02*
X110949533Y-67399913D01*
X110949533Y-67399913D02*
X111187628Y-67399913D01*
X111187628Y-67399913D02*
X111378104Y-67352294D01*
X111378104Y-67352294D02*
X111473342Y-67304675D01*
X111473342Y-67304675D02*
X111520961Y-67257056D01*
X111520961Y-67257056D02*
X111568580Y-67161818D01*
X110568580Y-65876104D02*
X110568580Y-66447532D01*
X110568580Y-66161818D02*
X111568580Y-66161818D01*
X111568580Y-66161818D02*
X111425723Y-66257056D01*
X111425723Y-66257056D02*
X111330485Y-66352294D01*
X111330485Y-66352294D02*
X111282866Y-66447532D01*
X110610580Y-45035047D02*
X111086771Y-45368380D01*
X110610580Y-45606475D02*
X111610580Y-45606475D01*
X111610580Y-45606475D02*
X111610580Y-45225523D01*
X111610580Y-45225523D02*
X111562961Y-45130285D01*
X111562961Y-45130285D02*
X111515342Y-45082666D01*
X111515342Y-45082666D02*
X111420104Y-45035047D01*
X111420104Y-45035047D02*
X111277247Y-45035047D01*
X111277247Y-45035047D02*
X111182009Y-45082666D01*
X111182009Y-45082666D02*
X111134390Y-45130285D01*
X111134390Y-45130285D02*
X111086771Y-45225523D01*
X111086771Y-45225523D02*
X111086771Y-45606475D01*
X110610580Y-44082666D02*
X110610580Y-44654094D01*
X110610580Y-44368380D02*
X111610580Y-44368380D01*
X111610580Y-44368380D02*
X111467723Y-44463618D01*
X111467723Y-44463618D02*
X111372485Y-44558856D01*
X111372485Y-44558856D02*
X111324866Y-44654094D01*
X111610580Y-43463618D02*
X111610580Y-43368380D01*
X111610580Y-43368380D02*
X111562961Y-43273142D01*
X111562961Y-43273142D02*
X111515342Y-43225523D01*
X111515342Y-43225523D02*
X111420104Y-43177904D01*
X111420104Y-43177904D02*
X111229628Y-43130285D01*
X111229628Y-43130285D02*
X110991533Y-43130285D01*
X110991533Y-43130285D02*
X110801057Y-43177904D01*
X110801057Y-43177904D02*
X110705819Y-43225523D01*
X110705819Y-43225523D02*
X110658200Y-43273142D01*
X110658200Y-43273142D02*
X110610580Y-43368380D01*
X110610580Y-43368380D02*
X110610580Y-43463618D01*
X110610580Y-43463618D02*
X110658200Y-43558856D01*
X110658200Y-43558856D02*
X110705819Y-43606475D01*
X110705819Y-43606475D02*
X110801057Y-43654094D01*
X110801057Y-43654094D02*
X110991533Y-43701713D01*
X110991533Y-43701713D02*
X111229628Y-43701713D01*
X111229628Y-43701713D02*
X111420104Y-43654094D01*
X111420104Y-43654094D02*
X111515342Y-43606475D01*
X111515342Y-43606475D02*
X111562961Y-43558856D01*
X111562961Y-43558856D02*
X111610580Y-43463618D01*
X111610580Y-42796951D02*
X111610580Y-42177904D01*
X111610580Y-42177904D02*
X111229628Y-42511237D01*
X111229628Y-42511237D02*
X111229628Y-42368380D01*
X111229628Y-42368380D02*
X111182009Y-42273142D01*
X111182009Y-42273142D02*
X111134390Y-42225523D01*
X111134390Y-42225523D02*
X111039152Y-42177904D01*
X111039152Y-42177904D02*
X110801057Y-42177904D01*
X110801057Y-42177904D02*
X110705819Y-42225523D01*
X110705819Y-42225523D02*
X110658200Y-42273142D01*
X110658200Y-42273142D02*
X110610580Y-42368380D01*
X110610580Y-42368380D02*
X110610580Y-42654094D01*
X110610580Y-42654094D02*
X110658200Y-42749332D01*
X110658200Y-42749332D02*
X110705819Y-42796951D01*
D13*
X128884000Y-56981736D02*
X128884000Y-58435864D01*
X130704000Y-56981736D02*
X130704000Y-58435864D01*
X131220800Y-56981736D02*
X131220800Y-58435864D01*
X133040800Y-56981736D02*
X133040800Y-58435864D01*
%LPC*%
D14*
X114833400Y-41351200D03*
D15*
X114833400Y-43891200D03*
X114833400Y-46431200D03*
X114833400Y-48971200D03*
X114833400Y-51511200D03*
X114833400Y-54051200D03*
X114833400Y-56591200D03*
X114833400Y-59131200D03*
X114833400Y-61671200D03*
X114833400Y-64211200D03*
X114833400Y-66751200D03*
X114833400Y-69291200D03*
X114833400Y-71831200D03*
X114833400Y-74371200D03*
D14*
X132613400Y-71831200D03*
D15*
X132613400Y-74371200D03*
X130073400Y-71831200D03*
X130073400Y-74371200D03*
X127533400Y-71831200D03*
X127533400Y-74371200D03*
X124993400Y-71831200D03*
X124993400Y-74371200D03*
X122453400Y-71831200D03*
X122453400Y-74371200D03*
D14*
X110972600Y-48971200D03*
D15*
X110972600Y-51511200D03*
X110972600Y-54051200D03*
X110972600Y-56591200D03*
D14*
X107213400Y-41351200D03*
D15*
X107213400Y-43891200D03*
X107213400Y-46431200D03*
X107213400Y-48971200D03*
X107213400Y-51511200D03*
X107213400Y-54051200D03*
X107213400Y-56591200D03*
X107213400Y-59131200D03*
X107213400Y-61671200D03*
X107213400Y-64211200D03*
X107213400Y-66751200D03*
X107213400Y-69291200D03*
X107213400Y-71831200D03*
X107213400Y-74371200D03*
D16*
X129794000Y-56246300D03*
X129794000Y-59171300D03*
X132130800Y-56246300D03*
X132130800Y-59171300D03*
%LPD*%
M02*
