M48
; DRILL file {KiCad 9.0.0} date 2025-05-26T23:54:58+0200
; FORMAT={-:-/ absolute / metric / decimal}
; #@! TF.CreationDate,2025-05-26T23:54:58+02:00
; #@! TF.GenerationSoftware,Kicad,Pcbnew,9.0.0
; #@! TF.FileFunction,Plated,1,4,PTH
FMAT,2
METRIC
; #@! TA.AperFunction,Plated,PTH,ViaDrill
T1C0.300
; #@! TA.AperFunction,Plated,PTH,ComponentDrill
T2C1.000
%
G90
G05
T1
X110.073Y-64.145
X110.084Y-59.182
X111.023Y-43.332
X111.023Y-68.148
X111.023Y-72.72
X111.023Y-75.895
X111.973Y-64.15
X117.373Y-65.481
X118.272Y-62.941
X119.659Y-64.973
X120.294Y-67.259
X121.183Y-61.671
X122.834Y-67.259
X124.358Y-59.258
X124.741Y-61.671
X125.12Y-59.766
X125.501Y-61.163
X126.39Y-61.671
X126.775Y-55.702
X126.975Y-54.156
X127.152Y-60.757
X128.27Y-63.957
X128.676Y-61.976
X129.819Y-54.153
X132.131Y-55.118
X135.554Y-59.925
X136.57Y-59.925
X136.57Y-61.195
X137.566Y-56.083
X137.566Y-71.831
X137.566Y-74.422
X137.586Y-63.735
X138.64Y-59.963
T2
X107.213Y-41.351
X107.213Y-43.891
X107.213Y-46.431
X107.213Y-48.971
X107.213Y-51.511
X107.213Y-54.051
X107.213Y-56.591
X107.213Y-59.131
X107.213Y-61.671
X107.213Y-64.211
X107.213Y-66.751
X107.213Y-69.291
X107.213Y-71.831
X107.213Y-74.371
X110.973Y-48.971
X110.973Y-51.511
X110.973Y-54.051
X110.973Y-56.591
X114.833Y-41.351
X114.833Y-43.891
X114.833Y-46.431
X114.833Y-48.971
X114.833Y-51.511
X114.833Y-54.051
X114.833Y-56.591
X114.833Y-59.131
X114.833Y-61.671
X114.833Y-64.211
X114.833Y-66.751
X114.833Y-69.291
X114.833Y-71.831
X114.833Y-74.371
X122.453Y-71.831
X122.453Y-74.371
X124.993Y-71.831
X124.993Y-74.371
X127.533Y-71.831
X127.533Y-74.371
X130.073Y-71.831
X130.073Y-74.371
X132.613Y-71.831
X132.613Y-74.371
M30
