%TF.GenerationSoftware,KiCad,Pcbnew,9.0.0*%
%TF.CreationDate,2025-06-08T16:33:52+02:00*%
%TF.ProjectId,ideswap,69646573-7761-4702-9e6b-696361645f70,A0*%
%TF.SameCoordinates,Original*%
%TF.FileFunction,Copper,L2,Inr*%
%TF.FilePolarity,Positive*%
%FSLAX46Y46*%
G04 Gerber Fmt 4.6, Leading zero omitted, Abs format (unit mm)*
G04 Created by KiCad (PCBNEW 9.0.0) date 2025-06-08 16:33:52*
%MOMM*%
%LPD*%
G01*
G04 APERTURE LIST*
%TA.AperFunction,ComponentPad*%
%ADD10R,1.350000X1.350000*%
%TD*%
%TA.AperFunction,ComponentPad*%
%ADD11O,1.350000X1.350000*%
%TD*%
%TA.AperFunction,ViaPad*%
%ADD12C,0.600000*%
%TD*%
%TA.AperFunction,Conductor*%
%ADD13C,0.203200*%
%TD*%
G04 APERTURE END LIST*
D10*
X72390000Y-43180000D03*
D11*
X72390000Y-41180000D03*
X74390000Y-43180000D03*
X74390000Y-41180000D03*
X76390000Y-43180000D03*
X76390000Y-41180000D03*
X78390000Y-43180000D03*
X78390000Y-41180000D03*
X80390000Y-43180000D03*
X80390000Y-41180000D03*
X82390000Y-43180000D03*
X82390000Y-41180000D03*
X84390000Y-43180000D03*
X84390000Y-41180000D03*
X86390000Y-43180000D03*
X86390000Y-41180000D03*
X88390000Y-43180000D03*
X88390000Y-41180000D03*
X90390000Y-43180000D03*
X90390000Y-41180000D03*
X92390000Y-43180000D03*
X92390000Y-41180000D03*
X94390000Y-43180000D03*
X94390000Y-41180000D03*
X96390000Y-43180000D03*
X96390000Y-41180000D03*
X98390000Y-43180000D03*
X98390000Y-41180000D03*
X100390000Y-43180000D03*
X100390000Y-41180000D03*
X102390000Y-43180000D03*
X102390000Y-41180000D03*
X104390000Y-43180000D03*
X104390000Y-41180000D03*
X106390000Y-43180000D03*
X106390000Y-41180000D03*
X108390000Y-43180000D03*
X108390000Y-41180000D03*
X110390000Y-43180000D03*
X110390000Y-41180000D03*
X112390000Y-43180000D03*
X112390000Y-41180000D03*
X114390000Y-43180000D03*
X114390000Y-41180000D03*
D10*
X72390000Y-46736000D03*
D11*
X72390000Y-48736000D03*
X74390000Y-46736000D03*
X74390000Y-48736000D03*
X76390000Y-46736000D03*
X76390000Y-48736000D03*
X78390000Y-46736000D03*
X78390000Y-48736000D03*
X80390000Y-46736000D03*
X80390000Y-48736000D03*
X82390000Y-46736000D03*
X82390000Y-48736000D03*
X84390000Y-46736000D03*
X84390000Y-48736000D03*
X86390000Y-46736000D03*
X86390000Y-48736000D03*
X88390000Y-46736000D03*
X88390000Y-48736000D03*
X90390000Y-46736000D03*
X90390000Y-48736000D03*
X92390000Y-46736000D03*
X92390000Y-48736000D03*
X94390000Y-46736000D03*
X94390000Y-48736000D03*
X96390000Y-46736000D03*
X96390000Y-48736000D03*
X98390000Y-46736000D03*
X98390000Y-48736000D03*
X100390000Y-46736000D03*
X100390000Y-48736000D03*
X102390000Y-46736000D03*
X102390000Y-48736000D03*
X104390000Y-46736000D03*
X104390000Y-48736000D03*
X106390000Y-46736000D03*
X106390000Y-48736000D03*
X108390000Y-46736000D03*
X108390000Y-48736000D03*
X110390000Y-46736000D03*
X110390000Y-48736000D03*
X112390000Y-46736000D03*
X112390000Y-48736000D03*
X114390000Y-46736000D03*
X114390000Y-48736000D03*
D12*
X109372400Y-45212000D03*
X114300000Y-45212000D03*
X83693000Y-45212000D03*
X90805000Y-45212000D03*
X74422000Y-45085000D03*
X95250000Y-45212000D03*
X86360000Y-45212000D03*
X76454000Y-45085000D03*
X88392000Y-45212000D03*
X93345000Y-45212000D03*
X79121000Y-45212000D03*
X99390200Y-45212000D03*
X101346000Y-45212000D03*
D13*
X88214200Y-38735000D02*
X89408000Y-39928800D01*
X75387200Y-42182800D02*
X75387200Y-40309800D01*
X76962000Y-38735000D02*
X88214200Y-38735000D01*
X75387200Y-40309800D02*
X76962000Y-38735000D01*
X74390000Y-43180000D02*
X75387200Y-42182800D01*
X89408000Y-39928800D02*
X89408000Y-47752000D01*
X89408000Y-47752000D02*
X88392000Y-48768000D01*
X86360000Y-48768000D02*
X87401400Y-47726600D01*
X78409800Y-39319200D02*
X77393800Y-40335200D01*
X87401400Y-40157400D02*
X86563200Y-39319200D01*
X87401400Y-47726600D02*
X87401400Y-40157400D01*
X86563200Y-39319200D02*
X78409800Y-39319200D01*
X77393800Y-40335200D02*
X77393800Y-42176200D01*
X77393800Y-42176200D02*
X76390000Y-43180000D01*
X84455000Y-48768000D02*
X85394800Y-47828200D01*
X85394800Y-47828200D02*
X85394800Y-40563800D01*
X85394800Y-40563800D02*
X84734400Y-39903400D01*
X84734400Y-39903400D02*
X79730600Y-39903400D01*
X79400400Y-40233600D02*
X79400400Y-42169600D01*
X79400400Y-42169600D02*
X78390000Y-43180000D01*
X79730600Y-39903400D02*
X79400400Y-40233600D01*
X82390000Y-43180000D02*
X81381600Y-44188400D01*
X81381600Y-44188400D02*
X81381600Y-47726600D01*
X81381600Y-47726600D02*
X80365600Y-48742600D01*
%TA.AperFunction,Conductor*%
G36*
X76481001Y-38619713D02*
G01*
X76517546Y-38670013D01*
X76517546Y-38732187D01*
X76493005Y-38772235D01*
X75142899Y-40122341D01*
X75142898Y-40122343D01*
X75128236Y-40147740D01*
X75128235Y-40147742D01*
X75115470Y-40169850D01*
X75102706Y-40191958D01*
X75081900Y-40269604D01*
X75081900Y-40397299D01*
X75062687Y-40456430D01*
X75012387Y-40492975D01*
X74950213Y-40492975D01*
X74925410Y-40480945D01*
X74806225Y-40401308D01*
X74806217Y-40401304D01*
X74646309Y-40335068D01*
X74519236Y-40309792D01*
X74476544Y-40301300D01*
X74303456Y-40301300D01*
X74261015Y-40309742D01*
X74133690Y-40335068D01*
X73973782Y-40401304D01*
X73973774Y-40401308D01*
X73829862Y-40497467D01*
X73829861Y-40497469D01*
X73707469Y-40619861D01*
X73707467Y-40619862D01*
X73611308Y-40763774D01*
X73611304Y-40763782D01*
X73545068Y-40923690D01*
X73511300Y-41093456D01*
X73511300Y-41266543D01*
X73545068Y-41436309D01*
X73611304Y-41596217D01*
X73611308Y-41596225D01*
X73707467Y-41740137D01*
X73829862Y-41862532D01*
X73973774Y-41958691D01*
X73973776Y-41958692D01*
X73973779Y-41958694D01*
X73995710Y-41967778D01*
X74133690Y-42024931D01*
X74133691Y-42024931D01*
X74133693Y-42024932D01*
X74303456Y-42058700D01*
X74303457Y-42058700D01*
X74476543Y-42058700D01*
X74476544Y-42058700D01*
X74646307Y-42024932D01*
X74806221Y-41958694D01*
X74925411Y-41879053D01*
X74938886Y-41875253D01*
X74950213Y-41867024D01*
X74968066Y-41867024D01*
X74985249Y-41862178D01*
X74998385Y-41867024D01*
X75012387Y-41867024D01*
X75026830Y-41877518D01*
X75043580Y-41883697D01*
X75051358Y-41895338D01*
X75062687Y-41903569D01*
X75068204Y-41920548D01*
X75078123Y-41935393D01*
X75081900Y-41962700D01*
X75081900Y-42014669D01*
X75062687Y-42073800D01*
X75052435Y-42085804D01*
X74804757Y-42333481D01*
X74749359Y-42361707D01*
X74695124Y-42355288D01*
X74646309Y-42335068D01*
X74533131Y-42312556D01*
X74476544Y-42301300D01*
X74303456Y-42301300D01*
X74261015Y-42309742D01*
X74133690Y-42335068D01*
X73973782Y-42401304D01*
X73973774Y-42401308D01*
X73829862Y-42497467D01*
X73829861Y-42497469D01*
X73707469Y-42619861D01*
X73707467Y-42619862D01*
X73611308Y-42763774D01*
X73611304Y-42763782D01*
X73545068Y-42923690D01*
X73511300Y-43093456D01*
X73511300Y-43266543D01*
X73545068Y-43436309D01*
X73611304Y-43596217D01*
X73611308Y-43596225D01*
X73707467Y-43740137D01*
X73829862Y-43862532D01*
X73973774Y-43958691D01*
X73973776Y-43958692D01*
X73973779Y-43958694D01*
X73997325Y-43968447D01*
X74133690Y-44024931D01*
X74133691Y-44024931D01*
X74133693Y-44024932D01*
X74303456Y-44058700D01*
X74303457Y-44058700D01*
X74476543Y-44058700D01*
X74476544Y-44058700D01*
X74646307Y-44024932D01*
X74806221Y-43958694D01*
X74950139Y-43862531D01*
X75072531Y-43740139D01*
X75168694Y-43596221D01*
X75234932Y-43436307D01*
X75268700Y-43266544D01*
X75268700Y-43093456D01*
X75234932Y-42923693D01*
X75214709Y-42874872D01*
X75209831Y-42812893D01*
X75236515Y-42765243D01*
X75631501Y-42370259D01*
X75635312Y-42363659D01*
X75651818Y-42335068D01*
X75671694Y-42300641D01*
X75672443Y-42297845D01*
X75675231Y-42287443D01*
X75675231Y-42287441D01*
X75692499Y-42222995D01*
X75692500Y-42222993D01*
X75692500Y-41958958D01*
X75711713Y-41899827D01*
X75762013Y-41863282D01*
X75824187Y-41863282D01*
X75848984Y-41875308D01*
X75973779Y-41958694D01*
X75995710Y-41967778D01*
X76133690Y-42024931D01*
X76133691Y-42024931D01*
X76133693Y-42024932D01*
X76303456Y-42058700D01*
X76303457Y-42058700D01*
X76476543Y-42058700D01*
X76476544Y-42058700D01*
X76646307Y-42024932D01*
X76806221Y-41958694D01*
X76932011Y-41874643D01*
X76945486Y-41870843D01*
X76956813Y-41862614D01*
X76974666Y-41862614D01*
X76991849Y-41857768D01*
X77004985Y-41862614D01*
X77018987Y-41862614D01*
X77033430Y-41873108D01*
X77050180Y-41879287D01*
X77057958Y-41890928D01*
X77069287Y-41899159D01*
X77074804Y-41916138D01*
X77084723Y-41930983D01*
X77088500Y-41958290D01*
X77088500Y-42008069D01*
X77069287Y-42067200D01*
X77059035Y-42079204D01*
X76804757Y-42333481D01*
X76749359Y-42361707D01*
X76695124Y-42355288D01*
X76646309Y-42335068D01*
X76533131Y-42312556D01*
X76476544Y-42301300D01*
X76303456Y-42301300D01*
X76261015Y-42309742D01*
X76133690Y-42335068D01*
X75973782Y-42401304D01*
X75973774Y-42401308D01*
X75829862Y-42497467D01*
X75829861Y-42497469D01*
X75707469Y-42619861D01*
X75707467Y-42619862D01*
X75611308Y-42763774D01*
X75611304Y-42763782D01*
X75545068Y-42923690D01*
X75511300Y-43093456D01*
X75511300Y-43266543D01*
X75545068Y-43436309D01*
X75611304Y-43596217D01*
X75611308Y-43596225D01*
X75707467Y-43740137D01*
X75829862Y-43862532D01*
X75973774Y-43958691D01*
X75973776Y-43958692D01*
X75973779Y-43958694D01*
X75997325Y-43968447D01*
X76133690Y-44024931D01*
X76133691Y-44024931D01*
X76133693Y-44024932D01*
X76303456Y-44058700D01*
X76303457Y-44058700D01*
X76476543Y-44058700D01*
X76476544Y-44058700D01*
X76646307Y-44024932D01*
X76806221Y-43958694D01*
X76950139Y-43862531D01*
X77072531Y-43740139D01*
X77168694Y-43596221D01*
X77234932Y-43436307D01*
X77268700Y-43266544D01*
X77268700Y-43093456D01*
X77234932Y-42923693D01*
X77214709Y-42874872D01*
X77209831Y-42812893D01*
X77236515Y-42765243D01*
X77638101Y-42363659D01*
X77678294Y-42294041D01*
X77680062Y-42287441D01*
X77697331Y-42222995D01*
X77699099Y-42216398D01*
X77699100Y-42216392D01*
X77699100Y-41963368D01*
X77718313Y-41904237D01*
X77768613Y-41867692D01*
X77830787Y-41867692D01*
X77855589Y-41879722D01*
X77872360Y-41890928D01*
X77973772Y-41958690D01*
X77973776Y-41958692D01*
X77973779Y-41958694D01*
X77995710Y-41967778D01*
X78133690Y-42024931D01*
X78133691Y-42024931D01*
X78133693Y-42024932D01*
X78303456Y-42058700D01*
X78303457Y-42058700D01*
X78476543Y-42058700D01*
X78476544Y-42058700D01*
X78646307Y-42024932D01*
X78806221Y-41958694D01*
X78938611Y-41870233D01*
X78952086Y-41866433D01*
X78963413Y-41858204D01*
X78981266Y-41858204D01*
X78998449Y-41853358D01*
X79011585Y-41858204D01*
X79025587Y-41858204D01*
X79040030Y-41868698D01*
X79056780Y-41874877D01*
X79064558Y-41886518D01*
X79075887Y-41894749D01*
X79081404Y-41911728D01*
X79091323Y-41926573D01*
X79095100Y-41953880D01*
X79095100Y-42001470D01*
X79075887Y-42060601D01*
X79065635Y-42072605D01*
X78804758Y-42333481D01*
X78749360Y-42361707D01*
X78695126Y-42355289D01*
X78646305Y-42335067D01*
X78518695Y-42309684D01*
X78476544Y-42301300D01*
X78303456Y-42301300D01*
X78261015Y-42309742D01*
X78133690Y-42335068D01*
X77973782Y-42401304D01*
X77973774Y-42401308D01*
X77829862Y-42497467D01*
X77829861Y-42497469D01*
X77707469Y-42619861D01*
X77707467Y-42619862D01*
X77611308Y-42763774D01*
X77611304Y-42763782D01*
X77545068Y-42923690D01*
X77511300Y-43093456D01*
X77511300Y-43266543D01*
X77545068Y-43436309D01*
X77611304Y-43596217D01*
X77611308Y-43596225D01*
X77707467Y-43740137D01*
X77829862Y-43862532D01*
X77973774Y-43958691D01*
X77973776Y-43958692D01*
X77973779Y-43958694D01*
X77997325Y-43968447D01*
X78133690Y-44024931D01*
X78133691Y-44024931D01*
X78133693Y-44024932D01*
X78303456Y-44058700D01*
X78303457Y-44058700D01*
X78476543Y-44058700D01*
X78476544Y-44058700D01*
X78646307Y-44024932D01*
X78806221Y-43958694D01*
X78950139Y-43862531D01*
X79072531Y-43740139D01*
X79168694Y-43596221D01*
X79234932Y-43436307D01*
X79268700Y-43266544D01*
X79268700Y-43093456D01*
X79511300Y-43093456D01*
X79511300Y-43266543D01*
X79545068Y-43436309D01*
X79611304Y-43596217D01*
X79611308Y-43596225D01*
X79707467Y-43740137D01*
X79829862Y-43862532D01*
X79973774Y-43958691D01*
X79973776Y-43958692D01*
X79973779Y-43958694D01*
X79997325Y-43968447D01*
X80133690Y-44024931D01*
X80133691Y-44024931D01*
X80133693Y-44024932D01*
X80303456Y-44058700D01*
X80303457Y-44058700D01*
X80476543Y-44058700D01*
X80476544Y-44058700D01*
X80646307Y-44024932D01*
X80806221Y-43958694D01*
X80950139Y-43862531D01*
X81072531Y-43740139D01*
X81168694Y-43596221D01*
X81234932Y-43436307D01*
X81268700Y-43266544D01*
X81268700Y-43093456D01*
X81234932Y-42923693D01*
X81168694Y-42763779D01*
X81089499Y-42645256D01*
X81072532Y-42619862D01*
X80950137Y-42497467D01*
X80806225Y-42401308D01*
X80806217Y-42401304D01*
X80646309Y-42335068D01*
X80533131Y-42312556D01*
X80476544Y-42301300D01*
X80303456Y-42301300D01*
X80261015Y-42309742D01*
X80133690Y-42335068D01*
X79973782Y-42401304D01*
X79973774Y-42401308D01*
X79829862Y-42497467D01*
X79829861Y-42497469D01*
X79707469Y-42619861D01*
X79707467Y-42619862D01*
X79611308Y-42763774D01*
X79611304Y-42763782D01*
X79545068Y-42923690D01*
X79511300Y-43093456D01*
X79268700Y-43093456D01*
X79234932Y-42923693D01*
X79214709Y-42874871D01*
X79209831Y-42812892D01*
X79236515Y-42765242D01*
X79644700Y-42357059D01*
X79684894Y-42287442D01*
X79684894Y-42287438D01*
X79684896Y-42287437D01*
X79687840Y-42276445D01*
X79690466Y-42266643D01*
X79690469Y-42266638D01*
X79690468Y-42266638D01*
X79703931Y-42216393D01*
X79705700Y-42209793D01*
X79705700Y-41967778D01*
X79724913Y-41908647D01*
X79775213Y-41872102D01*
X79837387Y-41872102D01*
X79862189Y-41884132D01*
X79872360Y-41890928D01*
X79973772Y-41958690D01*
X79973776Y-41958692D01*
X79973779Y-41958694D01*
X79995710Y-41967778D01*
X80133690Y-42024931D01*
X80133691Y-42024931D01*
X80133693Y-42024932D01*
X80303456Y-42058700D01*
X80303457Y-42058700D01*
X80476543Y-42058700D01*
X80476544Y-42058700D01*
X80646307Y-42024932D01*
X80806221Y-41958694D01*
X80950139Y-41862531D01*
X81072531Y-41740139D01*
X81168694Y-41596221D01*
X81234932Y-41436307D01*
X81268700Y-41266544D01*
X81268700Y-41093456D01*
X81234932Y-40923693D01*
X81168694Y-40763779D01*
X81095099Y-40653637D01*
X81072532Y-40619862D01*
X80950137Y-40497467D01*
X80806225Y-40401308D01*
X80801865Y-40398978D01*
X80802741Y-40397338D01*
X80761207Y-40361869D01*
X80746689Y-40301414D01*
X80770478Y-40243971D01*
X80823488Y-40211481D01*
X80846979Y-40208700D01*
X81933021Y-40208700D01*
X81992152Y-40227913D01*
X82028697Y-40278213D01*
X82028697Y-40340387D01*
X81992152Y-40390687D01*
X81977953Y-40398638D01*
X81978135Y-40398978D01*
X81973774Y-40401308D01*
X81829862Y-40497467D01*
X81829861Y-40497469D01*
X81707469Y-40619861D01*
X81707467Y-40619862D01*
X81611308Y-40763774D01*
X81611304Y-40763782D01*
X81545068Y-40923690D01*
X81511300Y-41093456D01*
X81511300Y-41266543D01*
X81545068Y-41436309D01*
X81611304Y-41596217D01*
X81611308Y-41596225D01*
X81707467Y-41740137D01*
X81829862Y-41862532D01*
X81973774Y-41958691D01*
X81973776Y-41958692D01*
X81973779Y-41958694D01*
X81995710Y-41967778D01*
X82133690Y-42024931D01*
X82133691Y-42024931D01*
X82133693Y-42024932D01*
X82303456Y-42058700D01*
X82303457Y-42058700D01*
X82476543Y-42058700D01*
X82476544Y-42058700D01*
X82646307Y-42024932D01*
X82806221Y-41958694D01*
X82950139Y-41862531D01*
X83072531Y-41740139D01*
X83168694Y-41596221D01*
X83234932Y-41436307D01*
X83268700Y-41266544D01*
X83268700Y-41093456D01*
X83234932Y-40923693D01*
X83168694Y-40763779D01*
X83095099Y-40653637D01*
X83072532Y-40619862D01*
X82950137Y-40497467D01*
X82806225Y-40401308D01*
X82801865Y-40398978D01*
X82802741Y-40397338D01*
X82761207Y-40361869D01*
X82746689Y-40301414D01*
X82770478Y-40243971D01*
X82823488Y-40211481D01*
X82846979Y-40208700D01*
X83933021Y-40208700D01*
X83992152Y-40227913D01*
X84028697Y-40278213D01*
X84028697Y-40340387D01*
X83992152Y-40390687D01*
X83977953Y-40398638D01*
X83978135Y-40398978D01*
X83973774Y-40401308D01*
X83829862Y-40497467D01*
X83829861Y-40497469D01*
X83707469Y-40619861D01*
X83707467Y-40619862D01*
X83611308Y-40763774D01*
X83611304Y-40763782D01*
X83545068Y-40923690D01*
X83511300Y-41093456D01*
X83511300Y-41266543D01*
X83545068Y-41436309D01*
X83611304Y-41596217D01*
X83611308Y-41596225D01*
X83707467Y-41740137D01*
X83829862Y-41862532D01*
X83973774Y-41958691D01*
X83973776Y-41958692D01*
X83973779Y-41958694D01*
X83995710Y-41967778D01*
X84133690Y-42024931D01*
X84133691Y-42024931D01*
X84133693Y-42024932D01*
X84303456Y-42058700D01*
X84303457Y-42058700D01*
X84476543Y-42058700D01*
X84476544Y-42058700D01*
X84646307Y-42024932D01*
X84806221Y-41958694D01*
X84933011Y-41873975D01*
X84992849Y-41857100D01*
X85051181Y-41878619D01*
X85085723Y-41930315D01*
X85089500Y-41957622D01*
X85089500Y-42402377D01*
X85070287Y-42461508D01*
X85019987Y-42498053D01*
X84957813Y-42498053D01*
X84933010Y-42486023D01*
X84806225Y-42401308D01*
X84806217Y-42401304D01*
X84646309Y-42335068D01*
X84533131Y-42312556D01*
X84476544Y-42301300D01*
X84303456Y-42301300D01*
X84261015Y-42309742D01*
X84133690Y-42335068D01*
X83973782Y-42401304D01*
X83973774Y-42401308D01*
X83829862Y-42497467D01*
X83829861Y-42497469D01*
X83707469Y-42619861D01*
X83707467Y-42619862D01*
X83611308Y-42763774D01*
X83611304Y-42763782D01*
X83545068Y-42923690D01*
X83511300Y-43093456D01*
X83511300Y-43266543D01*
X83545068Y-43436309D01*
X83611304Y-43596217D01*
X83611308Y-43596225D01*
X83707467Y-43740137D01*
X83829862Y-43862532D01*
X83973774Y-43958691D01*
X83973776Y-43958692D01*
X83973779Y-43958694D01*
X83997325Y-43968447D01*
X84133690Y-44024931D01*
X84133691Y-44024931D01*
X84133693Y-44024932D01*
X84303456Y-44058700D01*
X84303457Y-44058700D01*
X84476543Y-44058700D01*
X84476544Y-44058700D01*
X84646307Y-44024932D01*
X84806221Y-43958694D01*
X84933011Y-43873975D01*
X84992849Y-43857100D01*
X85051181Y-43878619D01*
X85085723Y-43930315D01*
X85089500Y-43957622D01*
X85089500Y-45958377D01*
X85070287Y-46017508D01*
X85019987Y-46054053D01*
X84957813Y-46054053D01*
X84933010Y-46042023D01*
X84806225Y-45957308D01*
X84806217Y-45957304D01*
X84646309Y-45891068D01*
X84533131Y-45868556D01*
X84476544Y-45857300D01*
X84303456Y-45857300D01*
X84261015Y-45865742D01*
X84133690Y-45891068D01*
X83973782Y-45957304D01*
X83973774Y-45957308D01*
X83829862Y-46053467D01*
X83829861Y-46053469D01*
X83707469Y-46175861D01*
X83707467Y-46175862D01*
X83611308Y-46319774D01*
X83611304Y-46319782D01*
X83545068Y-46479690D01*
X83511300Y-46649456D01*
X83511300Y-46822543D01*
X83545068Y-46992309D01*
X83611304Y-47152217D01*
X83611308Y-47152225D01*
X83707467Y-47296137D01*
X83829862Y-47418532D01*
X83973774Y-47514691D01*
X83973776Y-47514692D01*
X83973779Y-47514694D01*
X83997325Y-47524447D01*
X84133690Y-47580931D01*
X84133691Y-47580931D01*
X84133693Y-47580932D01*
X84303456Y-47614700D01*
X84303457Y-47614700D01*
X84476543Y-47614700D01*
X84476544Y-47614700D01*
X84646307Y-47580932D01*
X84806221Y-47514694D01*
X84933011Y-47429975D01*
X84946486Y-47426175D01*
X84957813Y-47417946D01*
X84975666Y-47417946D01*
X84992849Y-47413100D01*
X85005985Y-47417946D01*
X85019987Y-47417946D01*
X85034430Y-47428439D01*
X85051181Y-47434619D01*
X85058960Y-47446261D01*
X85070287Y-47454491D01*
X85075803Y-47471469D01*
X85085723Y-47486315D01*
X85089500Y-47513622D01*
X85089500Y-47660069D01*
X85070287Y-47719200D01*
X85060035Y-47731204D01*
X84873347Y-47917891D01*
X84817949Y-47946117D01*
X84763715Y-47939699D01*
X84646307Y-47891067D01*
X84504708Y-47862902D01*
X84476544Y-47857300D01*
X84303456Y-47857300D01*
X84261015Y-47865742D01*
X84133690Y-47891068D01*
X83973782Y-47957304D01*
X83973774Y-47957308D01*
X83829862Y-48053467D01*
X83829861Y-48053469D01*
X83707469Y-48175861D01*
X83707467Y-48175862D01*
X83611308Y-48319774D01*
X83611304Y-48319782D01*
X83545068Y-48479690D01*
X83511300Y-48649456D01*
X83511300Y-48822543D01*
X83545068Y-48992309D01*
X83611304Y-49152217D01*
X83611308Y-49152225D01*
X83679319Y-49254010D01*
X83696195Y-49313849D01*
X83674676Y-49372181D01*
X83622980Y-49406723D01*
X83595673Y-49410500D01*
X83184327Y-49410500D01*
X83125196Y-49391287D01*
X83088651Y-49340987D01*
X83088651Y-49278813D01*
X83100681Y-49254010D01*
X83146712Y-49185119D01*
X83168694Y-49152221D01*
X83234932Y-48992307D01*
X83268700Y-48822544D01*
X83268700Y-48649456D01*
X83234932Y-48479693D01*
X83168694Y-48319779D01*
X83080093Y-48187179D01*
X83072532Y-48175862D01*
X82950137Y-48053467D01*
X82806225Y-47957308D01*
X82806217Y-47957304D01*
X82646309Y-47891068D01*
X82532302Y-47868391D01*
X82476544Y-47857300D01*
X82303456Y-47857300D01*
X82261015Y-47865742D01*
X82133690Y-47891068D01*
X81973782Y-47957304D01*
X81973774Y-47957308D01*
X81829862Y-48053467D01*
X81829861Y-48053469D01*
X81707469Y-48175861D01*
X81707467Y-48175862D01*
X81611308Y-48319774D01*
X81611304Y-48319782D01*
X81545068Y-48479690D01*
X81511300Y-48649456D01*
X81511300Y-48822543D01*
X81545068Y-48992309D01*
X81611304Y-49152217D01*
X81611308Y-49152225D01*
X81679319Y-49254010D01*
X81696195Y-49313849D01*
X81674676Y-49372181D01*
X81622980Y-49406723D01*
X81595673Y-49410500D01*
X81184327Y-49410500D01*
X81125196Y-49391287D01*
X81088651Y-49340987D01*
X81088651Y-49278813D01*
X81100681Y-49254010D01*
X81146712Y-49185119D01*
X81168694Y-49152221D01*
X81234932Y-48992307D01*
X81268700Y-48822544D01*
X81268700Y-48649456D01*
X81234932Y-48479693D01*
X81209496Y-48418287D01*
X81204618Y-48356305D01*
X81231304Y-48308654D01*
X81364097Y-48175861D01*
X81625900Y-47914059D01*
X81666094Y-47844441D01*
X81686900Y-47766793D01*
X81686900Y-47511217D01*
X81706113Y-47452086D01*
X81756413Y-47415541D01*
X81818587Y-47415541D01*
X81843390Y-47427571D01*
X81973774Y-47514691D01*
X81973776Y-47514692D01*
X81973779Y-47514694D01*
X81997325Y-47524447D01*
X82133690Y-47580931D01*
X82133691Y-47580931D01*
X82133693Y-47580932D01*
X82303456Y-47614700D01*
X82303457Y-47614700D01*
X82476543Y-47614700D01*
X82476544Y-47614700D01*
X82646307Y-47580932D01*
X82806221Y-47514694D01*
X82950139Y-47418531D01*
X83072531Y-47296139D01*
X83168694Y-47152221D01*
X83234932Y-46992307D01*
X83268700Y-46822544D01*
X83268700Y-46649456D01*
X83234932Y-46479693D01*
X83168694Y-46319779D01*
X83089499Y-46201256D01*
X83072532Y-46175862D01*
X82950137Y-46053467D01*
X82806225Y-45957308D01*
X82806217Y-45957304D01*
X82646309Y-45891068D01*
X82533131Y-45868556D01*
X82476544Y-45857300D01*
X82303456Y-45857300D01*
X82261015Y-45865742D01*
X82133690Y-45891068D01*
X81973782Y-45957304D01*
X81973774Y-45957308D01*
X81843390Y-46044428D01*
X81783550Y-46061304D01*
X81725219Y-46039785D01*
X81690677Y-45988089D01*
X81686900Y-45960782D01*
X81686900Y-44356528D01*
X81706113Y-44297397D01*
X81716359Y-44285399D01*
X81975242Y-44026515D01*
X82030638Y-43998291D01*
X82084871Y-44004709D01*
X82115257Y-44017296D01*
X82133692Y-44024932D01*
X82218574Y-44041816D01*
X82303456Y-44058700D01*
X82303457Y-44058700D01*
X82476543Y-44058700D01*
X82476544Y-44058700D01*
X82646307Y-44024932D01*
X82806221Y-43958694D01*
X82950139Y-43862531D01*
X83072531Y-43740139D01*
X83168694Y-43596221D01*
X83234932Y-43436307D01*
X83268700Y-43266544D01*
X83268700Y-43093456D01*
X83234932Y-42923693D01*
X83168694Y-42763779D01*
X83089499Y-42645256D01*
X83072532Y-42619862D01*
X82950137Y-42497467D01*
X82806225Y-42401308D01*
X82806217Y-42401304D01*
X82646309Y-42335068D01*
X82533131Y-42312556D01*
X82476544Y-42301300D01*
X82303456Y-42301300D01*
X82261015Y-42309742D01*
X82133690Y-42335068D01*
X81973782Y-42401304D01*
X81973774Y-42401308D01*
X81829862Y-42497467D01*
X81829861Y-42497469D01*
X81707469Y-42619861D01*
X81707467Y-42619862D01*
X81611308Y-42763774D01*
X81611304Y-42763782D01*
X81545068Y-42923690D01*
X81511300Y-43093456D01*
X81511300Y-43266543D01*
X81545067Y-43436305D01*
X81565289Y-43485126D01*
X81570166Y-43547109D01*
X81543481Y-43594758D01*
X81137299Y-44000941D01*
X81137298Y-44000943D01*
X81123727Y-44024450D01*
X81123449Y-44024932D01*
X81122534Y-44026517D01*
X81097106Y-44070558D01*
X81076300Y-44148204D01*
X81076300Y-45949557D01*
X81057087Y-46008688D01*
X81006787Y-46045233D01*
X80944613Y-46045233D01*
X80919810Y-46033203D01*
X80806225Y-45957308D01*
X80806217Y-45957304D01*
X80646309Y-45891068D01*
X80533131Y-45868556D01*
X80476544Y-45857300D01*
X80303456Y-45857300D01*
X80261015Y-45865742D01*
X80133690Y-45891068D01*
X79973782Y-45957304D01*
X79973774Y-45957308D01*
X79829862Y-46053467D01*
X79829861Y-46053469D01*
X79707469Y-46175861D01*
X79707467Y-46175862D01*
X79611308Y-46319774D01*
X79611304Y-46319782D01*
X79545068Y-46479690D01*
X79511300Y-46649456D01*
X79511300Y-46822543D01*
X79545068Y-46992309D01*
X79611304Y-47152217D01*
X79611308Y-47152225D01*
X79707467Y-47296137D01*
X79829862Y-47418532D01*
X79973774Y-47514691D01*
X79973776Y-47514692D01*
X79973779Y-47514694D01*
X79997325Y-47524447D01*
X80133690Y-47580931D01*
X80133691Y-47580931D01*
X80133693Y-47580932D01*
X80303456Y-47614700D01*
X80303457Y-47614700D01*
X80476543Y-47614700D01*
X80476544Y-47614700D01*
X80646307Y-47580932D01*
X80806221Y-47514694D01*
X80919811Y-47438795D01*
X80933286Y-47434995D01*
X80944613Y-47426766D01*
X80962466Y-47426766D01*
X80979649Y-47421920D01*
X80992785Y-47426766D01*
X81006787Y-47426766D01*
X81021230Y-47437259D01*
X81037981Y-47443439D01*
X81045760Y-47455081D01*
X81057087Y-47463311D01*
X81062603Y-47480289D01*
X81072523Y-47495135D01*
X81076300Y-47522442D01*
X81076300Y-47558470D01*
X81057087Y-47617601D01*
X81046835Y-47629605D01*
X80792171Y-47884268D01*
X80736773Y-47912494D01*
X80682537Y-47906075D01*
X80646307Y-47891067D01*
X80504708Y-47862902D01*
X80476544Y-47857300D01*
X80303456Y-47857300D01*
X80261015Y-47865742D01*
X80133690Y-47891068D01*
X79973782Y-47957304D01*
X79973774Y-47957308D01*
X79829862Y-48053467D01*
X79829861Y-48053469D01*
X79707469Y-48175861D01*
X79707467Y-48175862D01*
X79611308Y-48319774D01*
X79611304Y-48319782D01*
X79545068Y-48479690D01*
X79511300Y-48649456D01*
X79511300Y-48822543D01*
X79545068Y-48992309D01*
X79611304Y-49152217D01*
X79611308Y-49152225D01*
X79679319Y-49254010D01*
X79696195Y-49313849D01*
X79674676Y-49372181D01*
X79622980Y-49406723D01*
X79595673Y-49410500D01*
X79184327Y-49410500D01*
X79125196Y-49391287D01*
X79088651Y-49340987D01*
X79088651Y-49278813D01*
X79100681Y-49254010D01*
X79146712Y-49185119D01*
X79168694Y-49152221D01*
X79234932Y-48992307D01*
X79268700Y-48822544D01*
X79268700Y-48649456D01*
X79234932Y-48479693D01*
X79168694Y-48319779D01*
X79080093Y-48187179D01*
X79072532Y-48175862D01*
X78950137Y-48053467D01*
X78806225Y-47957308D01*
X78806217Y-47957304D01*
X78646309Y-47891068D01*
X78532302Y-47868391D01*
X78476544Y-47857300D01*
X78303456Y-47857300D01*
X78261015Y-47865742D01*
X78133690Y-47891068D01*
X77973782Y-47957304D01*
X77973774Y-47957308D01*
X77829862Y-48053467D01*
X77829861Y-48053469D01*
X77707469Y-48175861D01*
X77707467Y-48175862D01*
X77611308Y-48319774D01*
X77611304Y-48319782D01*
X77545068Y-48479690D01*
X77511300Y-48649456D01*
X77511300Y-48822543D01*
X77545068Y-48992309D01*
X77611304Y-49152217D01*
X77611308Y-49152225D01*
X77679319Y-49254010D01*
X77696195Y-49313849D01*
X77674676Y-49372181D01*
X77622980Y-49406723D01*
X77595673Y-49410500D01*
X77184327Y-49410500D01*
X77125196Y-49391287D01*
X77088651Y-49340987D01*
X77088651Y-49278813D01*
X77100681Y-49254010D01*
X77146712Y-49185119D01*
X77168694Y-49152221D01*
X77234932Y-48992307D01*
X77268700Y-48822544D01*
X77268700Y-48649456D01*
X77234932Y-48479693D01*
X77168694Y-48319779D01*
X77080093Y-48187179D01*
X77072532Y-48175862D01*
X76950137Y-48053467D01*
X76806225Y-47957308D01*
X76806217Y-47957304D01*
X76646309Y-47891068D01*
X76532302Y-47868391D01*
X76476544Y-47857300D01*
X76303456Y-47857300D01*
X76261015Y-47865742D01*
X76133690Y-47891068D01*
X75973782Y-47957304D01*
X75973774Y-47957308D01*
X75829862Y-48053467D01*
X75829861Y-48053469D01*
X75707469Y-48175861D01*
X75707467Y-48175862D01*
X75611308Y-48319774D01*
X75611304Y-48319782D01*
X75545068Y-48479690D01*
X75511300Y-48649456D01*
X75511300Y-48822543D01*
X75545068Y-48992309D01*
X75611304Y-49152217D01*
X75611308Y-49152225D01*
X75679319Y-49254010D01*
X75696195Y-49313849D01*
X75674676Y-49372181D01*
X75622980Y-49406723D01*
X75595673Y-49410500D01*
X75184327Y-49410500D01*
X75125196Y-49391287D01*
X75088651Y-49340987D01*
X75088651Y-49278813D01*
X75100681Y-49254010D01*
X75146712Y-49185119D01*
X75168694Y-49152221D01*
X75234932Y-48992307D01*
X75268700Y-48822544D01*
X75268700Y-48649456D01*
X75234932Y-48479693D01*
X75168694Y-48319779D01*
X75080093Y-48187179D01*
X75072532Y-48175862D01*
X74950137Y-48053467D01*
X74806225Y-47957308D01*
X74806217Y-47957304D01*
X74646309Y-47891068D01*
X74532302Y-47868391D01*
X74476544Y-47857300D01*
X74303456Y-47857300D01*
X74261015Y-47865742D01*
X74133690Y-47891068D01*
X73973782Y-47957304D01*
X73973774Y-47957308D01*
X73829862Y-48053467D01*
X73829861Y-48053469D01*
X73707469Y-48175861D01*
X73707467Y-48175862D01*
X73611308Y-48319774D01*
X73611304Y-48319782D01*
X73545068Y-48479690D01*
X73511300Y-48649456D01*
X73511300Y-48822543D01*
X73545068Y-48992309D01*
X73611304Y-49152217D01*
X73611308Y-49152225D01*
X73679319Y-49254010D01*
X73696195Y-49313849D01*
X73674676Y-49372181D01*
X73622980Y-49406723D01*
X73595673Y-49410500D01*
X73183725Y-49410500D01*
X73124594Y-49391287D01*
X73088049Y-49340987D01*
X73088049Y-49278813D01*
X73100079Y-49254010D01*
X73168253Y-49151979D01*
X73168253Y-49151978D01*
X73234448Y-48992169D01*
X73234452Y-48992155D01*
X73235677Y-48986000D01*
X72705686Y-48986000D01*
X72710080Y-48981606D01*
X72762741Y-48890394D01*
X72790000Y-48788661D01*
X72790000Y-48683339D01*
X72762741Y-48581606D01*
X72710080Y-48490394D01*
X72705686Y-48486000D01*
X73235677Y-48486000D01*
X73234452Y-48479844D01*
X73234448Y-48479830D01*
X73168253Y-48320021D01*
X73168253Y-48320020D01*
X73072143Y-48176181D01*
X72949818Y-48053856D01*
X72805979Y-47957746D01*
X72646169Y-47891551D01*
X72646155Y-47891547D01*
X72640000Y-47890322D01*
X72640000Y-48420314D01*
X72635606Y-48415920D01*
X72544394Y-48363259D01*
X72442661Y-48336000D01*
X72337339Y-48336000D01*
X72235606Y-48363259D01*
X72144394Y-48415920D01*
X72140000Y-48420314D01*
X72140000Y-47890322D01*
X72133844Y-47891547D01*
X72133830Y-47891551D01*
X71974021Y-47957746D01*
X71974020Y-47957746D01*
X71830181Y-48053856D01*
X71830180Y-48053858D01*
X71707858Y-48176180D01*
X71707856Y-48176181D01*
X71611746Y-48320020D01*
X71611746Y-48320021D01*
X71545551Y-48479830D01*
X71545547Y-48479844D01*
X71544322Y-48486000D01*
X72074314Y-48486000D01*
X72069920Y-48490394D01*
X72017259Y-48581606D01*
X71990000Y-48683339D01*
X71990000Y-48788661D01*
X72017259Y-48890394D01*
X72069920Y-48981606D01*
X72074314Y-48986000D01*
X71544322Y-48986000D01*
X71540031Y-48991228D01*
X71542944Y-49007536D01*
X71536413Y-49021000D01*
X71534655Y-49035863D01*
X71523185Y-49048272D01*
X71515811Y-49063477D01*
X71502613Y-49070531D01*
X71492455Y-49081522D01*
X71475879Y-49084820D01*
X71460978Y-49092785D01*
X71446155Y-49090734D01*
X71431476Y-49093656D01*
X71416128Y-49086582D01*
X71399390Y-49084267D01*
X71388602Y-49073894D01*
X71375011Y-49067630D01*
X71354572Y-49041174D01*
X71327875Y-48991228D01*
X71302745Y-48944213D01*
X71295199Y-48925994D01*
X71257163Y-48800605D01*
X71253315Y-48781264D01*
X71239984Y-48645914D01*
X71239500Y-48636053D01*
X71239500Y-46040936D01*
X71511300Y-46040936D01*
X71511300Y-47431063D01*
X71523118Y-47490479D01*
X71523119Y-47490480D01*
X71568140Y-47557860D01*
X71635520Y-47602881D01*
X71694936Y-47614700D01*
X71694937Y-47614700D01*
X73085063Y-47614700D01*
X73085064Y-47614700D01*
X73144480Y-47602881D01*
X73211860Y-47557860D01*
X73256881Y-47490480D01*
X73268700Y-47431064D01*
X73268700Y-46649456D01*
X73511300Y-46649456D01*
X73511300Y-46822543D01*
X73545068Y-46992309D01*
X73611304Y-47152217D01*
X73611308Y-47152225D01*
X73707467Y-47296137D01*
X73829862Y-47418532D01*
X73973774Y-47514691D01*
X73973776Y-47514692D01*
X73973779Y-47514694D01*
X73997325Y-47524447D01*
X74133690Y-47580931D01*
X74133691Y-47580931D01*
X74133693Y-47580932D01*
X74303456Y-47614700D01*
X74303457Y-47614700D01*
X74476543Y-47614700D01*
X74476544Y-47614700D01*
X74646307Y-47580932D01*
X74806221Y-47514694D01*
X74950139Y-47418531D01*
X75072531Y-47296139D01*
X75168694Y-47152221D01*
X75234932Y-46992307D01*
X75268700Y-46822544D01*
X75268700Y-46649456D01*
X75511300Y-46649456D01*
X75511300Y-46822543D01*
X75545068Y-46992309D01*
X75611304Y-47152217D01*
X75611308Y-47152225D01*
X75707467Y-47296137D01*
X75829862Y-47418532D01*
X75973774Y-47514691D01*
X75973776Y-47514692D01*
X75973779Y-47514694D01*
X75997325Y-47524447D01*
X76133690Y-47580931D01*
X76133691Y-47580931D01*
X76133693Y-47580932D01*
X76303456Y-47614700D01*
X76303457Y-47614700D01*
X76476543Y-47614700D01*
X76476544Y-47614700D01*
X76646307Y-47580932D01*
X76806221Y-47514694D01*
X76950139Y-47418531D01*
X77072531Y-47296139D01*
X77168694Y-47152221D01*
X77234932Y-46992307D01*
X77268700Y-46822544D01*
X77268700Y-46649456D01*
X77511300Y-46649456D01*
X77511300Y-46822543D01*
X77545068Y-46992309D01*
X77611304Y-47152217D01*
X77611308Y-47152225D01*
X77707467Y-47296137D01*
X77829862Y-47418532D01*
X77973774Y-47514691D01*
X77973776Y-47514692D01*
X77973779Y-47514694D01*
X77997325Y-47524447D01*
X78133690Y-47580931D01*
X78133691Y-47580931D01*
X78133693Y-47580932D01*
X78303456Y-47614700D01*
X78303457Y-47614700D01*
X78476543Y-47614700D01*
X78476544Y-47614700D01*
X78646307Y-47580932D01*
X78806221Y-47514694D01*
X78950139Y-47418531D01*
X79072531Y-47296139D01*
X79168694Y-47152221D01*
X79234932Y-46992307D01*
X79268700Y-46822544D01*
X79268700Y-46649456D01*
X79234932Y-46479693D01*
X79168694Y-46319779D01*
X79089499Y-46201256D01*
X79072532Y-46175862D01*
X78950137Y-46053467D01*
X78806225Y-45957308D01*
X78806217Y-45957304D01*
X78646309Y-45891068D01*
X78533131Y-45868556D01*
X78476544Y-45857300D01*
X78303456Y-45857300D01*
X78261015Y-45865742D01*
X78133690Y-45891068D01*
X77973782Y-45957304D01*
X77973774Y-45957308D01*
X77829862Y-46053467D01*
X77829861Y-46053469D01*
X77707469Y-46175861D01*
X77707467Y-46175862D01*
X77611308Y-46319774D01*
X77611304Y-46319782D01*
X77545068Y-46479690D01*
X77511300Y-46649456D01*
X77268700Y-46649456D01*
X77234932Y-46479693D01*
X77168694Y-46319779D01*
X77089499Y-46201256D01*
X77072532Y-46175862D01*
X76950137Y-46053467D01*
X76806225Y-45957308D01*
X76806217Y-45957304D01*
X76646309Y-45891068D01*
X76533131Y-45868556D01*
X76476544Y-45857300D01*
X76303456Y-45857300D01*
X76261015Y-45865742D01*
X76133690Y-45891068D01*
X75973782Y-45957304D01*
X75973774Y-45957308D01*
X75829862Y-46053467D01*
X75829861Y-46053469D01*
X75707469Y-46175861D01*
X75707467Y-46175862D01*
X75611308Y-46319774D01*
X75611304Y-46319782D01*
X75545068Y-46479690D01*
X75511300Y-46649456D01*
X75268700Y-46649456D01*
X75234932Y-46479693D01*
X75168694Y-46319779D01*
X75089499Y-46201256D01*
X75072532Y-46175862D01*
X74950137Y-46053467D01*
X74806225Y-45957308D01*
X74806217Y-45957304D01*
X74646309Y-45891068D01*
X74533131Y-45868556D01*
X74476544Y-45857300D01*
X74303456Y-45857300D01*
X74261015Y-45865742D01*
X74133690Y-45891068D01*
X73973782Y-45957304D01*
X73973774Y-45957308D01*
X73829862Y-46053467D01*
X73829861Y-46053469D01*
X73707469Y-46175861D01*
X73707467Y-46175862D01*
X73611308Y-46319774D01*
X73611304Y-46319782D01*
X73545068Y-46479690D01*
X73511300Y-46649456D01*
X73268700Y-46649456D01*
X73268700Y-46040936D01*
X73256881Y-45981520D01*
X73211860Y-45914140D01*
X73144480Y-45869119D01*
X73144479Y-45869118D01*
X73096882Y-45859650D01*
X73085064Y-45857300D01*
X71694936Y-45857300D01*
X71685078Y-45859260D01*
X71635520Y-45869118D01*
X71568140Y-45914140D01*
X71523118Y-45981520D01*
X71511300Y-46040936D01*
X71239500Y-46040936D01*
X71239500Y-42484936D01*
X71511300Y-42484936D01*
X71511300Y-43875063D01*
X71523118Y-43934479D01*
X71523119Y-43934480D01*
X71568140Y-44001860D01*
X71635520Y-44046881D01*
X71694936Y-44058700D01*
X71694937Y-44058700D01*
X73085063Y-44058700D01*
X73085064Y-44058700D01*
X73144480Y-44046881D01*
X73211860Y-44001860D01*
X73256881Y-43934480D01*
X73268700Y-43875064D01*
X73268700Y-42484936D01*
X73256881Y-42425520D01*
X73211860Y-42358140D01*
X73144480Y-42313119D01*
X73144479Y-42313118D01*
X73096882Y-42303650D01*
X73085064Y-42301300D01*
X71694936Y-42301300D01*
X71685078Y-42303260D01*
X71635520Y-42313118D01*
X71568140Y-42358140D01*
X71523118Y-42425520D01*
X71511300Y-42484936D01*
X71239500Y-42484936D01*
X71239500Y-40930000D01*
X71544322Y-40930000D01*
X72074314Y-40930000D01*
X72069920Y-40934394D01*
X72017259Y-41025606D01*
X71990000Y-41127339D01*
X71990000Y-41232661D01*
X72017259Y-41334394D01*
X72069920Y-41425606D01*
X72074314Y-41430000D01*
X71544323Y-41430000D01*
X71545547Y-41436155D01*
X71545551Y-41436169D01*
X71611746Y-41595978D01*
X71611746Y-41595979D01*
X71707856Y-41739818D01*
X71830181Y-41862143D01*
X71974016Y-41958251D01*
X72133840Y-42024450D01*
X72133844Y-42024451D01*
X72140000Y-42025676D01*
X72140000Y-41495686D01*
X72144394Y-41500080D01*
X72235606Y-41552741D01*
X72337339Y-41580000D01*
X72442661Y-41580000D01*
X72544394Y-41552741D01*
X72635606Y-41500080D01*
X72640000Y-41495686D01*
X72640000Y-42025675D01*
X72646155Y-42024451D01*
X72646159Y-42024450D01*
X72805983Y-41958251D01*
X72949818Y-41862143D01*
X72949820Y-41862142D01*
X73072142Y-41739820D01*
X73072143Y-41739818D01*
X73168253Y-41595979D01*
X73168253Y-41595978D01*
X73234448Y-41436169D01*
X73234452Y-41436155D01*
X73235677Y-41430000D01*
X72705686Y-41430000D01*
X72710080Y-41425606D01*
X72762741Y-41334394D01*
X72790000Y-41232661D01*
X72790000Y-41127339D01*
X72762741Y-41025606D01*
X72710080Y-40934394D01*
X72705686Y-40930000D01*
X73235677Y-40930000D01*
X73234452Y-40923844D01*
X73234448Y-40923830D01*
X73168253Y-40764021D01*
X73168253Y-40764020D01*
X73072143Y-40620181D01*
X72949818Y-40497856D01*
X72805979Y-40401746D01*
X72646169Y-40335551D01*
X72646155Y-40335547D01*
X72640000Y-40334322D01*
X72640000Y-40864314D01*
X72635606Y-40859920D01*
X72544394Y-40807259D01*
X72442661Y-40780000D01*
X72337339Y-40780000D01*
X72235606Y-40807259D01*
X72144394Y-40859920D01*
X72140000Y-40864314D01*
X72140000Y-40334322D01*
X72133844Y-40335547D01*
X72133830Y-40335551D01*
X71974021Y-40401746D01*
X71974020Y-40401746D01*
X71830181Y-40497856D01*
X71830180Y-40497858D01*
X71707858Y-40620180D01*
X71707856Y-40620181D01*
X71611746Y-40764020D01*
X71611746Y-40764021D01*
X71545551Y-40923830D01*
X71545547Y-40923844D01*
X71544322Y-40930000D01*
X71239500Y-40930000D01*
X71239500Y-39374946D01*
X71239984Y-39365085D01*
X71253315Y-39229735D01*
X71257163Y-39210394D01*
X71295199Y-39085005D01*
X71302743Y-39066790D01*
X71364515Y-38951223D01*
X71375463Y-38934837D01*
X71458597Y-38833537D01*
X71472537Y-38819597D01*
X71573837Y-38736463D01*
X71590223Y-38725515D01*
X71705790Y-38663743D01*
X71724002Y-38656200D01*
X71849394Y-38618163D01*
X71868733Y-38614315D01*
X72004086Y-38600984D01*
X72013947Y-38600500D01*
X72074892Y-38600500D01*
X76421870Y-38600500D01*
X76481001Y-38619713D01*
G37*
%TD.AperFunction*%
%TA.AperFunction,Conductor*%
G36*
X114812914Y-38600984D02*
G01*
X114948264Y-38614315D01*
X114967605Y-38618163D01*
X115092994Y-38656199D01*
X115111213Y-38663745D01*
X115226771Y-38725512D01*
X115243167Y-38736467D01*
X115344459Y-38819595D01*
X115358404Y-38833540D01*
X115441532Y-38934832D01*
X115452488Y-38951230D01*
X115514253Y-39066785D01*
X115521800Y-39085005D01*
X115559836Y-39210394D01*
X115563683Y-39229735D01*
X115577015Y-39365085D01*
X115577500Y-39374946D01*
X115577500Y-48636053D01*
X115577015Y-48645914D01*
X115563683Y-48781264D01*
X115559836Y-48800605D01*
X115521800Y-48925994D01*
X115514253Y-48944214D01*
X115452488Y-49059769D01*
X115441532Y-49076167D01*
X115384498Y-49145663D01*
X115332134Y-49179183D01*
X115270067Y-49175523D01*
X115222006Y-49136080D01*
X115206307Y-49075921D01*
X115213789Y-49043349D01*
X115234932Y-48992307D01*
X115268700Y-48822544D01*
X115268700Y-48649456D01*
X115234932Y-48479693D01*
X115168694Y-48319779D01*
X115080093Y-48187179D01*
X115072532Y-48175862D01*
X114950137Y-48053467D01*
X114806225Y-47957308D01*
X114806217Y-47957304D01*
X114646309Y-47891068D01*
X114532302Y-47868391D01*
X114476544Y-47857300D01*
X114303456Y-47857300D01*
X114261015Y-47865742D01*
X114133690Y-47891068D01*
X113973782Y-47957304D01*
X113973774Y-47957308D01*
X113829862Y-48053467D01*
X113829861Y-48053469D01*
X113707469Y-48175861D01*
X113707467Y-48175862D01*
X113611308Y-48319774D01*
X113611304Y-48319782D01*
X113545068Y-48479690D01*
X113511300Y-48649456D01*
X113511300Y-48822543D01*
X113545068Y-48992309D01*
X113611304Y-49152217D01*
X113611308Y-49152225D01*
X113679319Y-49254010D01*
X113696195Y-49313849D01*
X113674676Y-49372181D01*
X113622980Y-49406723D01*
X113595673Y-49410500D01*
X113184327Y-49410500D01*
X113125196Y-49391287D01*
X113088651Y-49340987D01*
X113088651Y-49278813D01*
X113100681Y-49254010D01*
X113146712Y-49185119D01*
X113168694Y-49152221D01*
X113234932Y-48992307D01*
X113268700Y-48822544D01*
X113268700Y-48649456D01*
X113234932Y-48479693D01*
X113168694Y-48319779D01*
X113080093Y-48187179D01*
X113072532Y-48175862D01*
X112950137Y-48053467D01*
X112806225Y-47957308D01*
X112806217Y-47957304D01*
X112646309Y-47891068D01*
X112532302Y-47868391D01*
X112476544Y-47857300D01*
X112303456Y-47857300D01*
X112261015Y-47865742D01*
X112133690Y-47891068D01*
X111973782Y-47957304D01*
X111973774Y-47957308D01*
X111829862Y-48053467D01*
X111829861Y-48053469D01*
X111707469Y-48175861D01*
X111707467Y-48175862D01*
X111611308Y-48319774D01*
X111611304Y-48319782D01*
X111545068Y-48479690D01*
X111511300Y-48649456D01*
X111511300Y-48822543D01*
X111545068Y-48992309D01*
X111611304Y-49152217D01*
X111611308Y-49152225D01*
X111679319Y-49254010D01*
X111696195Y-49313849D01*
X111674676Y-49372181D01*
X111622980Y-49406723D01*
X111595673Y-49410500D01*
X111183725Y-49410500D01*
X111124594Y-49391287D01*
X111088049Y-49340987D01*
X111088049Y-49278813D01*
X111100079Y-49254010D01*
X111168253Y-49151979D01*
X111168253Y-49151978D01*
X111234448Y-48992169D01*
X111234452Y-48992155D01*
X111235677Y-48986000D01*
X110705686Y-48986000D01*
X110710080Y-48981606D01*
X110762741Y-48890394D01*
X110790000Y-48788661D01*
X110790000Y-48683339D01*
X110762741Y-48581606D01*
X110710080Y-48490394D01*
X110705686Y-48486000D01*
X111235677Y-48486000D01*
X111234452Y-48479844D01*
X111234448Y-48479830D01*
X111168253Y-48320021D01*
X111168253Y-48320020D01*
X111072143Y-48176181D01*
X110949818Y-48053856D01*
X110805979Y-47957746D01*
X110646169Y-47891551D01*
X110646155Y-47891547D01*
X110640000Y-47890322D01*
X110640000Y-48420314D01*
X110635606Y-48415920D01*
X110544394Y-48363259D01*
X110442661Y-48336000D01*
X110337339Y-48336000D01*
X110235606Y-48363259D01*
X110144394Y-48415920D01*
X110140000Y-48420314D01*
X110140000Y-47890322D01*
X110133844Y-47891547D01*
X110133830Y-47891551D01*
X109974021Y-47957746D01*
X109974020Y-47957746D01*
X109830181Y-48053856D01*
X109830180Y-48053858D01*
X109707858Y-48176180D01*
X109707856Y-48176181D01*
X109611746Y-48320020D01*
X109611746Y-48320021D01*
X109545551Y-48479830D01*
X109545547Y-48479844D01*
X109544322Y-48486000D01*
X110074314Y-48486000D01*
X110069920Y-48490394D01*
X110017259Y-48581606D01*
X109990000Y-48683339D01*
X109990000Y-48788661D01*
X110017259Y-48890394D01*
X110069920Y-48981606D01*
X110074314Y-48986000D01*
X109544323Y-48986000D01*
X109545547Y-48992155D01*
X109545551Y-48992169D01*
X109611746Y-49151978D01*
X109611746Y-49151979D01*
X109679921Y-49254010D01*
X109696797Y-49313850D01*
X109675278Y-49372181D01*
X109623582Y-49406723D01*
X109596275Y-49410500D01*
X109184327Y-49410500D01*
X109125196Y-49391287D01*
X109088651Y-49340987D01*
X109088651Y-49278813D01*
X109100681Y-49254010D01*
X109146712Y-49185119D01*
X109168694Y-49152221D01*
X109234932Y-48992307D01*
X109268700Y-48822544D01*
X109268700Y-48649456D01*
X109234932Y-48479693D01*
X109168694Y-48319779D01*
X109080093Y-48187179D01*
X109072532Y-48175862D01*
X108950137Y-48053467D01*
X108806225Y-47957308D01*
X108806217Y-47957304D01*
X108646309Y-47891068D01*
X108532302Y-47868391D01*
X108476544Y-47857300D01*
X108303456Y-47857300D01*
X108261015Y-47865742D01*
X108133690Y-47891068D01*
X107973782Y-47957304D01*
X107973774Y-47957308D01*
X107829862Y-48053467D01*
X107829861Y-48053469D01*
X107707469Y-48175861D01*
X107707467Y-48175862D01*
X107611308Y-48319774D01*
X107611304Y-48319782D01*
X107545068Y-48479690D01*
X107511300Y-48649456D01*
X107511300Y-48822543D01*
X107545068Y-48992309D01*
X107611304Y-49152217D01*
X107611308Y-49152225D01*
X107679319Y-49254010D01*
X107696195Y-49313849D01*
X107674676Y-49372181D01*
X107622980Y-49406723D01*
X107595673Y-49410500D01*
X107184327Y-49410500D01*
X107125196Y-49391287D01*
X107088651Y-49340987D01*
X107088651Y-49278813D01*
X107100681Y-49254010D01*
X107146712Y-49185119D01*
X107168694Y-49152221D01*
X107234932Y-48992307D01*
X107268700Y-48822544D01*
X107268700Y-48649456D01*
X107234932Y-48479693D01*
X107168694Y-48319779D01*
X107080093Y-48187179D01*
X107072532Y-48175862D01*
X106950137Y-48053467D01*
X106806225Y-47957308D01*
X106806217Y-47957304D01*
X106646309Y-47891068D01*
X106532302Y-47868391D01*
X106476544Y-47857300D01*
X106303456Y-47857300D01*
X106261015Y-47865742D01*
X106133690Y-47891068D01*
X105973782Y-47957304D01*
X105973774Y-47957308D01*
X105829862Y-48053467D01*
X105829861Y-48053469D01*
X105707469Y-48175861D01*
X105707467Y-48175862D01*
X105611308Y-48319774D01*
X105611304Y-48319782D01*
X105545068Y-48479690D01*
X105511300Y-48649456D01*
X105511300Y-48822543D01*
X105545068Y-48992309D01*
X105611304Y-49152217D01*
X105611308Y-49152225D01*
X105679319Y-49254010D01*
X105696195Y-49313849D01*
X105674676Y-49372181D01*
X105622980Y-49406723D01*
X105595673Y-49410500D01*
X105184327Y-49410500D01*
X105125196Y-49391287D01*
X105088651Y-49340987D01*
X105088651Y-49278813D01*
X105100681Y-49254010D01*
X105146712Y-49185119D01*
X105168694Y-49152221D01*
X105234932Y-48992307D01*
X105268700Y-48822544D01*
X105268700Y-48649456D01*
X105234932Y-48479693D01*
X105168694Y-48319779D01*
X105080093Y-48187179D01*
X105072532Y-48175862D01*
X104950137Y-48053467D01*
X104806225Y-47957308D01*
X104806217Y-47957304D01*
X104646309Y-47891068D01*
X104532302Y-47868391D01*
X104476544Y-47857300D01*
X104303456Y-47857300D01*
X104261015Y-47865742D01*
X104133690Y-47891068D01*
X103973782Y-47957304D01*
X103973774Y-47957308D01*
X103829862Y-48053467D01*
X103829861Y-48053469D01*
X103707469Y-48175861D01*
X103707467Y-48175862D01*
X103611308Y-48319774D01*
X103611304Y-48319782D01*
X103545068Y-48479690D01*
X103511300Y-48649456D01*
X103511300Y-48822543D01*
X103545068Y-48992309D01*
X103611304Y-49152217D01*
X103611308Y-49152225D01*
X103679319Y-49254010D01*
X103696195Y-49313849D01*
X103674676Y-49372181D01*
X103622980Y-49406723D01*
X103595673Y-49410500D01*
X103184327Y-49410500D01*
X103125196Y-49391287D01*
X103088651Y-49340987D01*
X103088651Y-49278813D01*
X103100681Y-49254010D01*
X103146712Y-49185119D01*
X103168694Y-49152221D01*
X103234932Y-48992307D01*
X103268700Y-48822544D01*
X103268700Y-48649456D01*
X103234932Y-48479693D01*
X103168694Y-48319779D01*
X103080093Y-48187179D01*
X103072532Y-48175862D01*
X102950137Y-48053467D01*
X102806225Y-47957308D01*
X102806217Y-47957304D01*
X102646309Y-47891068D01*
X102532302Y-47868391D01*
X102476544Y-47857300D01*
X102303456Y-47857300D01*
X102261015Y-47865742D01*
X102133690Y-47891068D01*
X101973782Y-47957304D01*
X101973774Y-47957308D01*
X101829862Y-48053467D01*
X101829861Y-48053469D01*
X101707469Y-48175861D01*
X101707467Y-48175862D01*
X101611308Y-48319774D01*
X101611304Y-48319782D01*
X101545068Y-48479690D01*
X101511300Y-48649456D01*
X101511300Y-48822543D01*
X101545068Y-48992309D01*
X101611304Y-49152217D01*
X101611308Y-49152225D01*
X101679319Y-49254010D01*
X101696195Y-49313849D01*
X101674676Y-49372181D01*
X101622980Y-49406723D01*
X101595673Y-49410500D01*
X101183725Y-49410500D01*
X101124594Y-49391287D01*
X101088049Y-49340987D01*
X101088049Y-49278813D01*
X101100079Y-49254010D01*
X101168253Y-49151979D01*
X101168253Y-49151978D01*
X101234448Y-48992169D01*
X101234452Y-48992155D01*
X101235677Y-48986000D01*
X100705686Y-48986000D01*
X100710080Y-48981606D01*
X100762741Y-48890394D01*
X100790000Y-48788661D01*
X100790000Y-48683339D01*
X100762741Y-48581606D01*
X100710080Y-48490394D01*
X100705686Y-48486000D01*
X101235677Y-48486000D01*
X101234452Y-48479844D01*
X101234448Y-48479830D01*
X101168253Y-48320021D01*
X101168253Y-48320020D01*
X101072143Y-48176181D01*
X100949818Y-48053856D01*
X100805979Y-47957746D01*
X100646169Y-47891551D01*
X100646155Y-47891547D01*
X100640000Y-47890322D01*
X100640000Y-48420314D01*
X100635606Y-48415920D01*
X100544394Y-48363259D01*
X100442661Y-48336000D01*
X100337339Y-48336000D01*
X100235606Y-48363259D01*
X100144394Y-48415920D01*
X100140000Y-48420314D01*
X100140000Y-47890322D01*
X100133844Y-47891547D01*
X100133830Y-47891551D01*
X99974021Y-47957746D01*
X99974020Y-47957746D01*
X99830181Y-48053856D01*
X99830180Y-48053858D01*
X99707858Y-48176180D01*
X99707856Y-48176181D01*
X99611746Y-48320020D01*
X99611746Y-48320021D01*
X99545551Y-48479830D01*
X99545547Y-48479844D01*
X99544322Y-48486000D01*
X100074314Y-48486000D01*
X100069920Y-48490394D01*
X100017259Y-48581606D01*
X99990000Y-48683339D01*
X99990000Y-48788661D01*
X100017259Y-48890394D01*
X100069920Y-48981606D01*
X100074314Y-48986000D01*
X99544323Y-48986000D01*
X99545547Y-48992155D01*
X99545551Y-48992169D01*
X99611746Y-49151978D01*
X99611746Y-49151979D01*
X99679921Y-49254010D01*
X99696797Y-49313850D01*
X99675278Y-49372181D01*
X99623582Y-49406723D01*
X99596275Y-49410500D01*
X99184327Y-49410500D01*
X99125196Y-49391287D01*
X99088651Y-49340987D01*
X99088651Y-49278813D01*
X99100681Y-49254010D01*
X99146712Y-49185119D01*
X99168694Y-49152221D01*
X99234932Y-48992307D01*
X99268700Y-48822544D01*
X99268700Y-48649456D01*
X99234932Y-48479693D01*
X99168694Y-48319779D01*
X99080093Y-48187179D01*
X99072532Y-48175862D01*
X98950137Y-48053467D01*
X98806225Y-47957308D01*
X98806217Y-47957304D01*
X98646309Y-47891068D01*
X98532302Y-47868391D01*
X98476544Y-47857300D01*
X98303456Y-47857300D01*
X98261015Y-47865742D01*
X98133690Y-47891068D01*
X97973782Y-47957304D01*
X97973774Y-47957308D01*
X97829862Y-48053467D01*
X97829861Y-48053469D01*
X97707469Y-48175861D01*
X97707467Y-48175862D01*
X97611308Y-48319774D01*
X97611304Y-48319782D01*
X97545068Y-48479690D01*
X97511300Y-48649456D01*
X97511300Y-48822543D01*
X97545068Y-48992309D01*
X97611304Y-49152217D01*
X97611308Y-49152225D01*
X97679319Y-49254010D01*
X97696195Y-49313849D01*
X97674676Y-49372181D01*
X97622980Y-49406723D01*
X97595673Y-49410500D01*
X97183725Y-49410500D01*
X97124594Y-49391287D01*
X97088049Y-49340987D01*
X97088049Y-49278813D01*
X97100079Y-49254010D01*
X97168253Y-49151979D01*
X97168253Y-49151978D01*
X97234448Y-48992169D01*
X97234452Y-48992155D01*
X97235677Y-48986000D01*
X96705686Y-48986000D01*
X96710080Y-48981606D01*
X96762741Y-48890394D01*
X96790000Y-48788661D01*
X96790000Y-48683339D01*
X96762741Y-48581606D01*
X96710080Y-48490394D01*
X96705686Y-48486000D01*
X97235677Y-48486000D01*
X97234452Y-48479844D01*
X97234448Y-48479830D01*
X97168253Y-48320021D01*
X97168253Y-48320020D01*
X97072143Y-48176181D01*
X96949818Y-48053856D01*
X96805979Y-47957746D01*
X96646169Y-47891551D01*
X96646155Y-47891547D01*
X96640000Y-47890322D01*
X96640000Y-48420314D01*
X96635606Y-48415920D01*
X96544394Y-48363259D01*
X96442661Y-48336000D01*
X96337339Y-48336000D01*
X96235606Y-48363259D01*
X96144394Y-48415920D01*
X96140000Y-48420314D01*
X96140000Y-47890322D01*
X96133844Y-47891547D01*
X96133830Y-47891551D01*
X95974021Y-47957746D01*
X95974020Y-47957746D01*
X95830181Y-48053856D01*
X95830180Y-48053858D01*
X95707858Y-48176180D01*
X95707856Y-48176181D01*
X95611746Y-48320020D01*
X95611746Y-48320021D01*
X95545551Y-48479830D01*
X95545547Y-48479844D01*
X95544322Y-48486000D01*
X96074314Y-48486000D01*
X96069920Y-48490394D01*
X96017259Y-48581606D01*
X95990000Y-48683339D01*
X95990000Y-48788661D01*
X96017259Y-48890394D01*
X96069920Y-48981606D01*
X96074314Y-48986000D01*
X95544323Y-48986000D01*
X95545547Y-48992155D01*
X95545551Y-48992169D01*
X95611746Y-49151978D01*
X95611746Y-49151979D01*
X95679921Y-49254010D01*
X95696797Y-49313850D01*
X95675278Y-49372181D01*
X95623582Y-49406723D01*
X95596275Y-49410500D01*
X95183725Y-49410500D01*
X95124594Y-49391287D01*
X95088049Y-49340987D01*
X95088049Y-49278813D01*
X95100079Y-49254010D01*
X95168253Y-49151979D01*
X95168253Y-49151978D01*
X95234448Y-48992169D01*
X95234452Y-48992155D01*
X95235677Y-48986000D01*
X94705686Y-48986000D01*
X94710080Y-48981606D01*
X94762741Y-48890394D01*
X94790000Y-48788661D01*
X94790000Y-48683339D01*
X94762741Y-48581606D01*
X94710080Y-48490394D01*
X94705686Y-48486000D01*
X95235677Y-48486000D01*
X95234452Y-48479844D01*
X95234448Y-48479830D01*
X95168253Y-48320021D01*
X95168253Y-48320020D01*
X95072143Y-48176181D01*
X94949818Y-48053856D01*
X94805979Y-47957746D01*
X94646169Y-47891551D01*
X94646155Y-47891547D01*
X94640000Y-47890322D01*
X94640000Y-48420314D01*
X94635606Y-48415920D01*
X94544394Y-48363259D01*
X94442661Y-48336000D01*
X94337339Y-48336000D01*
X94235606Y-48363259D01*
X94144394Y-48415920D01*
X94140000Y-48420314D01*
X94140000Y-47890322D01*
X94133844Y-47891547D01*
X94133830Y-47891551D01*
X93974021Y-47957746D01*
X93974020Y-47957746D01*
X93830181Y-48053856D01*
X93830180Y-48053858D01*
X93707858Y-48176180D01*
X93707856Y-48176181D01*
X93611746Y-48320020D01*
X93611746Y-48320021D01*
X93545551Y-48479830D01*
X93545547Y-48479844D01*
X93544322Y-48486000D01*
X94074314Y-48486000D01*
X94069920Y-48490394D01*
X94017259Y-48581606D01*
X93990000Y-48683339D01*
X93990000Y-48788661D01*
X94017259Y-48890394D01*
X94069920Y-48981606D01*
X94074314Y-48986000D01*
X93544323Y-48986000D01*
X93545547Y-48992155D01*
X93545551Y-48992169D01*
X93611746Y-49151978D01*
X93611746Y-49151979D01*
X93679921Y-49254010D01*
X93696797Y-49313850D01*
X93675278Y-49372181D01*
X93623582Y-49406723D01*
X93596275Y-49410500D01*
X93183725Y-49410500D01*
X93124594Y-49391287D01*
X93088049Y-49340987D01*
X93088049Y-49278813D01*
X93100079Y-49254010D01*
X93168253Y-49151979D01*
X93168253Y-49151978D01*
X93234448Y-48992169D01*
X93234452Y-48992155D01*
X93235677Y-48986000D01*
X92705686Y-48986000D01*
X92710080Y-48981606D01*
X92762741Y-48890394D01*
X92790000Y-48788661D01*
X92790000Y-48683339D01*
X92762741Y-48581606D01*
X92710080Y-48490394D01*
X92705686Y-48486000D01*
X93235677Y-48486000D01*
X93234452Y-48479844D01*
X93234448Y-48479830D01*
X93168253Y-48320021D01*
X93168253Y-48320020D01*
X93072143Y-48176181D01*
X92949818Y-48053856D01*
X92805979Y-47957746D01*
X92646169Y-47891551D01*
X92646155Y-47891547D01*
X92640000Y-47890322D01*
X92640000Y-48420314D01*
X92635606Y-48415920D01*
X92544394Y-48363259D01*
X92442661Y-48336000D01*
X92337339Y-48336000D01*
X92235606Y-48363259D01*
X92144394Y-48415920D01*
X92140000Y-48420314D01*
X92140000Y-47890322D01*
X92133844Y-47891547D01*
X92133830Y-47891551D01*
X91974021Y-47957746D01*
X91974020Y-47957746D01*
X91830181Y-48053856D01*
X91830180Y-48053858D01*
X91707858Y-48176180D01*
X91707856Y-48176181D01*
X91611746Y-48320020D01*
X91611746Y-48320021D01*
X91545551Y-48479830D01*
X91545547Y-48479844D01*
X91544322Y-48486000D01*
X92074314Y-48486000D01*
X92069920Y-48490394D01*
X92017259Y-48581606D01*
X91990000Y-48683339D01*
X91990000Y-48788661D01*
X92017259Y-48890394D01*
X92069920Y-48981606D01*
X92074314Y-48986000D01*
X91544323Y-48986000D01*
X91545547Y-48992155D01*
X91545551Y-48992169D01*
X91611746Y-49151978D01*
X91611746Y-49151979D01*
X91679921Y-49254010D01*
X91696797Y-49313850D01*
X91675278Y-49372181D01*
X91623582Y-49406723D01*
X91596275Y-49410500D01*
X91184327Y-49410500D01*
X91125196Y-49391287D01*
X91088651Y-49340987D01*
X91088651Y-49278813D01*
X91100681Y-49254010D01*
X91146712Y-49185119D01*
X91168694Y-49152221D01*
X91234932Y-48992307D01*
X91268700Y-48822544D01*
X91268700Y-48649456D01*
X91234932Y-48479693D01*
X91168694Y-48319779D01*
X91080093Y-48187179D01*
X91072532Y-48175862D01*
X90950137Y-48053467D01*
X90806225Y-47957308D01*
X90806217Y-47957304D01*
X90646309Y-47891068D01*
X90532302Y-47868391D01*
X90476544Y-47857300D01*
X90303456Y-47857300D01*
X90261015Y-47865742D01*
X90133690Y-47891068D01*
X89973782Y-47957304D01*
X89973774Y-47957308D01*
X89829862Y-48053467D01*
X89829861Y-48053469D01*
X89707469Y-48175861D01*
X89707467Y-48175862D01*
X89611308Y-48319774D01*
X89611304Y-48319782D01*
X89545068Y-48479690D01*
X89511300Y-48649456D01*
X89511300Y-48822543D01*
X89545068Y-48992309D01*
X89611304Y-49152217D01*
X89611308Y-49152225D01*
X89679319Y-49254010D01*
X89696195Y-49313849D01*
X89674676Y-49372181D01*
X89622980Y-49406723D01*
X89595673Y-49410500D01*
X89184327Y-49410500D01*
X89125196Y-49391287D01*
X89088651Y-49340987D01*
X89088651Y-49278813D01*
X89100681Y-49254010D01*
X89146712Y-49185119D01*
X89168694Y-49152221D01*
X89234932Y-48992307D01*
X89268700Y-48822544D01*
X89268700Y-48649456D01*
X89234932Y-48479693D01*
X89224669Y-48454916D01*
X89219790Y-48392933D01*
X89246476Y-48345282D01*
X89415897Y-48175861D01*
X89652300Y-47939459D01*
X89692494Y-47869841D01*
X89699300Y-47844441D01*
X89713300Y-47792193D01*
X89713300Y-47528254D01*
X89732513Y-47469123D01*
X89782813Y-47432578D01*
X89844987Y-47432578D01*
X89869791Y-47444608D01*
X89974019Y-47514252D01*
X90133840Y-47580450D01*
X90133844Y-47580451D01*
X90140000Y-47581676D01*
X90140000Y-47051686D01*
X90144394Y-47056080D01*
X90235606Y-47108741D01*
X90337339Y-47136000D01*
X90442661Y-47136000D01*
X90544394Y-47108741D01*
X90635606Y-47056080D01*
X90640000Y-47051686D01*
X90640000Y-47581676D01*
X90646155Y-47580451D01*
X90646159Y-47580450D01*
X90805983Y-47514251D01*
X90949818Y-47418143D01*
X90949820Y-47418142D01*
X91072142Y-47295820D01*
X91072143Y-47295818D01*
X91168253Y-47151979D01*
X91168253Y-47151978D01*
X91234448Y-46992169D01*
X91234452Y-46992155D01*
X91235677Y-46986000D01*
X90705686Y-46986000D01*
X90710080Y-46981606D01*
X90762741Y-46890394D01*
X90790000Y-46788661D01*
X90790000Y-46683339D01*
X90780921Y-46649456D01*
X91511300Y-46649456D01*
X91511300Y-46822543D01*
X91545068Y-46992309D01*
X91611304Y-47152217D01*
X91611308Y-47152225D01*
X91707467Y-47296137D01*
X91829862Y-47418532D01*
X91973774Y-47514691D01*
X91973776Y-47514692D01*
X91973779Y-47514694D01*
X91997325Y-47524447D01*
X92133690Y-47580931D01*
X92133691Y-47580931D01*
X92133693Y-47580932D01*
X92303456Y-47614700D01*
X92303457Y-47614700D01*
X92476543Y-47614700D01*
X92476544Y-47614700D01*
X92646307Y-47580932D01*
X92806221Y-47514694D01*
X92950139Y-47418531D01*
X93072531Y-47296139D01*
X93168694Y-47152221D01*
X93234932Y-46992307D01*
X93268700Y-46822544D01*
X93268700Y-46649456D01*
X93511300Y-46649456D01*
X93511300Y-46822543D01*
X93545068Y-46992309D01*
X93611304Y-47152217D01*
X93611308Y-47152225D01*
X93707467Y-47296137D01*
X93829862Y-47418532D01*
X93973774Y-47514691D01*
X93973776Y-47514692D01*
X93973779Y-47514694D01*
X93997325Y-47524447D01*
X94133690Y-47580931D01*
X94133691Y-47580931D01*
X94133693Y-47580932D01*
X94303456Y-47614700D01*
X94303457Y-47614700D01*
X94476543Y-47614700D01*
X94476544Y-47614700D01*
X94646307Y-47580932D01*
X94806221Y-47514694D01*
X94950139Y-47418531D01*
X95072531Y-47296139D01*
X95168694Y-47152221D01*
X95234932Y-46992307D01*
X95268700Y-46822544D01*
X95268700Y-46649456D01*
X95511300Y-46649456D01*
X95511300Y-46822543D01*
X95545068Y-46992309D01*
X95611304Y-47152217D01*
X95611308Y-47152225D01*
X95707467Y-47296137D01*
X95829862Y-47418532D01*
X95973774Y-47514691D01*
X95973776Y-47514692D01*
X95973779Y-47514694D01*
X95997325Y-47524447D01*
X96133690Y-47580931D01*
X96133691Y-47580931D01*
X96133693Y-47580932D01*
X96303456Y-47614700D01*
X96303457Y-47614700D01*
X96476543Y-47614700D01*
X96476544Y-47614700D01*
X96646307Y-47580932D01*
X96806221Y-47514694D01*
X96950139Y-47418531D01*
X97072531Y-47296139D01*
X97168694Y-47152221D01*
X97234932Y-46992307D01*
X97268700Y-46822544D01*
X97268700Y-46649456D01*
X97511300Y-46649456D01*
X97511300Y-46822543D01*
X97545068Y-46992309D01*
X97611304Y-47152217D01*
X97611308Y-47152225D01*
X97707467Y-47296137D01*
X97829862Y-47418532D01*
X97973774Y-47514691D01*
X97973776Y-47514692D01*
X97973779Y-47514694D01*
X97997325Y-47524447D01*
X98133690Y-47580931D01*
X98133691Y-47580931D01*
X98133693Y-47580932D01*
X98303456Y-47614700D01*
X98303457Y-47614700D01*
X98476543Y-47614700D01*
X98476544Y-47614700D01*
X98646307Y-47580932D01*
X98806221Y-47514694D01*
X98950139Y-47418531D01*
X99072531Y-47296139D01*
X99168694Y-47152221D01*
X99234932Y-46992307D01*
X99268700Y-46822544D01*
X99268700Y-46649456D01*
X99511300Y-46649456D01*
X99511300Y-46822543D01*
X99545068Y-46992309D01*
X99611304Y-47152217D01*
X99611308Y-47152225D01*
X99707467Y-47296137D01*
X99829862Y-47418532D01*
X99973774Y-47514691D01*
X99973776Y-47514692D01*
X99973779Y-47514694D01*
X99997325Y-47524447D01*
X100133690Y-47580931D01*
X100133691Y-47580931D01*
X100133693Y-47580932D01*
X100303456Y-47614700D01*
X100303457Y-47614700D01*
X100476543Y-47614700D01*
X100476544Y-47614700D01*
X100646307Y-47580932D01*
X100806221Y-47514694D01*
X100950139Y-47418531D01*
X101072531Y-47296139D01*
X101168694Y-47152221D01*
X101234932Y-46992307D01*
X101268700Y-46822544D01*
X101268700Y-46649456D01*
X101511300Y-46649456D01*
X101511300Y-46822543D01*
X101545068Y-46992309D01*
X101611304Y-47152217D01*
X101611308Y-47152225D01*
X101707467Y-47296137D01*
X101829862Y-47418532D01*
X101973774Y-47514691D01*
X101973776Y-47514692D01*
X101973779Y-47514694D01*
X101997325Y-47524447D01*
X102133690Y-47580931D01*
X102133691Y-47580931D01*
X102133693Y-47580932D01*
X102303456Y-47614700D01*
X102303457Y-47614700D01*
X102476543Y-47614700D01*
X102476544Y-47614700D01*
X102646307Y-47580932D01*
X102806221Y-47514694D01*
X102950139Y-47418531D01*
X103072531Y-47296139D01*
X103168694Y-47152221D01*
X103234932Y-46992307D01*
X103268700Y-46822544D01*
X103268700Y-46649456D01*
X103511300Y-46649456D01*
X103511300Y-46822543D01*
X103545068Y-46992309D01*
X103611304Y-47152217D01*
X103611308Y-47152225D01*
X103707467Y-47296137D01*
X103829862Y-47418532D01*
X103973774Y-47514691D01*
X103973776Y-47514692D01*
X103973779Y-47514694D01*
X103997325Y-47524447D01*
X104133690Y-47580931D01*
X104133691Y-47580931D01*
X104133693Y-47580932D01*
X104303456Y-47614700D01*
X104303457Y-47614700D01*
X104476543Y-47614700D01*
X104476544Y-47614700D01*
X104646307Y-47580932D01*
X104806221Y-47514694D01*
X104950139Y-47418531D01*
X105072531Y-47296139D01*
X105168694Y-47152221D01*
X105234932Y-46992307D01*
X105268700Y-46822544D01*
X105268700Y-46649456D01*
X105511300Y-46649456D01*
X105511300Y-46822543D01*
X105545068Y-46992309D01*
X105611304Y-47152217D01*
X105611308Y-47152225D01*
X105707467Y-47296137D01*
X105829862Y-47418532D01*
X105973774Y-47514691D01*
X105973776Y-47514692D01*
X105973779Y-47514694D01*
X105997325Y-47524447D01*
X106133690Y-47580931D01*
X106133691Y-47580931D01*
X106133693Y-47580932D01*
X106303456Y-47614700D01*
X106303457Y-47614700D01*
X106476543Y-47614700D01*
X106476544Y-47614700D01*
X106646307Y-47580932D01*
X106806221Y-47514694D01*
X106950139Y-47418531D01*
X107072531Y-47296139D01*
X107168694Y-47152221D01*
X107234932Y-46992307D01*
X107268700Y-46822544D01*
X107268700Y-46649456D01*
X107511300Y-46649456D01*
X107511300Y-46822543D01*
X107545068Y-46992309D01*
X107611304Y-47152217D01*
X107611308Y-47152225D01*
X107707467Y-47296137D01*
X107829862Y-47418532D01*
X107973774Y-47514691D01*
X107973776Y-47514692D01*
X107973779Y-47514694D01*
X107997325Y-47524447D01*
X108133690Y-47580931D01*
X108133691Y-47580931D01*
X108133693Y-47580932D01*
X108303456Y-47614700D01*
X108303457Y-47614700D01*
X108476543Y-47614700D01*
X108476544Y-47614700D01*
X108646307Y-47580932D01*
X108806221Y-47514694D01*
X108950139Y-47418531D01*
X109072531Y-47296139D01*
X109168694Y-47152221D01*
X109234932Y-46992307D01*
X109268700Y-46822544D01*
X109268700Y-46649456D01*
X109511300Y-46649456D01*
X109511300Y-46822543D01*
X109545068Y-46992309D01*
X109611304Y-47152217D01*
X109611308Y-47152225D01*
X109707467Y-47296137D01*
X109829862Y-47418532D01*
X109973774Y-47514691D01*
X109973776Y-47514692D01*
X109973779Y-47514694D01*
X109997325Y-47524447D01*
X110133690Y-47580931D01*
X110133691Y-47580931D01*
X110133693Y-47580932D01*
X110303456Y-47614700D01*
X110303457Y-47614700D01*
X110476543Y-47614700D01*
X110476544Y-47614700D01*
X110646307Y-47580932D01*
X110806221Y-47514694D01*
X110950139Y-47418531D01*
X111072531Y-47296139D01*
X111168694Y-47152221D01*
X111234932Y-46992307D01*
X111268700Y-46822544D01*
X111268700Y-46649456D01*
X111511300Y-46649456D01*
X111511300Y-46822543D01*
X111545068Y-46992309D01*
X111611304Y-47152217D01*
X111611308Y-47152225D01*
X111707467Y-47296137D01*
X111829862Y-47418532D01*
X111973774Y-47514691D01*
X111973776Y-47514692D01*
X111973779Y-47514694D01*
X111997325Y-47524447D01*
X112133690Y-47580931D01*
X112133691Y-47580931D01*
X112133693Y-47580932D01*
X112303456Y-47614700D01*
X112303457Y-47614700D01*
X112476543Y-47614700D01*
X112476544Y-47614700D01*
X112646307Y-47580932D01*
X112806221Y-47514694D01*
X112950139Y-47418531D01*
X113072531Y-47296139D01*
X113168694Y-47152221D01*
X113234932Y-46992307D01*
X113268700Y-46822544D01*
X113268700Y-46649456D01*
X113236187Y-46486000D01*
X113544322Y-46486000D01*
X114074314Y-46486000D01*
X114069920Y-46490394D01*
X114017259Y-46581606D01*
X113990000Y-46683339D01*
X113990000Y-46788661D01*
X114017259Y-46890394D01*
X114069920Y-46981606D01*
X114074314Y-46986000D01*
X113544323Y-46986000D01*
X113545547Y-46992155D01*
X113545551Y-46992169D01*
X113611746Y-47151978D01*
X113611746Y-47151979D01*
X113707856Y-47295818D01*
X113830181Y-47418143D01*
X113974016Y-47514251D01*
X114133840Y-47580450D01*
X114133844Y-47580451D01*
X114140000Y-47581676D01*
X114140000Y-47051686D01*
X114144394Y-47056080D01*
X114235606Y-47108741D01*
X114337339Y-47136000D01*
X114442661Y-47136000D01*
X114544394Y-47108741D01*
X114635606Y-47056080D01*
X114640000Y-47051686D01*
X114640000Y-47581676D01*
X114646155Y-47580451D01*
X114646159Y-47580450D01*
X114805983Y-47514251D01*
X114949818Y-47418143D01*
X114949820Y-47418142D01*
X115072142Y-47295820D01*
X115072143Y-47295818D01*
X115168253Y-47151979D01*
X115168253Y-47151978D01*
X115234448Y-46992169D01*
X115234452Y-46992155D01*
X115235677Y-46986000D01*
X114705686Y-46986000D01*
X114710080Y-46981606D01*
X114762741Y-46890394D01*
X114790000Y-46788661D01*
X114790000Y-46683339D01*
X114762741Y-46581606D01*
X114710080Y-46490394D01*
X114705686Y-46486000D01*
X115235677Y-46486000D01*
X115234452Y-46479844D01*
X115234448Y-46479830D01*
X115168253Y-46320021D01*
X115168253Y-46320020D01*
X115072143Y-46176181D01*
X114949818Y-46053856D01*
X114805979Y-45957746D01*
X114646169Y-45891551D01*
X114646155Y-45891547D01*
X114640000Y-45890322D01*
X114640000Y-46420314D01*
X114635606Y-46415920D01*
X114544394Y-46363259D01*
X114442661Y-46336000D01*
X114337339Y-46336000D01*
X114235606Y-46363259D01*
X114144394Y-46415920D01*
X114140000Y-46420314D01*
X114140000Y-45890322D01*
X114133844Y-45891547D01*
X114133830Y-45891551D01*
X113974021Y-45957746D01*
X113974020Y-45957746D01*
X113830181Y-46053856D01*
X113830180Y-46053858D01*
X113707858Y-46176180D01*
X113707856Y-46176181D01*
X113611746Y-46320020D01*
X113611746Y-46320021D01*
X113545551Y-46479830D01*
X113545547Y-46479844D01*
X113544322Y-46486000D01*
X113236187Y-46486000D01*
X113234932Y-46479693D01*
X113168694Y-46319779D01*
X113089499Y-46201256D01*
X113072532Y-46175862D01*
X112950137Y-46053467D01*
X112806225Y-45957308D01*
X112806217Y-45957304D01*
X112646309Y-45891068D01*
X112533131Y-45868556D01*
X112476544Y-45857300D01*
X112303456Y-45857300D01*
X112261015Y-45865742D01*
X112133690Y-45891068D01*
X111973782Y-45957304D01*
X111973774Y-45957308D01*
X111829862Y-46053467D01*
X111829861Y-46053469D01*
X111707469Y-46175861D01*
X111707467Y-46175862D01*
X111611308Y-46319774D01*
X111611304Y-46319782D01*
X111545068Y-46479690D01*
X111511300Y-46649456D01*
X111268700Y-46649456D01*
X111234932Y-46479693D01*
X111168694Y-46319779D01*
X111089499Y-46201256D01*
X111072532Y-46175862D01*
X110950137Y-46053467D01*
X110806225Y-45957308D01*
X110806217Y-45957304D01*
X110646309Y-45891068D01*
X110533131Y-45868556D01*
X110476544Y-45857300D01*
X110303456Y-45857300D01*
X110261015Y-45865742D01*
X110133690Y-45891068D01*
X109973782Y-45957304D01*
X109973774Y-45957308D01*
X109829862Y-46053467D01*
X109829861Y-46053469D01*
X109707469Y-46175861D01*
X109707467Y-46175862D01*
X109611308Y-46319774D01*
X109611304Y-46319782D01*
X109545068Y-46479690D01*
X109511300Y-46649456D01*
X109268700Y-46649456D01*
X109234932Y-46479693D01*
X109168694Y-46319779D01*
X109089499Y-46201256D01*
X109072532Y-46175862D01*
X108950137Y-46053467D01*
X108806225Y-45957308D01*
X108806217Y-45957304D01*
X108646309Y-45891068D01*
X108533131Y-45868556D01*
X108476544Y-45857300D01*
X108303456Y-45857300D01*
X108261015Y-45865742D01*
X108133690Y-45891068D01*
X107973782Y-45957304D01*
X107973774Y-45957308D01*
X107829862Y-46053467D01*
X107829861Y-46053469D01*
X107707469Y-46175861D01*
X107707467Y-46175862D01*
X107611308Y-46319774D01*
X107611304Y-46319782D01*
X107545068Y-46479690D01*
X107511300Y-46649456D01*
X107268700Y-46649456D01*
X107234932Y-46479693D01*
X107168694Y-46319779D01*
X107089499Y-46201256D01*
X107072532Y-46175862D01*
X106950137Y-46053467D01*
X106806225Y-45957308D01*
X106806217Y-45957304D01*
X106646309Y-45891068D01*
X106533131Y-45868556D01*
X106476544Y-45857300D01*
X106303456Y-45857300D01*
X106261015Y-45865742D01*
X106133690Y-45891068D01*
X105973782Y-45957304D01*
X105973774Y-45957308D01*
X105829862Y-46053467D01*
X105829861Y-46053469D01*
X105707469Y-46175861D01*
X105707467Y-46175862D01*
X105611308Y-46319774D01*
X105611304Y-46319782D01*
X105545068Y-46479690D01*
X105511300Y-46649456D01*
X105268700Y-46649456D01*
X105234932Y-46479693D01*
X105168694Y-46319779D01*
X105089499Y-46201256D01*
X105072532Y-46175862D01*
X104950137Y-46053467D01*
X104806225Y-45957308D01*
X104806217Y-45957304D01*
X104646309Y-45891068D01*
X104533131Y-45868556D01*
X104476544Y-45857300D01*
X104303456Y-45857300D01*
X104261015Y-45865742D01*
X104133690Y-45891068D01*
X103973782Y-45957304D01*
X103973774Y-45957308D01*
X103829862Y-46053467D01*
X103829861Y-46053469D01*
X103707469Y-46175861D01*
X103707467Y-46175862D01*
X103611308Y-46319774D01*
X103611304Y-46319782D01*
X103545068Y-46479690D01*
X103511300Y-46649456D01*
X103268700Y-46649456D01*
X103234932Y-46479693D01*
X103168694Y-46319779D01*
X103089499Y-46201256D01*
X103072532Y-46175862D01*
X102950137Y-46053467D01*
X102806225Y-45957308D01*
X102806217Y-45957304D01*
X102646309Y-45891068D01*
X102533131Y-45868556D01*
X102476544Y-45857300D01*
X102303456Y-45857300D01*
X102261015Y-45865742D01*
X102133690Y-45891068D01*
X101973782Y-45957304D01*
X101973774Y-45957308D01*
X101829862Y-46053467D01*
X101829861Y-46053469D01*
X101707469Y-46175861D01*
X101707467Y-46175862D01*
X101611308Y-46319774D01*
X101611304Y-46319782D01*
X101545068Y-46479690D01*
X101511300Y-46649456D01*
X101268700Y-46649456D01*
X101234932Y-46479693D01*
X101168694Y-46319779D01*
X101089499Y-46201256D01*
X101072532Y-46175862D01*
X100950137Y-46053467D01*
X100806225Y-45957308D01*
X100806217Y-45957304D01*
X100646309Y-45891068D01*
X100533131Y-45868556D01*
X100476544Y-45857300D01*
X100303456Y-45857300D01*
X100261015Y-45865742D01*
X100133690Y-45891068D01*
X99973782Y-45957304D01*
X99973774Y-45957308D01*
X99829862Y-46053467D01*
X99829861Y-46053469D01*
X99707469Y-46175861D01*
X99707467Y-46175862D01*
X99611308Y-46319774D01*
X99611304Y-46319782D01*
X99545068Y-46479690D01*
X99511300Y-46649456D01*
X99268700Y-46649456D01*
X99234932Y-46479693D01*
X99168694Y-46319779D01*
X99089499Y-46201256D01*
X99072532Y-46175862D01*
X98950137Y-46053467D01*
X98806225Y-45957308D01*
X98806217Y-45957304D01*
X98646309Y-45891068D01*
X98533131Y-45868556D01*
X98476544Y-45857300D01*
X98303456Y-45857300D01*
X98261015Y-45865742D01*
X98133690Y-45891068D01*
X97973782Y-45957304D01*
X97973774Y-45957308D01*
X97829862Y-46053467D01*
X97829861Y-46053469D01*
X97707469Y-46175861D01*
X97707467Y-46175862D01*
X97611308Y-46319774D01*
X97611304Y-46319782D01*
X97545068Y-46479690D01*
X97511300Y-46649456D01*
X97268700Y-46649456D01*
X97234932Y-46479693D01*
X97168694Y-46319779D01*
X97089499Y-46201256D01*
X97072532Y-46175862D01*
X96950137Y-46053467D01*
X96806225Y-45957308D01*
X96806217Y-45957304D01*
X96646309Y-45891068D01*
X96533131Y-45868556D01*
X96476544Y-45857300D01*
X96303456Y-45857300D01*
X96261015Y-45865742D01*
X96133690Y-45891068D01*
X95973782Y-45957304D01*
X95973774Y-45957308D01*
X95829862Y-46053467D01*
X95829861Y-46053469D01*
X95707469Y-46175861D01*
X95707467Y-46175862D01*
X95611308Y-46319774D01*
X95611304Y-46319782D01*
X95545068Y-46479690D01*
X95511300Y-46649456D01*
X95268700Y-46649456D01*
X95234932Y-46479693D01*
X95168694Y-46319779D01*
X95089499Y-46201256D01*
X95072532Y-46175862D01*
X94950137Y-46053467D01*
X94806225Y-45957308D01*
X94806217Y-45957304D01*
X94646309Y-45891068D01*
X94533131Y-45868556D01*
X94476544Y-45857300D01*
X94303456Y-45857300D01*
X94261015Y-45865742D01*
X94133690Y-45891068D01*
X93973782Y-45957304D01*
X93973774Y-45957308D01*
X93829862Y-46053467D01*
X93829861Y-46053469D01*
X93707469Y-46175861D01*
X93707467Y-46175862D01*
X93611308Y-46319774D01*
X93611304Y-46319782D01*
X93545068Y-46479690D01*
X93511300Y-46649456D01*
X93268700Y-46649456D01*
X93234932Y-46479693D01*
X93168694Y-46319779D01*
X93089499Y-46201256D01*
X93072532Y-46175862D01*
X92950137Y-46053467D01*
X92806225Y-45957308D01*
X92806217Y-45957304D01*
X92646309Y-45891068D01*
X92533131Y-45868556D01*
X92476544Y-45857300D01*
X92303456Y-45857300D01*
X92261015Y-45865742D01*
X92133690Y-45891068D01*
X91973782Y-45957304D01*
X91973774Y-45957308D01*
X91829862Y-46053467D01*
X91829861Y-46053469D01*
X91707469Y-46175861D01*
X91707467Y-46175862D01*
X91611308Y-46319774D01*
X91611304Y-46319782D01*
X91545068Y-46479690D01*
X91511300Y-46649456D01*
X90780921Y-46649456D01*
X90762741Y-46581606D01*
X90710080Y-46490394D01*
X90705686Y-46486000D01*
X91235677Y-46486000D01*
X91234452Y-46479844D01*
X91234448Y-46479830D01*
X91168253Y-46320021D01*
X91168253Y-46320020D01*
X91072143Y-46176181D01*
X90949818Y-46053856D01*
X90805979Y-45957746D01*
X90646169Y-45891551D01*
X90646155Y-45891547D01*
X90640000Y-45890322D01*
X90640000Y-46420314D01*
X90635606Y-46415920D01*
X90544394Y-46363259D01*
X90442661Y-46336000D01*
X90337339Y-46336000D01*
X90235606Y-46363259D01*
X90144394Y-46415920D01*
X90140000Y-46420314D01*
X90140000Y-45890322D01*
X90133844Y-45891547D01*
X90133830Y-45891551D01*
X89974021Y-45957746D01*
X89974020Y-45957746D01*
X89869790Y-46027391D01*
X89809950Y-46044267D01*
X89751619Y-46022748D01*
X89717077Y-45971052D01*
X89713300Y-45943745D01*
X89713300Y-43972254D01*
X89732513Y-43913123D01*
X89782813Y-43876578D01*
X89844987Y-43876578D01*
X89869791Y-43888608D01*
X89974019Y-43958252D01*
X90133840Y-44024450D01*
X90133844Y-44024451D01*
X90140000Y-44025676D01*
X90140000Y-43495686D01*
X90144394Y-43500080D01*
X90235606Y-43552741D01*
X90337339Y-43580000D01*
X90442661Y-43580000D01*
X90544394Y-43552741D01*
X90635606Y-43500080D01*
X90640000Y-43495686D01*
X90640000Y-44025675D01*
X90646155Y-44024451D01*
X90646159Y-44024450D01*
X90805983Y-43958251D01*
X90949818Y-43862143D01*
X90949820Y-43862142D01*
X91072142Y-43739820D01*
X91072143Y-43739818D01*
X91168253Y-43595979D01*
X91168253Y-43595978D01*
X91234448Y-43436169D01*
X91234452Y-43436155D01*
X91235677Y-43430000D01*
X90705686Y-43430000D01*
X90710080Y-43425606D01*
X90762741Y-43334394D01*
X90790000Y-43232661D01*
X90790000Y-43127339D01*
X90780921Y-43093456D01*
X91511300Y-43093456D01*
X91511300Y-43266543D01*
X91545068Y-43436309D01*
X91611304Y-43596217D01*
X91611308Y-43596225D01*
X91707467Y-43740137D01*
X91829862Y-43862532D01*
X91973774Y-43958691D01*
X91973776Y-43958692D01*
X91973779Y-43958694D01*
X91997325Y-43968447D01*
X92133690Y-44024931D01*
X92133691Y-44024931D01*
X92133693Y-44024932D01*
X92303456Y-44058700D01*
X92303457Y-44058700D01*
X92476543Y-44058700D01*
X92476544Y-44058700D01*
X92646307Y-44024932D01*
X92806221Y-43958694D01*
X92950139Y-43862531D01*
X93072531Y-43740139D01*
X93168694Y-43596221D01*
X93234932Y-43436307D01*
X93268700Y-43266544D01*
X93268700Y-43093456D01*
X93511300Y-43093456D01*
X93511300Y-43266543D01*
X93545068Y-43436309D01*
X93611304Y-43596217D01*
X93611308Y-43596225D01*
X93707467Y-43740137D01*
X93829862Y-43862532D01*
X93973774Y-43958691D01*
X93973776Y-43958692D01*
X93973779Y-43958694D01*
X93997325Y-43968447D01*
X94133690Y-44024931D01*
X94133691Y-44024931D01*
X94133693Y-44024932D01*
X94303456Y-44058700D01*
X94303457Y-44058700D01*
X94476543Y-44058700D01*
X94476544Y-44058700D01*
X94646307Y-44024932D01*
X94806221Y-43958694D01*
X94950139Y-43862531D01*
X95072531Y-43740139D01*
X95168694Y-43596221D01*
X95234932Y-43436307D01*
X95268700Y-43266544D01*
X95268700Y-43093456D01*
X95511300Y-43093456D01*
X95511300Y-43266543D01*
X95545068Y-43436309D01*
X95611304Y-43596217D01*
X95611308Y-43596225D01*
X95707467Y-43740137D01*
X95829862Y-43862532D01*
X95973774Y-43958691D01*
X95973776Y-43958692D01*
X95973779Y-43958694D01*
X95997325Y-43968447D01*
X96133690Y-44024931D01*
X96133691Y-44024931D01*
X96133693Y-44024932D01*
X96303456Y-44058700D01*
X96303457Y-44058700D01*
X96476543Y-44058700D01*
X96476544Y-44058700D01*
X96646307Y-44024932D01*
X96806221Y-43958694D01*
X96950139Y-43862531D01*
X97072531Y-43740139D01*
X97168694Y-43596221D01*
X97234932Y-43436307D01*
X97268700Y-43266544D01*
X97268700Y-43093456D01*
X97511300Y-43093456D01*
X97511300Y-43266543D01*
X97545068Y-43436309D01*
X97611304Y-43596217D01*
X97611308Y-43596225D01*
X97707467Y-43740137D01*
X97829862Y-43862532D01*
X97973774Y-43958691D01*
X97973776Y-43958692D01*
X97973779Y-43958694D01*
X97997325Y-43968447D01*
X98133690Y-44024931D01*
X98133691Y-44024931D01*
X98133693Y-44024932D01*
X98303456Y-44058700D01*
X98303457Y-44058700D01*
X98476543Y-44058700D01*
X98476544Y-44058700D01*
X98646307Y-44024932D01*
X98806221Y-43958694D01*
X98950139Y-43862531D01*
X99072531Y-43740139D01*
X99168694Y-43596221D01*
X99234932Y-43436307D01*
X99268700Y-43266544D01*
X99268700Y-43093456D01*
X99511300Y-43093456D01*
X99511300Y-43266543D01*
X99545068Y-43436309D01*
X99611304Y-43596217D01*
X99611308Y-43596225D01*
X99707467Y-43740137D01*
X99829862Y-43862532D01*
X99973774Y-43958691D01*
X99973776Y-43958692D01*
X99973779Y-43958694D01*
X99997325Y-43968447D01*
X100133690Y-44024931D01*
X100133691Y-44024931D01*
X100133693Y-44024932D01*
X100303456Y-44058700D01*
X100303457Y-44058700D01*
X100476543Y-44058700D01*
X100476544Y-44058700D01*
X100646307Y-44024932D01*
X100806221Y-43958694D01*
X100950139Y-43862531D01*
X101072531Y-43740139D01*
X101168694Y-43596221D01*
X101234932Y-43436307D01*
X101268700Y-43266544D01*
X101268700Y-43093456D01*
X101511300Y-43093456D01*
X101511300Y-43266543D01*
X101545068Y-43436309D01*
X101611304Y-43596217D01*
X101611308Y-43596225D01*
X101707467Y-43740137D01*
X101829862Y-43862532D01*
X101973774Y-43958691D01*
X101973776Y-43958692D01*
X101973779Y-43958694D01*
X101997325Y-43968447D01*
X102133690Y-44024931D01*
X102133691Y-44024931D01*
X102133693Y-44024932D01*
X102303456Y-44058700D01*
X102303457Y-44058700D01*
X102476543Y-44058700D01*
X102476544Y-44058700D01*
X102646307Y-44024932D01*
X102806221Y-43958694D01*
X102950139Y-43862531D01*
X103072531Y-43740139D01*
X103168694Y-43596221D01*
X103234932Y-43436307D01*
X103268700Y-43266544D01*
X103268700Y-43093456D01*
X103511300Y-43093456D01*
X103511300Y-43266543D01*
X103545068Y-43436309D01*
X103611304Y-43596217D01*
X103611308Y-43596225D01*
X103707467Y-43740137D01*
X103829862Y-43862532D01*
X103973774Y-43958691D01*
X103973776Y-43958692D01*
X103973779Y-43958694D01*
X103997325Y-43968447D01*
X104133690Y-44024931D01*
X104133691Y-44024931D01*
X104133693Y-44024932D01*
X104303456Y-44058700D01*
X104303457Y-44058700D01*
X104476543Y-44058700D01*
X104476544Y-44058700D01*
X104646307Y-44024932D01*
X104806221Y-43958694D01*
X104950139Y-43862531D01*
X105072531Y-43740139D01*
X105168694Y-43596221D01*
X105234932Y-43436307D01*
X105268700Y-43266544D01*
X105268700Y-43093456D01*
X105511300Y-43093456D01*
X105511300Y-43266543D01*
X105545068Y-43436309D01*
X105611304Y-43596217D01*
X105611308Y-43596225D01*
X105707467Y-43740137D01*
X105829862Y-43862532D01*
X105973774Y-43958691D01*
X105973776Y-43958692D01*
X105973779Y-43958694D01*
X105997325Y-43968447D01*
X106133690Y-44024931D01*
X106133691Y-44024931D01*
X106133693Y-44024932D01*
X106303456Y-44058700D01*
X106303457Y-44058700D01*
X106476543Y-44058700D01*
X106476544Y-44058700D01*
X106646307Y-44024932D01*
X106806221Y-43958694D01*
X106950139Y-43862531D01*
X107072531Y-43740139D01*
X107168694Y-43596221D01*
X107234932Y-43436307D01*
X107268700Y-43266544D01*
X107268700Y-43093456D01*
X107511300Y-43093456D01*
X107511300Y-43266543D01*
X107545068Y-43436309D01*
X107611304Y-43596217D01*
X107611308Y-43596225D01*
X107707467Y-43740137D01*
X107829862Y-43862532D01*
X107973774Y-43958691D01*
X107973776Y-43958692D01*
X107973779Y-43958694D01*
X107997325Y-43968447D01*
X108133690Y-44024931D01*
X108133691Y-44024931D01*
X108133693Y-44024932D01*
X108303456Y-44058700D01*
X108303457Y-44058700D01*
X108476543Y-44058700D01*
X108476544Y-44058700D01*
X108646307Y-44024932D01*
X108806221Y-43958694D01*
X108950139Y-43862531D01*
X109072531Y-43740139D01*
X109168694Y-43596221D01*
X109234932Y-43436307D01*
X109268700Y-43266544D01*
X109268700Y-43093456D01*
X109511300Y-43093456D01*
X109511300Y-43266543D01*
X109545068Y-43436309D01*
X109611304Y-43596217D01*
X109611308Y-43596225D01*
X109707467Y-43740137D01*
X109829862Y-43862532D01*
X109973774Y-43958691D01*
X109973776Y-43958692D01*
X109973779Y-43958694D01*
X109997325Y-43968447D01*
X110133690Y-44024931D01*
X110133691Y-44024931D01*
X110133693Y-44024932D01*
X110303456Y-44058700D01*
X110303457Y-44058700D01*
X110476543Y-44058700D01*
X110476544Y-44058700D01*
X110646307Y-44024932D01*
X110806221Y-43958694D01*
X110950139Y-43862531D01*
X111072531Y-43740139D01*
X111168694Y-43596221D01*
X111234932Y-43436307D01*
X111268700Y-43266544D01*
X111268700Y-43093456D01*
X111511300Y-43093456D01*
X111511300Y-43266543D01*
X111545068Y-43436309D01*
X111611304Y-43596217D01*
X111611308Y-43596225D01*
X111707467Y-43740137D01*
X111829862Y-43862532D01*
X111973774Y-43958691D01*
X111973776Y-43958692D01*
X111973779Y-43958694D01*
X111997325Y-43968447D01*
X112133690Y-44024931D01*
X112133691Y-44024931D01*
X112133693Y-44024932D01*
X112303456Y-44058700D01*
X112303457Y-44058700D01*
X112476543Y-44058700D01*
X112476544Y-44058700D01*
X112646307Y-44024932D01*
X112806221Y-43958694D01*
X112950139Y-43862531D01*
X113072531Y-43740139D01*
X113168694Y-43596221D01*
X113234932Y-43436307D01*
X113268700Y-43266544D01*
X113268700Y-43093456D01*
X113236187Y-42930000D01*
X113544322Y-42930000D01*
X114074314Y-42930000D01*
X114069920Y-42934394D01*
X114017259Y-43025606D01*
X113990000Y-43127339D01*
X113990000Y-43232661D01*
X114017259Y-43334394D01*
X114069920Y-43425606D01*
X114074314Y-43430000D01*
X113544323Y-43430000D01*
X113545547Y-43436155D01*
X113545551Y-43436169D01*
X113611746Y-43595978D01*
X113611746Y-43595979D01*
X113707856Y-43739818D01*
X113830181Y-43862143D01*
X113974016Y-43958251D01*
X114133840Y-44024450D01*
X114133844Y-44024451D01*
X114140000Y-44025676D01*
X114140000Y-43495686D01*
X114144394Y-43500080D01*
X114235606Y-43552741D01*
X114337339Y-43580000D01*
X114442661Y-43580000D01*
X114544394Y-43552741D01*
X114635606Y-43500080D01*
X114640000Y-43495686D01*
X114640000Y-44025675D01*
X114646155Y-44024451D01*
X114646159Y-44024450D01*
X114805983Y-43958251D01*
X114949818Y-43862143D01*
X114949820Y-43862142D01*
X115072142Y-43739820D01*
X115072143Y-43739818D01*
X115168253Y-43595979D01*
X115168253Y-43595978D01*
X115234448Y-43436169D01*
X115234452Y-43436155D01*
X115235677Y-43430000D01*
X114705686Y-43430000D01*
X114710080Y-43425606D01*
X114762741Y-43334394D01*
X114790000Y-43232661D01*
X114790000Y-43127339D01*
X114762741Y-43025606D01*
X114710080Y-42934394D01*
X114705686Y-42930000D01*
X115235677Y-42930000D01*
X115234452Y-42923844D01*
X115234448Y-42923830D01*
X115168253Y-42764021D01*
X115168253Y-42764020D01*
X115072143Y-42620181D01*
X114949818Y-42497856D01*
X114805979Y-42401746D01*
X114646169Y-42335551D01*
X114646155Y-42335547D01*
X114640000Y-42334322D01*
X114640000Y-42864314D01*
X114635606Y-42859920D01*
X114544394Y-42807259D01*
X114442661Y-42780000D01*
X114337339Y-42780000D01*
X114235606Y-42807259D01*
X114144394Y-42859920D01*
X114140000Y-42864314D01*
X114140000Y-42334322D01*
X114133844Y-42335547D01*
X114133830Y-42335551D01*
X113974021Y-42401746D01*
X113974020Y-42401746D01*
X113830181Y-42497856D01*
X113830180Y-42497858D01*
X113707858Y-42620180D01*
X113707856Y-42620181D01*
X113611746Y-42764020D01*
X113611746Y-42764021D01*
X113545551Y-42923830D01*
X113545547Y-42923844D01*
X113544322Y-42930000D01*
X113236187Y-42930000D01*
X113234932Y-42923693D01*
X113168694Y-42763779D01*
X113089499Y-42645256D01*
X113072532Y-42619862D01*
X112950137Y-42497467D01*
X112806225Y-42401308D01*
X112806217Y-42401304D01*
X112646309Y-42335068D01*
X112533131Y-42312556D01*
X112476544Y-42301300D01*
X112303456Y-42301300D01*
X112261015Y-42309742D01*
X112133690Y-42335068D01*
X111973782Y-42401304D01*
X111973774Y-42401308D01*
X111829862Y-42497467D01*
X111829861Y-42497469D01*
X111707469Y-42619861D01*
X111707467Y-42619862D01*
X111611308Y-42763774D01*
X111611304Y-42763782D01*
X111545068Y-42923690D01*
X111511300Y-43093456D01*
X111268700Y-43093456D01*
X111234932Y-42923693D01*
X111168694Y-42763779D01*
X111089499Y-42645256D01*
X111072532Y-42619862D01*
X110950137Y-42497467D01*
X110806225Y-42401308D01*
X110806217Y-42401304D01*
X110646309Y-42335068D01*
X110533131Y-42312556D01*
X110476544Y-42301300D01*
X110303456Y-42301300D01*
X110261015Y-42309742D01*
X110133690Y-42335068D01*
X109973782Y-42401304D01*
X109973774Y-42401308D01*
X109829862Y-42497467D01*
X109829861Y-42497469D01*
X109707469Y-42619861D01*
X109707467Y-42619862D01*
X109611308Y-42763774D01*
X109611304Y-42763782D01*
X109545068Y-42923690D01*
X109511300Y-43093456D01*
X109268700Y-43093456D01*
X109234932Y-42923693D01*
X109168694Y-42763779D01*
X109089499Y-42645256D01*
X109072532Y-42619862D01*
X108950137Y-42497467D01*
X108806225Y-42401308D01*
X108806217Y-42401304D01*
X108646309Y-42335068D01*
X108533131Y-42312556D01*
X108476544Y-42301300D01*
X108303456Y-42301300D01*
X108261015Y-42309742D01*
X108133690Y-42335068D01*
X107973782Y-42401304D01*
X107973774Y-42401308D01*
X107829862Y-42497467D01*
X107829861Y-42497469D01*
X107707469Y-42619861D01*
X107707467Y-42619862D01*
X107611308Y-42763774D01*
X107611304Y-42763782D01*
X107545068Y-42923690D01*
X107511300Y-43093456D01*
X107268700Y-43093456D01*
X107234932Y-42923693D01*
X107168694Y-42763779D01*
X107089499Y-42645256D01*
X107072532Y-42619862D01*
X106950137Y-42497467D01*
X106806225Y-42401308D01*
X106806217Y-42401304D01*
X106646309Y-42335068D01*
X106533131Y-42312556D01*
X106476544Y-42301300D01*
X106303456Y-42301300D01*
X106261015Y-42309742D01*
X106133690Y-42335068D01*
X105973782Y-42401304D01*
X105973774Y-42401308D01*
X105829862Y-42497467D01*
X105829861Y-42497469D01*
X105707469Y-42619861D01*
X105707467Y-42619862D01*
X105611308Y-42763774D01*
X105611304Y-42763782D01*
X105545068Y-42923690D01*
X105511300Y-43093456D01*
X105268700Y-43093456D01*
X105234932Y-42923693D01*
X105168694Y-42763779D01*
X105089499Y-42645256D01*
X105072532Y-42619862D01*
X104950137Y-42497467D01*
X104806225Y-42401308D01*
X104806217Y-42401304D01*
X104646309Y-42335068D01*
X104533131Y-42312556D01*
X104476544Y-42301300D01*
X104303456Y-42301300D01*
X104261015Y-42309742D01*
X104133690Y-42335068D01*
X103973782Y-42401304D01*
X103973774Y-42401308D01*
X103829862Y-42497467D01*
X103829861Y-42497469D01*
X103707469Y-42619861D01*
X103707467Y-42619862D01*
X103611308Y-42763774D01*
X103611304Y-42763782D01*
X103545068Y-42923690D01*
X103511300Y-43093456D01*
X103268700Y-43093456D01*
X103234932Y-42923693D01*
X103168694Y-42763779D01*
X103089499Y-42645256D01*
X103072532Y-42619862D01*
X102950137Y-42497467D01*
X102806225Y-42401308D01*
X102806217Y-42401304D01*
X102646309Y-42335068D01*
X102533131Y-42312556D01*
X102476544Y-42301300D01*
X102303456Y-42301300D01*
X102261015Y-42309742D01*
X102133690Y-42335068D01*
X101973782Y-42401304D01*
X101973774Y-42401308D01*
X101829862Y-42497467D01*
X101829861Y-42497469D01*
X101707469Y-42619861D01*
X101707467Y-42619862D01*
X101611308Y-42763774D01*
X101611304Y-42763782D01*
X101545068Y-42923690D01*
X101511300Y-43093456D01*
X101268700Y-43093456D01*
X101234932Y-42923693D01*
X101168694Y-42763779D01*
X101089499Y-42645256D01*
X101072532Y-42619862D01*
X100950137Y-42497467D01*
X100806225Y-42401308D01*
X100806217Y-42401304D01*
X100646309Y-42335068D01*
X100533131Y-42312556D01*
X100476544Y-42301300D01*
X100303456Y-42301300D01*
X100261015Y-42309742D01*
X100133690Y-42335068D01*
X99973782Y-42401304D01*
X99973774Y-42401308D01*
X99829862Y-42497467D01*
X99829861Y-42497469D01*
X99707469Y-42619861D01*
X99707467Y-42619862D01*
X99611308Y-42763774D01*
X99611304Y-42763782D01*
X99545068Y-42923690D01*
X99511300Y-43093456D01*
X99268700Y-43093456D01*
X99234932Y-42923693D01*
X99168694Y-42763779D01*
X99089499Y-42645256D01*
X99072532Y-42619862D01*
X98950137Y-42497467D01*
X98806225Y-42401308D01*
X98806217Y-42401304D01*
X98646309Y-42335068D01*
X98533131Y-42312556D01*
X98476544Y-42301300D01*
X98303456Y-42301300D01*
X98261015Y-42309742D01*
X98133690Y-42335068D01*
X97973782Y-42401304D01*
X97973774Y-42401308D01*
X97829862Y-42497467D01*
X97829861Y-42497469D01*
X97707469Y-42619861D01*
X97707467Y-42619862D01*
X97611308Y-42763774D01*
X97611304Y-42763782D01*
X97545068Y-42923690D01*
X97511300Y-43093456D01*
X97268700Y-43093456D01*
X97234932Y-42923693D01*
X97168694Y-42763779D01*
X97089499Y-42645256D01*
X97072532Y-42619862D01*
X96950137Y-42497467D01*
X96806225Y-42401308D01*
X96806217Y-42401304D01*
X96646309Y-42335068D01*
X96533131Y-42312556D01*
X96476544Y-42301300D01*
X96303456Y-42301300D01*
X96261015Y-42309742D01*
X96133690Y-42335068D01*
X95973782Y-42401304D01*
X95973774Y-42401308D01*
X95829862Y-42497467D01*
X95829861Y-42497469D01*
X95707469Y-42619861D01*
X95707467Y-42619862D01*
X95611308Y-42763774D01*
X95611304Y-42763782D01*
X95545068Y-42923690D01*
X95511300Y-43093456D01*
X95268700Y-43093456D01*
X95234932Y-42923693D01*
X95168694Y-42763779D01*
X95089499Y-42645256D01*
X95072532Y-42619862D01*
X94950137Y-42497467D01*
X94806225Y-42401308D01*
X94806217Y-42401304D01*
X94646309Y-42335068D01*
X94533131Y-42312556D01*
X94476544Y-42301300D01*
X94303456Y-42301300D01*
X94261015Y-42309742D01*
X94133690Y-42335068D01*
X93973782Y-42401304D01*
X93973774Y-42401308D01*
X93829862Y-42497467D01*
X93829861Y-42497469D01*
X93707469Y-42619861D01*
X93707467Y-42619862D01*
X93611308Y-42763774D01*
X93611304Y-42763782D01*
X93545068Y-42923690D01*
X93511300Y-43093456D01*
X93268700Y-43093456D01*
X93234932Y-42923693D01*
X93168694Y-42763779D01*
X93089499Y-42645256D01*
X93072532Y-42619862D01*
X92950137Y-42497467D01*
X92806225Y-42401308D01*
X92806217Y-42401304D01*
X92646309Y-42335068D01*
X92533131Y-42312556D01*
X92476544Y-42301300D01*
X92303456Y-42301300D01*
X92261015Y-42309742D01*
X92133690Y-42335068D01*
X91973782Y-42401304D01*
X91973774Y-42401308D01*
X91829862Y-42497467D01*
X91829861Y-42497469D01*
X91707469Y-42619861D01*
X91707467Y-42619862D01*
X91611308Y-42763774D01*
X91611304Y-42763782D01*
X91545068Y-42923690D01*
X91511300Y-43093456D01*
X90780921Y-43093456D01*
X90762741Y-43025606D01*
X90710080Y-42934394D01*
X90705686Y-42930000D01*
X91235677Y-42930000D01*
X91234452Y-42923844D01*
X91234448Y-42923830D01*
X91168253Y-42764021D01*
X91168253Y-42764020D01*
X91072143Y-42620181D01*
X90949818Y-42497856D01*
X90805979Y-42401746D01*
X90646169Y-42335551D01*
X90646155Y-42335547D01*
X90640000Y-42334322D01*
X90640000Y-42864314D01*
X90635606Y-42859920D01*
X90544394Y-42807259D01*
X90442661Y-42780000D01*
X90337339Y-42780000D01*
X90235606Y-42807259D01*
X90144394Y-42859920D01*
X90140000Y-42864314D01*
X90140000Y-42334322D01*
X90133844Y-42335547D01*
X90133830Y-42335551D01*
X89974021Y-42401746D01*
X89974020Y-42401746D01*
X89869790Y-42471391D01*
X89809950Y-42488267D01*
X89751619Y-42466748D01*
X89717077Y-42415052D01*
X89713300Y-42387745D01*
X89713300Y-41972857D01*
X89732513Y-41913726D01*
X89782813Y-41877181D01*
X89844987Y-41877181D01*
X89869790Y-41889211D01*
X89973774Y-41958691D01*
X89973776Y-41958692D01*
X89973779Y-41958694D01*
X89995710Y-41967778D01*
X90133690Y-42024931D01*
X90133691Y-42024931D01*
X90133693Y-42024932D01*
X90303456Y-42058700D01*
X90303457Y-42058700D01*
X90476543Y-42058700D01*
X90476544Y-42058700D01*
X90646307Y-42024932D01*
X90806221Y-41958694D01*
X90950139Y-41862531D01*
X91072531Y-41740139D01*
X91168694Y-41596221D01*
X91234932Y-41436307D01*
X91268700Y-41266544D01*
X91268700Y-41093456D01*
X91236187Y-40930000D01*
X91544322Y-40930000D01*
X92074314Y-40930000D01*
X92069920Y-40934394D01*
X92017259Y-41025606D01*
X91990000Y-41127339D01*
X91990000Y-41232661D01*
X92017259Y-41334394D01*
X92069920Y-41425606D01*
X92074314Y-41430000D01*
X91544323Y-41430000D01*
X91545547Y-41436155D01*
X91545551Y-41436169D01*
X91611746Y-41595978D01*
X91611746Y-41595979D01*
X91707856Y-41739818D01*
X91830181Y-41862143D01*
X91974016Y-41958251D01*
X92133840Y-42024450D01*
X92133844Y-42024451D01*
X92140000Y-42025676D01*
X92140000Y-41495686D01*
X92144394Y-41500080D01*
X92235606Y-41552741D01*
X92337339Y-41580000D01*
X92442661Y-41580000D01*
X92544394Y-41552741D01*
X92635606Y-41500080D01*
X92640000Y-41495686D01*
X92640000Y-42025676D01*
X92646155Y-42024451D01*
X92646159Y-42024450D01*
X92805983Y-41958251D01*
X92949818Y-41862143D01*
X92949820Y-41862142D01*
X93072142Y-41739820D01*
X93072143Y-41739818D01*
X93168253Y-41595979D01*
X93168253Y-41595978D01*
X93234448Y-41436169D01*
X93234452Y-41436155D01*
X93235677Y-41430000D01*
X92705686Y-41430000D01*
X92710080Y-41425606D01*
X92762741Y-41334394D01*
X92790000Y-41232661D01*
X92790000Y-41127339D01*
X92762741Y-41025606D01*
X92710080Y-40934394D01*
X92705686Y-40930000D01*
X93235677Y-40930000D01*
X93544322Y-40930000D01*
X94074314Y-40930000D01*
X94069920Y-40934394D01*
X94017259Y-41025606D01*
X93990000Y-41127339D01*
X93990000Y-41232661D01*
X94017259Y-41334394D01*
X94069920Y-41425606D01*
X94074314Y-41430000D01*
X93544323Y-41430000D01*
X93545547Y-41436155D01*
X93545551Y-41436169D01*
X93611746Y-41595978D01*
X93611746Y-41595979D01*
X93707856Y-41739818D01*
X93830181Y-41862143D01*
X93974016Y-41958251D01*
X94133840Y-42024450D01*
X94133844Y-42024451D01*
X94140000Y-42025676D01*
X94140000Y-41495686D01*
X94144394Y-41500080D01*
X94235606Y-41552741D01*
X94337339Y-41580000D01*
X94442661Y-41580000D01*
X94544394Y-41552741D01*
X94635606Y-41500080D01*
X94640000Y-41495686D01*
X94640000Y-42025676D01*
X94646155Y-42024451D01*
X94646159Y-42024450D01*
X94805983Y-41958251D01*
X94949818Y-41862143D01*
X94949820Y-41862142D01*
X95072142Y-41739820D01*
X95072143Y-41739818D01*
X95168253Y-41595979D01*
X95168253Y-41595978D01*
X95234448Y-41436169D01*
X95234452Y-41436155D01*
X95235677Y-41430000D01*
X94705686Y-41430000D01*
X94710080Y-41425606D01*
X94762741Y-41334394D01*
X94790000Y-41232661D01*
X94790000Y-41127339D01*
X94762741Y-41025606D01*
X94710080Y-40934394D01*
X94705686Y-40930000D01*
X95235677Y-40930000D01*
X95544322Y-40930000D01*
X96074314Y-40930000D01*
X96069920Y-40934394D01*
X96017259Y-41025606D01*
X95990000Y-41127339D01*
X95990000Y-41232661D01*
X96017259Y-41334394D01*
X96069920Y-41425606D01*
X96074314Y-41430000D01*
X95544323Y-41430000D01*
X95545547Y-41436155D01*
X95545551Y-41436169D01*
X95611746Y-41595978D01*
X95611746Y-41595979D01*
X95707856Y-41739818D01*
X95830181Y-41862143D01*
X95974016Y-41958251D01*
X96133840Y-42024450D01*
X96133844Y-42024451D01*
X96140000Y-42025676D01*
X96140000Y-41495686D01*
X96144394Y-41500080D01*
X96235606Y-41552741D01*
X96337339Y-41580000D01*
X96442661Y-41580000D01*
X96544394Y-41552741D01*
X96635606Y-41500080D01*
X96640000Y-41495686D01*
X96640000Y-42025676D01*
X96646155Y-42024451D01*
X96646159Y-42024450D01*
X96805983Y-41958251D01*
X96949818Y-41862143D01*
X96949820Y-41862142D01*
X97072142Y-41739820D01*
X97072143Y-41739818D01*
X97168253Y-41595979D01*
X97168253Y-41595978D01*
X97234448Y-41436169D01*
X97234452Y-41436155D01*
X97235677Y-41430000D01*
X96705686Y-41430000D01*
X96710080Y-41425606D01*
X96762741Y-41334394D01*
X96790000Y-41232661D01*
X96790000Y-41127339D01*
X96780921Y-41093456D01*
X97511300Y-41093456D01*
X97511300Y-41266543D01*
X97545068Y-41436309D01*
X97611304Y-41596217D01*
X97611308Y-41596225D01*
X97707467Y-41740137D01*
X97829862Y-41862532D01*
X97973774Y-41958691D01*
X97973776Y-41958692D01*
X97973779Y-41958694D01*
X97995710Y-41967778D01*
X98133690Y-42024931D01*
X98133691Y-42024931D01*
X98133693Y-42024932D01*
X98303456Y-42058700D01*
X98303457Y-42058700D01*
X98476543Y-42058700D01*
X98476544Y-42058700D01*
X98646307Y-42024932D01*
X98806221Y-41958694D01*
X98950139Y-41862531D01*
X99072531Y-41740139D01*
X99168694Y-41596221D01*
X99234932Y-41436307D01*
X99268700Y-41266544D01*
X99268700Y-41093456D01*
X99236187Y-40930000D01*
X99544322Y-40930000D01*
X100074314Y-40930000D01*
X100069920Y-40934394D01*
X100017259Y-41025606D01*
X99990000Y-41127339D01*
X99990000Y-41232661D01*
X100017259Y-41334394D01*
X100069920Y-41425606D01*
X100074314Y-41430000D01*
X99544323Y-41430000D01*
X99545547Y-41436155D01*
X99545551Y-41436169D01*
X99611746Y-41595978D01*
X99611746Y-41595979D01*
X99707856Y-41739818D01*
X99830181Y-41862143D01*
X99974016Y-41958251D01*
X100133840Y-42024450D01*
X100133844Y-42024451D01*
X100140000Y-42025676D01*
X100140000Y-41495686D01*
X100144394Y-41500080D01*
X100235606Y-41552741D01*
X100337339Y-41580000D01*
X100442661Y-41580000D01*
X100544394Y-41552741D01*
X100635606Y-41500080D01*
X100640000Y-41495686D01*
X100640000Y-42025676D01*
X100646155Y-42024451D01*
X100646159Y-42024450D01*
X100805983Y-41958251D01*
X100949818Y-41862143D01*
X100949820Y-41862142D01*
X101072142Y-41739820D01*
X101072143Y-41739818D01*
X101168253Y-41595979D01*
X101168253Y-41595978D01*
X101234448Y-41436169D01*
X101234452Y-41436155D01*
X101235677Y-41430000D01*
X100705686Y-41430000D01*
X100710080Y-41425606D01*
X100762741Y-41334394D01*
X100790000Y-41232661D01*
X100790000Y-41127339D01*
X100780921Y-41093456D01*
X101511300Y-41093456D01*
X101511300Y-41266543D01*
X101545068Y-41436309D01*
X101611304Y-41596217D01*
X101611308Y-41596225D01*
X101707467Y-41740137D01*
X101829862Y-41862532D01*
X101973774Y-41958691D01*
X101973776Y-41958692D01*
X101973779Y-41958694D01*
X101995710Y-41967778D01*
X102133690Y-42024931D01*
X102133691Y-42024931D01*
X102133693Y-42024932D01*
X102303456Y-42058700D01*
X102303457Y-42058700D01*
X102476543Y-42058700D01*
X102476544Y-42058700D01*
X102646307Y-42024932D01*
X102806221Y-41958694D01*
X102950139Y-41862531D01*
X103072531Y-41740139D01*
X103168694Y-41596221D01*
X103234932Y-41436307D01*
X103268700Y-41266544D01*
X103268700Y-41093456D01*
X103511300Y-41093456D01*
X103511300Y-41266543D01*
X103545068Y-41436309D01*
X103611304Y-41596217D01*
X103611308Y-41596225D01*
X103707467Y-41740137D01*
X103829862Y-41862532D01*
X103973774Y-41958691D01*
X103973776Y-41958692D01*
X103973779Y-41958694D01*
X103995710Y-41967778D01*
X104133690Y-42024931D01*
X104133691Y-42024931D01*
X104133693Y-42024932D01*
X104303456Y-42058700D01*
X104303457Y-42058700D01*
X104476543Y-42058700D01*
X104476544Y-42058700D01*
X104646307Y-42024932D01*
X104806221Y-41958694D01*
X104950139Y-41862531D01*
X105072531Y-41740139D01*
X105168694Y-41596221D01*
X105234932Y-41436307D01*
X105268700Y-41266544D01*
X105268700Y-41093456D01*
X105511300Y-41093456D01*
X105511300Y-41266543D01*
X105545068Y-41436309D01*
X105611304Y-41596217D01*
X105611308Y-41596225D01*
X105707467Y-41740137D01*
X105829862Y-41862532D01*
X105973774Y-41958691D01*
X105973776Y-41958692D01*
X105973779Y-41958694D01*
X105995710Y-41967778D01*
X106133690Y-42024931D01*
X106133691Y-42024931D01*
X106133693Y-42024932D01*
X106303456Y-42058700D01*
X106303457Y-42058700D01*
X106476543Y-42058700D01*
X106476544Y-42058700D01*
X106646307Y-42024932D01*
X106806221Y-41958694D01*
X106950139Y-41862531D01*
X107072531Y-41740139D01*
X107168694Y-41596221D01*
X107234932Y-41436307D01*
X107268700Y-41266544D01*
X107268700Y-41093456D01*
X107511300Y-41093456D01*
X107511300Y-41266543D01*
X107545068Y-41436309D01*
X107611304Y-41596217D01*
X107611308Y-41596225D01*
X107707467Y-41740137D01*
X107829862Y-41862532D01*
X107973774Y-41958691D01*
X107973776Y-41958692D01*
X107973779Y-41958694D01*
X107995710Y-41967778D01*
X108133690Y-42024931D01*
X108133691Y-42024931D01*
X108133693Y-42024932D01*
X108303456Y-42058700D01*
X108303457Y-42058700D01*
X108476543Y-42058700D01*
X108476544Y-42058700D01*
X108646307Y-42024932D01*
X108806221Y-41958694D01*
X108950139Y-41862531D01*
X109072531Y-41740139D01*
X109168694Y-41596221D01*
X109234932Y-41436307D01*
X109268700Y-41266544D01*
X109268700Y-41093456D01*
X109236187Y-40930000D01*
X109544322Y-40930000D01*
X110074314Y-40930000D01*
X110069920Y-40934394D01*
X110017259Y-41025606D01*
X109990000Y-41127339D01*
X109990000Y-41232661D01*
X110017259Y-41334394D01*
X110069920Y-41425606D01*
X110074314Y-41430000D01*
X109544323Y-41430000D01*
X109545547Y-41436155D01*
X109545551Y-41436169D01*
X109611746Y-41595978D01*
X109611746Y-41595979D01*
X109707856Y-41739818D01*
X109830181Y-41862143D01*
X109974016Y-41958251D01*
X110133840Y-42024450D01*
X110133844Y-42024451D01*
X110140000Y-42025676D01*
X110140000Y-41495686D01*
X110144394Y-41500080D01*
X110235606Y-41552741D01*
X110337339Y-41580000D01*
X110442661Y-41580000D01*
X110544394Y-41552741D01*
X110635606Y-41500080D01*
X110640000Y-41495686D01*
X110640000Y-42025676D01*
X110646155Y-42024451D01*
X110646159Y-42024450D01*
X110805983Y-41958251D01*
X110949818Y-41862143D01*
X110949820Y-41862142D01*
X111072142Y-41739820D01*
X111072143Y-41739818D01*
X111168253Y-41595979D01*
X111168253Y-41595978D01*
X111234448Y-41436169D01*
X111234452Y-41436155D01*
X111235677Y-41430000D01*
X110705686Y-41430000D01*
X110710080Y-41425606D01*
X110762741Y-41334394D01*
X110790000Y-41232661D01*
X110790000Y-41127339D01*
X110780921Y-41093456D01*
X111511300Y-41093456D01*
X111511300Y-41266543D01*
X111545068Y-41436309D01*
X111611304Y-41596217D01*
X111611308Y-41596225D01*
X111707467Y-41740137D01*
X111829862Y-41862532D01*
X111973774Y-41958691D01*
X111973776Y-41958692D01*
X111973779Y-41958694D01*
X111995710Y-41967778D01*
X112133690Y-42024931D01*
X112133691Y-42024931D01*
X112133693Y-42024932D01*
X112303456Y-42058700D01*
X112303457Y-42058700D01*
X112476543Y-42058700D01*
X112476544Y-42058700D01*
X112646307Y-42024932D01*
X112806221Y-41958694D01*
X112950139Y-41862531D01*
X113072531Y-41740139D01*
X113168694Y-41596221D01*
X113234932Y-41436307D01*
X113268700Y-41266544D01*
X113268700Y-41093456D01*
X113511300Y-41093456D01*
X113511300Y-41266543D01*
X113545068Y-41436309D01*
X113611304Y-41596217D01*
X113611308Y-41596225D01*
X113707467Y-41740137D01*
X113829862Y-41862532D01*
X113973774Y-41958691D01*
X113973776Y-41958692D01*
X113973779Y-41958694D01*
X113995710Y-41967778D01*
X114133690Y-42024931D01*
X114133691Y-42024931D01*
X114133693Y-42024932D01*
X114303456Y-42058700D01*
X114303457Y-42058700D01*
X114476543Y-42058700D01*
X114476544Y-42058700D01*
X114646307Y-42024932D01*
X114806221Y-41958694D01*
X114950139Y-41862531D01*
X115072531Y-41740139D01*
X115168694Y-41596221D01*
X115234932Y-41436307D01*
X115268700Y-41266544D01*
X115268700Y-41093456D01*
X115234932Y-40923693D01*
X115168694Y-40763779D01*
X115095099Y-40653637D01*
X115072532Y-40619862D01*
X114950137Y-40497467D01*
X114806225Y-40401308D01*
X114806217Y-40401304D01*
X114646309Y-40335068D01*
X114519236Y-40309792D01*
X114476544Y-40301300D01*
X114303456Y-40301300D01*
X114261015Y-40309742D01*
X114133690Y-40335068D01*
X113973782Y-40401304D01*
X113973774Y-40401308D01*
X113829862Y-40497467D01*
X113829861Y-40497469D01*
X113707469Y-40619861D01*
X113707467Y-40619862D01*
X113611308Y-40763774D01*
X113611304Y-40763782D01*
X113545068Y-40923690D01*
X113511300Y-41093456D01*
X113268700Y-41093456D01*
X113234932Y-40923693D01*
X113168694Y-40763779D01*
X113095099Y-40653637D01*
X113072532Y-40619862D01*
X112950137Y-40497467D01*
X112806225Y-40401308D01*
X112806217Y-40401304D01*
X112646309Y-40335068D01*
X112519236Y-40309792D01*
X112476544Y-40301300D01*
X112303456Y-40301300D01*
X112261015Y-40309742D01*
X112133690Y-40335068D01*
X111973782Y-40401304D01*
X111973774Y-40401308D01*
X111829862Y-40497467D01*
X111829861Y-40497469D01*
X111707469Y-40619861D01*
X111707467Y-40619862D01*
X111611308Y-40763774D01*
X111611304Y-40763782D01*
X111545068Y-40923690D01*
X111511300Y-41093456D01*
X110780921Y-41093456D01*
X110762741Y-41025606D01*
X110710080Y-40934394D01*
X110705686Y-40930000D01*
X111235677Y-40930000D01*
X111234452Y-40923844D01*
X111234448Y-40923830D01*
X111168253Y-40764021D01*
X111168253Y-40764020D01*
X111072143Y-40620181D01*
X110949818Y-40497856D01*
X110805979Y-40401746D01*
X110646169Y-40335551D01*
X110646155Y-40335547D01*
X110640000Y-40334322D01*
X110640000Y-40864314D01*
X110635606Y-40859920D01*
X110544394Y-40807259D01*
X110442661Y-40780000D01*
X110337339Y-40780000D01*
X110235606Y-40807259D01*
X110144394Y-40859920D01*
X110140000Y-40864314D01*
X110140000Y-40334322D01*
X110133844Y-40335547D01*
X110133830Y-40335551D01*
X109974021Y-40401746D01*
X109974020Y-40401746D01*
X109830181Y-40497856D01*
X109830180Y-40497858D01*
X109707858Y-40620180D01*
X109707856Y-40620181D01*
X109611746Y-40764020D01*
X109611746Y-40764021D01*
X109545551Y-40923830D01*
X109545547Y-40923844D01*
X109544322Y-40930000D01*
X109236187Y-40930000D01*
X109234932Y-40923693D01*
X109168694Y-40763779D01*
X109095099Y-40653637D01*
X109072532Y-40619862D01*
X108950137Y-40497467D01*
X108806225Y-40401308D01*
X108806217Y-40401304D01*
X108646309Y-40335068D01*
X108519236Y-40309792D01*
X108476544Y-40301300D01*
X108303456Y-40301300D01*
X108261015Y-40309742D01*
X108133690Y-40335068D01*
X107973782Y-40401304D01*
X107973774Y-40401308D01*
X107829862Y-40497467D01*
X107829861Y-40497469D01*
X107707469Y-40619861D01*
X107707467Y-40619862D01*
X107611308Y-40763774D01*
X107611304Y-40763782D01*
X107545068Y-40923690D01*
X107511300Y-41093456D01*
X107268700Y-41093456D01*
X107234932Y-40923693D01*
X107168694Y-40763779D01*
X107095099Y-40653637D01*
X107072532Y-40619862D01*
X106950137Y-40497467D01*
X106806225Y-40401308D01*
X106806217Y-40401304D01*
X106646309Y-40335068D01*
X106519236Y-40309792D01*
X106476544Y-40301300D01*
X106303456Y-40301300D01*
X106261015Y-40309742D01*
X106133690Y-40335068D01*
X105973782Y-40401304D01*
X105973774Y-40401308D01*
X105829862Y-40497467D01*
X105829861Y-40497469D01*
X105707469Y-40619861D01*
X105707467Y-40619862D01*
X105611308Y-40763774D01*
X105611304Y-40763782D01*
X105545068Y-40923690D01*
X105511300Y-41093456D01*
X105268700Y-41093456D01*
X105234932Y-40923693D01*
X105168694Y-40763779D01*
X105095099Y-40653637D01*
X105072532Y-40619862D01*
X104950137Y-40497467D01*
X104806225Y-40401308D01*
X104806217Y-40401304D01*
X104646309Y-40335068D01*
X104519236Y-40309792D01*
X104476544Y-40301300D01*
X104303456Y-40301300D01*
X104261015Y-40309742D01*
X104133690Y-40335068D01*
X103973782Y-40401304D01*
X103973774Y-40401308D01*
X103829862Y-40497467D01*
X103829861Y-40497469D01*
X103707469Y-40619861D01*
X103707467Y-40619862D01*
X103611308Y-40763774D01*
X103611304Y-40763782D01*
X103545068Y-40923690D01*
X103511300Y-41093456D01*
X103268700Y-41093456D01*
X103234932Y-40923693D01*
X103168694Y-40763779D01*
X103095099Y-40653637D01*
X103072532Y-40619862D01*
X102950137Y-40497467D01*
X102806225Y-40401308D01*
X102806217Y-40401304D01*
X102646309Y-40335068D01*
X102519236Y-40309792D01*
X102476544Y-40301300D01*
X102303456Y-40301300D01*
X102261015Y-40309742D01*
X102133690Y-40335068D01*
X101973782Y-40401304D01*
X101973774Y-40401308D01*
X101829862Y-40497467D01*
X101829861Y-40497469D01*
X101707469Y-40619861D01*
X101707467Y-40619862D01*
X101611308Y-40763774D01*
X101611304Y-40763782D01*
X101545068Y-40923690D01*
X101511300Y-41093456D01*
X100780921Y-41093456D01*
X100762741Y-41025606D01*
X100710080Y-40934394D01*
X100705686Y-40930000D01*
X101235677Y-40930000D01*
X101234452Y-40923844D01*
X101234448Y-40923830D01*
X101168253Y-40764021D01*
X101168253Y-40764020D01*
X101072143Y-40620181D01*
X100949818Y-40497856D01*
X100805979Y-40401746D01*
X100646169Y-40335551D01*
X100646155Y-40335547D01*
X100640000Y-40334322D01*
X100640000Y-40864314D01*
X100635606Y-40859920D01*
X100544394Y-40807259D01*
X100442661Y-40780000D01*
X100337339Y-40780000D01*
X100235606Y-40807259D01*
X100144394Y-40859920D01*
X100140000Y-40864314D01*
X100140000Y-40334322D01*
X100133844Y-40335547D01*
X100133830Y-40335551D01*
X99974021Y-40401746D01*
X99974020Y-40401746D01*
X99830181Y-40497856D01*
X99830180Y-40497858D01*
X99707858Y-40620180D01*
X99707856Y-40620181D01*
X99611746Y-40764020D01*
X99611746Y-40764021D01*
X99545551Y-40923830D01*
X99545547Y-40923844D01*
X99544322Y-40930000D01*
X99236187Y-40930000D01*
X99234932Y-40923693D01*
X99168694Y-40763779D01*
X99095099Y-40653637D01*
X99072532Y-40619862D01*
X98950137Y-40497467D01*
X98806225Y-40401308D01*
X98806217Y-40401304D01*
X98646309Y-40335068D01*
X98519236Y-40309792D01*
X98476544Y-40301300D01*
X98303456Y-40301300D01*
X98261015Y-40309742D01*
X98133690Y-40335068D01*
X97973782Y-40401304D01*
X97973774Y-40401308D01*
X97829862Y-40497467D01*
X97829861Y-40497469D01*
X97707469Y-40619861D01*
X97707467Y-40619862D01*
X97611308Y-40763774D01*
X97611304Y-40763782D01*
X97545068Y-40923690D01*
X97511300Y-41093456D01*
X96780921Y-41093456D01*
X96762741Y-41025606D01*
X96710080Y-40934394D01*
X96705686Y-40930000D01*
X97235677Y-40930000D01*
X97234452Y-40923844D01*
X97234448Y-40923830D01*
X97168253Y-40764021D01*
X97168253Y-40764020D01*
X97072143Y-40620181D01*
X96949818Y-40497856D01*
X96805979Y-40401746D01*
X96646169Y-40335551D01*
X96646155Y-40335547D01*
X96640000Y-40334322D01*
X96640000Y-40864314D01*
X96635606Y-40859920D01*
X96544394Y-40807259D01*
X96442661Y-40780000D01*
X96337339Y-40780000D01*
X96235606Y-40807259D01*
X96144394Y-40859920D01*
X96140000Y-40864314D01*
X96140000Y-40334322D01*
X96133844Y-40335547D01*
X96133830Y-40335551D01*
X95974021Y-40401746D01*
X95974020Y-40401746D01*
X95830181Y-40497856D01*
X95830180Y-40497858D01*
X95707858Y-40620180D01*
X95707856Y-40620181D01*
X95611746Y-40764020D01*
X95611746Y-40764021D01*
X95545551Y-40923830D01*
X95545547Y-40923844D01*
X95544322Y-40930000D01*
X95235677Y-40930000D01*
X95234452Y-40923844D01*
X95234448Y-40923830D01*
X95168253Y-40764021D01*
X95168253Y-40764020D01*
X95072143Y-40620181D01*
X94949818Y-40497856D01*
X94805979Y-40401746D01*
X94646169Y-40335551D01*
X94646155Y-40335547D01*
X94640000Y-40334322D01*
X94640000Y-40864314D01*
X94635606Y-40859920D01*
X94544394Y-40807259D01*
X94442661Y-40780000D01*
X94337339Y-40780000D01*
X94235606Y-40807259D01*
X94144394Y-40859920D01*
X94140000Y-40864314D01*
X94140000Y-40334322D01*
X94133844Y-40335547D01*
X94133830Y-40335551D01*
X93974021Y-40401746D01*
X93974020Y-40401746D01*
X93830181Y-40497856D01*
X93830180Y-40497858D01*
X93707858Y-40620180D01*
X93707856Y-40620181D01*
X93611746Y-40764020D01*
X93611746Y-40764021D01*
X93545551Y-40923830D01*
X93545547Y-40923844D01*
X93544322Y-40930000D01*
X93235677Y-40930000D01*
X93234452Y-40923844D01*
X93234448Y-40923830D01*
X93168253Y-40764021D01*
X93168253Y-40764020D01*
X93072143Y-40620181D01*
X92949818Y-40497856D01*
X92805979Y-40401746D01*
X92646169Y-40335551D01*
X92646155Y-40335547D01*
X92640000Y-40334322D01*
X92640000Y-40864314D01*
X92635606Y-40859920D01*
X92544394Y-40807259D01*
X92442661Y-40780000D01*
X92337339Y-40780000D01*
X92235606Y-40807259D01*
X92144394Y-40859920D01*
X92140000Y-40864314D01*
X92140000Y-40334322D01*
X92133844Y-40335547D01*
X92133830Y-40335551D01*
X91974021Y-40401746D01*
X91974020Y-40401746D01*
X91830181Y-40497856D01*
X91830180Y-40497858D01*
X91707858Y-40620180D01*
X91707856Y-40620181D01*
X91611746Y-40764020D01*
X91611746Y-40764021D01*
X91545551Y-40923830D01*
X91545547Y-40923844D01*
X91544322Y-40930000D01*
X91236187Y-40930000D01*
X91234932Y-40923693D01*
X91168694Y-40763779D01*
X91095099Y-40653637D01*
X91072532Y-40619862D01*
X90950137Y-40497467D01*
X90806225Y-40401308D01*
X90806217Y-40401304D01*
X90646309Y-40335068D01*
X90519236Y-40309792D01*
X90476544Y-40301300D01*
X90303456Y-40301300D01*
X90261015Y-40309742D01*
X90133690Y-40335068D01*
X89973782Y-40401304D01*
X89973774Y-40401308D01*
X89869790Y-40470788D01*
X89809950Y-40487664D01*
X89751619Y-40466145D01*
X89717077Y-40414448D01*
X89713300Y-40387142D01*
X89713300Y-39888608D01*
X89713299Y-39888604D01*
X89692494Y-39810959D01*
X89692494Y-39810958D01*
X89652300Y-39741341D01*
X88683194Y-38772235D01*
X88654968Y-38716837D01*
X88664694Y-38655429D01*
X88708658Y-38611465D01*
X88754329Y-38600500D01*
X114742108Y-38600500D01*
X114803053Y-38600500D01*
X114812914Y-38600984D01*
G37*
%TD.AperFunction*%
%TA.AperFunction,Conductor*%
G36*
X89064381Y-43869799D02*
G01*
X89098923Y-43921495D01*
X89102700Y-43948802D01*
X89102700Y-45967197D01*
X89083487Y-46026328D01*
X89033187Y-46062873D01*
X88971013Y-46062873D01*
X88946210Y-46050843D01*
X88806225Y-45957308D01*
X88806217Y-45957304D01*
X88646309Y-45891068D01*
X88533131Y-45868556D01*
X88476544Y-45857300D01*
X88303456Y-45857300D01*
X88261015Y-45865742D01*
X88133690Y-45891068D01*
X87973782Y-45957304D01*
X87973774Y-45957308D01*
X87863190Y-46031198D01*
X87803350Y-46048074D01*
X87745019Y-46026555D01*
X87710477Y-45974858D01*
X87706700Y-45947552D01*
X87706700Y-43968447D01*
X87725913Y-43909316D01*
X87776213Y-43872771D01*
X87838387Y-43872771D01*
X87863190Y-43884801D01*
X87973774Y-43958691D01*
X87973776Y-43958692D01*
X87973779Y-43958694D01*
X87997325Y-43968447D01*
X88133690Y-44024931D01*
X88133691Y-44024931D01*
X88133693Y-44024932D01*
X88303456Y-44058700D01*
X88303457Y-44058700D01*
X88476543Y-44058700D01*
X88476544Y-44058700D01*
X88646307Y-44024932D01*
X88806221Y-43958694D01*
X88946211Y-43865155D01*
X89006049Y-43848280D01*
X89064381Y-43869799D01*
G37*
%TD.AperFunction*%
%TA.AperFunction,Conductor*%
G36*
X87057781Y-43874209D02*
G01*
X87092323Y-43925905D01*
X87096100Y-43953212D01*
X87096100Y-45962787D01*
X87076887Y-46021918D01*
X87026587Y-46058463D01*
X86964413Y-46058463D01*
X86939610Y-46046433D01*
X86806225Y-45957308D01*
X86806217Y-45957304D01*
X86646309Y-45891068D01*
X86533131Y-45868556D01*
X86476544Y-45857300D01*
X86303456Y-45857300D01*
X86261015Y-45865742D01*
X86133690Y-45891068D01*
X85973782Y-45957304D01*
X85973774Y-45957308D01*
X85856590Y-46035608D01*
X85796750Y-46052484D01*
X85738419Y-46030965D01*
X85703877Y-45979269D01*
X85700100Y-45951962D01*
X85700100Y-43964037D01*
X85719313Y-43904906D01*
X85769613Y-43868361D01*
X85831787Y-43868361D01*
X85856590Y-43880391D01*
X85973774Y-43958691D01*
X85973776Y-43958692D01*
X85973779Y-43958694D01*
X85997325Y-43968447D01*
X86133690Y-44024931D01*
X86133691Y-44024931D01*
X86133693Y-44024932D01*
X86303456Y-44058700D01*
X86303457Y-44058700D01*
X86476543Y-44058700D01*
X86476544Y-44058700D01*
X86646307Y-44024932D01*
X86806221Y-43958694D01*
X86939611Y-43869565D01*
X86999449Y-43852690D01*
X87057781Y-43874209D01*
G37*
%TD.AperFunction*%
M02*
