%TF.GenerationSoftware,KiCad,Pcbnew,9.0.0*%
%TF.CreationDate,2025-06-08T16:33:52+02:00*%
%TF.ProjectId,ideswap,69646573-7761-4702-9e6b-696361645f70,A0*%
%TF.SameCoordinates,Original*%
%TF.FileFunction,Copper,L4,Bot*%
%TF.FilePolarity,Positive*%
%FSLAX46Y46*%
G04 Gerber Fmt 4.6, Leading zero omitted, Abs format (unit mm)*
G04 Created by KiCad (PCBNEW 9.0.0) date 2025-06-08 16:33:52*
%MOMM*%
%LPD*%
G01*
G04 APERTURE LIST*
%TA.AperFunction,ComponentPad*%
%ADD10R,1.350000X1.350000*%
%TD*%
%TA.AperFunction,ComponentPad*%
%ADD11O,1.350000X1.350000*%
%TD*%
%TA.AperFunction,ViaPad*%
%ADD12C,0.600000*%
%TD*%
%TA.AperFunction,Conductor*%
%ADD13C,0.254000*%
%TD*%
%TA.AperFunction,Conductor*%
%ADD14C,0.203200*%
%TD*%
G04 APERTURE END LIST*
D10*
X72390000Y-43180000D03*
D11*
X72390000Y-41180000D03*
X74390000Y-43180000D03*
X74390000Y-41180000D03*
X76390000Y-43180000D03*
X76390000Y-41180000D03*
X78390000Y-43180000D03*
X78390000Y-41180000D03*
X80390000Y-43180000D03*
X80390000Y-41180000D03*
X82390000Y-43180000D03*
X82390000Y-41180000D03*
X84390000Y-43180000D03*
X84390000Y-41180000D03*
X86390000Y-43180000D03*
X86390000Y-41180000D03*
X88390000Y-43180000D03*
X88390000Y-41180000D03*
X90390000Y-43180000D03*
X90390000Y-41180000D03*
X92390000Y-43180000D03*
X92390000Y-41180000D03*
X94390000Y-43180000D03*
X94390000Y-41180000D03*
X96390000Y-43180000D03*
X96390000Y-41180000D03*
X98390000Y-43180000D03*
X98390000Y-41180000D03*
X100390000Y-43180000D03*
X100390000Y-41180000D03*
X102390000Y-43180000D03*
X102390000Y-41180000D03*
X104390000Y-43180000D03*
X104390000Y-41180000D03*
X106390000Y-43180000D03*
X106390000Y-41180000D03*
X108390000Y-43180000D03*
X108390000Y-41180000D03*
X110390000Y-43180000D03*
X110390000Y-41180000D03*
X112390000Y-43180000D03*
X112390000Y-41180000D03*
X114390000Y-43180000D03*
X114390000Y-41180000D03*
D10*
X72390000Y-46736000D03*
D11*
X72390000Y-48736000D03*
X74390000Y-46736000D03*
X74390000Y-48736000D03*
X76390000Y-46736000D03*
X76390000Y-48736000D03*
X78390000Y-46736000D03*
X78390000Y-48736000D03*
X80390000Y-46736000D03*
X80390000Y-48736000D03*
X82390000Y-46736000D03*
X82390000Y-48736000D03*
X84390000Y-46736000D03*
X84390000Y-48736000D03*
X86390000Y-46736000D03*
X86390000Y-48736000D03*
X88390000Y-46736000D03*
X88390000Y-48736000D03*
X90390000Y-46736000D03*
X90390000Y-48736000D03*
X92390000Y-46736000D03*
X92390000Y-48736000D03*
X94390000Y-46736000D03*
X94390000Y-48736000D03*
X96390000Y-46736000D03*
X96390000Y-48736000D03*
X98390000Y-46736000D03*
X98390000Y-48736000D03*
X100390000Y-46736000D03*
X100390000Y-48736000D03*
X102390000Y-46736000D03*
X102390000Y-48736000D03*
X104390000Y-46736000D03*
X104390000Y-48736000D03*
X106390000Y-46736000D03*
X106390000Y-48736000D03*
X108390000Y-46736000D03*
X108390000Y-48736000D03*
X110390000Y-46736000D03*
X110390000Y-48736000D03*
X112390000Y-46736000D03*
X112390000Y-48736000D03*
X114390000Y-46736000D03*
X114390000Y-48736000D03*
D12*
X109372400Y-45212000D03*
X114300000Y-45212000D03*
X83693000Y-45212000D03*
X90805000Y-45212000D03*
X74422000Y-45085000D03*
X95250000Y-45212000D03*
X86360000Y-45212000D03*
X76454000Y-45085000D03*
X88392000Y-45212000D03*
X93345000Y-45212000D03*
X79121000Y-45212000D03*
X99390200Y-45212000D03*
X101346000Y-45212000D03*
D13*
X104390000Y-41180000D02*
X103403400Y-42166600D01*
X103403400Y-42166600D02*
X103403400Y-47749400D01*
X103403400Y-47749400D02*
X104390000Y-48736000D01*
X108390000Y-41180000D02*
X107391200Y-42178800D01*
X107391200Y-42178800D02*
X107391200Y-47737200D01*
X107391200Y-47737200D02*
X108390000Y-48736000D01*
X112390000Y-41180000D02*
X111379000Y-42191000D01*
X111379000Y-42191000D02*
X111379000Y-47725000D01*
X111379000Y-47725000D02*
X112390000Y-48736000D01*
X98390000Y-41180000D02*
X97434600Y-42135400D01*
X97434600Y-42135400D02*
X97434600Y-47780600D01*
X97434600Y-47780600D02*
X98390000Y-48736000D01*
D14*
X80390000Y-43180000D02*
X80390000Y-44855400D01*
X80390000Y-44855400D02*
X81381600Y-45847000D01*
X81381600Y-45847000D02*
X81381600Y-47727600D01*
X81381600Y-47727600D02*
X82390000Y-48736000D01*
X73380600Y-40436800D02*
X73380600Y-47726600D01*
X73380600Y-47726600D02*
X74390000Y-48736000D01*
X75387200Y-40411400D02*
X75387200Y-47733200D01*
X75387200Y-47733200D02*
X76390000Y-48736000D01*
X77393800Y-40665400D02*
X77393800Y-47739800D01*
X77393800Y-47739800D02*
X78390000Y-48736000D01*
X85394800Y-40538400D02*
X84734400Y-39878000D01*
X85394800Y-42175200D02*
X85394800Y-40538400D01*
X78181200Y-39878000D02*
X77393800Y-40665400D01*
X84390000Y-43180000D02*
X85394800Y-42175200D01*
X84734400Y-39878000D02*
X78181200Y-39878000D01*
X88214200Y-38709600D02*
X75107800Y-38709600D01*
X88390000Y-43180000D02*
X89382600Y-42187400D01*
X89382600Y-39878000D02*
X88214200Y-38709600D01*
X89382600Y-42187400D02*
X89382600Y-39878000D01*
X75107800Y-38709600D02*
X73380600Y-40436800D01*
X76479400Y-39319200D02*
X75387200Y-40411400D01*
X86390000Y-43180000D02*
X87376000Y-42194000D01*
X87376000Y-42194000D02*
X87376000Y-40132000D01*
X87376000Y-40132000D02*
X86563200Y-39319200D01*
X86563200Y-39319200D02*
X76479400Y-39319200D01*
%TA.AperFunction,Conductor*%
G36*
X74601401Y-38619713D02*
G01*
X74637946Y-38670013D01*
X74637946Y-38732187D01*
X74613404Y-38772235D01*
X73136300Y-40249341D01*
X73131036Y-40258459D01*
X73096106Y-40318957D01*
X73075300Y-40396604D01*
X73074440Y-40403142D01*
X73072257Y-40402854D01*
X73056087Y-40452622D01*
X73005787Y-40489167D01*
X72943613Y-40489167D01*
X72918810Y-40477137D01*
X72805979Y-40401746D01*
X72646169Y-40335551D01*
X72646155Y-40335547D01*
X72640000Y-40334322D01*
X72640000Y-40864314D01*
X72635606Y-40859920D01*
X72544394Y-40807259D01*
X72442661Y-40780000D01*
X72337339Y-40780000D01*
X72235606Y-40807259D01*
X72144394Y-40859920D01*
X72140000Y-40864314D01*
X72140000Y-40334322D01*
X72133844Y-40335547D01*
X72133830Y-40335551D01*
X71974021Y-40401746D01*
X71974020Y-40401746D01*
X71830181Y-40497856D01*
X71830180Y-40497858D01*
X71707858Y-40620180D01*
X71707856Y-40620181D01*
X71611746Y-40764020D01*
X71611746Y-40764021D01*
X71545551Y-40923830D01*
X71545547Y-40923844D01*
X71544322Y-40930000D01*
X72074314Y-40930000D01*
X72069920Y-40934394D01*
X72017259Y-41025606D01*
X71990000Y-41127339D01*
X71990000Y-41232661D01*
X72017259Y-41334394D01*
X72069920Y-41425606D01*
X72074314Y-41430000D01*
X71544323Y-41430000D01*
X71545547Y-41436155D01*
X71545551Y-41436169D01*
X71611746Y-41595978D01*
X71611746Y-41595979D01*
X71707856Y-41739818D01*
X71830181Y-41862143D01*
X71974016Y-41958251D01*
X72133840Y-42024450D01*
X72133844Y-42024451D01*
X72140000Y-42025676D01*
X72140000Y-41495686D01*
X72144394Y-41500080D01*
X72235606Y-41552741D01*
X72337339Y-41580000D01*
X72442661Y-41580000D01*
X72544394Y-41552741D01*
X72635606Y-41500080D01*
X72640000Y-41495686D01*
X72640000Y-42025675D01*
X72646155Y-42024451D01*
X72646159Y-42024450D01*
X72805980Y-41958252D01*
X72918809Y-41882862D01*
X72978649Y-41865986D01*
X73036981Y-41887505D01*
X73071523Y-41939201D01*
X73075300Y-41966508D01*
X73075300Y-42200700D01*
X73056087Y-42259831D01*
X73005787Y-42296376D01*
X72974700Y-42301300D01*
X71694936Y-42301300D01*
X71685078Y-42303260D01*
X71635520Y-42313118D01*
X71568140Y-42358140D01*
X71523118Y-42425520D01*
X71513150Y-42475634D01*
X71511300Y-42484936D01*
X71511300Y-43875064D01*
X71511581Y-43876477D01*
X71523118Y-43934479D01*
X71532467Y-43948471D01*
X71568140Y-44001860D01*
X71635520Y-44046881D01*
X71694936Y-44058700D01*
X72974700Y-44058700D01*
X73033831Y-44077913D01*
X73070376Y-44128213D01*
X73075300Y-44159300D01*
X73075300Y-45756700D01*
X73056087Y-45815831D01*
X73005787Y-45852376D01*
X72974700Y-45857300D01*
X71694936Y-45857300D01*
X71685078Y-45859260D01*
X71635520Y-45869118D01*
X71568140Y-45914140D01*
X71523118Y-45981520D01*
X71513150Y-46031634D01*
X71511300Y-46040936D01*
X71511300Y-47431064D01*
X71511581Y-47432477D01*
X71523118Y-47490479D01*
X71532467Y-47504471D01*
X71568140Y-47557860D01*
X71635520Y-47602881D01*
X71694936Y-47614700D01*
X72974700Y-47614700D01*
X72983314Y-47617499D01*
X72992285Y-47616249D01*
X73012281Y-47626910D01*
X73033831Y-47633913D01*
X73039154Y-47641239D01*
X73047148Y-47645502D01*
X73053259Y-47660653D01*
X73070376Y-47684213D01*
X73074337Y-47701416D01*
X73075300Y-47708327D01*
X73075300Y-47766793D01*
X73090666Y-47824138D01*
X73092273Y-47830135D01*
X73096105Y-47844440D01*
X73099917Y-47851042D01*
X73136300Y-47914059D01*
X73136302Y-47914061D01*
X73543481Y-48321240D01*
X73571707Y-48376638D01*
X73565289Y-48430871D01*
X73545067Y-48479692D01*
X73511300Y-48649456D01*
X73511300Y-48822543D01*
X73545068Y-48992309D01*
X73611304Y-49152217D01*
X73611308Y-49152225D01*
X73679319Y-49254010D01*
X73696195Y-49313849D01*
X73674676Y-49372181D01*
X73622980Y-49406723D01*
X73595673Y-49410500D01*
X73183725Y-49410500D01*
X73124594Y-49391287D01*
X73088049Y-49340987D01*
X73088049Y-49278813D01*
X73100079Y-49254010D01*
X73168253Y-49151979D01*
X73168253Y-49151978D01*
X73234448Y-48992169D01*
X73234452Y-48992155D01*
X73235677Y-48986000D01*
X72705686Y-48986000D01*
X72710080Y-48981606D01*
X72762741Y-48890394D01*
X72790000Y-48788661D01*
X72790000Y-48683339D01*
X72762741Y-48581606D01*
X72710080Y-48490394D01*
X72705686Y-48486000D01*
X73235677Y-48486000D01*
X73234452Y-48479844D01*
X73234448Y-48479830D01*
X73168253Y-48320021D01*
X73168253Y-48320020D01*
X73072143Y-48176181D01*
X72949818Y-48053856D01*
X72805979Y-47957746D01*
X72646169Y-47891551D01*
X72646155Y-47891547D01*
X72640000Y-47890322D01*
X72640000Y-48420314D01*
X72635606Y-48415920D01*
X72544394Y-48363259D01*
X72442661Y-48336000D01*
X72337339Y-48336000D01*
X72235606Y-48363259D01*
X72144394Y-48415920D01*
X72140000Y-48420314D01*
X72140000Y-47890322D01*
X72133844Y-47891547D01*
X72133830Y-47891551D01*
X71974021Y-47957746D01*
X71974020Y-47957746D01*
X71830181Y-48053856D01*
X71830180Y-48053858D01*
X71707858Y-48176180D01*
X71707856Y-48176181D01*
X71611746Y-48320020D01*
X71611746Y-48320021D01*
X71545551Y-48479830D01*
X71545547Y-48479844D01*
X71544322Y-48486000D01*
X72074314Y-48486000D01*
X72069920Y-48490394D01*
X72017259Y-48581606D01*
X71990000Y-48683339D01*
X71990000Y-48788661D01*
X72017259Y-48890394D01*
X72069920Y-48981606D01*
X72074314Y-48986000D01*
X71544322Y-48986000D01*
X71540031Y-48991228D01*
X71542944Y-49007536D01*
X71536413Y-49021000D01*
X71534655Y-49035863D01*
X71523185Y-49048272D01*
X71515811Y-49063477D01*
X71502613Y-49070531D01*
X71492455Y-49081522D01*
X71475879Y-49084820D01*
X71460978Y-49092785D01*
X71446155Y-49090734D01*
X71431476Y-49093656D01*
X71416128Y-49086582D01*
X71399390Y-49084267D01*
X71388602Y-49073894D01*
X71375011Y-49067630D01*
X71354572Y-49041174D01*
X71327875Y-48991228D01*
X71302745Y-48944213D01*
X71295199Y-48925994D01*
X71257163Y-48800605D01*
X71253315Y-48781264D01*
X71239984Y-48645914D01*
X71239500Y-48636053D01*
X71239500Y-39374946D01*
X71239984Y-39365085D01*
X71253315Y-39229735D01*
X71257163Y-39210394D01*
X71264370Y-39186635D01*
X71295200Y-39085002D01*
X71302743Y-39066790D01*
X71364515Y-38951223D01*
X71375463Y-38934837D01*
X71458597Y-38833537D01*
X71472537Y-38819597D01*
X71573837Y-38736463D01*
X71590223Y-38725515D01*
X71705790Y-38663743D01*
X71724002Y-38656200D01*
X71849394Y-38618163D01*
X71868733Y-38614315D01*
X72004086Y-38600984D01*
X72013947Y-38600500D01*
X72074892Y-38600500D01*
X74542270Y-38600500D01*
X74601401Y-38619713D01*
G37*
%TD.AperFunction*%
%TA.AperFunction,Conductor*%
G36*
X114812914Y-38600984D02*
G01*
X114948264Y-38614315D01*
X114967605Y-38618163D01*
X115092994Y-38656199D01*
X115111213Y-38663745D01*
X115226771Y-38725512D01*
X115243167Y-38736467D01*
X115344459Y-38819595D01*
X115358404Y-38833540D01*
X115441532Y-38934832D01*
X115452488Y-38951230D01*
X115514253Y-39066785D01*
X115521800Y-39085005D01*
X115559836Y-39210394D01*
X115563683Y-39229735D01*
X115577015Y-39365085D01*
X115577500Y-39374946D01*
X115577500Y-48636053D01*
X115577015Y-48645914D01*
X115563683Y-48781264D01*
X115559836Y-48800605D01*
X115521800Y-48925994D01*
X115514253Y-48944214D01*
X115452488Y-49059769D01*
X115441532Y-49076167D01*
X115384498Y-49145663D01*
X115332134Y-49179183D01*
X115270067Y-49175523D01*
X115222006Y-49136080D01*
X115206307Y-49075921D01*
X115213789Y-49043349D01*
X115234932Y-48992307D01*
X115268700Y-48822544D01*
X115268700Y-48649456D01*
X115234932Y-48479693D01*
X115225230Y-48456271D01*
X115186704Y-48363259D01*
X115168694Y-48319779D01*
X115072531Y-48175861D01*
X114950139Y-48053469D01*
X114950137Y-48053467D01*
X114806225Y-47957308D01*
X114806217Y-47957304D01*
X114646309Y-47891068D01*
X114514455Y-47864841D01*
X114476544Y-47857300D01*
X114303456Y-47857300D01*
X114265545Y-47864841D01*
X114133690Y-47891068D01*
X113973782Y-47957304D01*
X113973774Y-47957308D01*
X113829862Y-48053467D01*
X113829861Y-48053469D01*
X113707469Y-48175861D01*
X113707467Y-48175862D01*
X113611308Y-48319774D01*
X113611304Y-48319782D01*
X113545068Y-48479690D01*
X113511300Y-48649456D01*
X113511300Y-48822543D01*
X113545068Y-48992309D01*
X113611304Y-49152217D01*
X113611308Y-49152225D01*
X113679319Y-49254010D01*
X113696195Y-49313849D01*
X113674676Y-49372181D01*
X113622980Y-49406723D01*
X113595673Y-49410500D01*
X113184327Y-49410500D01*
X113125196Y-49391287D01*
X113088651Y-49340987D01*
X113088651Y-49278813D01*
X113100681Y-49254010D01*
X113146712Y-49185119D01*
X113168694Y-49152221D01*
X113234932Y-48992307D01*
X113268700Y-48822544D01*
X113268700Y-48649456D01*
X113234932Y-48479693D01*
X113225230Y-48456271D01*
X113186704Y-48363259D01*
X113168694Y-48319779D01*
X113072531Y-48175861D01*
X112950139Y-48053469D01*
X112950137Y-48053467D01*
X112806225Y-47957308D01*
X112806217Y-47957304D01*
X112646309Y-47891068D01*
X112514455Y-47864841D01*
X112476544Y-47857300D01*
X112303456Y-47857300D01*
X112265545Y-47864841D01*
X112133690Y-47891068D01*
X112110268Y-47900769D01*
X112048286Y-47905644D01*
X112000640Y-47878960D01*
X111739165Y-47617485D01*
X111735479Y-47610251D01*
X111728913Y-47605481D01*
X111721633Y-47583075D01*
X111710939Y-47562087D01*
X111709700Y-47546350D01*
X111709700Y-47526451D01*
X111728913Y-47467320D01*
X111779213Y-47430775D01*
X111841387Y-47430775D01*
X111866185Y-47442802D01*
X111973779Y-47514694D01*
X112017972Y-47532999D01*
X112133690Y-47580931D01*
X112133691Y-47580931D01*
X112133693Y-47580932D01*
X112303456Y-47614700D01*
X112303457Y-47614700D01*
X112476543Y-47614700D01*
X112476544Y-47614700D01*
X112646307Y-47580932D01*
X112806221Y-47514694D01*
X112950139Y-47418531D01*
X113072531Y-47296139D01*
X113168694Y-47152221D01*
X113234932Y-46992307D01*
X113268700Y-46822544D01*
X113268700Y-46649456D01*
X113236187Y-46486000D01*
X113544322Y-46486000D01*
X114074314Y-46486000D01*
X114069920Y-46490394D01*
X114017259Y-46581606D01*
X113990000Y-46683339D01*
X113990000Y-46788661D01*
X114017259Y-46890394D01*
X114069920Y-46981606D01*
X114074314Y-46986000D01*
X113544323Y-46986000D01*
X113545547Y-46992155D01*
X113545551Y-46992169D01*
X113611746Y-47151978D01*
X113611746Y-47151979D01*
X113707856Y-47295818D01*
X113830181Y-47418143D01*
X113974016Y-47514251D01*
X114133840Y-47580450D01*
X114133844Y-47580451D01*
X114140000Y-47581676D01*
X114140000Y-47051686D01*
X114144394Y-47056080D01*
X114235606Y-47108741D01*
X114337339Y-47136000D01*
X114442661Y-47136000D01*
X114544394Y-47108741D01*
X114635606Y-47056080D01*
X114640000Y-47051686D01*
X114640000Y-47581676D01*
X114646155Y-47580451D01*
X114646159Y-47580450D01*
X114805983Y-47514251D01*
X114949818Y-47418143D01*
X114949820Y-47418142D01*
X115072142Y-47295820D01*
X115072143Y-47295818D01*
X115168253Y-47151979D01*
X115168253Y-47151978D01*
X115234448Y-46992169D01*
X115234452Y-46992155D01*
X115235677Y-46986000D01*
X114705686Y-46986000D01*
X114710080Y-46981606D01*
X114762741Y-46890394D01*
X114790000Y-46788661D01*
X114790000Y-46683339D01*
X114762741Y-46581606D01*
X114710080Y-46490394D01*
X114705686Y-46486000D01*
X115235677Y-46486000D01*
X115234452Y-46479844D01*
X115234448Y-46479830D01*
X115168253Y-46320021D01*
X115168253Y-46320020D01*
X115072143Y-46176181D01*
X114949818Y-46053856D01*
X114805979Y-45957746D01*
X114646169Y-45891551D01*
X114646155Y-45891547D01*
X114640000Y-45890322D01*
X114640000Y-46420314D01*
X114635606Y-46415920D01*
X114544394Y-46363259D01*
X114442661Y-46336000D01*
X114337339Y-46336000D01*
X114235606Y-46363259D01*
X114144394Y-46415920D01*
X114140000Y-46420314D01*
X114140000Y-45890322D01*
X114133844Y-45891547D01*
X114133830Y-45891551D01*
X113974021Y-45957746D01*
X113974020Y-45957746D01*
X113830181Y-46053856D01*
X113830180Y-46053858D01*
X113707858Y-46176180D01*
X113707856Y-46176181D01*
X113611746Y-46320020D01*
X113611746Y-46320021D01*
X113545551Y-46479830D01*
X113545547Y-46479844D01*
X113544322Y-46486000D01*
X113236187Y-46486000D01*
X113234932Y-46479693D01*
X113168694Y-46319779D01*
X113103899Y-46222807D01*
X113072532Y-46175862D01*
X112950137Y-46053467D01*
X112806225Y-45957308D01*
X112806217Y-45957304D01*
X112646309Y-45891068D01*
X112533131Y-45868556D01*
X112476544Y-45857300D01*
X112303456Y-45857300D01*
X112261015Y-45865742D01*
X112133690Y-45891068D01*
X111973782Y-45957304D01*
X111973774Y-45957308D01*
X111866190Y-46029194D01*
X111806350Y-46046070D01*
X111748019Y-46024551D01*
X111713477Y-45972855D01*
X111709700Y-45945548D01*
X111709700Y-43970451D01*
X111728913Y-43911320D01*
X111779213Y-43874775D01*
X111841387Y-43874775D01*
X111866185Y-43886802D01*
X111973779Y-43958694D01*
X112017972Y-43976999D01*
X112133690Y-44024931D01*
X112133691Y-44024931D01*
X112133693Y-44024932D01*
X112303456Y-44058700D01*
X112303457Y-44058700D01*
X112476543Y-44058700D01*
X112476544Y-44058700D01*
X112646307Y-44024932D01*
X112806221Y-43958694D01*
X112950139Y-43862531D01*
X113072531Y-43740139D01*
X113168694Y-43596221D01*
X113234932Y-43436307D01*
X113268700Y-43266544D01*
X113268700Y-43093456D01*
X113236187Y-42930000D01*
X113544322Y-42930000D01*
X114074314Y-42930000D01*
X114069920Y-42934394D01*
X114017259Y-43025606D01*
X113990000Y-43127339D01*
X113990000Y-43232661D01*
X114017259Y-43334394D01*
X114069920Y-43425606D01*
X114074314Y-43430000D01*
X113544323Y-43430000D01*
X113545547Y-43436155D01*
X113545551Y-43436169D01*
X113611746Y-43595978D01*
X113611746Y-43595979D01*
X113707856Y-43739818D01*
X113830181Y-43862143D01*
X113974016Y-43958251D01*
X114133840Y-44024450D01*
X114133844Y-44024451D01*
X114140000Y-44025676D01*
X114140000Y-43495686D01*
X114144394Y-43500080D01*
X114235606Y-43552741D01*
X114337339Y-43580000D01*
X114442661Y-43580000D01*
X114544394Y-43552741D01*
X114635606Y-43500080D01*
X114640000Y-43495686D01*
X114640000Y-44025676D01*
X114646155Y-44024451D01*
X114646159Y-44024450D01*
X114805983Y-43958251D01*
X114949818Y-43862143D01*
X114949820Y-43862142D01*
X115072142Y-43739820D01*
X115072143Y-43739818D01*
X115168253Y-43595979D01*
X115168253Y-43595978D01*
X115234448Y-43436169D01*
X115234452Y-43436155D01*
X115235677Y-43430000D01*
X114705686Y-43430000D01*
X114710080Y-43425606D01*
X114762741Y-43334394D01*
X114790000Y-43232661D01*
X114790000Y-43127339D01*
X114762741Y-43025606D01*
X114710080Y-42934394D01*
X114705686Y-42930000D01*
X115235677Y-42930000D01*
X115234452Y-42923844D01*
X115234448Y-42923830D01*
X115168253Y-42764021D01*
X115168253Y-42764020D01*
X115072143Y-42620181D01*
X114949818Y-42497856D01*
X114805979Y-42401746D01*
X114646169Y-42335551D01*
X114646155Y-42335547D01*
X114640000Y-42334322D01*
X114640000Y-42864314D01*
X114635606Y-42859920D01*
X114544394Y-42807259D01*
X114442661Y-42780000D01*
X114337339Y-42780000D01*
X114235606Y-42807259D01*
X114144394Y-42859920D01*
X114140000Y-42864314D01*
X114140000Y-42334322D01*
X114133844Y-42335547D01*
X114133830Y-42335551D01*
X113974021Y-42401746D01*
X113974020Y-42401746D01*
X113830181Y-42497856D01*
X113830180Y-42497858D01*
X113707858Y-42620180D01*
X113707856Y-42620181D01*
X113611746Y-42764020D01*
X113611746Y-42764021D01*
X113545551Y-42923830D01*
X113545547Y-42923844D01*
X113544322Y-42930000D01*
X113236187Y-42930000D01*
X113234932Y-42923693D01*
X113168694Y-42763779D01*
X113103899Y-42666807D01*
X113072532Y-42619862D01*
X112950137Y-42497467D01*
X112806225Y-42401308D01*
X112806217Y-42401304D01*
X112646309Y-42335068D01*
X112522886Y-42310518D01*
X112476544Y-42301300D01*
X112303456Y-42301300D01*
X112261015Y-42309742D01*
X112133690Y-42335068D01*
X111973782Y-42401304D01*
X111973774Y-42401308D01*
X111866190Y-42473194D01*
X111852713Y-42476994D01*
X111841387Y-42485224D01*
X111823533Y-42485224D01*
X111806350Y-42490070D01*
X111793214Y-42485224D01*
X111779213Y-42485224D01*
X111764770Y-42474730D01*
X111748019Y-42468551D01*
X111740239Y-42456908D01*
X111728913Y-42448679D01*
X111723396Y-42431700D01*
X111713477Y-42416855D01*
X111709700Y-42389548D01*
X111709700Y-42369649D01*
X111728913Y-42310518D01*
X111739159Y-42298520D01*
X112000642Y-42037036D01*
X112056038Y-42008812D01*
X112110275Y-42015232D01*
X112133690Y-42024931D01*
X112133691Y-42024931D01*
X112133693Y-42024932D01*
X112303456Y-42058700D01*
X112303457Y-42058700D01*
X112476543Y-42058700D01*
X112476544Y-42058700D01*
X112646307Y-42024932D01*
X112806221Y-41958694D01*
X112950139Y-41862531D01*
X113072531Y-41740139D01*
X113168694Y-41596221D01*
X113234932Y-41436307D01*
X113268700Y-41266544D01*
X113268700Y-41093456D01*
X113511300Y-41093456D01*
X113511300Y-41266543D01*
X113545068Y-41436309D01*
X113611304Y-41596217D01*
X113611308Y-41596225D01*
X113707467Y-41740137D01*
X113829862Y-41862532D01*
X113973774Y-41958691D01*
X113973776Y-41958692D01*
X113973779Y-41958694D01*
X113990872Y-41965774D01*
X114133690Y-42024931D01*
X114133691Y-42024931D01*
X114133693Y-42024932D01*
X114303456Y-42058700D01*
X114303457Y-42058700D01*
X114476543Y-42058700D01*
X114476544Y-42058700D01*
X114646307Y-42024932D01*
X114806221Y-41958694D01*
X114950139Y-41862531D01*
X115072531Y-41740139D01*
X115168694Y-41596221D01*
X115234932Y-41436307D01*
X115268700Y-41266544D01*
X115268700Y-41093456D01*
X115234932Y-40923693D01*
X115168694Y-40763779D01*
X115072531Y-40619861D01*
X114950139Y-40497469D01*
X114950137Y-40497467D01*
X114806225Y-40401308D01*
X114806217Y-40401304D01*
X114646309Y-40335068D01*
X114533131Y-40312556D01*
X114476544Y-40301300D01*
X114303456Y-40301300D01*
X114261015Y-40309742D01*
X114133690Y-40335068D01*
X113973782Y-40401304D01*
X113973774Y-40401308D01*
X113829862Y-40497467D01*
X113829861Y-40497469D01*
X113707469Y-40619861D01*
X113707467Y-40619862D01*
X113611308Y-40763774D01*
X113611304Y-40763782D01*
X113545068Y-40923690D01*
X113511300Y-41093456D01*
X113268700Y-41093456D01*
X113234932Y-40923693D01*
X113168694Y-40763779D01*
X113072531Y-40619861D01*
X112950139Y-40497469D01*
X112950137Y-40497467D01*
X112806225Y-40401308D01*
X112806217Y-40401304D01*
X112646309Y-40335068D01*
X112533131Y-40312556D01*
X112476544Y-40301300D01*
X112303456Y-40301300D01*
X112261015Y-40309742D01*
X112133690Y-40335068D01*
X111973782Y-40401304D01*
X111973774Y-40401308D01*
X111829862Y-40497467D01*
X111829861Y-40497469D01*
X111707469Y-40619861D01*
X111707467Y-40619862D01*
X111611308Y-40763774D01*
X111611304Y-40763782D01*
X111545068Y-40923690D01*
X111511300Y-41093456D01*
X111511300Y-41266543D01*
X111545067Y-41436307D01*
X111554768Y-41459727D01*
X111559645Y-41521710D01*
X111532960Y-41569358D01*
X111175947Y-41926372D01*
X111114374Y-41987944D01*
X111070834Y-42063356D01*
X111070833Y-42063358D01*
X111048301Y-42147455D01*
X111048300Y-42147463D01*
X111048300Y-42374848D01*
X111029087Y-42433979D01*
X110978787Y-42470524D01*
X110916613Y-42470524D01*
X110891810Y-42458494D01*
X110806225Y-42401308D01*
X110806217Y-42401304D01*
X110646309Y-42335068D01*
X110522886Y-42310518D01*
X110476544Y-42301300D01*
X110303456Y-42301300D01*
X110261015Y-42309742D01*
X110133690Y-42335068D01*
X109973782Y-42401304D01*
X109973774Y-42401308D01*
X109829862Y-42497467D01*
X109829861Y-42497469D01*
X109707469Y-42619861D01*
X109707467Y-42619862D01*
X109611308Y-42763774D01*
X109611304Y-42763782D01*
X109545068Y-42923690D01*
X109511300Y-43093456D01*
X109511300Y-43266543D01*
X109545068Y-43436309D01*
X109611304Y-43596217D01*
X109611308Y-43596225D01*
X109707467Y-43740137D01*
X109829862Y-43862532D01*
X109973774Y-43958691D01*
X109973776Y-43958692D01*
X109973779Y-43958694D01*
X110017972Y-43976999D01*
X110133690Y-44024931D01*
X110133691Y-44024931D01*
X110133693Y-44024932D01*
X110303456Y-44058700D01*
X110303457Y-44058700D01*
X110476543Y-44058700D01*
X110476544Y-44058700D01*
X110646307Y-44024932D01*
X110806221Y-43958694D01*
X110891811Y-43901504D01*
X110951649Y-43884629D01*
X111009980Y-43906148D01*
X111044523Y-43957844D01*
X111048300Y-43985151D01*
X111048300Y-45930848D01*
X111029087Y-45989979D01*
X110978787Y-46026524D01*
X110916613Y-46026524D01*
X110891810Y-46014494D01*
X110806225Y-45957308D01*
X110806217Y-45957304D01*
X110646309Y-45891068D01*
X110533131Y-45868556D01*
X110476544Y-45857300D01*
X110303456Y-45857300D01*
X110261015Y-45865742D01*
X110133690Y-45891068D01*
X109973782Y-45957304D01*
X109973774Y-45957308D01*
X109829862Y-46053467D01*
X109829861Y-46053469D01*
X109707469Y-46175861D01*
X109707467Y-46175862D01*
X109611308Y-46319774D01*
X109611304Y-46319782D01*
X109545068Y-46479690D01*
X109511300Y-46649456D01*
X109511300Y-46822543D01*
X109545068Y-46992309D01*
X109611304Y-47152217D01*
X109611308Y-47152225D01*
X109707467Y-47296137D01*
X109829862Y-47418532D01*
X109973774Y-47514691D01*
X109973776Y-47514692D01*
X109973779Y-47514694D01*
X110017972Y-47532999D01*
X110133690Y-47580931D01*
X110133691Y-47580931D01*
X110133693Y-47580932D01*
X110303456Y-47614700D01*
X110303457Y-47614700D01*
X110476543Y-47614700D01*
X110476544Y-47614700D01*
X110646307Y-47580932D01*
X110806221Y-47514694D01*
X110891811Y-47457504D01*
X110951649Y-47440629D01*
X111009980Y-47462148D01*
X111044523Y-47513844D01*
X111048300Y-47541151D01*
X111048300Y-47768536D01*
X111048301Y-47768544D01*
X111070833Y-47852641D01*
X111070834Y-47852643D01*
X111114374Y-47928055D01*
X111181676Y-47995357D01*
X111181682Y-47995362D01*
X111532960Y-48346640D01*
X111561186Y-48402038D01*
X111554769Y-48456268D01*
X111545068Y-48479690D01*
X111511300Y-48649456D01*
X111511300Y-48822543D01*
X111545068Y-48992309D01*
X111611304Y-49152217D01*
X111611308Y-49152225D01*
X111679319Y-49254010D01*
X111696195Y-49313849D01*
X111674676Y-49372181D01*
X111622980Y-49406723D01*
X111595673Y-49410500D01*
X111183725Y-49410500D01*
X111124594Y-49391287D01*
X111088049Y-49340987D01*
X111088049Y-49278813D01*
X111100079Y-49254010D01*
X111168253Y-49151979D01*
X111168253Y-49151978D01*
X111234448Y-48992169D01*
X111234452Y-48992155D01*
X111235677Y-48986000D01*
X110705686Y-48986000D01*
X110710080Y-48981606D01*
X110762741Y-48890394D01*
X110790000Y-48788661D01*
X110790000Y-48683339D01*
X110762741Y-48581606D01*
X110710080Y-48490394D01*
X110705686Y-48486000D01*
X111235677Y-48486000D01*
X111234452Y-48479844D01*
X111234448Y-48479830D01*
X111168253Y-48320021D01*
X111168253Y-48320020D01*
X111072143Y-48176181D01*
X110949818Y-48053856D01*
X110805979Y-47957746D01*
X110646169Y-47891551D01*
X110646155Y-47891547D01*
X110640000Y-47890322D01*
X110640000Y-48420314D01*
X110635606Y-48415920D01*
X110544394Y-48363259D01*
X110442661Y-48336000D01*
X110337339Y-48336000D01*
X110235606Y-48363259D01*
X110144394Y-48415920D01*
X110140000Y-48420314D01*
X110140000Y-47890322D01*
X110133844Y-47891547D01*
X110133830Y-47891551D01*
X109974021Y-47957746D01*
X109974020Y-47957746D01*
X109830181Y-48053856D01*
X109830180Y-48053858D01*
X109707858Y-48176180D01*
X109707856Y-48176181D01*
X109611746Y-48320020D01*
X109611746Y-48320021D01*
X109545551Y-48479830D01*
X109545547Y-48479844D01*
X109544322Y-48486000D01*
X110074314Y-48486000D01*
X110069920Y-48490394D01*
X110017259Y-48581606D01*
X109990000Y-48683339D01*
X109990000Y-48788661D01*
X110017259Y-48890394D01*
X110069920Y-48981606D01*
X110074314Y-48986000D01*
X109544323Y-48986000D01*
X109545547Y-48992155D01*
X109545551Y-48992169D01*
X109611746Y-49151978D01*
X109611746Y-49151979D01*
X109679921Y-49254010D01*
X109696797Y-49313850D01*
X109675278Y-49372181D01*
X109623582Y-49406723D01*
X109596275Y-49410500D01*
X109184327Y-49410500D01*
X109125196Y-49391287D01*
X109088651Y-49340987D01*
X109088651Y-49278813D01*
X109100681Y-49254010D01*
X109146712Y-49185119D01*
X109168694Y-49152221D01*
X109234932Y-48992307D01*
X109268700Y-48822544D01*
X109268700Y-48649456D01*
X109234932Y-48479693D01*
X109225230Y-48456271D01*
X109186704Y-48363259D01*
X109168694Y-48319779D01*
X109072531Y-48175861D01*
X108950139Y-48053469D01*
X108950137Y-48053467D01*
X108806225Y-47957308D01*
X108806217Y-47957304D01*
X108646309Y-47891068D01*
X108514455Y-47864841D01*
X108476544Y-47857300D01*
X108303456Y-47857300D01*
X108269689Y-47864016D01*
X108133694Y-47891067D01*
X108110271Y-47900769D01*
X108048288Y-47905645D01*
X108000641Y-47878960D01*
X107751365Y-47629684D01*
X107747679Y-47622450D01*
X107741113Y-47617680D01*
X107733833Y-47595274D01*
X107723139Y-47574286D01*
X107721900Y-47558549D01*
X107721900Y-47534603D01*
X107741113Y-47475472D01*
X107791413Y-47438927D01*
X107853587Y-47438927D01*
X107878387Y-47450955D01*
X107973779Y-47514694D01*
X108017972Y-47532999D01*
X108133690Y-47580931D01*
X108133691Y-47580931D01*
X108133693Y-47580932D01*
X108303456Y-47614700D01*
X108303457Y-47614700D01*
X108476543Y-47614700D01*
X108476544Y-47614700D01*
X108646307Y-47580932D01*
X108806221Y-47514694D01*
X108950139Y-47418531D01*
X109072531Y-47296139D01*
X109168694Y-47152221D01*
X109234932Y-46992307D01*
X109268700Y-46822544D01*
X109268700Y-46649456D01*
X109234932Y-46479693D01*
X109168694Y-46319779D01*
X109103899Y-46222807D01*
X109072532Y-46175862D01*
X108950137Y-46053467D01*
X108806225Y-45957308D01*
X108806217Y-45957304D01*
X108646309Y-45891068D01*
X108533131Y-45868556D01*
X108476544Y-45857300D01*
X108303456Y-45857300D01*
X108261015Y-45865742D01*
X108133690Y-45891068D01*
X107973782Y-45957304D01*
X107973774Y-45957308D01*
X107878390Y-46021042D01*
X107818550Y-46037918D01*
X107760219Y-46016399D01*
X107725677Y-45964703D01*
X107721900Y-45937396D01*
X107721900Y-43978603D01*
X107741113Y-43919472D01*
X107791413Y-43882927D01*
X107853587Y-43882927D01*
X107878387Y-43894955D01*
X107973779Y-43958694D01*
X108017972Y-43976999D01*
X108133690Y-44024931D01*
X108133691Y-44024931D01*
X108133693Y-44024932D01*
X108303456Y-44058700D01*
X108303457Y-44058700D01*
X108476543Y-44058700D01*
X108476544Y-44058700D01*
X108646307Y-44024932D01*
X108806221Y-43958694D01*
X108950139Y-43862531D01*
X109072531Y-43740139D01*
X109168694Y-43596221D01*
X109234932Y-43436307D01*
X109268700Y-43266544D01*
X109268700Y-43093456D01*
X109234932Y-42923693D01*
X109168694Y-42763779D01*
X109103899Y-42666807D01*
X109072532Y-42619862D01*
X108950137Y-42497467D01*
X108806225Y-42401308D01*
X108806217Y-42401304D01*
X108646309Y-42335068D01*
X108522886Y-42310518D01*
X108476544Y-42301300D01*
X108303456Y-42301300D01*
X108261015Y-42309742D01*
X108133690Y-42335068D01*
X107973782Y-42401304D01*
X107973774Y-42401308D01*
X107878390Y-42465042D01*
X107864913Y-42468842D01*
X107853587Y-42477072D01*
X107835733Y-42477072D01*
X107818550Y-42481918D01*
X107805414Y-42477072D01*
X107791413Y-42477072D01*
X107776970Y-42466578D01*
X107760219Y-42460399D01*
X107752439Y-42448756D01*
X107741113Y-42440527D01*
X107735596Y-42423548D01*
X107725677Y-42408703D01*
X107721900Y-42381396D01*
X107721900Y-42357450D01*
X107741113Y-42298319D01*
X107751365Y-42286315D01*
X107836980Y-42200700D01*
X108000642Y-42037037D01*
X108056037Y-42008813D01*
X108110272Y-42015232D01*
X108133687Y-42024930D01*
X108133688Y-42024931D01*
X108133692Y-42024931D01*
X108133693Y-42024932D01*
X108303456Y-42058700D01*
X108303457Y-42058700D01*
X108476543Y-42058700D01*
X108476544Y-42058700D01*
X108646307Y-42024932D01*
X108806221Y-41958694D01*
X108950139Y-41862531D01*
X109072531Y-41740139D01*
X109168694Y-41596221D01*
X109234932Y-41436307D01*
X109268700Y-41266544D01*
X109268700Y-41093456D01*
X109236187Y-40930000D01*
X109544322Y-40930000D01*
X110074314Y-40930000D01*
X110069920Y-40934394D01*
X110017259Y-41025606D01*
X109990000Y-41127339D01*
X109990000Y-41232661D01*
X110017259Y-41334394D01*
X110069920Y-41425606D01*
X110074314Y-41430000D01*
X109544323Y-41430000D01*
X109545547Y-41436155D01*
X109545551Y-41436169D01*
X109611746Y-41595978D01*
X109611746Y-41595979D01*
X109707856Y-41739818D01*
X109830181Y-41862143D01*
X109974016Y-41958251D01*
X110133840Y-42024450D01*
X110133844Y-42024451D01*
X110140000Y-42025676D01*
X110140000Y-41495686D01*
X110144394Y-41500080D01*
X110235606Y-41552741D01*
X110337339Y-41580000D01*
X110442661Y-41580000D01*
X110544394Y-41552741D01*
X110635606Y-41500080D01*
X110640000Y-41495686D01*
X110640000Y-42025675D01*
X110646155Y-42024451D01*
X110646159Y-42024450D01*
X110805983Y-41958251D01*
X110949818Y-41862143D01*
X110949820Y-41862142D01*
X111072142Y-41739820D01*
X111072143Y-41739818D01*
X111168253Y-41595979D01*
X111168253Y-41595978D01*
X111234448Y-41436169D01*
X111234452Y-41436155D01*
X111235677Y-41430000D01*
X110705686Y-41430000D01*
X110710080Y-41425606D01*
X110762741Y-41334394D01*
X110790000Y-41232661D01*
X110790000Y-41127339D01*
X110762741Y-41025606D01*
X110710080Y-40934394D01*
X110705686Y-40930000D01*
X111235677Y-40930000D01*
X111234452Y-40923844D01*
X111234448Y-40923830D01*
X111168253Y-40764021D01*
X111168253Y-40764020D01*
X111072143Y-40620181D01*
X110949818Y-40497856D01*
X110805979Y-40401746D01*
X110646169Y-40335551D01*
X110646155Y-40335547D01*
X110640000Y-40334322D01*
X110640000Y-40864314D01*
X110635606Y-40859920D01*
X110544394Y-40807259D01*
X110442661Y-40780000D01*
X110337339Y-40780000D01*
X110235606Y-40807259D01*
X110144394Y-40859920D01*
X110140000Y-40864314D01*
X110140000Y-40334322D01*
X110133844Y-40335547D01*
X110133830Y-40335551D01*
X109974021Y-40401746D01*
X109974020Y-40401746D01*
X109830181Y-40497856D01*
X109830180Y-40497858D01*
X109707858Y-40620180D01*
X109707856Y-40620181D01*
X109611746Y-40764020D01*
X109611746Y-40764021D01*
X109545551Y-40923830D01*
X109545547Y-40923844D01*
X109544322Y-40930000D01*
X109236187Y-40930000D01*
X109234932Y-40923693D01*
X109168694Y-40763779D01*
X109072531Y-40619861D01*
X108950139Y-40497469D01*
X108950137Y-40497467D01*
X108806225Y-40401308D01*
X108806217Y-40401304D01*
X108646309Y-40335068D01*
X108533131Y-40312556D01*
X108476544Y-40301300D01*
X108303456Y-40301300D01*
X108261015Y-40309742D01*
X108133690Y-40335068D01*
X107973782Y-40401304D01*
X107973774Y-40401308D01*
X107829862Y-40497467D01*
X107829861Y-40497469D01*
X107707469Y-40619861D01*
X107707467Y-40619862D01*
X107611308Y-40763774D01*
X107611304Y-40763782D01*
X107545068Y-40923690D01*
X107511300Y-41093456D01*
X107511300Y-41266543D01*
X107545068Y-41436309D01*
X107554767Y-41459724D01*
X107559645Y-41521706D01*
X107532960Y-41569357D01*
X107188147Y-41914172D01*
X107126574Y-41975744D01*
X107083034Y-42051156D01*
X107083033Y-42051158D01*
X107060501Y-42135255D01*
X107060500Y-42135263D01*
X107060500Y-42383000D01*
X107041287Y-42442131D01*
X106990987Y-42478676D01*
X106928813Y-42478676D01*
X106904010Y-42466646D01*
X106806225Y-42401308D01*
X106806217Y-42401304D01*
X106646309Y-42335068D01*
X106522886Y-42310518D01*
X106476544Y-42301300D01*
X106303456Y-42301300D01*
X106261015Y-42309742D01*
X106133690Y-42335068D01*
X105973782Y-42401304D01*
X105973774Y-42401308D01*
X105829862Y-42497467D01*
X105829861Y-42497469D01*
X105707469Y-42619861D01*
X105707467Y-42619862D01*
X105611308Y-42763774D01*
X105611304Y-42763782D01*
X105545068Y-42923690D01*
X105511300Y-43093456D01*
X105511300Y-43266543D01*
X105545068Y-43436309D01*
X105611304Y-43596217D01*
X105611308Y-43596225D01*
X105707467Y-43740137D01*
X105829862Y-43862532D01*
X105973774Y-43958691D01*
X105973776Y-43958692D01*
X105973779Y-43958694D01*
X106017972Y-43976999D01*
X106133690Y-44024931D01*
X106133691Y-44024931D01*
X106133693Y-44024932D01*
X106303456Y-44058700D01*
X106303457Y-44058700D01*
X106476543Y-44058700D01*
X106476544Y-44058700D01*
X106646307Y-44024932D01*
X106806221Y-43958694D01*
X106904009Y-43893353D01*
X106963849Y-43876477D01*
X107022180Y-43897996D01*
X107056723Y-43949691D01*
X107060500Y-43976999D01*
X107060500Y-45939000D01*
X107041287Y-45998131D01*
X106990987Y-46034676D01*
X106928813Y-46034676D01*
X106904010Y-46022646D01*
X106806225Y-45957308D01*
X106806217Y-45957304D01*
X106646309Y-45891068D01*
X106533131Y-45868556D01*
X106476544Y-45857300D01*
X106303456Y-45857300D01*
X106261015Y-45865742D01*
X106133690Y-45891068D01*
X105973782Y-45957304D01*
X105973774Y-45957308D01*
X105829862Y-46053467D01*
X105829861Y-46053469D01*
X105707469Y-46175861D01*
X105707467Y-46175862D01*
X105611308Y-46319774D01*
X105611304Y-46319782D01*
X105545068Y-46479690D01*
X105511300Y-46649456D01*
X105511300Y-46822543D01*
X105545068Y-46992309D01*
X105611304Y-47152217D01*
X105611308Y-47152225D01*
X105707467Y-47296137D01*
X105829862Y-47418532D01*
X105973774Y-47514691D01*
X105973776Y-47514692D01*
X105973779Y-47514694D01*
X106017972Y-47532999D01*
X106133690Y-47580931D01*
X106133691Y-47580931D01*
X106133693Y-47580932D01*
X106303456Y-47614700D01*
X106303457Y-47614700D01*
X106476543Y-47614700D01*
X106476544Y-47614700D01*
X106646307Y-47580932D01*
X106806221Y-47514694D01*
X106904009Y-47449353D01*
X106963849Y-47432477D01*
X107022180Y-47453996D01*
X107056723Y-47505691D01*
X107060500Y-47532999D01*
X107060500Y-47780736D01*
X107060501Y-47780744D01*
X107083033Y-47864841D01*
X107083034Y-47864843D01*
X107126574Y-47940255D01*
X107193876Y-48007557D01*
X107193882Y-48007562D01*
X107532960Y-48346641D01*
X107561186Y-48402039D01*
X107554769Y-48456271D01*
X107545067Y-48479694D01*
X107511300Y-48649456D01*
X107511300Y-48822543D01*
X107545068Y-48992309D01*
X107611304Y-49152217D01*
X107611308Y-49152225D01*
X107679319Y-49254010D01*
X107696195Y-49313849D01*
X107674676Y-49372181D01*
X107622980Y-49406723D01*
X107595673Y-49410500D01*
X107184327Y-49410500D01*
X107125196Y-49391287D01*
X107088651Y-49340987D01*
X107088651Y-49278813D01*
X107100681Y-49254010D01*
X107146712Y-49185119D01*
X107168694Y-49152221D01*
X107234932Y-48992307D01*
X107268700Y-48822544D01*
X107268700Y-48649456D01*
X107234932Y-48479693D01*
X107225230Y-48456271D01*
X107186704Y-48363259D01*
X107168694Y-48319779D01*
X107072531Y-48175861D01*
X106950139Y-48053469D01*
X106950137Y-48053467D01*
X106806225Y-47957308D01*
X106806217Y-47957304D01*
X106646309Y-47891068D01*
X106514455Y-47864841D01*
X106476544Y-47857300D01*
X106303456Y-47857300D01*
X106265545Y-47864841D01*
X106133690Y-47891068D01*
X105973782Y-47957304D01*
X105973774Y-47957308D01*
X105829862Y-48053467D01*
X105829861Y-48053469D01*
X105707469Y-48175861D01*
X105707467Y-48175862D01*
X105611308Y-48319774D01*
X105611304Y-48319782D01*
X105545068Y-48479690D01*
X105511300Y-48649456D01*
X105511300Y-48822543D01*
X105545068Y-48992309D01*
X105611304Y-49152217D01*
X105611308Y-49152225D01*
X105679319Y-49254010D01*
X105696195Y-49313849D01*
X105674676Y-49372181D01*
X105622980Y-49406723D01*
X105595673Y-49410500D01*
X105184327Y-49410500D01*
X105125196Y-49391287D01*
X105088651Y-49340987D01*
X105088651Y-49278813D01*
X105100681Y-49254010D01*
X105146712Y-49185119D01*
X105168694Y-49152221D01*
X105234932Y-48992307D01*
X105268700Y-48822544D01*
X105268700Y-48649456D01*
X105234932Y-48479693D01*
X105225230Y-48456271D01*
X105186704Y-48363259D01*
X105168694Y-48319779D01*
X105072531Y-48175861D01*
X104950139Y-48053469D01*
X104950137Y-48053467D01*
X104806225Y-47957308D01*
X104806217Y-47957304D01*
X104646309Y-47891068D01*
X104514455Y-47864841D01*
X104476544Y-47857300D01*
X104303456Y-47857300D01*
X104265545Y-47864841D01*
X104133690Y-47891068D01*
X104110268Y-47900769D01*
X104048286Y-47905644D01*
X104000640Y-47878960D01*
X103763565Y-47641885D01*
X103759879Y-47634651D01*
X103753313Y-47629881D01*
X103746033Y-47607475D01*
X103735339Y-47586487D01*
X103734100Y-47570750D01*
X103734100Y-47542755D01*
X103753313Y-47483624D01*
X103803613Y-47447079D01*
X103865787Y-47447079D01*
X103890588Y-47459107D01*
X103973779Y-47514694D01*
X104017972Y-47532999D01*
X104133690Y-47580931D01*
X104133691Y-47580931D01*
X104133693Y-47580932D01*
X104303456Y-47614700D01*
X104303457Y-47614700D01*
X104476543Y-47614700D01*
X104476544Y-47614700D01*
X104646307Y-47580932D01*
X104806221Y-47514694D01*
X104950139Y-47418531D01*
X105072531Y-47296139D01*
X105168694Y-47152221D01*
X105234932Y-46992307D01*
X105268700Y-46822544D01*
X105268700Y-46649456D01*
X105234932Y-46479693D01*
X105168694Y-46319779D01*
X105103899Y-46222807D01*
X105072532Y-46175862D01*
X104950137Y-46053467D01*
X104806225Y-45957308D01*
X104806217Y-45957304D01*
X104646309Y-45891068D01*
X104533131Y-45868556D01*
X104476544Y-45857300D01*
X104303456Y-45857300D01*
X104261015Y-45865742D01*
X104133690Y-45891068D01*
X103973782Y-45957304D01*
X103973774Y-45957308D01*
X103890590Y-46012890D01*
X103830750Y-46029766D01*
X103772419Y-46008247D01*
X103737877Y-45956550D01*
X103734100Y-45929244D01*
X103734100Y-43986755D01*
X103753313Y-43927624D01*
X103803613Y-43891079D01*
X103865787Y-43891079D01*
X103890588Y-43903107D01*
X103973779Y-43958694D01*
X104017972Y-43976999D01*
X104133690Y-44024931D01*
X104133691Y-44024931D01*
X104133693Y-44024932D01*
X104303456Y-44058700D01*
X104303457Y-44058700D01*
X104476543Y-44058700D01*
X104476544Y-44058700D01*
X104646307Y-44024932D01*
X104806221Y-43958694D01*
X104950139Y-43862531D01*
X105072531Y-43740139D01*
X105168694Y-43596221D01*
X105234932Y-43436307D01*
X105268700Y-43266544D01*
X105268700Y-43093456D01*
X105234932Y-42923693D01*
X105168694Y-42763779D01*
X105103899Y-42666807D01*
X105072532Y-42619862D01*
X104950137Y-42497467D01*
X104806225Y-42401308D01*
X104806217Y-42401304D01*
X104646309Y-42335068D01*
X104522886Y-42310518D01*
X104476544Y-42301300D01*
X104303456Y-42301300D01*
X104261015Y-42309742D01*
X104133690Y-42335068D01*
X103973782Y-42401304D01*
X103973774Y-42401308D01*
X103890590Y-42456890D01*
X103877113Y-42460690D01*
X103865787Y-42468920D01*
X103847933Y-42468920D01*
X103830750Y-42473766D01*
X103817614Y-42468920D01*
X103803613Y-42468920D01*
X103789170Y-42458426D01*
X103772419Y-42452247D01*
X103764639Y-42440604D01*
X103753313Y-42432375D01*
X103747795Y-42415394D01*
X103737877Y-42400550D01*
X103734100Y-42373244D01*
X103734100Y-42345249D01*
X103753313Y-42286118D01*
X103763559Y-42274120D01*
X104000642Y-42037036D01*
X104056037Y-42008812D01*
X104110275Y-42015232D01*
X104133690Y-42024931D01*
X104133691Y-42024931D01*
X104133693Y-42024932D01*
X104303456Y-42058700D01*
X104303457Y-42058700D01*
X104476543Y-42058700D01*
X104476544Y-42058700D01*
X104646307Y-42024932D01*
X104806221Y-41958694D01*
X104950139Y-41862531D01*
X105072531Y-41740139D01*
X105168694Y-41596221D01*
X105234932Y-41436307D01*
X105268700Y-41266544D01*
X105268700Y-41093456D01*
X105511300Y-41093456D01*
X105511300Y-41266543D01*
X105545068Y-41436309D01*
X105611304Y-41596217D01*
X105611308Y-41596225D01*
X105707467Y-41740137D01*
X105829862Y-41862532D01*
X105973774Y-41958691D01*
X105973776Y-41958692D01*
X105973779Y-41958694D01*
X105990872Y-41965774D01*
X106133690Y-42024931D01*
X106133691Y-42024931D01*
X106133693Y-42024932D01*
X106303456Y-42058700D01*
X106303457Y-42058700D01*
X106476543Y-42058700D01*
X106476544Y-42058700D01*
X106646307Y-42024932D01*
X106806221Y-41958694D01*
X106950139Y-41862531D01*
X107072531Y-41740139D01*
X107168694Y-41596221D01*
X107234932Y-41436307D01*
X107268700Y-41266544D01*
X107268700Y-41093456D01*
X107234932Y-40923693D01*
X107168694Y-40763779D01*
X107072531Y-40619861D01*
X106950139Y-40497469D01*
X106950137Y-40497467D01*
X106806225Y-40401308D01*
X106806217Y-40401304D01*
X106646309Y-40335068D01*
X106533131Y-40312556D01*
X106476544Y-40301300D01*
X106303456Y-40301300D01*
X106261015Y-40309742D01*
X106133690Y-40335068D01*
X105973782Y-40401304D01*
X105973774Y-40401308D01*
X105829862Y-40497467D01*
X105829861Y-40497469D01*
X105707469Y-40619861D01*
X105707467Y-40619862D01*
X105611308Y-40763774D01*
X105611304Y-40763782D01*
X105545068Y-40923690D01*
X105511300Y-41093456D01*
X105268700Y-41093456D01*
X105234932Y-40923693D01*
X105168694Y-40763779D01*
X105072531Y-40619861D01*
X104950139Y-40497469D01*
X104950137Y-40497467D01*
X104806225Y-40401308D01*
X104806217Y-40401304D01*
X104646309Y-40335068D01*
X104533131Y-40312556D01*
X104476544Y-40301300D01*
X104303456Y-40301300D01*
X104261015Y-40309742D01*
X104133690Y-40335068D01*
X103973782Y-40401304D01*
X103973774Y-40401308D01*
X103829862Y-40497467D01*
X103829861Y-40497469D01*
X103707469Y-40619861D01*
X103707467Y-40619862D01*
X103611308Y-40763774D01*
X103611304Y-40763782D01*
X103545068Y-40923690D01*
X103511300Y-41093456D01*
X103511300Y-41266543D01*
X103545067Y-41436307D01*
X103554768Y-41459727D01*
X103559645Y-41521710D01*
X103532960Y-41569358D01*
X103200347Y-41901972D01*
X103138774Y-41963544D01*
X103095234Y-42038956D01*
X103095233Y-42038958D01*
X103072701Y-42123055D01*
X103072700Y-42123063D01*
X103072700Y-42391152D01*
X103053487Y-42450283D01*
X103003187Y-42486828D01*
X102941013Y-42486828D01*
X102916210Y-42474798D01*
X102806225Y-42401308D01*
X102806217Y-42401304D01*
X102646309Y-42335068D01*
X102522886Y-42310518D01*
X102476544Y-42301300D01*
X102303456Y-42301300D01*
X102261015Y-42309742D01*
X102133690Y-42335068D01*
X101973782Y-42401304D01*
X101973774Y-42401308D01*
X101829862Y-42497467D01*
X101829861Y-42497469D01*
X101707469Y-42619861D01*
X101707467Y-42619862D01*
X101611308Y-42763774D01*
X101611304Y-42763782D01*
X101545068Y-42923690D01*
X101511300Y-43093456D01*
X101511300Y-43266543D01*
X101545068Y-43436309D01*
X101611304Y-43596217D01*
X101611308Y-43596225D01*
X101707467Y-43740137D01*
X101829862Y-43862532D01*
X101973774Y-43958691D01*
X101973776Y-43958692D01*
X101973779Y-43958694D01*
X102017972Y-43976999D01*
X102133690Y-44024931D01*
X102133691Y-44024931D01*
X102133693Y-44024932D01*
X102303456Y-44058700D01*
X102303457Y-44058700D01*
X102476543Y-44058700D01*
X102476544Y-44058700D01*
X102646307Y-44024932D01*
X102806221Y-43958694D01*
X102916209Y-43885201D01*
X102976049Y-43868325D01*
X103034380Y-43889844D01*
X103068923Y-43941539D01*
X103072700Y-43968847D01*
X103072700Y-45947152D01*
X103053487Y-46006283D01*
X103003187Y-46042828D01*
X102941013Y-46042828D01*
X102916210Y-46030798D01*
X102806225Y-45957308D01*
X102806217Y-45957304D01*
X102646309Y-45891068D01*
X102533131Y-45868556D01*
X102476544Y-45857300D01*
X102303456Y-45857300D01*
X102261015Y-45865742D01*
X102133690Y-45891068D01*
X101973782Y-45957304D01*
X101973774Y-45957308D01*
X101829862Y-46053467D01*
X101829861Y-46053469D01*
X101707469Y-46175861D01*
X101707467Y-46175862D01*
X101611308Y-46319774D01*
X101611304Y-46319782D01*
X101545068Y-46479690D01*
X101511300Y-46649456D01*
X101511300Y-46822543D01*
X101545068Y-46992309D01*
X101611304Y-47152217D01*
X101611308Y-47152225D01*
X101707467Y-47296137D01*
X101829862Y-47418532D01*
X101973774Y-47514691D01*
X101973776Y-47514692D01*
X101973779Y-47514694D01*
X102017972Y-47532999D01*
X102133690Y-47580931D01*
X102133691Y-47580931D01*
X102133693Y-47580932D01*
X102303456Y-47614700D01*
X102303457Y-47614700D01*
X102476543Y-47614700D01*
X102476544Y-47614700D01*
X102646307Y-47580932D01*
X102806221Y-47514694D01*
X102916209Y-47441201D01*
X102976049Y-47424325D01*
X103034380Y-47445844D01*
X103068923Y-47497539D01*
X103072700Y-47524847D01*
X103072700Y-47792939D01*
X103095233Y-47877041D01*
X103095234Y-47877043D01*
X103138774Y-47952455D01*
X103206076Y-48019757D01*
X103206082Y-48019762D01*
X103532960Y-48346640D01*
X103561186Y-48402038D01*
X103554769Y-48456268D01*
X103545068Y-48479690D01*
X103511300Y-48649456D01*
X103511300Y-48822543D01*
X103545068Y-48992309D01*
X103611304Y-49152217D01*
X103611308Y-49152225D01*
X103679319Y-49254010D01*
X103696195Y-49313849D01*
X103674676Y-49372181D01*
X103622980Y-49406723D01*
X103595673Y-49410500D01*
X103184327Y-49410500D01*
X103125196Y-49391287D01*
X103088651Y-49340987D01*
X103088651Y-49278813D01*
X103100681Y-49254010D01*
X103146712Y-49185119D01*
X103168694Y-49152221D01*
X103234932Y-48992307D01*
X103268700Y-48822544D01*
X103268700Y-48649456D01*
X103234932Y-48479693D01*
X103225230Y-48456271D01*
X103186704Y-48363259D01*
X103168694Y-48319779D01*
X103072531Y-48175861D01*
X102950139Y-48053469D01*
X102950137Y-48053467D01*
X102806225Y-47957308D01*
X102806217Y-47957304D01*
X102646309Y-47891068D01*
X102514455Y-47864841D01*
X102476544Y-47857300D01*
X102303456Y-47857300D01*
X102265545Y-47864841D01*
X102133690Y-47891068D01*
X101973782Y-47957304D01*
X101973774Y-47957308D01*
X101829862Y-48053467D01*
X101829861Y-48053469D01*
X101707469Y-48175861D01*
X101707467Y-48175862D01*
X101611308Y-48319774D01*
X101611304Y-48319782D01*
X101545068Y-48479690D01*
X101511300Y-48649456D01*
X101511300Y-48822543D01*
X101545068Y-48992309D01*
X101611304Y-49152217D01*
X101611308Y-49152225D01*
X101679319Y-49254010D01*
X101696195Y-49313849D01*
X101674676Y-49372181D01*
X101622980Y-49406723D01*
X101595673Y-49410500D01*
X101183725Y-49410500D01*
X101124594Y-49391287D01*
X101088049Y-49340987D01*
X101088049Y-49278813D01*
X101100079Y-49254010D01*
X101168253Y-49151979D01*
X101168253Y-49151978D01*
X101234448Y-48992169D01*
X101234452Y-48992155D01*
X101235677Y-48986000D01*
X100705686Y-48986000D01*
X100710080Y-48981606D01*
X100762741Y-48890394D01*
X100790000Y-48788661D01*
X100790000Y-48683339D01*
X100762741Y-48581606D01*
X100710080Y-48490394D01*
X100705686Y-48486000D01*
X101235677Y-48486000D01*
X101234452Y-48479844D01*
X101234448Y-48479830D01*
X101168253Y-48320021D01*
X101168253Y-48320020D01*
X101072143Y-48176181D01*
X100949818Y-48053856D01*
X100805979Y-47957746D01*
X100646169Y-47891551D01*
X100646155Y-47891547D01*
X100640000Y-47890322D01*
X100640000Y-48420314D01*
X100635606Y-48415920D01*
X100544394Y-48363259D01*
X100442661Y-48336000D01*
X100337339Y-48336000D01*
X100235606Y-48363259D01*
X100144394Y-48415920D01*
X100140000Y-48420314D01*
X100140000Y-47890322D01*
X100133844Y-47891547D01*
X100133830Y-47891551D01*
X99974021Y-47957746D01*
X99974020Y-47957746D01*
X99830181Y-48053856D01*
X99830180Y-48053858D01*
X99707858Y-48176180D01*
X99707856Y-48176181D01*
X99611746Y-48320020D01*
X99611746Y-48320021D01*
X99545551Y-48479830D01*
X99545547Y-48479844D01*
X99544322Y-48486000D01*
X100074314Y-48486000D01*
X100069920Y-48490394D01*
X100017259Y-48581606D01*
X99990000Y-48683339D01*
X99990000Y-48788661D01*
X100017259Y-48890394D01*
X100069920Y-48981606D01*
X100074314Y-48986000D01*
X99544323Y-48986000D01*
X99545547Y-48992155D01*
X99545551Y-48992169D01*
X99611746Y-49151978D01*
X99611746Y-49151979D01*
X99679921Y-49254010D01*
X99696797Y-49313850D01*
X99675278Y-49372181D01*
X99623582Y-49406723D01*
X99596275Y-49410500D01*
X99184327Y-49410500D01*
X99125196Y-49391287D01*
X99088651Y-49340987D01*
X99088651Y-49278813D01*
X99100681Y-49254010D01*
X99146712Y-49185119D01*
X99168694Y-49152221D01*
X99234932Y-48992307D01*
X99268700Y-48822544D01*
X99268700Y-48649456D01*
X99234932Y-48479693D01*
X99225230Y-48456271D01*
X99186704Y-48363259D01*
X99168694Y-48319779D01*
X99072531Y-48175861D01*
X98950139Y-48053469D01*
X98950137Y-48053467D01*
X98806225Y-47957308D01*
X98806217Y-47957304D01*
X98646309Y-47891068D01*
X98514455Y-47864841D01*
X98476544Y-47857300D01*
X98303456Y-47857300D01*
X98265545Y-47864841D01*
X98133690Y-47891068D01*
X98110268Y-47900769D01*
X98048286Y-47905644D01*
X98000640Y-47878960D01*
X97794765Y-47673085D01*
X97791079Y-47665851D01*
X97784513Y-47661081D01*
X97777233Y-47638675D01*
X97766539Y-47617687D01*
X97765300Y-47601950D01*
X97765300Y-47563602D01*
X97784513Y-47504471D01*
X97834813Y-47467926D01*
X97896987Y-47467926D01*
X97921791Y-47479957D01*
X97973772Y-47514690D01*
X97973776Y-47514692D01*
X97973779Y-47514694D01*
X98017972Y-47532999D01*
X98133690Y-47580931D01*
X98133691Y-47580931D01*
X98133693Y-47580932D01*
X98303456Y-47614700D01*
X98303457Y-47614700D01*
X98476543Y-47614700D01*
X98476544Y-47614700D01*
X98646307Y-47580932D01*
X98806221Y-47514694D01*
X98950139Y-47418531D01*
X99072531Y-47296139D01*
X99168694Y-47152221D01*
X99234932Y-46992307D01*
X99268700Y-46822544D01*
X99268700Y-46649456D01*
X99511300Y-46649456D01*
X99511300Y-46822543D01*
X99545068Y-46992309D01*
X99611304Y-47152217D01*
X99611308Y-47152225D01*
X99707467Y-47296137D01*
X99829862Y-47418532D01*
X99973774Y-47514691D01*
X99973776Y-47514692D01*
X99973779Y-47514694D01*
X100017972Y-47532999D01*
X100133690Y-47580931D01*
X100133691Y-47580931D01*
X100133693Y-47580932D01*
X100303456Y-47614700D01*
X100303457Y-47614700D01*
X100476543Y-47614700D01*
X100476544Y-47614700D01*
X100646307Y-47580932D01*
X100806221Y-47514694D01*
X100950139Y-47418531D01*
X101072531Y-47296139D01*
X101168694Y-47152221D01*
X101234932Y-46992307D01*
X101268700Y-46822544D01*
X101268700Y-46649456D01*
X101234932Y-46479693D01*
X101168694Y-46319779D01*
X101103899Y-46222807D01*
X101072532Y-46175862D01*
X100950137Y-46053467D01*
X100806225Y-45957308D01*
X100806217Y-45957304D01*
X100646309Y-45891068D01*
X100533131Y-45868556D01*
X100476544Y-45857300D01*
X100303456Y-45857300D01*
X100261015Y-45865742D01*
X100133690Y-45891068D01*
X99973782Y-45957304D01*
X99973774Y-45957308D01*
X99829862Y-46053467D01*
X99829861Y-46053469D01*
X99707469Y-46175861D01*
X99707467Y-46175862D01*
X99611308Y-46319774D01*
X99611304Y-46319782D01*
X99545068Y-46479690D01*
X99511300Y-46649456D01*
X99268700Y-46649456D01*
X99234932Y-46479693D01*
X99168694Y-46319779D01*
X99103899Y-46222807D01*
X99072532Y-46175862D01*
X98950137Y-46053467D01*
X98806225Y-45957308D01*
X98806217Y-45957304D01*
X98646309Y-45891068D01*
X98533131Y-45868556D01*
X98476544Y-45857300D01*
X98303456Y-45857300D01*
X98261015Y-45865742D01*
X98133690Y-45891068D01*
X97973782Y-45957304D01*
X97973774Y-45957308D01*
X97921790Y-45992043D01*
X97861950Y-46008919D01*
X97803619Y-45987400D01*
X97769077Y-45935703D01*
X97765300Y-45908397D01*
X97765300Y-44007602D01*
X97784513Y-43948471D01*
X97834813Y-43911926D01*
X97896987Y-43911926D01*
X97921791Y-43923957D01*
X97973772Y-43958690D01*
X97973776Y-43958692D01*
X97973779Y-43958694D01*
X98017972Y-43976999D01*
X98133690Y-44024931D01*
X98133691Y-44024931D01*
X98133693Y-44024932D01*
X98303456Y-44058700D01*
X98303457Y-44058700D01*
X98476543Y-44058700D01*
X98476544Y-44058700D01*
X98646307Y-44024932D01*
X98806221Y-43958694D01*
X98950139Y-43862531D01*
X99072531Y-43740139D01*
X99168694Y-43596221D01*
X99234932Y-43436307D01*
X99268700Y-43266544D01*
X99268700Y-43093456D01*
X99511300Y-43093456D01*
X99511300Y-43266543D01*
X99545068Y-43436309D01*
X99611304Y-43596217D01*
X99611308Y-43596225D01*
X99707467Y-43740137D01*
X99829862Y-43862532D01*
X99973774Y-43958691D01*
X99973776Y-43958692D01*
X99973779Y-43958694D01*
X100017972Y-43976999D01*
X100133690Y-44024931D01*
X100133691Y-44024931D01*
X100133693Y-44024932D01*
X100303456Y-44058700D01*
X100303457Y-44058700D01*
X100476543Y-44058700D01*
X100476544Y-44058700D01*
X100646307Y-44024932D01*
X100806221Y-43958694D01*
X100950139Y-43862531D01*
X101072531Y-43740139D01*
X101168694Y-43596221D01*
X101234932Y-43436307D01*
X101268700Y-43266544D01*
X101268700Y-43093456D01*
X101234932Y-42923693D01*
X101168694Y-42763779D01*
X101103899Y-42666807D01*
X101072532Y-42619862D01*
X100950137Y-42497467D01*
X100806225Y-42401308D01*
X100806217Y-42401304D01*
X100646309Y-42335068D01*
X100522886Y-42310518D01*
X100476544Y-42301300D01*
X100303456Y-42301300D01*
X100261015Y-42309742D01*
X100133690Y-42335068D01*
X99973782Y-42401304D01*
X99973774Y-42401308D01*
X99829862Y-42497467D01*
X99829861Y-42497469D01*
X99707469Y-42619861D01*
X99707467Y-42619862D01*
X99611308Y-42763774D01*
X99611304Y-42763782D01*
X99545068Y-42923690D01*
X99511300Y-43093456D01*
X99268700Y-43093456D01*
X99234932Y-42923693D01*
X99168694Y-42763779D01*
X99103899Y-42666807D01*
X99072532Y-42619862D01*
X98950137Y-42497467D01*
X98806225Y-42401308D01*
X98806217Y-42401304D01*
X98646309Y-42335068D01*
X98522886Y-42310518D01*
X98476544Y-42301300D01*
X98303456Y-42301300D01*
X98261015Y-42309742D01*
X98133690Y-42335068D01*
X97973782Y-42401304D01*
X97973774Y-42401308D01*
X97921790Y-42436043D01*
X97908313Y-42439843D01*
X97896987Y-42448073D01*
X97879133Y-42448073D01*
X97861950Y-42452919D01*
X97848814Y-42448073D01*
X97834813Y-42448073D01*
X97820370Y-42437579D01*
X97803619Y-42431400D01*
X97795839Y-42419757D01*
X97784513Y-42411528D01*
X97778995Y-42394547D01*
X97769077Y-42379703D01*
X97765300Y-42352397D01*
X97765300Y-42314049D01*
X97784513Y-42254918D01*
X97794759Y-42242920D01*
X98000642Y-42037036D01*
X98056037Y-42008812D01*
X98110275Y-42015232D01*
X98133690Y-42024931D01*
X98133691Y-42024931D01*
X98133693Y-42024932D01*
X98303456Y-42058700D01*
X98303457Y-42058700D01*
X98476543Y-42058700D01*
X98476544Y-42058700D01*
X98646307Y-42024932D01*
X98806221Y-41958694D01*
X98950139Y-41862531D01*
X99072531Y-41740139D01*
X99168694Y-41596221D01*
X99234932Y-41436307D01*
X99268700Y-41266544D01*
X99268700Y-41093456D01*
X99236187Y-40930000D01*
X99544322Y-40930000D01*
X100074314Y-40930000D01*
X100069920Y-40934394D01*
X100017259Y-41025606D01*
X99990000Y-41127339D01*
X99990000Y-41232661D01*
X100017259Y-41334394D01*
X100069920Y-41425606D01*
X100074314Y-41430000D01*
X99544323Y-41430000D01*
X99545547Y-41436155D01*
X99545551Y-41436169D01*
X99611746Y-41595978D01*
X99611746Y-41595979D01*
X99707856Y-41739818D01*
X99830181Y-41862143D01*
X99974016Y-41958251D01*
X100133840Y-42024450D01*
X100133844Y-42024451D01*
X100140000Y-42025676D01*
X100140000Y-41495686D01*
X100144394Y-41500080D01*
X100235606Y-41552741D01*
X100337339Y-41580000D01*
X100442661Y-41580000D01*
X100544394Y-41552741D01*
X100635606Y-41500080D01*
X100640000Y-41495686D01*
X100640000Y-42025675D01*
X100646155Y-42024451D01*
X100646159Y-42024450D01*
X100805983Y-41958251D01*
X100949818Y-41862143D01*
X100949820Y-41862142D01*
X101072142Y-41739820D01*
X101072143Y-41739818D01*
X101168253Y-41595979D01*
X101168253Y-41595978D01*
X101234448Y-41436169D01*
X101234452Y-41436155D01*
X101235677Y-41430000D01*
X100705686Y-41430000D01*
X100710080Y-41425606D01*
X100762741Y-41334394D01*
X100790000Y-41232661D01*
X100790000Y-41127339D01*
X100780921Y-41093456D01*
X101511300Y-41093456D01*
X101511300Y-41266543D01*
X101545068Y-41436309D01*
X101611304Y-41596217D01*
X101611308Y-41596225D01*
X101707467Y-41740137D01*
X101829862Y-41862532D01*
X101973774Y-41958691D01*
X101973776Y-41958692D01*
X101973779Y-41958694D01*
X101990872Y-41965774D01*
X102133690Y-42024931D01*
X102133691Y-42024931D01*
X102133693Y-42024932D01*
X102303456Y-42058700D01*
X102303457Y-42058700D01*
X102476543Y-42058700D01*
X102476544Y-42058700D01*
X102646307Y-42024932D01*
X102806221Y-41958694D01*
X102950139Y-41862531D01*
X103072531Y-41740139D01*
X103168694Y-41596221D01*
X103234932Y-41436307D01*
X103268700Y-41266544D01*
X103268700Y-41093456D01*
X103234932Y-40923693D01*
X103168694Y-40763779D01*
X103072531Y-40619861D01*
X102950139Y-40497469D01*
X102950137Y-40497467D01*
X102806225Y-40401308D01*
X102806217Y-40401304D01*
X102646309Y-40335068D01*
X102533131Y-40312556D01*
X102476544Y-40301300D01*
X102303456Y-40301300D01*
X102261015Y-40309742D01*
X102133690Y-40335068D01*
X101973782Y-40401304D01*
X101973774Y-40401308D01*
X101829862Y-40497467D01*
X101829861Y-40497469D01*
X101707469Y-40619861D01*
X101707467Y-40619862D01*
X101611308Y-40763774D01*
X101611304Y-40763782D01*
X101545068Y-40923690D01*
X101511300Y-41093456D01*
X100780921Y-41093456D01*
X100762741Y-41025606D01*
X100710080Y-40934394D01*
X100705686Y-40930000D01*
X101235677Y-40930000D01*
X101234452Y-40923844D01*
X101234448Y-40923830D01*
X101168253Y-40764021D01*
X101168253Y-40764020D01*
X101072143Y-40620181D01*
X100949818Y-40497856D01*
X100805979Y-40401746D01*
X100646169Y-40335551D01*
X100646155Y-40335547D01*
X100640000Y-40334322D01*
X100640000Y-40864314D01*
X100635606Y-40859920D01*
X100544394Y-40807259D01*
X100442661Y-40780000D01*
X100337339Y-40780000D01*
X100235606Y-40807259D01*
X100144394Y-40859920D01*
X100140000Y-40864314D01*
X100140000Y-40334322D01*
X100133844Y-40335547D01*
X100133830Y-40335551D01*
X99974021Y-40401746D01*
X99974020Y-40401746D01*
X99830181Y-40497856D01*
X99830180Y-40497858D01*
X99707858Y-40620180D01*
X99707856Y-40620181D01*
X99611746Y-40764020D01*
X99611746Y-40764021D01*
X99545551Y-40923830D01*
X99545547Y-40923844D01*
X99544322Y-40930000D01*
X99236187Y-40930000D01*
X99234932Y-40923693D01*
X99168694Y-40763779D01*
X99072531Y-40619861D01*
X98950139Y-40497469D01*
X98950137Y-40497467D01*
X98806225Y-40401308D01*
X98806217Y-40401304D01*
X98646309Y-40335068D01*
X98533131Y-40312556D01*
X98476544Y-40301300D01*
X98303456Y-40301300D01*
X98261015Y-40309742D01*
X98133690Y-40335068D01*
X97973782Y-40401304D01*
X97973774Y-40401308D01*
X97829862Y-40497467D01*
X97829861Y-40497469D01*
X97707469Y-40619861D01*
X97707467Y-40619862D01*
X97611308Y-40763774D01*
X97611304Y-40763782D01*
X97545068Y-40923690D01*
X97511300Y-41093456D01*
X97511300Y-41266543D01*
X97545067Y-41436307D01*
X97554768Y-41459727D01*
X97559645Y-41521710D01*
X97532960Y-41569358D01*
X97231547Y-41870772D01*
X97169974Y-41932344D01*
X97126434Y-42007756D01*
X97126433Y-42007758D01*
X97103901Y-42091855D01*
X97103900Y-42091863D01*
X97103900Y-42411999D01*
X97084687Y-42471130D01*
X97034387Y-42507675D01*
X96972213Y-42507675D01*
X96947410Y-42495645D01*
X96806225Y-42401308D01*
X96806217Y-42401304D01*
X96646309Y-42335068D01*
X96522886Y-42310518D01*
X96476544Y-42301300D01*
X96303456Y-42301300D01*
X96261015Y-42309742D01*
X96133690Y-42335068D01*
X95973782Y-42401304D01*
X95973774Y-42401308D01*
X95829862Y-42497467D01*
X95829861Y-42497469D01*
X95707469Y-42619861D01*
X95707467Y-42619862D01*
X95611308Y-42763774D01*
X95611304Y-42763782D01*
X95545068Y-42923690D01*
X95511300Y-43093456D01*
X95511300Y-43266543D01*
X95545068Y-43436309D01*
X95611304Y-43596217D01*
X95611308Y-43596225D01*
X95707467Y-43740137D01*
X95829862Y-43862532D01*
X95973774Y-43958691D01*
X95973776Y-43958692D01*
X95973779Y-43958694D01*
X96017972Y-43976999D01*
X96133690Y-44024931D01*
X96133691Y-44024931D01*
X96133693Y-44024932D01*
X96303456Y-44058700D01*
X96303457Y-44058700D01*
X96476543Y-44058700D01*
X96476544Y-44058700D01*
X96646307Y-44024932D01*
X96806221Y-43958694D01*
X96947411Y-43864353D01*
X97007249Y-43847478D01*
X97065580Y-43868997D01*
X97100123Y-43920693D01*
X97103900Y-43948000D01*
X97103900Y-45967999D01*
X97084687Y-46027130D01*
X97034387Y-46063675D01*
X96972213Y-46063675D01*
X96947410Y-46051645D01*
X96806225Y-45957308D01*
X96806217Y-45957304D01*
X96646309Y-45891068D01*
X96533131Y-45868556D01*
X96476544Y-45857300D01*
X96303456Y-45857300D01*
X96261015Y-45865742D01*
X96133690Y-45891068D01*
X95973782Y-45957304D01*
X95973774Y-45957308D01*
X95829862Y-46053467D01*
X95829861Y-46053469D01*
X95707469Y-46175861D01*
X95707467Y-46175862D01*
X95611308Y-46319774D01*
X95611304Y-46319782D01*
X95545068Y-46479690D01*
X95511300Y-46649456D01*
X95511300Y-46822543D01*
X95545068Y-46992309D01*
X95611304Y-47152217D01*
X95611308Y-47152225D01*
X95707467Y-47296137D01*
X95829862Y-47418532D01*
X95973774Y-47514691D01*
X95973776Y-47514692D01*
X95973779Y-47514694D01*
X96017972Y-47532999D01*
X96133690Y-47580931D01*
X96133691Y-47580931D01*
X96133693Y-47580932D01*
X96303456Y-47614700D01*
X96303457Y-47614700D01*
X96476543Y-47614700D01*
X96476544Y-47614700D01*
X96646307Y-47580932D01*
X96806221Y-47514694D01*
X96947411Y-47420353D01*
X97007249Y-47403478D01*
X97065580Y-47424997D01*
X97100123Y-47476693D01*
X97103900Y-47504000D01*
X97103900Y-47824140D01*
X97126433Y-47908241D01*
X97126434Y-47908243D01*
X97169974Y-47983655D01*
X97237276Y-48050957D01*
X97237282Y-48050962D01*
X97532960Y-48346640D01*
X97561186Y-48402038D01*
X97554769Y-48456268D01*
X97545068Y-48479690D01*
X97511300Y-48649456D01*
X97511300Y-48822543D01*
X97545068Y-48992309D01*
X97611304Y-49152217D01*
X97611308Y-49152225D01*
X97679319Y-49254010D01*
X97696195Y-49313849D01*
X97674676Y-49372181D01*
X97622980Y-49406723D01*
X97595673Y-49410500D01*
X97183725Y-49410500D01*
X97124594Y-49391287D01*
X97088049Y-49340987D01*
X97088049Y-49278813D01*
X97100079Y-49254010D01*
X97168253Y-49151979D01*
X97168253Y-49151978D01*
X97234448Y-48992169D01*
X97234452Y-48992155D01*
X97235677Y-48986000D01*
X96705686Y-48986000D01*
X96710080Y-48981606D01*
X96762741Y-48890394D01*
X96790000Y-48788661D01*
X96790000Y-48683339D01*
X96762741Y-48581606D01*
X96710080Y-48490394D01*
X96705686Y-48486000D01*
X97235677Y-48486000D01*
X97234452Y-48479844D01*
X97234448Y-48479830D01*
X97168253Y-48320021D01*
X97168253Y-48320020D01*
X97072143Y-48176181D01*
X96949818Y-48053856D01*
X96805979Y-47957746D01*
X96646169Y-47891551D01*
X96646155Y-47891547D01*
X96640000Y-47890322D01*
X96640000Y-48420314D01*
X96635606Y-48415920D01*
X96544394Y-48363259D01*
X96442661Y-48336000D01*
X96337339Y-48336000D01*
X96235606Y-48363259D01*
X96144394Y-48415920D01*
X96140000Y-48420314D01*
X96140000Y-47890322D01*
X96133844Y-47891547D01*
X96133830Y-47891551D01*
X95974021Y-47957746D01*
X95974020Y-47957746D01*
X95830181Y-48053856D01*
X95830180Y-48053858D01*
X95707858Y-48176180D01*
X95707856Y-48176181D01*
X95611746Y-48320020D01*
X95611746Y-48320021D01*
X95545551Y-48479830D01*
X95545547Y-48479844D01*
X95544322Y-48486000D01*
X96074314Y-48486000D01*
X96069920Y-48490394D01*
X96017259Y-48581606D01*
X95990000Y-48683339D01*
X95990000Y-48788661D01*
X96017259Y-48890394D01*
X96069920Y-48981606D01*
X96074314Y-48986000D01*
X95544323Y-48986000D01*
X95545547Y-48992155D01*
X95545551Y-48992169D01*
X95611746Y-49151978D01*
X95611746Y-49151979D01*
X95679921Y-49254010D01*
X95696797Y-49313850D01*
X95675278Y-49372181D01*
X95623582Y-49406723D01*
X95596275Y-49410500D01*
X95183725Y-49410500D01*
X95124594Y-49391287D01*
X95088049Y-49340987D01*
X95088049Y-49278813D01*
X95100079Y-49254010D01*
X95168253Y-49151979D01*
X95168253Y-49151978D01*
X95234448Y-48992169D01*
X95234452Y-48992155D01*
X95235677Y-48986000D01*
X94705686Y-48986000D01*
X94710080Y-48981606D01*
X94762741Y-48890394D01*
X94790000Y-48788661D01*
X94790000Y-48683339D01*
X94762741Y-48581606D01*
X94710080Y-48490394D01*
X94705686Y-48486000D01*
X95235677Y-48486000D01*
X95234452Y-48479844D01*
X95234448Y-48479830D01*
X95168253Y-48320021D01*
X95168253Y-48320020D01*
X95072143Y-48176181D01*
X94949818Y-48053856D01*
X94805979Y-47957746D01*
X94646169Y-47891551D01*
X94646155Y-47891547D01*
X94640000Y-47890322D01*
X94640000Y-48420314D01*
X94635606Y-48415920D01*
X94544394Y-48363259D01*
X94442661Y-48336000D01*
X94337339Y-48336000D01*
X94235606Y-48363259D01*
X94144394Y-48415920D01*
X94140000Y-48420314D01*
X94140000Y-47890322D01*
X94133844Y-47891547D01*
X94133830Y-47891551D01*
X93974021Y-47957746D01*
X93974020Y-47957746D01*
X93830181Y-48053856D01*
X93830180Y-48053858D01*
X93707858Y-48176180D01*
X93707856Y-48176181D01*
X93611746Y-48320020D01*
X93611746Y-48320021D01*
X93545551Y-48479830D01*
X93545547Y-48479844D01*
X93544322Y-48486000D01*
X94074314Y-48486000D01*
X94069920Y-48490394D01*
X94017259Y-48581606D01*
X93990000Y-48683339D01*
X93990000Y-48788661D01*
X94017259Y-48890394D01*
X94069920Y-48981606D01*
X94074314Y-48986000D01*
X93544323Y-48986000D01*
X93545547Y-48992155D01*
X93545551Y-48992169D01*
X93611746Y-49151978D01*
X93611746Y-49151979D01*
X93679921Y-49254010D01*
X93696797Y-49313850D01*
X93675278Y-49372181D01*
X93623582Y-49406723D01*
X93596275Y-49410500D01*
X93183725Y-49410500D01*
X93124594Y-49391287D01*
X93088049Y-49340987D01*
X93088049Y-49278813D01*
X93100079Y-49254010D01*
X93168253Y-49151979D01*
X93168253Y-49151978D01*
X93234448Y-48992169D01*
X93234452Y-48992155D01*
X93235677Y-48986000D01*
X92705686Y-48986000D01*
X92710080Y-48981606D01*
X92762741Y-48890394D01*
X92790000Y-48788661D01*
X92790000Y-48683339D01*
X92762741Y-48581606D01*
X92710080Y-48490394D01*
X92705686Y-48486000D01*
X93235677Y-48486000D01*
X93234452Y-48479844D01*
X93234448Y-48479830D01*
X93168253Y-48320021D01*
X93168253Y-48320020D01*
X93072143Y-48176181D01*
X92949818Y-48053856D01*
X92805979Y-47957746D01*
X92646169Y-47891551D01*
X92646155Y-47891547D01*
X92640000Y-47890322D01*
X92640000Y-48420314D01*
X92635606Y-48415920D01*
X92544394Y-48363259D01*
X92442661Y-48336000D01*
X92337339Y-48336000D01*
X92235606Y-48363259D01*
X92144394Y-48415920D01*
X92140000Y-48420314D01*
X92140000Y-47890322D01*
X92133844Y-47891547D01*
X92133830Y-47891551D01*
X91974021Y-47957746D01*
X91974020Y-47957746D01*
X91830181Y-48053856D01*
X91830180Y-48053858D01*
X91707858Y-48176180D01*
X91707856Y-48176181D01*
X91611746Y-48320020D01*
X91611746Y-48320021D01*
X91545551Y-48479830D01*
X91545547Y-48479844D01*
X91544322Y-48486000D01*
X92074314Y-48486000D01*
X92069920Y-48490394D01*
X92017259Y-48581606D01*
X91990000Y-48683339D01*
X91990000Y-48788661D01*
X92017259Y-48890394D01*
X92069920Y-48981606D01*
X92074314Y-48986000D01*
X91544323Y-48986000D01*
X91545547Y-48992155D01*
X91545551Y-48992169D01*
X91611746Y-49151978D01*
X91611746Y-49151979D01*
X91679921Y-49254010D01*
X91696797Y-49313850D01*
X91675278Y-49372181D01*
X91623582Y-49406723D01*
X91596275Y-49410500D01*
X91184327Y-49410500D01*
X91125196Y-49391287D01*
X91088651Y-49340987D01*
X91088651Y-49278813D01*
X91100681Y-49254010D01*
X91146712Y-49185119D01*
X91168694Y-49152221D01*
X91234932Y-48992307D01*
X91268700Y-48822544D01*
X91268700Y-48649456D01*
X91234932Y-48479693D01*
X91225230Y-48456271D01*
X91186704Y-48363259D01*
X91168694Y-48319779D01*
X91072531Y-48175861D01*
X90950139Y-48053469D01*
X90950137Y-48053467D01*
X90806225Y-47957308D01*
X90806217Y-47957304D01*
X90646309Y-47891068D01*
X90514455Y-47864841D01*
X90476544Y-47857300D01*
X90303456Y-47857300D01*
X90265545Y-47864841D01*
X90133690Y-47891068D01*
X89973782Y-47957304D01*
X89973774Y-47957308D01*
X89829862Y-48053467D01*
X89829861Y-48053469D01*
X89707469Y-48175861D01*
X89707467Y-48175862D01*
X89611308Y-48319774D01*
X89611304Y-48319782D01*
X89545068Y-48479690D01*
X89511300Y-48649456D01*
X89511300Y-48822543D01*
X89545068Y-48992309D01*
X89611304Y-49152217D01*
X89611308Y-49152225D01*
X89679319Y-49254010D01*
X89696195Y-49313849D01*
X89674676Y-49372181D01*
X89622980Y-49406723D01*
X89595673Y-49410500D01*
X89184327Y-49410500D01*
X89125196Y-49391287D01*
X89088651Y-49340987D01*
X89088651Y-49278813D01*
X89100681Y-49254010D01*
X89146712Y-49185119D01*
X89168694Y-49152221D01*
X89234932Y-48992307D01*
X89268700Y-48822544D01*
X89268700Y-48649456D01*
X89234932Y-48479693D01*
X89225230Y-48456271D01*
X89186704Y-48363259D01*
X89168694Y-48319779D01*
X89072531Y-48175861D01*
X88950139Y-48053469D01*
X88950137Y-48053467D01*
X88806225Y-47957308D01*
X88806217Y-47957304D01*
X88646309Y-47891068D01*
X88514455Y-47864841D01*
X88476544Y-47857300D01*
X88303456Y-47857300D01*
X88265545Y-47864841D01*
X88133690Y-47891068D01*
X87973782Y-47957304D01*
X87973774Y-47957308D01*
X87829862Y-48053467D01*
X87829861Y-48053469D01*
X87707469Y-48175861D01*
X87707467Y-48175862D01*
X87611308Y-48319774D01*
X87611304Y-48319782D01*
X87545068Y-48479690D01*
X87511300Y-48649456D01*
X87511300Y-48822543D01*
X87545068Y-48992309D01*
X87611304Y-49152217D01*
X87611308Y-49152225D01*
X87679319Y-49254010D01*
X87696195Y-49313849D01*
X87674676Y-49372181D01*
X87622980Y-49406723D01*
X87595673Y-49410500D01*
X87184327Y-49410500D01*
X87125196Y-49391287D01*
X87088651Y-49340987D01*
X87088651Y-49278813D01*
X87100681Y-49254010D01*
X87146712Y-49185119D01*
X87168694Y-49152221D01*
X87234932Y-48992307D01*
X87268700Y-48822544D01*
X87268700Y-48649456D01*
X87234932Y-48479693D01*
X87225230Y-48456271D01*
X87186704Y-48363259D01*
X87168694Y-48319779D01*
X87072531Y-48175861D01*
X86950139Y-48053469D01*
X86950137Y-48053467D01*
X86806225Y-47957308D01*
X86806217Y-47957304D01*
X86646309Y-47891068D01*
X86514455Y-47864841D01*
X86476544Y-47857300D01*
X86303456Y-47857300D01*
X86265545Y-47864841D01*
X86133690Y-47891068D01*
X85973782Y-47957304D01*
X85973774Y-47957308D01*
X85829862Y-48053467D01*
X85829861Y-48053469D01*
X85707469Y-48175861D01*
X85707467Y-48175862D01*
X85611308Y-48319774D01*
X85611304Y-48319782D01*
X85545068Y-48479690D01*
X85511300Y-48649456D01*
X85511300Y-48822543D01*
X85545068Y-48992309D01*
X85611304Y-49152217D01*
X85611308Y-49152225D01*
X85679319Y-49254010D01*
X85696195Y-49313849D01*
X85674676Y-49372181D01*
X85622980Y-49406723D01*
X85595673Y-49410500D01*
X85184327Y-49410500D01*
X85125196Y-49391287D01*
X85088651Y-49340987D01*
X85088651Y-49278813D01*
X85100681Y-49254010D01*
X85146712Y-49185119D01*
X85168694Y-49152221D01*
X85234932Y-48992307D01*
X85268700Y-48822544D01*
X85268700Y-48649456D01*
X85234932Y-48479693D01*
X85225230Y-48456271D01*
X85186704Y-48363259D01*
X85168694Y-48319779D01*
X85072531Y-48175861D01*
X84950139Y-48053469D01*
X84950137Y-48053467D01*
X84806225Y-47957308D01*
X84806217Y-47957304D01*
X84646309Y-47891068D01*
X84514455Y-47864841D01*
X84476544Y-47857300D01*
X84303456Y-47857300D01*
X84265545Y-47864841D01*
X84133690Y-47891068D01*
X83973782Y-47957304D01*
X83973774Y-47957308D01*
X83829862Y-48053467D01*
X83829861Y-48053469D01*
X83707469Y-48175861D01*
X83707467Y-48175862D01*
X83611308Y-48319774D01*
X83611304Y-48319782D01*
X83545068Y-48479690D01*
X83511300Y-48649456D01*
X83511300Y-48822543D01*
X83545068Y-48992309D01*
X83611304Y-49152217D01*
X83611308Y-49152225D01*
X83679319Y-49254010D01*
X83696195Y-49313849D01*
X83674676Y-49372181D01*
X83622980Y-49406723D01*
X83595673Y-49410500D01*
X83184327Y-49410500D01*
X83125196Y-49391287D01*
X83088651Y-49340987D01*
X83088651Y-49278813D01*
X83100681Y-49254010D01*
X83146712Y-49185119D01*
X83168694Y-49152221D01*
X83234932Y-48992307D01*
X83268700Y-48822544D01*
X83268700Y-48649456D01*
X83234932Y-48479693D01*
X83225230Y-48456271D01*
X83186704Y-48363259D01*
X83168694Y-48319779D01*
X83072531Y-48175861D01*
X82950139Y-48053469D01*
X82950137Y-48053467D01*
X82806225Y-47957308D01*
X82806217Y-47957304D01*
X82646309Y-47891068D01*
X82514455Y-47864841D01*
X82476544Y-47857300D01*
X82303456Y-47857300D01*
X82279299Y-47862105D01*
X82133692Y-47891067D01*
X82084871Y-47911289D01*
X82022888Y-47916166D01*
X81975240Y-47889481D01*
X81716365Y-47630606D01*
X81712679Y-47623372D01*
X81706113Y-47618602D01*
X81698833Y-47596196D01*
X81688139Y-47575208D01*
X81686900Y-47559471D01*
X81686900Y-47511217D01*
X81706113Y-47452086D01*
X81756413Y-47415541D01*
X81818587Y-47415541D01*
X81843390Y-47427571D01*
X81973774Y-47514691D01*
X81973776Y-47514692D01*
X81973779Y-47514694D01*
X82017972Y-47532999D01*
X82133690Y-47580931D01*
X82133691Y-47580931D01*
X82133693Y-47580932D01*
X82303456Y-47614700D01*
X82303457Y-47614700D01*
X82476543Y-47614700D01*
X82476544Y-47614700D01*
X82646307Y-47580932D01*
X82806221Y-47514694D01*
X82950139Y-47418531D01*
X83072531Y-47296139D01*
X83168694Y-47152221D01*
X83234932Y-46992307D01*
X83268700Y-46822544D01*
X83268700Y-46649456D01*
X83511300Y-46649456D01*
X83511300Y-46822543D01*
X83545068Y-46992309D01*
X83611304Y-47152217D01*
X83611308Y-47152225D01*
X83707467Y-47296137D01*
X83829862Y-47418532D01*
X83973774Y-47514691D01*
X83973776Y-47514692D01*
X83973779Y-47514694D01*
X84017972Y-47532999D01*
X84133690Y-47580931D01*
X84133691Y-47580931D01*
X84133693Y-47580932D01*
X84303456Y-47614700D01*
X84303457Y-47614700D01*
X84476543Y-47614700D01*
X84476544Y-47614700D01*
X84646307Y-47580932D01*
X84806221Y-47514694D01*
X84950139Y-47418531D01*
X85072531Y-47296139D01*
X85168694Y-47152221D01*
X85234932Y-46992307D01*
X85268700Y-46822544D01*
X85268700Y-46649456D01*
X85511300Y-46649456D01*
X85511300Y-46822543D01*
X85545068Y-46992309D01*
X85611304Y-47152217D01*
X85611308Y-47152225D01*
X85707467Y-47296137D01*
X85829862Y-47418532D01*
X85973774Y-47514691D01*
X85973776Y-47514692D01*
X85973779Y-47514694D01*
X86017972Y-47532999D01*
X86133690Y-47580931D01*
X86133691Y-47580931D01*
X86133693Y-47580932D01*
X86303456Y-47614700D01*
X86303457Y-47614700D01*
X86476543Y-47614700D01*
X86476544Y-47614700D01*
X86646307Y-47580932D01*
X86806221Y-47514694D01*
X86950139Y-47418531D01*
X87072531Y-47296139D01*
X87168694Y-47152221D01*
X87234932Y-46992307D01*
X87268700Y-46822544D01*
X87268700Y-46649456D01*
X87511300Y-46649456D01*
X87511300Y-46822543D01*
X87545068Y-46992309D01*
X87611304Y-47152217D01*
X87611308Y-47152225D01*
X87707467Y-47296137D01*
X87829862Y-47418532D01*
X87973774Y-47514691D01*
X87973776Y-47514692D01*
X87973779Y-47514694D01*
X88017972Y-47532999D01*
X88133690Y-47580931D01*
X88133691Y-47580931D01*
X88133693Y-47580932D01*
X88303456Y-47614700D01*
X88303457Y-47614700D01*
X88476543Y-47614700D01*
X88476544Y-47614700D01*
X88646307Y-47580932D01*
X88806221Y-47514694D01*
X88950139Y-47418531D01*
X89072531Y-47296139D01*
X89168694Y-47152221D01*
X89234932Y-46992307D01*
X89268700Y-46822544D01*
X89268700Y-46649456D01*
X89236187Y-46486000D01*
X89544322Y-46486000D01*
X90074314Y-46486000D01*
X90069920Y-46490394D01*
X90017259Y-46581606D01*
X89990000Y-46683339D01*
X89990000Y-46788661D01*
X90017259Y-46890394D01*
X90069920Y-46981606D01*
X90074314Y-46986000D01*
X89544323Y-46986000D01*
X89545547Y-46992155D01*
X89545551Y-46992169D01*
X89611746Y-47151978D01*
X89611746Y-47151979D01*
X89707856Y-47295818D01*
X89830181Y-47418143D01*
X89974016Y-47514251D01*
X90133840Y-47580450D01*
X90133844Y-47580451D01*
X90140000Y-47581676D01*
X90140000Y-47051686D01*
X90144394Y-47056080D01*
X90235606Y-47108741D01*
X90337339Y-47136000D01*
X90442661Y-47136000D01*
X90544394Y-47108741D01*
X90635606Y-47056080D01*
X90640000Y-47051686D01*
X90640000Y-47581675D01*
X90646155Y-47580451D01*
X90646159Y-47580450D01*
X90805983Y-47514251D01*
X90949818Y-47418143D01*
X90949820Y-47418142D01*
X91072142Y-47295820D01*
X91072143Y-47295818D01*
X91168253Y-47151979D01*
X91168253Y-47151978D01*
X91234448Y-46992169D01*
X91234452Y-46992155D01*
X91235677Y-46986000D01*
X90705686Y-46986000D01*
X90710080Y-46981606D01*
X90762741Y-46890394D01*
X90790000Y-46788661D01*
X90790000Y-46683339D01*
X90780921Y-46649456D01*
X91511300Y-46649456D01*
X91511300Y-46822543D01*
X91545068Y-46992309D01*
X91611304Y-47152217D01*
X91611308Y-47152225D01*
X91707467Y-47296137D01*
X91829862Y-47418532D01*
X91973774Y-47514691D01*
X91973776Y-47514692D01*
X91973779Y-47514694D01*
X92017972Y-47532999D01*
X92133690Y-47580931D01*
X92133691Y-47580931D01*
X92133693Y-47580932D01*
X92303456Y-47614700D01*
X92303457Y-47614700D01*
X92476543Y-47614700D01*
X92476544Y-47614700D01*
X92646307Y-47580932D01*
X92806221Y-47514694D01*
X92950139Y-47418531D01*
X93072531Y-47296139D01*
X93168694Y-47152221D01*
X93234932Y-46992307D01*
X93268700Y-46822544D01*
X93268700Y-46649456D01*
X93511300Y-46649456D01*
X93511300Y-46822543D01*
X93545068Y-46992309D01*
X93611304Y-47152217D01*
X93611308Y-47152225D01*
X93707467Y-47296137D01*
X93829862Y-47418532D01*
X93973774Y-47514691D01*
X93973776Y-47514692D01*
X93973779Y-47514694D01*
X94017972Y-47532999D01*
X94133690Y-47580931D01*
X94133691Y-47580931D01*
X94133693Y-47580932D01*
X94303456Y-47614700D01*
X94303457Y-47614700D01*
X94476543Y-47614700D01*
X94476544Y-47614700D01*
X94646307Y-47580932D01*
X94806221Y-47514694D01*
X94950139Y-47418531D01*
X95072531Y-47296139D01*
X95168694Y-47152221D01*
X95234932Y-46992307D01*
X95268700Y-46822544D01*
X95268700Y-46649456D01*
X95234932Y-46479693D01*
X95168694Y-46319779D01*
X95103899Y-46222807D01*
X95072532Y-46175862D01*
X94950137Y-46053467D01*
X94806225Y-45957308D01*
X94806217Y-45957304D01*
X94646309Y-45891068D01*
X94533131Y-45868556D01*
X94476544Y-45857300D01*
X94303456Y-45857300D01*
X94261015Y-45865742D01*
X94133690Y-45891068D01*
X93973782Y-45957304D01*
X93973774Y-45957308D01*
X93829862Y-46053467D01*
X93829861Y-46053469D01*
X93707469Y-46175861D01*
X93707467Y-46175862D01*
X93611308Y-46319774D01*
X93611304Y-46319782D01*
X93545068Y-46479690D01*
X93511300Y-46649456D01*
X93268700Y-46649456D01*
X93234932Y-46479693D01*
X93168694Y-46319779D01*
X93103899Y-46222807D01*
X93072532Y-46175862D01*
X92950137Y-46053467D01*
X92806225Y-45957308D01*
X92806217Y-45957304D01*
X92646309Y-45891068D01*
X92533131Y-45868556D01*
X92476544Y-45857300D01*
X92303456Y-45857300D01*
X92261015Y-45865742D01*
X92133690Y-45891068D01*
X91973782Y-45957304D01*
X91973774Y-45957308D01*
X91829862Y-46053467D01*
X91829861Y-46053469D01*
X91707469Y-46175861D01*
X91707467Y-46175862D01*
X91611308Y-46319774D01*
X91611304Y-46319782D01*
X91545068Y-46479690D01*
X91511300Y-46649456D01*
X90780921Y-46649456D01*
X90762741Y-46581606D01*
X90710080Y-46490394D01*
X90705686Y-46486000D01*
X91235677Y-46486000D01*
X91234452Y-46479844D01*
X91234448Y-46479830D01*
X91168253Y-46320021D01*
X91168253Y-46320020D01*
X91072143Y-46176181D01*
X90949818Y-46053856D01*
X90805979Y-45957746D01*
X90646169Y-45891551D01*
X90646155Y-45891547D01*
X90640000Y-45890322D01*
X90640000Y-46420314D01*
X90635606Y-46415920D01*
X90544394Y-46363259D01*
X90442661Y-46336000D01*
X90337339Y-46336000D01*
X90235606Y-46363259D01*
X90144394Y-46415920D01*
X90140000Y-46420314D01*
X90140000Y-45890322D01*
X90133844Y-45891547D01*
X90133830Y-45891551D01*
X89974021Y-45957746D01*
X89974020Y-45957746D01*
X89830181Y-46053856D01*
X89830180Y-46053858D01*
X89707858Y-46176180D01*
X89707856Y-46176181D01*
X89611746Y-46320020D01*
X89611746Y-46320021D01*
X89545551Y-46479830D01*
X89545547Y-46479844D01*
X89544322Y-46486000D01*
X89236187Y-46486000D01*
X89234932Y-46479693D01*
X89168694Y-46319779D01*
X89103899Y-46222807D01*
X89072532Y-46175862D01*
X88950137Y-46053467D01*
X88806225Y-45957308D01*
X88806217Y-45957304D01*
X88646309Y-45891068D01*
X88533131Y-45868556D01*
X88476544Y-45857300D01*
X88303456Y-45857300D01*
X88261015Y-45865742D01*
X88133690Y-45891068D01*
X87973782Y-45957304D01*
X87973774Y-45957308D01*
X87829862Y-46053467D01*
X87829861Y-46053469D01*
X87707469Y-46175861D01*
X87707467Y-46175862D01*
X87611308Y-46319774D01*
X87611304Y-46319782D01*
X87545068Y-46479690D01*
X87511300Y-46649456D01*
X87268700Y-46649456D01*
X87234932Y-46479693D01*
X87168694Y-46319779D01*
X87103899Y-46222807D01*
X87072532Y-46175862D01*
X86950137Y-46053467D01*
X86806225Y-45957308D01*
X86806217Y-45957304D01*
X86646309Y-45891068D01*
X86533131Y-45868556D01*
X86476544Y-45857300D01*
X86303456Y-45857300D01*
X86261015Y-45865742D01*
X86133690Y-45891068D01*
X85973782Y-45957304D01*
X85973774Y-45957308D01*
X85829862Y-46053467D01*
X85829861Y-46053469D01*
X85707469Y-46175861D01*
X85707467Y-46175862D01*
X85611308Y-46319774D01*
X85611304Y-46319782D01*
X85545068Y-46479690D01*
X85511300Y-46649456D01*
X85268700Y-46649456D01*
X85234932Y-46479693D01*
X85168694Y-46319779D01*
X85103899Y-46222807D01*
X85072532Y-46175862D01*
X84950137Y-46053467D01*
X84806225Y-45957308D01*
X84806217Y-45957304D01*
X84646309Y-45891068D01*
X84533131Y-45868556D01*
X84476544Y-45857300D01*
X84303456Y-45857300D01*
X84261015Y-45865742D01*
X84133690Y-45891068D01*
X83973782Y-45957304D01*
X83973774Y-45957308D01*
X83829862Y-46053467D01*
X83829861Y-46053469D01*
X83707469Y-46175861D01*
X83707467Y-46175862D01*
X83611308Y-46319774D01*
X83611304Y-46319782D01*
X83545068Y-46479690D01*
X83511300Y-46649456D01*
X83268700Y-46649456D01*
X83234932Y-46479693D01*
X83168694Y-46319779D01*
X83103899Y-46222807D01*
X83072532Y-46175862D01*
X82950137Y-46053467D01*
X82806225Y-45957308D01*
X82806217Y-45957304D01*
X82646309Y-45891068D01*
X82533131Y-45868556D01*
X82476544Y-45857300D01*
X82303456Y-45857300D01*
X82261015Y-45865742D01*
X82133690Y-45891068D01*
X81973782Y-45957304D01*
X81973774Y-45957308D01*
X81843390Y-46044428D01*
X81783550Y-46061304D01*
X81725219Y-46039785D01*
X81690677Y-45988089D01*
X81686900Y-45960782D01*
X81686900Y-45806808D01*
X81686899Y-45806804D01*
X81666094Y-45729159D01*
X81666094Y-45729158D01*
X81625899Y-45659540D01*
X80724765Y-44758406D01*
X80696539Y-44703008D01*
X80695300Y-44687271D01*
X80695300Y-44071857D01*
X80714513Y-44012726D01*
X80757401Y-43978915D01*
X80806221Y-43958694D01*
X80950139Y-43862531D01*
X81072531Y-43740139D01*
X81168694Y-43596221D01*
X81234932Y-43436307D01*
X81268700Y-43266544D01*
X81268700Y-43093456D01*
X81511300Y-43093456D01*
X81511300Y-43266543D01*
X81545068Y-43436309D01*
X81611304Y-43596217D01*
X81611308Y-43596225D01*
X81707467Y-43740137D01*
X81829862Y-43862532D01*
X81973774Y-43958691D01*
X81973776Y-43958692D01*
X81973779Y-43958694D01*
X82017972Y-43976999D01*
X82133690Y-44024931D01*
X82133691Y-44024931D01*
X82133693Y-44024932D01*
X82303456Y-44058700D01*
X82303457Y-44058700D01*
X82476543Y-44058700D01*
X82476544Y-44058700D01*
X82646307Y-44024932D01*
X82806221Y-43958694D01*
X82950139Y-43862531D01*
X83072531Y-43740139D01*
X83168694Y-43596221D01*
X83234932Y-43436307D01*
X83268700Y-43266544D01*
X83268700Y-43093456D01*
X83234932Y-42923693D01*
X83168694Y-42763779D01*
X83103899Y-42666807D01*
X83072532Y-42619862D01*
X82950137Y-42497467D01*
X82806225Y-42401308D01*
X82806217Y-42401304D01*
X82646309Y-42335068D01*
X82522886Y-42310518D01*
X82476544Y-42301300D01*
X82303456Y-42301300D01*
X82261015Y-42309742D01*
X82133690Y-42335068D01*
X81973782Y-42401304D01*
X81973774Y-42401308D01*
X81829862Y-42497467D01*
X81829861Y-42497469D01*
X81707469Y-42619861D01*
X81707467Y-42619862D01*
X81611308Y-42763774D01*
X81611304Y-42763782D01*
X81545068Y-42923690D01*
X81511300Y-43093456D01*
X81268700Y-43093456D01*
X81234932Y-42923693D01*
X81168694Y-42763779D01*
X81103899Y-42666807D01*
X81072532Y-42619862D01*
X80950137Y-42497467D01*
X80806225Y-42401308D01*
X80806217Y-42401304D01*
X80646309Y-42335068D01*
X80522886Y-42310518D01*
X80476544Y-42301300D01*
X80303456Y-42301300D01*
X80261015Y-42309742D01*
X80133690Y-42335068D01*
X79973782Y-42401304D01*
X79973774Y-42401308D01*
X79829862Y-42497467D01*
X79829861Y-42497469D01*
X79707469Y-42619861D01*
X79707467Y-42619862D01*
X79611308Y-42763774D01*
X79611304Y-42763782D01*
X79545068Y-42923690D01*
X79511300Y-43093456D01*
X79511300Y-43266543D01*
X79545068Y-43436309D01*
X79611304Y-43596217D01*
X79611308Y-43596225D01*
X79707467Y-43740137D01*
X79829862Y-43862532D01*
X79948105Y-43941539D01*
X79973779Y-43958694D01*
X80022598Y-43978915D01*
X80069875Y-44019293D01*
X80084700Y-44071857D01*
X80084700Y-44895595D01*
X80105506Y-44973242D01*
X80121818Y-45001495D01*
X80145700Y-45042859D01*
X80145702Y-45042861D01*
X80882080Y-45779239D01*
X80910306Y-45834637D01*
X80900580Y-45896045D01*
X80856616Y-45940009D01*
X80795208Y-45949735D01*
X80772447Y-45943316D01*
X80646309Y-45891068D01*
X80533131Y-45868556D01*
X80476544Y-45857300D01*
X80303456Y-45857300D01*
X80261015Y-45865742D01*
X80133690Y-45891068D01*
X79973782Y-45957304D01*
X79973774Y-45957308D01*
X79829862Y-46053467D01*
X79829861Y-46053469D01*
X79707469Y-46175861D01*
X79707467Y-46175862D01*
X79611308Y-46319774D01*
X79611304Y-46319782D01*
X79545068Y-46479690D01*
X79511300Y-46649456D01*
X79511300Y-46822543D01*
X79545068Y-46992309D01*
X79611304Y-47152217D01*
X79611308Y-47152225D01*
X79707467Y-47296137D01*
X79829862Y-47418532D01*
X79973774Y-47514691D01*
X79973776Y-47514692D01*
X79973779Y-47514694D01*
X80017972Y-47532999D01*
X80133690Y-47580931D01*
X80133691Y-47580931D01*
X80133693Y-47580932D01*
X80303456Y-47614700D01*
X80303457Y-47614700D01*
X80476543Y-47614700D01*
X80476544Y-47614700D01*
X80646307Y-47580932D01*
X80806221Y-47514694D01*
X80919811Y-47438795D01*
X80979649Y-47421920D01*
X81037981Y-47443439D01*
X81072523Y-47495135D01*
X81076300Y-47522442D01*
X81076300Y-47767793D01*
X81083038Y-47792938D01*
X81083038Y-47792939D01*
X81097104Y-47845438D01*
X81097106Y-47845441D01*
X81137300Y-47915059D01*
X81137302Y-47915061D01*
X81543481Y-48321240D01*
X81571707Y-48376638D01*
X81565289Y-48430871D01*
X81545067Y-48479692D01*
X81511300Y-48649456D01*
X81511300Y-48822543D01*
X81545068Y-48992309D01*
X81611304Y-49152217D01*
X81611308Y-49152225D01*
X81679319Y-49254010D01*
X81696195Y-49313849D01*
X81674676Y-49372181D01*
X81622980Y-49406723D01*
X81595673Y-49410500D01*
X81184327Y-49410500D01*
X81125196Y-49391287D01*
X81088651Y-49340987D01*
X81088651Y-49278813D01*
X81100681Y-49254010D01*
X81146712Y-49185119D01*
X81168694Y-49152221D01*
X81234932Y-48992307D01*
X81268700Y-48822544D01*
X81268700Y-48649456D01*
X81234932Y-48479693D01*
X81225230Y-48456271D01*
X81186704Y-48363259D01*
X81168694Y-48319779D01*
X81072531Y-48175861D01*
X80950139Y-48053469D01*
X80950137Y-48053467D01*
X80806225Y-47957308D01*
X80806217Y-47957304D01*
X80646309Y-47891068D01*
X80514455Y-47864841D01*
X80476544Y-47857300D01*
X80303456Y-47857300D01*
X80265545Y-47864841D01*
X80133690Y-47891068D01*
X79973782Y-47957304D01*
X79973774Y-47957308D01*
X79829862Y-48053467D01*
X79829861Y-48053469D01*
X79707469Y-48175861D01*
X79707467Y-48175862D01*
X79611308Y-48319774D01*
X79611304Y-48319782D01*
X79545068Y-48479690D01*
X79511300Y-48649456D01*
X79511300Y-48822543D01*
X79545068Y-48992309D01*
X79611304Y-49152217D01*
X79611308Y-49152225D01*
X79679319Y-49254010D01*
X79696195Y-49313849D01*
X79674676Y-49372181D01*
X79622980Y-49406723D01*
X79595673Y-49410500D01*
X79184327Y-49410500D01*
X79125196Y-49391287D01*
X79088651Y-49340987D01*
X79088651Y-49278813D01*
X79100681Y-49254010D01*
X79146712Y-49185119D01*
X79168694Y-49152221D01*
X79234932Y-48992307D01*
X79268700Y-48822544D01*
X79268700Y-48649456D01*
X79234932Y-48479693D01*
X79225230Y-48456271D01*
X79186704Y-48363259D01*
X79168694Y-48319779D01*
X79072531Y-48175861D01*
X78950139Y-48053469D01*
X78950137Y-48053467D01*
X78806225Y-47957308D01*
X78806217Y-47957304D01*
X78646309Y-47891068D01*
X78514455Y-47864841D01*
X78476544Y-47857300D01*
X78303456Y-47857300D01*
X78279299Y-47862105D01*
X78133692Y-47891067D01*
X78084872Y-47911289D01*
X78022890Y-47916166D01*
X77975241Y-47889481D01*
X77728565Y-47642805D01*
X77724879Y-47635571D01*
X77718313Y-47630801D01*
X77711033Y-47608395D01*
X77700339Y-47587407D01*
X77699100Y-47571670D01*
X77699100Y-47519368D01*
X77718313Y-47460237D01*
X77768613Y-47423692D01*
X77830787Y-47423692D01*
X77855589Y-47435722D01*
X77870738Y-47445844D01*
X77973772Y-47514690D01*
X77973776Y-47514692D01*
X77973779Y-47514694D01*
X78017972Y-47532999D01*
X78133690Y-47580931D01*
X78133691Y-47580931D01*
X78133693Y-47580932D01*
X78303456Y-47614700D01*
X78303457Y-47614700D01*
X78476543Y-47614700D01*
X78476544Y-47614700D01*
X78646307Y-47580932D01*
X78806221Y-47514694D01*
X78950139Y-47418531D01*
X79072531Y-47296139D01*
X79168694Y-47152221D01*
X79234932Y-46992307D01*
X79268700Y-46822544D01*
X79268700Y-46649456D01*
X79234932Y-46479693D01*
X79168694Y-46319779D01*
X79103899Y-46222807D01*
X79072532Y-46175862D01*
X78950137Y-46053467D01*
X78806225Y-45957308D01*
X78806217Y-45957304D01*
X78646309Y-45891068D01*
X78533131Y-45868556D01*
X78476544Y-45857300D01*
X78303456Y-45857300D01*
X78261015Y-45865742D01*
X78133690Y-45891068D01*
X77973782Y-45957304D01*
X77973774Y-45957308D01*
X77855590Y-46036277D01*
X77795751Y-46053153D01*
X77737419Y-46031634D01*
X77702877Y-45979938D01*
X77699100Y-45952631D01*
X77699100Y-43963368D01*
X77718313Y-43904237D01*
X77768613Y-43867692D01*
X77830787Y-43867692D01*
X77855591Y-43879723D01*
X77973772Y-43958690D01*
X77973776Y-43958692D01*
X77973779Y-43958694D01*
X78017972Y-43976999D01*
X78133690Y-44024931D01*
X78133691Y-44024931D01*
X78133693Y-44024932D01*
X78303456Y-44058700D01*
X78303457Y-44058700D01*
X78476543Y-44058700D01*
X78476544Y-44058700D01*
X78646307Y-44024932D01*
X78806221Y-43958694D01*
X78950139Y-43862531D01*
X79072531Y-43740139D01*
X79168694Y-43596221D01*
X79234932Y-43436307D01*
X79268700Y-43266544D01*
X79268700Y-43093456D01*
X79234932Y-42923693D01*
X79168694Y-42763779D01*
X79103899Y-42666807D01*
X79072532Y-42619862D01*
X78950137Y-42497467D01*
X78806225Y-42401308D01*
X78806217Y-42401304D01*
X78646309Y-42335068D01*
X78522886Y-42310518D01*
X78476544Y-42301300D01*
X78303456Y-42301300D01*
X78261015Y-42309742D01*
X78133690Y-42335068D01*
X77973782Y-42401304D01*
X77973774Y-42401308D01*
X77855590Y-42480277D01*
X77795751Y-42497153D01*
X77737419Y-42475634D01*
X77702877Y-42423938D01*
X77699100Y-42396631D01*
X77699100Y-41963368D01*
X77718313Y-41904237D01*
X77768613Y-41867692D01*
X77830787Y-41867692D01*
X77855589Y-41879722D01*
X77861538Y-41883697D01*
X77973772Y-41958690D01*
X77973776Y-41958692D01*
X77973779Y-41958694D01*
X77990872Y-41965774D01*
X78133690Y-42024931D01*
X78133691Y-42024931D01*
X78133693Y-42024932D01*
X78303456Y-42058700D01*
X78303457Y-42058700D01*
X78476543Y-42058700D01*
X78476544Y-42058700D01*
X78646307Y-42024932D01*
X78806221Y-41958694D01*
X78950139Y-41862531D01*
X79072531Y-41740139D01*
X79168694Y-41596221D01*
X79234932Y-41436307D01*
X79268700Y-41266544D01*
X79268700Y-41093456D01*
X79234932Y-40923693D01*
X79168694Y-40763779D01*
X79072531Y-40619861D01*
X78950139Y-40497469D01*
X78950137Y-40497467D01*
X78806225Y-40401308D01*
X78806217Y-40401304D01*
X78747160Y-40376842D01*
X78699883Y-40336464D01*
X78685368Y-40276007D01*
X78709161Y-40218566D01*
X78762173Y-40186080D01*
X78785658Y-40183300D01*
X79994342Y-40183300D01*
X80053473Y-40202513D01*
X80090018Y-40252813D01*
X80090018Y-40314987D01*
X80053473Y-40365287D01*
X80032840Y-40376842D01*
X79973782Y-40401304D01*
X79973774Y-40401308D01*
X79829862Y-40497467D01*
X79829861Y-40497469D01*
X79707469Y-40619861D01*
X79707467Y-40619862D01*
X79611308Y-40763774D01*
X79611304Y-40763782D01*
X79545068Y-40923690D01*
X79511300Y-41093456D01*
X79511300Y-41266543D01*
X79545068Y-41436309D01*
X79611304Y-41596217D01*
X79611308Y-41596225D01*
X79707467Y-41740137D01*
X79829862Y-41862532D01*
X79973774Y-41958691D01*
X79973776Y-41958692D01*
X79973779Y-41958694D01*
X79990872Y-41965774D01*
X80133690Y-42024931D01*
X80133691Y-42024931D01*
X80133693Y-42024932D01*
X80303456Y-42058700D01*
X80303457Y-42058700D01*
X80476543Y-42058700D01*
X80476544Y-42058700D01*
X80646307Y-42024932D01*
X80806221Y-41958694D01*
X80950139Y-41862531D01*
X81072531Y-41740139D01*
X81168694Y-41596221D01*
X81234932Y-41436307D01*
X81268700Y-41266544D01*
X81268700Y-41093456D01*
X81234932Y-40923693D01*
X81168694Y-40763779D01*
X81072531Y-40619861D01*
X80950139Y-40497469D01*
X80950137Y-40497467D01*
X80806225Y-40401308D01*
X80806217Y-40401304D01*
X80747160Y-40376842D01*
X80699883Y-40336464D01*
X80685368Y-40276007D01*
X80709161Y-40218566D01*
X80762173Y-40186080D01*
X80785658Y-40183300D01*
X81994342Y-40183300D01*
X82053473Y-40202513D01*
X82090018Y-40252813D01*
X82090018Y-40314987D01*
X82053473Y-40365287D01*
X82032840Y-40376842D01*
X81973782Y-40401304D01*
X81973774Y-40401308D01*
X81829862Y-40497467D01*
X81829861Y-40497469D01*
X81707469Y-40619861D01*
X81707467Y-40619862D01*
X81611308Y-40763774D01*
X81611304Y-40763782D01*
X81545068Y-40923690D01*
X81511300Y-41093456D01*
X81511300Y-41266543D01*
X81545068Y-41436309D01*
X81611304Y-41596217D01*
X81611308Y-41596225D01*
X81707467Y-41740137D01*
X81829862Y-41862532D01*
X81973774Y-41958691D01*
X81973776Y-41958692D01*
X81973779Y-41958694D01*
X81990872Y-41965774D01*
X82133690Y-42024931D01*
X82133691Y-42024931D01*
X82133693Y-42024932D01*
X82303456Y-42058700D01*
X82303457Y-42058700D01*
X82476543Y-42058700D01*
X82476544Y-42058700D01*
X82646307Y-42024932D01*
X82806221Y-41958694D01*
X82950139Y-41862531D01*
X83072531Y-41740139D01*
X83168694Y-41596221D01*
X83234932Y-41436307D01*
X83268700Y-41266544D01*
X83268700Y-41093456D01*
X83234932Y-40923693D01*
X83168694Y-40763779D01*
X83072531Y-40619861D01*
X82950139Y-40497469D01*
X82950137Y-40497467D01*
X82806225Y-40401308D01*
X82806217Y-40401304D01*
X82747160Y-40376842D01*
X82699883Y-40336464D01*
X82685368Y-40276007D01*
X82709161Y-40218566D01*
X82762173Y-40186080D01*
X82785658Y-40183300D01*
X83994342Y-40183300D01*
X84053473Y-40202513D01*
X84090018Y-40252813D01*
X84090018Y-40314987D01*
X84053473Y-40365287D01*
X84032840Y-40376842D01*
X83973782Y-40401304D01*
X83973774Y-40401308D01*
X83829862Y-40497467D01*
X83829861Y-40497469D01*
X83707469Y-40619861D01*
X83707467Y-40619862D01*
X83611308Y-40763774D01*
X83611304Y-40763782D01*
X83545068Y-40923690D01*
X83511300Y-41093456D01*
X83511300Y-41266543D01*
X83545068Y-41436309D01*
X83611304Y-41596217D01*
X83611308Y-41596225D01*
X83707467Y-41740137D01*
X83829862Y-41862532D01*
X83973774Y-41958691D01*
X83973776Y-41958692D01*
X83973779Y-41958694D01*
X83990872Y-41965774D01*
X84133690Y-42024931D01*
X84133691Y-42024931D01*
X84133693Y-42024932D01*
X84303456Y-42058700D01*
X84303457Y-42058700D01*
X84476543Y-42058700D01*
X84476544Y-42058700D01*
X84646307Y-42024932D01*
X84806221Y-41958694D01*
X84933011Y-41873975D01*
X84946486Y-41870175D01*
X84957813Y-41861946D01*
X84975666Y-41861946D01*
X84992849Y-41857100D01*
X85005985Y-41861946D01*
X85019987Y-41861946D01*
X85034430Y-41872439D01*
X85051181Y-41878619D01*
X85058960Y-41890261D01*
X85070287Y-41898491D01*
X85075803Y-41915469D01*
X85085723Y-41930315D01*
X85089500Y-41957622D01*
X85089500Y-42007069D01*
X85070287Y-42066200D01*
X85060035Y-42078204D01*
X84804757Y-42333481D01*
X84749359Y-42361707D01*
X84695124Y-42355288D01*
X84646309Y-42335068D01*
X84522886Y-42310518D01*
X84476544Y-42301300D01*
X84303456Y-42301300D01*
X84261015Y-42309742D01*
X84133690Y-42335068D01*
X83973782Y-42401304D01*
X83973774Y-42401308D01*
X83829862Y-42497467D01*
X83829861Y-42497469D01*
X83707469Y-42619861D01*
X83707467Y-42619862D01*
X83611308Y-42763774D01*
X83611304Y-42763782D01*
X83545068Y-42923690D01*
X83511300Y-43093456D01*
X83511300Y-43266543D01*
X83545068Y-43436309D01*
X83611304Y-43596217D01*
X83611308Y-43596225D01*
X83707467Y-43740137D01*
X83829862Y-43862532D01*
X83973774Y-43958691D01*
X83973776Y-43958692D01*
X83973779Y-43958694D01*
X84017972Y-43976999D01*
X84133690Y-44024931D01*
X84133691Y-44024931D01*
X84133693Y-44024932D01*
X84303456Y-44058700D01*
X84303457Y-44058700D01*
X84476543Y-44058700D01*
X84476544Y-44058700D01*
X84646307Y-44024932D01*
X84806221Y-43958694D01*
X84950139Y-43862531D01*
X85072531Y-43740139D01*
X85168694Y-43596221D01*
X85234932Y-43436307D01*
X85268700Y-43266544D01*
X85268700Y-43093456D01*
X85234932Y-42923693D01*
X85214709Y-42874872D01*
X85209831Y-42812893D01*
X85236515Y-42765243D01*
X85639101Y-42362659D01*
X85642109Y-42357450D01*
X85655461Y-42334322D01*
X85679294Y-42293041D01*
X85684830Y-42272380D01*
X85695062Y-42234194D01*
X85695062Y-42234192D01*
X85700100Y-42215393D01*
X85700100Y-41964037D01*
X85719313Y-41904906D01*
X85769613Y-41868361D01*
X85831787Y-41868361D01*
X85856590Y-41880391D01*
X85973774Y-41958691D01*
X85973776Y-41958692D01*
X85973779Y-41958694D01*
X85990872Y-41965774D01*
X86133690Y-42024931D01*
X86133691Y-42024931D01*
X86133693Y-42024932D01*
X86303456Y-42058700D01*
X86303457Y-42058700D01*
X86476543Y-42058700D01*
X86476544Y-42058700D01*
X86646307Y-42024932D01*
X86806221Y-41958694D01*
X86914210Y-41886537D01*
X86927686Y-41882737D01*
X86939013Y-41874508D01*
X86956866Y-41874508D01*
X86974049Y-41869662D01*
X86987185Y-41874508D01*
X87001187Y-41874508D01*
X87015630Y-41885001D01*
X87032381Y-41891181D01*
X87040160Y-41902823D01*
X87051487Y-41911053D01*
X87057003Y-41928031D01*
X87066923Y-41942877D01*
X87070700Y-41970184D01*
X87070700Y-42025869D01*
X87051487Y-42085000D01*
X87041235Y-42097004D01*
X86804757Y-42333481D01*
X86749359Y-42361707D01*
X86695124Y-42355288D01*
X86646309Y-42335068D01*
X86522886Y-42310518D01*
X86476544Y-42301300D01*
X86303456Y-42301300D01*
X86261015Y-42309742D01*
X86133690Y-42335068D01*
X85973782Y-42401304D01*
X85973774Y-42401308D01*
X85829862Y-42497467D01*
X85829861Y-42497469D01*
X85707469Y-42619861D01*
X85707467Y-42619862D01*
X85611308Y-42763774D01*
X85611304Y-42763782D01*
X85545068Y-42923690D01*
X85511300Y-43093456D01*
X85511300Y-43266543D01*
X85545068Y-43436309D01*
X85611304Y-43596217D01*
X85611308Y-43596225D01*
X85707467Y-43740137D01*
X85829862Y-43862532D01*
X85973774Y-43958691D01*
X85973776Y-43958692D01*
X85973779Y-43958694D01*
X86017972Y-43976999D01*
X86133690Y-44024931D01*
X86133691Y-44024931D01*
X86133693Y-44024932D01*
X86303456Y-44058700D01*
X86303457Y-44058700D01*
X86476543Y-44058700D01*
X86476544Y-44058700D01*
X86646307Y-44024932D01*
X86806221Y-43958694D01*
X86950139Y-43862531D01*
X87072531Y-43740139D01*
X87168694Y-43596221D01*
X87234932Y-43436307D01*
X87268700Y-43266544D01*
X87268700Y-43093456D01*
X87234932Y-42923693D01*
X87214709Y-42874872D01*
X87209831Y-42812893D01*
X87236515Y-42765243D01*
X87620301Y-42381459D01*
X87660494Y-42311841D01*
X87663318Y-42301300D01*
X87681300Y-42234193D01*
X87681300Y-41951475D01*
X87700513Y-41892344D01*
X87750813Y-41855799D01*
X87812987Y-41855799D01*
X87837787Y-41867827D01*
X87973779Y-41958694D01*
X87990872Y-41965774D01*
X88133690Y-42024931D01*
X88133691Y-42024931D01*
X88133693Y-42024932D01*
X88303456Y-42058700D01*
X88303457Y-42058700D01*
X88476543Y-42058700D01*
X88476544Y-42058700D01*
X88646307Y-42024932D01*
X88806221Y-41958694D01*
X88920810Y-41882127D01*
X88934286Y-41878327D01*
X88945613Y-41870098D01*
X88963466Y-41870098D01*
X88980649Y-41865252D01*
X88993785Y-41870098D01*
X89007787Y-41870098D01*
X89022230Y-41880591D01*
X89038981Y-41886771D01*
X89046760Y-41898413D01*
X89058087Y-41906643D01*
X89063603Y-41923621D01*
X89073523Y-41938467D01*
X89077300Y-41965774D01*
X89077300Y-42019270D01*
X89058087Y-42078401D01*
X89047835Y-42090405D01*
X88804758Y-42333481D01*
X88749360Y-42361707D01*
X88695126Y-42355289D01*
X88646305Y-42335067D01*
X88518695Y-42309684D01*
X88476544Y-42301300D01*
X88303456Y-42301300D01*
X88261015Y-42309742D01*
X88133690Y-42335068D01*
X87973782Y-42401304D01*
X87973774Y-42401308D01*
X87829862Y-42497467D01*
X87829861Y-42497469D01*
X87707469Y-42619861D01*
X87707467Y-42619862D01*
X87611308Y-42763774D01*
X87611304Y-42763782D01*
X87545068Y-42923690D01*
X87511300Y-43093456D01*
X87511300Y-43266543D01*
X87545068Y-43436309D01*
X87611304Y-43596217D01*
X87611308Y-43596225D01*
X87707467Y-43740137D01*
X87829862Y-43862532D01*
X87973774Y-43958691D01*
X87973776Y-43958692D01*
X87973779Y-43958694D01*
X88017972Y-43976999D01*
X88133690Y-44024931D01*
X88133691Y-44024931D01*
X88133693Y-44024932D01*
X88303456Y-44058700D01*
X88303457Y-44058700D01*
X88476543Y-44058700D01*
X88476544Y-44058700D01*
X88646307Y-44024932D01*
X88806221Y-43958694D01*
X88950139Y-43862531D01*
X89072531Y-43740139D01*
X89168694Y-43596221D01*
X89234932Y-43436307D01*
X89268700Y-43266544D01*
X89268700Y-43093456D01*
X89236187Y-42930000D01*
X89544322Y-42930000D01*
X90074314Y-42930000D01*
X90069920Y-42934394D01*
X90017259Y-43025606D01*
X89990000Y-43127339D01*
X89990000Y-43232661D01*
X90017259Y-43334394D01*
X90069920Y-43425606D01*
X90074314Y-43430000D01*
X89544323Y-43430000D01*
X89545547Y-43436155D01*
X89545551Y-43436169D01*
X89611746Y-43595978D01*
X89611746Y-43595979D01*
X89707856Y-43739818D01*
X89830181Y-43862143D01*
X89974016Y-43958251D01*
X90133840Y-44024450D01*
X90133844Y-44024451D01*
X90140000Y-44025676D01*
X90140000Y-43495686D01*
X90144394Y-43500080D01*
X90235606Y-43552741D01*
X90337339Y-43580000D01*
X90442661Y-43580000D01*
X90544394Y-43552741D01*
X90635606Y-43500080D01*
X90640000Y-43495686D01*
X90640000Y-44025676D01*
X90646155Y-44024451D01*
X90646159Y-44024450D01*
X90805983Y-43958251D01*
X90949818Y-43862143D01*
X90949820Y-43862142D01*
X91072142Y-43739820D01*
X91072143Y-43739818D01*
X91168253Y-43595979D01*
X91168253Y-43595978D01*
X91234448Y-43436169D01*
X91234452Y-43436155D01*
X91235677Y-43430000D01*
X90705686Y-43430000D01*
X90710080Y-43425606D01*
X90762741Y-43334394D01*
X90790000Y-43232661D01*
X90790000Y-43127339D01*
X90780921Y-43093456D01*
X91511300Y-43093456D01*
X91511300Y-43266543D01*
X91545068Y-43436309D01*
X91611304Y-43596217D01*
X91611308Y-43596225D01*
X91707467Y-43740137D01*
X91829862Y-43862532D01*
X91973774Y-43958691D01*
X91973776Y-43958692D01*
X91973779Y-43958694D01*
X92017972Y-43976999D01*
X92133690Y-44024931D01*
X92133691Y-44024931D01*
X92133693Y-44024932D01*
X92303456Y-44058700D01*
X92303457Y-44058700D01*
X92476543Y-44058700D01*
X92476544Y-44058700D01*
X92646307Y-44024932D01*
X92806221Y-43958694D01*
X92950139Y-43862531D01*
X93072531Y-43740139D01*
X93168694Y-43596221D01*
X93234932Y-43436307D01*
X93268700Y-43266544D01*
X93268700Y-43093456D01*
X93511300Y-43093456D01*
X93511300Y-43266543D01*
X93545068Y-43436309D01*
X93611304Y-43596217D01*
X93611308Y-43596225D01*
X93707467Y-43740137D01*
X93829862Y-43862532D01*
X93973774Y-43958691D01*
X93973776Y-43958692D01*
X93973779Y-43958694D01*
X94017972Y-43976999D01*
X94133690Y-44024931D01*
X94133691Y-44024931D01*
X94133693Y-44024932D01*
X94303456Y-44058700D01*
X94303457Y-44058700D01*
X94476543Y-44058700D01*
X94476544Y-44058700D01*
X94646307Y-44024932D01*
X94806221Y-43958694D01*
X94950139Y-43862531D01*
X95072531Y-43740139D01*
X95168694Y-43596221D01*
X95234932Y-43436307D01*
X95268700Y-43266544D01*
X95268700Y-43093456D01*
X95234932Y-42923693D01*
X95168694Y-42763779D01*
X95103899Y-42666807D01*
X95072532Y-42619862D01*
X94950137Y-42497467D01*
X94806225Y-42401308D01*
X94806217Y-42401304D01*
X94646309Y-42335068D01*
X94522886Y-42310518D01*
X94476544Y-42301300D01*
X94303456Y-42301300D01*
X94261015Y-42309742D01*
X94133690Y-42335068D01*
X93973782Y-42401304D01*
X93973774Y-42401308D01*
X93829862Y-42497467D01*
X93829861Y-42497469D01*
X93707469Y-42619861D01*
X93707467Y-42619862D01*
X93611308Y-42763774D01*
X93611304Y-42763782D01*
X93545068Y-42923690D01*
X93511300Y-43093456D01*
X93268700Y-43093456D01*
X93234932Y-42923693D01*
X93168694Y-42763779D01*
X93103899Y-42666807D01*
X93072532Y-42619862D01*
X92950137Y-42497467D01*
X92806225Y-42401308D01*
X92806217Y-42401304D01*
X92646309Y-42335068D01*
X92522886Y-42310518D01*
X92476544Y-42301300D01*
X92303456Y-42301300D01*
X92261015Y-42309742D01*
X92133690Y-42335068D01*
X91973782Y-42401304D01*
X91973774Y-42401308D01*
X91829862Y-42497467D01*
X91829861Y-42497469D01*
X91707469Y-42619861D01*
X91707467Y-42619862D01*
X91611308Y-42763774D01*
X91611304Y-42763782D01*
X91545068Y-42923690D01*
X91511300Y-43093456D01*
X90780921Y-43093456D01*
X90762741Y-43025606D01*
X90710080Y-42934394D01*
X90705686Y-42930000D01*
X91235677Y-42930000D01*
X91234452Y-42923844D01*
X91234448Y-42923830D01*
X91168253Y-42764021D01*
X91168253Y-42764020D01*
X91072143Y-42620181D01*
X90949818Y-42497856D01*
X90805979Y-42401746D01*
X90646169Y-42335551D01*
X90646155Y-42335547D01*
X90640000Y-42334322D01*
X90640000Y-42864314D01*
X90635606Y-42859920D01*
X90544394Y-42807259D01*
X90442661Y-42780000D01*
X90337339Y-42780000D01*
X90235606Y-42807259D01*
X90144394Y-42859920D01*
X90140000Y-42864314D01*
X90140000Y-42334322D01*
X90133844Y-42335547D01*
X90133830Y-42335551D01*
X89974021Y-42401746D01*
X89974020Y-42401746D01*
X89830181Y-42497856D01*
X89830180Y-42497858D01*
X89707858Y-42620180D01*
X89707856Y-42620181D01*
X89611746Y-42764020D01*
X89611746Y-42764021D01*
X89545551Y-42923830D01*
X89545547Y-42923844D01*
X89544322Y-42930000D01*
X89236187Y-42930000D01*
X89234932Y-42923693D01*
X89214709Y-42874871D01*
X89209831Y-42812892D01*
X89236515Y-42765242D01*
X89626900Y-42374859D01*
X89667094Y-42305242D01*
X89667095Y-42305239D01*
X89686038Y-42234542D01*
X89686039Y-42234538D01*
X89686537Y-42232677D01*
X89687900Y-42227593D01*
X89687900Y-41955885D01*
X89707113Y-41896754D01*
X89757413Y-41860209D01*
X89819587Y-41860209D01*
X89844387Y-41872237D01*
X89973779Y-41958694D01*
X89990872Y-41965774D01*
X90133690Y-42024931D01*
X90133691Y-42024931D01*
X90133693Y-42024932D01*
X90303456Y-42058700D01*
X90303457Y-42058700D01*
X90476543Y-42058700D01*
X90476544Y-42058700D01*
X90646307Y-42024932D01*
X90806221Y-41958694D01*
X90950139Y-41862531D01*
X91072531Y-41740139D01*
X91168694Y-41596221D01*
X91234932Y-41436307D01*
X91268700Y-41266544D01*
X91268700Y-41093456D01*
X91236187Y-40930000D01*
X91544322Y-40930000D01*
X92074314Y-40930000D01*
X92069920Y-40934394D01*
X92017259Y-41025606D01*
X91990000Y-41127339D01*
X91990000Y-41232661D01*
X92017259Y-41334394D01*
X92069920Y-41425606D01*
X92074314Y-41430000D01*
X91544323Y-41430000D01*
X91545547Y-41436155D01*
X91545551Y-41436169D01*
X91611746Y-41595978D01*
X91611746Y-41595979D01*
X91707856Y-41739818D01*
X91830181Y-41862143D01*
X91974016Y-41958251D01*
X92133840Y-42024450D01*
X92133844Y-42024451D01*
X92140000Y-42025676D01*
X92140000Y-41495686D01*
X92144394Y-41500080D01*
X92235606Y-41552741D01*
X92337339Y-41580000D01*
X92442661Y-41580000D01*
X92544394Y-41552741D01*
X92635606Y-41500080D01*
X92640000Y-41495686D01*
X92640000Y-42025676D01*
X92646155Y-42024451D01*
X92646159Y-42024450D01*
X92805983Y-41958251D01*
X92949818Y-41862143D01*
X92949820Y-41862142D01*
X93072142Y-41739820D01*
X93072143Y-41739818D01*
X93168253Y-41595979D01*
X93168253Y-41595978D01*
X93234448Y-41436169D01*
X93234452Y-41436155D01*
X93235677Y-41430000D01*
X92705686Y-41430000D01*
X92710080Y-41425606D01*
X92762741Y-41334394D01*
X92790000Y-41232661D01*
X92790000Y-41127339D01*
X92762741Y-41025606D01*
X92710080Y-40934394D01*
X92705686Y-40930000D01*
X93235677Y-40930000D01*
X93544322Y-40930000D01*
X94074314Y-40930000D01*
X94069920Y-40934394D01*
X94017259Y-41025606D01*
X93990000Y-41127339D01*
X93990000Y-41232661D01*
X94017259Y-41334394D01*
X94069920Y-41425606D01*
X94074314Y-41430000D01*
X93544323Y-41430000D01*
X93545547Y-41436155D01*
X93545551Y-41436169D01*
X93611746Y-41595978D01*
X93611746Y-41595979D01*
X93707856Y-41739818D01*
X93830181Y-41862143D01*
X93974016Y-41958251D01*
X94133840Y-42024450D01*
X94133844Y-42024451D01*
X94140000Y-42025676D01*
X94140000Y-41495686D01*
X94144394Y-41500080D01*
X94235606Y-41552741D01*
X94337339Y-41580000D01*
X94442661Y-41580000D01*
X94544394Y-41552741D01*
X94635606Y-41500080D01*
X94640000Y-41495686D01*
X94640000Y-42025676D01*
X94646155Y-42024451D01*
X94646159Y-42024450D01*
X94805983Y-41958251D01*
X94949818Y-41862143D01*
X94949820Y-41862142D01*
X95072142Y-41739820D01*
X95072143Y-41739818D01*
X95168253Y-41595979D01*
X95168253Y-41595978D01*
X95234448Y-41436169D01*
X95234452Y-41436155D01*
X95235677Y-41430000D01*
X94705686Y-41430000D01*
X94710080Y-41425606D01*
X94762741Y-41334394D01*
X94790000Y-41232661D01*
X94790000Y-41127339D01*
X94762741Y-41025606D01*
X94710080Y-40934394D01*
X94705686Y-40930000D01*
X95235677Y-40930000D01*
X95544322Y-40930000D01*
X96074314Y-40930000D01*
X96069920Y-40934394D01*
X96017259Y-41025606D01*
X95990000Y-41127339D01*
X95990000Y-41232661D01*
X96017259Y-41334394D01*
X96069920Y-41425606D01*
X96074314Y-41430000D01*
X95544323Y-41430000D01*
X95545547Y-41436155D01*
X95545551Y-41436169D01*
X95611746Y-41595978D01*
X95611746Y-41595979D01*
X95707856Y-41739818D01*
X95830181Y-41862143D01*
X95974016Y-41958251D01*
X96133840Y-42024450D01*
X96133844Y-42024451D01*
X96140000Y-42025676D01*
X96140000Y-41495686D01*
X96144394Y-41500080D01*
X96235606Y-41552741D01*
X96337339Y-41580000D01*
X96442661Y-41580000D01*
X96544394Y-41552741D01*
X96635606Y-41500080D01*
X96640000Y-41495686D01*
X96640000Y-42025676D01*
X96646155Y-42024451D01*
X96646159Y-42024450D01*
X96805983Y-41958251D01*
X96949818Y-41862143D01*
X96949820Y-41862142D01*
X97072142Y-41739820D01*
X97072143Y-41739818D01*
X97168253Y-41595979D01*
X97168253Y-41595978D01*
X97234448Y-41436169D01*
X97234452Y-41436155D01*
X97235677Y-41430000D01*
X96705686Y-41430000D01*
X96710080Y-41425606D01*
X96762741Y-41334394D01*
X96790000Y-41232661D01*
X96790000Y-41127339D01*
X96762741Y-41025606D01*
X96710080Y-40934394D01*
X96705686Y-40930000D01*
X97235677Y-40930000D01*
X97234452Y-40923844D01*
X97234448Y-40923830D01*
X97168253Y-40764021D01*
X97168253Y-40764020D01*
X97072143Y-40620181D01*
X96949818Y-40497856D01*
X96805979Y-40401746D01*
X96646169Y-40335551D01*
X96646155Y-40335547D01*
X96640000Y-40334322D01*
X96640000Y-40864314D01*
X96635606Y-40859920D01*
X96544394Y-40807259D01*
X96442661Y-40780000D01*
X96337339Y-40780000D01*
X96235606Y-40807259D01*
X96144394Y-40859920D01*
X96140000Y-40864314D01*
X96140000Y-40334322D01*
X96133844Y-40335547D01*
X96133830Y-40335551D01*
X95974021Y-40401746D01*
X95974020Y-40401746D01*
X95830181Y-40497856D01*
X95830180Y-40497858D01*
X95707858Y-40620180D01*
X95707856Y-40620181D01*
X95611746Y-40764020D01*
X95611746Y-40764021D01*
X95545551Y-40923830D01*
X95545547Y-40923844D01*
X95544322Y-40930000D01*
X95235677Y-40930000D01*
X95234452Y-40923844D01*
X95234448Y-40923830D01*
X95168253Y-40764021D01*
X95168253Y-40764020D01*
X95072143Y-40620181D01*
X94949818Y-40497856D01*
X94805979Y-40401746D01*
X94646169Y-40335551D01*
X94646155Y-40335547D01*
X94640000Y-40334322D01*
X94640000Y-40864314D01*
X94635606Y-40859920D01*
X94544394Y-40807259D01*
X94442661Y-40780000D01*
X94337339Y-40780000D01*
X94235606Y-40807259D01*
X94144394Y-40859920D01*
X94140000Y-40864314D01*
X94140000Y-40334322D01*
X94133844Y-40335547D01*
X94133830Y-40335551D01*
X93974021Y-40401746D01*
X93974020Y-40401746D01*
X93830181Y-40497856D01*
X93830180Y-40497858D01*
X93707858Y-40620180D01*
X93707856Y-40620181D01*
X93611746Y-40764020D01*
X93611746Y-40764021D01*
X93545551Y-40923830D01*
X93545547Y-40923844D01*
X93544322Y-40930000D01*
X93235677Y-40930000D01*
X93234452Y-40923844D01*
X93234448Y-40923830D01*
X93168253Y-40764021D01*
X93168253Y-40764020D01*
X93072143Y-40620181D01*
X92949818Y-40497856D01*
X92805979Y-40401746D01*
X92646169Y-40335551D01*
X92646155Y-40335547D01*
X92640000Y-40334322D01*
X92640000Y-40864314D01*
X92635606Y-40859920D01*
X92544394Y-40807259D01*
X92442661Y-40780000D01*
X92337339Y-40780000D01*
X92235606Y-40807259D01*
X92144394Y-40859920D01*
X92140000Y-40864314D01*
X92140000Y-40334322D01*
X92133844Y-40335547D01*
X92133830Y-40335551D01*
X91974021Y-40401746D01*
X91974020Y-40401746D01*
X91830181Y-40497856D01*
X91830180Y-40497858D01*
X91707858Y-40620180D01*
X91707856Y-40620181D01*
X91611746Y-40764020D01*
X91611746Y-40764021D01*
X91545551Y-40923830D01*
X91545547Y-40923844D01*
X91544322Y-40930000D01*
X91236187Y-40930000D01*
X91234932Y-40923693D01*
X91168694Y-40763779D01*
X91072531Y-40619861D01*
X90950139Y-40497469D01*
X90950137Y-40497467D01*
X90806225Y-40401308D01*
X90806217Y-40401304D01*
X90646309Y-40335068D01*
X90533131Y-40312556D01*
X90476544Y-40301300D01*
X90303456Y-40301300D01*
X90261015Y-40309742D01*
X90133690Y-40335068D01*
X89973782Y-40401304D01*
X89973774Y-40401308D01*
X89844390Y-40487760D01*
X89784550Y-40504636D01*
X89726219Y-40483117D01*
X89691677Y-40431421D01*
X89687900Y-40404114D01*
X89687900Y-39837808D01*
X89687899Y-39837804D01*
X89667094Y-39760159D01*
X89667094Y-39760158D01*
X89655939Y-39740837D01*
X89626900Y-39690541D01*
X88708594Y-38772235D01*
X88680368Y-38716837D01*
X88690094Y-38655429D01*
X88734058Y-38611465D01*
X88779729Y-38600500D01*
X114742108Y-38600500D01*
X114803053Y-38600500D01*
X114812914Y-38600984D01*
G37*
%TD.AperFunction*%
%TA.AperFunction,Conductor*%
G36*
X73842383Y-43870898D02*
G01*
X73973779Y-43958694D01*
X74017972Y-43976999D01*
X74133690Y-44024931D01*
X74133691Y-44024931D01*
X74133693Y-44024932D01*
X74303456Y-44058700D01*
X74303457Y-44058700D01*
X74476543Y-44058700D01*
X74476544Y-44058700D01*
X74646307Y-44024932D01*
X74806221Y-43958694D01*
X74925411Y-43879053D01*
X74985249Y-43862178D01*
X75043580Y-43883697D01*
X75078123Y-43935393D01*
X75081900Y-43962700D01*
X75081900Y-45953299D01*
X75062687Y-46012430D01*
X75012387Y-46048975D01*
X74950213Y-46048975D01*
X74925410Y-46036945D01*
X74806225Y-45957308D01*
X74806217Y-45957304D01*
X74646309Y-45891068D01*
X74533131Y-45868556D01*
X74476544Y-45857300D01*
X74303456Y-45857300D01*
X74261015Y-45865742D01*
X74133690Y-45891068D01*
X73973782Y-45957304D01*
X73973774Y-45957308D01*
X73842390Y-46045097D01*
X73782551Y-46061973D01*
X73724219Y-46040454D01*
X73689677Y-45988758D01*
X73685900Y-45961451D01*
X73685900Y-43954548D01*
X73705113Y-43895417D01*
X73755413Y-43858872D01*
X73817587Y-43858872D01*
X73842383Y-43870898D01*
G37*
%TD.AperFunction*%
%TA.AperFunction,Conductor*%
G36*
X77050180Y-43879287D02*
G01*
X77084723Y-43930983D01*
X77088500Y-43958290D01*
X77088500Y-45957709D01*
X77069287Y-46016840D01*
X77018987Y-46053385D01*
X76956813Y-46053385D01*
X76932010Y-46041355D01*
X76806225Y-45957308D01*
X76806217Y-45957304D01*
X76646309Y-45891068D01*
X76533131Y-45868556D01*
X76476544Y-45857300D01*
X76303456Y-45857300D01*
X76261015Y-45865742D01*
X76133690Y-45891068D01*
X75973782Y-45957304D01*
X75973774Y-45957308D01*
X75848990Y-46040687D01*
X75789151Y-46057563D01*
X75730819Y-46036044D01*
X75696277Y-45984348D01*
X75692500Y-45957041D01*
X75692500Y-43958958D01*
X75711713Y-43899827D01*
X75762013Y-43863282D01*
X75824187Y-43863282D01*
X75848984Y-43875308D01*
X75973779Y-43958694D01*
X76017972Y-43976999D01*
X76133690Y-44024931D01*
X76133691Y-44024931D01*
X76133693Y-44024932D01*
X76303456Y-44058700D01*
X76303457Y-44058700D01*
X76476543Y-44058700D01*
X76476544Y-44058700D01*
X76646307Y-44024932D01*
X76806221Y-43958694D01*
X76932011Y-43874643D01*
X76991849Y-43857768D01*
X77050180Y-43879287D01*
G37*
%TD.AperFunction*%
M02*
