%TF.GenerationSoftware,KiCad,Pcbnew,9.0.0*%
%TF.CreationDate,2025-06-08T16:33:52+02:00*%
%TF.ProjectId,ideswap,69646573-7761-4702-9e6b-696361645f70,A0*%
%TF.SameCoordinates,Original*%
%TF.FileFunction,Legend,Bot*%
%TF.FilePolarity,Positive*%
%FSLAX46Y46*%
G04 Gerber Fmt 4.6, Leading zero omitted, Abs format (unit mm)*
G04 Created by KiCad (PCBNEW 9.0.0) date 2025-06-08 16:33:52*
%MOMM*%
%LPD*%
G01*
G04 APERTURE LIST*
%ADD10C,0.100000*%
%ADD11R,1.350000X1.350000*%
%ADD12O,1.350000X1.350000*%
G04 APERTURE END LIST*
D10*
X114758115Y-39877419D02*
X114758115Y-38877419D01*
X114281925Y-39877419D02*
X114281925Y-38877419D01*
X114281925Y-38877419D02*
X114043830Y-38877419D01*
X114043830Y-38877419D02*
X113900973Y-38925038D01*
X113900973Y-38925038D02*
X113805735Y-39020276D01*
X113805735Y-39020276D02*
X113758116Y-39115514D01*
X113758116Y-39115514D02*
X113710497Y-39305990D01*
X113710497Y-39305990D02*
X113710497Y-39448847D01*
X113710497Y-39448847D02*
X113758116Y-39639323D01*
X113758116Y-39639323D02*
X113805735Y-39734561D01*
X113805735Y-39734561D02*
X113900973Y-39829800D01*
X113900973Y-39829800D02*
X114043830Y-39877419D01*
X114043830Y-39877419D02*
X114281925Y-39877419D01*
X113281925Y-39353609D02*
X112948592Y-39353609D01*
X112805735Y-39877419D02*
X113281925Y-39877419D01*
X113281925Y-39877419D02*
X113281925Y-38877419D01*
X113281925Y-38877419D02*
X112805735Y-38877419D01*
X111281925Y-39353609D02*
X111139068Y-39401228D01*
X111139068Y-39401228D02*
X111091449Y-39448847D01*
X111091449Y-39448847D02*
X111043830Y-39544085D01*
X111043830Y-39544085D02*
X111043830Y-39686942D01*
X111043830Y-39686942D02*
X111091449Y-39782180D01*
X111091449Y-39782180D02*
X111139068Y-39829800D01*
X111139068Y-39829800D02*
X111234306Y-39877419D01*
X111234306Y-39877419D02*
X111615258Y-39877419D01*
X111615258Y-39877419D02*
X111615258Y-38877419D01*
X111615258Y-38877419D02*
X111281925Y-38877419D01*
X111281925Y-38877419D02*
X111186687Y-38925038D01*
X111186687Y-38925038D02*
X111139068Y-38972657D01*
X111139068Y-38972657D02*
X111091449Y-39067895D01*
X111091449Y-39067895D02*
X111091449Y-39163133D01*
X111091449Y-39163133D02*
X111139068Y-39258371D01*
X111139068Y-39258371D02*
X111186687Y-39305990D01*
X111186687Y-39305990D02*
X111281925Y-39353609D01*
X111281925Y-39353609D02*
X111615258Y-39353609D01*
X110710496Y-39210752D02*
X110472401Y-39877419D01*
X110234306Y-39210752D02*
X110472401Y-39877419D01*
X110472401Y-39877419D02*
X110567639Y-40115514D01*
X110567639Y-40115514D02*
X110615258Y-40163133D01*
X110615258Y-40163133D02*
X110710496Y-40210752D01*
X109996210Y-39210752D02*
X109615258Y-39210752D01*
X109853353Y-38877419D02*
X109853353Y-39734561D01*
X109853353Y-39734561D02*
X109805734Y-39829800D01*
X109805734Y-39829800D02*
X109710496Y-39877419D01*
X109710496Y-39877419D02*
X109615258Y-39877419D01*
X108900972Y-39829800D02*
X108996210Y-39877419D01*
X108996210Y-39877419D02*
X109186686Y-39877419D01*
X109186686Y-39877419D02*
X109281924Y-39829800D01*
X109281924Y-39829800D02*
X109329543Y-39734561D01*
X109329543Y-39734561D02*
X109329543Y-39353609D01*
X109329543Y-39353609D02*
X109281924Y-39258371D01*
X109281924Y-39258371D02*
X109186686Y-39210752D01*
X109186686Y-39210752D02*
X108996210Y-39210752D01*
X108996210Y-39210752D02*
X108900972Y-39258371D01*
X108900972Y-39258371D02*
X108853353Y-39353609D01*
X108853353Y-39353609D02*
X108853353Y-39448847D01*
X108853353Y-39448847D02*
X109329543Y-39544085D01*
X108472400Y-39829800D02*
X108377162Y-39877419D01*
X108377162Y-39877419D02*
X108186686Y-39877419D01*
X108186686Y-39877419D02*
X108091448Y-39829800D01*
X108091448Y-39829800D02*
X108043829Y-39734561D01*
X108043829Y-39734561D02*
X108043829Y-39686942D01*
X108043829Y-39686942D02*
X108091448Y-39591704D01*
X108091448Y-39591704D02*
X108186686Y-39544085D01*
X108186686Y-39544085D02*
X108329543Y-39544085D01*
X108329543Y-39544085D02*
X108424781Y-39496466D01*
X108424781Y-39496466D02*
X108472400Y-39401228D01*
X108472400Y-39401228D02*
X108472400Y-39353609D01*
X108472400Y-39353609D02*
X108424781Y-39258371D01*
X108424781Y-39258371D02*
X108329543Y-39210752D01*
X108329543Y-39210752D02*
X108186686Y-39210752D01*
X108186686Y-39210752D02*
X108091448Y-39258371D01*
X107710495Y-39210752D02*
X107520019Y-39877419D01*
X107520019Y-39877419D02*
X107329543Y-39401228D01*
X107329543Y-39401228D02*
X107139067Y-39877419D01*
X107139067Y-39877419D02*
X106948591Y-39210752D01*
X106139067Y-39877419D02*
X106139067Y-39353609D01*
X106139067Y-39353609D02*
X106186686Y-39258371D01*
X106186686Y-39258371D02*
X106281924Y-39210752D01*
X106281924Y-39210752D02*
X106472400Y-39210752D01*
X106472400Y-39210752D02*
X106567638Y-39258371D01*
X106139067Y-39829800D02*
X106234305Y-39877419D01*
X106234305Y-39877419D02*
X106472400Y-39877419D01*
X106472400Y-39877419D02*
X106567638Y-39829800D01*
X106567638Y-39829800D02*
X106615257Y-39734561D01*
X106615257Y-39734561D02*
X106615257Y-39639323D01*
X106615257Y-39639323D02*
X106567638Y-39544085D01*
X106567638Y-39544085D02*
X106472400Y-39496466D01*
X106472400Y-39496466D02*
X106234305Y-39496466D01*
X106234305Y-39496466D02*
X106139067Y-39448847D01*
X105662876Y-39210752D02*
X105662876Y-40210752D01*
X105662876Y-39258371D02*
X105567638Y-39210752D01*
X105567638Y-39210752D02*
X105377162Y-39210752D01*
X105377162Y-39210752D02*
X105281924Y-39258371D01*
X105281924Y-39258371D02*
X105234305Y-39305990D01*
X105234305Y-39305990D02*
X105186686Y-39401228D01*
X105186686Y-39401228D02*
X105186686Y-39686942D01*
X105186686Y-39686942D02*
X105234305Y-39782180D01*
X105234305Y-39782180D02*
X105281924Y-39829800D01*
X105281924Y-39829800D02*
X105377162Y-39877419D01*
X105377162Y-39877419D02*
X105567638Y-39877419D01*
X105567638Y-39877419D02*
X105662876Y-39829800D01*
X103567638Y-39877419D02*
X103567638Y-39353609D01*
X103567638Y-39353609D02*
X103615257Y-39258371D01*
X103615257Y-39258371D02*
X103710495Y-39210752D01*
X103710495Y-39210752D02*
X103900971Y-39210752D01*
X103900971Y-39210752D02*
X103996209Y-39258371D01*
X103567638Y-39829800D02*
X103662876Y-39877419D01*
X103662876Y-39877419D02*
X103900971Y-39877419D01*
X103900971Y-39877419D02*
X103996209Y-39829800D01*
X103996209Y-39829800D02*
X104043828Y-39734561D01*
X104043828Y-39734561D02*
X104043828Y-39639323D01*
X104043828Y-39639323D02*
X103996209Y-39544085D01*
X103996209Y-39544085D02*
X103900971Y-39496466D01*
X103900971Y-39496466D02*
X103662876Y-39496466D01*
X103662876Y-39496466D02*
X103567638Y-39448847D01*
X102662876Y-39877419D02*
X102662876Y-38877419D01*
X102662876Y-39829800D02*
X102758114Y-39877419D01*
X102758114Y-39877419D02*
X102948590Y-39877419D01*
X102948590Y-39877419D02*
X103043828Y-39829800D01*
X103043828Y-39829800D02*
X103091447Y-39782180D01*
X103091447Y-39782180D02*
X103139066Y-39686942D01*
X103139066Y-39686942D02*
X103139066Y-39401228D01*
X103139066Y-39401228D02*
X103091447Y-39305990D01*
X103091447Y-39305990D02*
X103043828Y-39258371D01*
X103043828Y-39258371D02*
X102948590Y-39210752D01*
X102948590Y-39210752D02*
X102758114Y-39210752D01*
X102758114Y-39210752D02*
X102662876Y-39258371D01*
X101758114Y-39877419D02*
X101758114Y-39353609D01*
X101758114Y-39353609D02*
X101805733Y-39258371D01*
X101805733Y-39258371D02*
X101900971Y-39210752D01*
X101900971Y-39210752D02*
X102091447Y-39210752D01*
X102091447Y-39210752D02*
X102186685Y-39258371D01*
X101758114Y-39829800D02*
X101853352Y-39877419D01*
X101853352Y-39877419D02*
X102091447Y-39877419D01*
X102091447Y-39877419D02*
X102186685Y-39829800D01*
X102186685Y-39829800D02*
X102234304Y-39734561D01*
X102234304Y-39734561D02*
X102234304Y-39639323D01*
X102234304Y-39639323D02*
X102186685Y-39544085D01*
X102186685Y-39544085D02*
X102091447Y-39496466D01*
X102091447Y-39496466D02*
X101853352Y-39496466D01*
X101853352Y-39496466D02*
X101758114Y-39448847D01*
X101281923Y-39210752D02*
X101281923Y-40210752D01*
X101281923Y-39258371D02*
X101186685Y-39210752D01*
X101186685Y-39210752D02*
X100996209Y-39210752D01*
X100996209Y-39210752D02*
X100900971Y-39258371D01*
X100900971Y-39258371D02*
X100853352Y-39305990D01*
X100853352Y-39305990D02*
X100805733Y-39401228D01*
X100805733Y-39401228D02*
X100805733Y-39686942D01*
X100805733Y-39686942D02*
X100853352Y-39782180D01*
X100853352Y-39782180D02*
X100900971Y-39829800D01*
X100900971Y-39829800D02*
X100996209Y-39877419D01*
X100996209Y-39877419D02*
X101186685Y-39877419D01*
X101186685Y-39877419D02*
X101281923Y-39829800D01*
X100520018Y-39210752D02*
X100139066Y-39210752D01*
X100377161Y-38877419D02*
X100377161Y-39734561D01*
X100377161Y-39734561D02*
X100329542Y-39829800D01*
X100329542Y-39829800D02*
X100234304Y-39877419D01*
X100234304Y-39877419D02*
X100139066Y-39877419D01*
X99424780Y-39829800D02*
X99520018Y-39877419D01*
X99520018Y-39877419D02*
X99710494Y-39877419D01*
X99710494Y-39877419D02*
X99805732Y-39829800D01*
X99805732Y-39829800D02*
X99853351Y-39734561D01*
X99853351Y-39734561D02*
X99853351Y-39353609D01*
X99853351Y-39353609D02*
X99805732Y-39258371D01*
X99805732Y-39258371D02*
X99710494Y-39210752D01*
X99710494Y-39210752D02*
X99520018Y-39210752D01*
X99520018Y-39210752D02*
X99424780Y-39258371D01*
X99424780Y-39258371D02*
X99377161Y-39353609D01*
X99377161Y-39353609D02*
X99377161Y-39448847D01*
X99377161Y-39448847D02*
X99853351Y-39544085D01*
X98948589Y-39877419D02*
X98948589Y-39210752D01*
X98948589Y-39401228D02*
X98900970Y-39305990D01*
X98900970Y-39305990D02*
X98853351Y-39258371D01*
X98853351Y-39258371D02*
X98758113Y-39210752D01*
X98758113Y-39210752D02*
X98662875Y-39210752D01*
%LPC*%
D11*
X72390000Y-43180000D03*
D12*
X72390000Y-41180000D03*
X74390000Y-43180000D03*
X74390000Y-41180000D03*
X76390000Y-43180000D03*
X76390000Y-41180000D03*
X78390000Y-43180000D03*
X78390000Y-41180000D03*
X80390000Y-43180000D03*
X80390000Y-41180000D03*
X82390000Y-43180000D03*
X82390000Y-41180000D03*
X84390000Y-43180000D03*
X84390000Y-41180000D03*
X86390000Y-43180000D03*
X86390000Y-41180000D03*
X88390000Y-43180000D03*
X88390000Y-41180000D03*
X90390000Y-43180000D03*
X90390000Y-41180000D03*
X92390000Y-43180000D03*
X92390000Y-41180000D03*
X94390000Y-43180000D03*
X94390000Y-41180000D03*
X96390000Y-43180000D03*
X96390000Y-41180000D03*
X98390000Y-43180000D03*
X98390000Y-41180000D03*
X100390000Y-43180000D03*
X100390000Y-41180000D03*
X102390000Y-43180000D03*
X102390000Y-41180000D03*
X104390000Y-43180000D03*
X104390000Y-41180000D03*
X106390000Y-43180000D03*
X106390000Y-41180000D03*
X108390000Y-43180000D03*
X108390000Y-41180000D03*
X110390000Y-43180000D03*
X110390000Y-41180000D03*
X112390000Y-43180000D03*
X112390000Y-41180000D03*
X114390000Y-43180000D03*
X114390000Y-41180000D03*
D11*
X72390000Y-46736000D03*
D12*
X72390000Y-48736000D03*
X74390000Y-46736000D03*
X74390000Y-48736000D03*
X76390000Y-46736000D03*
X76390000Y-48736000D03*
X78390000Y-46736000D03*
X78390000Y-48736000D03*
X80390000Y-46736000D03*
X80390000Y-48736000D03*
X82390000Y-46736000D03*
X82390000Y-48736000D03*
X84390000Y-46736000D03*
X84390000Y-48736000D03*
X86390000Y-46736000D03*
X86390000Y-48736000D03*
X88390000Y-46736000D03*
X88390000Y-48736000D03*
X90390000Y-46736000D03*
X90390000Y-48736000D03*
X92390000Y-46736000D03*
X92390000Y-48736000D03*
X94390000Y-46736000D03*
X94390000Y-48736000D03*
X96390000Y-46736000D03*
X96390000Y-48736000D03*
X98390000Y-46736000D03*
X98390000Y-48736000D03*
X100390000Y-46736000D03*
X100390000Y-48736000D03*
X102390000Y-46736000D03*
X102390000Y-48736000D03*
X104390000Y-46736000D03*
X104390000Y-48736000D03*
X106390000Y-46736000D03*
X106390000Y-48736000D03*
X108390000Y-46736000D03*
X108390000Y-48736000D03*
X110390000Y-46736000D03*
X110390000Y-48736000D03*
X112390000Y-46736000D03*
X112390000Y-48736000D03*
X114390000Y-46736000D03*
X114390000Y-48736000D03*
%LPD*%
M02*
