%TF.GenerationSoftware,KiCad,Pcbnew,9.0.0*%
%TF.CreationDate,2025-06-08T16:33:52+02:00*%
%TF.ProjectId,ideswap,69646573-7761-4702-9e6b-696361645f70,A0*%
%TF.SameCoordinates,Original*%
%TF.FileFunction,Copper,L1,Top*%
%TF.FilePolarity,Positive*%
%FSLAX46Y46*%
G04 Gerber Fmt 4.6, Leading zero omitted, Abs format (unit mm)*
G04 Created by KiCad (PCBNEW 9.0.0) date 2025-06-08 16:33:52*
%MOMM*%
%LPD*%
G01*
G04 APERTURE LIST*
%TA.AperFunction,ComponentPad*%
%ADD10R,1.350000X1.350000*%
%TD*%
%TA.AperFunction,ComponentPad*%
%ADD11O,1.350000X1.350000*%
%TD*%
%TA.AperFunction,ViaPad*%
%ADD12C,0.600000*%
%TD*%
%TA.AperFunction,Conductor*%
%ADD13C,0.203200*%
%TD*%
%TA.AperFunction,Conductor*%
%ADD14C,0.254000*%
%TD*%
%TA.AperFunction,Conductor*%
%ADD15C,0.457200*%
%TD*%
G04 APERTURE END LIST*
D10*
X72390000Y-43180000D03*
D11*
X72390000Y-41180000D03*
X74390000Y-43180000D03*
X74390000Y-41180000D03*
X76390000Y-43180000D03*
X76390000Y-41180000D03*
X78390000Y-43180000D03*
X78390000Y-41180000D03*
X80390000Y-43180000D03*
X80390000Y-41180000D03*
X82390000Y-43180000D03*
X82390000Y-41180000D03*
X84390000Y-43180000D03*
X84390000Y-41180000D03*
X86390000Y-43180000D03*
X86390000Y-41180000D03*
X88390000Y-43180000D03*
X88390000Y-41180000D03*
X90390000Y-43180000D03*
X90390000Y-41180000D03*
X92390000Y-43180000D03*
X92390000Y-41180000D03*
X94390000Y-43180000D03*
X94390000Y-41180000D03*
X96390000Y-43180000D03*
X96390000Y-41180000D03*
X98390000Y-43180000D03*
X98390000Y-41180000D03*
X100390000Y-43180000D03*
X100390000Y-41180000D03*
X102390000Y-43180000D03*
X102390000Y-41180000D03*
X104390000Y-43180000D03*
X104390000Y-41180000D03*
X106390000Y-43180000D03*
X106390000Y-41180000D03*
X108390000Y-43180000D03*
X108390000Y-41180000D03*
X110390000Y-43180000D03*
X110390000Y-41180000D03*
X112390000Y-43180000D03*
X112390000Y-41180000D03*
X114390000Y-43180000D03*
X114390000Y-41180000D03*
D10*
X72390000Y-46736000D03*
D11*
X72390000Y-48736000D03*
X74390000Y-46736000D03*
X74390000Y-48736000D03*
X76390000Y-46736000D03*
X76390000Y-48736000D03*
X78390000Y-46736000D03*
X78390000Y-48736000D03*
X80390000Y-46736000D03*
X80390000Y-48736000D03*
X82390000Y-46736000D03*
X82390000Y-48736000D03*
X84390000Y-46736000D03*
X84390000Y-48736000D03*
X86390000Y-46736000D03*
X86390000Y-48736000D03*
X88390000Y-46736000D03*
X88390000Y-48736000D03*
X90390000Y-46736000D03*
X90390000Y-48736000D03*
X92390000Y-46736000D03*
X92390000Y-48736000D03*
X94390000Y-46736000D03*
X94390000Y-48736000D03*
X96390000Y-46736000D03*
X96390000Y-48736000D03*
X98390000Y-46736000D03*
X98390000Y-48736000D03*
X100390000Y-46736000D03*
X100390000Y-48736000D03*
X102390000Y-46736000D03*
X102390000Y-48736000D03*
X104390000Y-46736000D03*
X104390000Y-48736000D03*
X106390000Y-46736000D03*
X106390000Y-48736000D03*
X108390000Y-46736000D03*
X108390000Y-48736000D03*
X110390000Y-46736000D03*
X110390000Y-48736000D03*
X112390000Y-46736000D03*
X112390000Y-48736000D03*
X114390000Y-46736000D03*
X114390000Y-48736000D03*
D12*
X109372400Y-45212000D03*
X114300000Y-45212000D03*
X83693000Y-45212000D03*
X90805000Y-45212000D03*
X74422000Y-45085000D03*
X95250000Y-45212000D03*
X86360000Y-45212000D03*
X76454000Y-45085000D03*
X88392000Y-45212000D03*
X93345000Y-45212000D03*
X79121000Y-45212000D03*
X99390200Y-45212000D03*
X101346000Y-45212000D03*
D13*
X76390000Y-46736000D02*
X75387200Y-45733200D01*
X75387200Y-40309800D02*
X76352400Y-39344600D01*
X76352400Y-39344600D02*
X84556600Y-39344600D01*
X75387200Y-45733200D02*
X75387200Y-40309800D01*
X84556600Y-39344600D02*
X86390000Y-41178000D01*
X86390000Y-41178000D02*
X86390000Y-41180000D01*
X78390000Y-46736000D02*
X77393800Y-45739800D01*
X83113400Y-39903400D02*
X84390000Y-41180000D01*
X77393800Y-45739800D02*
X77393800Y-40462200D01*
X77393800Y-40462200D02*
X77952600Y-39903400D01*
X77952600Y-39903400D02*
X83113400Y-39903400D01*
X74390000Y-46736000D02*
X73406000Y-45752000D01*
X73406000Y-45752000D02*
X73406000Y-40386000D01*
X75057000Y-38735000D02*
X85953600Y-38735000D01*
X73406000Y-40386000D02*
X75057000Y-38735000D01*
X85953600Y-38735000D02*
X88390000Y-41171400D01*
X88390000Y-41171400D02*
X88390000Y-41180000D01*
D14*
X112390000Y-46736000D02*
X112390000Y-43180000D01*
X110390000Y-46736000D02*
X110390000Y-43180000D01*
X108390000Y-46736000D02*
X108390000Y-43180000D01*
X106390000Y-46736000D02*
X106390000Y-43180000D01*
X104390000Y-46736000D02*
X104390000Y-43180000D01*
X102390000Y-46736000D02*
X102390000Y-43180000D01*
X100390000Y-46736000D02*
X100390000Y-43180000D01*
X98390000Y-46736000D02*
X98390000Y-43180000D01*
X96390000Y-46736000D02*
X96390000Y-43180000D01*
X94390000Y-46736000D02*
X94390000Y-43180000D01*
X92390000Y-46736000D02*
X92390000Y-43180000D01*
D15*
X72390000Y-43180000D02*
X72390000Y-46736000D01*
D13*
X80390000Y-45187600D02*
X80390000Y-46736000D01*
X80390000Y-45187600D02*
X81407000Y-44170600D01*
X81407000Y-44170600D02*
X81407000Y-42163000D01*
X81407000Y-42163000D02*
X82390000Y-41180000D01*
%TA.AperFunction,Conductor*%
G36*
X74576001Y-38619713D02*
G01*
X74612546Y-38670013D01*
X74612546Y-38732187D01*
X74588005Y-38772235D01*
X73161699Y-40198541D01*
X73155836Y-40208698D01*
X73155835Y-40208700D01*
X73144742Y-40227913D01*
X73121506Y-40268158D01*
X73100700Y-40345804D01*
X73100700Y-40410463D01*
X73081487Y-40469594D01*
X73031187Y-40506139D01*
X72969013Y-40506139D01*
X72944210Y-40494109D01*
X72805979Y-40401746D01*
X72646169Y-40335551D01*
X72646155Y-40335547D01*
X72640000Y-40334322D01*
X72640000Y-40864314D01*
X72635606Y-40859920D01*
X72544394Y-40807259D01*
X72442661Y-40780000D01*
X72337339Y-40780000D01*
X72235606Y-40807259D01*
X72144394Y-40859920D01*
X72140000Y-40864314D01*
X72140000Y-40334322D01*
X72133844Y-40335547D01*
X72133830Y-40335551D01*
X71974021Y-40401746D01*
X71974020Y-40401746D01*
X71830181Y-40497856D01*
X71830180Y-40497858D01*
X71707858Y-40620180D01*
X71707856Y-40620181D01*
X71611746Y-40764020D01*
X71611746Y-40764021D01*
X71545551Y-40923830D01*
X71545547Y-40923844D01*
X71544322Y-40930000D01*
X72074314Y-40930000D01*
X72069920Y-40934394D01*
X72017259Y-41025606D01*
X71990000Y-41127339D01*
X71990000Y-41232661D01*
X72017259Y-41334394D01*
X72069920Y-41425606D01*
X72074314Y-41430000D01*
X71544323Y-41430000D01*
X71545547Y-41436155D01*
X71545551Y-41436169D01*
X71611746Y-41595978D01*
X71611746Y-41595979D01*
X71707856Y-41739818D01*
X71830181Y-41862143D01*
X71974016Y-41958251D01*
X72133840Y-42024450D01*
X72133844Y-42024451D01*
X72140000Y-42025676D01*
X72140000Y-41495686D01*
X72144394Y-41500080D01*
X72235606Y-41552741D01*
X72337339Y-41580000D01*
X72442661Y-41580000D01*
X72544394Y-41552741D01*
X72635606Y-41500080D01*
X72640000Y-41495686D01*
X72640000Y-42025675D01*
X72646155Y-42024451D01*
X72646159Y-42024450D01*
X72805980Y-41958252D01*
X72944209Y-41865890D01*
X73004049Y-41849014D01*
X73062381Y-41870533D01*
X73096923Y-41922229D01*
X73100700Y-41949536D01*
X73100700Y-42200700D01*
X73081487Y-42259831D01*
X73031187Y-42296376D01*
X73000100Y-42301300D01*
X71694936Y-42301300D01*
X71685078Y-42303260D01*
X71635520Y-42313118D01*
X71568140Y-42358140D01*
X71523118Y-42425520D01*
X71513225Y-42475257D01*
X71511300Y-42484936D01*
X71511300Y-43875064D01*
X71511455Y-43875844D01*
X71523118Y-43934479D01*
X71523119Y-43934480D01*
X71568140Y-44001860D01*
X71635520Y-44046881D01*
X71694936Y-44058700D01*
X71857100Y-44058700D01*
X71916231Y-44077913D01*
X71952776Y-44128213D01*
X71957700Y-44159300D01*
X71957700Y-45756700D01*
X71938487Y-45815831D01*
X71888187Y-45852376D01*
X71857100Y-45857300D01*
X71694936Y-45857300D01*
X71685078Y-45859260D01*
X71635520Y-45869118D01*
X71568140Y-45914140D01*
X71523118Y-45981520D01*
X71511300Y-46040936D01*
X71511300Y-47431063D01*
X71523118Y-47490479D01*
X71523119Y-47490480D01*
X71568140Y-47557860D01*
X71635520Y-47602881D01*
X71694936Y-47614700D01*
X71694937Y-47614700D01*
X73085063Y-47614700D01*
X73085064Y-47614700D01*
X73144480Y-47602881D01*
X73211860Y-47557860D01*
X73256881Y-47490480D01*
X73268700Y-47431064D01*
X73268700Y-46289329D01*
X73287913Y-46230198D01*
X73338213Y-46193653D01*
X73400387Y-46193653D01*
X73440435Y-46218194D01*
X73543481Y-46321240D01*
X73571707Y-46376638D01*
X73565289Y-46430871D01*
X73545067Y-46479692D01*
X73511300Y-46649456D01*
X73511300Y-46822543D01*
X73545068Y-46992309D01*
X73611304Y-47152217D01*
X73611308Y-47152225D01*
X73707467Y-47296137D01*
X73829862Y-47418532D01*
X73973774Y-47514691D01*
X73973776Y-47514692D01*
X73973779Y-47514694D01*
X74053736Y-47547813D01*
X74133690Y-47580931D01*
X74133691Y-47580931D01*
X74133693Y-47580932D01*
X74303456Y-47614700D01*
X74303457Y-47614700D01*
X74476543Y-47614700D01*
X74476544Y-47614700D01*
X74646307Y-47580932D01*
X74806221Y-47514694D01*
X74950139Y-47418531D01*
X75072531Y-47296139D01*
X75168694Y-47152221D01*
X75234932Y-46992307D01*
X75268700Y-46822544D01*
X75268700Y-46649456D01*
X75234932Y-46479693D01*
X75214709Y-46430871D01*
X75175413Y-46336000D01*
X75168694Y-46319779D01*
X75084419Y-46193653D01*
X75072532Y-46175862D01*
X74950137Y-46053467D01*
X74806225Y-45957308D01*
X74806217Y-45957304D01*
X74646309Y-45891068D01*
X74511489Y-45864251D01*
X74476544Y-45857300D01*
X74303456Y-45857300D01*
X74279299Y-45862105D01*
X74133692Y-45891067D01*
X74084871Y-45911289D01*
X74022888Y-45916166D01*
X73975240Y-45889481D01*
X73740765Y-45655006D01*
X73712539Y-45599608D01*
X73711300Y-45583871D01*
X73711300Y-43971520D01*
X73730513Y-43912389D01*
X73780813Y-43875844D01*
X73842987Y-43875844D01*
X73867785Y-43887871D01*
X73973779Y-43958694D01*
X73997195Y-43968393D01*
X74133690Y-44024931D01*
X74133691Y-44024931D01*
X74133693Y-44024932D01*
X74303456Y-44058700D01*
X74303457Y-44058700D01*
X74476543Y-44058700D01*
X74476544Y-44058700D01*
X74646307Y-44024932D01*
X74806221Y-43958694D01*
X74925411Y-43879053D01*
X74985249Y-43862178D01*
X75043580Y-43883697D01*
X75078123Y-43935393D01*
X75081900Y-43962700D01*
X75081900Y-45773395D01*
X75086937Y-45792189D01*
X75086938Y-45792194D01*
X75102704Y-45851036D01*
X75102704Y-45851038D01*
X75106517Y-45857642D01*
X75142900Y-45920659D01*
X75142902Y-45920661D01*
X75543481Y-46321240D01*
X75571707Y-46376638D01*
X75565289Y-46430871D01*
X75545067Y-46479692D01*
X75511300Y-46649456D01*
X75511300Y-46822543D01*
X75545068Y-46992309D01*
X75611304Y-47152217D01*
X75611308Y-47152225D01*
X75707467Y-47296137D01*
X75829862Y-47418532D01*
X75973774Y-47514691D01*
X75973776Y-47514692D01*
X75973779Y-47514694D01*
X76053736Y-47547813D01*
X76133690Y-47580931D01*
X76133691Y-47580931D01*
X76133693Y-47580932D01*
X76303456Y-47614700D01*
X76303457Y-47614700D01*
X76476543Y-47614700D01*
X76476544Y-47614700D01*
X76646307Y-47580932D01*
X76806221Y-47514694D01*
X76950139Y-47418531D01*
X77072531Y-47296139D01*
X77168694Y-47152221D01*
X77234932Y-46992307D01*
X77268700Y-46822544D01*
X77268700Y-46649456D01*
X77234932Y-46479693D01*
X77214709Y-46430871D01*
X77175413Y-46336000D01*
X77168694Y-46319779D01*
X77084419Y-46193653D01*
X77072532Y-46175862D01*
X76950137Y-46053467D01*
X76806225Y-45957308D01*
X76806217Y-45957304D01*
X76646309Y-45891068D01*
X76511489Y-45864251D01*
X76476544Y-45857300D01*
X76303456Y-45857300D01*
X76279299Y-45862105D01*
X76133692Y-45891067D01*
X76084871Y-45911289D01*
X76022888Y-45916166D01*
X75975240Y-45889481D01*
X75721965Y-45636206D01*
X75693739Y-45580808D01*
X75692500Y-45565071D01*
X75692500Y-43958958D01*
X75711713Y-43899827D01*
X75762013Y-43863282D01*
X75824187Y-43863282D01*
X75848984Y-43875308D01*
X75973779Y-43958694D01*
X75997195Y-43968393D01*
X76133690Y-44024931D01*
X76133691Y-44024931D01*
X76133693Y-44024932D01*
X76303456Y-44058700D01*
X76303457Y-44058700D01*
X76476543Y-44058700D01*
X76476544Y-44058700D01*
X76646307Y-44024932D01*
X76806221Y-43958694D01*
X76932011Y-43874643D01*
X76991849Y-43857768D01*
X77050180Y-43879287D01*
X77084723Y-43930983D01*
X77088500Y-43958290D01*
X77088500Y-45779993D01*
X77105689Y-45844142D01*
X77107536Y-45851032D01*
X77107537Y-45851039D01*
X77109305Y-45857638D01*
X77109306Y-45857642D01*
X77149498Y-45927256D01*
X77149500Y-45927259D01*
X77452438Y-46230198D01*
X77543481Y-46321241D01*
X77571707Y-46376639D01*
X77565289Y-46430872D01*
X77545067Y-46479692D01*
X77511300Y-46649456D01*
X77511300Y-46822543D01*
X77545068Y-46992309D01*
X77611304Y-47152217D01*
X77611308Y-47152225D01*
X77707467Y-47296137D01*
X77829862Y-47418532D01*
X77973774Y-47514691D01*
X77973776Y-47514692D01*
X77973779Y-47514694D01*
X78053736Y-47547813D01*
X78133690Y-47580931D01*
X78133691Y-47580931D01*
X78133693Y-47580932D01*
X78303456Y-47614700D01*
X78303457Y-47614700D01*
X78476543Y-47614700D01*
X78476544Y-47614700D01*
X78646307Y-47580932D01*
X78806221Y-47514694D01*
X78950139Y-47418531D01*
X79072531Y-47296139D01*
X79168694Y-47152221D01*
X79234932Y-46992307D01*
X79268700Y-46822544D01*
X79268700Y-46649456D01*
X79234932Y-46479693D01*
X79214709Y-46430871D01*
X79175413Y-46336000D01*
X79168694Y-46319779D01*
X79084419Y-46193653D01*
X79072532Y-46175862D01*
X78950137Y-46053467D01*
X78806225Y-45957308D01*
X78806217Y-45957304D01*
X78646309Y-45891068D01*
X78511489Y-45864251D01*
X78476544Y-45857300D01*
X78303456Y-45857300D01*
X78279299Y-45862105D01*
X78133692Y-45891067D01*
X78084872Y-45911289D01*
X78022890Y-45916166D01*
X77975241Y-45889481D01*
X77728565Y-45642805D01*
X77700339Y-45587407D01*
X77699100Y-45571670D01*
X77699100Y-43963368D01*
X77718313Y-43904237D01*
X77768613Y-43867692D01*
X77830787Y-43867692D01*
X77855589Y-43879722D01*
X77868791Y-43888543D01*
X77973772Y-43958690D01*
X77973776Y-43958692D01*
X77973779Y-43958694D01*
X77997195Y-43968393D01*
X78133690Y-44024931D01*
X78133691Y-44024931D01*
X78133693Y-44024932D01*
X78303456Y-44058700D01*
X78303457Y-44058700D01*
X78476543Y-44058700D01*
X78476544Y-44058700D01*
X78646307Y-44024932D01*
X78806221Y-43958694D01*
X78950139Y-43862531D01*
X79072531Y-43740139D01*
X79168694Y-43596221D01*
X79234932Y-43436307D01*
X79268700Y-43266544D01*
X79268700Y-43093456D01*
X79234932Y-42923693D01*
X79168694Y-42763779D01*
X79072531Y-42619861D01*
X78950139Y-42497469D01*
X78950137Y-42497467D01*
X78806225Y-42401308D01*
X78806217Y-42401304D01*
X78646309Y-42335068D01*
X78533131Y-42312556D01*
X78476544Y-42301300D01*
X78303456Y-42301300D01*
X78261015Y-42309742D01*
X78133690Y-42335068D01*
X77973782Y-42401304D01*
X77973774Y-42401308D01*
X77855590Y-42480277D01*
X77795751Y-42497153D01*
X77737419Y-42475634D01*
X77702877Y-42423938D01*
X77699100Y-42396631D01*
X77699100Y-41963368D01*
X77718313Y-41904237D01*
X77768613Y-41867692D01*
X77830787Y-41867692D01*
X77855589Y-41879722D01*
X77885678Y-41899827D01*
X77973772Y-41958690D01*
X77973776Y-41958692D01*
X77973779Y-41958694D01*
X78004744Y-41971520D01*
X78133690Y-42024931D01*
X78133691Y-42024931D01*
X78133693Y-42024932D01*
X78303456Y-42058700D01*
X78303457Y-42058700D01*
X78476543Y-42058700D01*
X78476544Y-42058700D01*
X78646307Y-42024932D01*
X78806221Y-41958694D01*
X78950139Y-41862531D01*
X79072531Y-41740139D01*
X79168694Y-41596221D01*
X79234932Y-41436307D01*
X79268700Y-41266544D01*
X79268700Y-41093456D01*
X79234932Y-40923693D01*
X79214709Y-40874871D01*
X79168695Y-40763782D01*
X79168694Y-40763779D01*
X79072531Y-40619861D01*
X78950139Y-40497469D01*
X78950137Y-40497467D01*
X78806225Y-40401308D01*
X78801865Y-40398978D01*
X78802741Y-40397338D01*
X78761207Y-40361869D01*
X78746689Y-40301414D01*
X78770478Y-40243971D01*
X78823488Y-40211481D01*
X78846979Y-40208700D01*
X79933021Y-40208700D01*
X79992152Y-40227913D01*
X80028697Y-40278213D01*
X80028697Y-40340387D01*
X79992152Y-40390687D01*
X79977953Y-40398638D01*
X79978135Y-40398978D01*
X79973774Y-40401308D01*
X79829862Y-40497467D01*
X79829861Y-40497469D01*
X79707469Y-40619861D01*
X79707467Y-40619862D01*
X79611308Y-40763774D01*
X79611304Y-40763782D01*
X79545068Y-40923690D01*
X79511300Y-41093456D01*
X79511300Y-41266543D01*
X79545068Y-41436309D01*
X79611304Y-41596217D01*
X79611308Y-41596225D01*
X79707467Y-41740137D01*
X79829862Y-41862532D01*
X79973774Y-41958691D01*
X79973776Y-41958692D01*
X79973779Y-41958694D01*
X80004744Y-41971520D01*
X80133690Y-42024931D01*
X80133691Y-42024931D01*
X80133693Y-42024932D01*
X80303456Y-42058700D01*
X80303457Y-42058700D01*
X80476543Y-42058700D01*
X80476544Y-42058700D01*
X80646307Y-42024932D01*
X80806221Y-41958694D01*
X80950139Y-41862531D01*
X81072531Y-41740139D01*
X81168694Y-41596221D01*
X81234932Y-41436307D01*
X81268700Y-41266544D01*
X81268700Y-41093456D01*
X81234932Y-40923693D01*
X81214709Y-40874871D01*
X81168695Y-40763782D01*
X81168694Y-40763779D01*
X81072531Y-40619861D01*
X80950139Y-40497469D01*
X80950137Y-40497467D01*
X80806225Y-40401308D01*
X80801865Y-40398978D01*
X80802741Y-40397338D01*
X80761207Y-40361869D01*
X80746689Y-40301414D01*
X80770478Y-40243971D01*
X80823488Y-40211481D01*
X80846979Y-40208700D01*
X81933021Y-40208700D01*
X81992152Y-40227913D01*
X82028697Y-40278213D01*
X82028697Y-40340387D01*
X81992152Y-40390687D01*
X81977953Y-40398638D01*
X81978135Y-40398978D01*
X81973774Y-40401308D01*
X81829862Y-40497467D01*
X81829861Y-40497469D01*
X81707469Y-40619861D01*
X81707467Y-40619862D01*
X81611308Y-40763774D01*
X81611304Y-40763782D01*
X81545068Y-40923690D01*
X81511300Y-41093456D01*
X81511300Y-41266543D01*
X81545067Y-41436305D01*
X81565289Y-41485126D01*
X81570166Y-41547109D01*
X81543481Y-41594758D01*
X81254544Y-41883697D01*
X81162700Y-41975541D01*
X81134184Y-42024932D01*
X81133269Y-42026517D01*
X81122506Y-42045157D01*
X81101700Y-42122804D01*
X81101700Y-42410529D01*
X81082487Y-42469660D01*
X81032187Y-42506205D01*
X80970013Y-42506205D01*
X80945210Y-42494175D01*
X80806225Y-42401308D01*
X80806217Y-42401304D01*
X80646309Y-42335068D01*
X80533131Y-42312556D01*
X80476544Y-42301300D01*
X80303456Y-42301300D01*
X80261015Y-42309742D01*
X80133690Y-42335068D01*
X79973782Y-42401304D01*
X79973774Y-42401308D01*
X79829862Y-42497467D01*
X79829861Y-42497469D01*
X79707469Y-42619861D01*
X79707467Y-42619862D01*
X79611308Y-42763774D01*
X79611304Y-42763782D01*
X79545068Y-42923690D01*
X79511300Y-43093456D01*
X79511300Y-43266543D01*
X79545068Y-43436309D01*
X79611304Y-43596217D01*
X79611308Y-43596225D01*
X79707467Y-43740137D01*
X79829862Y-43862532D01*
X79973774Y-43958691D01*
X79973776Y-43958692D01*
X79973779Y-43958694D01*
X79997195Y-43968393D01*
X80133690Y-44024931D01*
X80133691Y-44024931D01*
X80133693Y-44024932D01*
X80303456Y-44058700D01*
X80303457Y-44058700D01*
X80476543Y-44058700D01*
X80476544Y-44058700D01*
X80646307Y-44024932D01*
X80806221Y-43958694D01*
X80945211Y-43865823D01*
X80958686Y-43862023D01*
X80970013Y-43853794D01*
X80987866Y-43853794D01*
X81005049Y-43848948D01*
X81018185Y-43853794D01*
X81032187Y-43853794D01*
X81046630Y-43864288D01*
X81063380Y-43870467D01*
X81071158Y-43882108D01*
X81082487Y-43890339D01*
X81088004Y-43907318D01*
X81097923Y-43922163D01*
X81101700Y-43949470D01*
X81101700Y-44002471D01*
X81082487Y-44061602D01*
X81072235Y-44073606D01*
X80145702Y-45000138D01*
X80105506Y-45069757D01*
X80084700Y-45147404D01*
X80084700Y-45844142D01*
X80065487Y-45903273D01*
X80022598Y-45937084D01*
X79973782Y-45957304D01*
X79973774Y-45957308D01*
X79829862Y-46053467D01*
X79829861Y-46053469D01*
X79707469Y-46175861D01*
X79707467Y-46175862D01*
X79611308Y-46319774D01*
X79611304Y-46319782D01*
X79545068Y-46479690D01*
X79511300Y-46649456D01*
X79511300Y-46822543D01*
X79545068Y-46992309D01*
X79611304Y-47152217D01*
X79611308Y-47152225D01*
X79707467Y-47296137D01*
X79829862Y-47418532D01*
X79973774Y-47514691D01*
X79973776Y-47514692D01*
X79973779Y-47514694D01*
X80053736Y-47547813D01*
X80133690Y-47580931D01*
X80133691Y-47580931D01*
X80133693Y-47580932D01*
X80303456Y-47614700D01*
X80303457Y-47614700D01*
X80476543Y-47614700D01*
X80476544Y-47614700D01*
X80646307Y-47580932D01*
X80806221Y-47514694D01*
X80950139Y-47418531D01*
X81072531Y-47296139D01*
X81168694Y-47152221D01*
X81234932Y-46992307D01*
X81268700Y-46822544D01*
X81268700Y-46649456D01*
X81511300Y-46649456D01*
X81511300Y-46822543D01*
X81545068Y-46992309D01*
X81611304Y-47152217D01*
X81611308Y-47152225D01*
X81707467Y-47296137D01*
X81829862Y-47418532D01*
X81973774Y-47514691D01*
X81973776Y-47514692D01*
X81973779Y-47514694D01*
X82053736Y-47547813D01*
X82133690Y-47580931D01*
X82133691Y-47580931D01*
X82133693Y-47580932D01*
X82303456Y-47614700D01*
X82303457Y-47614700D01*
X82476543Y-47614700D01*
X82476544Y-47614700D01*
X82646307Y-47580932D01*
X82806221Y-47514694D01*
X82950139Y-47418531D01*
X83072531Y-47296139D01*
X83168694Y-47152221D01*
X83234932Y-46992307D01*
X83268700Y-46822544D01*
X83268700Y-46649456D01*
X83511300Y-46649456D01*
X83511300Y-46822543D01*
X83545068Y-46992309D01*
X83611304Y-47152217D01*
X83611308Y-47152225D01*
X83707467Y-47296137D01*
X83829862Y-47418532D01*
X83973774Y-47514691D01*
X83973776Y-47514692D01*
X83973779Y-47514694D01*
X84053736Y-47547813D01*
X84133690Y-47580931D01*
X84133691Y-47580931D01*
X84133693Y-47580932D01*
X84303456Y-47614700D01*
X84303457Y-47614700D01*
X84476543Y-47614700D01*
X84476544Y-47614700D01*
X84646307Y-47580932D01*
X84806221Y-47514694D01*
X84950139Y-47418531D01*
X85072531Y-47296139D01*
X85168694Y-47152221D01*
X85234932Y-46992307D01*
X85268700Y-46822544D01*
X85268700Y-46649456D01*
X85511300Y-46649456D01*
X85511300Y-46822543D01*
X85545068Y-46992309D01*
X85611304Y-47152217D01*
X85611308Y-47152225D01*
X85707467Y-47296137D01*
X85829862Y-47418532D01*
X85973774Y-47514691D01*
X85973776Y-47514692D01*
X85973779Y-47514694D01*
X86053736Y-47547813D01*
X86133690Y-47580931D01*
X86133691Y-47580931D01*
X86133693Y-47580932D01*
X86303456Y-47614700D01*
X86303457Y-47614700D01*
X86476543Y-47614700D01*
X86476544Y-47614700D01*
X86646307Y-47580932D01*
X86806221Y-47514694D01*
X86950139Y-47418531D01*
X87072531Y-47296139D01*
X87168694Y-47152221D01*
X87234932Y-46992307D01*
X87268700Y-46822544D01*
X87268700Y-46649456D01*
X87511300Y-46649456D01*
X87511300Y-46822543D01*
X87545068Y-46992309D01*
X87611304Y-47152217D01*
X87611308Y-47152225D01*
X87707467Y-47296137D01*
X87829862Y-47418532D01*
X87973774Y-47514691D01*
X87973776Y-47514692D01*
X87973779Y-47514694D01*
X88053736Y-47547813D01*
X88133690Y-47580931D01*
X88133691Y-47580931D01*
X88133693Y-47580932D01*
X88303456Y-47614700D01*
X88303457Y-47614700D01*
X88476543Y-47614700D01*
X88476544Y-47614700D01*
X88646307Y-47580932D01*
X88806221Y-47514694D01*
X88950139Y-47418531D01*
X89072531Y-47296139D01*
X89168694Y-47152221D01*
X89234932Y-46992307D01*
X89268700Y-46822544D01*
X89268700Y-46649456D01*
X89236187Y-46486000D01*
X89544322Y-46486000D01*
X90074314Y-46486000D01*
X90069920Y-46490394D01*
X90017259Y-46581606D01*
X89990000Y-46683339D01*
X89990000Y-46788661D01*
X90017259Y-46890394D01*
X90069920Y-46981606D01*
X90074314Y-46986000D01*
X89544323Y-46986000D01*
X89545547Y-46992155D01*
X89545551Y-46992169D01*
X89611746Y-47151978D01*
X89611746Y-47151979D01*
X89707856Y-47295818D01*
X89830181Y-47418143D01*
X89974016Y-47514251D01*
X90133840Y-47580450D01*
X90133844Y-47580451D01*
X90140000Y-47581676D01*
X90140000Y-47051686D01*
X90144394Y-47056080D01*
X90235606Y-47108741D01*
X90337339Y-47136000D01*
X90442661Y-47136000D01*
X90544394Y-47108741D01*
X90635606Y-47056080D01*
X90640000Y-47051686D01*
X90640000Y-47581676D01*
X90646155Y-47580451D01*
X90646159Y-47580450D01*
X90805983Y-47514251D01*
X90949818Y-47418143D01*
X90949820Y-47418142D01*
X91072142Y-47295820D01*
X91072143Y-47295818D01*
X91168253Y-47151979D01*
X91168253Y-47151978D01*
X91234448Y-46992169D01*
X91234452Y-46992155D01*
X91235677Y-46986000D01*
X90705686Y-46986000D01*
X90710080Y-46981606D01*
X90762741Y-46890394D01*
X90790000Y-46788661D01*
X90790000Y-46683339D01*
X90762741Y-46581606D01*
X90710080Y-46490394D01*
X90705686Y-46486000D01*
X91235677Y-46486000D01*
X91234452Y-46479844D01*
X91234448Y-46479830D01*
X91168253Y-46320021D01*
X91168253Y-46320020D01*
X91072143Y-46176181D01*
X90949818Y-46053856D01*
X90805979Y-45957746D01*
X90646169Y-45891551D01*
X90646155Y-45891547D01*
X90640000Y-45890322D01*
X90640000Y-46420314D01*
X90635606Y-46415920D01*
X90544394Y-46363259D01*
X90442661Y-46336000D01*
X90337339Y-46336000D01*
X90235606Y-46363259D01*
X90144394Y-46415920D01*
X90140000Y-46420314D01*
X90140000Y-45890322D01*
X90133844Y-45891547D01*
X90133830Y-45891551D01*
X89974021Y-45957746D01*
X89974020Y-45957746D01*
X89830181Y-46053856D01*
X89830180Y-46053858D01*
X89707858Y-46176180D01*
X89707856Y-46176181D01*
X89611746Y-46320020D01*
X89611746Y-46320021D01*
X89545551Y-46479830D01*
X89545547Y-46479844D01*
X89544322Y-46486000D01*
X89236187Y-46486000D01*
X89234932Y-46479693D01*
X89214709Y-46430871D01*
X89175413Y-46336000D01*
X89168694Y-46319779D01*
X89084419Y-46193653D01*
X89072532Y-46175862D01*
X88950137Y-46053467D01*
X88806225Y-45957308D01*
X88806217Y-45957304D01*
X88646309Y-45891068D01*
X88511489Y-45864251D01*
X88476544Y-45857300D01*
X88303456Y-45857300D01*
X88268511Y-45864251D01*
X88133690Y-45891068D01*
X87973782Y-45957304D01*
X87973774Y-45957308D01*
X87829862Y-46053467D01*
X87829861Y-46053469D01*
X87707469Y-46175861D01*
X87707467Y-46175862D01*
X87611308Y-46319774D01*
X87611304Y-46319782D01*
X87545068Y-46479690D01*
X87511300Y-46649456D01*
X87268700Y-46649456D01*
X87234932Y-46479693D01*
X87214709Y-46430871D01*
X87175413Y-46336000D01*
X87168694Y-46319779D01*
X87084419Y-46193653D01*
X87072532Y-46175862D01*
X86950137Y-46053467D01*
X86806225Y-45957308D01*
X86806217Y-45957304D01*
X86646309Y-45891068D01*
X86511489Y-45864251D01*
X86476544Y-45857300D01*
X86303456Y-45857300D01*
X86268511Y-45864251D01*
X86133690Y-45891068D01*
X85973782Y-45957304D01*
X85973774Y-45957308D01*
X85829862Y-46053467D01*
X85829861Y-46053469D01*
X85707469Y-46175861D01*
X85707467Y-46175862D01*
X85611308Y-46319774D01*
X85611304Y-46319782D01*
X85545068Y-46479690D01*
X85511300Y-46649456D01*
X85268700Y-46649456D01*
X85234932Y-46479693D01*
X85214709Y-46430871D01*
X85175413Y-46336000D01*
X85168694Y-46319779D01*
X85084419Y-46193653D01*
X85072532Y-46175862D01*
X84950137Y-46053467D01*
X84806225Y-45957308D01*
X84806217Y-45957304D01*
X84646309Y-45891068D01*
X84511489Y-45864251D01*
X84476544Y-45857300D01*
X84303456Y-45857300D01*
X84268511Y-45864251D01*
X84133690Y-45891068D01*
X83973782Y-45957304D01*
X83973774Y-45957308D01*
X83829862Y-46053467D01*
X83829861Y-46053469D01*
X83707469Y-46175861D01*
X83707467Y-46175862D01*
X83611308Y-46319774D01*
X83611304Y-46319782D01*
X83545068Y-46479690D01*
X83511300Y-46649456D01*
X83268700Y-46649456D01*
X83234932Y-46479693D01*
X83214709Y-46430871D01*
X83175413Y-46336000D01*
X83168694Y-46319779D01*
X83084419Y-46193653D01*
X83072532Y-46175862D01*
X82950137Y-46053467D01*
X82806225Y-45957308D01*
X82806217Y-45957304D01*
X82646309Y-45891068D01*
X82511489Y-45864251D01*
X82476544Y-45857300D01*
X82303456Y-45857300D01*
X82268511Y-45864251D01*
X82133690Y-45891068D01*
X81973782Y-45957304D01*
X81973774Y-45957308D01*
X81829862Y-46053467D01*
X81829861Y-46053469D01*
X81707469Y-46175861D01*
X81707467Y-46175862D01*
X81611308Y-46319774D01*
X81611304Y-46319782D01*
X81545068Y-46479690D01*
X81511300Y-46649456D01*
X81268700Y-46649456D01*
X81234932Y-46479693D01*
X81214709Y-46430871D01*
X81175413Y-46336000D01*
X81168694Y-46319779D01*
X81084419Y-46193653D01*
X81072532Y-46175862D01*
X80950137Y-46053467D01*
X80806225Y-45957308D01*
X80806217Y-45957304D01*
X80757402Y-45937084D01*
X80710124Y-45896705D01*
X80695300Y-45844142D01*
X80695300Y-45355729D01*
X80714513Y-45296598D01*
X80724765Y-45284594D01*
X81651300Y-44358059D01*
X81651301Y-44358057D01*
X81691494Y-44288442D01*
X81697066Y-44267643D01*
X81697069Y-44267638D01*
X81697068Y-44267638D01*
X81712299Y-44210795D01*
X81712300Y-44210793D01*
X81712300Y-43972188D01*
X81731513Y-43913057D01*
X81781813Y-43876512D01*
X81843987Y-43876512D01*
X81868791Y-43888543D01*
X81973772Y-43958690D01*
X81973776Y-43958692D01*
X81973779Y-43958694D01*
X81997195Y-43968393D01*
X82133690Y-44024931D01*
X82133691Y-44024931D01*
X82133693Y-44024932D01*
X82303456Y-44058700D01*
X82303457Y-44058700D01*
X82476543Y-44058700D01*
X82476544Y-44058700D01*
X82646307Y-44024932D01*
X82806221Y-43958694D01*
X82950139Y-43862531D01*
X83072531Y-43740139D01*
X83168694Y-43596221D01*
X83234932Y-43436307D01*
X83268700Y-43266544D01*
X83268700Y-43093456D01*
X83511300Y-43093456D01*
X83511300Y-43266543D01*
X83545068Y-43436309D01*
X83611304Y-43596217D01*
X83611308Y-43596225D01*
X83707467Y-43740137D01*
X83829862Y-43862532D01*
X83973774Y-43958691D01*
X83973776Y-43958692D01*
X83973779Y-43958694D01*
X83997195Y-43968393D01*
X84133690Y-44024931D01*
X84133691Y-44024931D01*
X84133693Y-44024932D01*
X84303456Y-44058700D01*
X84303457Y-44058700D01*
X84476543Y-44058700D01*
X84476544Y-44058700D01*
X84646307Y-44024932D01*
X84806221Y-43958694D01*
X84950139Y-43862531D01*
X85072531Y-43740139D01*
X85168694Y-43596221D01*
X85234932Y-43436307D01*
X85268700Y-43266544D01*
X85268700Y-43093456D01*
X85511300Y-43093456D01*
X85511300Y-43266543D01*
X85545068Y-43436309D01*
X85611304Y-43596217D01*
X85611308Y-43596225D01*
X85707467Y-43740137D01*
X85829862Y-43862532D01*
X85973774Y-43958691D01*
X85973776Y-43958692D01*
X85973779Y-43958694D01*
X85997195Y-43968393D01*
X86133690Y-44024931D01*
X86133691Y-44024931D01*
X86133693Y-44024932D01*
X86303456Y-44058700D01*
X86303457Y-44058700D01*
X86476543Y-44058700D01*
X86476544Y-44058700D01*
X86646307Y-44024932D01*
X86806221Y-43958694D01*
X86950139Y-43862531D01*
X87072531Y-43740139D01*
X87168694Y-43596221D01*
X87234932Y-43436307D01*
X87268700Y-43266544D01*
X87268700Y-43093456D01*
X87511300Y-43093456D01*
X87511300Y-43266543D01*
X87545068Y-43436309D01*
X87611304Y-43596217D01*
X87611308Y-43596225D01*
X87707467Y-43740137D01*
X87829862Y-43862532D01*
X87973774Y-43958691D01*
X87973776Y-43958692D01*
X87973779Y-43958694D01*
X87997195Y-43968393D01*
X88133690Y-44024931D01*
X88133691Y-44024931D01*
X88133693Y-44024932D01*
X88303456Y-44058700D01*
X88303457Y-44058700D01*
X88476543Y-44058700D01*
X88476544Y-44058700D01*
X88646307Y-44024932D01*
X88806221Y-43958694D01*
X88950139Y-43862531D01*
X89072531Y-43740139D01*
X89168694Y-43596221D01*
X89234932Y-43436307D01*
X89268700Y-43266544D01*
X89268700Y-43093456D01*
X89236187Y-42930000D01*
X89544322Y-42930000D01*
X90074314Y-42930000D01*
X90069920Y-42934394D01*
X90017259Y-43025606D01*
X89990000Y-43127339D01*
X89990000Y-43232661D01*
X90017259Y-43334394D01*
X90069920Y-43425606D01*
X90074314Y-43430000D01*
X89544323Y-43430000D01*
X89545547Y-43436155D01*
X89545551Y-43436169D01*
X89611746Y-43595978D01*
X89611746Y-43595979D01*
X89707856Y-43739818D01*
X89830181Y-43862143D01*
X89974016Y-43958251D01*
X90133840Y-44024450D01*
X90133844Y-44024451D01*
X90140000Y-44025676D01*
X90140000Y-43495686D01*
X90144394Y-43500080D01*
X90235606Y-43552741D01*
X90337339Y-43580000D01*
X90442661Y-43580000D01*
X90544394Y-43552741D01*
X90635606Y-43500080D01*
X90640000Y-43495686D01*
X90640000Y-44025676D01*
X90646155Y-44024451D01*
X90646159Y-44024450D01*
X90805983Y-43958251D01*
X90949818Y-43862143D01*
X90949820Y-43862142D01*
X91072142Y-43739820D01*
X91072143Y-43739818D01*
X91168253Y-43595979D01*
X91168253Y-43595978D01*
X91234448Y-43436169D01*
X91234452Y-43436155D01*
X91235677Y-43430000D01*
X90705686Y-43430000D01*
X90710080Y-43425606D01*
X90762741Y-43334394D01*
X90790000Y-43232661D01*
X90790000Y-43127339D01*
X90780921Y-43093456D01*
X91511300Y-43093456D01*
X91511300Y-43266543D01*
X91545068Y-43436309D01*
X91611304Y-43596217D01*
X91611308Y-43596225D01*
X91707467Y-43740137D01*
X91829862Y-43862532D01*
X91959974Y-43949470D01*
X91973779Y-43958694D01*
X91997198Y-43968394D01*
X92044475Y-44008772D01*
X92059300Y-44061336D01*
X92059300Y-45854663D01*
X92040087Y-45913794D01*
X91997199Y-45947605D01*
X91973779Y-45957305D01*
X91973774Y-45957308D01*
X91829862Y-46053467D01*
X91829861Y-46053469D01*
X91707469Y-46175861D01*
X91707467Y-46175862D01*
X91611308Y-46319774D01*
X91611304Y-46319782D01*
X91545068Y-46479690D01*
X91511300Y-46649456D01*
X91511300Y-46822543D01*
X91545068Y-46992309D01*
X91611304Y-47152217D01*
X91611308Y-47152225D01*
X91707467Y-47296137D01*
X91829862Y-47418532D01*
X91973774Y-47514691D01*
X91973776Y-47514692D01*
X91973779Y-47514694D01*
X92053736Y-47547813D01*
X92133690Y-47580931D01*
X92133691Y-47580931D01*
X92133693Y-47580932D01*
X92303456Y-47614700D01*
X92303457Y-47614700D01*
X92476543Y-47614700D01*
X92476544Y-47614700D01*
X92646307Y-47580932D01*
X92806221Y-47514694D01*
X92950139Y-47418531D01*
X93072531Y-47296139D01*
X93168694Y-47152221D01*
X93234932Y-46992307D01*
X93268700Y-46822544D01*
X93268700Y-46649456D01*
X93234932Y-46479693D01*
X93214709Y-46430871D01*
X93175413Y-46336000D01*
X93168694Y-46319779D01*
X93084419Y-46193653D01*
X93072532Y-46175862D01*
X92950137Y-46053467D01*
X92806225Y-45957308D01*
X92806220Y-45957305D01*
X92782801Y-45947605D01*
X92735524Y-45907226D01*
X92720700Y-45854663D01*
X92720700Y-44061336D01*
X92739913Y-44002205D01*
X92782800Y-43968394D01*
X92806221Y-43958694D01*
X92950139Y-43862531D01*
X93072531Y-43740139D01*
X93168694Y-43596221D01*
X93234932Y-43436307D01*
X93268700Y-43266544D01*
X93268700Y-43093456D01*
X93511300Y-43093456D01*
X93511300Y-43266543D01*
X93545068Y-43436309D01*
X93611304Y-43596217D01*
X93611308Y-43596225D01*
X93707467Y-43740137D01*
X93829862Y-43862532D01*
X93959974Y-43949470D01*
X93973779Y-43958694D01*
X93997198Y-43968394D01*
X94044475Y-44008772D01*
X94059300Y-44061336D01*
X94059300Y-45854663D01*
X94040087Y-45913794D01*
X93997199Y-45947605D01*
X93973779Y-45957305D01*
X93973774Y-45957308D01*
X93829862Y-46053467D01*
X93829861Y-46053469D01*
X93707469Y-46175861D01*
X93707467Y-46175862D01*
X93611308Y-46319774D01*
X93611304Y-46319782D01*
X93545068Y-46479690D01*
X93511300Y-46649456D01*
X93511300Y-46822543D01*
X93545068Y-46992309D01*
X93611304Y-47152217D01*
X93611308Y-47152225D01*
X93707467Y-47296137D01*
X93829862Y-47418532D01*
X93973774Y-47514691D01*
X93973776Y-47514692D01*
X93973779Y-47514694D01*
X94053736Y-47547813D01*
X94133690Y-47580931D01*
X94133691Y-47580931D01*
X94133693Y-47580932D01*
X94303456Y-47614700D01*
X94303457Y-47614700D01*
X94476543Y-47614700D01*
X94476544Y-47614700D01*
X94646307Y-47580932D01*
X94806221Y-47514694D01*
X94950139Y-47418531D01*
X95072531Y-47296139D01*
X95168694Y-47152221D01*
X95234932Y-46992307D01*
X95268700Y-46822544D01*
X95268700Y-46649456D01*
X95234932Y-46479693D01*
X95214709Y-46430871D01*
X95175413Y-46336000D01*
X95168694Y-46319779D01*
X95084419Y-46193653D01*
X95072532Y-46175862D01*
X94950137Y-46053467D01*
X94806225Y-45957308D01*
X94806220Y-45957305D01*
X94782801Y-45947605D01*
X94735524Y-45907226D01*
X94720700Y-45854663D01*
X94720700Y-44061336D01*
X94739913Y-44002205D01*
X94782800Y-43968394D01*
X94806221Y-43958694D01*
X94950139Y-43862531D01*
X95072531Y-43740139D01*
X95168694Y-43596221D01*
X95234932Y-43436307D01*
X95268700Y-43266544D01*
X95268700Y-43093456D01*
X95511300Y-43093456D01*
X95511300Y-43266543D01*
X95545068Y-43436309D01*
X95611304Y-43596217D01*
X95611308Y-43596225D01*
X95707467Y-43740137D01*
X95829862Y-43862532D01*
X95959974Y-43949470D01*
X95973779Y-43958694D01*
X95997198Y-43968394D01*
X96044475Y-44008772D01*
X96059300Y-44061336D01*
X96059300Y-45854663D01*
X96040087Y-45913794D01*
X95997199Y-45947605D01*
X95973779Y-45957305D01*
X95973774Y-45957308D01*
X95829862Y-46053467D01*
X95829861Y-46053469D01*
X95707469Y-46175861D01*
X95707467Y-46175862D01*
X95611308Y-46319774D01*
X95611304Y-46319782D01*
X95545068Y-46479690D01*
X95511300Y-46649456D01*
X95511300Y-46822543D01*
X95545068Y-46992309D01*
X95611304Y-47152217D01*
X95611308Y-47152225D01*
X95707467Y-47296137D01*
X95829862Y-47418532D01*
X95973774Y-47514691D01*
X95973776Y-47514692D01*
X95973779Y-47514694D01*
X96053736Y-47547813D01*
X96133690Y-47580931D01*
X96133691Y-47580931D01*
X96133693Y-47580932D01*
X96303456Y-47614700D01*
X96303457Y-47614700D01*
X96476543Y-47614700D01*
X96476544Y-47614700D01*
X96646307Y-47580932D01*
X96806221Y-47514694D01*
X96950139Y-47418531D01*
X97072531Y-47296139D01*
X97168694Y-47152221D01*
X97234932Y-46992307D01*
X97268700Y-46822544D01*
X97268700Y-46649456D01*
X97234932Y-46479693D01*
X97214709Y-46430871D01*
X97175413Y-46336000D01*
X97168694Y-46319779D01*
X97084419Y-46193653D01*
X97072532Y-46175862D01*
X96950137Y-46053467D01*
X96806225Y-45957308D01*
X96806220Y-45957305D01*
X96782801Y-45947605D01*
X96735524Y-45907226D01*
X96720700Y-45854663D01*
X96720700Y-44061336D01*
X96739913Y-44002205D01*
X96782800Y-43968394D01*
X96806221Y-43958694D01*
X96950139Y-43862531D01*
X97072531Y-43740139D01*
X97168694Y-43596221D01*
X97234932Y-43436307D01*
X97268700Y-43266544D01*
X97268700Y-43093456D01*
X97511300Y-43093456D01*
X97511300Y-43266543D01*
X97545068Y-43436309D01*
X97611304Y-43596217D01*
X97611308Y-43596225D01*
X97707467Y-43740137D01*
X97829862Y-43862532D01*
X97959974Y-43949470D01*
X97973779Y-43958694D01*
X97997198Y-43968394D01*
X98044475Y-44008772D01*
X98059300Y-44061336D01*
X98059300Y-45854663D01*
X98040087Y-45913794D01*
X97997199Y-45947605D01*
X97973779Y-45957305D01*
X97973774Y-45957308D01*
X97829862Y-46053467D01*
X97829861Y-46053469D01*
X97707469Y-46175861D01*
X97707467Y-46175862D01*
X97611308Y-46319774D01*
X97611304Y-46319782D01*
X97545068Y-46479690D01*
X97511300Y-46649456D01*
X97511300Y-46822543D01*
X97545068Y-46992309D01*
X97611304Y-47152217D01*
X97611308Y-47152225D01*
X97707467Y-47296137D01*
X97829862Y-47418532D01*
X97973774Y-47514691D01*
X97973776Y-47514692D01*
X97973779Y-47514694D01*
X98053736Y-47547813D01*
X98133690Y-47580931D01*
X98133691Y-47580931D01*
X98133693Y-47580932D01*
X98303456Y-47614700D01*
X98303457Y-47614700D01*
X98476543Y-47614700D01*
X98476544Y-47614700D01*
X98646307Y-47580932D01*
X98806221Y-47514694D01*
X98950139Y-47418531D01*
X99072531Y-47296139D01*
X99168694Y-47152221D01*
X99234932Y-46992307D01*
X99268700Y-46822544D01*
X99268700Y-46649456D01*
X99234932Y-46479693D01*
X99214709Y-46430871D01*
X99175413Y-46336000D01*
X99168694Y-46319779D01*
X99084419Y-46193653D01*
X99072532Y-46175862D01*
X98950137Y-46053467D01*
X98806225Y-45957308D01*
X98806220Y-45957305D01*
X98782801Y-45947605D01*
X98735524Y-45907226D01*
X98720700Y-45854663D01*
X98720700Y-44061336D01*
X98739913Y-44002205D01*
X98782800Y-43968394D01*
X98806221Y-43958694D01*
X98950139Y-43862531D01*
X99072531Y-43740139D01*
X99168694Y-43596221D01*
X99234932Y-43436307D01*
X99268700Y-43266544D01*
X99268700Y-43093456D01*
X99511300Y-43093456D01*
X99511300Y-43266543D01*
X99545068Y-43436309D01*
X99611304Y-43596217D01*
X99611308Y-43596225D01*
X99707467Y-43740137D01*
X99829862Y-43862532D01*
X99959974Y-43949470D01*
X99973779Y-43958694D01*
X99997198Y-43968394D01*
X100044475Y-44008772D01*
X100059300Y-44061336D01*
X100059300Y-45854663D01*
X100040087Y-45913794D01*
X99997199Y-45947605D01*
X99973779Y-45957305D01*
X99973774Y-45957308D01*
X99829862Y-46053467D01*
X99829861Y-46053469D01*
X99707469Y-46175861D01*
X99707467Y-46175862D01*
X99611308Y-46319774D01*
X99611304Y-46319782D01*
X99545068Y-46479690D01*
X99511300Y-46649456D01*
X99511300Y-46822543D01*
X99545068Y-46992309D01*
X99611304Y-47152217D01*
X99611308Y-47152225D01*
X99707467Y-47296137D01*
X99829862Y-47418532D01*
X99973774Y-47514691D01*
X99973776Y-47514692D01*
X99973779Y-47514694D01*
X100053736Y-47547813D01*
X100133690Y-47580931D01*
X100133691Y-47580931D01*
X100133693Y-47580932D01*
X100303456Y-47614700D01*
X100303457Y-47614700D01*
X100476543Y-47614700D01*
X100476544Y-47614700D01*
X100646307Y-47580932D01*
X100806221Y-47514694D01*
X100950139Y-47418531D01*
X101072531Y-47296139D01*
X101168694Y-47152221D01*
X101234932Y-46992307D01*
X101268700Y-46822544D01*
X101268700Y-46649456D01*
X101234932Y-46479693D01*
X101214709Y-46430871D01*
X101175413Y-46336000D01*
X101168694Y-46319779D01*
X101084419Y-46193653D01*
X101072532Y-46175862D01*
X100950137Y-46053467D01*
X100806225Y-45957308D01*
X100806220Y-45957305D01*
X100782801Y-45947605D01*
X100735524Y-45907226D01*
X100720700Y-45854663D01*
X100720700Y-44061336D01*
X100739913Y-44002205D01*
X100782800Y-43968394D01*
X100806221Y-43958694D01*
X100950139Y-43862531D01*
X101072531Y-43740139D01*
X101168694Y-43596221D01*
X101234932Y-43436307D01*
X101268700Y-43266544D01*
X101268700Y-43093456D01*
X101511300Y-43093456D01*
X101511300Y-43266543D01*
X101545068Y-43436309D01*
X101611304Y-43596217D01*
X101611308Y-43596225D01*
X101707467Y-43740137D01*
X101829862Y-43862532D01*
X101959974Y-43949470D01*
X101973779Y-43958694D01*
X101997198Y-43968394D01*
X102044475Y-44008772D01*
X102059300Y-44061336D01*
X102059300Y-45854663D01*
X102040087Y-45913794D01*
X101997199Y-45947605D01*
X101973779Y-45957305D01*
X101973774Y-45957308D01*
X101829862Y-46053467D01*
X101829861Y-46053469D01*
X101707469Y-46175861D01*
X101707467Y-46175862D01*
X101611308Y-46319774D01*
X101611304Y-46319782D01*
X101545068Y-46479690D01*
X101511300Y-46649456D01*
X101511300Y-46822543D01*
X101545068Y-46992309D01*
X101611304Y-47152217D01*
X101611308Y-47152225D01*
X101707467Y-47296137D01*
X101829862Y-47418532D01*
X101973774Y-47514691D01*
X101973776Y-47514692D01*
X101973779Y-47514694D01*
X102053736Y-47547813D01*
X102133690Y-47580931D01*
X102133691Y-47580931D01*
X102133693Y-47580932D01*
X102303456Y-47614700D01*
X102303457Y-47614700D01*
X102476543Y-47614700D01*
X102476544Y-47614700D01*
X102646307Y-47580932D01*
X102806221Y-47514694D01*
X102950139Y-47418531D01*
X103072531Y-47296139D01*
X103168694Y-47152221D01*
X103234932Y-46992307D01*
X103268700Y-46822544D01*
X103268700Y-46649456D01*
X103234932Y-46479693D01*
X103214709Y-46430871D01*
X103175413Y-46336000D01*
X103168694Y-46319779D01*
X103084419Y-46193653D01*
X103072532Y-46175862D01*
X102950137Y-46053467D01*
X102806225Y-45957308D01*
X102806220Y-45957305D01*
X102782801Y-45947605D01*
X102735524Y-45907226D01*
X102720700Y-45854663D01*
X102720700Y-44061336D01*
X102739913Y-44002205D01*
X102782800Y-43968394D01*
X102806221Y-43958694D01*
X102950139Y-43862531D01*
X103072531Y-43740139D01*
X103168694Y-43596221D01*
X103234932Y-43436307D01*
X103268700Y-43266544D01*
X103268700Y-43093456D01*
X103511300Y-43093456D01*
X103511300Y-43266543D01*
X103545068Y-43436309D01*
X103611304Y-43596217D01*
X103611308Y-43596225D01*
X103707467Y-43740137D01*
X103829862Y-43862532D01*
X103959974Y-43949470D01*
X103973779Y-43958694D01*
X103997198Y-43968394D01*
X104044475Y-44008772D01*
X104059300Y-44061336D01*
X104059300Y-45854663D01*
X104040087Y-45913794D01*
X103997199Y-45947605D01*
X103973779Y-45957305D01*
X103973774Y-45957308D01*
X103829862Y-46053467D01*
X103829861Y-46053469D01*
X103707469Y-46175861D01*
X103707467Y-46175862D01*
X103611308Y-46319774D01*
X103611304Y-46319782D01*
X103545068Y-46479690D01*
X103511300Y-46649456D01*
X103511300Y-46822543D01*
X103545068Y-46992309D01*
X103611304Y-47152217D01*
X103611308Y-47152225D01*
X103707467Y-47296137D01*
X103829862Y-47418532D01*
X103973774Y-47514691D01*
X103973776Y-47514692D01*
X103973779Y-47514694D01*
X104053736Y-47547813D01*
X104133690Y-47580931D01*
X104133691Y-47580931D01*
X104133693Y-47580932D01*
X104303456Y-47614700D01*
X104303457Y-47614700D01*
X104476543Y-47614700D01*
X104476544Y-47614700D01*
X104646307Y-47580932D01*
X104806221Y-47514694D01*
X104950139Y-47418531D01*
X105072531Y-47296139D01*
X105168694Y-47152221D01*
X105234932Y-46992307D01*
X105268700Y-46822544D01*
X105268700Y-46649456D01*
X105234932Y-46479693D01*
X105214709Y-46430871D01*
X105175413Y-46336000D01*
X105168694Y-46319779D01*
X105084419Y-46193653D01*
X105072532Y-46175862D01*
X104950137Y-46053467D01*
X104806225Y-45957308D01*
X104806220Y-45957305D01*
X104782801Y-45947605D01*
X104735524Y-45907226D01*
X104720700Y-45854663D01*
X104720700Y-44061336D01*
X104739913Y-44002205D01*
X104782800Y-43968394D01*
X104806221Y-43958694D01*
X104950139Y-43862531D01*
X105072531Y-43740139D01*
X105168694Y-43596221D01*
X105234932Y-43436307D01*
X105268700Y-43266544D01*
X105268700Y-43093456D01*
X105511300Y-43093456D01*
X105511300Y-43266543D01*
X105545068Y-43436309D01*
X105611304Y-43596217D01*
X105611308Y-43596225D01*
X105707467Y-43740137D01*
X105829862Y-43862532D01*
X105959974Y-43949470D01*
X105973779Y-43958694D01*
X105997198Y-43968394D01*
X106044475Y-44008772D01*
X106059300Y-44061336D01*
X106059300Y-45854663D01*
X106040087Y-45913794D01*
X105997199Y-45947605D01*
X105973779Y-45957305D01*
X105973774Y-45957308D01*
X105829862Y-46053467D01*
X105829861Y-46053469D01*
X105707469Y-46175861D01*
X105707467Y-46175862D01*
X105611308Y-46319774D01*
X105611304Y-46319782D01*
X105545068Y-46479690D01*
X105511300Y-46649456D01*
X105511300Y-46822543D01*
X105545068Y-46992309D01*
X105611304Y-47152217D01*
X105611308Y-47152225D01*
X105707467Y-47296137D01*
X105829862Y-47418532D01*
X105973774Y-47514691D01*
X105973776Y-47514692D01*
X105973779Y-47514694D01*
X106053736Y-47547813D01*
X106133690Y-47580931D01*
X106133691Y-47580931D01*
X106133693Y-47580932D01*
X106303456Y-47614700D01*
X106303457Y-47614700D01*
X106476543Y-47614700D01*
X106476544Y-47614700D01*
X106646307Y-47580932D01*
X106806221Y-47514694D01*
X106950139Y-47418531D01*
X107072531Y-47296139D01*
X107168694Y-47152221D01*
X107234932Y-46992307D01*
X107268700Y-46822544D01*
X107268700Y-46649456D01*
X107234932Y-46479693D01*
X107214709Y-46430871D01*
X107175413Y-46336000D01*
X107168694Y-46319779D01*
X107084419Y-46193653D01*
X107072532Y-46175862D01*
X106950137Y-46053467D01*
X106806225Y-45957308D01*
X106806220Y-45957305D01*
X106782801Y-45947605D01*
X106735524Y-45907226D01*
X106720700Y-45854663D01*
X106720700Y-44061336D01*
X106739913Y-44002205D01*
X106782800Y-43968394D01*
X106806221Y-43958694D01*
X106950139Y-43862531D01*
X107072531Y-43740139D01*
X107168694Y-43596221D01*
X107234932Y-43436307D01*
X107268700Y-43266544D01*
X107268700Y-43093456D01*
X107511300Y-43093456D01*
X107511300Y-43266543D01*
X107545068Y-43436309D01*
X107611304Y-43596217D01*
X107611308Y-43596225D01*
X107707467Y-43740137D01*
X107829862Y-43862532D01*
X107959974Y-43949470D01*
X107973779Y-43958694D01*
X107997198Y-43968394D01*
X108044475Y-44008772D01*
X108059300Y-44061336D01*
X108059300Y-45854663D01*
X108040087Y-45913794D01*
X107997199Y-45947605D01*
X107973779Y-45957305D01*
X107973774Y-45957308D01*
X107829862Y-46053467D01*
X107829861Y-46053469D01*
X107707469Y-46175861D01*
X107707467Y-46175862D01*
X107611308Y-46319774D01*
X107611304Y-46319782D01*
X107545068Y-46479690D01*
X107511300Y-46649456D01*
X107511300Y-46822543D01*
X107545068Y-46992309D01*
X107611304Y-47152217D01*
X107611308Y-47152225D01*
X107707467Y-47296137D01*
X107829862Y-47418532D01*
X107973774Y-47514691D01*
X107973776Y-47514692D01*
X107973779Y-47514694D01*
X108053736Y-47547813D01*
X108133690Y-47580931D01*
X108133691Y-47580931D01*
X108133693Y-47580932D01*
X108303456Y-47614700D01*
X108303457Y-47614700D01*
X108476543Y-47614700D01*
X108476544Y-47614700D01*
X108646307Y-47580932D01*
X108806221Y-47514694D01*
X108950139Y-47418531D01*
X109072531Y-47296139D01*
X109168694Y-47152221D01*
X109234932Y-46992307D01*
X109268700Y-46822544D01*
X109268700Y-46649456D01*
X109234932Y-46479693D01*
X109214709Y-46430871D01*
X109175413Y-46336000D01*
X109168694Y-46319779D01*
X109084419Y-46193653D01*
X109072532Y-46175862D01*
X108950137Y-46053467D01*
X108806225Y-45957308D01*
X108806220Y-45957305D01*
X108782801Y-45947605D01*
X108735524Y-45907226D01*
X108720700Y-45854663D01*
X108720700Y-44061336D01*
X108739913Y-44002205D01*
X108782800Y-43968394D01*
X108806221Y-43958694D01*
X108950139Y-43862531D01*
X109072531Y-43740139D01*
X109168694Y-43596221D01*
X109234932Y-43436307D01*
X109268700Y-43266544D01*
X109268700Y-43093456D01*
X109511300Y-43093456D01*
X109511300Y-43266543D01*
X109545068Y-43436309D01*
X109611304Y-43596217D01*
X109611308Y-43596225D01*
X109707467Y-43740137D01*
X109829862Y-43862532D01*
X109959974Y-43949470D01*
X109973779Y-43958694D01*
X109997198Y-43968394D01*
X110044475Y-44008772D01*
X110059300Y-44061336D01*
X110059300Y-45854663D01*
X110040087Y-45913794D01*
X109997199Y-45947605D01*
X109973779Y-45957305D01*
X109973774Y-45957308D01*
X109829862Y-46053467D01*
X109829861Y-46053469D01*
X109707469Y-46175861D01*
X109707467Y-46175862D01*
X109611308Y-46319774D01*
X109611304Y-46319782D01*
X109545068Y-46479690D01*
X109511300Y-46649456D01*
X109511300Y-46822543D01*
X109545068Y-46992309D01*
X109611304Y-47152217D01*
X109611308Y-47152225D01*
X109707467Y-47296137D01*
X109829862Y-47418532D01*
X109973774Y-47514691D01*
X109973776Y-47514692D01*
X109973779Y-47514694D01*
X110053736Y-47547813D01*
X110133690Y-47580931D01*
X110133691Y-47580931D01*
X110133693Y-47580932D01*
X110303456Y-47614700D01*
X110303457Y-47614700D01*
X110476543Y-47614700D01*
X110476544Y-47614700D01*
X110646307Y-47580932D01*
X110806221Y-47514694D01*
X110950139Y-47418531D01*
X111072531Y-47296139D01*
X111168694Y-47152221D01*
X111234932Y-46992307D01*
X111268700Y-46822544D01*
X111268700Y-46649456D01*
X111234932Y-46479693D01*
X111214709Y-46430871D01*
X111175413Y-46336000D01*
X111168694Y-46319779D01*
X111084419Y-46193653D01*
X111072532Y-46175862D01*
X110950137Y-46053467D01*
X110806225Y-45957308D01*
X110806220Y-45957305D01*
X110782801Y-45947605D01*
X110735524Y-45907226D01*
X110720700Y-45854663D01*
X110720700Y-44061336D01*
X110739913Y-44002205D01*
X110782800Y-43968394D01*
X110806221Y-43958694D01*
X110950139Y-43862531D01*
X111072531Y-43740139D01*
X111168694Y-43596221D01*
X111234932Y-43436307D01*
X111268700Y-43266544D01*
X111268700Y-43093456D01*
X111511300Y-43093456D01*
X111511300Y-43266543D01*
X111545068Y-43436309D01*
X111611304Y-43596217D01*
X111611308Y-43596225D01*
X111707467Y-43740137D01*
X111829862Y-43862532D01*
X111959974Y-43949470D01*
X111973779Y-43958694D01*
X111997198Y-43968394D01*
X112044475Y-44008772D01*
X112059300Y-44061336D01*
X112059300Y-45854663D01*
X112040087Y-45913794D01*
X111997199Y-45947605D01*
X111973779Y-45957305D01*
X111973774Y-45957308D01*
X111829862Y-46053467D01*
X111829861Y-46053469D01*
X111707469Y-46175861D01*
X111707467Y-46175862D01*
X111611308Y-46319774D01*
X111611304Y-46319782D01*
X111545068Y-46479690D01*
X111511300Y-46649456D01*
X111511300Y-46822543D01*
X111545068Y-46992309D01*
X111611304Y-47152217D01*
X111611308Y-47152225D01*
X111707467Y-47296137D01*
X111829862Y-47418532D01*
X111973774Y-47514691D01*
X111973776Y-47514692D01*
X111973779Y-47514694D01*
X112053736Y-47547813D01*
X112133690Y-47580931D01*
X112133691Y-47580931D01*
X112133693Y-47580932D01*
X112303456Y-47614700D01*
X112303457Y-47614700D01*
X112476543Y-47614700D01*
X112476544Y-47614700D01*
X112646307Y-47580932D01*
X112806221Y-47514694D01*
X112950139Y-47418531D01*
X113072531Y-47296139D01*
X113168694Y-47152221D01*
X113234932Y-46992307D01*
X113268700Y-46822544D01*
X113268700Y-46649456D01*
X113236187Y-46486000D01*
X113544322Y-46486000D01*
X114074314Y-46486000D01*
X114069920Y-46490394D01*
X114017259Y-46581606D01*
X113990000Y-46683339D01*
X113990000Y-46788661D01*
X114017259Y-46890394D01*
X114069920Y-46981606D01*
X114074314Y-46986000D01*
X113544323Y-46986000D01*
X113545547Y-46992155D01*
X113545551Y-46992169D01*
X113611746Y-47151978D01*
X113611746Y-47151979D01*
X113707856Y-47295818D01*
X113830181Y-47418143D01*
X113974016Y-47514251D01*
X114133840Y-47580450D01*
X114133844Y-47580451D01*
X114140000Y-47581676D01*
X114140000Y-47051686D01*
X114144394Y-47056080D01*
X114235606Y-47108741D01*
X114337339Y-47136000D01*
X114442661Y-47136000D01*
X114544394Y-47108741D01*
X114635606Y-47056080D01*
X114640000Y-47051686D01*
X114640000Y-47581676D01*
X114646155Y-47580451D01*
X114646159Y-47580450D01*
X114805983Y-47514251D01*
X114949818Y-47418143D01*
X114949820Y-47418142D01*
X115072142Y-47295820D01*
X115072143Y-47295818D01*
X115168253Y-47151979D01*
X115168253Y-47151978D01*
X115234448Y-46992169D01*
X115234452Y-46992155D01*
X115235677Y-46986000D01*
X114705686Y-46986000D01*
X114710080Y-46981606D01*
X114762741Y-46890394D01*
X114790000Y-46788661D01*
X114790000Y-46683339D01*
X114762741Y-46581606D01*
X114710080Y-46490394D01*
X114705686Y-46486000D01*
X115235677Y-46486000D01*
X115234452Y-46479844D01*
X115234448Y-46479830D01*
X115168253Y-46320021D01*
X115168253Y-46320020D01*
X115072143Y-46176181D01*
X114949818Y-46053856D01*
X114805979Y-45957746D01*
X114646169Y-45891551D01*
X114646155Y-45891547D01*
X114640000Y-45890322D01*
X114640000Y-46420314D01*
X114635606Y-46415920D01*
X114544394Y-46363259D01*
X114442661Y-46336000D01*
X114337339Y-46336000D01*
X114235606Y-46363259D01*
X114144394Y-46415920D01*
X114140000Y-46420314D01*
X114140000Y-45890322D01*
X114133844Y-45891547D01*
X114133830Y-45891551D01*
X113974021Y-45957746D01*
X113974020Y-45957746D01*
X113830181Y-46053856D01*
X113830180Y-46053858D01*
X113707858Y-46176180D01*
X113707856Y-46176181D01*
X113611746Y-46320020D01*
X113611746Y-46320021D01*
X113545551Y-46479830D01*
X113545547Y-46479844D01*
X113544322Y-46486000D01*
X113236187Y-46486000D01*
X113234932Y-46479693D01*
X113214709Y-46430871D01*
X113175413Y-46336000D01*
X113168694Y-46319779D01*
X113084419Y-46193653D01*
X113072532Y-46175862D01*
X112950137Y-46053467D01*
X112806225Y-45957308D01*
X112806220Y-45957305D01*
X112782801Y-45947605D01*
X112735524Y-45907226D01*
X112720700Y-45854663D01*
X112720700Y-44061336D01*
X112739913Y-44002205D01*
X112782800Y-43968394D01*
X112806221Y-43958694D01*
X112950139Y-43862531D01*
X113072531Y-43740139D01*
X113168694Y-43596221D01*
X113234932Y-43436307D01*
X113268700Y-43266544D01*
X113268700Y-43093456D01*
X113236187Y-42930000D01*
X113544322Y-42930000D01*
X114074314Y-42930000D01*
X114069920Y-42934394D01*
X114017259Y-43025606D01*
X113990000Y-43127339D01*
X113990000Y-43232661D01*
X114017259Y-43334394D01*
X114069920Y-43425606D01*
X114074314Y-43430000D01*
X113544323Y-43430000D01*
X113545547Y-43436155D01*
X113545551Y-43436169D01*
X113611746Y-43595978D01*
X113611746Y-43595979D01*
X113707856Y-43739818D01*
X113830181Y-43862143D01*
X113974016Y-43958251D01*
X114133840Y-44024450D01*
X114133844Y-44024451D01*
X114140000Y-44025676D01*
X114140000Y-43495686D01*
X114144394Y-43500080D01*
X114235606Y-43552741D01*
X114337339Y-43580000D01*
X114442661Y-43580000D01*
X114544394Y-43552741D01*
X114635606Y-43500080D01*
X114640000Y-43495686D01*
X114640000Y-44025676D01*
X114646155Y-44024451D01*
X114646159Y-44024450D01*
X114805983Y-43958251D01*
X114949818Y-43862143D01*
X114949820Y-43862142D01*
X115072142Y-43739820D01*
X115072143Y-43739818D01*
X115168253Y-43595979D01*
X115168253Y-43595978D01*
X115234448Y-43436169D01*
X115234452Y-43436155D01*
X115235677Y-43430000D01*
X114705686Y-43430000D01*
X114710080Y-43425606D01*
X114762741Y-43334394D01*
X114790000Y-43232661D01*
X114790000Y-43127339D01*
X114762741Y-43025606D01*
X114710080Y-42934394D01*
X114705686Y-42930000D01*
X115235677Y-42930000D01*
X115234452Y-42923844D01*
X115234448Y-42923830D01*
X115168253Y-42764021D01*
X115168253Y-42764020D01*
X115072143Y-42620181D01*
X114949818Y-42497856D01*
X114805979Y-42401746D01*
X114646169Y-42335551D01*
X114646155Y-42335547D01*
X114640000Y-42334322D01*
X114640000Y-42864314D01*
X114635606Y-42859920D01*
X114544394Y-42807259D01*
X114442661Y-42780000D01*
X114337339Y-42780000D01*
X114235606Y-42807259D01*
X114144394Y-42859920D01*
X114140000Y-42864314D01*
X114140000Y-42334322D01*
X114133844Y-42335547D01*
X114133830Y-42335551D01*
X113974021Y-42401746D01*
X113974020Y-42401746D01*
X113830181Y-42497856D01*
X113830180Y-42497858D01*
X113707858Y-42620180D01*
X113707856Y-42620181D01*
X113611746Y-42764020D01*
X113611746Y-42764021D01*
X113545551Y-42923830D01*
X113545547Y-42923844D01*
X113544322Y-42930000D01*
X113236187Y-42930000D01*
X113234932Y-42923693D01*
X113168694Y-42763779D01*
X113072531Y-42619861D01*
X112950139Y-42497469D01*
X112950137Y-42497467D01*
X112806225Y-42401308D01*
X112806217Y-42401304D01*
X112646309Y-42335068D01*
X112533131Y-42312556D01*
X112476544Y-42301300D01*
X112303456Y-42301300D01*
X112261015Y-42309742D01*
X112133690Y-42335068D01*
X111973782Y-42401304D01*
X111973774Y-42401308D01*
X111829862Y-42497467D01*
X111829861Y-42497469D01*
X111707469Y-42619861D01*
X111707467Y-42619862D01*
X111611308Y-42763774D01*
X111611304Y-42763782D01*
X111545068Y-42923690D01*
X111511300Y-43093456D01*
X111268700Y-43093456D01*
X111234932Y-42923693D01*
X111168694Y-42763779D01*
X111072531Y-42619861D01*
X110950139Y-42497469D01*
X110950137Y-42497467D01*
X110806225Y-42401308D01*
X110806217Y-42401304D01*
X110646309Y-42335068D01*
X110533131Y-42312556D01*
X110476544Y-42301300D01*
X110303456Y-42301300D01*
X110261015Y-42309742D01*
X110133690Y-42335068D01*
X109973782Y-42401304D01*
X109973774Y-42401308D01*
X109829862Y-42497467D01*
X109829861Y-42497469D01*
X109707469Y-42619861D01*
X109707467Y-42619862D01*
X109611308Y-42763774D01*
X109611304Y-42763782D01*
X109545068Y-42923690D01*
X109511300Y-43093456D01*
X109268700Y-43093456D01*
X109234932Y-42923693D01*
X109168694Y-42763779D01*
X109072531Y-42619861D01*
X108950139Y-42497469D01*
X108950137Y-42497467D01*
X108806225Y-42401308D01*
X108806217Y-42401304D01*
X108646309Y-42335068D01*
X108533131Y-42312556D01*
X108476544Y-42301300D01*
X108303456Y-42301300D01*
X108261015Y-42309742D01*
X108133690Y-42335068D01*
X107973782Y-42401304D01*
X107973774Y-42401308D01*
X107829862Y-42497467D01*
X107829861Y-42497469D01*
X107707469Y-42619861D01*
X107707467Y-42619862D01*
X107611308Y-42763774D01*
X107611304Y-42763782D01*
X107545068Y-42923690D01*
X107511300Y-43093456D01*
X107268700Y-43093456D01*
X107234932Y-42923693D01*
X107168694Y-42763779D01*
X107072531Y-42619861D01*
X106950139Y-42497469D01*
X106950137Y-42497467D01*
X106806225Y-42401308D01*
X106806217Y-42401304D01*
X106646309Y-42335068D01*
X106533131Y-42312556D01*
X106476544Y-42301300D01*
X106303456Y-42301300D01*
X106261015Y-42309742D01*
X106133690Y-42335068D01*
X105973782Y-42401304D01*
X105973774Y-42401308D01*
X105829862Y-42497467D01*
X105829861Y-42497469D01*
X105707469Y-42619861D01*
X105707467Y-42619862D01*
X105611308Y-42763774D01*
X105611304Y-42763782D01*
X105545068Y-42923690D01*
X105511300Y-43093456D01*
X105268700Y-43093456D01*
X105234932Y-42923693D01*
X105168694Y-42763779D01*
X105072531Y-42619861D01*
X104950139Y-42497469D01*
X104950137Y-42497467D01*
X104806225Y-42401308D01*
X104806217Y-42401304D01*
X104646309Y-42335068D01*
X104533131Y-42312556D01*
X104476544Y-42301300D01*
X104303456Y-42301300D01*
X104261015Y-42309742D01*
X104133690Y-42335068D01*
X103973782Y-42401304D01*
X103973774Y-42401308D01*
X103829862Y-42497467D01*
X103829861Y-42497469D01*
X103707469Y-42619861D01*
X103707467Y-42619862D01*
X103611308Y-42763774D01*
X103611304Y-42763782D01*
X103545068Y-42923690D01*
X103511300Y-43093456D01*
X103268700Y-43093456D01*
X103234932Y-42923693D01*
X103168694Y-42763779D01*
X103072531Y-42619861D01*
X102950139Y-42497469D01*
X102950137Y-42497467D01*
X102806225Y-42401308D01*
X102806217Y-42401304D01*
X102646309Y-42335068D01*
X102533131Y-42312556D01*
X102476544Y-42301300D01*
X102303456Y-42301300D01*
X102261015Y-42309742D01*
X102133690Y-42335068D01*
X101973782Y-42401304D01*
X101973774Y-42401308D01*
X101829862Y-42497467D01*
X101829861Y-42497469D01*
X101707469Y-42619861D01*
X101707467Y-42619862D01*
X101611308Y-42763774D01*
X101611304Y-42763782D01*
X101545068Y-42923690D01*
X101511300Y-43093456D01*
X101268700Y-43093456D01*
X101234932Y-42923693D01*
X101168694Y-42763779D01*
X101072531Y-42619861D01*
X100950139Y-42497469D01*
X100950137Y-42497467D01*
X100806225Y-42401308D01*
X100806217Y-42401304D01*
X100646309Y-42335068D01*
X100533131Y-42312556D01*
X100476544Y-42301300D01*
X100303456Y-42301300D01*
X100261015Y-42309742D01*
X100133690Y-42335068D01*
X99973782Y-42401304D01*
X99973774Y-42401308D01*
X99829862Y-42497467D01*
X99829861Y-42497469D01*
X99707469Y-42619861D01*
X99707467Y-42619862D01*
X99611308Y-42763774D01*
X99611304Y-42763782D01*
X99545068Y-42923690D01*
X99511300Y-43093456D01*
X99268700Y-43093456D01*
X99234932Y-42923693D01*
X99168694Y-42763779D01*
X99072531Y-42619861D01*
X98950139Y-42497469D01*
X98950137Y-42497467D01*
X98806225Y-42401308D01*
X98806217Y-42401304D01*
X98646309Y-42335068D01*
X98533131Y-42312556D01*
X98476544Y-42301300D01*
X98303456Y-42301300D01*
X98261015Y-42309742D01*
X98133690Y-42335068D01*
X97973782Y-42401304D01*
X97973774Y-42401308D01*
X97829862Y-42497467D01*
X97829861Y-42497469D01*
X97707469Y-42619861D01*
X97707467Y-42619862D01*
X97611308Y-42763774D01*
X97611304Y-42763782D01*
X97545068Y-42923690D01*
X97511300Y-43093456D01*
X97268700Y-43093456D01*
X97234932Y-42923693D01*
X97168694Y-42763779D01*
X97072531Y-42619861D01*
X96950139Y-42497469D01*
X96950137Y-42497467D01*
X96806225Y-42401308D01*
X96806217Y-42401304D01*
X96646309Y-42335068D01*
X96533131Y-42312556D01*
X96476544Y-42301300D01*
X96303456Y-42301300D01*
X96261015Y-42309742D01*
X96133690Y-42335068D01*
X95973782Y-42401304D01*
X95973774Y-42401308D01*
X95829862Y-42497467D01*
X95829861Y-42497469D01*
X95707469Y-42619861D01*
X95707467Y-42619862D01*
X95611308Y-42763774D01*
X95611304Y-42763782D01*
X95545068Y-42923690D01*
X95511300Y-43093456D01*
X95268700Y-43093456D01*
X95234932Y-42923693D01*
X95168694Y-42763779D01*
X95072531Y-42619861D01*
X94950139Y-42497469D01*
X94950137Y-42497467D01*
X94806225Y-42401308D01*
X94806217Y-42401304D01*
X94646309Y-42335068D01*
X94533131Y-42312556D01*
X94476544Y-42301300D01*
X94303456Y-42301300D01*
X94261015Y-42309742D01*
X94133690Y-42335068D01*
X93973782Y-42401304D01*
X93973774Y-42401308D01*
X93829862Y-42497467D01*
X93829861Y-42497469D01*
X93707469Y-42619861D01*
X93707467Y-42619862D01*
X93611308Y-42763774D01*
X93611304Y-42763782D01*
X93545068Y-42923690D01*
X93511300Y-43093456D01*
X93268700Y-43093456D01*
X93234932Y-42923693D01*
X93168694Y-42763779D01*
X93072531Y-42619861D01*
X92950139Y-42497469D01*
X92950137Y-42497467D01*
X92806225Y-42401308D01*
X92806217Y-42401304D01*
X92646309Y-42335068D01*
X92533131Y-42312556D01*
X92476544Y-42301300D01*
X92303456Y-42301300D01*
X92261015Y-42309742D01*
X92133690Y-42335068D01*
X91973782Y-42401304D01*
X91973774Y-42401308D01*
X91829862Y-42497467D01*
X91829861Y-42497469D01*
X91707469Y-42619861D01*
X91707467Y-42619862D01*
X91611308Y-42763774D01*
X91611304Y-42763782D01*
X91545068Y-42923690D01*
X91511300Y-43093456D01*
X90780921Y-43093456D01*
X90762741Y-43025606D01*
X90710080Y-42934394D01*
X90705686Y-42930000D01*
X91235677Y-42930000D01*
X91234452Y-42923844D01*
X91234448Y-42923830D01*
X91168253Y-42764021D01*
X91168253Y-42764020D01*
X91072143Y-42620181D01*
X90949818Y-42497856D01*
X90805979Y-42401746D01*
X90646169Y-42335551D01*
X90646155Y-42335547D01*
X90640000Y-42334322D01*
X90640000Y-42864314D01*
X90635606Y-42859920D01*
X90544394Y-42807259D01*
X90442661Y-42780000D01*
X90337339Y-42780000D01*
X90235606Y-42807259D01*
X90144394Y-42859920D01*
X90140000Y-42864314D01*
X90140000Y-42334322D01*
X90133844Y-42335547D01*
X90133830Y-42335551D01*
X89974021Y-42401746D01*
X89974020Y-42401746D01*
X89830181Y-42497856D01*
X89830180Y-42497858D01*
X89707858Y-42620180D01*
X89707856Y-42620181D01*
X89611746Y-42764020D01*
X89611746Y-42764021D01*
X89545551Y-42923830D01*
X89545547Y-42923844D01*
X89544322Y-42930000D01*
X89236187Y-42930000D01*
X89234932Y-42923693D01*
X89168694Y-42763779D01*
X89072531Y-42619861D01*
X88950139Y-42497469D01*
X88950137Y-42497467D01*
X88806225Y-42401308D01*
X88806217Y-42401304D01*
X88646309Y-42335068D01*
X88533131Y-42312556D01*
X88476544Y-42301300D01*
X88303456Y-42301300D01*
X88261015Y-42309742D01*
X88133690Y-42335068D01*
X87973782Y-42401304D01*
X87973774Y-42401308D01*
X87829862Y-42497467D01*
X87829861Y-42497469D01*
X87707469Y-42619861D01*
X87707467Y-42619862D01*
X87611308Y-42763774D01*
X87611304Y-42763782D01*
X87545068Y-42923690D01*
X87511300Y-43093456D01*
X87268700Y-43093456D01*
X87234932Y-42923693D01*
X87168694Y-42763779D01*
X87072531Y-42619861D01*
X86950139Y-42497469D01*
X86950137Y-42497467D01*
X86806225Y-42401308D01*
X86806217Y-42401304D01*
X86646309Y-42335068D01*
X86533131Y-42312556D01*
X86476544Y-42301300D01*
X86303456Y-42301300D01*
X86261015Y-42309742D01*
X86133690Y-42335068D01*
X85973782Y-42401304D01*
X85973774Y-42401308D01*
X85829862Y-42497467D01*
X85829861Y-42497469D01*
X85707469Y-42619861D01*
X85707467Y-42619862D01*
X85611308Y-42763774D01*
X85611304Y-42763782D01*
X85545068Y-42923690D01*
X85511300Y-43093456D01*
X85268700Y-43093456D01*
X85234932Y-42923693D01*
X85168694Y-42763779D01*
X85072531Y-42619861D01*
X84950139Y-42497469D01*
X84950137Y-42497467D01*
X84806225Y-42401308D01*
X84806217Y-42401304D01*
X84646309Y-42335068D01*
X84533131Y-42312556D01*
X84476544Y-42301300D01*
X84303456Y-42301300D01*
X84261015Y-42309742D01*
X84133690Y-42335068D01*
X83973782Y-42401304D01*
X83973774Y-42401308D01*
X83829862Y-42497467D01*
X83829861Y-42497469D01*
X83707469Y-42619861D01*
X83707467Y-42619862D01*
X83611308Y-42763774D01*
X83611304Y-42763782D01*
X83545068Y-42923690D01*
X83511300Y-43093456D01*
X83268700Y-43093456D01*
X83234932Y-42923693D01*
X83168694Y-42763779D01*
X83072531Y-42619861D01*
X82950139Y-42497469D01*
X82950137Y-42497467D01*
X82806225Y-42401308D01*
X82806217Y-42401304D01*
X82646309Y-42335068D01*
X82533131Y-42312556D01*
X82476544Y-42301300D01*
X82303456Y-42301300D01*
X82261015Y-42309742D01*
X82133690Y-42335068D01*
X81973782Y-42401304D01*
X81973774Y-42401308D01*
X81868790Y-42471457D01*
X81855313Y-42475257D01*
X81843987Y-42483487D01*
X81826133Y-42483487D01*
X81808950Y-42488333D01*
X81795814Y-42483487D01*
X81781813Y-42483487D01*
X81767370Y-42472993D01*
X81750619Y-42466814D01*
X81742839Y-42455171D01*
X81731513Y-42446942D01*
X81725996Y-42429963D01*
X81716077Y-42415118D01*
X81712300Y-42387811D01*
X81712300Y-42331128D01*
X81731513Y-42271997D01*
X81741759Y-42259999D01*
X81975242Y-42026515D01*
X82030637Y-41998291D01*
X82084871Y-42004709D01*
X82115257Y-42017296D01*
X82133692Y-42024932D01*
X82218574Y-42041816D01*
X82303456Y-42058700D01*
X82303457Y-42058700D01*
X82476543Y-42058700D01*
X82476544Y-42058700D01*
X82646307Y-42024932D01*
X82806221Y-41958694D01*
X82950139Y-41862531D01*
X83072531Y-41740139D01*
X83168694Y-41596221D01*
X83234932Y-41436307D01*
X83268700Y-41266544D01*
X83268700Y-41093456D01*
X83234932Y-40923693D01*
X83214709Y-40874871D01*
X83168695Y-40763782D01*
X83168694Y-40763779D01*
X83072531Y-40619861D01*
X82950139Y-40497469D01*
X82950137Y-40497467D01*
X82806225Y-40401308D01*
X82801865Y-40398978D01*
X82802741Y-40397338D01*
X82761207Y-40361869D01*
X82746689Y-40301414D01*
X82770478Y-40243971D01*
X82823488Y-40211481D01*
X82846979Y-40208700D01*
X82945271Y-40208700D01*
X83004402Y-40227913D01*
X83016406Y-40238165D01*
X83543481Y-40765240D01*
X83571707Y-40820638D01*
X83565289Y-40874871D01*
X83545067Y-40923692D01*
X83511300Y-41093456D01*
X83511300Y-41266543D01*
X83545068Y-41436309D01*
X83611304Y-41596217D01*
X83611308Y-41596225D01*
X83707467Y-41740137D01*
X83829862Y-41862532D01*
X83973774Y-41958691D01*
X83973776Y-41958692D01*
X83973779Y-41958694D01*
X84004744Y-41971520D01*
X84133690Y-42024931D01*
X84133691Y-42024931D01*
X84133693Y-42024932D01*
X84303456Y-42058700D01*
X84303457Y-42058700D01*
X84476543Y-42058700D01*
X84476544Y-42058700D01*
X84646307Y-42024932D01*
X84806221Y-41958694D01*
X84950139Y-41862531D01*
X85072531Y-41740139D01*
X85168694Y-41596221D01*
X85234932Y-41436307D01*
X85268700Y-41266544D01*
X85268700Y-41093456D01*
X85234932Y-40923693D01*
X85214709Y-40874871D01*
X85168695Y-40763782D01*
X85168694Y-40763779D01*
X85072531Y-40619861D01*
X84950139Y-40497469D01*
X84950137Y-40497467D01*
X84806225Y-40401308D01*
X84806217Y-40401304D01*
X84646309Y-40335068D01*
X84533131Y-40312556D01*
X84476544Y-40301300D01*
X84303456Y-40301300D01*
X84279299Y-40306105D01*
X84133692Y-40335067D01*
X84084871Y-40355289D01*
X84022888Y-40360166D01*
X83975240Y-40333481D01*
X83764099Y-40122340D01*
X83463391Y-39821632D01*
X83435167Y-39766237D01*
X83444893Y-39704829D01*
X83488856Y-39660865D01*
X83534528Y-39649900D01*
X84388471Y-39649900D01*
X84447602Y-39669113D01*
X84459606Y-39679365D01*
X85544067Y-40763826D01*
X85572293Y-40819224D01*
X85565875Y-40873457D01*
X85545067Y-40923692D01*
X85511300Y-41093456D01*
X85511300Y-41266543D01*
X85545068Y-41436309D01*
X85611304Y-41596217D01*
X85611308Y-41596225D01*
X85707467Y-41740137D01*
X85829862Y-41862532D01*
X85973774Y-41958691D01*
X85973776Y-41958692D01*
X85973779Y-41958694D01*
X86004744Y-41971520D01*
X86133690Y-42024931D01*
X86133691Y-42024931D01*
X86133693Y-42024932D01*
X86303456Y-42058700D01*
X86303457Y-42058700D01*
X86476543Y-42058700D01*
X86476544Y-42058700D01*
X86646307Y-42024932D01*
X86806221Y-41958694D01*
X86950139Y-41862531D01*
X87072531Y-41740139D01*
X87168694Y-41596221D01*
X87234932Y-41436307D01*
X87268700Y-41266544D01*
X87268700Y-41093456D01*
X87234932Y-40923693D01*
X87214709Y-40874871D01*
X87168695Y-40763782D01*
X87168694Y-40763779D01*
X87072531Y-40619861D01*
X86950139Y-40497469D01*
X86950137Y-40497467D01*
X86806225Y-40401308D01*
X86806217Y-40401304D01*
X86646309Y-40335068D01*
X86533131Y-40312556D01*
X86476544Y-40301300D01*
X86303456Y-40301300D01*
X86261015Y-40309742D01*
X86133690Y-40335068D01*
X86086284Y-40354703D01*
X86024301Y-40359580D01*
X85976654Y-40332895D01*
X84855794Y-39212035D01*
X84827568Y-39156637D01*
X84837294Y-39095229D01*
X84881258Y-39051265D01*
X84926929Y-39040300D01*
X85785471Y-39040300D01*
X85844602Y-39059513D01*
X85856606Y-39069765D01*
X87546000Y-40759159D01*
X87574226Y-40814557D01*
X87567808Y-40868790D01*
X87545067Y-40923692D01*
X87511300Y-41093456D01*
X87511300Y-41266543D01*
X87545068Y-41436309D01*
X87611304Y-41596217D01*
X87611308Y-41596225D01*
X87707467Y-41740137D01*
X87829862Y-41862532D01*
X87973774Y-41958691D01*
X87973776Y-41958692D01*
X87973779Y-41958694D01*
X88004744Y-41971520D01*
X88133690Y-42024931D01*
X88133691Y-42024931D01*
X88133693Y-42024932D01*
X88303456Y-42058700D01*
X88303457Y-42058700D01*
X88476543Y-42058700D01*
X88476544Y-42058700D01*
X88646307Y-42024932D01*
X88806221Y-41958694D01*
X88950139Y-41862531D01*
X89072531Y-41740139D01*
X89168694Y-41596221D01*
X89234932Y-41436307D01*
X89268700Y-41266544D01*
X89268700Y-41093456D01*
X89511300Y-41093456D01*
X89511300Y-41266543D01*
X89545068Y-41436309D01*
X89611304Y-41596217D01*
X89611308Y-41596225D01*
X89707467Y-41740137D01*
X89829862Y-41862532D01*
X89973774Y-41958691D01*
X89973776Y-41958692D01*
X89973779Y-41958694D01*
X90004744Y-41971520D01*
X90133690Y-42024931D01*
X90133691Y-42024931D01*
X90133693Y-42024932D01*
X90303456Y-42058700D01*
X90303457Y-42058700D01*
X90476543Y-42058700D01*
X90476544Y-42058700D01*
X90646307Y-42024932D01*
X90806221Y-41958694D01*
X90950139Y-41862531D01*
X91072531Y-41740139D01*
X91168694Y-41596221D01*
X91234932Y-41436307D01*
X91268700Y-41266544D01*
X91268700Y-41093456D01*
X91236187Y-40930000D01*
X91544322Y-40930000D01*
X92074314Y-40930000D01*
X92069920Y-40934394D01*
X92017259Y-41025606D01*
X91990000Y-41127339D01*
X91990000Y-41232661D01*
X92017259Y-41334394D01*
X92069920Y-41425606D01*
X92074314Y-41430000D01*
X91544323Y-41430000D01*
X91545547Y-41436155D01*
X91545551Y-41436169D01*
X91611746Y-41595978D01*
X91611746Y-41595979D01*
X91707856Y-41739818D01*
X91830181Y-41862143D01*
X91974016Y-41958251D01*
X92133840Y-42024450D01*
X92133844Y-42024451D01*
X92140000Y-42025676D01*
X92140000Y-41495686D01*
X92144394Y-41500080D01*
X92235606Y-41552741D01*
X92337339Y-41580000D01*
X92442661Y-41580000D01*
X92544394Y-41552741D01*
X92635606Y-41500080D01*
X92640000Y-41495686D01*
X92640000Y-42025675D01*
X92646155Y-42024451D01*
X92646159Y-42024450D01*
X92805983Y-41958251D01*
X92949818Y-41862143D01*
X92949820Y-41862142D01*
X93072142Y-41739820D01*
X93072143Y-41739818D01*
X93168253Y-41595979D01*
X93168253Y-41595978D01*
X93234448Y-41436169D01*
X93234452Y-41436155D01*
X93235677Y-41430000D01*
X92705686Y-41430000D01*
X92710080Y-41425606D01*
X92762741Y-41334394D01*
X92790000Y-41232661D01*
X92790000Y-41127339D01*
X92762741Y-41025606D01*
X92710080Y-40934394D01*
X92705686Y-40930000D01*
X93235677Y-40930000D01*
X93544322Y-40930000D01*
X94074314Y-40930000D01*
X94069920Y-40934394D01*
X94017259Y-41025606D01*
X93990000Y-41127339D01*
X93990000Y-41232661D01*
X94017259Y-41334394D01*
X94069920Y-41425606D01*
X94074314Y-41430000D01*
X93544323Y-41430000D01*
X93545547Y-41436155D01*
X93545551Y-41436169D01*
X93611746Y-41595978D01*
X93611746Y-41595979D01*
X93707856Y-41739818D01*
X93830181Y-41862143D01*
X93974016Y-41958251D01*
X94133840Y-42024450D01*
X94133844Y-42024451D01*
X94140000Y-42025676D01*
X94140000Y-41495686D01*
X94144394Y-41500080D01*
X94235606Y-41552741D01*
X94337339Y-41580000D01*
X94442661Y-41580000D01*
X94544394Y-41552741D01*
X94635606Y-41500080D01*
X94640000Y-41495686D01*
X94640000Y-42025675D01*
X94646155Y-42024451D01*
X94646159Y-42024450D01*
X94805983Y-41958251D01*
X94949818Y-41862143D01*
X94949820Y-41862142D01*
X95072142Y-41739820D01*
X95072143Y-41739818D01*
X95168253Y-41595979D01*
X95168253Y-41595978D01*
X95234448Y-41436169D01*
X95234452Y-41436155D01*
X95235677Y-41430000D01*
X94705686Y-41430000D01*
X94710080Y-41425606D01*
X94762741Y-41334394D01*
X94790000Y-41232661D01*
X94790000Y-41127339D01*
X94762741Y-41025606D01*
X94710080Y-40934394D01*
X94705686Y-40930000D01*
X95235677Y-40930000D01*
X95544322Y-40930000D01*
X96074314Y-40930000D01*
X96069920Y-40934394D01*
X96017259Y-41025606D01*
X95990000Y-41127339D01*
X95990000Y-41232661D01*
X96017259Y-41334394D01*
X96069920Y-41425606D01*
X96074314Y-41430000D01*
X95544323Y-41430000D01*
X95545547Y-41436155D01*
X95545551Y-41436169D01*
X95611746Y-41595978D01*
X95611746Y-41595979D01*
X95707856Y-41739818D01*
X95830181Y-41862143D01*
X95974016Y-41958251D01*
X96133840Y-42024450D01*
X96133844Y-42024451D01*
X96140000Y-42025676D01*
X96140000Y-41495686D01*
X96144394Y-41500080D01*
X96235606Y-41552741D01*
X96337339Y-41580000D01*
X96442661Y-41580000D01*
X96544394Y-41552741D01*
X96635606Y-41500080D01*
X96640000Y-41495686D01*
X96640000Y-42025676D01*
X96646155Y-42024451D01*
X96646159Y-42024450D01*
X96805983Y-41958251D01*
X96949818Y-41862143D01*
X96949820Y-41862142D01*
X97072142Y-41739820D01*
X97072143Y-41739818D01*
X97168253Y-41595979D01*
X97168253Y-41595978D01*
X97234448Y-41436169D01*
X97234452Y-41436155D01*
X97235677Y-41430000D01*
X96705686Y-41430000D01*
X96710080Y-41425606D01*
X96762741Y-41334394D01*
X96790000Y-41232661D01*
X96790000Y-41127339D01*
X96780921Y-41093456D01*
X97511300Y-41093456D01*
X97511300Y-41266543D01*
X97545068Y-41436309D01*
X97611304Y-41596217D01*
X97611308Y-41596225D01*
X97707467Y-41740137D01*
X97829862Y-41862532D01*
X97973774Y-41958691D01*
X97973776Y-41958692D01*
X97973779Y-41958694D01*
X98004744Y-41971520D01*
X98133690Y-42024931D01*
X98133691Y-42024931D01*
X98133693Y-42024932D01*
X98303456Y-42058700D01*
X98303457Y-42058700D01*
X98476543Y-42058700D01*
X98476544Y-42058700D01*
X98646307Y-42024932D01*
X98806221Y-41958694D01*
X98950139Y-41862531D01*
X99072531Y-41740139D01*
X99168694Y-41596221D01*
X99234932Y-41436307D01*
X99268700Y-41266544D01*
X99268700Y-41093456D01*
X99236187Y-40930000D01*
X99544322Y-40930000D01*
X100074314Y-40930000D01*
X100069920Y-40934394D01*
X100017259Y-41025606D01*
X99990000Y-41127339D01*
X99990000Y-41232661D01*
X100017259Y-41334394D01*
X100069920Y-41425606D01*
X100074314Y-41430000D01*
X99544323Y-41430000D01*
X99545547Y-41436155D01*
X99545551Y-41436169D01*
X99611746Y-41595978D01*
X99611746Y-41595979D01*
X99707856Y-41739818D01*
X99830181Y-41862143D01*
X99974016Y-41958251D01*
X100133840Y-42024450D01*
X100133844Y-42024451D01*
X100140000Y-42025676D01*
X100140000Y-41495686D01*
X100144394Y-41500080D01*
X100235606Y-41552741D01*
X100337339Y-41580000D01*
X100442661Y-41580000D01*
X100544394Y-41552741D01*
X100635606Y-41500080D01*
X100640000Y-41495686D01*
X100640000Y-42025675D01*
X100646155Y-42024451D01*
X100646159Y-42024450D01*
X100805983Y-41958251D01*
X100949818Y-41862143D01*
X100949820Y-41862142D01*
X101072142Y-41739820D01*
X101072143Y-41739818D01*
X101168253Y-41595979D01*
X101168253Y-41595978D01*
X101234448Y-41436169D01*
X101234452Y-41436155D01*
X101235677Y-41430000D01*
X100705686Y-41430000D01*
X100710080Y-41425606D01*
X100762741Y-41334394D01*
X100790000Y-41232661D01*
X100790000Y-41127339D01*
X100780921Y-41093456D01*
X101511300Y-41093456D01*
X101511300Y-41266543D01*
X101545068Y-41436309D01*
X101611304Y-41596217D01*
X101611308Y-41596225D01*
X101707467Y-41740137D01*
X101829862Y-41862532D01*
X101973774Y-41958691D01*
X101973776Y-41958692D01*
X101973779Y-41958694D01*
X102004744Y-41971520D01*
X102133690Y-42024931D01*
X102133691Y-42024931D01*
X102133693Y-42024932D01*
X102303456Y-42058700D01*
X102303457Y-42058700D01*
X102476543Y-42058700D01*
X102476544Y-42058700D01*
X102646307Y-42024932D01*
X102806221Y-41958694D01*
X102950139Y-41862531D01*
X103072531Y-41740139D01*
X103168694Y-41596221D01*
X103234932Y-41436307D01*
X103268700Y-41266544D01*
X103268700Y-41093456D01*
X103511300Y-41093456D01*
X103511300Y-41266543D01*
X103545068Y-41436309D01*
X103611304Y-41596217D01*
X103611308Y-41596225D01*
X103707467Y-41740137D01*
X103829862Y-41862532D01*
X103973774Y-41958691D01*
X103973776Y-41958692D01*
X103973779Y-41958694D01*
X104004744Y-41971520D01*
X104133690Y-42024931D01*
X104133691Y-42024931D01*
X104133693Y-42024932D01*
X104303456Y-42058700D01*
X104303457Y-42058700D01*
X104476543Y-42058700D01*
X104476544Y-42058700D01*
X104646307Y-42024932D01*
X104806221Y-41958694D01*
X104950139Y-41862531D01*
X105072531Y-41740139D01*
X105168694Y-41596221D01*
X105234932Y-41436307D01*
X105268700Y-41266544D01*
X105268700Y-41093456D01*
X105511300Y-41093456D01*
X105511300Y-41266543D01*
X105545068Y-41436309D01*
X105611304Y-41596217D01*
X105611308Y-41596225D01*
X105707467Y-41740137D01*
X105829862Y-41862532D01*
X105973774Y-41958691D01*
X105973776Y-41958692D01*
X105973779Y-41958694D01*
X106004744Y-41971520D01*
X106133690Y-42024931D01*
X106133691Y-42024931D01*
X106133693Y-42024932D01*
X106303456Y-42058700D01*
X106303457Y-42058700D01*
X106476543Y-42058700D01*
X106476544Y-42058700D01*
X106646307Y-42024932D01*
X106806221Y-41958694D01*
X106950139Y-41862531D01*
X107072531Y-41740139D01*
X107168694Y-41596221D01*
X107234932Y-41436307D01*
X107268700Y-41266544D01*
X107268700Y-41093456D01*
X107511300Y-41093456D01*
X107511300Y-41266543D01*
X107545068Y-41436309D01*
X107611304Y-41596217D01*
X107611308Y-41596225D01*
X107707467Y-41740137D01*
X107829862Y-41862532D01*
X107973774Y-41958691D01*
X107973776Y-41958692D01*
X107973779Y-41958694D01*
X108004744Y-41971520D01*
X108133690Y-42024931D01*
X108133691Y-42024931D01*
X108133693Y-42024932D01*
X108303456Y-42058700D01*
X108303457Y-42058700D01*
X108476543Y-42058700D01*
X108476544Y-42058700D01*
X108646307Y-42024932D01*
X108806221Y-41958694D01*
X108950139Y-41862531D01*
X109072531Y-41740139D01*
X109168694Y-41596221D01*
X109234932Y-41436307D01*
X109268700Y-41266544D01*
X109268700Y-41093456D01*
X109236187Y-40930000D01*
X109544322Y-40930000D01*
X110074314Y-40930000D01*
X110069920Y-40934394D01*
X110017259Y-41025606D01*
X109990000Y-41127339D01*
X109990000Y-41232661D01*
X110017259Y-41334394D01*
X110069920Y-41425606D01*
X110074314Y-41430000D01*
X109544323Y-41430000D01*
X109545547Y-41436155D01*
X109545551Y-41436169D01*
X109611746Y-41595978D01*
X109611746Y-41595979D01*
X109707856Y-41739818D01*
X109830181Y-41862143D01*
X109974016Y-41958251D01*
X110133840Y-42024450D01*
X110133844Y-42024451D01*
X110140000Y-42025676D01*
X110140000Y-41495686D01*
X110144394Y-41500080D01*
X110235606Y-41552741D01*
X110337339Y-41580000D01*
X110442661Y-41580000D01*
X110544394Y-41552741D01*
X110635606Y-41500080D01*
X110640000Y-41495686D01*
X110640000Y-42025675D01*
X110646155Y-42024451D01*
X110646159Y-42024450D01*
X110805983Y-41958251D01*
X110949818Y-41862143D01*
X110949820Y-41862142D01*
X111072142Y-41739820D01*
X111072143Y-41739818D01*
X111168253Y-41595979D01*
X111168253Y-41595978D01*
X111234448Y-41436169D01*
X111234452Y-41436155D01*
X111235677Y-41430000D01*
X110705686Y-41430000D01*
X110710080Y-41425606D01*
X110762741Y-41334394D01*
X110790000Y-41232661D01*
X110790000Y-41127339D01*
X110780921Y-41093456D01*
X111511300Y-41093456D01*
X111511300Y-41266543D01*
X111545068Y-41436309D01*
X111611304Y-41596217D01*
X111611308Y-41596225D01*
X111707467Y-41740137D01*
X111829862Y-41862532D01*
X111973774Y-41958691D01*
X111973776Y-41958692D01*
X111973779Y-41958694D01*
X112004744Y-41971520D01*
X112133690Y-42024931D01*
X112133691Y-42024931D01*
X112133693Y-42024932D01*
X112303456Y-42058700D01*
X112303457Y-42058700D01*
X112476543Y-42058700D01*
X112476544Y-42058700D01*
X112646307Y-42024932D01*
X112806221Y-41958694D01*
X112950139Y-41862531D01*
X113072531Y-41740139D01*
X113168694Y-41596221D01*
X113234932Y-41436307D01*
X113268700Y-41266544D01*
X113268700Y-41093456D01*
X113511300Y-41093456D01*
X113511300Y-41266543D01*
X113545068Y-41436309D01*
X113611304Y-41596217D01*
X113611308Y-41596225D01*
X113707467Y-41740137D01*
X113829862Y-41862532D01*
X113973774Y-41958691D01*
X113973776Y-41958692D01*
X113973779Y-41958694D01*
X114004744Y-41971520D01*
X114133690Y-42024931D01*
X114133691Y-42024931D01*
X114133693Y-42024932D01*
X114303456Y-42058700D01*
X114303457Y-42058700D01*
X114476543Y-42058700D01*
X114476544Y-42058700D01*
X114646307Y-42024932D01*
X114806221Y-41958694D01*
X114950139Y-41862531D01*
X115072531Y-41740139D01*
X115168694Y-41596221D01*
X115234932Y-41436307D01*
X115268700Y-41266544D01*
X115268700Y-41093456D01*
X115234932Y-40923693D01*
X115214709Y-40874871D01*
X115168695Y-40763782D01*
X115168694Y-40763779D01*
X115072531Y-40619861D01*
X114950139Y-40497469D01*
X114950137Y-40497467D01*
X114806225Y-40401308D01*
X114806217Y-40401304D01*
X114646309Y-40335068D01*
X114533131Y-40312556D01*
X114476544Y-40301300D01*
X114303456Y-40301300D01*
X114261015Y-40309742D01*
X114133690Y-40335068D01*
X113973782Y-40401304D01*
X113973774Y-40401308D01*
X113829862Y-40497467D01*
X113829861Y-40497469D01*
X113707469Y-40619861D01*
X113707467Y-40619862D01*
X113611308Y-40763774D01*
X113611304Y-40763782D01*
X113545068Y-40923690D01*
X113511300Y-41093456D01*
X113268700Y-41093456D01*
X113234932Y-40923693D01*
X113214709Y-40874871D01*
X113168695Y-40763782D01*
X113168694Y-40763779D01*
X113072531Y-40619861D01*
X112950139Y-40497469D01*
X112950137Y-40497467D01*
X112806225Y-40401308D01*
X112806217Y-40401304D01*
X112646309Y-40335068D01*
X112533131Y-40312556D01*
X112476544Y-40301300D01*
X112303456Y-40301300D01*
X112261015Y-40309742D01*
X112133690Y-40335068D01*
X111973782Y-40401304D01*
X111973774Y-40401308D01*
X111829862Y-40497467D01*
X111829861Y-40497469D01*
X111707469Y-40619861D01*
X111707467Y-40619862D01*
X111611308Y-40763774D01*
X111611304Y-40763782D01*
X111545068Y-40923690D01*
X111511300Y-41093456D01*
X110780921Y-41093456D01*
X110762741Y-41025606D01*
X110710080Y-40934394D01*
X110705686Y-40930000D01*
X111235677Y-40930000D01*
X111234452Y-40923844D01*
X111234448Y-40923830D01*
X111168253Y-40764021D01*
X111168253Y-40764020D01*
X111072143Y-40620181D01*
X110949818Y-40497856D01*
X110805979Y-40401746D01*
X110646169Y-40335551D01*
X110646155Y-40335547D01*
X110640000Y-40334322D01*
X110640000Y-40864314D01*
X110635606Y-40859920D01*
X110544394Y-40807259D01*
X110442661Y-40780000D01*
X110337339Y-40780000D01*
X110235606Y-40807259D01*
X110144394Y-40859920D01*
X110140000Y-40864314D01*
X110140000Y-40334322D01*
X110133844Y-40335547D01*
X110133830Y-40335551D01*
X109974021Y-40401746D01*
X109974020Y-40401746D01*
X109830181Y-40497856D01*
X109830180Y-40497858D01*
X109707858Y-40620180D01*
X109707856Y-40620181D01*
X109611746Y-40764020D01*
X109611746Y-40764021D01*
X109545551Y-40923830D01*
X109545547Y-40923844D01*
X109544322Y-40930000D01*
X109236187Y-40930000D01*
X109234932Y-40923693D01*
X109214709Y-40874871D01*
X109168695Y-40763782D01*
X109168694Y-40763779D01*
X109072531Y-40619861D01*
X108950139Y-40497469D01*
X108950137Y-40497467D01*
X108806225Y-40401308D01*
X108806217Y-40401304D01*
X108646309Y-40335068D01*
X108533131Y-40312556D01*
X108476544Y-40301300D01*
X108303456Y-40301300D01*
X108261015Y-40309742D01*
X108133690Y-40335068D01*
X107973782Y-40401304D01*
X107973774Y-40401308D01*
X107829862Y-40497467D01*
X107829861Y-40497469D01*
X107707469Y-40619861D01*
X107707467Y-40619862D01*
X107611308Y-40763774D01*
X107611304Y-40763782D01*
X107545068Y-40923690D01*
X107511300Y-41093456D01*
X107268700Y-41093456D01*
X107234932Y-40923693D01*
X107214709Y-40874871D01*
X107168695Y-40763782D01*
X107168694Y-40763779D01*
X107072531Y-40619861D01*
X106950139Y-40497469D01*
X106950137Y-40497467D01*
X106806225Y-40401308D01*
X106806217Y-40401304D01*
X106646309Y-40335068D01*
X106533131Y-40312556D01*
X106476544Y-40301300D01*
X106303456Y-40301300D01*
X106261015Y-40309742D01*
X106133690Y-40335068D01*
X105973782Y-40401304D01*
X105973774Y-40401308D01*
X105829862Y-40497467D01*
X105829861Y-40497469D01*
X105707469Y-40619861D01*
X105707467Y-40619862D01*
X105611308Y-40763774D01*
X105611304Y-40763782D01*
X105545068Y-40923690D01*
X105511300Y-41093456D01*
X105268700Y-41093456D01*
X105234932Y-40923693D01*
X105214709Y-40874871D01*
X105168695Y-40763782D01*
X105168694Y-40763779D01*
X105072531Y-40619861D01*
X104950139Y-40497469D01*
X104950137Y-40497467D01*
X104806225Y-40401308D01*
X104806217Y-40401304D01*
X104646309Y-40335068D01*
X104533131Y-40312556D01*
X104476544Y-40301300D01*
X104303456Y-40301300D01*
X104261015Y-40309742D01*
X104133690Y-40335068D01*
X103973782Y-40401304D01*
X103973774Y-40401308D01*
X103829862Y-40497467D01*
X103829861Y-40497469D01*
X103707469Y-40619861D01*
X103707467Y-40619862D01*
X103611308Y-40763774D01*
X103611304Y-40763782D01*
X103545068Y-40923690D01*
X103511300Y-41093456D01*
X103268700Y-41093456D01*
X103234932Y-40923693D01*
X103214709Y-40874871D01*
X103168695Y-40763782D01*
X103168694Y-40763779D01*
X103072531Y-40619861D01*
X102950139Y-40497469D01*
X102950137Y-40497467D01*
X102806225Y-40401308D01*
X102806217Y-40401304D01*
X102646309Y-40335068D01*
X102533131Y-40312556D01*
X102476544Y-40301300D01*
X102303456Y-40301300D01*
X102261015Y-40309742D01*
X102133690Y-40335068D01*
X101973782Y-40401304D01*
X101973774Y-40401308D01*
X101829862Y-40497467D01*
X101829861Y-40497469D01*
X101707469Y-40619861D01*
X101707467Y-40619862D01*
X101611308Y-40763774D01*
X101611304Y-40763782D01*
X101545068Y-40923690D01*
X101511300Y-41093456D01*
X100780921Y-41093456D01*
X100762741Y-41025606D01*
X100710080Y-40934394D01*
X100705686Y-40930000D01*
X101235677Y-40930000D01*
X101234452Y-40923844D01*
X101234448Y-40923830D01*
X101168253Y-40764021D01*
X101168253Y-40764020D01*
X101072143Y-40620181D01*
X100949818Y-40497856D01*
X100805979Y-40401746D01*
X100646169Y-40335551D01*
X100646155Y-40335547D01*
X100640000Y-40334322D01*
X100640000Y-40864314D01*
X100635606Y-40859920D01*
X100544394Y-40807259D01*
X100442661Y-40780000D01*
X100337339Y-40780000D01*
X100235606Y-40807259D01*
X100144394Y-40859920D01*
X100140000Y-40864314D01*
X100140000Y-40334322D01*
X100133844Y-40335547D01*
X100133830Y-40335551D01*
X99974021Y-40401746D01*
X99974020Y-40401746D01*
X99830181Y-40497856D01*
X99830180Y-40497858D01*
X99707858Y-40620180D01*
X99707856Y-40620181D01*
X99611746Y-40764020D01*
X99611746Y-40764021D01*
X99545551Y-40923830D01*
X99545547Y-40923844D01*
X99544322Y-40930000D01*
X99236187Y-40930000D01*
X99234932Y-40923693D01*
X99214709Y-40874871D01*
X99168695Y-40763782D01*
X99168694Y-40763779D01*
X99072531Y-40619861D01*
X98950139Y-40497469D01*
X98950137Y-40497467D01*
X98806225Y-40401308D01*
X98806217Y-40401304D01*
X98646309Y-40335068D01*
X98533131Y-40312556D01*
X98476544Y-40301300D01*
X98303456Y-40301300D01*
X98261015Y-40309742D01*
X98133690Y-40335068D01*
X97973782Y-40401304D01*
X97973774Y-40401308D01*
X97829862Y-40497467D01*
X97829861Y-40497469D01*
X97707469Y-40619861D01*
X97707467Y-40619862D01*
X97611308Y-40763774D01*
X97611304Y-40763782D01*
X97545068Y-40923690D01*
X97511300Y-41093456D01*
X96780921Y-41093456D01*
X96762741Y-41025606D01*
X96710080Y-40934394D01*
X96705686Y-40930000D01*
X97235677Y-40930000D01*
X97234452Y-40923844D01*
X97234448Y-40923830D01*
X97168253Y-40764021D01*
X97168253Y-40764020D01*
X97072143Y-40620181D01*
X96949818Y-40497856D01*
X96805979Y-40401746D01*
X96646169Y-40335551D01*
X96646155Y-40335547D01*
X96640000Y-40334322D01*
X96640000Y-40864314D01*
X96635606Y-40859920D01*
X96544394Y-40807259D01*
X96442661Y-40780000D01*
X96337339Y-40780000D01*
X96235606Y-40807259D01*
X96144394Y-40859920D01*
X96140000Y-40864314D01*
X96140000Y-40334322D01*
X96133844Y-40335547D01*
X96133830Y-40335551D01*
X95974021Y-40401746D01*
X95974020Y-40401746D01*
X95830181Y-40497856D01*
X95830180Y-40497858D01*
X95707858Y-40620180D01*
X95707856Y-40620181D01*
X95611746Y-40764020D01*
X95611746Y-40764021D01*
X95545551Y-40923830D01*
X95545547Y-40923844D01*
X95544322Y-40930000D01*
X95235677Y-40930000D01*
X95234452Y-40923844D01*
X95234448Y-40923830D01*
X95168253Y-40764021D01*
X95168253Y-40764020D01*
X95072143Y-40620181D01*
X94949818Y-40497856D01*
X94805979Y-40401746D01*
X94646169Y-40335551D01*
X94646155Y-40335547D01*
X94640000Y-40334322D01*
X94640000Y-40864314D01*
X94635606Y-40859920D01*
X94544394Y-40807259D01*
X94442661Y-40780000D01*
X94337339Y-40780000D01*
X94235606Y-40807259D01*
X94144394Y-40859920D01*
X94140000Y-40864314D01*
X94140000Y-40334322D01*
X94133844Y-40335547D01*
X94133830Y-40335551D01*
X93974021Y-40401746D01*
X93974020Y-40401746D01*
X93830181Y-40497856D01*
X93830180Y-40497858D01*
X93707858Y-40620180D01*
X93707856Y-40620181D01*
X93611746Y-40764020D01*
X93611746Y-40764021D01*
X93545551Y-40923830D01*
X93545547Y-40923844D01*
X93544322Y-40930000D01*
X93235677Y-40930000D01*
X93234452Y-40923844D01*
X93234448Y-40923830D01*
X93168253Y-40764021D01*
X93168253Y-40764020D01*
X93072143Y-40620181D01*
X92949818Y-40497856D01*
X92805979Y-40401746D01*
X92646169Y-40335551D01*
X92646155Y-40335547D01*
X92640000Y-40334322D01*
X92640000Y-40864314D01*
X92635606Y-40859920D01*
X92544394Y-40807259D01*
X92442661Y-40780000D01*
X92337339Y-40780000D01*
X92235606Y-40807259D01*
X92144394Y-40859920D01*
X92140000Y-40864314D01*
X92140000Y-40334322D01*
X92133844Y-40335547D01*
X92133830Y-40335551D01*
X91974021Y-40401746D01*
X91974020Y-40401746D01*
X91830181Y-40497856D01*
X91830180Y-40497858D01*
X91707858Y-40620180D01*
X91707856Y-40620181D01*
X91611746Y-40764020D01*
X91611746Y-40764021D01*
X91545551Y-40923830D01*
X91545547Y-40923844D01*
X91544322Y-40930000D01*
X91236187Y-40930000D01*
X91234932Y-40923693D01*
X91214709Y-40874871D01*
X91168695Y-40763782D01*
X91168694Y-40763779D01*
X91072531Y-40619861D01*
X90950139Y-40497469D01*
X90950137Y-40497467D01*
X90806225Y-40401308D01*
X90806217Y-40401304D01*
X90646309Y-40335068D01*
X90533131Y-40312556D01*
X90476544Y-40301300D01*
X90303456Y-40301300D01*
X90261015Y-40309742D01*
X90133690Y-40335068D01*
X89973782Y-40401304D01*
X89973774Y-40401308D01*
X89829862Y-40497467D01*
X89829861Y-40497469D01*
X89707469Y-40619861D01*
X89707467Y-40619862D01*
X89611308Y-40763774D01*
X89611304Y-40763782D01*
X89545068Y-40923690D01*
X89511300Y-41093456D01*
X89268700Y-41093456D01*
X89234932Y-40923693D01*
X89214709Y-40874871D01*
X89168695Y-40763782D01*
X89168694Y-40763779D01*
X89072531Y-40619861D01*
X88950139Y-40497469D01*
X88950137Y-40497467D01*
X88806225Y-40401308D01*
X88806217Y-40401304D01*
X88646309Y-40335068D01*
X88533131Y-40312556D01*
X88476544Y-40301300D01*
X88303456Y-40301300D01*
X88269689Y-40308016D01*
X88133694Y-40335067D01*
X88090951Y-40352771D01*
X88028968Y-40357647D01*
X87981321Y-40330962D01*
X86422594Y-38772235D01*
X86394368Y-38716837D01*
X86404094Y-38655429D01*
X86448058Y-38611465D01*
X86493729Y-38600500D01*
X114742108Y-38600500D01*
X114803053Y-38600500D01*
X114812914Y-38600984D01*
X114948264Y-38614315D01*
X114967605Y-38618163D01*
X115092994Y-38656199D01*
X115111213Y-38663745D01*
X115226771Y-38725512D01*
X115243167Y-38736467D01*
X115344459Y-38819595D01*
X115358404Y-38833540D01*
X115441532Y-38934832D01*
X115452488Y-38951230D01*
X115514253Y-39066785D01*
X115521800Y-39085005D01*
X115559836Y-39210394D01*
X115563683Y-39229735D01*
X115577015Y-39365085D01*
X115577500Y-39374946D01*
X115577500Y-48636053D01*
X115577015Y-48645914D01*
X115563683Y-48781264D01*
X115559836Y-48800605D01*
X115521800Y-48925994D01*
X115514253Y-48944214D01*
X115452488Y-49059769D01*
X115441532Y-49076167D01*
X115384498Y-49145663D01*
X115332134Y-49179183D01*
X115270067Y-49175523D01*
X115222006Y-49136080D01*
X115206307Y-49075921D01*
X115213789Y-49043349D01*
X115234932Y-48992307D01*
X115268700Y-48822544D01*
X115268700Y-48649456D01*
X115234932Y-48479693D01*
X115168694Y-48319779D01*
X115072531Y-48175861D01*
X114950139Y-48053469D01*
X114950137Y-48053467D01*
X114806225Y-47957308D01*
X114806217Y-47957304D01*
X114646309Y-47891068D01*
X114533131Y-47868556D01*
X114476544Y-47857300D01*
X114303456Y-47857300D01*
X114261015Y-47865742D01*
X114133690Y-47891068D01*
X113973782Y-47957304D01*
X113973774Y-47957308D01*
X113829862Y-48053467D01*
X113829861Y-48053469D01*
X113707469Y-48175861D01*
X113707467Y-48175862D01*
X113611308Y-48319774D01*
X113611304Y-48319782D01*
X113545068Y-48479690D01*
X113511300Y-48649456D01*
X113511300Y-48822543D01*
X113545068Y-48992309D01*
X113611304Y-49152217D01*
X113611308Y-49152225D01*
X113679319Y-49254010D01*
X113696195Y-49313849D01*
X113674676Y-49372181D01*
X113622980Y-49406723D01*
X113595673Y-49410500D01*
X113184327Y-49410500D01*
X113125196Y-49391287D01*
X113088651Y-49340987D01*
X113088651Y-49278813D01*
X113100681Y-49254010D01*
X113146712Y-49185119D01*
X113168694Y-49152221D01*
X113234932Y-48992307D01*
X113268700Y-48822544D01*
X113268700Y-48649456D01*
X113234932Y-48479693D01*
X113168694Y-48319779D01*
X113072531Y-48175861D01*
X112950139Y-48053469D01*
X112950137Y-48053467D01*
X112806225Y-47957308D01*
X112806217Y-47957304D01*
X112646309Y-47891068D01*
X112533131Y-47868556D01*
X112476544Y-47857300D01*
X112303456Y-47857300D01*
X112261015Y-47865742D01*
X112133690Y-47891068D01*
X111973782Y-47957304D01*
X111973774Y-47957308D01*
X111829862Y-48053467D01*
X111829861Y-48053469D01*
X111707469Y-48175861D01*
X111707467Y-48175862D01*
X111611308Y-48319774D01*
X111611304Y-48319782D01*
X111545068Y-48479690D01*
X111511300Y-48649456D01*
X111511300Y-48822543D01*
X111545068Y-48992309D01*
X111611304Y-49152217D01*
X111611308Y-49152225D01*
X111679319Y-49254010D01*
X111696195Y-49313849D01*
X111674676Y-49372181D01*
X111622980Y-49406723D01*
X111595673Y-49410500D01*
X111183725Y-49410500D01*
X111124594Y-49391287D01*
X111088049Y-49340987D01*
X111088049Y-49278813D01*
X111100079Y-49254010D01*
X111168253Y-49151979D01*
X111168253Y-49151978D01*
X111234448Y-48992169D01*
X111234452Y-48992155D01*
X111235677Y-48986000D01*
X110705686Y-48986000D01*
X110710080Y-48981606D01*
X110762741Y-48890394D01*
X110790000Y-48788661D01*
X110790000Y-48683339D01*
X110762741Y-48581606D01*
X110710080Y-48490394D01*
X110705686Y-48486000D01*
X111235677Y-48486000D01*
X111234452Y-48479844D01*
X111234448Y-48479830D01*
X111168253Y-48320021D01*
X111168253Y-48320020D01*
X111072143Y-48176181D01*
X110949818Y-48053856D01*
X110805979Y-47957746D01*
X110646169Y-47891551D01*
X110646155Y-47891547D01*
X110640000Y-47890322D01*
X110640000Y-48420314D01*
X110635606Y-48415920D01*
X110544394Y-48363259D01*
X110442661Y-48336000D01*
X110337339Y-48336000D01*
X110235606Y-48363259D01*
X110144394Y-48415920D01*
X110140000Y-48420314D01*
X110140000Y-47890322D01*
X110133844Y-47891547D01*
X110133830Y-47891551D01*
X109974021Y-47957746D01*
X109974020Y-47957746D01*
X109830181Y-48053856D01*
X109830180Y-48053858D01*
X109707858Y-48176180D01*
X109707856Y-48176181D01*
X109611746Y-48320020D01*
X109611746Y-48320021D01*
X109545551Y-48479830D01*
X109545547Y-48479844D01*
X109544322Y-48486000D01*
X110074314Y-48486000D01*
X110069920Y-48490394D01*
X110017259Y-48581606D01*
X109990000Y-48683339D01*
X109990000Y-48788661D01*
X110017259Y-48890394D01*
X110069920Y-48981606D01*
X110074314Y-48986000D01*
X109544323Y-48986000D01*
X109545547Y-48992155D01*
X109545551Y-48992169D01*
X109611746Y-49151978D01*
X109611746Y-49151979D01*
X109679921Y-49254010D01*
X109696797Y-49313850D01*
X109675278Y-49372181D01*
X109623582Y-49406723D01*
X109596275Y-49410500D01*
X109184327Y-49410500D01*
X109125196Y-49391287D01*
X109088651Y-49340987D01*
X109088651Y-49278813D01*
X109100681Y-49254010D01*
X109146712Y-49185119D01*
X109168694Y-49152221D01*
X109234932Y-48992307D01*
X109268700Y-48822544D01*
X109268700Y-48649456D01*
X109234932Y-48479693D01*
X109168694Y-48319779D01*
X109072531Y-48175861D01*
X108950139Y-48053469D01*
X108950137Y-48053467D01*
X108806225Y-47957308D01*
X108806217Y-47957304D01*
X108646309Y-47891068D01*
X108533131Y-47868556D01*
X108476544Y-47857300D01*
X108303456Y-47857300D01*
X108261015Y-47865742D01*
X108133690Y-47891068D01*
X107973782Y-47957304D01*
X107973774Y-47957308D01*
X107829862Y-48053467D01*
X107829861Y-48053469D01*
X107707469Y-48175861D01*
X107707467Y-48175862D01*
X107611308Y-48319774D01*
X107611304Y-48319782D01*
X107545068Y-48479690D01*
X107511300Y-48649456D01*
X107511300Y-48822543D01*
X107545068Y-48992309D01*
X107611304Y-49152217D01*
X107611308Y-49152225D01*
X107679319Y-49254010D01*
X107696195Y-49313849D01*
X107674676Y-49372181D01*
X107622980Y-49406723D01*
X107595673Y-49410500D01*
X107184327Y-49410500D01*
X107125196Y-49391287D01*
X107088651Y-49340987D01*
X107088651Y-49278813D01*
X107100681Y-49254010D01*
X107146712Y-49185119D01*
X107168694Y-49152221D01*
X107234932Y-48992307D01*
X107268700Y-48822544D01*
X107268700Y-48649456D01*
X107234932Y-48479693D01*
X107168694Y-48319779D01*
X107072531Y-48175861D01*
X106950139Y-48053469D01*
X106950137Y-48053467D01*
X106806225Y-47957308D01*
X106806217Y-47957304D01*
X106646309Y-47891068D01*
X106533131Y-47868556D01*
X106476544Y-47857300D01*
X106303456Y-47857300D01*
X106261015Y-47865742D01*
X106133690Y-47891068D01*
X105973782Y-47957304D01*
X105973774Y-47957308D01*
X105829862Y-48053467D01*
X105829861Y-48053469D01*
X105707469Y-48175861D01*
X105707467Y-48175862D01*
X105611308Y-48319774D01*
X105611304Y-48319782D01*
X105545068Y-48479690D01*
X105511300Y-48649456D01*
X105511300Y-48822543D01*
X105545068Y-48992309D01*
X105611304Y-49152217D01*
X105611308Y-49152225D01*
X105679319Y-49254010D01*
X105696195Y-49313849D01*
X105674676Y-49372181D01*
X105622980Y-49406723D01*
X105595673Y-49410500D01*
X105184327Y-49410500D01*
X105125196Y-49391287D01*
X105088651Y-49340987D01*
X105088651Y-49278813D01*
X105100681Y-49254010D01*
X105146712Y-49185119D01*
X105168694Y-49152221D01*
X105234932Y-48992307D01*
X105268700Y-48822544D01*
X105268700Y-48649456D01*
X105234932Y-48479693D01*
X105168694Y-48319779D01*
X105072531Y-48175861D01*
X104950139Y-48053469D01*
X104950137Y-48053467D01*
X104806225Y-47957308D01*
X104806217Y-47957304D01*
X104646309Y-47891068D01*
X104533131Y-47868556D01*
X104476544Y-47857300D01*
X104303456Y-47857300D01*
X104261015Y-47865742D01*
X104133690Y-47891068D01*
X103973782Y-47957304D01*
X103973774Y-47957308D01*
X103829862Y-48053467D01*
X103829861Y-48053469D01*
X103707469Y-48175861D01*
X103707467Y-48175862D01*
X103611308Y-48319774D01*
X103611304Y-48319782D01*
X103545068Y-48479690D01*
X103511300Y-48649456D01*
X103511300Y-48822543D01*
X103545068Y-48992309D01*
X103611304Y-49152217D01*
X103611308Y-49152225D01*
X103679319Y-49254010D01*
X103696195Y-49313849D01*
X103674676Y-49372181D01*
X103622980Y-49406723D01*
X103595673Y-49410500D01*
X103184327Y-49410500D01*
X103125196Y-49391287D01*
X103088651Y-49340987D01*
X103088651Y-49278813D01*
X103100681Y-49254010D01*
X103146712Y-49185119D01*
X103168694Y-49152221D01*
X103234932Y-48992307D01*
X103268700Y-48822544D01*
X103268700Y-48649456D01*
X103234932Y-48479693D01*
X103168694Y-48319779D01*
X103072531Y-48175861D01*
X102950139Y-48053469D01*
X102950137Y-48053467D01*
X102806225Y-47957308D01*
X102806217Y-47957304D01*
X102646309Y-47891068D01*
X102533131Y-47868556D01*
X102476544Y-47857300D01*
X102303456Y-47857300D01*
X102261015Y-47865742D01*
X102133690Y-47891068D01*
X101973782Y-47957304D01*
X101973774Y-47957308D01*
X101829862Y-48053467D01*
X101829861Y-48053469D01*
X101707469Y-48175861D01*
X101707467Y-48175862D01*
X101611308Y-48319774D01*
X101611304Y-48319782D01*
X101545068Y-48479690D01*
X101511300Y-48649456D01*
X101511300Y-48822543D01*
X101545068Y-48992309D01*
X101611304Y-49152217D01*
X101611308Y-49152225D01*
X101679319Y-49254010D01*
X101696195Y-49313849D01*
X101674676Y-49372181D01*
X101622980Y-49406723D01*
X101595673Y-49410500D01*
X101183725Y-49410500D01*
X101124594Y-49391287D01*
X101088049Y-49340987D01*
X101088049Y-49278813D01*
X101100079Y-49254010D01*
X101168253Y-49151979D01*
X101168253Y-49151978D01*
X101234448Y-48992169D01*
X101234452Y-48992155D01*
X101235677Y-48986000D01*
X100705686Y-48986000D01*
X100710080Y-48981606D01*
X100762741Y-48890394D01*
X100790000Y-48788661D01*
X100790000Y-48683339D01*
X100762741Y-48581606D01*
X100710080Y-48490394D01*
X100705686Y-48486000D01*
X101235677Y-48486000D01*
X101234452Y-48479844D01*
X101234448Y-48479830D01*
X101168253Y-48320021D01*
X101168253Y-48320020D01*
X101072143Y-48176181D01*
X100949818Y-48053856D01*
X100805979Y-47957746D01*
X100646169Y-47891551D01*
X100646155Y-47891547D01*
X100640000Y-47890322D01*
X100640000Y-48420314D01*
X100635606Y-48415920D01*
X100544394Y-48363259D01*
X100442661Y-48336000D01*
X100337339Y-48336000D01*
X100235606Y-48363259D01*
X100144394Y-48415920D01*
X100140000Y-48420314D01*
X100140000Y-47890322D01*
X100133844Y-47891547D01*
X100133830Y-47891551D01*
X99974021Y-47957746D01*
X99974020Y-47957746D01*
X99830181Y-48053856D01*
X99830180Y-48053858D01*
X99707858Y-48176180D01*
X99707856Y-48176181D01*
X99611746Y-48320020D01*
X99611746Y-48320021D01*
X99545551Y-48479830D01*
X99545547Y-48479844D01*
X99544322Y-48486000D01*
X100074314Y-48486000D01*
X100069920Y-48490394D01*
X100017259Y-48581606D01*
X99990000Y-48683339D01*
X99990000Y-48788661D01*
X100017259Y-48890394D01*
X100069920Y-48981606D01*
X100074314Y-48986000D01*
X99544323Y-48986000D01*
X99545547Y-48992155D01*
X99545551Y-48992169D01*
X99611746Y-49151978D01*
X99611746Y-49151979D01*
X99679921Y-49254010D01*
X99696797Y-49313850D01*
X99675278Y-49372181D01*
X99623582Y-49406723D01*
X99596275Y-49410500D01*
X99184327Y-49410500D01*
X99125196Y-49391287D01*
X99088651Y-49340987D01*
X99088651Y-49278813D01*
X99100681Y-49254010D01*
X99146712Y-49185119D01*
X99168694Y-49152221D01*
X99234932Y-48992307D01*
X99268700Y-48822544D01*
X99268700Y-48649456D01*
X99234932Y-48479693D01*
X99168694Y-48319779D01*
X99072531Y-48175861D01*
X98950139Y-48053469D01*
X98950137Y-48053467D01*
X98806225Y-47957308D01*
X98806217Y-47957304D01*
X98646309Y-47891068D01*
X98533131Y-47868556D01*
X98476544Y-47857300D01*
X98303456Y-47857300D01*
X98261015Y-47865742D01*
X98133690Y-47891068D01*
X97973782Y-47957304D01*
X97973774Y-47957308D01*
X97829862Y-48053467D01*
X97829861Y-48053469D01*
X97707469Y-48175861D01*
X97707467Y-48175862D01*
X97611308Y-48319774D01*
X97611304Y-48319782D01*
X97545068Y-48479690D01*
X97511300Y-48649456D01*
X97511300Y-48822543D01*
X97545068Y-48992309D01*
X97611304Y-49152217D01*
X97611308Y-49152225D01*
X97679319Y-49254010D01*
X97696195Y-49313849D01*
X97674676Y-49372181D01*
X97622980Y-49406723D01*
X97595673Y-49410500D01*
X97183725Y-49410500D01*
X97124594Y-49391287D01*
X97088049Y-49340987D01*
X97088049Y-49278813D01*
X97100079Y-49254010D01*
X97168253Y-49151979D01*
X97168253Y-49151978D01*
X97234448Y-48992169D01*
X97234452Y-48992155D01*
X97235677Y-48986000D01*
X96705686Y-48986000D01*
X96710080Y-48981606D01*
X96762741Y-48890394D01*
X96790000Y-48788661D01*
X96790000Y-48683339D01*
X96762741Y-48581606D01*
X96710080Y-48490394D01*
X96705686Y-48486000D01*
X97235677Y-48486000D01*
X97234452Y-48479844D01*
X97234448Y-48479830D01*
X97168253Y-48320021D01*
X97168253Y-48320020D01*
X97072143Y-48176181D01*
X96949818Y-48053856D01*
X96805979Y-47957746D01*
X96646169Y-47891551D01*
X96646155Y-47891547D01*
X96640000Y-47890322D01*
X96640000Y-48420314D01*
X96635606Y-48415920D01*
X96544394Y-48363259D01*
X96442661Y-48336000D01*
X96337339Y-48336000D01*
X96235606Y-48363259D01*
X96144394Y-48415920D01*
X96140000Y-48420314D01*
X96140000Y-47890322D01*
X96133844Y-47891547D01*
X96133830Y-47891551D01*
X95974021Y-47957746D01*
X95974020Y-47957746D01*
X95830181Y-48053856D01*
X95830180Y-48053858D01*
X95707858Y-48176180D01*
X95707856Y-48176181D01*
X95611746Y-48320020D01*
X95611746Y-48320021D01*
X95545551Y-48479830D01*
X95545547Y-48479844D01*
X95544322Y-48486000D01*
X96074314Y-48486000D01*
X96069920Y-48490394D01*
X96017259Y-48581606D01*
X95990000Y-48683339D01*
X95990000Y-48788661D01*
X96017259Y-48890394D01*
X96069920Y-48981606D01*
X96074314Y-48986000D01*
X95544323Y-48986000D01*
X95545547Y-48992155D01*
X95545551Y-48992169D01*
X95611746Y-49151978D01*
X95611746Y-49151979D01*
X95679921Y-49254010D01*
X95696797Y-49313850D01*
X95675278Y-49372181D01*
X95623582Y-49406723D01*
X95596275Y-49410500D01*
X95183725Y-49410500D01*
X95124594Y-49391287D01*
X95088049Y-49340987D01*
X95088049Y-49278813D01*
X95100079Y-49254010D01*
X95168253Y-49151979D01*
X95168253Y-49151978D01*
X95234448Y-48992169D01*
X95234452Y-48992155D01*
X95235677Y-48986000D01*
X94705686Y-48986000D01*
X94710080Y-48981606D01*
X94762741Y-48890394D01*
X94790000Y-48788661D01*
X94790000Y-48683339D01*
X94762741Y-48581606D01*
X94710080Y-48490394D01*
X94705686Y-48486000D01*
X95235677Y-48486000D01*
X95234452Y-48479844D01*
X95234448Y-48479830D01*
X95168253Y-48320021D01*
X95168253Y-48320020D01*
X95072143Y-48176181D01*
X94949818Y-48053856D01*
X94805979Y-47957746D01*
X94646169Y-47891551D01*
X94646155Y-47891547D01*
X94640000Y-47890322D01*
X94640000Y-48420314D01*
X94635606Y-48415920D01*
X94544394Y-48363259D01*
X94442661Y-48336000D01*
X94337339Y-48336000D01*
X94235606Y-48363259D01*
X94144394Y-48415920D01*
X94140000Y-48420314D01*
X94140000Y-47890322D01*
X94133844Y-47891547D01*
X94133830Y-47891551D01*
X93974021Y-47957746D01*
X93974020Y-47957746D01*
X93830181Y-48053856D01*
X93830180Y-48053858D01*
X93707858Y-48176180D01*
X93707856Y-48176181D01*
X93611746Y-48320020D01*
X93611746Y-48320021D01*
X93545551Y-48479830D01*
X93545547Y-48479844D01*
X93544322Y-48486000D01*
X94074314Y-48486000D01*
X94069920Y-48490394D01*
X94017259Y-48581606D01*
X93990000Y-48683339D01*
X93990000Y-48788661D01*
X94017259Y-48890394D01*
X94069920Y-48981606D01*
X94074314Y-48986000D01*
X93544323Y-48986000D01*
X93545547Y-48992155D01*
X93545551Y-48992169D01*
X93611746Y-49151978D01*
X93611746Y-49151979D01*
X93679921Y-49254010D01*
X93696797Y-49313850D01*
X93675278Y-49372181D01*
X93623582Y-49406723D01*
X93596275Y-49410500D01*
X93183725Y-49410500D01*
X93124594Y-49391287D01*
X93088049Y-49340987D01*
X93088049Y-49278813D01*
X93100079Y-49254010D01*
X93168253Y-49151979D01*
X93168253Y-49151978D01*
X93234448Y-48992169D01*
X93234452Y-48992155D01*
X93235677Y-48986000D01*
X92705686Y-48986000D01*
X92710080Y-48981606D01*
X92762741Y-48890394D01*
X92790000Y-48788661D01*
X92790000Y-48683339D01*
X92762741Y-48581606D01*
X92710080Y-48490394D01*
X92705686Y-48486000D01*
X93235677Y-48486000D01*
X93234452Y-48479844D01*
X93234448Y-48479830D01*
X93168253Y-48320021D01*
X93168253Y-48320020D01*
X93072143Y-48176181D01*
X92949818Y-48053856D01*
X92805979Y-47957746D01*
X92646169Y-47891551D01*
X92646155Y-47891547D01*
X92640000Y-47890322D01*
X92640000Y-48420314D01*
X92635606Y-48415920D01*
X92544394Y-48363259D01*
X92442661Y-48336000D01*
X92337339Y-48336000D01*
X92235606Y-48363259D01*
X92144394Y-48415920D01*
X92140000Y-48420314D01*
X92140000Y-47890322D01*
X92133844Y-47891547D01*
X92133830Y-47891551D01*
X91974021Y-47957746D01*
X91974020Y-47957746D01*
X91830181Y-48053856D01*
X91830180Y-48053858D01*
X91707858Y-48176180D01*
X91707856Y-48176181D01*
X91611746Y-48320020D01*
X91611746Y-48320021D01*
X91545551Y-48479830D01*
X91545547Y-48479844D01*
X91544322Y-48486000D01*
X92074314Y-48486000D01*
X92069920Y-48490394D01*
X92017259Y-48581606D01*
X91990000Y-48683339D01*
X91990000Y-48788661D01*
X92017259Y-48890394D01*
X92069920Y-48981606D01*
X92074314Y-48986000D01*
X91544323Y-48986000D01*
X91545547Y-48992155D01*
X91545551Y-48992169D01*
X91611746Y-49151978D01*
X91611746Y-49151979D01*
X91679921Y-49254010D01*
X91696797Y-49313850D01*
X91675278Y-49372181D01*
X91623582Y-49406723D01*
X91596275Y-49410500D01*
X91184327Y-49410500D01*
X91125196Y-49391287D01*
X91088651Y-49340987D01*
X91088651Y-49278813D01*
X91100681Y-49254010D01*
X91146712Y-49185119D01*
X91168694Y-49152221D01*
X91234932Y-48992307D01*
X91268700Y-48822544D01*
X91268700Y-48649456D01*
X91234932Y-48479693D01*
X91168694Y-48319779D01*
X91072531Y-48175861D01*
X90950139Y-48053469D01*
X90950137Y-48053467D01*
X90806225Y-47957308D01*
X90806217Y-47957304D01*
X90646309Y-47891068D01*
X90533131Y-47868556D01*
X90476544Y-47857300D01*
X90303456Y-47857300D01*
X90261015Y-47865742D01*
X90133690Y-47891068D01*
X89973782Y-47957304D01*
X89973774Y-47957308D01*
X89829862Y-48053467D01*
X89829861Y-48053469D01*
X89707469Y-48175861D01*
X89707467Y-48175862D01*
X89611308Y-48319774D01*
X89611304Y-48319782D01*
X89545068Y-48479690D01*
X89511300Y-48649456D01*
X89511300Y-48822543D01*
X89545068Y-48992309D01*
X89611304Y-49152217D01*
X89611308Y-49152225D01*
X89679319Y-49254010D01*
X89696195Y-49313849D01*
X89674676Y-49372181D01*
X89622980Y-49406723D01*
X89595673Y-49410500D01*
X89184327Y-49410500D01*
X89125196Y-49391287D01*
X89088651Y-49340987D01*
X89088651Y-49278813D01*
X89100681Y-49254010D01*
X89146712Y-49185119D01*
X89168694Y-49152221D01*
X89234932Y-48992307D01*
X89268700Y-48822544D01*
X89268700Y-48649456D01*
X89234932Y-48479693D01*
X89168694Y-48319779D01*
X89072531Y-48175861D01*
X88950139Y-48053469D01*
X88950137Y-48053467D01*
X88806225Y-47957308D01*
X88806217Y-47957304D01*
X88646309Y-47891068D01*
X88533131Y-47868556D01*
X88476544Y-47857300D01*
X88303456Y-47857300D01*
X88261015Y-47865742D01*
X88133690Y-47891068D01*
X87973782Y-47957304D01*
X87973774Y-47957308D01*
X87829862Y-48053467D01*
X87829861Y-48053469D01*
X87707469Y-48175861D01*
X87707467Y-48175862D01*
X87611308Y-48319774D01*
X87611304Y-48319782D01*
X87545068Y-48479690D01*
X87511300Y-48649456D01*
X87511300Y-48822543D01*
X87545068Y-48992309D01*
X87611304Y-49152217D01*
X87611308Y-49152225D01*
X87679319Y-49254010D01*
X87696195Y-49313849D01*
X87674676Y-49372181D01*
X87622980Y-49406723D01*
X87595673Y-49410500D01*
X87184327Y-49410500D01*
X87125196Y-49391287D01*
X87088651Y-49340987D01*
X87088651Y-49278813D01*
X87100681Y-49254010D01*
X87146712Y-49185119D01*
X87168694Y-49152221D01*
X87234932Y-48992307D01*
X87268700Y-48822544D01*
X87268700Y-48649456D01*
X87234932Y-48479693D01*
X87168694Y-48319779D01*
X87072531Y-48175861D01*
X86950139Y-48053469D01*
X86950137Y-48053467D01*
X86806225Y-47957308D01*
X86806217Y-47957304D01*
X86646309Y-47891068D01*
X86533131Y-47868556D01*
X86476544Y-47857300D01*
X86303456Y-47857300D01*
X86261015Y-47865742D01*
X86133690Y-47891068D01*
X85973782Y-47957304D01*
X85973774Y-47957308D01*
X85829862Y-48053467D01*
X85829861Y-48053469D01*
X85707469Y-48175861D01*
X85707467Y-48175862D01*
X85611308Y-48319774D01*
X85611304Y-48319782D01*
X85545068Y-48479690D01*
X85511300Y-48649456D01*
X85511300Y-48822543D01*
X85545068Y-48992309D01*
X85611304Y-49152217D01*
X85611308Y-49152225D01*
X85679319Y-49254010D01*
X85696195Y-49313849D01*
X85674676Y-49372181D01*
X85622980Y-49406723D01*
X85595673Y-49410500D01*
X85184327Y-49410500D01*
X85125196Y-49391287D01*
X85088651Y-49340987D01*
X85088651Y-49278813D01*
X85100681Y-49254010D01*
X85146712Y-49185119D01*
X85168694Y-49152221D01*
X85234932Y-48992307D01*
X85268700Y-48822544D01*
X85268700Y-48649456D01*
X85234932Y-48479693D01*
X85168694Y-48319779D01*
X85072531Y-48175861D01*
X84950139Y-48053469D01*
X84950137Y-48053467D01*
X84806225Y-47957308D01*
X84806217Y-47957304D01*
X84646309Y-47891068D01*
X84533131Y-47868556D01*
X84476544Y-47857300D01*
X84303456Y-47857300D01*
X84261015Y-47865742D01*
X84133690Y-47891068D01*
X83973782Y-47957304D01*
X83973774Y-47957308D01*
X83829862Y-48053467D01*
X83829861Y-48053469D01*
X83707469Y-48175861D01*
X83707467Y-48175862D01*
X83611308Y-48319774D01*
X83611304Y-48319782D01*
X83545068Y-48479690D01*
X83511300Y-48649456D01*
X83511300Y-48822543D01*
X83545068Y-48992309D01*
X83611304Y-49152217D01*
X83611308Y-49152225D01*
X83679319Y-49254010D01*
X83696195Y-49313849D01*
X83674676Y-49372181D01*
X83622980Y-49406723D01*
X83595673Y-49410500D01*
X83184327Y-49410500D01*
X83125196Y-49391287D01*
X83088651Y-49340987D01*
X83088651Y-49278813D01*
X83100681Y-49254010D01*
X83146712Y-49185119D01*
X83168694Y-49152221D01*
X83234932Y-48992307D01*
X83268700Y-48822544D01*
X83268700Y-48649456D01*
X83234932Y-48479693D01*
X83168694Y-48319779D01*
X83072531Y-48175861D01*
X82950139Y-48053469D01*
X82950137Y-48053467D01*
X82806225Y-47957308D01*
X82806217Y-47957304D01*
X82646309Y-47891068D01*
X82533131Y-47868556D01*
X82476544Y-47857300D01*
X82303456Y-47857300D01*
X82261015Y-47865742D01*
X82133690Y-47891068D01*
X81973782Y-47957304D01*
X81973774Y-47957308D01*
X81829862Y-48053467D01*
X81829861Y-48053469D01*
X81707469Y-48175861D01*
X81707467Y-48175862D01*
X81611308Y-48319774D01*
X81611304Y-48319782D01*
X81545068Y-48479690D01*
X81511300Y-48649456D01*
X81511300Y-48822543D01*
X81545068Y-48992309D01*
X81611304Y-49152217D01*
X81611308Y-49152225D01*
X81679319Y-49254010D01*
X81696195Y-49313849D01*
X81674676Y-49372181D01*
X81622980Y-49406723D01*
X81595673Y-49410500D01*
X81184327Y-49410500D01*
X81125196Y-49391287D01*
X81088651Y-49340987D01*
X81088651Y-49278813D01*
X81100681Y-49254010D01*
X81146712Y-49185119D01*
X81168694Y-49152221D01*
X81234932Y-48992307D01*
X81268700Y-48822544D01*
X81268700Y-48649456D01*
X81234932Y-48479693D01*
X81168694Y-48319779D01*
X81072531Y-48175861D01*
X80950139Y-48053469D01*
X80950137Y-48053467D01*
X80806225Y-47957308D01*
X80806217Y-47957304D01*
X80646309Y-47891068D01*
X80533131Y-47868556D01*
X80476544Y-47857300D01*
X80303456Y-47857300D01*
X80261015Y-47865742D01*
X80133690Y-47891068D01*
X79973782Y-47957304D01*
X79973774Y-47957308D01*
X79829862Y-48053467D01*
X79829861Y-48053469D01*
X79707469Y-48175861D01*
X79707467Y-48175862D01*
X79611308Y-48319774D01*
X79611304Y-48319782D01*
X79545068Y-48479690D01*
X79511300Y-48649456D01*
X79511300Y-48822543D01*
X79545068Y-48992309D01*
X79611304Y-49152217D01*
X79611308Y-49152225D01*
X79679319Y-49254010D01*
X79696195Y-49313849D01*
X79674676Y-49372181D01*
X79622980Y-49406723D01*
X79595673Y-49410500D01*
X79184327Y-49410500D01*
X79125196Y-49391287D01*
X79088651Y-49340987D01*
X79088651Y-49278813D01*
X79100681Y-49254010D01*
X79146712Y-49185119D01*
X79168694Y-49152221D01*
X79234932Y-48992307D01*
X79268700Y-48822544D01*
X79268700Y-48649456D01*
X79234932Y-48479693D01*
X79168694Y-48319779D01*
X79072531Y-48175861D01*
X78950139Y-48053469D01*
X78950137Y-48053467D01*
X78806225Y-47957308D01*
X78806217Y-47957304D01*
X78646309Y-47891068D01*
X78533131Y-47868556D01*
X78476544Y-47857300D01*
X78303456Y-47857300D01*
X78261015Y-47865742D01*
X78133690Y-47891068D01*
X77973782Y-47957304D01*
X77973774Y-47957308D01*
X77829862Y-48053467D01*
X77829861Y-48053469D01*
X77707469Y-48175861D01*
X77707467Y-48175862D01*
X77611308Y-48319774D01*
X77611304Y-48319782D01*
X77545068Y-48479690D01*
X77511300Y-48649456D01*
X77511300Y-48822543D01*
X77545068Y-48992309D01*
X77611304Y-49152217D01*
X77611308Y-49152225D01*
X77679319Y-49254010D01*
X77696195Y-49313849D01*
X77674676Y-49372181D01*
X77622980Y-49406723D01*
X77595673Y-49410500D01*
X77184327Y-49410500D01*
X77125196Y-49391287D01*
X77088651Y-49340987D01*
X77088651Y-49278813D01*
X77100681Y-49254010D01*
X77146712Y-49185119D01*
X77168694Y-49152221D01*
X77234932Y-48992307D01*
X77268700Y-48822544D01*
X77268700Y-48649456D01*
X77234932Y-48479693D01*
X77168694Y-48319779D01*
X77072531Y-48175861D01*
X76950139Y-48053469D01*
X76950137Y-48053467D01*
X76806225Y-47957308D01*
X76806217Y-47957304D01*
X76646309Y-47891068D01*
X76533131Y-47868556D01*
X76476544Y-47857300D01*
X76303456Y-47857300D01*
X76261015Y-47865742D01*
X76133690Y-47891068D01*
X75973782Y-47957304D01*
X75973774Y-47957308D01*
X75829862Y-48053467D01*
X75829861Y-48053469D01*
X75707469Y-48175861D01*
X75707467Y-48175862D01*
X75611308Y-48319774D01*
X75611304Y-48319782D01*
X75545068Y-48479690D01*
X75511300Y-48649456D01*
X75511300Y-48822543D01*
X75545068Y-48992309D01*
X75611304Y-49152217D01*
X75611308Y-49152225D01*
X75679319Y-49254010D01*
X75696195Y-49313849D01*
X75674676Y-49372181D01*
X75622980Y-49406723D01*
X75595673Y-49410500D01*
X75184327Y-49410500D01*
X75125196Y-49391287D01*
X75088651Y-49340987D01*
X75088651Y-49278813D01*
X75100681Y-49254010D01*
X75146712Y-49185119D01*
X75168694Y-49152221D01*
X75234932Y-48992307D01*
X75268700Y-48822544D01*
X75268700Y-48649456D01*
X75234932Y-48479693D01*
X75168694Y-48319779D01*
X75072531Y-48175861D01*
X74950139Y-48053469D01*
X74950137Y-48053467D01*
X74806225Y-47957308D01*
X74806217Y-47957304D01*
X74646309Y-47891068D01*
X74533131Y-47868556D01*
X74476544Y-47857300D01*
X74303456Y-47857300D01*
X74261015Y-47865742D01*
X74133690Y-47891068D01*
X73973782Y-47957304D01*
X73973774Y-47957308D01*
X73829862Y-48053467D01*
X73829861Y-48053469D01*
X73707469Y-48175861D01*
X73707467Y-48175862D01*
X73611308Y-48319774D01*
X73611304Y-48319782D01*
X73545068Y-48479690D01*
X73511300Y-48649456D01*
X73511300Y-48822543D01*
X73545068Y-48992309D01*
X73611304Y-49152217D01*
X73611308Y-49152225D01*
X73679319Y-49254010D01*
X73696195Y-49313849D01*
X73674676Y-49372181D01*
X73622980Y-49406723D01*
X73595673Y-49410500D01*
X73183725Y-49410500D01*
X73124594Y-49391287D01*
X73088049Y-49340987D01*
X73088049Y-49278813D01*
X73100079Y-49254010D01*
X73168253Y-49151979D01*
X73168253Y-49151978D01*
X73234448Y-48992169D01*
X73234452Y-48992155D01*
X73235677Y-48986000D01*
X72705686Y-48986000D01*
X72710080Y-48981606D01*
X72762741Y-48890394D01*
X72790000Y-48788661D01*
X72790000Y-48683339D01*
X72762741Y-48581606D01*
X72710080Y-48490394D01*
X72705686Y-48486000D01*
X73235677Y-48486000D01*
X73234452Y-48479844D01*
X73234448Y-48479830D01*
X73168253Y-48320021D01*
X73168253Y-48320020D01*
X73072143Y-48176181D01*
X72949818Y-48053856D01*
X72805979Y-47957746D01*
X72646169Y-47891551D01*
X72646155Y-47891547D01*
X72640000Y-47890322D01*
X72640000Y-48420314D01*
X72635606Y-48415920D01*
X72544394Y-48363259D01*
X72442661Y-48336000D01*
X72337339Y-48336000D01*
X72235606Y-48363259D01*
X72144394Y-48415920D01*
X72140000Y-48420314D01*
X72140000Y-47890322D01*
X72133844Y-47891547D01*
X72133830Y-47891551D01*
X71974021Y-47957746D01*
X71974020Y-47957746D01*
X71830181Y-48053856D01*
X71830180Y-48053858D01*
X71707858Y-48176180D01*
X71707856Y-48176181D01*
X71611746Y-48320020D01*
X71611746Y-48320021D01*
X71545551Y-48479830D01*
X71545547Y-48479844D01*
X71544322Y-48486000D01*
X72074314Y-48486000D01*
X72069920Y-48490394D01*
X72017259Y-48581606D01*
X71990000Y-48683339D01*
X71990000Y-48788661D01*
X72017259Y-48890394D01*
X72069920Y-48981606D01*
X72074314Y-48986000D01*
X71544322Y-48986000D01*
X71540031Y-48991228D01*
X71542944Y-49007536D01*
X71536413Y-49021000D01*
X71534655Y-49035863D01*
X71523185Y-49048272D01*
X71515811Y-49063477D01*
X71502613Y-49070531D01*
X71492455Y-49081522D01*
X71475879Y-49084820D01*
X71460978Y-49092785D01*
X71446155Y-49090734D01*
X71431476Y-49093656D01*
X71416128Y-49086582D01*
X71399390Y-49084267D01*
X71388602Y-49073894D01*
X71375011Y-49067630D01*
X71354572Y-49041174D01*
X71327875Y-48991228D01*
X71302745Y-48944213D01*
X71295199Y-48925994D01*
X71257163Y-48800605D01*
X71253315Y-48781264D01*
X71239984Y-48645914D01*
X71239500Y-48636053D01*
X71239500Y-39374946D01*
X71239984Y-39365085D01*
X71253315Y-39229735D01*
X71257163Y-39210394D01*
X71287674Y-39109813D01*
X71295200Y-39085002D01*
X71302743Y-39066790D01*
X71364515Y-38951223D01*
X71375463Y-38934837D01*
X71458597Y-38833537D01*
X71472537Y-38819597D01*
X71573837Y-38736463D01*
X71590223Y-38725515D01*
X71705790Y-38663743D01*
X71724002Y-38656200D01*
X71849394Y-38618163D01*
X71868733Y-38614315D01*
X72004086Y-38600984D01*
X72013947Y-38600500D01*
X72074892Y-38600500D01*
X74516870Y-38600500D01*
X74576001Y-38619713D01*
G37*
%TD.AperFunction*%
M02*
