%TF.GenerationSoftware,KiCad,Pcbnew,9.0.0*%
%TF.CreationDate,2025-06-08T16:33:52+02:00*%
%TF.ProjectId,ideswap,69646573-7761-4702-9e6b-696361645f70,A0*%
%TF.SameCoordinates,Original*%
%TF.FileFunction,Legend,Top*%
%TF.FilePolarity,Positive*%
%FSLAX46Y46*%
G04 Gerber Fmt 4.6, Leading zero omitted, Abs format (unit mm)*
G04 Created by KiCad (PCBNEW 9.0.0) date 2025-06-08 16:33:52*
%MOMM*%
%LPD*%
G01*
G04 APERTURE LIST*
%ADD10C,0.100000*%
%ADD11R,1.350000X1.350000*%
%ADD12O,1.350000X1.350000*%
G04 APERTURE END LIST*
D10*
X72898000Y-45212000D02*
X71882000Y-45212000D01*
X72390000Y-44450000D01*
X72898000Y-45212000D01*
G36*
X72898000Y-45212000D02*
G01*
X71882000Y-45212000D01*
X72390000Y-44450000D01*
X72898000Y-45212000D01*
G37*
%LPC*%
D11*
X72390000Y-43180000D03*
D12*
X72390000Y-41180000D03*
X74390000Y-43180000D03*
X74390000Y-41180000D03*
X76390000Y-43180000D03*
X76390000Y-41180000D03*
X78390000Y-43180000D03*
X78390000Y-41180000D03*
X80390000Y-43180000D03*
X80390000Y-41180000D03*
X82390000Y-43180000D03*
X82390000Y-41180000D03*
X84390000Y-43180000D03*
X84390000Y-41180000D03*
X86390000Y-43180000D03*
X86390000Y-41180000D03*
X88390000Y-43180000D03*
X88390000Y-41180000D03*
X90390000Y-43180000D03*
X90390000Y-41180000D03*
X92390000Y-43180000D03*
X92390000Y-41180000D03*
X94390000Y-43180000D03*
X94390000Y-41180000D03*
X96390000Y-43180000D03*
X96390000Y-41180000D03*
X98390000Y-43180000D03*
X98390000Y-41180000D03*
X100390000Y-43180000D03*
X100390000Y-41180000D03*
X102390000Y-43180000D03*
X102390000Y-41180000D03*
X104390000Y-43180000D03*
X104390000Y-41180000D03*
X106390000Y-43180000D03*
X106390000Y-41180000D03*
X108390000Y-43180000D03*
X108390000Y-41180000D03*
X110390000Y-43180000D03*
X110390000Y-41180000D03*
X112390000Y-43180000D03*
X112390000Y-41180000D03*
X114390000Y-43180000D03*
X114390000Y-41180000D03*
D11*
X72390000Y-46736000D03*
D12*
X72390000Y-48736000D03*
X74390000Y-46736000D03*
X74390000Y-48736000D03*
X76390000Y-46736000D03*
X76390000Y-48736000D03*
X78390000Y-46736000D03*
X78390000Y-48736000D03*
X80390000Y-46736000D03*
X80390000Y-48736000D03*
X82390000Y-46736000D03*
X82390000Y-48736000D03*
X84390000Y-46736000D03*
X84390000Y-48736000D03*
X86390000Y-46736000D03*
X86390000Y-48736000D03*
X88390000Y-46736000D03*
X88390000Y-48736000D03*
X90390000Y-46736000D03*
X90390000Y-48736000D03*
X92390000Y-46736000D03*
X92390000Y-48736000D03*
X94390000Y-46736000D03*
X94390000Y-48736000D03*
X96390000Y-46736000D03*
X96390000Y-48736000D03*
X98390000Y-46736000D03*
X98390000Y-48736000D03*
X100390000Y-46736000D03*
X100390000Y-48736000D03*
X102390000Y-46736000D03*
X102390000Y-48736000D03*
X104390000Y-46736000D03*
X104390000Y-48736000D03*
X106390000Y-46736000D03*
X106390000Y-48736000D03*
X108390000Y-46736000D03*
X108390000Y-48736000D03*
X110390000Y-46736000D03*
X110390000Y-48736000D03*
X112390000Y-46736000D03*
X112390000Y-48736000D03*
X114390000Y-46736000D03*
X114390000Y-48736000D03*
%LPD*%
M02*
