M48
; DRILL file {KiCad 9.0.0} date 2025-06-08T16:33:55+0200
; FORMAT={-:-/ absolute / metric / decimal}
; #@! TF.CreationDate,2025-06-08T16:33:55+02:00
; #@! TF.GenerationSoftware,Kicad,Pcbnew,9.0.0
; #@! TF.FileFunction,Plated,1,4,PTH
FMAT,2
METRIC
; #@! TA.AperFunction,Plated,PTH,ViaDrill
T1C0.300
; #@! TA.AperFunction,Plated,PTH,ComponentDrill
T2C0.800
%
G90
G05
T1
X74.422Y-45.085
X76.454Y-45.085
X79.121Y-45.212
X83.693Y-45.212
X86.36Y-45.212
X88.392Y-45.212
X90.805Y-45.212
X93.345Y-45.212
X95.25Y-45.212
X99.39Y-45.212
X101.346Y-45.212
X109.372Y-45.212
X114.3Y-45.212
T2
X72.39Y-41.18
X72.39Y-43.18
X72.39Y-46.736
X72.39Y-48.736
X74.39Y-41.18
X74.39Y-43.18
X74.39Y-46.736
X74.39Y-48.736
X76.39Y-41.18
X76.39Y-43.18
X76.39Y-46.736
X76.39Y-48.736
X78.39Y-41.18
X78.39Y-43.18
X78.39Y-46.736
X78.39Y-48.736
X80.39Y-41.18
X80.39Y-43.18
X80.39Y-46.736
X80.39Y-48.736
X82.39Y-41.18
X82.39Y-43.18
X82.39Y-46.736
X82.39Y-48.736
X84.39Y-41.18
X84.39Y-43.18
X84.39Y-46.736
X84.39Y-48.736
X86.39Y-41.18
X86.39Y-43.18
X86.39Y-46.736
X86.39Y-48.736
X88.39Y-41.18
X88.39Y-43.18
X88.39Y-46.736
X88.39Y-48.736
X90.39Y-41.18
X90.39Y-43.18
X90.39Y-46.736
X90.39Y-48.736
X92.39Y-41.18
X92.39Y-43.18
X92.39Y-46.736
X92.39Y-48.736
X94.39Y-41.18
X94.39Y-43.18
X94.39Y-46.736
X94.39Y-48.736
X96.39Y-41.18
X96.39Y-43.18
X96.39Y-46.736
X96.39Y-48.736
X98.39Y-41.18
X98.39Y-43.18
X98.39Y-46.736
X98.39Y-48.736
X100.39Y-41.18
X100.39Y-43.18
X100.39Y-46.736
X100.39Y-48.736
X102.39Y-41.18
X102.39Y-43.18
X102.39Y-46.736
X102.39Y-48.736
X104.39Y-41.18
X104.39Y-43.18
X104.39Y-46.736
X104.39Y-48.736
X106.39Y-41.18
X106.39Y-43.18
X106.39Y-46.736
X106.39Y-48.736
X108.39Y-41.18
X108.39Y-43.18
X108.39Y-46.736
X108.39Y-48.736
X110.39Y-41.18
X110.39Y-43.18
X110.39Y-46.736
X110.39Y-48.736
X112.39Y-41.18
X112.39Y-43.18
X112.39Y-46.736
X112.39Y-48.736
X114.39Y-41.18
X114.39Y-43.18
X114.39Y-46.736
X114.39Y-48.736
M30
