%TF.GenerationSoftware,KiCad,Pcbnew,9.0.0*%
%TF.CreationDate,2025-06-08T16:33:55+02:00*%
%TF.ProjectId,ideswap,69646573-7761-4702-9e6b-696361645f70,A0*%
%TF.SameCoordinates,Original*%
%TF.FileFunction,Drillmap*%
%TF.FilePolarity,Positive*%
%FSLAX45Y45*%
G04 Gerber Fmt 4.5, Leading zero omitted, Abs format (unit mm)*
G04 Created by KiCad (PCBNEW 9.0.0) date 2025-06-08 16:33:55*
%MOMM*%
%LPD*%
G01*
G04 APERTURE LIST*
%ADD10C,0.050000*%
%ADD11C,0.200000*%
%ADD12C,0.100000*%
G04 APERTURE END LIST*
D10*
X7073900Y-4864100D02*
X7073900Y-3937000D01*
X7200900Y-3810000D02*
X11480800Y-3810000D01*
X7200900Y-4991100D02*
G75*
G02*
X7073900Y-4864100I0J127000D01*
G01*
X11480800Y-4991100D02*
X7200900Y-4991100D01*
X11607800Y-3937000D02*
X11607800Y-4864100D01*
X11607800Y-4864100D02*
G75*
G02*
X11480800Y-4991100I-127000J0D01*
G01*
X7073900Y-3937000D02*
G75*
G02*
X7200900Y-3810000I127000J0D01*
G01*
X11480800Y-3810000D02*
G75*
G02*
X11607800Y-3937000I0J-127000D01*
G01*
D11*
D12*
X7427200Y-4493500D02*
X7457200Y-4523500D01*
X7457200Y-4493500D02*
X7427200Y-4523500D01*
X7630400Y-4493500D02*
X7660400Y-4523500D01*
X7660400Y-4493500D02*
X7630400Y-4523500D01*
X7897100Y-4506200D02*
X7927100Y-4536200D01*
X7927100Y-4506200D02*
X7897100Y-4536200D01*
X8354300Y-4506200D02*
X8384300Y-4536200D01*
X8384300Y-4506200D02*
X8354300Y-4536200D01*
X8621000Y-4506200D02*
X8651000Y-4536200D01*
X8651000Y-4506200D02*
X8621000Y-4536200D01*
X8824200Y-4506200D02*
X8854200Y-4536200D01*
X8854200Y-4506200D02*
X8824200Y-4536200D01*
X9065500Y-4506200D02*
X9095500Y-4536200D01*
X9095500Y-4506200D02*
X9065500Y-4536200D01*
X9319500Y-4506200D02*
X9349500Y-4536200D01*
X9349500Y-4506200D02*
X9319500Y-4536200D01*
X9510000Y-4506200D02*
X9540000Y-4536200D01*
X9540000Y-4506200D02*
X9510000Y-4536200D01*
X9924020Y-4506200D02*
X9954020Y-4536200D01*
X9954020Y-4506200D02*
X9924020Y-4536200D01*
X10119600Y-4506200D02*
X10149600Y-4536200D01*
X10149600Y-4506200D02*
X10119600Y-4536200D01*
X10922240Y-4506200D02*
X10952240Y-4536200D01*
X10952240Y-4506200D02*
X10922240Y-4536200D01*
X11415000Y-4506200D02*
X11445000Y-4536200D01*
X11445000Y-4506200D02*
X11415000Y-4536200D01*
X7279000Y-4118000D02*
G75*
G02*
X7199000Y-4118000I-40000J0D01*
G01*
X7199000Y-4118000D02*
G75*
G02*
X7279000Y-4118000I40000J0D01*
G01*
X7279000Y-4318000D02*
G75*
G02*
X7199000Y-4318000I-40000J0D01*
G01*
X7199000Y-4318000D02*
G75*
G02*
X7279000Y-4318000I40000J0D01*
G01*
X7279000Y-4673600D02*
G75*
G02*
X7199000Y-4673600I-40000J0D01*
G01*
X7199000Y-4673600D02*
G75*
G02*
X7279000Y-4673600I40000J0D01*
G01*
X7279000Y-4873600D02*
G75*
G02*
X7199000Y-4873600I-40000J0D01*
G01*
X7199000Y-4873600D02*
G75*
G02*
X7279000Y-4873600I40000J0D01*
G01*
X7479000Y-4118000D02*
G75*
G02*
X7399000Y-4118000I-40000J0D01*
G01*
X7399000Y-4118000D02*
G75*
G02*
X7479000Y-4118000I40000J0D01*
G01*
X7479000Y-4318000D02*
G75*
G02*
X7399000Y-4318000I-40000J0D01*
G01*
X7399000Y-4318000D02*
G75*
G02*
X7479000Y-4318000I40000J0D01*
G01*
X7479000Y-4673600D02*
G75*
G02*
X7399000Y-4673600I-40000J0D01*
G01*
X7399000Y-4673600D02*
G75*
G02*
X7479000Y-4673600I40000J0D01*
G01*
X7479000Y-4873600D02*
G75*
G02*
X7399000Y-4873600I-40000J0D01*
G01*
X7399000Y-4873600D02*
G75*
G02*
X7479000Y-4873600I40000J0D01*
G01*
X7679000Y-4118000D02*
G75*
G02*
X7599000Y-4118000I-40000J0D01*
G01*
X7599000Y-4118000D02*
G75*
G02*
X7679000Y-4118000I40000J0D01*
G01*
X7679000Y-4318000D02*
G75*
G02*
X7599000Y-4318000I-40000J0D01*
G01*
X7599000Y-4318000D02*
G75*
G02*
X7679000Y-4318000I40000J0D01*
G01*
X7679000Y-4673600D02*
G75*
G02*
X7599000Y-4673600I-40000J0D01*
G01*
X7599000Y-4673600D02*
G75*
G02*
X7679000Y-4673600I40000J0D01*
G01*
X7679000Y-4873600D02*
G75*
G02*
X7599000Y-4873600I-40000J0D01*
G01*
X7599000Y-4873600D02*
G75*
G02*
X7679000Y-4873600I40000J0D01*
G01*
X7879000Y-4118000D02*
G75*
G02*
X7799000Y-4118000I-40000J0D01*
G01*
X7799000Y-4118000D02*
G75*
G02*
X7879000Y-4118000I40000J0D01*
G01*
X7879000Y-4318000D02*
G75*
G02*
X7799000Y-4318000I-40000J0D01*
G01*
X7799000Y-4318000D02*
G75*
G02*
X7879000Y-4318000I40000J0D01*
G01*
X7879000Y-4673600D02*
G75*
G02*
X7799000Y-4673600I-40000J0D01*
G01*
X7799000Y-4673600D02*
G75*
G02*
X7879000Y-4673600I40000J0D01*
G01*
X7879000Y-4873600D02*
G75*
G02*
X7799000Y-4873600I-40000J0D01*
G01*
X7799000Y-4873600D02*
G75*
G02*
X7879000Y-4873600I40000J0D01*
G01*
X8079000Y-4118000D02*
G75*
G02*
X7999000Y-4118000I-40000J0D01*
G01*
X7999000Y-4118000D02*
G75*
G02*
X8079000Y-4118000I40000J0D01*
G01*
X8079000Y-4318000D02*
G75*
G02*
X7999000Y-4318000I-40000J0D01*
G01*
X7999000Y-4318000D02*
G75*
G02*
X8079000Y-4318000I40000J0D01*
G01*
X8079000Y-4673600D02*
G75*
G02*
X7999000Y-4673600I-40000J0D01*
G01*
X7999000Y-4673600D02*
G75*
G02*
X8079000Y-4673600I40000J0D01*
G01*
X8079000Y-4873600D02*
G75*
G02*
X7999000Y-4873600I-40000J0D01*
G01*
X7999000Y-4873600D02*
G75*
G02*
X8079000Y-4873600I40000J0D01*
G01*
X8279000Y-4118000D02*
G75*
G02*
X8199000Y-4118000I-40000J0D01*
G01*
X8199000Y-4118000D02*
G75*
G02*
X8279000Y-4118000I40000J0D01*
G01*
X8279000Y-4318000D02*
G75*
G02*
X8199000Y-4318000I-40000J0D01*
G01*
X8199000Y-4318000D02*
G75*
G02*
X8279000Y-4318000I40000J0D01*
G01*
X8279000Y-4673600D02*
G75*
G02*
X8199000Y-4673600I-40000J0D01*
G01*
X8199000Y-4673600D02*
G75*
G02*
X8279000Y-4673600I40000J0D01*
G01*
X8279000Y-4873600D02*
G75*
G02*
X8199000Y-4873600I-40000J0D01*
G01*
X8199000Y-4873600D02*
G75*
G02*
X8279000Y-4873600I40000J0D01*
G01*
X8479000Y-4118000D02*
G75*
G02*
X8399000Y-4118000I-40000J0D01*
G01*
X8399000Y-4118000D02*
G75*
G02*
X8479000Y-4118000I40000J0D01*
G01*
X8479000Y-4318000D02*
G75*
G02*
X8399000Y-4318000I-40000J0D01*
G01*
X8399000Y-4318000D02*
G75*
G02*
X8479000Y-4318000I40000J0D01*
G01*
X8479000Y-4673600D02*
G75*
G02*
X8399000Y-4673600I-40000J0D01*
G01*
X8399000Y-4673600D02*
G75*
G02*
X8479000Y-4673600I40000J0D01*
G01*
X8479000Y-4873600D02*
G75*
G02*
X8399000Y-4873600I-40000J0D01*
G01*
X8399000Y-4873600D02*
G75*
G02*
X8479000Y-4873600I40000J0D01*
G01*
X8679000Y-4118000D02*
G75*
G02*
X8599000Y-4118000I-40000J0D01*
G01*
X8599000Y-4118000D02*
G75*
G02*
X8679000Y-4118000I40000J0D01*
G01*
X8679000Y-4318000D02*
G75*
G02*
X8599000Y-4318000I-40000J0D01*
G01*
X8599000Y-4318000D02*
G75*
G02*
X8679000Y-4318000I40000J0D01*
G01*
X8679000Y-4673600D02*
G75*
G02*
X8599000Y-4673600I-40000J0D01*
G01*
X8599000Y-4673600D02*
G75*
G02*
X8679000Y-4673600I40000J0D01*
G01*
X8679000Y-4873600D02*
G75*
G02*
X8599000Y-4873600I-40000J0D01*
G01*
X8599000Y-4873600D02*
G75*
G02*
X8679000Y-4873600I40000J0D01*
G01*
X8879000Y-4118000D02*
G75*
G02*
X8799000Y-4118000I-40000J0D01*
G01*
X8799000Y-4118000D02*
G75*
G02*
X8879000Y-4118000I40000J0D01*
G01*
X8879000Y-4318000D02*
G75*
G02*
X8799000Y-4318000I-40000J0D01*
G01*
X8799000Y-4318000D02*
G75*
G02*
X8879000Y-4318000I40000J0D01*
G01*
X8879000Y-4673600D02*
G75*
G02*
X8799000Y-4673600I-40000J0D01*
G01*
X8799000Y-4673600D02*
G75*
G02*
X8879000Y-4673600I40000J0D01*
G01*
X8879000Y-4873600D02*
G75*
G02*
X8799000Y-4873600I-40000J0D01*
G01*
X8799000Y-4873600D02*
G75*
G02*
X8879000Y-4873600I40000J0D01*
G01*
X9079000Y-4118000D02*
G75*
G02*
X8999000Y-4118000I-40000J0D01*
G01*
X8999000Y-4118000D02*
G75*
G02*
X9079000Y-4118000I40000J0D01*
G01*
X9079000Y-4318000D02*
G75*
G02*
X8999000Y-4318000I-40000J0D01*
G01*
X8999000Y-4318000D02*
G75*
G02*
X9079000Y-4318000I40000J0D01*
G01*
X9079000Y-4673600D02*
G75*
G02*
X8999000Y-4673600I-40000J0D01*
G01*
X8999000Y-4673600D02*
G75*
G02*
X9079000Y-4673600I40000J0D01*
G01*
X9079000Y-4873600D02*
G75*
G02*
X8999000Y-4873600I-40000J0D01*
G01*
X8999000Y-4873600D02*
G75*
G02*
X9079000Y-4873600I40000J0D01*
G01*
X9279000Y-4118000D02*
G75*
G02*
X9199000Y-4118000I-40000J0D01*
G01*
X9199000Y-4118000D02*
G75*
G02*
X9279000Y-4118000I40000J0D01*
G01*
X9279000Y-4318000D02*
G75*
G02*
X9199000Y-4318000I-40000J0D01*
G01*
X9199000Y-4318000D02*
G75*
G02*
X9279000Y-4318000I40000J0D01*
G01*
X9279000Y-4673600D02*
G75*
G02*
X9199000Y-4673600I-40000J0D01*
G01*
X9199000Y-4673600D02*
G75*
G02*
X9279000Y-4673600I40000J0D01*
G01*
X9279000Y-4873600D02*
G75*
G02*
X9199000Y-4873600I-40000J0D01*
G01*
X9199000Y-4873600D02*
G75*
G02*
X9279000Y-4873600I40000J0D01*
G01*
X9479000Y-4118000D02*
G75*
G02*
X9399000Y-4118000I-40000J0D01*
G01*
X9399000Y-4118000D02*
G75*
G02*
X9479000Y-4118000I40000J0D01*
G01*
X9479000Y-4318000D02*
G75*
G02*
X9399000Y-4318000I-40000J0D01*
G01*
X9399000Y-4318000D02*
G75*
G02*
X9479000Y-4318000I40000J0D01*
G01*
X9479000Y-4673600D02*
G75*
G02*
X9399000Y-4673600I-40000J0D01*
G01*
X9399000Y-4673600D02*
G75*
G02*
X9479000Y-4673600I40000J0D01*
G01*
X9479000Y-4873600D02*
G75*
G02*
X9399000Y-4873600I-40000J0D01*
G01*
X9399000Y-4873600D02*
G75*
G02*
X9479000Y-4873600I40000J0D01*
G01*
X9679000Y-4118000D02*
G75*
G02*
X9599000Y-4118000I-40000J0D01*
G01*
X9599000Y-4118000D02*
G75*
G02*
X9679000Y-4118000I40000J0D01*
G01*
X9679000Y-4318000D02*
G75*
G02*
X9599000Y-4318000I-40000J0D01*
G01*
X9599000Y-4318000D02*
G75*
G02*
X9679000Y-4318000I40000J0D01*
G01*
X9679000Y-4673600D02*
G75*
G02*
X9599000Y-4673600I-40000J0D01*
G01*
X9599000Y-4673600D02*
G75*
G02*
X9679000Y-4673600I40000J0D01*
G01*
X9679000Y-4873600D02*
G75*
G02*
X9599000Y-4873600I-40000J0D01*
G01*
X9599000Y-4873600D02*
G75*
G02*
X9679000Y-4873600I40000J0D01*
G01*
X9879000Y-4118000D02*
G75*
G02*
X9799000Y-4118000I-40000J0D01*
G01*
X9799000Y-4118000D02*
G75*
G02*
X9879000Y-4118000I40000J0D01*
G01*
X9879000Y-4318000D02*
G75*
G02*
X9799000Y-4318000I-40000J0D01*
G01*
X9799000Y-4318000D02*
G75*
G02*
X9879000Y-4318000I40000J0D01*
G01*
X9879000Y-4673600D02*
G75*
G02*
X9799000Y-4673600I-40000J0D01*
G01*
X9799000Y-4673600D02*
G75*
G02*
X9879000Y-4673600I40000J0D01*
G01*
X9879000Y-4873600D02*
G75*
G02*
X9799000Y-4873600I-40000J0D01*
G01*
X9799000Y-4873600D02*
G75*
G02*
X9879000Y-4873600I40000J0D01*
G01*
X10079000Y-4118000D02*
G75*
G02*
X9999000Y-4118000I-40000J0D01*
G01*
X9999000Y-4118000D02*
G75*
G02*
X10079000Y-4118000I40000J0D01*
G01*
X10079000Y-4318000D02*
G75*
G02*
X9999000Y-4318000I-40000J0D01*
G01*
X9999000Y-4318000D02*
G75*
G02*
X10079000Y-4318000I40000J0D01*
G01*
X10079000Y-4673600D02*
G75*
G02*
X9999000Y-4673600I-40000J0D01*
G01*
X9999000Y-4673600D02*
G75*
G02*
X10079000Y-4673600I40000J0D01*
G01*
X10079000Y-4873600D02*
G75*
G02*
X9999000Y-4873600I-40000J0D01*
G01*
X9999000Y-4873600D02*
G75*
G02*
X10079000Y-4873600I40000J0D01*
G01*
X10279000Y-4118000D02*
G75*
G02*
X10199000Y-4118000I-40000J0D01*
G01*
X10199000Y-4118000D02*
G75*
G02*
X10279000Y-4118000I40000J0D01*
G01*
X10279000Y-4318000D02*
G75*
G02*
X10199000Y-4318000I-40000J0D01*
G01*
X10199000Y-4318000D02*
G75*
G02*
X10279000Y-4318000I40000J0D01*
G01*
X10279000Y-4673600D02*
G75*
G02*
X10199000Y-4673600I-40000J0D01*
G01*
X10199000Y-4673600D02*
G75*
G02*
X10279000Y-4673600I40000J0D01*
G01*
X10279000Y-4873600D02*
G75*
G02*
X10199000Y-4873600I-40000J0D01*
G01*
X10199000Y-4873600D02*
G75*
G02*
X10279000Y-4873600I40000J0D01*
G01*
X10479000Y-4118000D02*
G75*
G02*
X10399000Y-4118000I-40000J0D01*
G01*
X10399000Y-4118000D02*
G75*
G02*
X10479000Y-4118000I40000J0D01*
G01*
X10479000Y-4318000D02*
G75*
G02*
X10399000Y-4318000I-40000J0D01*
G01*
X10399000Y-4318000D02*
G75*
G02*
X10479000Y-4318000I40000J0D01*
G01*
X10479000Y-4673600D02*
G75*
G02*
X10399000Y-4673600I-40000J0D01*
G01*
X10399000Y-4673600D02*
G75*
G02*
X10479000Y-4673600I40000J0D01*
G01*
X10479000Y-4873600D02*
G75*
G02*
X10399000Y-4873600I-40000J0D01*
G01*
X10399000Y-4873600D02*
G75*
G02*
X10479000Y-4873600I40000J0D01*
G01*
X10679000Y-4118000D02*
G75*
G02*
X10599000Y-4118000I-40000J0D01*
G01*
X10599000Y-4118000D02*
G75*
G02*
X10679000Y-4118000I40000J0D01*
G01*
X10679000Y-4318000D02*
G75*
G02*
X10599000Y-4318000I-40000J0D01*
G01*
X10599000Y-4318000D02*
G75*
G02*
X10679000Y-4318000I40000J0D01*
G01*
X10679000Y-4673600D02*
G75*
G02*
X10599000Y-4673600I-40000J0D01*
G01*
X10599000Y-4673600D02*
G75*
G02*
X10679000Y-4673600I40000J0D01*
G01*
X10679000Y-4873600D02*
G75*
G02*
X10599000Y-4873600I-40000J0D01*
G01*
X10599000Y-4873600D02*
G75*
G02*
X10679000Y-4873600I40000J0D01*
G01*
X10879000Y-4118000D02*
G75*
G02*
X10799000Y-4118000I-40000J0D01*
G01*
X10799000Y-4118000D02*
G75*
G02*
X10879000Y-4118000I40000J0D01*
G01*
X10879000Y-4318000D02*
G75*
G02*
X10799000Y-4318000I-40000J0D01*
G01*
X10799000Y-4318000D02*
G75*
G02*
X10879000Y-4318000I40000J0D01*
G01*
X10879000Y-4673600D02*
G75*
G02*
X10799000Y-4673600I-40000J0D01*
G01*
X10799000Y-4673600D02*
G75*
G02*
X10879000Y-4673600I40000J0D01*
G01*
X10879000Y-4873600D02*
G75*
G02*
X10799000Y-4873600I-40000J0D01*
G01*
X10799000Y-4873600D02*
G75*
G02*
X10879000Y-4873600I40000J0D01*
G01*
X11079000Y-4118000D02*
G75*
G02*
X10999000Y-4118000I-40000J0D01*
G01*
X10999000Y-4118000D02*
G75*
G02*
X11079000Y-4118000I40000J0D01*
G01*
X11079000Y-4318000D02*
G75*
G02*
X10999000Y-4318000I-40000J0D01*
G01*
X10999000Y-4318000D02*
G75*
G02*
X11079000Y-4318000I40000J0D01*
G01*
X11079000Y-4673600D02*
G75*
G02*
X10999000Y-4673600I-40000J0D01*
G01*
X10999000Y-4673600D02*
G75*
G02*
X11079000Y-4673600I40000J0D01*
G01*
X11079000Y-4873600D02*
G75*
G02*
X10999000Y-4873600I-40000J0D01*
G01*
X10999000Y-4873600D02*
G75*
G02*
X11079000Y-4873600I40000J0D01*
G01*
X11279000Y-4118000D02*
G75*
G02*
X11199000Y-4118000I-40000J0D01*
G01*
X11199000Y-4118000D02*
G75*
G02*
X11279000Y-4118000I40000J0D01*
G01*
X11279000Y-4318000D02*
G75*
G02*
X11199000Y-4318000I-40000J0D01*
G01*
X11199000Y-4318000D02*
G75*
G02*
X11279000Y-4318000I40000J0D01*
G01*
X11279000Y-4673600D02*
G75*
G02*
X11199000Y-4673600I-40000J0D01*
G01*
X11199000Y-4673600D02*
G75*
G02*
X11279000Y-4673600I40000J0D01*
G01*
X11279000Y-4873600D02*
G75*
G02*
X11199000Y-4873600I-40000J0D01*
G01*
X11199000Y-4873600D02*
G75*
G02*
X11279000Y-4873600I40000J0D01*
G01*
X11479000Y-4118000D02*
G75*
G02*
X11399000Y-4118000I-40000J0D01*
G01*
X11399000Y-4118000D02*
G75*
G02*
X11479000Y-4118000I40000J0D01*
G01*
X11479000Y-4318000D02*
G75*
G02*
X11399000Y-4318000I-40000J0D01*
G01*
X11399000Y-4318000D02*
G75*
G02*
X11479000Y-4318000I40000J0D01*
G01*
X11479000Y-4673600D02*
G75*
G02*
X11399000Y-4673600I-40000J0D01*
G01*
X11399000Y-4673600D02*
G75*
G02*
X11479000Y-4673600I40000J0D01*
G01*
X11479000Y-4873600D02*
G75*
G02*
X11399000Y-4873600I-40000J0D01*
G01*
X11399000Y-4873600D02*
G75*
G02*
X11479000Y-4873600I40000J0D01*
G01*
D11*
X7332177Y-5305084D02*
X7332177Y-5105084D01*
X7332177Y-5105084D02*
X7379796Y-5105084D01*
X7379796Y-5105084D02*
X7408367Y-5114608D01*
X7408367Y-5114608D02*
X7427415Y-5133655D01*
X7427415Y-5133655D02*
X7436939Y-5152703D01*
X7436939Y-5152703D02*
X7446462Y-5190798D01*
X7446462Y-5190798D02*
X7446462Y-5219370D01*
X7446462Y-5219370D02*
X7436939Y-5257465D01*
X7436939Y-5257465D02*
X7427415Y-5276512D01*
X7427415Y-5276512D02*
X7408367Y-5295560D01*
X7408367Y-5295560D02*
X7379796Y-5305084D01*
X7379796Y-5305084D02*
X7332177Y-5305084D01*
X7532177Y-5305084D02*
X7532177Y-5171750D01*
X7532177Y-5209846D02*
X7541701Y-5190798D01*
X7541701Y-5190798D02*
X7551224Y-5181274D01*
X7551224Y-5181274D02*
X7570272Y-5171750D01*
X7570272Y-5171750D02*
X7589320Y-5171750D01*
X7655986Y-5305084D02*
X7655986Y-5171750D01*
X7655986Y-5105084D02*
X7646462Y-5114608D01*
X7646462Y-5114608D02*
X7655986Y-5124131D01*
X7655986Y-5124131D02*
X7665510Y-5114608D01*
X7665510Y-5114608D02*
X7655986Y-5105084D01*
X7655986Y-5105084D02*
X7655986Y-5124131D01*
X7779796Y-5305084D02*
X7760748Y-5295560D01*
X7760748Y-5295560D02*
X7751224Y-5276512D01*
X7751224Y-5276512D02*
X7751224Y-5105084D01*
X7884558Y-5305084D02*
X7865510Y-5295560D01*
X7865510Y-5295560D02*
X7855986Y-5276512D01*
X7855986Y-5276512D02*
X7855986Y-5105084D01*
X8113129Y-5305084D02*
X8113129Y-5105084D01*
X8113129Y-5105084D02*
X8179796Y-5247941D01*
X8179796Y-5247941D02*
X8246462Y-5105084D01*
X8246462Y-5105084D02*
X8246462Y-5305084D01*
X8427415Y-5305084D02*
X8427415Y-5200322D01*
X8427415Y-5200322D02*
X8417891Y-5181274D01*
X8417891Y-5181274D02*
X8398844Y-5171750D01*
X8398844Y-5171750D02*
X8360748Y-5171750D01*
X8360748Y-5171750D02*
X8341701Y-5181274D01*
X8427415Y-5295560D02*
X8408367Y-5305084D01*
X8408367Y-5305084D02*
X8360748Y-5305084D01*
X8360748Y-5305084D02*
X8341701Y-5295560D01*
X8341701Y-5295560D02*
X8332177Y-5276512D01*
X8332177Y-5276512D02*
X8332177Y-5257465D01*
X8332177Y-5257465D02*
X8341701Y-5238417D01*
X8341701Y-5238417D02*
X8360748Y-5228893D01*
X8360748Y-5228893D02*
X8408367Y-5228893D01*
X8408367Y-5228893D02*
X8427415Y-5219370D01*
X8522653Y-5171750D02*
X8522653Y-5371750D01*
X8522653Y-5181274D02*
X8541701Y-5171750D01*
X8541701Y-5171750D02*
X8579796Y-5171750D01*
X8579796Y-5171750D02*
X8598844Y-5181274D01*
X8598844Y-5181274D02*
X8608367Y-5190798D01*
X8608367Y-5190798D02*
X8617891Y-5209846D01*
X8617891Y-5209846D02*
X8617891Y-5266989D01*
X8617891Y-5266989D02*
X8608367Y-5286036D01*
X8608367Y-5286036D02*
X8598844Y-5295560D01*
X8598844Y-5295560D02*
X8579796Y-5305084D01*
X8579796Y-5305084D02*
X8541701Y-5305084D01*
X8541701Y-5305084D02*
X8522653Y-5295560D01*
X8703605Y-5286036D02*
X8713129Y-5295560D01*
X8713129Y-5295560D02*
X8703605Y-5305084D01*
X8703605Y-5305084D02*
X8694082Y-5295560D01*
X8694082Y-5295560D02*
X8703605Y-5286036D01*
X8703605Y-5286036D02*
X8703605Y-5305084D01*
X8703605Y-5181274D02*
X8713129Y-5190798D01*
X8713129Y-5190798D02*
X8703605Y-5200322D01*
X8703605Y-5200322D02*
X8694082Y-5190798D01*
X8694082Y-5190798D02*
X8703605Y-5181274D01*
X8703605Y-5181274D02*
X8703605Y-5200322D01*
D12*
X7041400Y-5618600D02*
X7071400Y-5648600D01*
X7071400Y-5618600D02*
X7041400Y-5648600D01*
D11*
X7370272Y-5525084D02*
X7389320Y-5525084D01*
X7389320Y-5525084D02*
X7408367Y-5534608D01*
X7408367Y-5534608D02*
X7417891Y-5544131D01*
X7417891Y-5544131D02*
X7427415Y-5563179D01*
X7427415Y-5563179D02*
X7436939Y-5601274D01*
X7436939Y-5601274D02*
X7436939Y-5648893D01*
X7436939Y-5648893D02*
X7427415Y-5686988D01*
X7427415Y-5686988D02*
X7417891Y-5706036D01*
X7417891Y-5706036D02*
X7408367Y-5715560D01*
X7408367Y-5715560D02*
X7389320Y-5725084D01*
X7389320Y-5725084D02*
X7370272Y-5725084D01*
X7370272Y-5725084D02*
X7351224Y-5715560D01*
X7351224Y-5715560D02*
X7341701Y-5706036D01*
X7341701Y-5706036D02*
X7332177Y-5686988D01*
X7332177Y-5686988D02*
X7322653Y-5648893D01*
X7322653Y-5648893D02*
X7322653Y-5601274D01*
X7322653Y-5601274D02*
X7332177Y-5563179D01*
X7332177Y-5563179D02*
X7341701Y-5544131D01*
X7341701Y-5544131D02*
X7351224Y-5534608D01*
X7351224Y-5534608D02*
X7370272Y-5525084D01*
X7522653Y-5706036D02*
X7532177Y-5715560D01*
X7532177Y-5715560D02*
X7522653Y-5725084D01*
X7522653Y-5725084D02*
X7513129Y-5715560D01*
X7513129Y-5715560D02*
X7522653Y-5706036D01*
X7522653Y-5706036D02*
X7522653Y-5725084D01*
X7598843Y-5525084D02*
X7722653Y-5525084D01*
X7722653Y-5525084D02*
X7655986Y-5601274D01*
X7655986Y-5601274D02*
X7684558Y-5601274D01*
X7684558Y-5601274D02*
X7703605Y-5610798D01*
X7703605Y-5610798D02*
X7713129Y-5620322D01*
X7713129Y-5620322D02*
X7722653Y-5639369D01*
X7722653Y-5639369D02*
X7722653Y-5686988D01*
X7722653Y-5686988D02*
X7713129Y-5706036D01*
X7713129Y-5706036D02*
X7703605Y-5715560D01*
X7703605Y-5715560D02*
X7684558Y-5725084D01*
X7684558Y-5725084D02*
X7627415Y-5725084D01*
X7627415Y-5725084D02*
X7608367Y-5715560D01*
X7608367Y-5715560D02*
X7598843Y-5706036D01*
X7846462Y-5525084D02*
X7865510Y-5525084D01*
X7865510Y-5525084D02*
X7884558Y-5534608D01*
X7884558Y-5534608D02*
X7894082Y-5544131D01*
X7894082Y-5544131D02*
X7903605Y-5563179D01*
X7903605Y-5563179D02*
X7913129Y-5601274D01*
X7913129Y-5601274D02*
X7913129Y-5648893D01*
X7913129Y-5648893D02*
X7903605Y-5686988D01*
X7903605Y-5686988D02*
X7894082Y-5706036D01*
X7894082Y-5706036D02*
X7884558Y-5715560D01*
X7884558Y-5715560D02*
X7865510Y-5725084D01*
X7865510Y-5725084D02*
X7846462Y-5725084D01*
X7846462Y-5725084D02*
X7827415Y-5715560D01*
X7827415Y-5715560D02*
X7817891Y-5706036D01*
X7817891Y-5706036D02*
X7808367Y-5686988D01*
X7808367Y-5686988D02*
X7798843Y-5648893D01*
X7798843Y-5648893D02*
X7798843Y-5601274D01*
X7798843Y-5601274D02*
X7808367Y-5563179D01*
X7808367Y-5563179D02*
X7817891Y-5544131D01*
X7817891Y-5544131D02*
X7827415Y-5534608D01*
X7827415Y-5534608D02*
X7846462Y-5525084D01*
X8036939Y-5525084D02*
X8055986Y-5525084D01*
X8055986Y-5525084D02*
X8075034Y-5534608D01*
X8075034Y-5534608D02*
X8084558Y-5544131D01*
X8084558Y-5544131D02*
X8094082Y-5563179D01*
X8094082Y-5563179D02*
X8103605Y-5601274D01*
X8103605Y-5601274D02*
X8103605Y-5648893D01*
X8103605Y-5648893D02*
X8094082Y-5686988D01*
X8094082Y-5686988D02*
X8084558Y-5706036D01*
X8084558Y-5706036D02*
X8075034Y-5715560D01*
X8075034Y-5715560D02*
X8055986Y-5725084D01*
X8055986Y-5725084D02*
X8036939Y-5725084D01*
X8036939Y-5725084D02*
X8017891Y-5715560D01*
X8017891Y-5715560D02*
X8008367Y-5706036D01*
X8008367Y-5706036D02*
X7998843Y-5686988D01*
X7998843Y-5686988D02*
X7989320Y-5648893D01*
X7989320Y-5648893D02*
X7989320Y-5601274D01*
X7989320Y-5601274D02*
X7998843Y-5563179D01*
X7998843Y-5563179D02*
X8008367Y-5544131D01*
X8008367Y-5544131D02*
X8017891Y-5534608D01*
X8017891Y-5534608D02*
X8036939Y-5525084D01*
X8189320Y-5725084D02*
X8189320Y-5591750D01*
X8189320Y-5610798D02*
X8198843Y-5601274D01*
X8198843Y-5601274D02*
X8217891Y-5591750D01*
X8217891Y-5591750D02*
X8246463Y-5591750D01*
X8246463Y-5591750D02*
X8265510Y-5601274D01*
X8265510Y-5601274D02*
X8275034Y-5620322D01*
X8275034Y-5620322D02*
X8275034Y-5725084D01*
X8275034Y-5620322D02*
X8284558Y-5601274D01*
X8284558Y-5601274D02*
X8303605Y-5591750D01*
X8303605Y-5591750D02*
X8332177Y-5591750D01*
X8332177Y-5591750D02*
X8351224Y-5601274D01*
X8351224Y-5601274D02*
X8360748Y-5620322D01*
X8360748Y-5620322D02*
X8360748Y-5725084D01*
X8455986Y-5725084D02*
X8455986Y-5591750D01*
X8455986Y-5610798D02*
X8465510Y-5601274D01*
X8465510Y-5601274D02*
X8484558Y-5591750D01*
X8484558Y-5591750D02*
X8513129Y-5591750D01*
X8513129Y-5591750D02*
X8532177Y-5601274D01*
X8532177Y-5601274D02*
X8541701Y-5620322D01*
X8541701Y-5620322D02*
X8541701Y-5725084D01*
X8541701Y-5620322D02*
X8551225Y-5601274D01*
X8551225Y-5601274D02*
X8570272Y-5591750D01*
X8570272Y-5591750D02*
X8598844Y-5591750D01*
X8598844Y-5591750D02*
X8617891Y-5601274D01*
X8617891Y-5601274D02*
X8627415Y-5620322D01*
X8627415Y-5620322D02*
X8627415Y-5725084D01*
X9017891Y-5515560D02*
X8846463Y-5772703D01*
X9275034Y-5525084D02*
X9294082Y-5525084D01*
X9294082Y-5525084D02*
X9313129Y-5534608D01*
X9313129Y-5534608D02*
X9322653Y-5544131D01*
X9322653Y-5544131D02*
X9332177Y-5563179D01*
X9332177Y-5563179D02*
X9341701Y-5601274D01*
X9341701Y-5601274D02*
X9341701Y-5648893D01*
X9341701Y-5648893D02*
X9332177Y-5686988D01*
X9332177Y-5686988D02*
X9322653Y-5706036D01*
X9322653Y-5706036D02*
X9313129Y-5715560D01*
X9313129Y-5715560D02*
X9294082Y-5725084D01*
X9294082Y-5725084D02*
X9275034Y-5725084D01*
X9275034Y-5725084D02*
X9255987Y-5715560D01*
X9255987Y-5715560D02*
X9246463Y-5706036D01*
X9246463Y-5706036D02*
X9236939Y-5686988D01*
X9236939Y-5686988D02*
X9227415Y-5648893D01*
X9227415Y-5648893D02*
X9227415Y-5601274D01*
X9227415Y-5601274D02*
X9236939Y-5563179D01*
X9236939Y-5563179D02*
X9246463Y-5544131D01*
X9246463Y-5544131D02*
X9255987Y-5534608D01*
X9255987Y-5534608D02*
X9275034Y-5525084D01*
X9427415Y-5706036D02*
X9436939Y-5715560D01*
X9436939Y-5715560D02*
X9427415Y-5725084D01*
X9427415Y-5725084D02*
X9417891Y-5715560D01*
X9417891Y-5715560D02*
X9427415Y-5706036D01*
X9427415Y-5706036D02*
X9427415Y-5725084D01*
X9560748Y-5525084D02*
X9579796Y-5525084D01*
X9579796Y-5525084D02*
X9598844Y-5534608D01*
X9598844Y-5534608D02*
X9608368Y-5544131D01*
X9608368Y-5544131D02*
X9617891Y-5563179D01*
X9617891Y-5563179D02*
X9627415Y-5601274D01*
X9627415Y-5601274D02*
X9627415Y-5648893D01*
X9627415Y-5648893D02*
X9617891Y-5686988D01*
X9617891Y-5686988D02*
X9608368Y-5706036D01*
X9608368Y-5706036D02*
X9598844Y-5715560D01*
X9598844Y-5715560D02*
X9579796Y-5725084D01*
X9579796Y-5725084D02*
X9560748Y-5725084D01*
X9560748Y-5725084D02*
X9541701Y-5715560D01*
X9541701Y-5715560D02*
X9532177Y-5706036D01*
X9532177Y-5706036D02*
X9522653Y-5686988D01*
X9522653Y-5686988D02*
X9513129Y-5648893D01*
X9513129Y-5648893D02*
X9513129Y-5601274D01*
X9513129Y-5601274D02*
X9522653Y-5563179D01*
X9522653Y-5563179D02*
X9532177Y-5544131D01*
X9532177Y-5544131D02*
X9541701Y-5534608D01*
X9541701Y-5534608D02*
X9560748Y-5525084D01*
X9817891Y-5725084D02*
X9703606Y-5725084D01*
X9760748Y-5725084D02*
X9760748Y-5525084D01*
X9760748Y-5525084D02*
X9741701Y-5553655D01*
X9741701Y-5553655D02*
X9722653Y-5572703D01*
X9722653Y-5572703D02*
X9703606Y-5582227D01*
X10008368Y-5725084D02*
X9894082Y-5725084D01*
X9951225Y-5725084D02*
X9951225Y-5525084D01*
X9951225Y-5525084D02*
X9932177Y-5553655D01*
X9932177Y-5553655D02*
X9913129Y-5572703D01*
X9913129Y-5572703D02*
X9894082Y-5582227D01*
X10122653Y-5610798D02*
X10103606Y-5601274D01*
X10103606Y-5601274D02*
X10094082Y-5591750D01*
X10094082Y-5591750D02*
X10084558Y-5572703D01*
X10084558Y-5572703D02*
X10084558Y-5563179D01*
X10084558Y-5563179D02*
X10094082Y-5544131D01*
X10094082Y-5544131D02*
X10103606Y-5534608D01*
X10103606Y-5534608D02*
X10122653Y-5525084D01*
X10122653Y-5525084D02*
X10160749Y-5525084D01*
X10160749Y-5525084D02*
X10179796Y-5534608D01*
X10179796Y-5534608D02*
X10189320Y-5544131D01*
X10189320Y-5544131D02*
X10198844Y-5563179D01*
X10198844Y-5563179D02*
X10198844Y-5572703D01*
X10198844Y-5572703D02*
X10189320Y-5591750D01*
X10189320Y-5591750D02*
X10179796Y-5601274D01*
X10179796Y-5601274D02*
X10160749Y-5610798D01*
X10160749Y-5610798D02*
X10122653Y-5610798D01*
X10122653Y-5610798D02*
X10103606Y-5620322D01*
X10103606Y-5620322D02*
X10094082Y-5629846D01*
X10094082Y-5629846D02*
X10084558Y-5648893D01*
X10084558Y-5648893D02*
X10084558Y-5686988D01*
X10084558Y-5686988D02*
X10094082Y-5706036D01*
X10094082Y-5706036D02*
X10103606Y-5715560D01*
X10103606Y-5715560D02*
X10122653Y-5725084D01*
X10122653Y-5725084D02*
X10160749Y-5725084D01*
X10160749Y-5725084D02*
X10179796Y-5715560D01*
X10179796Y-5715560D02*
X10189320Y-5706036D01*
X10189320Y-5706036D02*
X10198844Y-5686988D01*
X10198844Y-5686988D02*
X10198844Y-5648893D01*
X10198844Y-5648893D02*
X10189320Y-5629846D01*
X10189320Y-5629846D02*
X10179796Y-5620322D01*
X10179796Y-5620322D02*
X10160749Y-5610798D01*
X10275034Y-5525084D02*
X10275034Y-5563179D01*
X10351225Y-5525084D02*
X10351225Y-5563179D01*
X10646463Y-5801274D02*
X10636939Y-5791750D01*
X10636939Y-5791750D02*
X10617891Y-5763179D01*
X10617891Y-5763179D02*
X10608368Y-5744131D01*
X10608368Y-5744131D02*
X10598844Y-5715560D01*
X10598844Y-5715560D02*
X10589320Y-5667941D01*
X10589320Y-5667941D02*
X10589320Y-5629846D01*
X10589320Y-5629846D02*
X10598844Y-5582227D01*
X10598844Y-5582227D02*
X10608368Y-5553655D01*
X10608368Y-5553655D02*
X10617891Y-5534608D01*
X10617891Y-5534608D02*
X10636939Y-5506036D01*
X10636939Y-5506036D02*
X10646463Y-5496512D01*
X10827415Y-5725084D02*
X10713130Y-5725084D01*
X10770272Y-5725084D02*
X10770272Y-5525084D01*
X10770272Y-5525084D02*
X10751225Y-5553655D01*
X10751225Y-5553655D02*
X10732177Y-5572703D01*
X10732177Y-5572703D02*
X10713130Y-5582227D01*
X10894082Y-5525084D02*
X11017891Y-5525084D01*
X11017891Y-5525084D02*
X10951225Y-5601274D01*
X10951225Y-5601274D02*
X10979796Y-5601274D01*
X10979796Y-5601274D02*
X10998844Y-5610798D01*
X10998844Y-5610798D02*
X11008368Y-5620322D01*
X11008368Y-5620322D02*
X11017891Y-5639369D01*
X11017891Y-5639369D02*
X11017891Y-5686988D01*
X11017891Y-5686988D02*
X11008368Y-5706036D01*
X11008368Y-5706036D02*
X10998844Y-5715560D01*
X10998844Y-5715560D02*
X10979796Y-5725084D01*
X10979796Y-5725084D02*
X10922653Y-5725084D01*
X10922653Y-5725084D02*
X10903606Y-5715560D01*
X10903606Y-5715560D02*
X10894082Y-5706036D01*
X11255987Y-5725084D02*
X11255987Y-5525084D01*
X11341701Y-5725084D02*
X11341701Y-5620322D01*
X11341701Y-5620322D02*
X11332177Y-5601274D01*
X11332177Y-5601274D02*
X11313130Y-5591750D01*
X11313130Y-5591750D02*
X11284558Y-5591750D01*
X11284558Y-5591750D02*
X11265510Y-5601274D01*
X11265510Y-5601274D02*
X11255987Y-5610798D01*
X11465510Y-5725084D02*
X11446463Y-5715560D01*
X11446463Y-5715560D02*
X11436939Y-5706036D01*
X11436939Y-5706036D02*
X11427415Y-5686988D01*
X11427415Y-5686988D02*
X11427415Y-5629846D01*
X11427415Y-5629846D02*
X11436939Y-5610798D01*
X11436939Y-5610798D02*
X11446463Y-5601274D01*
X11446463Y-5601274D02*
X11465510Y-5591750D01*
X11465510Y-5591750D02*
X11494082Y-5591750D01*
X11494082Y-5591750D02*
X11513130Y-5601274D01*
X11513130Y-5601274D02*
X11522653Y-5610798D01*
X11522653Y-5610798D02*
X11532177Y-5629846D01*
X11532177Y-5629846D02*
X11532177Y-5686988D01*
X11532177Y-5686988D02*
X11522653Y-5706036D01*
X11522653Y-5706036D02*
X11513130Y-5715560D01*
X11513130Y-5715560D02*
X11494082Y-5725084D01*
X11494082Y-5725084D02*
X11465510Y-5725084D01*
X11646463Y-5725084D02*
X11627415Y-5715560D01*
X11627415Y-5715560D02*
X11617891Y-5696512D01*
X11617891Y-5696512D02*
X11617891Y-5525084D01*
X11798844Y-5715560D02*
X11779796Y-5725084D01*
X11779796Y-5725084D02*
X11741701Y-5725084D01*
X11741701Y-5725084D02*
X11722653Y-5715560D01*
X11722653Y-5715560D02*
X11713130Y-5696512D01*
X11713130Y-5696512D02*
X11713130Y-5620322D01*
X11713130Y-5620322D02*
X11722653Y-5601274D01*
X11722653Y-5601274D02*
X11741701Y-5591750D01*
X11741701Y-5591750D02*
X11779796Y-5591750D01*
X11779796Y-5591750D02*
X11798844Y-5601274D01*
X11798844Y-5601274D02*
X11808368Y-5620322D01*
X11808368Y-5620322D02*
X11808368Y-5639369D01*
X11808368Y-5639369D02*
X11713130Y-5658417D01*
X11884558Y-5715560D02*
X11903606Y-5725084D01*
X11903606Y-5725084D02*
X11941701Y-5725084D01*
X11941701Y-5725084D02*
X11960749Y-5715560D01*
X11960749Y-5715560D02*
X11970272Y-5696512D01*
X11970272Y-5696512D02*
X11970272Y-5686988D01*
X11970272Y-5686988D02*
X11960749Y-5667941D01*
X11960749Y-5667941D02*
X11941701Y-5658417D01*
X11941701Y-5658417D02*
X11913130Y-5658417D01*
X11913130Y-5658417D02*
X11894082Y-5648893D01*
X11894082Y-5648893D02*
X11884558Y-5629846D01*
X11884558Y-5629846D02*
X11884558Y-5620322D01*
X11884558Y-5620322D02*
X11894082Y-5601274D01*
X11894082Y-5601274D02*
X11913130Y-5591750D01*
X11913130Y-5591750D02*
X11941701Y-5591750D01*
X11941701Y-5591750D02*
X11960749Y-5601274D01*
X12036939Y-5801274D02*
X12046463Y-5791750D01*
X12046463Y-5791750D02*
X12065511Y-5763179D01*
X12065511Y-5763179D02*
X12075034Y-5744131D01*
X12075034Y-5744131D02*
X12084558Y-5715560D01*
X12084558Y-5715560D02*
X12094082Y-5667941D01*
X12094082Y-5667941D02*
X12094082Y-5629846D01*
X12094082Y-5629846D02*
X12084558Y-5582227D01*
X12084558Y-5582227D02*
X12075034Y-5553655D01*
X12075034Y-5553655D02*
X12065511Y-5534608D01*
X12065511Y-5534608D02*
X12046463Y-5506036D01*
X12046463Y-5506036D02*
X12036939Y-5496512D01*
D12*
X7071400Y-5897600D02*
G75*
G02*
X6991400Y-5897600I-40000J0D01*
G01*
X6991400Y-5897600D02*
G75*
G02*
X7071400Y-5897600I40000J0D01*
G01*
D11*
X7370272Y-5789084D02*
X7389320Y-5789084D01*
X7389320Y-5789084D02*
X7408367Y-5798608D01*
X7408367Y-5798608D02*
X7417891Y-5808131D01*
X7417891Y-5808131D02*
X7427415Y-5827179D01*
X7427415Y-5827179D02*
X7436939Y-5865274D01*
X7436939Y-5865274D02*
X7436939Y-5912893D01*
X7436939Y-5912893D02*
X7427415Y-5950988D01*
X7427415Y-5950988D02*
X7417891Y-5970036D01*
X7417891Y-5970036D02*
X7408367Y-5979560D01*
X7408367Y-5979560D02*
X7389320Y-5989084D01*
X7389320Y-5989084D02*
X7370272Y-5989084D01*
X7370272Y-5989084D02*
X7351224Y-5979560D01*
X7351224Y-5979560D02*
X7341701Y-5970036D01*
X7341701Y-5970036D02*
X7332177Y-5950988D01*
X7332177Y-5950988D02*
X7322653Y-5912893D01*
X7322653Y-5912893D02*
X7322653Y-5865274D01*
X7322653Y-5865274D02*
X7332177Y-5827179D01*
X7332177Y-5827179D02*
X7341701Y-5808131D01*
X7341701Y-5808131D02*
X7351224Y-5798608D01*
X7351224Y-5798608D02*
X7370272Y-5789084D01*
X7522653Y-5970036D02*
X7532177Y-5979560D01*
X7532177Y-5979560D02*
X7522653Y-5989084D01*
X7522653Y-5989084D02*
X7513129Y-5979560D01*
X7513129Y-5979560D02*
X7522653Y-5970036D01*
X7522653Y-5970036D02*
X7522653Y-5989084D01*
X7646462Y-5874798D02*
X7627415Y-5865274D01*
X7627415Y-5865274D02*
X7617891Y-5855750D01*
X7617891Y-5855750D02*
X7608367Y-5836703D01*
X7608367Y-5836703D02*
X7608367Y-5827179D01*
X7608367Y-5827179D02*
X7617891Y-5808131D01*
X7617891Y-5808131D02*
X7627415Y-5798608D01*
X7627415Y-5798608D02*
X7646462Y-5789084D01*
X7646462Y-5789084D02*
X7684558Y-5789084D01*
X7684558Y-5789084D02*
X7703605Y-5798608D01*
X7703605Y-5798608D02*
X7713129Y-5808131D01*
X7713129Y-5808131D02*
X7722653Y-5827179D01*
X7722653Y-5827179D02*
X7722653Y-5836703D01*
X7722653Y-5836703D02*
X7713129Y-5855750D01*
X7713129Y-5855750D02*
X7703605Y-5865274D01*
X7703605Y-5865274D02*
X7684558Y-5874798D01*
X7684558Y-5874798D02*
X7646462Y-5874798D01*
X7646462Y-5874798D02*
X7627415Y-5884322D01*
X7627415Y-5884322D02*
X7617891Y-5893846D01*
X7617891Y-5893846D02*
X7608367Y-5912893D01*
X7608367Y-5912893D02*
X7608367Y-5950988D01*
X7608367Y-5950988D02*
X7617891Y-5970036D01*
X7617891Y-5970036D02*
X7627415Y-5979560D01*
X7627415Y-5979560D02*
X7646462Y-5989084D01*
X7646462Y-5989084D02*
X7684558Y-5989084D01*
X7684558Y-5989084D02*
X7703605Y-5979560D01*
X7703605Y-5979560D02*
X7713129Y-5970036D01*
X7713129Y-5970036D02*
X7722653Y-5950988D01*
X7722653Y-5950988D02*
X7722653Y-5912893D01*
X7722653Y-5912893D02*
X7713129Y-5893846D01*
X7713129Y-5893846D02*
X7703605Y-5884322D01*
X7703605Y-5884322D02*
X7684558Y-5874798D01*
X7846462Y-5789084D02*
X7865510Y-5789084D01*
X7865510Y-5789084D02*
X7884558Y-5798608D01*
X7884558Y-5798608D02*
X7894082Y-5808131D01*
X7894082Y-5808131D02*
X7903605Y-5827179D01*
X7903605Y-5827179D02*
X7913129Y-5865274D01*
X7913129Y-5865274D02*
X7913129Y-5912893D01*
X7913129Y-5912893D02*
X7903605Y-5950988D01*
X7903605Y-5950988D02*
X7894082Y-5970036D01*
X7894082Y-5970036D02*
X7884558Y-5979560D01*
X7884558Y-5979560D02*
X7865510Y-5989084D01*
X7865510Y-5989084D02*
X7846462Y-5989084D01*
X7846462Y-5989084D02*
X7827415Y-5979560D01*
X7827415Y-5979560D02*
X7817891Y-5970036D01*
X7817891Y-5970036D02*
X7808367Y-5950988D01*
X7808367Y-5950988D02*
X7798843Y-5912893D01*
X7798843Y-5912893D02*
X7798843Y-5865274D01*
X7798843Y-5865274D02*
X7808367Y-5827179D01*
X7808367Y-5827179D02*
X7817891Y-5808131D01*
X7817891Y-5808131D02*
X7827415Y-5798608D01*
X7827415Y-5798608D02*
X7846462Y-5789084D01*
X8036939Y-5789084D02*
X8055986Y-5789084D01*
X8055986Y-5789084D02*
X8075034Y-5798608D01*
X8075034Y-5798608D02*
X8084558Y-5808131D01*
X8084558Y-5808131D02*
X8094082Y-5827179D01*
X8094082Y-5827179D02*
X8103605Y-5865274D01*
X8103605Y-5865274D02*
X8103605Y-5912893D01*
X8103605Y-5912893D02*
X8094082Y-5950988D01*
X8094082Y-5950988D02*
X8084558Y-5970036D01*
X8084558Y-5970036D02*
X8075034Y-5979560D01*
X8075034Y-5979560D02*
X8055986Y-5989084D01*
X8055986Y-5989084D02*
X8036939Y-5989084D01*
X8036939Y-5989084D02*
X8017891Y-5979560D01*
X8017891Y-5979560D02*
X8008367Y-5970036D01*
X8008367Y-5970036D02*
X7998843Y-5950988D01*
X7998843Y-5950988D02*
X7989320Y-5912893D01*
X7989320Y-5912893D02*
X7989320Y-5865274D01*
X7989320Y-5865274D02*
X7998843Y-5827179D01*
X7998843Y-5827179D02*
X8008367Y-5808131D01*
X8008367Y-5808131D02*
X8017891Y-5798608D01*
X8017891Y-5798608D02*
X8036939Y-5789084D01*
X8189320Y-5989084D02*
X8189320Y-5855750D01*
X8189320Y-5874798D02*
X8198843Y-5865274D01*
X8198843Y-5865274D02*
X8217891Y-5855750D01*
X8217891Y-5855750D02*
X8246463Y-5855750D01*
X8246463Y-5855750D02*
X8265510Y-5865274D01*
X8265510Y-5865274D02*
X8275034Y-5884322D01*
X8275034Y-5884322D02*
X8275034Y-5989084D01*
X8275034Y-5884322D02*
X8284558Y-5865274D01*
X8284558Y-5865274D02*
X8303605Y-5855750D01*
X8303605Y-5855750D02*
X8332177Y-5855750D01*
X8332177Y-5855750D02*
X8351224Y-5865274D01*
X8351224Y-5865274D02*
X8360748Y-5884322D01*
X8360748Y-5884322D02*
X8360748Y-5989084D01*
X8455986Y-5989084D02*
X8455986Y-5855750D01*
X8455986Y-5874798D02*
X8465510Y-5865274D01*
X8465510Y-5865274D02*
X8484558Y-5855750D01*
X8484558Y-5855750D02*
X8513129Y-5855750D01*
X8513129Y-5855750D02*
X8532177Y-5865274D01*
X8532177Y-5865274D02*
X8541701Y-5884322D01*
X8541701Y-5884322D02*
X8541701Y-5989084D01*
X8541701Y-5884322D02*
X8551225Y-5865274D01*
X8551225Y-5865274D02*
X8570272Y-5855750D01*
X8570272Y-5855750D02*
X8598844Y-5855750D01*
X8598844Y-5855750D02*
X8617891Y-5865274D01*
X8617891Y-5865274D02*
X8627415Y-5884322D01*
X8627415Y-5884322D02*
X8627415Y-5989084D01*
X9017891Y-5779560D02*
X8846463Y-6036703D01*
X9275034Y-5789084D02*
X9294082Y-5789084D01*
X9294082Y-5789084D02*
X9313129Y-5798608D01*
X9313129Y-5798608D02*
X9322653Y-5808131D01*
X9322653Y-5808131D02*
X9332177Y-5827179D01*
X9332177Y-5827179D02*
X9341701Y-5865274D01*
X9341701Y-5865274D02*
X9341701Y-5912893D01*
X9341701Y-5912893D02*
X9332177Y-5950988D01*
X9332177Y-5950988D02*
X9322653Y-5970036D01*
X9322653Y-5970036D02*
X9313129Y-5979560D01*
X9313129Y-5979560D02*
X9294082Y-5989084D01*
X9294082Y-5989084D02*
X9275034Y-5989084D01*
X9275034Y-5989084D02*
X9255987Y-5979560D01*
X9255987Y-5979560D02*
X9246463Y-5970036D01*
X9246463Y-5970036D02*
X9236939Y-5950988D01*
X9236939Y-5950988D02*
X9227415Y-5912893D01*
X9227415Y-5912893D02*
X9227415Y-5865274D01*
X9227415Y-5865274D02*
X9236939Y-5827179D01*
X9236939Y-5827179D02*
X9246463Y-5808131D01*
X9246463Y-5808131D02*
X9255987Y-5798608D01*
X9255987Y-5798608D02*
X9275034Y-5789084D01*
X9427415Y-5970036D02*
X9436939Y-5979560D01*
X9436939Y-5979560D02*
X9427415Y-5989084D01*
X9427415Y-5989084D02*
X9417891Y-5979560D01*
X9417891Y-5979560D02*
X9427415Y-5970036D01*
X9427415Y-5970036D02*
X9427415Y-5989084D01*
X9560748Y-5789084D02*
X9579796Y-5789084D01*
X9579796Y-5789084D02*
X9598844Y-5798608D01*
X9598844Y-5798608D02*
X9608368Y-5808131D01*
X9608368Y-5808131D02*
X9617891Y-5827179D01*
X9617891Y-5827179D02*
X9627415Y-5865274D01*
X9627415Y-5865274D02*
X9627415Y-5912893D01*
X9627415Y-5912893D02*
X9617891Y-5950988D01*
X9617891Y-5950988D02*
X9608368Y-5970036D01*
X9608368Y-5970036D02*
X9598844Y-5979560D01*
X9598844Y-5979560D02*
X9579796Y-5989084D01*
X9579796Y-5989084D02*
X9560748Y-5989084D01*
X9560748Y-5989084D02*
X9541701Y-5979560D01*
X9541701Y-5979560D02*
X9532177Y-5970036D01*
X9532177Y-5970036D02*
X9522653Y-5950988D01*
X9522653Y-5950988D02*
X9513129Y-5912893D01*
X9513129Y-5912893D02*
X9513129Y-5865274D01*
X9513129Y-5865274D02*
X9522653Y-5827179D01*
X9522653Y-5827179D02*
X9532177Y-5808131D01*
X9532177Y-5808131D02*
X9541701Y-5798608D01*
X9541701Y-5798608D02*
X9560748Y-5789084D01*
X9694082Y-5789084D02*
X9817891Y-5789084D01*
X9817891Y-5789084D02*
X9751225Y-5865274D01*
X9751225Y-5865274D02*
X9779796Y-5865274D01*
X9779796Y-5865274D02*
X9798844Y-5874798D01*
X9798844Y-5874798D02*
X9808368Y-5884322D01*
X9808368Y-5884322D02*
X9817891Y-5903369D01*
X9817891Y-5903369D02*
X9817891Y-5950988D01*
X9817891Y-5950988D02*
X9808368Y-5970036D01*
X9808368Y-5970036D02*
X9798844Y-5979560D01*
X9798844Y-5979560D02*
X9779796Y-5989084D01*
X9779796Y-5989084D02*
X9722653Y-5989084D01*
X9722653Y-5989084D02*
X9703606Y-5979560D01*
X9703606Y-5979560D02*
X9694082Y-5970036D01*
X10008368Y-5989084D02*
X9894082Y-5989084D01*
X9951225Y-5989084D02*
X9951225Y-5789084D01*
X9951225Y-5789084D02*
X9932177Y-5817655D01*
X9932177Y-5817655D02*
X9913129Y-5836703D01*
X9913129Y-5836703D02*
X9894082Y-5846227D01*
X10189320Y-5789084D02*
X10094082Y-5789084D01*
X10094082Y-5789084D02*
X10084558Y-5884322D01*
X10084558Y-5884322D02*
X10094082Y-5874798D01*
X10094082Y-5874798D02*
X10113129Y-5865274D01*
X10113129Y-5865274D02*
X10160749Y-5865274D01*
X10160749Y-5865274D02*
X10179796Y-5874798D01*
X10179796Y-5874798D02*
X10189320Y-5884322D01*
X10189320Y-5884322D02*
X10198844Y-5903369D01*
X10198844Y-5903369D02*
X10198844Y-5950988D01*
X10198844Y-5950988D02*
X10189320Y-5970036D01*
X10189320Y-5970036D02*
X10179796Y-5979560D01*
X10179796Y-5979560D02*
X10160749Y-5989084D01*
X10160749Y-5989084D02*
X10113129Y-5989084D01*
X10113129Y-5989084D02*
X10094082Y-5979560D01*
X10094082Y-5979560D02*
X10084558Y-5970036D01*
X10275034Y-5789084D02*
X10275034Y-5827179D01*
X10351225Y-5789084D02*
X10351225Y-5827179D01*
X10646463Y-6065274D02*
X10636939Y-6055750D01*
X10636939Y-6055750D02*
X10617891Y-6027179D01*
X10617891Y-6027179D02*
X10608368Y-6008131D01*
X10608368Y-6008131D02*
X10598844Y-5979560D01*
X10598844Y-5979560D02*
X10589320Y-5931941D01*
X10589320Y-5931941D02*
X10589320Y-5893846D01*
X10589320Y-5893846D02*
X10598844Y-5846227D01*
X10598844Y-5846227D02*
X10608368Y-5817655D01*
X10608368Y-5817655D02*
X10617891Y-5798608D01*
X10617891Y-5798608D02*
X10636939Y-5770036D01*
X10636939Y-5770036D02*
X10646463Y-5760512D01*
X10751225Y-5874798D02*
X10732177Y-5865274D01*
X10732177Y-5865274D02*
X10722653Y-5855750D01*
X10722653Y-5855750D02*
X10713130Y-5836703D01*
X10713130Y-5836703D02*
X10713130Y-5827179D01*
X10713130Y-5827179D02*
X10722653Y-5808131D01*
X10722653Y-5808131D02*
X10732177Y-5798608D01*
X10732177Y-5798608D02*
X10751225Y-5789084D01*
X10751225Y-5789084D02*
X10789320Y-5789084D01*
X10789320Y-5789084D02*
X10808368Y-5798608D01*
X10808368Y-5798608D02*
X10817891Y-5808131D01*
X10817891Y-5808131D02*
X10827415Y-5827179D01*
X10827415Y-5827179D02*
X10827415Y-5836703D01*
X10827415Y-5836703D02*
X10817891Y-5855750D01*
X10817891Y-5855750D02*
X10808368Y-5865274D01*
X10808368Y-5865274D02*
X10789320Y-5874798D01*
X10789320Y-5874798D02*
X10751225Y-5874798D01*
X10751225Y-5874798D02*
X10732177Y-5884322D01*
X10732177Y-5884322D02*
X10722653Y-5893846D01*
X10722653Y-5893846D02*
X10713130Y-5912893D01*
X10713130Y-5912893D02*
X10713130Y-5950988D01*
X10713130Y-5950988D02*
X10722653Y-5970036D01*
X10722653Y-5970036D02*
X10732177Y-5979560D01*
X10732177Y-5979560D02*
X10751225Y-5989084D01*
X10751225Y-5989084D02*
X10789320Y-5989084D01*
X10789320Y-5989084D02*
X10808368Y-5979560D01*
X10808368Y-5979560D02*
X10817891Y-5970036D01*
X10817891Y-5970036D02*
X10827415Y-5950988D01*
X10827415Y-5950988D02*
X10827415Y-5912893D01*
X10827415Y-5912893D02*
X10817891Y-5893846D01*
X10817891Y-5893846D02*
X10808368Y-5884322D01*
X10808368Y-5884322D02*
X10789320Y-5874798D01*
X10941701Y-5874798D02*
X10922653Y-5865274D01*
X10922653Y-5865274D02*
X10913130Y-5855750D01*
X10913130Y-5855750D02*
X10903606Y-5836703D01*
X10903606Y-5836703D02*
X10903606Y-5827179D01*
X10903606Y-5827179D02*
X10913130Y-5808131D01*
X10913130Y-5808131D02*
X10922653Y-5798608D01*
X10922653Y-5798608D02*
X10941701Y-5789084D01*
X10941701Y-5789084D02*
X10979796Y-5789084D01*
X10979796Y-5789084D02*
X10998844Y-5798608D01*
X10998844Y-5798608D02*
X11008368Y-5808131D01*
X11008368Y-5808131D02*
X11017891Y-5827179D01*
X11017891Y-5827179D02*
X11017891Y-5836703D01*
X11017891Y-5836703D02*
X11008368Y-5855750D01*
X11008368Y-5855750D02*
X10998844Y-5865274D01*
X10998844Y-5865274D02*
X10979796Y-5874798D01*
X10979796Y-5874798D02*
X10941701Y-5874798D01*
X10941701Y-5874798D02*
X10922653Y-5884322D01*
X10922653Y-5884322D02*
X10913130Y-5893846D01*
X10913130Y-5893846D02*
X10903606Y-5912893D01*
X10903606Y-5912893D02*
X10903606Y-5950988D01*
X10903606Y-5950988D02*
X10913130Y-5970036D01*
X10913130Y-5970036D02*
X10922653Y-5979560D01*
X10922653Y-5979560D02*
X10941701Y-5989084D01*
X10941701Y-5989084D02*
X10979796Y-5989084D01*
X10979796Y-5989084D02*
X10998844Y-5979560D01*
X10998844Y-5979560D02*
X11008368Y-5970036D01*
X11008368Y-5970036D02*
X11017891Y-5950988D01*
X11017891Y-5950988D02*
X11017891Y-5912893D01*
X11017891Y-5912893D02*
X11008368Y-5893846D01*
X11008368Y-5893846D02*
X10998844Y-5884322D01*
X10998844Y-5884322D02*
X10979796Y-5874798D01*
X11255987Y-5989084D02*
X11255987Y-5789084D01*
X11341701Y-5989084D02*
X11341701Y-5884322D01*
X11341701Y-5884322D02*
X11332177Y-5865274D01*
X11332177Y-5865274D02*
X11313130Y-5855750D01*
X11313130Y-5855750D02*
X11284558Y-5855750D01*
X11284558Y-5855750D02*
X11265510Y-5865274D01*
X11265510Y-5865274D02*
X11255987Y-5874798D01*
X11465510Y-5989084D02*
X11446463Y-5979560D01*
X11446463Y-5979560D02*
X11436939Y-5970036D01*
X11436939Y-5970036D02*
X11427415Y-5950988D01*
X11427415Y-5950988D02*
X11427415Y-5893846D01*
X11427415Y-5893846D02*
X11436939Y-5874798D01*
X11436939Y-5874798D02*
X11446463Y-5865274D01*
X11446463Y-5865274D02*
X11465510Y-5855750D01*
X11465510Y-5855750D02*
X11494082Y-5855750D01*
X11494082Y-5855750D02*
X11513130Y-5865274D01*
X11513130Y-5865274D02*
X11522653Y-5874798D01*
X11522653Y-5874798D02*
X11532177Y-5893846D01*
X11532177Y-5893846D02*
X11532177Y-5950988D01*
X11532177Y-5950988D02*
X11522653Y-5970036D01*
X11522653Y-5970036D02*
X11513130Y-5979560D01*
X11513130Y-5979560D02*
X11494082Y-5989084D01*
X11494082Y-5989084D02*
X11465510Y-5989084D01*
X11646463Y-5989084D02*
X11627415Y-5979560D01*
X11627415Y-5979560D02*
X11617891Y-5960512D01*
X11617891Y-5960512D02*
X11617891Y-5789084D01*
X11798844Y-5979560D02*
X11779796Y-5989084D01*
X11779796Y-5989084D02*
X11741701Y-5989084D01*
X11741701Y-5989084D02*
X11722653Y-5979560D01*
X11722653Y-5979560D02*
X11713130Y-5960512D01*
X11713130Y-5960512D02*
X11713130Y-5884322D01*
X11713130Y-5884322D02*
X11722653Y-5865274D01*
X11722653Y-5865274D02*
X11741701Y-5855750D01*
X11741701Y-5855750D02*
X11779796Y-5855750D01*
X11779796Y-5855750D02*
X11798844Y-5865274D01*
X11798844Y-5865274D02*
X11808368Y-5884322D01*
X11808368Y-5884322D02*
X11808368Y-5903369D01*
X11808368Y-5903369D02*
X11713130Y-5922417D01*
X11884558Y-5979560D02*
X11903606Y-5989084D01*
X11903606Y-5989084D02*
X11941701Y-5989084D01*
X11941701Y-5989084D02*
X11960749Y-5979560D01*
X11960749Y-5979560D02*
X11970272Y-5960512D01*
X11970272Y-5960512D02*
X11970272Y-5950988D01*
X11970272Y-5950988D02*
X11960749Y-5931941D01*
X11960749Y-5931941D02*
X11941701Y-5922417D01*
X11941701Y-5922417D02*
X11913130Y-5922417D01*
X11913130Y-5922417D02*
X11894082Y-5912893D01*
X11894082Y-5912893D02*
X11884558Y-5893846D01*
X11884558Y-5893846D02*
X11884558Y-5884322D01*
X11884558Y-5884322D02*
X11894082Y-5865274D01*
X11894082Y-5865274D02*
X11913130Y-5855750D01*
X11913130Y-5855750D02*
X11941701Y-5855750D01*
X11941701Y-5855750D02*
X11960749Y-5865274D01*
X12036939Y-6065274D02*
X12046463Y-6055750D01*
X12046463Y-6055750D02*
X12065511Y-6027179D01*
X12065511Y-6027179D02*
X12075034Y-6008131D01*
X12075034Y-6008131D02*
X12084558Y-5979560D01*
X12084558Y-5979560D02*
X12094082Y-5931941D01*
X12094082Y-5931941D02*
X12094082Y-5893846D01*
X12094082Y-5893846D02*
X12084558Y-5846227D01*
X12084558Y-5846227D02*
X12075034Y-5817655D01*
X12075034Y-5817655D02*
X12065511Y-5798608D01*
X12065511Y-5798608D02*
X12046463Y-5770036D01*
X12046463Y-5770036D02*
X12036939Y-5760512D01*
M02*
