G04 #@! TF.GenerationSoftware,KiCad,Pcbnew,7.0.9*
G04 #@! TF.CreationDate,2024-01-22T22:42:44+01:00*
G04 #@! TF.ProjectId,simm72_rom_2M55,73696d6d-3732-45f7-926f-6d5f324d3535,A*
G04 #@! TF.SameCoordinates,Original*
G04 #@! TF.FileFunction,Soldermask,Top*
G04 #@! TF.FilePolarity,Negative*
%FSLAX46Y46*%
G04 Gerber Fmt 4.6, Leading zero omitted, Abs format (unit mm)*
G04 Created by KiCad (PCBNEW 7.0.9) date 2024-01-22 22:42:44*
%MOMM*%
%LPD*%
G01*
G04 APERTURE LIST*
%ADD10R,1.040000X2.540000*%
%ADD11R,1.422400X1.422400*%
%ADD12C,1.422400*%
G04 APERTURE END LIST*
D10*
X57375000Y-113921000D03*
X58645000Y-113921000D03*
X59915000Y-113921000D03*
X61185000Y-113921000D03*
X62455000Y-113921000D03*
X63725000Y-113921000D03*
X64995000Y-113921000D03*
X66265000Y-113921000D03*
X67535000Y-113921000D03*
X68805000Y-113921000D03*
X70075000Y-113921000D03*
X71345000Y-113921000D03*
X72615000Y-113921000D03*
X73885000Y-113921000D03*
X75155000Y-113921000D03*
X76425000Y-113921000D03*
X77695000Y-113921000D03*
X78965000Y-113921000D03*
X80235000Y-113921000D03*
X81505000Y-113921000D03*
X82775000Y-113921000D03*
X84045000Y-113921000D03*
X85315000Y-113921000D03*
X86585000Y-113921000D03*
X87855000Y-113921000D03*
X89125000Y-113921000D03*
X90395000Y-113921000D03*
X91665000Y-113921000D03*
X92935000Y-113921000D03*
X94205000Y-113921000D03*
X95475000Y-113921000D03*
X96745000Y-113921000D03*
X98015000Y-113921000D03*
X99285000Y-113921000D03*
X100555000Y-113921000D03*
X101825000Y-113921000D03*
X108175000Y-113921000D03*
X109445000Y-113921000D03*
X110715000Y-113921000D03*
X111985000Y-113921000D03*
X113255000Y-113921000D03*
X114525000Y-113921000D03*
X115795000Y-113921000D03*
X117065000Y-113921000D03*
X118335000Y-113921000D03*
X119605000Y-113921000D03*
X120875000Y-113921000D03*
X122145000Y-113921000D03*
X123415000Y-113921000D03*
X124685000Y-113921000D03*
X125955000Y-113921000D03*
X127225000Y-113921000D03*
X128495000Y-113921000D03*
X129765000Y-113921000D03*
X131035000Y-113921000D03*
X132305000Y-113921000D03*
X133575000Y-113921000D03*
X134845000Y-113921000D03*
X136115000Y-113921000D03*
X137385000Y-113921000D03*
X138655000Y-113921000D03*
X139925000Y-113921000D03*
X141195000Y-113921000D03*
X142465000Y-113921000D03*
X143735000Y-113921000D03*
X145005000Y-113921000D03*
X146275000Y-113921000D03*
X147545000Y-113921000D03*
X148815000Y-113921000D03*
X150085000Y-113921000D03*
X151355000Y-113921000D03*
X152625000Y-113921000D03*
D11*
X92730000Y-101080000D03*
D12*
X95270000Y-103620000D03*
X95270000Y-101080000D03*
X97810000Y-103620000D03*
X100350000Y-101080000D03*
X97810000Y-101080000D03*
X100350000Y-98540000D03*
X97810000Y-98540000D03*
X100350000Y-96000000D03*
X97810000Y-96000000D03*
X100350000Y-93460000D03*
X97810000Y-93460000D03*
X100350000Y-90920000D03*
X97810000Y-88380000D03*
X97810000Y-90920000D03*
X95270000Y-88380000D03*
X95270000Y-90920000D03*
X92730000Y-88380000D03*
X92730000Y-90920000D03*
X90190000Y-88380000D03*
X87650000Y-90920000D03*
X90190000Y-90920000D03*
X87650000Y-93460000D03*
X90190000Y-93460000D03*
X87650000Y-96000000D03*
X90190000Y-96000000D03*
X87650000Y-98540000D03*
X90190000Y-98540000D03*
X87650000Y-101080000D03*
X90190000Y-103620000D03*
X90190000Y-101080000D03*
X92730000Y-103620000D03*
D11*
X136730000Y-101080000D03*
D12*
X139270000Y-103620000D03*
X139270000Y-101080000D03*
X141810000Y-103620000D03*
X144350000Y-101080000D03*
X141810000Y-101080000D03*
X144350000Y-98540000D03*
X141810000Y-98540000D03*
X144350000Y-96000000D03*
X141810000Y-96000000D03*
X144350000Y-93460000D03*
X141810000Y-93460000D03*
X144350000Y-90920000D03*
X141810000Y-88380000D03*
X141810000Y-90920000D03*
X139270000Y-88380000D03*
X139270000Y-90920000D03*
X136730000Y-88380000D03*
X136730000Y-90920000D03*
X134190000Y-88380000D03*
X131650000Y-90920000D03*
X134190000Y-90920000D03*
X131650000Y-93460000D03*
X134190000Y-93460000D03*
X131650000Y-96000000D03*
X134190000Y-96000000D03*
X131650000Y-98540000D03*
X134190000Y-98540000D03*
X131650000Y-101080000D03*
X134190000Y-103620000D03*
X134190000Y-101080000D03*
X136730000Y-103620000D03*
D11*
X70730000Y-101080000D03*
D12*
X73270000Y-103620000D03*
X73270000Y-101080000D03*
X75810000Y-103620000D03*
X78350000Y-101080000D03*
X75810000Y-101080000D03*
X78350000Y-98540000D03*
X75810000Y-98540000D03*
X78350000Y-96000000D03*
X75810000Y-96000000D03*
X78350000Y-93460000D03*
X75810000Y-93460000D03*
X78350000Y-90920000D03*
X75810000Y-88380000D03*
X75810000Y-90920000D03*
X73270000Y-88380000D03*
X73270000Y-90920000D03*
X70730000Y-88380000D03*
X70730000Y-90920000D03*
X68190000Y-88380000D03*
X65650000Y-90920000D03*
X68190000Y-90920000D03*
X65650000Y-93460000D03*
X68190000Y-93460000D03*
X65650000Y-96000000D03*
X68190000Y-96000000D03*
X65650000Y-98540000D03*
X68190000Y-98540000D03*
X65650000Y-101080000D03*
X68190000Y-103620000D03*
X68190000Y-101080000D03*
X70730000Y-103620000D03*
D11*
X114920000Y-101080000D03*
D12*
X117460000Y-103620000D03*
X117460000Y-101080000D03*
X120000000Y-103620000D03*
X122540000Y-101080000D03*
X120000000Y-101080000D03*
X122540000Y-98540000D03*
X120000000Y-98540000D03*
X122540000Y-96000000D03*
X120000000Y-96000000D03*
X122540000Y-93460000D03*
X120000000Y-93460000D03*
X122540000Y-90920000D03*
X120000000Y-88380000D03*
X120000000Y-90920000D03*
X117460000Y-88380000D03*
X117460000Y-90920000D03*
X114920000Y-88380000D03*
X114920000Y-90920000D03*
X112380000Y-88380000D03*
X109840000Y-90920000D03*
X112380000Y-90920000D03*
X109840000Y-93460000D03*
X112380000Y-93460000D03*
X109840000Y-96000000D03*
X112380000Y-96000000D03*
X109840000Y-98540000D03*
X112380000Y-98540000D03*
X109840000Y-101080000D03*
X112380000Y-103620000D03*
X112380000Y-101080000D03*
X114920000Y-103620000D03*
G36*
X102530039Y-112391285D02*
G01*
X102575794Y-112444089D01*
X102587000Y-112495600D01*
X102587000Y-115321000D01*
X102567315Y-115388039D01*
X102514511Y-115433794D01*
X102463000Y-115445000D01*
X56737000Y-115445000D01*
X56669961Y-115425315D01*
X56624206Y-115372511D01*
X56613000Y-115321000D01*
X56613000Y-112495600D01*
X56632685Y-112428561D01*
X56685489Y-112382806D01*
X56737000Y-112371600D01*
X102463000Y-112371600D01*
X102530039Y-112391285D01*
G37*
G36*
X153330039Y-112391285D02*
G01*
X153375794Y-112444089D01*
X153387000Y-112495600D01*
X153387000Y-115321000D01*
X153367315Y-115388039D01*
X153314511Y-115433794D01*
X153263000Y-115445000D01*
X107537000Y-115445000D01*
X107469961Y-115425315D01*
X107424206Y-115372511D01*
X107413000Y-115321000D01*
X107413000Y-112495600D01*
X107432685Y-112428561D01*
X107485489Y-112382806D01*
X107537000Y-112371600D01*
X153263000Y-112371600D01*
X153330039Y-112391285D01*
G37*
M02*
